<svg width="145" height="87" viewBox="0 0 145 87" fill="none" xmlns="http://www.w3.org/2000/svg">
<g clip-path="url(#clip0_214_14661)">
<rect x="0.245117" y="0.431885" width="144" height="86" rx="3.88638" fill="white"/>
<path d="M0.245117 12.5587C0.245117 5.86123 5.67446 0.431885 12.3719 0.431885L26.1919 0.431885V12.5587H0.245117V12.5587Z" fill="white"/>
<rect x="26.1924" y="0.431885" width="92.1064" height="12.1268" fill="white"/>
<path d="M118.298 0.431885L132.118 0.431885C138.815 0.431885 144.245 5.86123 144.245 12.5587V12.5587H118.298V0.431885Z" fill="white"/>
<rect width="144" height="15" transform="translate(0.245117 12.5587)" fill="white"/>
<path d="M22.4227 16.3973H25.4949C26.8279 16.3973 27.8869 16.7665 28.672 17.5049C29.457 18.2433 29.8496 19.2344 29.8496 20.478C29.8496 21.7217 29.457 22.7127 28.672 23.4511C27.8869 24.1895 26.8279 24.5587 25.4949 24.5587H22.4227V16.3973ZM25.4949 17.2834H23.3613V23.6726H25.4949C26.5753 23.6726 27.407 23.385 27.9899 22.8098C28.5729 22.2347 28.8644 21.4574 28.8644 20.478C28.8644 19.4948 28.5729 18.7175 27.9899 18.1462C27.4109 17.571 26.5792 17.2834 25.4949 17.2834ZM32.4534 19.0381V24.5587H31.579V19.0381H32.4534ZM32.0162 16.4614C32.1872 16.4614 32.3329 16.5217 32.4534 16.6422C32.5739 16.7587 32.6341 16.9045 32.6341 17.0794C32.6341 17.2543 32.5739 17.4 32.4534 17.5166C32.3368 17.6332 32.1911 17.6915 32.0162 17.6915C31.8413 17.6915 31.6955 17.6332 31.579 17.5166C31.4624 17.4 31.4041 17.2543 31.4041 17.0794C31.4041 16.9045 31.4624 16.7587 31.579 16.6422C31.6955 16.5217 31.8413 16.4614 32.0162 16.4614ZM41.3668 18.9273C42.0547 18.9273 42.6105 19.1294 43.0341 19.5336C43.4616 19.9378 43.6753 20.4722 43.6753 21.1368V24.5587H42.8067V21.4224C42.8067 20.8977 42.6668 20.4897 42.387 20.1982C42.1072 19.9028 41.7146 19.7551 41.2094 19.7551C40.7314 19.7551 40.3291 19.9106 40.0027 20.2215C39.6801 20.5285 39.5188 20.9366 39.5188 21.4457V24.5587H38.6502V21.4224C38.6502 20.8977 38.5103 20.4897 38.2305 20.1982C37.9546 19.9028 37.564 19.7551 37.0588 19.7551C36.5807 19.7551 36.1785 19.9106 35.852 20.2215C35.5295 20.5285 35.3682 20.9366 35.3682 21.4457V24.5587H34.4937V19.0381H35.3565V19.8251C35.5664 19.5142 35.8365 19.2868 36.1668 19.143C36.4972 18.9992 36.8469 18.9273 37.2161 18.9273C37.6942 18.9273 38.1139 19.0303 38.4753 19.2363C38.8368 19.4384 39.1069 19.7221 39.2856 20.0874C39.4916 19.6871 39.7812 19.3937 40.1543 19.2072C40.5312 19.0206 40.9354 18.9273 41.3668 18.9273ZM47.9721 18.9273C48.7222 18.9273 49.3401 19.1936 49.8259 19.726C50.3156 20.2584 50.5624 20.9424 50.5662 21.778C50.5662 21.8985 50.5604 22.0073 50.5488 22.1045H46.1241C46.1824 22.6796 46.3923 23.1246 46.7537 23.4394C47.1151 23.7503 47.5562 23.9058 48.077 23.9058C48.7377 23.9058 49.3207 23.6746 49.8259 23.2121L50.2923 23.8067C49.6899 24.3819 48.934 24.6695 48.0245 24.6695C47.2045 24.6695 46.5341 24.4052 46.0133 23.8767C45.4926 23.3442 45.2322 22.6524 45.2322 21.8013C45.2322 20.9619 45.4906 20.274 46.0075 19.7377C46.5244 19.1974 47.1793 18.9273 47.9721 18.9273ZM47.9546 19.7027C47.4571 19.7027 47.0471 19.8581 46.7246 20.169C46.402 20.48 46.2057 20.89 46.1358 21.3991H49.6801C49.6257 20.8822 49.4411 20.4702 49.1263 20.1632C48.8154 19.8562 48.4248 19.7027 47.9546 19.7027ZM55.8789 19.0381V19.8251H53.4946V22.6116C53.4946 23.0275 53.5937 23.3384 53.7919 23.5444C53.9901 23.7503 54.2563 23.8533 54.5906 23.8533C55.0064 23.8533 55.3931 23.7231 55.7506 23.4628L56.1587 24.1215C55.6768 24.4868 55.1308 24.6695 54.5206 24.6695C53.9143 24.6695 53.446 24.5004 53.1157 24.1623C52.7892 23.8203 52.626 23.3092 52.626 22.6291V19.8251H51.4193V19.0381H52.626V17.2834H53.4946V19.0381H55.8789ZM58.288 16.1641V19.8076C58.5017 19.5045 58.7718 19.2829 59.0983 19.143C59.4247 18.9992 59.7706 18.9273 60.1359 18.9273C60.82 18.9273 61.3738 19.1294 61.7974 19.5336C62.2249 19.9378 62.4386 20.4722 62.4386 21.1368V24.5587H61.57V21.4224C61.57 20.8977 61.4301 20.4897 61.1503 20.1982C60.8744 19.9028 60.4838 19.7551 59.9785 19.7551C59.5005 19.7551 59.0983 19.9106 58.7718 20.2215C58.4493 20.5285 58.288 20.9366 58.288 21.4457V24.5587H57.4135V16.1641H58.288ZM69.2932 19.0381L64.7986 26.9139H63.8367L65.8946 23.3637L63.3587 19.0381H64.3322L66.3901 22.5009L68.3372 19.0381H69.2932ZM71.2793 16.1641V24.5587H70.4048V16.1641H71.2793ZM78.7656 18.9273C79.6245 18.9273 80.2969 19.2383 80.7827 19.8601V16.1641H81.6513V24.5587H80.7827V23.7367C80.3008 24.3586 79.6284 24.6695 78.7656 24.6695C77.9845 24.6695 77.3296 24.3974 76.8011 23.8533C76.2725 23.3054 76.0082 22.6194 76.0082 21.7955C76.0082 20.9716 76.2725 20.2876 76.8011 19.7435C77.3296 19.1994 77.9845 18.9273 78.7656 18.9273ZM78.8706 19.7435C78.2876 19.7435 77.8115 19.9417 77.4423 20.3381C77.077 20.7306 76.8943 21.2164 76.8943 21.7955C76.8943 22.3746 77.0789 22.8623 77.4481 23.2587C77.8174 23.6551 78.2915 23.8533 78.8706 23.8533C79.4419 23.8533 79.9121 23.659 80.2813 23.2704C80.6505 22.8779 80.8351 22.3862 80.8351 21.7955C80.8351 21.2087 80.6505 20.7209 80.2813 20.3323C79.9121 19.9397 79.4419 19.7435 78.8706 19.7435ZM84.5666 19.0381V24.5587H83.6922V19.0381H84.5666ZM84.1294 16.4614C84.3004 16.4614 84.4461 16.5217 84.5666 16.6422C84.6871 16.7587 84.7473 16.9045 84.7473 17.0794C84.7473 17.2543 84.6871 17.4 84.5666 17.5166C84.45 17.6332 84.3043 17.6915 84.1294 17.6915C83.9545 17.6915 83.8088 17.6332 83.6922 17.5166C83.5756 17.4 83.5173 17.2543 83.5173 17.0794C83.5173 16.9045 83.5756 16.7587 83.6922 16.6422C83.8088 16.5217 83.9545 16.4614 84.1294 16.4614ZM90.6935 19.5336L90.3146 20.2099C90.1125 20.0699 89.8463 19.9495 89.5159 19.8484C89.1895 19.7435 88.8533 19.691 88.5074 19.691C88.111 19.691 87.7942 19.7687 87.5572 19.9242C87.3201 20.0797 87.2016 20.2915 87.2016 20.5596C87.2016 20.9871 87.5766 21.2456 88.3267 21.335L88.9796 21.4166C90.2155 21.5759 90.8334 22.0889 90.8334 22.9556C90.8334 23.4802 90.6138 23.8961 90.1747 24.2031C89.7355 24.5101 89.1448 24.6636 88.4025 24.6636C87.4892 24.6636 86.7216 24.4285 86.0998 23.9583L86.502 23.3054C87.015 23.7057 87.6524 23.9058 88.4141 23.9058C88.8883 23.9058 89.2594 23.83 89.5276 23.6784C89.7996 23.523 89.9356 23.3015 89.9356 23.0139C89.9356 22.5708 89.5509 22.3027 88.7814 22.2094L88.1226 22.1336C87.5125 22.0598 87.0558 21.8927 86.7527 21.6323C86.4496 21.368 86.298 21.026 86.298 20.6063C86.298 20.0894 86.4981 19.6813 86.8984 19.3821C87.2987 19.0828 87.8331 18.9332 88.5016 18.9332C88.9252 18.9332 89.3274 18.9876 89.7083 19.0964C90.0892 19.2052 90.4176 19.351 90.6935 19.5336ZM97.3061 19.0381V22.256C97.3061 22.6524 97.2381 23.008 97.1021 23.3228C96.9661 23.6338 96.7815 23.8864 96.5483 24.0807C96.3151 24.275 96.0489 24.4227 95.7496 24.5237C95.4543 24.6209 95.1375 24.6695 94.7994 24.6695C94.4574 24.6695 94.1368 24.6209 93.8375 24.5237C93.5422 24.4227 93.2779 24.275 93.0447 24.0807C92.8115 23.8864 92.6269 23.6338 92.4909 23.3228C92.3588 23.008 92.2927 22.6524 92.2927 22.256V19.0381H93.1613V22.1744C93.1613 22.7263 93.3109 23.1441 93.6102 23.4278C93.9094 23.7115 94.3059 23.8533 94.7994 23.8533C95.293 23.8533 95.6875 23.7115 95.9828 23.4278C96.2821 23.1441 96.4317 22.7263 96.4317 22.1744V19.0381H97.3061ZM100.154 16.1641V24.5587H99.2795V16.1641H100.154ZM105.814 19.0381V19.8251H103.617V24.5587H102.742V19.8251H101.483V19.0381H102.742V18.0937C102.742 17.468 102.892 16.9725 103.191 16.6072C103.49 16.238 103.953 16.0534 104.579 16.0534C105.134 16.0534 105.638 16.1913 106.088 16.4673L105.774 17.196C105.404 16.9783 105.025 16.8695 104.637 16.8695C103.957 16.8695 103.617 17.2776 103.617 18.0937V19.0381H105.814ZM108.101 19.0381V24.5587H107.227V19.0381H108.101ZM107.664 16.4614C107.835 16.4614 107.981 16.5217 108.101 16.6422C108.222 16.7587 108.282 16.9045 108.282 17.0794C108.282 17.2543 108.222 17.4 108.101 17.5166C107.985 17.6332 107.839 17.6915 107.664 17.6915C107.489 17.6915 107.343 17.6332 107.227 17.5166C107.11 17.4 107.052 17.2543 107.052 17.0794C107.052 16.9045 107.11 16.7587 107.227 16.6422C107.343 16.5217 107.489 16.4614 107.664 16.4614ZM112.479 18.9273C113.338 18.9273 114.01 19.2383 114.496 19.8601V16.1641H115.365V24.5587H114.496V23.7367C114.014 24.3586 113.342 24.6695 112.479 24.6695C111.698 24.6695 111.043 24.3974 110.515 23.8533C109.986 23.3054 109.722 22.6194 109.722 21.7955C109.722 20.9716 109.986 20.2876 110.515 19.7435C111.043 19.1994 111.698 18.9273 112.479 18.9273ZM112.584 19.7435C112.001 19.7435 111.525 19.9417 111.156 20.3381C110.791 20.7306 110.608 21.2164 110.608 21.7955C110.608 22.3746 110.793 22.8623 111.162 23.2587C111.531 23.6551 112.005 23.8533 112.584 23.8533C113.155 23.8533 113.626 23.659 113.995 23.2704C114.364 22.8779 114.549 22.3862 114.549 21.7955C114.549 21.2087 114.364 20.7209 113.995 20.3323C113.626 19.9397 113.155 19.7435 112.584 19.7435ZM119.726 18.9273C120.476 18.9273 121.094 19.1936 121.58 19.726C122.069 20.2584 122.316 20.9424 122.32 21.778C122.32 21.8985 122.314 22.0073 122.303 22.1045H117.878C117.936 22.6796 118.146 23.1246 118.508 23.4394C118.869 23.7503 119.31 23.9058 119.831 23.9058C120.492 23.9058 121.075 23.6746 121.58 23.2121L122.046 23.8067C121.444 24.3819 120.688 24.6695 119.778 24.6695C118.958 24.6695 118.288 24.4052 117.767 23.8767C117.246 23.3442 116.986 22.6524 116.986 21.8013C116.986 20.9619 117.245 20.274 117.761 19.7377C118.278 19.1974 118.933 18.9273 119.726 18.9273ZM119.708 19.7027C119.211 19.7027 118.801 19.8581 118.478 20.169C118.156 20.48 117.96 20.89 117.89 21.3991H121.434C121.38 20.8822 121.195 20.4702 120.88 20.1632C120.569 19.8562 120.179 19.7027 119.708 19.7027Z" fill="#231F20"/>
<path d="M0.245117 27.5587H26.1919V39.6842H12.3706C5.6739 39.6842 0.245117 34.2555 0.245117 27.5587V27.5587Z" fill="white"/>
<rect x="26.1924" y="27.5587" width="92.1064" height="12.1255" fill="white"/>
<path d="M118.298 27.5587H144.245V27.5587C144.245 34.2555 138.816 39.6842 132.119 39.6842H118.298V27.5587Z" fill="white"/>
<g clip-path="url(#clip1_214_14661)">
<path d="M114.509 39.6842L29.9805 39.6842V67.8605H114.509V39.6842Z" fill="white"/>
<path d="M49.0234 55.2297L56.0189 52.3149" stroke="#231F20" stroke-width="0.971596"/>
<path d="M56.0195 52.3149L62.9179 49.303" stroke="#CFCF37" stroke-width="0.971596"/>
<path d="M95.1752 52.0234L88.1797 55.0354" stroke="#231F20" stroke-width="0.971596"/>
<path d="M88.1786 55.0355L81.2803 57.9503" stroke="#CFCF37" stroke-width="0.971596"/>
<path d="M67.29 49.9832L76.9088 57.2701" stroke="#CFCF37" stroke-width="0.971596"/>
<path d="M63.6953 50.0803C63.7601 50.0803 63.8572 50.1127 63.9868 50.1775C64.1811 50.2423 64.343 50.307 64.4726 50.3718C64.6669 50.4366 64.8288 50.469 64.9584 50.469C65.2822 50.469 65.5413 50.3718 65.7356 50.1775C65.93 50.0479 66.0271 49.8536 66.0271 49.5945C66.0271 49.4002 65.9624 49.2383 65.8328 49.1087C65.768 49.044 65.6709 48.9792 65.5413 48.9144C65.4118 48.8496 65.2175 48.7849 64.9584 48.7201C64.6993 48.5905 64.4726 48.4934 64.2783 48.4286C64.0839 48.3638 63.922 48.2343 63.7925 48.04C63.6629 47.8457 63.5981 47.619 63.5981 47.3599C63.5981 46.9064 63.7601 46.5502 64.0839 46.2911C64.343 46.032 64.7641 45.9025 65.347 45.9025C65.7356 45.9025 66.1243 45.9996 66.5129 46.1939L66.4158 46.7769C65.9624 46.5826 65.6061 46.4854 65.347 46.4854C65.0231 46.4854 64.764 46.5502 64.5697 46.6797C64.3754 46.8093 64.3106 47.0036 64.3754 47.2627C64.3754 47.457 64.4078 47.5866 64.4726 47.6513C64.5373 47.7809 64.6345 47.878 64.7641 47.9428C64.8936 48.0076 65.0879 48.0724 65.347 48.1371C65.6061 48.2019 65.8328 48.2991 66.0271 48.4286C66.2214 48.4934 66.3834 48.6229 66.5129 48.8173C66.6425 49.0116 66.7072 49.2707 66.7072 49.5945C66.7072 50.0479 66.5453 50.4042 66.2214 50.6633C65.8976 50.9224 65.5089 51.0519 65.0555 51.0519C64.7317 51.0519 64.4726 50.9872 64.2783 50.8576C64.0192 50.8576 63.7601 50.7928 63.501 50.6633L63.6953 50.0803Z" fill="#CFCF37"/>
<path d="M77.6865 60.5735C77.7513 60.6383 77.8484 60.703 77.978 60.7678C78.1075 60.8326 78.2695 60.865 78.4638 60.865C78.6581 60.9297 78.82 60.9621 78.9496 60.9621C79.2734 60.9621 79.5325 60.8974 79.7269 60.7678C79.9212 60.5735 80.0183 60.3468 80.0183 60.0877C80.0183 59.8934 79.9536 59.7638 79.824 59.6991C79.7592 59.5695 79.6621 59.4723 79.5325 59.4076C79.403 59.3428 79.2087 59.278 78.9496 59.2133C78.6257 59.0837 78.399 58.9866 78.2695 58.9218C78.0751 58.857 77.9132 58.7275 77.7837 58.5331C77.6541 58.3388 77.5893 58.1121 77.5893 57.853C77.5893 57.3996 77.7189 57.0434 77.978 56.7843C78.3019 56.5252 78.7553 56.3956 79.3382 56.3956C79.6621 56.3956 80.0507 56.4928 80.5041 56.6871L80.3098 57.2701C79.9212 57.0757 79.5973 56.9786 79.3382 56.9786C79.0144 56.9786 78.7553 57.0434 78.5609 57.1729C78.3666 57.3025 78.2695 57.4968 78.2695 57.7559C78.2695 57.9502 78.3342 58.0797 78.4638 58.1445C78.5286 58.274 78.6257 58.3712 78.7553 58.436C78.8848 58.5008 79.0791 58.5655 79.3382 58.6303C79.5973 58.6951 79.824 58.7922 80.0183 58.9218C80.2127 58.9866 80.3746 59.1161 80.5041 59.3104C80.6337 59.5047 80.6985 59.7638 80.6985 60.0877C80.6985 60.5411 80.5365 60.8974 80.2127 61.1564C79.8888 61.4155 79.4678 61.5451 78.9496 61.5451C78.6905 61.5451 78.4314 61.5127 78.1723 61.4479C77.978 61.3832 77.7513 61.286 77.4922 61.1564L77.6865 60.5735Z" fill="#CFCF37"/>
</g>
</g>
<rect x="0.994886" y="1.18165" width="142.5" height="84.5005" rx="3.13661" stroke="white" stroke-width="1.49954"/>
<defs>
<clipPath id="clip0_214_14661">
<rect x="0.245117" y="0.431885" width="144" height="86" rx="3.88638" fill="white"/>
</clipPath>
<clipPath id="clip1_214_14661">
<rect width="84.5288" height="28.1763" fill="white" transform="translate(29.9805 39.6842)"/>
</clipPath>
</defs>
</svg>
