<svg width="145" height="87" viewBox="0 0 145 87" fill="none" xmlns="http://www.w3.org/2000/svg">
<g clip-path="url(#clip0_214_14229)">
<rect x="0.557617" y="0.431885" width="144" height="86" rx="3.88638" fill="white"/>
<path d="M0.557617 11.1568C0.557617 4.45938 5.98696 -0.969971 12.6844 -0.969971L26.5044 -0.969971V11.1568L0.557617 11.1568V11.1568Z" fill="white"/>
<rect x="26.5049" y="-0.969971" width="92.1064" height="12.1268" fill="white"/>
<path d="M118.61 -0.969971L132.43 -0.969971C139.128 -0.969971 144.557 4.45938 144.557 11.1568V11.1568L118.61 11.1568V-0.969971Z" fill="white"/>
<rect width="144" height="15" transform="translate(0.557617 11.1569)" fill="white"/>
<path d="M50.1738 14.9955V23.1569H49.2352V14.9955H50.1738ZM56.4548 18.1318L56.0759 18.808C55.8738 18.6681 55.6076 18.5476 55.2773 18.4466C54.9508 18.3416 54.6146 18.2892 54.2688 18.2892C53.8723 18.2892 53.5556 18.3669 53.3185 18.5223C53.0815 18.6778 52.9629 18.8896 52.9629 19.1578C52.9629 19.5853 53.338 19.8437 54.088 19.9331L54.741 20.0147C55.9768 20.1741 56.5948 20.6871 56.5948 21.5537C56.5948 22.0784 56.3752 22.4942 55.936 22.8013C55.4969 23.1083 54.9061 23.2618 54.1638 23.2618C53.2505 23.2618 52.483 23.0267 51.8611 22.5564L52.2634 21.9035C52.7764 22.3038 53.4138 22.5039 54.1755 22.5039C54.6496 22.5039 55.0208 22.4282 55.2889 22.2766C55.561 22.1211 55.697 21.8996 55.697 21.612C55.697 21.169 55.3123 20.9008 54.5427 20.8075L53.884 20.7318C53.2738 20.6579 52.8172 20.4908 52.5141 20.2304C52.2109 19.9661 52.0593 19.6241 52.0593 19.2044C52.0593 18.6875 52.2595 18.2794 52.6598 17.9802C53.0601 17.6809 53.5945 17.5313 54.2629 17.5313C54.6865 17.5313 55.0888 17.5857 55.4696 17.6945C55.8505 17.8034 56.1789 17.9491 56.4548 18.1318ZM60.6016 17.5255C61.4333 17.5255 62.1251 17.7995 62.6769 18.3475C63.2327 18.8954 63.5105 19.5775 63.5105 20.3936C63.5105 21.2137 63.2327 21.8977 62.6769 22.4457C62.1251 22.9936 61.4333 23.2676 60.6016 23.2676C59.7699 23.2676 59.0781 22.9936 58.5263 22.4457C57.9744 21.8977 57.6985 21.2137 57.6985 20.3936C57.6985 19.5775 57.9744 18.8954 58.5263 18.3475C59.082 17.7995 59.7738 17.5255 60.6016 17.5255ZM62.0415 18.9246C61.6567 18.5359 61.1768 18.3416 60.6016 18.3416C60.0264 18.3416 59.5464 18.5359 59.1617 18.9246C58.7769 19.3132 58.5846 19.8029 58.5846 20.3936C58.5846 20.9883 58.7769 21.4799 59.1617 21.8685C59.5464 22.2572 60.0264 22.4515 60.6016 22.4515C61.1768 22.4515 61.6567 22.2572 62.0415 21.8685C62.4262 21.4799 62.6186 20.9883 62.6186 20.3936C62.6186 19.8029 62.4262 19.3132 62.0415 18.9246ZM68.0175 17.5255C68.7987 17.5255 69.4536 17.7975 69.9821 18.3416C70.5107 18.8857 70.7749 19.5697 70.7749 20.3936C70.7749 21.2176 70.5107 21.9035 69.9821 22.4515C69.4536 22.9956 68.7987 23.2676 68.0175 23.2676C67.1586 23.2676 66.4882 22.9587 66.0063 22.3407V25.4887H65.1319V17.6363H66.0063V18.4524C66.4882 17.8345 67.1586 17.5255 68.0175 17.5255ZM67.9126 18.3416C67.3413 18.3416 66.8711 18.5379 66.5018 18.9304C66.1326 19.3191 65.948 19.8068 65.948 20.3936C65.948 20.9844 66.1326 21.476 66.5018 21.8685C66.8711 22.2572 67.3413 22.4515 67.9126 22.4515C68.4956 22.4515 68.9697 22.2552 69.335 21.8627C69.7003 21.4663 69.883 20.9766 69.883 20.3936C69.883 19.8146 69.6984 19.3288 69.3292 18.9362C68.96 18.5398 68.4878 18.3416 67.9126 18.3416ZM74.897 17.5255C75.3012 17.5255 75.6393 17.5877 75.9113 17.712L75.7015 18.569C75.4294 18.4213 75.1107 18.3475 74.7454 18.3475C74.3101 18.3475 73.9545 18.5049 73.6786 18.8197C73.4027 19.1345 73.2647 19.5503 73.2647 20.0672V23.1569H72.3961V17.6363H73.2589V18.4116C73.4493 18.1279 73.6844 17.9102 73.9643 17.7587C74.248 17.6032 74.5589 17.5255 74.897 17.5255ZM79.3276 17.5255C80.0776 17.5255 80.6956 17.7917 81.1814 18.3241C81.671 18.8566 81.9178 19.5406 81.9217 20.3762C81.9217 20.4966 81.9159 20.6054 81.9042 20.7026H77.4796C77.5379 21.2778 77.7477 21.7228 78.1092 22.0376C78.4706 22.3485 78.9117 22.5039 79.4325 22.5039C80.0932 22.5039 80.6761 22.2727 81.1814 21.8102L81.6477 22.4048C81.0453 22.98 80.2894 23.2676 79.38 23.2676C78.56 23.2676 77.8896 23.0033 77.3688 22.4748C76.848 21.9424 76.5877 21.2506 76.5877 20.3995C76.5877 19.56 76.8461 18.8721 77.363 18.3358C77.8799 17.7956 78.5347 17.5255 79.3276 17.5255ZM79.3101 18.3008C78.8126 18.3008 78.4026 18.4563 78.08 18.7672C77.7575 19.0781 77.5612 19.4881 77.4912 19.9972H81.0356C80.9812 19.4803 80.7966 19.0684 80.4818 18.7614C80.1709 18.4543 79.7803 18.3008 79.3101 18.3008ZM86.2653 17.5255C86.9493 17.5255 87.5031 17.7276 87.9267 18.1318C88.3542 18.5359 88.568 19.0703 88.568 19.7349V23.1569H87.6994V20.0205C87.6994 19.4959 87.5595 19.0878 87.2796 18.7963C87.0037 18.501 86.6131 18.3533 86.1079 18.3533C85.6299 18.3533 85.2276 18.5087 84.9012 18.8197C84.5786 19.1267 84.4173 19.5348 84.4173 20.0439V23.1569H83.5429V17.6363H84.4057V18.4232C84.6155 18.1123 84.8856 17.885 85.216 17.7412C85.5463 17.5974 85.8961 17.5255 86.2653 17.5255ZM92.8654 17.5255C93.6154 17.5255 94.2334 17.7917 94.7192 18.3241C95.2089 18.8566 95.4557 19.5406 95.4595 20.3762C95.4595 20.4966 95.4537 20.6054 95.442 20.7026H91.0174C91.0757 21.2778 91.2856 21.7228 91.647 22.0376C92.0084 22.3485 92.4495 22.5039 92.9703 22.5039C93.631 22.5039 94.214 22.2727 94.7192 21.8102L95.1855 22.4048C94.5832 22.98 93.8273 23.2676 92.9178 23.2676C92.0978 23.2676 91.4274 23.0033 90.9066 22.4748C90.3859 21.9424 90.1255 21.2506 90.1255 20.3995C90.1255 19.56 90.3839 18.8721 90.9008 18.3358C91.4177 17.7956 92.0726 17.5255 92.8654 17.5255ZM92.8479 18.3008C92.3504 18.3008 91.9404 18.4563 91.6178 18.7672C91.2953 19.0781 91.099 19.4881 91.0291 19.9972H94.5734C94.519 19.4803 94.3344 19.0684 94.0196 18.7614C93.7087 18.4543 93.3181 18.3008 92.8479 18.3008Z" fill="#231F20"/>
<g clip-path="url(#clip1_214_14229)">
<path d="M114.337 26.1569L30.7793 26.1569V75.7082H114.337V26.1569Z" fill="white"/>
<path d="M49.3359 46.6574L64.4928 37.9131" stroke="#231F20" stroke-width="0.971596"/>
<path d="M50.6006 48.9894L64.4944 41.0223" stroke="#231F20" stroke-width="0.971596"/>
<path d="M95.3902 39.0791L79.6504 48.2121" stroke="#231F20" stroke-width="0.971596"/>
<path d="M94.128 36.8444L78.291 45.9774" stroke="#231F20" stroke-width="0.971596"/>
<path d="M79.6504 64.1462V46.6575" stroke="#231F20" stroke-width="0.971596"/>
<path d="M64.4941 37.9131L79.651 46.6574" stroke="#231F20" stroke-width="0.971596"/>
<path d="M63.7168 38.3989L64.4941 37.9131L65.1742 38.3989" stroke="#231F20" stroke-width="0.971596"/>
<path d="M79.6503 47.5319V46.6574L78.873 46.2688" stroke="#231F20" stroke-width="0.971596"/>
</g>
<path d="M0.557617 75.7083H26.5044V87.8338H12.6831C5.9864 87.8338 0.557617 82.405 0.557617 75.7083V75.7083Z" fill="white"/>
<rect x="26.5049" y="75.7083" width="92.1064" height="12.1255" fill="white"/>
<path d="M118.61 75.7083H144.557V75.7083C144.557 82.405 139.128 87.8338 132.432 87.8338H118.61V75.7083Z" fill="white"/>
</g>
<rect x="1.30739" y="1.18165" width="142.5" height="84.5005" rx="3.13661" stroke="white" stroke-width="1.49954"/>
<defs>
<clipPath id="clip0_214_14229">
<rect x="0.557617" y="0.431885" width="144" height="86" rx="3.88638" fill="white"/>
</clipPath>
<clipPath id="clip1_214_14229">
<rect width="83.5572" height="49.5514" fill="white" transform="translate(30.7793 26.1569)"/>
</clipPath>
</defs>
</svg>
