<svg width="145" height="87" viewBox="0 0 145 87" fill="none" xmlns="http://www.w3.org/2000/svg">
<g clip-path="url(#clip0_214_14709)">
<rect x="0.806641" y="0.431885" width="144" height="86" rx="3.88638" fill="white"/>
<path d="M0.806641 12.5587C0.806641 5.86123 6.23599 0.431885 12.9334 0.431885L26.7534 0.431885V12.5587L0.806641 12.5587V12.5587Z" fill="white"/>
<rect x="26.7539" y="0.431885" width="92.1064" height="12.1268" fill="white"/>
<path d="M118.859 0.431885L132.679 0.431885C139.377 0.431885 144.806 5.86123 144.806 12.5587V12.5587L118.859 12.5587V0.431885Z" fill="white"/>
<rect width="144" height="15" transform="translate(0.806641 12.5586)" fill="white"/>
<path d="M54.5286 16.3972L57.8806 24.5586H56.8779L55.951 22.2851H51.9111L50.99 24.5586H50.0165L53.3685 16.3972H54.5286ZM53.934 17.3241L52.2726 21.399H55.5954L53.934 17.3241ZM61.507 18.9272C61.9189 18.9272 62.3017 19.003 62.6554 19.1546C63.0091 19.3023 63.3083 19.516 63.5531 19.7958L62.9935 20.3846C62.5543 19.9571 62.0511 19.7434 61.4836 19.7434C60.9279 19.7434 60.4635 19.9377 60.0904 20.3263C59.7212 20.715 59.5366 21.2046 59.5366 21.7954C59.5366 22.39 59.7212 22.8816 60.0904 23.2703C60.4635 23.6589 60.9279 23.8532 61.4836 23.8532C62.0588 23.8532 62.5679 23.6375 63.011 23.2061L63.5531 23.8007C63.3044 24.0806 63.0032 24.2963 62.6496 24.4478C62.2959 24.5955 61.915 24.6694 61.507 24.6694C60.6675 24.6694 59.9816 24.3973 59.4491 23.8532C58.9167 23.3091 58.6505 22.6232 58.6505 21.7954C58.6505 20.9715 58.9167 20.2875 59.4491 19.7434C59.9816 19.1993 60.6675 18.9272 61.507 18.9272ZM67.5373 18.9272C67.9415 18.9272 68.2796 18.9894 68.5516 19.1138L68.3418 19.9707C68.0697 19.823 67.751 19.7492 67.3857 19.7492C66.9505 19.7492 66.5948 19.9066 66.3189 20.2214C66.043 20.5362 65.905 20.952 65.905 21.4689V24.5586H65.0364V19.038H65.8992V19.8133C66.0896 19.5296 66.3247 19.312 66.6046 19.1604C66.8883 19.005 67.1992 18.9272 67.5373 18.9272ZM72.1311 18.9272C72.9628 18.9272 73.6546 19.2012 74.2064 19.7492C74.7622 20.2972 75.04 20.9792 75.04 21.7954C75.04 22.6154 74.7622 23.2994 74.2064 23.8474C73.6546 24.3954 72.9628 24.6694 72.1311 24.6694C71.2994 24.6694 70.6076 24.3954 70.0558 23.8474C69.5039 23.2994 69.228 22.6154 69.228 21.7954C69.228 20.9792 69.5039 20.2972 70.0558 19.7492C70.6115 19.2012 71.3033 18.9272 72.1311 18.9272ZM73.571 20.3263C73.1862 19.9377 72.7063 19.7434 72.1311 19.7434C71.5559 19.7434 71.0759 19.9377 70.6912 20.3263C70.3064 20.715 70.1141 21.2046 70.1141 21.7954C70.1141 22.39 70.3064 22.8816 70.6912 23.2703C71.0759 23.6589 71.5559 23.8532 72.1311 23.8532C72.7063 23.8532 73.1862 23.6589 73.571 23.2703C73.9557 22.8816 74.1481 22.39 74.1481 21.7954C74.1481 21.2046 73.9557 20.715 73.571 20.3263ZM77.5358 16.164V24.5586H76.6614V16.164H77.5358ZM81.8964 18.9272C82.6464 18.9272 83.2644 19.1934 83.7502 19.7259C84.2398 20.2583 84.4866 20.9423 84.4905 21.7779C84.4905 21.8984 84.4847 22.0072 84.473 22.1043H80.0484C80.1067 22.6795 80.3165 23.1245 80.678 23.4393C81.0394 23.7502 81.4805 23.9057 82.0013 23.9057C82.662 23.9057 83.2449 23.6744 83.7502 23.212L84.2165 23.8066C83.6141 24.3818 82.8582 24.6694 81.9488 24.6694C81.1288 24.6694 80.4584 24.4051 79.9376 23.8765C79.4168 23.3441 79.1565 22.6523 79.1565 21.8012C79.1565 20.9617 79.4149 20.2739 79.9318 19.7375C80.4487 19.1973 81.1035 18.9272 81.8964 18.9272ZM81.8789 19.7026C81.3814 19.7026 80.9714 19.858 80.6488 20.1689C80.3263 20.4798 80.13 20.8898 80.06 21.399H83.6044C83.55 20.8821 83.3654 20.4701 83.0506 20.1631C82.7397 19.8561 82.3491 19.7026 81.8789 19.7026ZM86.9861 19.038V24.5586H86.1117V19.038H86.9861ZM86.5489 16.4613C86.7199 16.4613 86.8656 16.5216 86.9861 16.642C87.1066 16.7586 87.1668 16.9044 87.1668 17.0792C87.1668 17.2541 87.1066 17.3999 86.9861 17.5165C86.8695 17.6331 86.7238 17.6914 86.5489 17.6914C86.374 17.6914 86.2283 17.6331 86.1117 17.5165C85.9951 17.3999 85.9368 17.2541 85.9368 17.0792C85.9368 16.9044 85.9951 16.7586 86.1117 16.642C86.2283 16.5216 86.374 16.4613 86.5489 16.4613ZM91.7489 18.9272C92.4329 18.9272 92.9867 19.1293 93.4103 19.5335C93.8378 19.9377 94.0516 20.4721 94.0516 21.1366V24.5586H93.183V21.4223C93.183 20.8976 93.0431 20.4895 92.7632 20.1981C92.4873 19.9027 92.0967 19.755 91.5915 19.755C91.1135 19.755 90.7112 19.9105 90.3848 20.2214C90.0622 20.5284 89.9009 20.9365 89.9009 21.4456V24.5586H89.0265V19.038H89.8893V19.825C90.0991 19.5141 90.3692 19.2867 90.6996 19.1429C91.0299 18.9991 91.3797 18.9272 91.7489 18.9272Z" fill="#231F20"/>
<path d="M0.806641 27.5586L26.7534 27.5586V39.6841H12.9322C6.23543 39.6841 0.806641 34.2553 0.806641 27.5586V27.5586Z" fill="white"/>
<rect x="26.7539" y="27.5586" width="92.1064" height="12.1255" fill="white"/>
<path d="M118.859 27.5586L144.806 27.5586V27.5586C144.806 34.2553 139.377 39.6841 132.681 39.6841H118.859V27.5586Z" fill="white"/>
<g clip-path="url(#clip1_214_14709)">
<path d="M116.529 39.6841L29.085 39.6841V58.1444L116.529 58.1444V39.6841Z" fill="white"/>
<path d="M48.8086 50.4687L64.9371 43.6675" stroke="#231F20" stroke-width="0.971596"/>
<path d="M49.8779 52.8977L64.549 46.6794" stroke="#231F20" stroke-width="0.971596"/>
<path d="M64.9375 43.6675L78.9285 54.1607" stroke="#231F20" stroke-width="0.971596"/>
<path d="M78.9277 54.1609L85.5346 51.3433" stroke="#231F20" stroke-width="0.971596"/>
<path d="M85.5342 51.3433L92.141 48.5256" stroke="#FF6A00" stroke-width="0.971596"/>
<path d="M79.3164 51.149L84.4659 48.9143" stroke="#231F20" stroke-width="0.971596"/>
<path d="M84.4658 48.9143L91.1698 46.0967" stroke="#FF6A00" stroke-width="0.971596"/>
<path d="M64.1592 43.959L64.9365 43.6675L65.6166 44.1533" stroke="#231F20" stroke-width="0.971596"/>
<path d="M78.2471 53.5779L78.9272 54.1608L79.2187 53.9665" stroke="#231F20" stroke-width="0.971596"/>
<path d="M92.2383 46.0967C92.2383 45.3194 92.4326 44.7041 92.8212 44.2507C93.2099 43.7973 93.7605 43.5706 94.473 43.5706C95.2502 43.5706 95.8332 43.7973 96.2218 44.2507C96.6105 44.7041 96.8048 45.3194 96.8048 46.0967C96.8048 46.874 96.5781 47.5217 96.1247 48.0399C95.736 48.4933 95.1855 48.72 94.473 48.72C93.7605 48.72 93.2099 48.4933 92.8212 48.0399C92.4326 47.5865 92.2383 46.9388 92.2383 46.0967ZM94.473 48.1371C94.9911 48.1371 95.3798 47.9751 95.6389 47.6513C95.898 47.2626 96.0275 46.7444 96.0275 46.0967C96.0275 45.449 95.898 44.9632 95.6389 44.6393C95.3798 44.3154 94.9911 44.1535 94.473 44.1535C93.9548 44.1535 93.5661 44.3154 93.307 44.6393C93.0479 44.9632 92.9184 45.449 92.9184 46.0967C92.9184 46.7444 93.0479 47.2626 93.307 47.6513C93.5661 47.9751 93.9548 48.1371 94.473 48.1371Z" fill="#FF6A00"/>
</g>
</g>
<rect x="1.55641" y="1.18165" width="142.5" height="84.5005" rx="3.13661" stroke="white" stroke-width="1.49954"/>
<defs>
<clipPath id="clip0_214_14709">
<rect x="0.806641" y="0.431885" width="144" height="86" rx="3.88638" fill="white"/>
</clipPath>
<clipPath id="clip1_214_14709">
<rect width="87.4436" height="18.4603" fill="white" transform="translate(29.085 39.6841)"/>
</clipPath>
</defs>
</svg>
