<svg width="145" height="87" viewBox="0 0 145 87" fill="none" xmlns="http://www.w3.org/2000/svg">
<g clip-path="url(#clip0_214_14853)">
<rect x="0.870117" y="0.431885" width="144" height="86" rx="3.88638" fill="white"/>
<path d="M0.870117 5.32723C0.870117 -1.37021 6.29946 -6.79956 12.9969 -6.79956L26.8169 -6.79956V5.32723H0.870117V5.32723Z" fill="white"/>
<rect x="26.8174" y="-6.79956" width="92.1064" height="12.1268" fill="white"/>
<path d="M118.923 -6.79956L132.743 -6.79956C139.44 -6.79956 144.87 -1.37021 144.87 5.32723V5.32723L118.923 5.32723V-6.79956Z" fill="white"/>
<rect width="144" height="15" transform="translate(0.870117 5.32715)" fill="white"/>
<path d="M28.0185 10.9379L27.3656 10.4133C27.9719 9.51163 28.8055 9.06081 29.8665 9.06081C30.6749 9.06081 31.3103 9.29788 31.7728 9.77202C32.2392 10.2423 32.4723 10.8466 32.4723 11.585C32.4723 12.0397 32.3713 12.4497 32.1692 12.8151C31.971 13.1804 31.7067 13.5399 31.3764 13.8935L28.9396 16.4702H32.7405V17.3271H27.6046V16.6218L30.6885 13.3689C31.2481 12.782 31.5279 12.1874 31.5279 11.585C31.5279 11.0992 31.3783 10.7009 31.0791 10.39C30.7798 10.0752 30.3659 9.91776 29.8374 9.91776C29.4138 9.91776 29.0601 10.0091 28.7764 10.1917C28.4966 10.3744 28.244 10.6231 28.0185 10.9379ZM37.2867 13.8469V14.6397H34.0454V13.8469H37.2867ZM42.3694 14.0451L40.2241 14.0451V17.3271H39.2856V9.16574H42.3694C43.2827 9.16574 43.992 9.38144 44.4972 9.81283C45.0024 10.2442 45.2551 10.8427 45.2551 11.6083C45.2551 12.374 45.0024 12.9725 44.4972 13.4038C43.992 13.8313 43.2827 14.0451 42.3694 14.0451ZM42.3403 10.0518H40.2241V13.1648H42.3403C42.9737 13.1648 43.4557 13.0346 43.786 12.7742C44.1163 12.5139 44.2815 12.1252 44.2815 11.6083C44.2815 11.0914 44.1163 10.7028 43.786 10.4424C43.4557 10.182 42.9737 10.0518 42.3403 10.0518ZM47.745 8.93256V12.576C47.9588 12.2729 48.2289 12.0514 48.5553 11.9115C48.8818 11.7677 49.2277 11.6958 49.593 11.6958C50.277 11.6958 50.8308 11.8979 51.2544 12.3021C51.6819 12.7062 51.8957 13.2406 51.8957 13.9052V17.3271H51.0271V14.1908C51.0271 13.6662 50.8871 13.2581 50.6073 12.9666C50.3314 12.6713 49.9408 12.5236 49.4356 12.5236C48.9576 12.5236 48.5553 12.679 48.2289 12.9899C47.9063 13.297 47.745 13.705 47.745 14.2142V17.3271H46.8706V8.93256H47.745ZM56.1931 11.6958C56.9431 11.6958 57.5611 11.962 58.0469 12.4944C58.5366 13.0269 58.7833 13.7109 58.7872 14.5464C58.7872 14.6669 58.7814 14.7757 58.7697 14.8729H54.3451C54.4034 15.4481 54.6133 15.8931 54.9747 16.2079C55.3361 16.5188 55.7772 16.6742 56.298 16.6742C56.9587 16.6742 57.5416 16.443 58.0469 15.9805L58.5132 16.5751C57.9108 17.1503 57.1549 17.4379 56.2455 17.4379C55.4255 17.4379 54.7551 17.1736 54.2343 16.6451C53.7136 16.1127 53.4532 15.4209 53.4532 14.5698C53.4532 13.7303 53.7116 13.0424 54.2285 12.5061C54.7454 11.9659 55.4002 11.6958 56.1931 11.6958ZM56.1756 12.4711C55.6781 12.4711 55.2681 12.6266 54.9455 12.9375C54.623 13.2484 54.4267 13.6584 54.3567 14.1675H57.9011C57.8467 13.6506 57.6621 13.2387 57.3473 12.9316C57.0364 12.6246 56.6458 12.4711 56.1756 12.4711ZM63.1308 11.6958C63.8148 11.6958 64.3686 11.8979 64.7922 12.3021C65.2197 12.7062 65.4335 13.2406 65.4335 13.9052V17.3271H64.5649V14.1908C64.5649 13.6662 64.425 13.2581 64.1452 12.9666C63.8692 12.6713 63.4786 12.5236 62.9734 12.5236C62.4954 12.5236 62.0931 12.679 61.7667 12.9899C61.4441 13.297 61.2828 13.705 61.2828 14.2142V17.3271H60.4084V11.8065H61.2712V12.5935C61.481 12.2826 61.7511 12.0553 62.0815 11.9115C62.4118 11.7677 62.7616 11.6958 63.1308 11.6958ZM72.2881 11.8065L67.7935 19.6823H66.8316L68.8894 16.1321L66.3536 11.8065H67.3271L69.3849 15.2693L71.332 11.8065H72.2881ZM74.2741 8.93256V17.3271H73.3997V8.93256H74.2741ZM78.6347 11.6958C79.3847 11.6958 80.0027 11.962 80.4885 12.4944C80.9781 13.0269 81.2249 13.7109 81.2288 14.5464C81.2288 14.6669 81.223 14.7757 81.2113 14.8729H76.7867C76.845 15.4481 77.0548 15.8931 77.4163 16.2079C77.7777 16.5188 78.2188 16.6742 78.7396 16.6742C79.4003 16.6742 79.9832 16.443 80.4885 15.9805L80.9548 16.5751C80.3524 17.1503 79.5965 17.4379 78.6871 17.4379C77.8671 17.4379 77.1967 17.1736 76.6759 16.6451C76.1551 16.1127 75.8948 15.4209 75.8948 14.5698C75.8948 13.7303 76.1532 13.0424 76.6701 12.5061C77.187 11.9659 77.8418 11.6958 78.6347 11.6958ZM78.6172 12.4711C78.1197 12.4711 77.7097 12.6266 77.3871 12.9375C77.0646 13.2484 76.8683 13.6584 76.7983 14.1675H80.3427C80.2883 13.6506 80.1037 13.2387 79.7889 12.9316C79.478 12.6246 79.0874 12.4711 78.6172 12.4711ZM86.5415 11.8065V12.5935H84.1572V15.3801C84.1572 15.7959 84.2563 16.1068 84.4545 16.3128C84.6527 16.5188 84.9189 16.6218 85.2531 16.6218C85.669 16.6218 86.0557 16.4916 86.4132 16.2312L86.8213 16.8899C86.3394 17.2553 85.7933 17.4379 85.1832 17.4379C84.5769 17.4379 84.1086 17.2689 83.7783 16.9307C83.4518 16.5887 83.2886 16.0777 83.2886 15.3976V12.5935H82.0818V11.8065H83.2886V10.0518H84.1572V11.8065H86.5415ZM88.9505 8.93256V12.576C89.1643 12.2729 89.4344 12.0514 89.7609 11.9115C90.0873 11.7677 90.4332 11.6958 90.7985 11.6958C91.4825 11.6958 92.0363 11.8979 92.4599 12.3021C92.8875 12.7062 93.1012 13.2406 93.1012 13.9052V17.3271H92.2326V14.1908C92.2326 13.6662 92.0927 13.2581 91.8129 12.9666C91.5369 12.6713 91.1464 12.5236 90.6411 12.5236C90.1631 12.5236 89.7609 12.679 89.4344 12.9899C89.1118 13.297 88.9505 13.705 88.9505 14.2142V17.3271H88.0761V8.93256H88.9505ZM100.302 11.8065V17.3271L99.4331 17.3271V16.5052C98.9512 17.127 98.2789 17.4379 97.4161 17.4379C96.6349 17.4379 95.9801 17.1659 95.4515 16.6218C94.923 16.0738 94.6587 15.3878 94.6587 14.5639C94.6587 13.74 94.923 13.056 95.4515 12.5119C95.9801 11.9678 96.6349 11.6958 97.4161 11.6958C98.275 11.6958 98.9473 12.0067 99.4331 12.6285V11.8065H100.302ZM97.521 12.5119C96.9381 12.5119 96.462 12.7101 96.0928 13.1065C95.7275 13.4991 95.5448 13.9849 95.5448 14.5639C95.5448 15.143 95.7294 15.6307 96.0986 16.0272C96.4678 16.4236 96.9419 16.6218 97.521 16.6218C98.0923 16.6218 98.5626 16.4275 98.9318 16.0388C99.301 15.6463 99.4856 15.1547 99.4856 14.5639C99.4856 13.9771 99.301 13.4893 98.9318 13.1007C98.5626 12.7082 98.0923 12.5119 97.521 12.5119ZM105.065 11.6958C105.749 11.6958 106.303 11.8979 106.726 12.3021C107.154 12.7062 107.368 13.2406 107.368 13.9052V17.3271H106.499V14.1908C106.499 13.6662 106.359 13.2581 106.079 12.9666C105.803 12.6713 105.413 12.5236 104.908 12.5236C104.43 12.5236 104.027 12.679 103.701 12.9899C103.378 13.297 103.217 13.705 103.217 14.2142V17.3271H102.343V11.8065H103.205V12.5935C103.415 12.2826 103.685 12.0553 104.016 11.9115C104.346 11.7677 104.696 11.6958 105.065 11.6958ZM111.828 11.6958C112.66 11.6958 113.352 11.9698 113.904 12.5177C114.459 13.0657 114.737 13.7478 114.737 14.5639C114.737 15.384 114.459 16.068 113.904 16.6159C113.352 17.1639 112.66 17.4379 111.828 17.4379C110.997 17.4379 110.305 17.1639 109.753 16.6159C109.201 16.068 108.925 15.384 108.925 14.5639C108.925 13.7478 109.201 13.0657 109.753 12.5177C110.309 11.9698 111.001 11.6958 111.828 11.6958ZM113.268 13.0949C112.884 12.7062 112.404 12.5119 111.828 12.5119C111.253 12.5119 110.773 12.7062 110.388 13.0949C110.004 13.4835 109.811 13.9732 109.811 14.5639C109.811 15.1585 110.004 15.6502 110.388 16.0388C110.773 16.4275 111.253 16.6218 111.828 16.6218C112.404 16.6218 112.884 16.4275 113.268 16.0388C113.653 15.6502 113.845 15.1585 113.845 14.5639C113.845 13.9732 113.653 13.4835 113.268 13.0949ZM117.233 8.93256V17.3271H116.359V8.93256H117.233Z" fill="#231F20"/>
<g clip-path="url(#clip1_214_14853)">
<path d="M152.541 20.3271L-6.80078 20.3271V81.5377H152.541V20.3271Z" fill="white"/>
<path d="M29.0518 54.7217L34.0069 37.9131" stroke="#231F20" stroke-width="0.971596"/>
<path d="M32.0635 54.0415L36.1442 40.1477" stroke="#231F20" stroke-width="0.971596"/>
<path d="M29.0518 54.7217L41.1967 67.3524" stroke="#231F20" stroke-width="0.971596"/>
<path d="M34.0059 37.913L51.0088 33.8323" stroke="#231F20" stroke-width="0.971596"/>
<path d="M41.1963 67.3524L58.1992 63.2717" stroke="#231F20" stroke-width="0.971596"/>
<path d="M41.9736 64.4377L56.0618 61.0371" stroke="#231F20" stroke-width="0.971596"/>
<path d="M51.0088 33.8323L63.0566 46.463" stroke="#231F20" stroke-width="0.971596"/>
<path d="M50.1348 36.7471L60.1422 47.1431" stroke="#231F20" stroke-width="0.971596"/>
<path d="M58.1992 63.2717L63.0572 46.4631" stroke="#231F20" stroke-width="0.971596"/>
<path d="M80.0605 42.3823L92.1083 55.0131" stroke="#231F20" stroke-width="0.971596"/>
<path d="M80.0605 42.3823L63.0576 46.463" stroke="#231F20" stroke-width="0.971596"/>
<path d="M92.1074 55.013L99.2001 53.3613" stroke="#231F20" stroke-width="0.971596"/>
<path d="M99.2002 53.3614L106.293 51.6125" stroke="#FF6A00" stroke-width="0.971596"/>
<path d="M29.3432 53.8472L29.0518 54.7216L29.7319 55.3046" stroke="#231F20" stroke-width="0.971596"/>
<path d="M33.8115 38.7875L34.0058 37.9131L34.8803 37.7188" stroke="#231F20" stroke-width="0.971596"/>
<path d="M40.5166 66.7695L41.1967 67.3525L41.974 67.1582" stroke="#231F20" stroke-width="0.971596"/>
<path d="M50.1348 34.0266L51.0092 33.8323L51.5922 34.4152" stroke="#231F20" stroke-width="0.971596"/>
<path d="M57.3242 63.466L58.1987 63.2717L58.393 62.3972" stroke="#231F20" stroke-width="0.971596"/>
<path d="M80.6425 42.9653L80.0595 42.3823L79.2822 42.5766" stroke="#231F20" stroke-width="0.971596"/>
<path d="M91.5254 54.4302L92.1084 55.0131L92.497 54.916" stroke="#231F20" stroke-width="0.971596"/>
<path d="M106.876 50.9324C106.876 50.1551 107.07 49.5398 107.459 49.0864C107.848 48.633 108.398 48.4062 109.111 48.4062C109.888 48.4062 110.471 48.633 110.86 49.0864C111.248 49.5398 111.442 50.1551 111.442 50.9324C111.442 51.7097 111.248 52.325 110.86 52.7784C110.471 53.2318 109.888 53.4585 109.111 53.4585C108.398 53.4585 107.848 53.2318 107.459 52.7784C107.07 52.325 106.876 51.7097 106.876 50.9324ZM109.111 52.9727C109.629 52.9727 110.017 52.7784 110.277 52.3898C110.6 52.0659 110.762 51.5801 110.762 50.9324C110.762 50.2847 110.6 49.7989 110.277 49.475C110.017 49.1511 109.629 48.9892 109.111 48.9892C108.657 48.9892 108.269 49.1511 107.945 49.475C107.686 49.7989 107.556 50.2847 107.556 50.9324C107.556 51.5801 107.686 52.0659 107.945 52.3898C108.269 52.7784 108.657 52.9727 109.111 52.9727Z" fill="#FF6A00"/>
<path d="M112.22 48.5034H112.9V50.5438H115.426V48.5034H116.106V53.4586H115.426V51.1267H112.9V53.4586H112.22V48.5034Z" fill="#FF6A00"/>
</g>
<path d="M0.870117 81.5378H26.8169V93.6634H12.9956C6.2989 93.6634 0.870117 88.2346 0.870117 81.5378V81.5378Z" fill="white"/>
<rect x="26.8174" y="81.5378" width="92.1064" height="12.1255" fill="white"/>
<path d="M118.923 81.5378H144.87V81.5378C144.87 88.2346 139.441 93.6634 132.744 93.6634H118.923V81.5378Z" fill="white"/>
</g>
<rect x="1.61989" y="1.18165" width="142.5" height="84.5005" rx="3.13661" stroke="white" stroke-width="1.49954"/>
<defs>
<clipPath id="clip0_214_14853">
<rect x="0.870117" y="0.431885" width="144" height="86" rx="3.88638" fill="white"/>
</clipPath>
<clipPath id="clip1_214_14853">
<rect width="159.342" height="61.2105" fill="white" transform="translate(-6.80078 20.3271)"/>
</clipPath>
</defs>
</svg>
