<svg width="144" height="87" viewBox="0 0 144 87" fill="none" xmlns="http://www.w3.org/2000/svg">
<g clip-path="url(#clip0_214_14577)">
<rect x="0.431641" y="0.431885" width="143" height="86" rx="3.88638" fill="white"/>
<rect width="143" height="15" transform="translate(0.431641 6.88232)" fill="white"/>
<path d="M56.5478 10.7209V18.8823H55.6092V10.7209H56.5478ZM61.4648 13.251C62.1488 13.251 62.7026 13.453 63.1262 13.8572C63.5537 14.2614 63.7674 14.7958 63.7674 15.4604V18.8823H62.8988V15.746C62.8988 15.2214 62.7589 14.8133 62.4791 14.5218C62.2032 14.2264 61.8126 14.0788 61.3074 14.0788C60.8293 14.0788 60.4271 14.2342 60.1006 14.5451C59.7781 14.8521 59.6168 15.2602 59.6168 15.7693V18.8823H58.7423V13.3617H59.6051V14.1487C59.815 13.8378 60.0851 13.6104 60.4154 13.4666C60.7458 13.3229 61.0955 13.251 61.4648 13.251ZM68.0823 13.251C68.9412 13.251 69.6136 13.5619 70.0994 14.1837V10.4877H70.968V18.8823H70.0994V18.0604C69.6174 18.6822 68.9451 18.9931 68.0823 18.9931C67.3012 18.9931 66.6463 18.721 66.1178 18.1769C65.5892 17.629 65.3249 16.943 65.3249 16.1191C65.3249 15.2952 65.5892 14.6112 66.1178 14.0671C66.6463 13.523 67.3012 13.251 68.0823 13.251ZM68.1873 14.0671C67.6043 14.0671 67.1282 14.2653 66.759 14.6617C66.3937 15.0542 66.211 15.54 66.211 16.1191C66.211 16.6982 66.3956 17.1859 66.7648 17.5823C67.134 17.9787 67.6082 18.1769 68.1873 18.1769C68.7586 18.1769 69.2288 17.9826 69.598 17.594C69.9672 17.2015 70.1518 16.7098 70.1518 16.1191C70.1518 15.5323 69.9672 15.0445 69.598 14.6559C69.2288 14.2634 68.7586 14.0671 68.1873 14.0671ZM75.4923 13.251C76.3239 13.251 77.0157 13.5249 77.5676 14.0729C78.1233 14.6209 78.4012 15.303 78.4012 16.1191C78.4012 16.9391 78.1233 17.6231 77.5676 18.1711C77.0157 18.7191 76.3239 18.9931 75.4923 18.9931C74.6606 18.9931 73.9688 18.7191 73.4169 18.1711C72.8651 17.6231 72.5891 16.9391 72.5891 16.1191C72.5891 15.303 72.8651 14.6209 73.4169 14.0729C73.9727 13.5249 74.6645 13.251 75.4923 13.251ZM76.9322 14.6501C76.5474 14.2614 76.0674 14.0671 75.4923 14.0671C74.9171 14.0671 74.4371 14.2614 74.0524 14.6501C73.6676 15.0387 73.4752 15.5284 73.4752 16.1191C73.4752 16.7137 73.6676 17.2053 74.0524 17.594C74.4371 17.9826 74.9171 18.1769 75.4923 18.1769C76.0674 18.1769 76.5474 17.9826 76.9322 17.594C77.3169 17.2053 77.5093 16.7137 77.5093 16.1191C77.5093 15.5284 77.3169 15.0387 76.9322 14.6501ZM80.897 10.4877V18.8823H80.0226V10.4877H80.897ZM85.2575 13.251C86.0076 13.251 86.6255 13.5172 87.1113 14.0496C87.601 14.582 87.8478 15.266 87.8517 16.1016C87.8517 16.2221 87.8459 16.3309 87.8342 16.4281L83.4096 16.4281C83.4678 17.0033 83.6777 17.4482 84.0391 17.763C84.4006 18.074 84.8417 18.2294 85.3625 18.2294C86.0231 18.2294 86.6061 17.9982 87.1113 17.5357L87.5777 18.1303C86.9753 18.7055 86.2194 18.9931 85.31 18.9931C84.49 18.9931 83.8196 18.7288 83.2988 18.2003C82.778 17.6678 82.5176 16.9761 82.5176 16.1249C82.5176 15.2855 82.7761 14.5976 83.293 14.0613C83.8098 13.5211 84.4647 13.251 85.2575 13.251ZM85.24 14.0263C84.7426 14.0263 84.3326 14.1817 84.01 14.4927C83.6874 14.8036 83.4912 15.2136 83.4212 15.7227L86.9656 15.7227C86.9112 15.2058 86.7266 14.7938 86.4118 14.4868C86.1009 14.1798 85.7103 14.0263 85.24 14.0263Z" fill="#231F20"/>
<g clip-path="url(#clip1_214_14577)">
<path d="M123.912 21.8823L19.9512 21.8823V93.7804H123.912V21.8823Z" fill="white"/>
<path d="M43.1729 68.616V51.1273" stroke="#231F20" stroke-width="0.971596"/>
<path d="M45.7949 67.0615V52.5847" stroke="#231F20" stroke-width="0.971596"/>
<path d="M43.1729 68.6161L58.3297 77.3605" stroke="#231F20" stroke-width="0.971596"/>
<path d="M43.1729 51.1273L58.3297 42.3829" stroke="#231F20" stroke-width="0.971596"/>
<path d="M58.3291 77.3605L73.486 68.6161" stroke="#231F20" stroke-width="0.971596"/>
<path d="M58.3291 74.2513L70.8627 67.0615" stroke="#231F20" stroke-width="0.971596"/>
<path d="M58.3291 42.3829L73.486 51.1273" stroke="#231F20" stroke-width="0.971596"/>
<path d="M58.3291 45.3949L70.8627 52.5847" stroke="#231F20" stroke-width="0.971596"/>
<path d="M90.1006 73.9598L100.4 59.8717" stroke="#231F20" stroke-width="0.971596"/>
<path d="M89.1289 70.8507L97.1932 59.8717" stroke="#231F20" stroke-width="0.971596"/>
<path d="M90.0996 73.9599L73.4854 68.6161" stroke="#231F20" stroke-width="0.971596"/>
<path d="M100.399 59.8718L96.3184 54.2366" stroke="#231F20" stroke-width="0.971596"/>
<path d="M96.3185 54.2365L92.335 48.6984" stroke="#0F4BA3" stroke-width="0.971596"/>
<path d="M73.4854 68.616V51.1273" stroke="#231F20" stroke-width="0.971596"/>
<path d="M73.4854 51.1274L80.578 48.7955" stroke="#231F20" stroke-width="0.971596"/>
<path d="M80.5791 48.7956L87.6717 46.4637" stroke="#0F4BA3" stroke-width="0.971596"/>
<path d="M43.1729 67.7416V68.616L43.9501 69.0047" stroke="#231F20" stroke-width="0.971596"/>
<path d="M43.1729 52.0017V51.1273L43.9501 50.6415" stroke="#231F20" stroke-width="0.971596"/>
<path d="M57.5518 76.8746L58.329 77.3604L59.1063 76.8746" stroke="#231F20" stroke-width="0.971596"/>
<path d="M57.5518 42.7716L58.329 42.3829L59.1063 42.7716" stroke="#231F20" stroke-width="0.971596"/>
<path d="M90.5863 73.2798L90.1005 73.9599L89.3232 73.6684" stroke="#231F20" stroke-width="0.971596"/>
<path d="M99.9131 60.5519L100.399 59.8718L100.205 59.5803" stroke="#231F20" stroke-width="0.971596"/>
<path d="M89.0312 43.1603L90.6829 45.7836C90.7477 45.9779 90.8772 46.237 91.0715 46.5609C91.2011 46.8847 91.2982 47.0467 91.363 47.0467V43.1603H91.946V48.1154H91.2659L89.517 45.2978C89.3874 45.0387 89.2579 44.812 89.1283 44.6177C88.9988 44.3586 88.9016 44.1643 88.8369 44.0347V48.1154H88.2539V43.1603H89.0312Z" fill="#0F4BA3"/>
<path d="M88.1572 37.7194H88.8373V39.8569H91.3635V37.7194H92.0436V42.6745H91.3635V40.4398H88.8373V42.6745H88.1572V37.7194Z" fill="#0F4BA3"/>
</g>
</g>
<rect x="1.18141" y="1.18165" width="141.5" height="84.5005" rx="3.13661" stroke="white" stroke-width="1.49954"/>
<defs>
<clipPath id="clip0_214_14577">
<rect x="0.431641" y="0.431885" width="143" height="86" rx="3.88638" fill="white"/>
</clipPath>
<clipPath id="clip1_214_14577">
<rect width="103.961" height="71.8981" fill="white" transform="translate(19.9512 21.8823)"/>
</clipPath>
</defs>
</svg>
