<svg width="145" height="87" viewBox="0 0 145 87" fill="none" xmlns="http://www.w3.org/2000/svg">
<g clip-path="url(#clip0_214_14913)">
<rect x="0.119141" y="0.431885" width="144" height="86" rx="3.88638" fill="white"/>
<path d="M0.119141 7.75618C0.119141 1.05874 5.54849 -4.37061 12.2459 -4.37061H26.0659V7.75618H0.119141V7.75618Z" fill="white"/>
<rect x="26.0664" y="-4.37061" width="92.1064" height="12.1268" fill="white"/>
<path d="M118.172 -4.37061L131.992 -4.37061C138.689 -4.37061 144.119 1.05874 144.119 7.75618V7.75618L118.172 7.75618V-4.37061Z" fill="white"/>
<rect width="144" height="15" transform="translate(0.119141 7.75635)" fill="white"/>
<path d="M32.7676 13.3671L32.1147 12.8425C32.7209 11.9408 33.5546 11.49 34.6155 11.49C35.4239 11.49 36.0593 11.7271 36.5218 12.2012C36.9882 12.6715 37.2214 13.2758 37.2214 14.0142C37.2214 14.4689 37.1203 14.8789 36.9182 15.2443C36.72 15.6096 36.4557 15.9691 36.1254 16.3227L33.6886 18.8994H37.4895V19.7563H32.3537V19.051L35.4375 15.7981C35.9972 15.2112 36.277 14.6166 36.277 14.0142C36.277 13.5284 36.1273 13.1301 35.8281 12.8192C35.5288 12.5044 35.1149 12.347 34.5864 12.347C34.1628 12.347 33.8091 12.4383 33.5254 12.6209C33.2456 12.8036 32.993 13.0523 32.7676 13.3671ZM42.0357 16.2761V17.0689H38.7944V16.2761H42.0357ZM52.5807 11.5949V19.7563H51.6422V12.6443L48.7974 18.8528H47.8122L44.9731 12.6909V19.7563H44.0346V11.5949H45.457L48.3077 17.7626L51.1525 11.5949H52.5807ZM57.0937 14.125C57.8437 14.125 58.4617 14.3912 58.9475 14.9236C59.4371 15.4561 59.6839 16.1401 59.6878 16.9756C59.6878 17.0961 59.682 17.2049 59.6703 17.3021H55.2457C55.304 17.8773 55.5138 18.3223 55.8753 18.6371C56.2367 18.948 56.6778 19.1034 57.1986 19.1034C57.8593 19.1034 58.4422 18.8722 58.9475 18.4097L59.4138 19.0043C58.8114 19.5795 58.0555 19.8671 57.1461 19.8671C56.3261 19.8671 55.6557 19.6028 55.1349 19.0743C54.6141 18.5419 54.3538 17.8501 54.3538 16.999C54.3538 16.1595 54.6122 15.4716 55.1291 14.9353C55.646 14.3951 56.3008 14.125 57.0937 14.125ZM57.0762 14.9003C56.5787 14.9003 56.1687 15.0558 55.8461 15.3667C55.5236 15.6776 55.3273 16.0876 55.2573 16.5967H58.8017C58.7473 16.0798 58.5627 15.6679 58.2479 15.3608C57.937 15.0538 57.5464 14.9003 57.0762 14.9003ZM65.0005 14.2357V15.0227H62.6162V17.8093C62.6162 18.2251 62.7153 18.536 62.9135 18.742C63.1117 18.948 63.3779 19.051 63.7121 19.051C64.128 19.051 64.5147 18.9208 64.8722 18.6604L65.2803 19.3191C64.7984 19.6844 64.2523 19.8671 63.6422 19.8671C63.0359 19.8671 62.5676 19.6981 62.2373 19.3599C61.9108 19.0179 61.7476 18.5069 61.7476 17.8268V15.0227L60.5408 15.0227V14.2357L61.7476 14.2357V12.481H62.6162V14.2357H65.0005ZM67.4095 11.3618V15.0052C67.6233 14.7021 67.8934 14.4806 68.2199 14.3407C68.5463 14.1969 68.8922 14.125 69.2575 14.125C69.9415 14.125 70.4953 14.3271 70.919 14.7313C71.3465 15.1354 71.5602 15.6698 71.5602 16.3344V19.7563H70.6916V16.62C70.6916 16.0954 70.5517 15.6873 70.2719 15.3958C69.9959 15.1005 69.6054 14.9528 69.1001 14.9528C68.6221 14.9528 68.2199 15.1082 67.8934 15.4191C67.5708 15.7262 67.4095 16.1342 67.4095 16.6434V19.7563H66.5351V11.3618H67.4095ZM78.4148 14.2357L73.9202 22.1115H72.9583L75.0161 18.5613L72.4803 14.2357H73.4538L75.5117 17.6985L77.4587 14.2357H78.4148ZM80.4008 11.3618V19.7563H79.5264V11.3618H80.4008ZM86.0614 14.2357V15.0227H83.8636V19.7563H82.9892V15.0227H81.73V14.2357H82.9892V13.2913C82.9892 12.6656 83.1388 12.1701 83.4381 11.8048C83.7373 11.4356 84.1998 11.251 84.8255 11.251C85.3812 11.251 85.8845 11.389 86.3354 11.6649L86.0206 12.3936C85.6513 12.176 85.2724 12.0671 84.8838 12.0671C84.2037 12.0671 83.8636 12.4752 83.8636 13.2913V14.2357H86.0614ZM92.332 14.2357V17.4537C92.332 17.8501 92.264 18.2057 92.1279 18.5205C91.9919 18.8314 91.8073 19.084 91.5741 19.2783C91.341 19.4726 91.0747 19.6203 90.7755 19.7214C90.4801 19.8185 90.1634 19.8671 89.8253 19.8671C89.4833 19.8671 89.1626 19.8185 88.8634 19.7214C88.568 19.6203 88.3037 19.4726 88.0706 19.2783C87.8374 19.084 87.6528 18.8314 87.5168 18.5205C87.3846 18.2057 87.3185 17.8501 87.3185 17.4537V14.2357H88.1872V17.3721C88.1872 17.9239 88.3368 18.3417 88.636 18.6254C88.9353 18.9091 89.3317 19.051 89.8253 19.051C90.3188 19.051 90.7133 18.9091 91.0087 18.6254C91.3079 18.3417 91.4575 17.9239 91.4575 17.3721V14.2357H92.332ZM96.8062 14.125C97.2104 14.125 97.5485 14.1872 97.8205 14.3115L97.6107 15.1685C97.3386 15.0208 97.0199 14.9469 96.6546 14.9469C96.2193 14.9469 95.8637 15.1043 95.5878 15.4191C95.3119 15.7339 95.1739 16.1498 95.1739 16.6667V19.7563H94.3053V14.2357H95.1681V15.0111C95.3585 14.7274 95.5936 14.5097 95.8734 14.3582C96.1572 14.2027 96.4681 14.125 96.8062 14.125ZM104.14 14.2357V19.7563H103.271V18.9344C102.789 19.5562 102.117 19.8671 101.254 19.8671C100.473 19.8671 99.8182 19.5951 99.2897 19.051C98.7611 18.503 98.4969 17.817 98.4969 16.9931C98.4969 16.1692 98.7611 15.4852 99.2897 14.9411C99.8182 14.397 100.473 14.125 101.254 14.125C102.113 14.125 102.785 14.4359 103.271 15.0577V14.2357H104.14ZM101.359 14.9411C100.776 14.9411 100.3 15.1393 99.9309 15.5357C99.5656 15.9283 99.3829 16.4141 99.3829 16.9931C99.3829 17.5722 99.5676 18.0599 99.9368 18.4564C100.306 18.8528 100.78 19.051 101.359 19.051C101.93 19.051 102.401 18.8566 102.77 18.468C103.139 18.0755 103.324 17.5839 103.324 16.9931C103.324 16.4063 103.139 15.9185 102.77 15.5299C102.401 15.1374 101.93 14.9411 101.359 14.9411ZM108.903 14.125C109.587 14.125 110.141 14.3271 110.565 14.7313C110.992 15.1354 111.206 15.6698 111.206 16.3344V19.7563H110.337V16.62C110.337 16.0954 110.197 15.6873 109.918 15.3958C109.642 15.1005 109.251 14.9528 108.746 14.9528C108.268 14.9528 107.866 15.1082 107.539 15.4191C107.216 15.7262 107.055 16.1342 107.055 16.6434V19.7563H106.181V14.2357H107.044V15.0227C107.253 14.7118 107.524 14.4845 107.854 14.3407C108.184 14.1969 108.534 14.125 108.903 14.125Z" fill="#231F20"/>
<g clip-path="url(#clip1_214_14913)">
<path d="M112.44 22.7563L31.7979 22.7563V79.1089H112.44V22.7563Z" fill="white"/>
<path d="M93.9799 52.0984H76.4912" stroke="#231F20" stroke-width="0.971596"/>
<path d="M49.5781 60.8428L66.1924 66.2837" stroke="#231F20" stroke-width="0.971596"/>
<path d="M49.5781 60.843V43.3542" stroke="#231F20" stroke-width="0.971596"/>
<path d="M52.2012 58.8997V45.2974" stroke="#231F20" stroke-width="0.971596"/>
<path d="M66.1924 66.2837L76.4913 52.0984" stroke="#231F20" stroke-width="0.971596"/>
<path d="M65.2207 63.1746L73.2849 52.0984" stroke="#231F20" stroke-width="0.971596"/>
<path d="M49.5781 43.3541L56.4765 41.1194" stroke="#231F20" stroke-width="0.971596"/>
<path d="M56.4766 41.1197L63.3749 38.885" stroke="#FF6A00" stroke-width="0.971596"/>
<path d="M76.4914 52.0986L72.5078 46.5605" stroke="#231F20" stroke-width="0.971596"/>
<path d="M72.508 46.5603L68.5244 41.1194" stroke="#FF6A00" stroke-width="0.971596"/>
<path d="M50.4526 61.1344L49.5781 60.8429V59.9685" stroke="#231F20" stroke-width="0.971596"/>
<path d="M65.415 65.9924L66.1923 66.2839L66.6781 65.5066" stroke="#231F20" stroke-width="0.971596"/>
<path d="M49.5781 44.2287V43.3542L49.9668 43.2571" stroke="#231F20" stroke-width="0.971596"/>
<path d="M63.957 37.9134C63.957 37.1361 64.1514 36.5207 64.54 36.0673C64.9286 35.6139 65.4792 35.3872 66.1917 35.3872C66.9042 35.3872 67.4872 35.6139 67.9406 36.0673C68.3292 36.5207 68.5235 37.1361 68.5235 37.9134C68.5235 38.7554 68.2968 39.4031 67.8434 39.8565C67.4548 40.31 66.9042 40.5367 66.1917 40.5367C65.4792 40.5367 64.9286 40.31 64.54 39.8565C64.1514 39.4031 63.957 38.7554 63.957 37.9134ZM66.1917 39.9537C66.7099 39.9537 67.0985 39.7918 67.3576 39.4679C67.6167 39.144 67.7463 38.6259 67.7463 37.9134C67.7463 37.2656 67.6167 36.7798 67.3576 36.456C67.0985 36.1321 66.7099 35.9702 66.1917 35.9702C65.6735 35.9702 65.2849 36.1321 65.0258 36.456C64.7667 36.7798 64.6371 37.2656 64.6371 37.9134C64.6371 38.6259 64.7667 39.144 65.0258 39.4679C65.2849 39.7918 65.6735 39.9537 66.1917 39.9537Z" fill="#FF6A00"/>
</g>
<path d="M0.119141 79.1089H26.0659V91.2344H12.2447C5.54793 91.2344 0.119141 85.8056 0.119141 79.1089V79.1089Z" fill="white"/>
<rect x="26.0664" y="79.1089" width="92.1064" height="12.1255" fill="white"/>
<path d="M118.172 79.1089H144.119V79.1089C144.119 85.8056 138.69 91.2344 131.993 91.2344H118.172V79.1089Z" fill="white"/>
</g>
<rect x="0.86891" y="1.18165" width="142.5" height="84.5005" rx="3.13661" stroke="white" stroke-width="1.49954"/>
<defs>
<clipPath id="clip0_214_14913">
<rect x="0.119141" y="0.431885" width="144" height="86" rx="3.88638" fill="white"/>
</clipPath>
<clipPath id="clip1_214_14913">
<rect width="80.6425" height="56.3526" fill="white" transform="translate(31.7979 22.7563)"/>
</clipPath>
</defs>
</svg>
