<svg width="145" height="87" viewBox="0 0 145 87" fill="none" xmlns="http://www.w3.org/2000/svg">
<g clip-path="url(#clip0_214_14481)">
<rect x="0.119141" y="0.431885" width="144" height="86" rx="3.88638" fill="white"/>
<path d="M0.119141 10.1853C0.119141 3.48782 5.54849 -1.94153 12.2459 -1.94153L26.0659 -1.94153V10.1853L0.119141 10.1853V10.1853Z" fill="white"/>
<rect x="26.0664" y="-1.94153" width="92.1064" height="12.1268" fill="white"/>
<path d="M118.172 -1.94153L131.992 -1.94153C138.689 -1.94153 144.119 3.48782 144.119 10.1853V10.1853L118.172 10.1853V-1.94153Z" fill="white"/>
<rect width="144" height="15" transform="translate(0.119141 10.1852)" fill="white"/>
<path d="M56.3806 18.9031H54.2353V22.1852H53.2967V14.0238H56.3806C57.2939 14.0238 58.0031 14.2395 58.5084 14.6709C59.0136 15.1022 59.2662 15.7007 59.2662 16.4664C59.2662 17.232 59.0136 17.8305 58.5084 18.2619C58.0031 18.6894 57.2939 18.9031 56.3806 18.9031ZM56.3514 14.9099H54.2353V18.0229H56.3514C56.9849 18.0229 57.4668 17.8927 57.7971 17.6323C58.1275 17.3719 58.2927 16.9833 58.2927 16.4664C58.2927 15.9495 58.1275 15.5608 57.7971 15.3005C57.4668 15.0401 56.9849 14.9099 56.3514 14.9099ZM66.0551 16.6646L61.5605 24.5403H60.5986L62.6565 20.9901L60.1206 16.6646H61.0941L63.152 20.1273L65.0991 16.6646H66.0551ZM69.6676 16.5538C70.0718 16.5538 70.4099 16.616 70.682 16.7404L70.4721 17.5973C70.2001 17.4496 69.8814 17.3758 69.5161 17.3758C69.0808 17.3758 68.7252 17.5332 68.4492 17.848C68.1733 18.1628 68.0353 18.5786 68.0353 19.0955V22.1852H67.1667V16.6646H68.0295V17.4399C68.2199 17.1562 68.4551 16.9386 68.7349 16.787C69.0186 16.6315 69.3295 16.5538 69.6676 16.5538ZM74.5066 16.5538C74.9108 16.5538 75.2489 16.616 75.521 16.7404L75.3111 17.5973C75.0391 17.4496 74.7204 17.3758 74.3551 17.3758C73.9198 17.3758 73.5642 17.5332 73.2882 17.848C73.0123 18.1628 72.8743 18.5786 72.8743 19.0955V22.1852H72.0057V16.6646H72.8685V17.4399C73.0589 17.1562 73.2941 16.9386 73.5739 16.787C73.8576 16.6315 74.1685 16.5538 74.5066 16.5538ZM79.1004 16.5538C79.9321 16.5538 80.6239 16.8278 81.1757 17.3758C81.7315 17.9238 82.0094 18.6058 82.0094 19.422C82.0094 20.242 81.7315 20.926 81.1757 21.474C80.6239 22.022 79.9321 22.2959 79.1004 22.2959C78.2687 22.2959 77.577 22.022 77.0251 21.474C76.4732 20.926 76.1973 20.242 76.1973 19.422C76.1973 18.6058 76.4732 17.9238 77.0251 17.3758C77.5808 16.8278 78.2726 16.5538 79.1004 16.5538ZM80.5403 17.9529C80.1556 17.5643 79.6756 17.37 79.1004 17.37C78.5252 17.37 78.0453 17.5643 77.6605 17.9529C77.2758 18.3415 77.0834 18.8312 77.0834 19.422C77.0834 20.0166 77.2758 20.5082 77.6605 20.8968C78.0453 21.2855 78.5252 21.4798 79.1004 21.4798C79.6756 21.4798 80.1556 21.2855 80.5403 20.8968C80.9251 20.5082 81.1175 20.0166 81.1175 19.422C81.1175 18.8312 80.9251 18.3415 80.5403 17.9529ZM84.5052 13.7906V22.1852H83.6307V13.7906H84.5052ZM88.8657 16.5538C89.6158 16.5538 90.2337 16.82 90.7195 17.3525C91.2092 17.8849 91.456 18.5689 91.4598 19.4045C91.4598 19.525 91.454 19.6338 91.4424 19.7309H87.0177C87.076 20.3061 87.2859 20.7511 87.6473 21.0659C88.0087 21.3768 88.4498 21.5323 88.9706 21.5323C89.6313 21.5323 90.2143 21.301 90.7195 20.8385L91.1859 21.4332C90.5835 22.0084 89.8276 22.2959 88.9182 22.2959C88.0981 22.2959 87.4277 22.0317 86.907 21.5031C86.3862 20.9707 86.1258 20.2789 86.1258 19.4278C86.1258 18.5883 86.3842 17.9004 86.9011 17.3641C87.418 16.8239 88.0729 16.5538 88.8657 16.5538ZM88.8482 17.3291C88.3507 17.3291 87.9407 17.4846 87.6182 17.7955C87.2956 18.1064 87.0993 18.5164 87.0294 19.0256H90.5738C90.5193 18.5087 90.3347 18.0967 90.0199 17.7897C89.709 17.4827 89.3185 17.3291 88.8482 17.3291Z" fill="#231F20"/>
<g clip-path="url(#clip1_214_14481)">
<path d="M102.724 25.1852L41.5137 25.1852V76.6798H102.724V25.1852Z" fill="white"/>
<path d="M88.6368 50.5438L78.3379 36.4557" stroke="#231F20" stroke-width="0.971596"/>
<path d="M88.6368 50.5438L78.3379 64.7291" stroke="#231F20" stroke-width="0.971596"/>
<path d="M85.3333 50.5438L77.3662 61.62" stroke="#231F20" stroke-width="0.971596"/>
<path d="M78.3369 36.4557L61.7227 41.7995" stroke="#231F20" stroke-width="0.971596"/>
<path d="M77.3651 39.5648L64.3457 43.7427" stroke="#231F20" stroke-width="0.971596"/>
<path d="M78.3368 64.7292L71.2441 62.3973" stroke="#231F20" stroke-width="0.971596"/>
<path d="M71.244 62.3973L64.1514 60.1626" stroke="#0F4BA3" stroke-width="0.971596"/>
<path d="M61.7227 41.7994V49.0864" stroke="#231F20" stroke-width="0.971596"/>
<path d="M61.7227 49.0864V56.2762" stroke="#0F4BA3" stroke-width="0.971596"/>
<path d="M88.0537 49.8638L88.6367 50.5439L88.0537 51.3212" stroke="#231F20" stroke-width="0.971596"/>
<path d="M78.8231 37.1358L78.3373 36.4557L77.4629 36.7472" stroke="#231F20" stroke-width="0.971596"/>
<path d="M78.8227 64.0491L78.3369 64.7292L77.9482 64.632" stroke="#231F20" stroke-width="0.971596"/>
<path d="M62.4999 41.6052L61.7227 41.7995V42.1882" stroke="#231F20" stroke-width="0.971596"/>
<path d="M54.9219 56.8591H55.602V58.9966H58.1281V56.8591H58.8083V61.8143H58.1281V59.4824H55.602V61.8143H54.9219V56.8591Z" fill="#0F4BA3"/>
<path d="M60.5566 56.8591L62.2083 59.4824C62.3378 59.6768 62.4674 59.9035 62.5969 60.1626C62.7912 60.4864 62.8884 60.6807 62.8884 60.7455V56.8591H63.5685V61.8143H62.8884L61.1395 58.8995C61.01 58.7052 60.8804 58.4785 60.7509 58.2194C60.6213 57.9603 60.5242 57.7983 60.4594 57.7336V61.8143H59.7793V56.8591H60.5566Z" fill="#0F4BA3"/>
</g>
<path d="M0.119141 76.6798H26.0659V88.8053H12.2447C5.54793 88.8053 0.119141 83.3765 0.119141 76.6798V76.6798Z" fill="white"/>
<rect x="26.0664" y="76.6798" width="92.1064" height="12.1255" fill="white"/>
<path d="M118.172 76.6798H144.119V76.6798C144.119 83.3765 138.69 88.8053 131.993 88.8053H118.172V76.6798Z" fill="white"/>
</g>
<rect x="0.86891" y="1.18165" width="142.5" height="84.5005" rx="3.13661" stroke="white" stroke-width="1.49954"/>
<defs>
<clipPath id="clip0_214_14481">
<rect x="0.119141" y="0.431885" width="144" height="86" rx="3.88638" fill="white"/>
</clipPath>
<clipPath id="clip1_214_14481">
<rect width="61.2105" height="51.4946" fill="white" transform="translate(41.5137 25.1852)"/>
</clipPath>
</defs>
</svg>
