<svg width="143" height="88" viewBox="0 0 143 88" fill="none" xmlns="http://www.w3.org/2000/svg">
<g clip-path="url(#clip0_214_14062)">
<rect x="0.119141" y="0.431885" width="142" height="87" rx="3.88638" fill="white"/>
<path d="M0.119141 12.5587C0.119141 5.86123 5.54849 0.431885 12.2459 0.431885L26.0659 0.431885V12.5587H0.119141V12.5587Z" fill="white"/>
<rect x="26.0664" y="0.431885" width="90.1064" height="12.1268" fill="white"/>
<path d="M116.172 0.431885L129.992 0.431885C136.689 0.431885 142.119 5.86123 142.119 12.5587V12.5587L116.172 12.5587V0.431885Z" fill="white"/>
<rect width="142" height="15" transform="translate(0.119141 12.5587)" fill="white"/>
<path d="M55.0393 16.2807C55.8399 16.2807 56.5608 16.4595 57.2021 16.817C57.8433 17.1707 58.3447 17.6682 58.7061 18.3094C59.0714 18.9507 59.2541 19.6735 59.2541 20.478C59.2541 21.2825 59.0714 22.0054 58.7061 22.6466C58.3447 23.2879 57.8433 23.7873 57.2021 24.1448C56.5608 24.4985 55.8399 24.6753 55.0393 24.6753C54.4408 24.6753 53.8812 24.5704 53.3604 24.3605C52.8396 24.1506 52.3927 23.8631 52.0196 23.4977C51.6504 23.1285 51.3589 22.6835 51.1451 22.1628C50.9314 21.642 50.8245 21.0804 50.8245 20.478C50.8245 19.8756 50.9314 19.314 51.1451 18.7933C51.3589 18.2725 51.6504 17.8294 52.0196 17.4641C52.3927 17.0949 52.8396 16.8054 53.3604 16.5955C53.8812 16.3857 54.4408 16.2807 55.0393 16.2807ZM55.0393 17.1843C54.5846 17.1843 54.159 17.2659 53.7626 17.4291C53.3662 17.5885 53.0242 17.81 52.7366 18.0937C52.449 18.3774 52.2217 18.7253 52.0546 19.1372C51.8913 19.5492 51.8097 19.9961 51.8097 20.478C51.8097 20.9599 51.8913 21.4069 52.0546 21.8188C52.2217 22.2308 52.449 22.5786 52.7366 22.8623C53.0242 23.146 53.3662 23.3695 53.7626 23.5327C54.159 23.6921 54.5846 23.7717 55.0393 23.7717C55.6495 23.7717 56.1994 23.6357 56.6891 23.3637C57.1788 23.0916 57.5655 22.703 57.8492 22.1977C58.1329 21.6925 58.2747 21.1193 58.2747 20.478C58.2747 19.8368 58.1329 19.2635 57.8492 18.7583C57.5655 18.2531 57.1788 17.8644 56.6891 17.5924C56.1994 17.3203 55.6495 17.1843 55.0393 17.1843ZM63.4476 18.9273C63.8596 18.9273 64.2424 19.0031 64.5961 19.1547C64.9497 19.3024 65.249 19.5161 65.4938 19.796L64.9342 20.3847C64.495 19.9572 63.9917 19.7435 63.4243 19.7435C62.8686 19.7435 62.4042 19.9378 62.0311 20.3264C61.6619 20.7151 61.4772 21.2048 61.4772 21.7955C61.4772 22.3901 61.6619 22.8817 62.0311 23.2704C62.4042 23.659 62.8686 23.8533 63.4243 23.8533C63.9995 23.8533 64.5086 23.6376 64.9517 23.2063L65.4938 23.8009C65.2451 24.0807 64.9439 24.2964 64.5902 24.448C64.2366 24.5956 63.8557 24.6695 63.4476 24.6695C62.6082 24.6695 61.9222 24.3974 61.3898 23.8533C60.8574 23.3092 60.5912 22.6233 60.5912 21.7955C60.5912 20.9716 60.8574 20.2876 61.3898 19.7435C61.9222 19.1994 62.6082 18.9273 63.4476 18.9273ZM70.8052 19.0381V19.8251H68.4209V22.6116C68.4209 23.0275 68.52 23.3384 68.7182 23.5444C68.9164 23.7503 69.1826 23.8533 69.5169 23.8533C69.9327 23.8533 70.3194 23.7231 70.677 23.4628L71.085 24.1215C70.6031 24.4868 70.0571 24.6695 69.4469 24.6695C68.8406 24.6695 68.3723 24.5004 68.042 24.1623C67.7155 23.8203 67.5523 23.3092 67.5523 22.6291V19.8251H66.3456V19.0381H67.5523V17.2834H68.4209V19.0381H70.8052ZM77.5404 19.0381V24.5587H76.6718V23.7367C76.1899 24.3586 75.5175 24.6695 74.6547 24.6695C73.8736 24.6695 73.2187 24.3974 72.6902 23.8533C72.1616 23.3054 71.8973 22.6194 71.8973 21.7955C71.8973 20.9716 72.1616 20.2876 72.6902 19.7435C73.2187 19.1994 73.8736 18.9273 74.6547 18.9273C75.5136 18.9273 76.186 19.2383 76.6718 19.8601V19.0381H77.5404ZM74.7597 19.7435C74.1767 19.7435 73.7006 19.9417 73.3314 20.3381C72.9661 20.7306 72.7834 21.2164 72.7834 21.7955C72.7834 22.3746 72.968 22.8623 73.3372 23.2587C73.7065 23.6551 74.1806 23.8533 74.7597 23.8533C75.331 23.8533 75.8012 23.659 76.1704 23.2704C76.5396 22.8779 76.7242 22.3862 76.7242 21.7955C76.7242 21.2087 76.5396 20.7209 76.1704 20.3323C75.8012 19.9397 75.331 19.7435 74.7597 19.7435ZM82.3037 18.9273C82.9877 18.9273 83.5415 19.1294 83.9651 19.5336C84.3926 19.9378 84.6064 20.4722 84.6064 21.1368V24.5587H83.7378V21.4224C83.7378 20.8977 83.5978 20.4897 83.318 20.1982C83.0421 19.9028 82.6515 19.7551 82.1463 19.7551C81.6683 19.7551 81.266 19.9106 80.9396 20.2215C80.617 20.5285 80.4557 20.9366 80.4557 21.4457V24.5587H79.5813V19.0381H80.444V19.8251C80.6539 19.5142 80.924 19.2868 81.2544 19.143C81.5847 18.9992 81.9345 18.9273 82.3037 18.9273ZM88.9038 18.9273C89.6538 18.9273 90.2718 19.1936 90.7576 19.726C91.2473 20.2584 91.494 20.9424 91.4979 21.778C91.4979 21.8985 91.4921 22.0073 91.4804 22.1045H87.0558C87.1141 22.6796 87.3239 23.1246 87.6854 23.4394C88.0468 23.7503 88.4879 23.9058 89.0087 23.9058C89.6694 23.9058 90.2523 23.6746 90.7576 23.2121L91.2239 23.8067C90.6215 24.3819 89.8656 24.6695 88.9562 24.6695C88.1362 24.6695 87.4658 24.4052 86.945 23.8767C86.4242 23.3442 86.1639 22.6524 86.1639 21.8013C86.1639 20.9619 86.4223 20.274 86.9392 19.7377C87.4561 19.1974 88.1109 18.9273 88.9038 18.9273ZM88.8863 19.7027C88.3888 19.7027 87.9788 19.8581 87.6562 20.169C87.3337 20.48 87.1374 20.89 87.0674 21.3991H90.6118C90.5574 20.8822 90.3728 20.4702 90.058 20.1632C89.7471 19.8562 89.3565 19.7027 88.8863 19.7027Z" fill="#231F20"/>
<path d="M0.119141 27.5587H26.0659V39.6842H12.2447C5.54793 39.6842 0.119141 34.2555 0.119141 27.5587V27.5587Z" fill="white"/>
<rect x="26.0664" y="27.5587" width="90.1064" height="12.1255" fill="white"/>
<path d="M116.172 27.5587H142.119V27.5587C142.119 34.2555 136.69 39.6842 129.993 39.6842H116.172V27.5587Z" fill="white"/>
<g clip-path="url(#clip1_214_14062)">
<path d="M168.279 39.6842L-26.04 39.6842V59.1161L168.279 59.1161V39.6842Z" fill="white"/>
<path d="M17.9727 52.315L33.421 43.9592" stroke="#231F20" stroke-width="0.971596"/>
<path d="M124.266 46.4854L108.817 54.8411" stroke="#231F20" stroke-width="0.971596"/>
<path d="M33.4219 43.9592L48.2873 53.0922" stroke="#231F20" stroke-width="0.971596"/>
<path d="M108.818 54.841L93.9521 45.708" stroke="#231F20" stroke-width="0.971596"/>
<path d="M48.2871 53.0923L63.6383 44.8337" stroke="#231F20" stroke-width="0.971596"/>
<path d="M93.9518 45.708L78.6006 53.9666" stroke="#231F20" stroke-width="0.971596"/>
<path d="M63.6377 44.8337L78.6003 53.9667" stroke="#231F20" stroke-width="0.971596"/>
<path d="M32.6445 44.3479L33.4218 43.9592L34.1019 44.445" stroke="#231F20" stroke-width="0.971596"/>
<path d="M109.594 54.4524L108.817 54.841L108.137 54.3552" stroke="#231F20" stroke-width="0.971596"/>
<path d="M47.5098 52.7036L48.287 53.0923L49.0643 52.7036" stroke="#231F20" stroke-width="0.971596"/>
<path d="M94.7294 46.0966L93.9521 45.708L93.1748 46.0966" stroke="#231F20" stroke-width="0.971596"/>
<path d="M62.8613 45.2224L63.6386 44.8337L64.4159 45.3195" stroke="#231F20" stroke-width="0.971596"/>
<path d="M79.3788 53.578L78.6015 53.9666L77.8242 53.4808" stroke="#231F20" stroke-width="0.971596"/>
</g>
</g>
<rect x="0.86891" y="1.18165" width="140.5" height="85.5005" rx="3.13661" stroke="white" stroke-width="1.49954"/>
<defs>
<clipPath id="clip0_214_14062">
<rect x="0.119141" y="0.431885" width="142" height="87" rx="3.88638" fill="white"/>
</clipPath>
<clipPath id="clip1_214_14062">
<rect width="194.319" height="19.4319" fill="white" transform="translate(-26.04 39.6842)"/>
</clipPath>
</defs>
</svg>
