<svg width="145" height="87" viewBox="0 0 145 87" fill="none" xmlns="http://www.w3.org/2000/svg">
<g clip-path="url(#clip0_214_14613)">
<rect x="0.494141" y="0.431885" width="144" height="86" rx="3.88638" fill="white"/>
<path d="M0.494141 8.24202C0.494141 1.54458 5.92349 -3.88477 12.6209 -3.88477H26.4409V8.24202H0.494141V8.24202Z" fill="white"/>
<rect x="26.4414" y="-3.88477" width="92.1064" height="12.1268" fill="white"/>
<path d="M118.547 -3.88477H132.367C139.064 -3.88477 144.494 1.54458 144.494 8.24202V8.24202H118.547V-3.88477Z" fill="white"/>
<rect width="144" height="15" transform="translate(0.494141 8.24207)" fill="white"/>
<path d="M46.9 14.6107C47.6811 14.6107 48.336 14.8827 48.8645 15.4268C49.3931 15.9709 49.6573 16.6549 49.6573 17.4788C49.6573 18.3028 49.3931 18.9887 48.8645 19.5367C48.336 20.0808 47.6811 20.3528 46.9 20.3528C46.0411 20.3528 45.3707 20.0439 44.8888 19.4259V22.5739H44.0143V14.7215H44.8888V15.5376C45.3707 14.9197 46.0411 14.6107 46.9 14.6107ZM46.795 15.4268C46.2237 15.4268 45.7535 15.6231 45.3843 16.0156C45.0151 16.4043 44.8305 16.892 44.8305 17.4788C44.8305 18.0696 45.0151 18.5612 45.3843 18.9537C45.7535 19.3424 46.2237 19.5367 46.795 19.5367C47.378 19.5367 47.8521 19.3404 48.2174 18.9479C48.5828 18.5515 48.7654 18.0618 48.7654 17.4788C48.7654 16.8998 48.5808 16.414 48.2116 16.0215C47.8424 15.625 47.3702 15.4268 46.795 15.4268ZM54.3216 16.7618V17.5546H51.0803V16.7618H54.3216ZM60.063 11.9641C60.7743 11.9641 61.4272 12.1156 62.0218 12.4188C62.6164 12.718 63.0731 13.13 63.3917 13.6546L62.6106 14.1793C62.3385 13.7712 61.979 13.4506 61.5321 13.2174C61.0852 12.9842 60.5955 12.8677 60.063 12.8677C59.6083 12.8677 59.1828 12.9493 58.7864 13.1125C58.39 13.2718 58.048 13.4934 57.7604 13.7771C57.4728 14.0608 57.2454 14.4086 57.0783 14.8206C56.9151 15.2325 56.8335 15.6795 56.8335 16.1614C56.8335 16.6433 56.9151 17.0902 57.0783 17.5022C57.2454 17.9141 57.4728 18.262 57.7604 18.5457C58.048 18.8294 58.39 19.0528 58.7864 19.2161C59.1828 19.3754 59.6083 19.4551 60.063 19.4551C60.5994 19.4551 61.0891 19.3404 61.5321 19.1111C61.9751 18.8818 62.3346 18.5612 62.6106 18.1492L63.3684 18.7089C63.0264 19.2219 62.5639 19.6261 61.981 19.9214C61.4019 20.2129 60.7626 20.3587 60.063 20.3587C59.4645 20.3587 58.9049 20.2537 58.3841 20.0439C57.8634 19.834 57.4164 19.5464 57.0433 19.1811C56.6741 18.8119 56.3826 18.3669 56.1689 17.8461C55.9551 17.3253 55.8483 16.7638 55.8483 16.1614C55.8483 15.559 55.9551 14.9974 56.1689 14.4766C56.3826 13.9558 56.6741 13.5128 57.0433 13.1475C57.4164 12.7783 57.8634 12.4887 58.3841 12.2789C58.9049 12.069 59.4645 11.9641 60.063 11.9641ZM70.058 14.7215L65.5634 22.5972H64.6016L66.6594 19.047L64.1235 14.7215H65.0971L67.1549 18.1842L69.102 14.7215H70.058ZM78.0427 14.6107C78.7306 14.6107 79.2864 14.8128 79.71 15.217C80.1375 15.6212 80.3512 16.1555 80.3512 16.8201V20.2421H79.4826V17.1058C79.4826 16.5811 79.3427 16.173 79.0629 15.8815C78.7831 15.5862 78.3906 15.4385 77.8853 15.4385C77.4073 15.4385 77.0051 15.594 76.6786 15.9049C76.356 16.2119 76.1948 16.62 76.1948 17.1291V20.2421H75.3262V17.1058C75.3262 16.5811 75.1862 16.173 74.9064 15.8815C74.6305 15.5862 74.2399 15.4385 73.7347 15.4385C73.2567 15.4385 72.8544 15.594 72.528 15.9049C72.2054 16.2119 72.0441 16.62 72.0441 17.1291V20.2421H71.1697V14.7215H72.0324V15.5084C72.2423 15.1975 72.5124 14.9702 72.8428 14.8264C73.1731 14.6826 73.5229 14.6107 73.8921 14.6107C74.3701 14.6107 74.7898 14.7137 75.1513 14.9197C75.5127 15.1218 75.7828 15.4055 75.9616 15.7708C76.1676 15.3705 76.4571 15.0771 76.8302 14.8905C77.2072 14.704 77.6113 14.6107 78.0427 14.6107ZM84.648 14.6107C85.3981 14.6107 86.016 14.8769 86.5018 15.4093C86.9915 15.9418 87.2383 16.6258 87.2422 17.4614C87.2422 17.5818 87.2363 17.6907 87.2247 17.7878H82.8C82.8583 18.363 83.0682 18.808 83.4296 19.1228C83.7911 19.4337 84.2322 19.5892 84.7529 19.5892C85.4136 19.5892 85.9966 19.3579 86.5018 18.8954L86.9682 19.4901C86.3658 20.0652 85.6099 20.3528 84.7005 20.3528C83.8804 20.3528 83.21 20.0886 82.6893 19.56C82.1685 19.0276 81.9081 18.3358 81.9081 17.4847C81.9081 16.6452 82.1666 15.9573 82.6834 15.421C83.2003 14.8808 83.8552 14.6107 84.648 14.6107ZM84.6305 15.386C84.1331 15.386 83.723 15.5415 83.4005 15.8524C83.0779 16.1633 82.8816 16.5733 82.8117 17.0824H86.3561C86.3017 16.5655 86.1171 16.1536 85.8023 15.8466C85.4914 15.5395 85.1008 15.386 84.6305 15.386ZM91.5857 14.6107C92.2697 14.6107 92.8236 14.8128 93.2472 15.217C93.6747 15.6212 93.8884 16.1555 93.8884 16.8201V20.2421H93.0198V17.1058C93.0198 16.5811 92.8799 16.173 92.6001 15.8815C92.3242 15.5862 91.9336 15.4385 91.4283 15.4385C90.9503 15.4385 90.5481 15.594 90.2216 15.9049C89.8991 16.2119 89.7378 16.62 89.7378 17.1291V20.2421H88.8633V14.7215H89.7261V15.5084C89.936 15.1975 90.2061 14.9702 90.5364 14.8264C90.8668 14.6826 91.2165 14.6107 91.5857 14.6107ZM98.1858 14.6107C98.9359 14.6107 99.5538 14.8769 100.04 15.4093C100.529 15.9418 100.776 16.6258 100.78 17.4614C100.78 17.5818 100.774 17.6907 100.763 17.7878H96.3379C96.3961 18.363 96.606 18.808 96.9674 19.1228C97.3289 19.4337 97.77 19.5892 98.2908 19.5892C98.9514 19.5892 99.5344 19.3579 100.04 18.8954L100.506 19.4901C99.9036 20.0652 99.1477 20.3528 98.2383 20.3528C97.4183 20.3528 96.7479 20.0886 96.2271 19.56C95.7063 19.0276 95.4459 18.3358 95.4459 17.4847C95.4459 16.6452 95.7044 15.9573 96.2213 15.421C96.7382 14.8808 97.393 14.6107 98.1858 14.6107ZM98.1683 15.386C97.6709 15.386 97.2609 15.5415 96.9383 15.8524C96.6157 16.1633 96.4195 16.5733 96.3495 17.0824H99.8939C99.8395 16.5655 99.6549 16.1536 99.3401 15.8466C99.0292 15.5395 98.6386 15.386 98.1683 15.386Z" fill="#231F20"/>
<g clip-path="url(#clip1_214_14613)">
<path d="M144.392 23.2421L0.595703 23.2421V78.623H144.392V23.2421Z" fill="white"/>
<path d="M33.0479 35.6786L41.7922 50.8355" stroke="#231F20" stroke-width="0.971596"/>
<path d="M33.0479 65.8952L41.7922 50.8354" stroke="#231F20" stroke-width="0.971596"/>
<path d="M111.747 50.7383H94.2578" stroke="#231F20" stroke-width="0.971596"/>
<path d="M85.5131 65.8951H68.0244" stroke="#231F20" stroke-width="0.971596"/>
<path d="M83.9587 63.2717H69.5791" stroke="#231F20" stroke-width="0.971596"/>
<path d="M85.5137 65.8952L94.258 50.7383" stroke="#231F20" stroke-width="0.971596"/>
<path d="M85.5131 35.6786H68.0244" stroke="#231F20" stroke-width="0.971596"/>
<path d="M85.5137 35.6786L94.258 50.7383" stroke="#231F20" stroke-width="0.971596"/>
<path d="M83.958 38.3018L91.245 50.7382" stroke="#231F20" stroke-width="0.971596"/>
<path d="M68.0246 65.8952L59.2803 50.8354" stroke="#231F20" stroke-width="0.971596"/>
<path d="M68.0246 35.6786L59.2803 50.8355" stroke="#231F20" stroke-width="0.971596"/>
<path d="M69.579 38.3018L62.292 50.8353" stroke="#231F20" stroke-width="0.971596"/>
<path d="M41.792 50.8354H59.2807" stroke="#231F20" stroke-width="0.971596"/>
<path d="M84.6387 65.8951H85.5131L85.9017 65.215" stroke="#231F20" stroke-width="0.971596"/>
<path d="M84.6387 35.6786H85.5131L85.9017 36.3587" stroke="#231F20" stroke-width="0.971596"/>
<path d="M68.8993 65.8951H68.0249L67.5391 65.215" stroke="#231F20" stroke-width="0.971596"/>
<path d="M68.8993 35.6786H68.0249L67.5391 36.3587" stroke="#231F20" stroke-width="0.971596"/>
</g>
<path d="M0.494141 78.623H26.4409V90.7486H12.6197C5.92293 90.7486 0.494141 85.3198 0.494141 78.623V78.623Z" fill="white"/>
<rect x="26.4414" y="78.623" width="92.1064" height="12.1255" fill="white"/>
<path d="M118.547 78.623H144.494V78.623C144.494 85.3198 139.065 90.7486 132.368 90.7486H118.547V78.623Z" fill="white"/>
</g>
<rect x="1.24391" y="1.18165" width="142.5" height="84.5005" rx="3.13661" stroke="white" stroke-width="1.49954"/>
<defs>
<clipPath id="clip0_214_14613">
<rect x="0.494141" y="0.431885" width="144" height="86" rx="3.88638" fill="white"/>
</clipPath>
<clipPath id="clip1_214_14613">
<rect width="143.796" height="55.381" fill="white" transform="translate(0.595703 23.2421)"/>
</clipPath>
</defs>
</svg>
