<svg width="145" height="87" viewBox="0 0 145 87" fill="none" xmlns="http://www.w3.org/2000/svg">
<g clip-path="url(#clip0_214_14193)">
<rect x="0.494141" y="0.431885" width="144" height="86" rx="3.88638" fill="white"/>
<path d="M0.494141 9.69942C0.494141 3.00198 5.92349 -2.42737 12.6209 -2.42737L26.4409 -2.42737V9.69942L0.494141 9.69942V9.69942Z" fill="white"/>
<rect x="26.4414" y="-2.42737" width="92.1064" height="12.1268" fill="white"/>
<path d="M118.547 -2.42737L132.367 -2.42737C139.064 -2.42737 144.494 3.00198 144.494 9.69942V9.69942L118.547 9.69942V-2.42737Z" fill="white"/>
<rect width="144" height="15" transform="translate(0.494141 9.69946)" fill="white"/>
<path d="M53.7161 13.5381L57.0681 21.6995H56.0654L55.1385 19.4259H51.0986L50.1775 21.6995H49.204L52.556 13.5381H53.7161ZM53.1215 14.465L51.4601 18.5398H54.7829L53.1215 14.465ZM60.6945 16.0681C61.1064 16.0681 61.4892 16.1439 61.8429 16.2954C62.1966 16.4431 62.4958 16.6569 62.7406 16.9367L62.181 17.5255C61.7418 17.098 61.2386 16.8842 60.6711 16.8842C60.1154 16.8842 59.651 17.0786 59.2779 17.4672C58.9087 17.8558 58.7241 18.3455 58.7241 18.9362C58.7241 19.5309 58.9087 20.0225 59.2779 20.4111C59.651 20.7998 60.1154 20.9941 60.6711 20.9941C61.2463 20.9941 61.7554 20.7784 62.1985 20.347L62.7406 20.9416C62.4919 21.2214 62.1907 21.4371 61.8371 21.5887C61.4834 21.7364 61.1025 21.8102 60.6945 21.8102C59.855 21.8102 59.1691 21.5382 58.6366 20.9941C58.1042 20.45 57.838 19.764 57.838 18.9362C57.838 18.1123 58.1042 17.4283 58.6366 16.8842C59.1691 16.3401 59.855 16.0681 60.6945 16.0681ZM66.4416 16.0681C67.1917 16.0681 67.8096 16.3343 68.2954 16.8667C68.7851 17.3992 69.0319 18.0832 69.0358 18.9188C69.0358 19.0392 69.0299 19.1481 69.0183 19.2452H64.5936C64.6519 19.8204 64.8618 20.2654 65.2232 20.5802C65.5847 20.8911 66.0258 21.0466 66.5465 21.0466C67.2072 21.0466 67.7902 20.8153 68.2954 20.3528L68.7618 20.9474C68.1594 21.5226 67.4035 21.8102 66.4941 21.8102C65.674 21.8102 65.0036 21.546 64.4829 21.0174C63.9621 20.485 63.7017 19.7932 63.7017 18.9421C63.7017 18.1026 63.9601 17.4147 64.477 16.8784C64.9939 16.3382 65.6488 16.0681 66.4416 16.0681ZM66.4241 16.8434C65.9267 16.8434 65.5166 16.9989 65.1941 17.3098C64.8715 17.6207 64.6752 18.0307 64.6053 18.5398H68.1497C68.0953 18.0229 67.9107 17.611 67.5959 17.304C67.285 16.9969 66.8944 16.8434 66.4241 16.8434ZM74.3484 16.1789V16.9658H71.9641V19.7524C71.9641 20.1682 72.0632 20.4791 72.2614 20.6851C72.4596 20.8911 72.7259 20.9941 73.0601 20.9941C73.4759 20.9941 73.8626 20.8639 74.2202 20.6035L74.6282 21.2622C74.1463 21.6276 73.6003 21.8102 72.9901 21.8102C72.3839 21.8102 71.9155 21.6412 71.5852 21.3031C71.2587 20.961 71.0955 20.45 71.0955 19.7699V16.9658H69.8888V16.1789H71.0955V14.4242H71.9641V16.1789H74.3484ZM78.3437 16.0681C79.1754 16.0681 79.8671 16.3421 80.419 16.8901C80.9748 17.438 81.2526 18.1201 81.2526 18.9362C81.2526 19.7563 80.9748 20.4403 80.419 20.9883C79.8671 21.5362 79.1754 21.8102 78.3437 21.8102C77.512 21.8102 76.8202 21.5362 76.2684 20.9883C75.7165 20.4403 75.4406 19.7563 75.4406 18.9362C75.4406 18.1201 75.7165 17.438 76.2684 16.8901C76.8241 16.3421 77.5159 16.0681 78.3437 16.0681ZM79.7836 17.4672C79.3988 17.0786 78.9189 16.8842 78.3437 16.8842C77.7685 16.8842 77.2885 17.0786 76.9038 17.4672C76.519 17.8558 76.3267 18.3455 76.3267 18.9362C76.3267 19.5309 76.519 20.0225 76.9038 20.4111C77.2885 20.7998 77.7685 20.9941 78.3437 20.9941C78.9189 20.9941 79.3988 20.7998 79.7836 20.4111C80.1683 20.0225 80.3607 19.5309 80.3607 18.9362C80.3607 18.3455 80.1683 17.8558 79.7836 17.4672ZM85.5964 16.0681C86.2804 16.0681 86.8342 16.2702 87.2578 16.6744C87.6853 17.0786 87.8991 17.6129 87.8991 18.2775V21.6995H87.0305V18.5632C87.0305 18.0385 86.8906 17.6304 86.6108 17.3389C86.3348 17.0436 85.9442 16.8959 85.439 16.8959C84.961 16.8959 84.5587 17.0513 84.2323 17.3623C83.9097 17.6693 83.7484 18.0774 83.7484 18.5865V21.6995H82.874V16.1789H83.7368V16.9658C83.9466 16.6549 84.2167 16.4276 84.5471 16.2838C84.8774 16.14 85.2272 16.0681 85.5964 16.0681ZM92.1965 16.0681C92.9466 16.0681 93.5645 16.3343 94.0503 16.8667C94.54 17.3992 94.7868 18.0832 94.7906 18.9188C94.7906 19.0392 94.7848 19.1481 94.7732 19.2452H90.3485C90.4068 19.8204 90.6167 20.2654 90.9781 20.5802C91.3395 20.8911 91.7806 21.0466 92.3014 21.0466C92.9621 21.0466 93.5451 20.8153 94.0503 20.3528L94.5167 20.9474C93.9143 21.5226 93.1584 21.8102 92.249 21.8102C91.4289 21.8102 90.7585 21.546 90.2377 21.0174C89.717 20.485 89.4566 19.7932 89.4566 18.9421C89.4566 18.1026 89.715 17.4147 90.2319 16.8784C90.7488 16.3382 91.4037 16.0681 92.1965 16.0681ZM92.179 16.8434C91.6815 16.8434 91.2715 16.9989 90.949 17.3098C90.6264 17.6207 90.4301 18.0307 90.3602 18.5398H93.9046C93.8501 18.0229 93.6655 17.611 93.3507 17.304C93.0398 16.9969 92.6493 16.8434 92.179 16.8434Z" fill="#231F20"/>
<g clip-path="url(#clip1_214_14193)">
<path d="M100.185 24.6995L44.8037 24.6995V77.1656H100.185V24.6995Z" fill="white"/>
<path d="M57.2402 65.0207L72.3971 56.2764" stroke="#231F20" stroke-width="0.971596"/>
<path d="M87.4572 65.0207L72.3975 56.2764" stroke="#231F20" stroke-width="0.971596"/>
<path d="M73.6602 57.0535V49.4751" stroke="#231F20" stroke-width="0.971596"/>
<path d="M73.6602 49.4751V41.8966" stroke="#FF6A00" stroke-width="0.971596"/>
<path d="M71.0371 57.0535V49.4751" stroke="#231F20" stroke-width="0.971596"/>
<path d="M71.0371 49.4751V41.8966" stroke="#FF6A00" stroke-width="0.971596"/>
<path d="M71.6191 56.665L72.3964 56.2764L73.0765 56.665" stroke="#231F20" stroke-width="0.971596"/>
<path d="M70.0654 38.7876C70.0654 38.0103 70.2597 37.395 70.6484 36.9416C71.037 36.4882 71.62 36.2615 72.3973 36.2615C73.1098 36.2615 73.6603 36.4882 74.049 36.9416C74.4376 37.395 74.6319 38.0103 74.6319 38.7876C74.6319 39.5649 74.4376 40.1802 74.049 40.6337C73.6603 41.0871 73.1098 41.3138 72.3973 41.3138C71.62 41.3138 71.037 41.0871 70.6484 40.6337C70.2597 40.1802 70.0654 39.5649 70.0654 38.7876ZM72.3973 40.828C72.8507 40.828 73.2069 40.666 73.466 40.3422C73.7899 39.9535 73.9518 39.4354 73.9518 38.7876C73.9518 38.1399 73.7899 37.6541 73.466 37.3302C73.2069 37.0064 72.8507 36.8444 72.3973 36.8444C71.8791 36.8444 71.4581 37.0064 71.1342 37.3302C70.8751 37.6541 70.7455 38.1399 70.7455 38.7876C70.7455 39.4354 70.8751 39.9535 71.1342 40.3422C71.4581 40.666 71.8791 40.828 72.3973 40.828Z" fill="#FF6A00"/>
</g>
<path d="M0.494141 77.1656H26.4409V89.2912H12.6197C5.92293 89.2912 0.494141 83.8624 0.494141 77.1656V77.1656Z" fill="white"/>
<rect x="26.4414" y="77.1656" width="92.1064" height="12.1255" fill="white"/>
<path d="M118.547 77.1656H144.494V77.1656C144.494 83.8624 139.065 89.2912 132.368 89.2912H118.547V77.1656Z" fill="white"/>
</g>
<rect x="1.24391" y="1.18165" width="142.5" height="84.5005" rx="3.13661" stroke="white" stroke-width="1.49954"/>
<defs>
<clipPath id="clip0_214_14193">
<rect x="0.494141" y="0.431885" width="144" height="86" rx="3.88638" fill="white"/>
</clipPath>
<clipPath id="clip1_214_14193">
<rect width="55.381" height="52.4662" fill="white" transform="translate(44.8037 24.6995)"/>
</clipPath>
</defs>
</svg>
