<svg width="143" height="87" viewBox="0 0 143 87" fill="none" xmlns="http://www.w3.org/2000/svg">
<g clip-path="url(#clip0_214_15153)">
<rect x="0.494141" y="0.431885" width="142" height="86" rx="3.88638" fill="white"/>
<path d="M0.494141 3.38411C0.494141 -3.31333 5.92349 -8.74268 12.6209 -8.74268H26.4409V3.38411H0.494141V3.38411Z" fill="white"/>
<rect x="26.4414" y="-8.74268" width="90.1064" height="12.1268" fill="white"/>
<path d="M116.547 -8.74268H130.367C137.064 -8.74268 142.494 -3.31333 142.494 3.38411V3.38411H116.547V-8.74268Z" fill="white"/>
<rect width="142" height="15" transform="translate(0.494141 3.38403)" fill="white"/>
<path d="M21.8264 7.22263V8.10872H18.9932V15.384H18.0605V8.10872H15.2273V7.22263H21.8264ZM24.4373 9.75266C25.1874 9.75266 25.8053 10.0189 26.2911 10.5513C26.7808 11.0837 27.0276 11.7678 27.0315 12.6033C27.0315 12.7238 27.0257 12.8326 27.014 12.9298H22.5893C22.6476 13.505 22.8575 13.95 23.2189 14.2648C23.5804 14.5757 24.0215 14.7311 24.5423 14.7311C25.2029 14.7311 25.7859 14.4999 26.2911 14.0374L26.7575 14.632C26.1551 15.2072 25.3992 15.4948 24.4898 15.4948C23.6698 15.4948 22.9994 15.2305 22.4786 14.702C21.9578 14.1695 21.6974 13.4778 21.6974 12.6266C21.6974 11.7872 21.9559 11.0993 22.4728 10.563C22.9896 10.0228 23.6445 9.75266 24.4373 9.75266ZM24.4198 10.528C23.9224 10.528 23.5124 10.6835 23.1898 10.9944C22.8672 11.3053 22.671 11.7153 22.601 12.2244H26.1454C26.091 11.7075 25.9064 11.2956 25.5916 10.9885C25.2807 10.6815 24.8901 10.528 24.4198 10.528ZM32.3441 9.86343V10.6504H29.9598V13.437C29.9598 13.8528 30.0589 14.1637 30.2572 14.3697C30.4554 14.5757 30.7216 14.6787 31.0558 14.6787C31.4716 14.6787 31.8583 14.5485 32.2159 14.2881L32.624 14.9468C32.1421 15.3121 31.596 15.4948 30.9859 15.4948C30.3796 15.4948 29.9113 15.3257 29.5809 14.9876C29.2545 14.6456 29.0912 14.1346 29.0912 13.4544V10.6504H27.8845V9.86343H29.0912V8.10872H29.9598V9.86343H32.3441ZM36.3797 9.75266C36.7839 9.75266 37.122 9.81485 37.394 9.93921L37.1841 10.7962C36.9121 10.6485 36.5934 10.5746 36.2281 10.5746C35.7928 10.5746 35.4372 10.732 35.1613 11.0468C34.8854 11.3616 34.7474 11.7775 34.7474 12.2944V15.384H33.8788V9.86343H34.7416V10.6388C34.932 10.3551 35.1671 10.1374 35.4469 9.98585C35.7306 9.83039 36.0416 9.75266 36.3797 9.75266ZM43.7134 9.86343V15.384H42.8448V14.5621C42.3628 15.1839 41.6905 15.4948 40.8277 15.4948C40.0466 15.4948 39.3917 15.2227 38.8632 14.6787C38.3346 14.1307 38.0703 13.4447 38.0703 12.6208C38.0703 11.7969 38.3346 11.1129 38.8632 10.5688C39.3917 10.0247 40.0466 9.75266 40.8277 9.75266C41.6866 9.75266 42.359 10.0636 42.8448 10.6854V9.86343H43.7134ZM40.9327 10.5688C40.3497 10.5688 39.8736 10.767 39.5044 11.1634C39.1391 11.5559 38.9564 12.0417 38.9564 12.6208C38.9564 13.1999 39.141 13.6876 39.5102 14.084C39.8794 14.4804 40.3536 14.6787 40.9327 14.6787C41.504 14.6787 41.9742 14.4843 42.3434 14.0957C42.7126 13.7032 42.8972 13.2115 42.8972 12.6208C42.8972 12.034 42.7126 11.5462 42.3434 11.1576C41.9742 10.7651 41.504 10.5688 40.9327 10.5688ZM48.191 9.75266C48.603 9.75266 48.9858 9.82845 49.3394 9.98002C49.6931 10.1277 49.9924 10.3415 50.2372 10.6213L49.6776 11.2101C49.2384 10.7826 48.7351 10.5688 48.1677 10.5688C47.612 10.5688 47.1475 10.7631 46.7744 11.1518C46.4052 11.5404 46.2206 12.0301 46.2206 12.6208C46.2206 13.2154 46.4052 13.7071 46.7744 14.0957C47.1475 14.4843 47.612 14.6787 48.1677 14.6787C48.7429 14.6787 49.252 14.463 49.6951 14.0316L50.2372 14.6262C49.9885 14.906 49.6873 15.1217 49.3336 15.2733C48.98 15.421 48.5991 15.4948 48.191 15.4948C47.3516 15.4948 46.6656 15.2227 46.1332 14.6787C45.6007 14.1346 45.3345 13.4486 45.3345 12.6208C45.3345 11.7969 45.6007 11.1129 46.1332 10.5688C46.6656 10.0247 47.3516 9.75266 48.191 9.75266ZM52.5949 6.98944V10.6329C52.8087 10.3298 53.0788 10.1083 53.4052 9.96836C53.7317 9.82456 54.0776 9.75266 54.4429 9.75266C55.1269 9.75266 55.6807 9.95476 56.1043 10.3589C56.5318 10.7631 56.7456 11.2975 56.7456 11.9621V15.384H55.877V12.2477C55.877 11.7231 55.737 11.315 55.4572 11.0235C55.1813 10.7281 54.7907 10.5805 54.2855 10.5805C53.8075 10.5805 53.4052 10.7359 53.0788 11.0468C52.7562 11.3539 52.5949 11.7619 52.5949 12.271V15.384H51.7205V6.98944H52.5949ZM59.5972 6.98944V15.384H58.7228V6.98944H59.5972ZM64.121 9.75266C64.9527 9.75266 65.6444 10.0267 66.1963 10.5746C66.7521 11.1226 67.0299 11.8047 67.0299 12.6208C67.0299 13.4408 66.7521 14.1248 66.1963 14.6728C65.6444 15.2208 64.9527 15.4948 64.121 15.4948C63.2893 15.4948 62.5975 15.2208 62.0456 14.6728C61.4938 14.1248 61.2178 13.4408 61.2178 12.6208C61.2178 11.8047 61.4938 11.1226 62.0456 10.5746C62.6014 10.0267 63.2932 9.75266 64.121 9.75266ZM65.5609 11.1518C65.1761 10.7631 64.6962 10.5688 64.121 10.5688C63.5458 10.5688 63.0658 10.7631 62.6811 11.1518C62.2963 11.5404 62.1039 12.0301 62.1039 12.6208C62.1039 13.2154 62.2963 13.7071 62.6811 14.0957C63.0658 14.4843 63.5458 14.6787 64.121 14.6787C64.6962 14.6787 65.1761 14.4843 65.5609 14.0957C65.9456 13.7071 66.138 13.2154 66.138 12.6208C66.138 12.0301 65.9456 11.5404 65.5609 11.1518ZM71.1522 9.75266C71.5564 9.75266 71.8945 9.81485 72.1665 9.93921L71.9567 10.7962C71.6846 10.6485 71.3659 10.5746 71.0006 10.5746C70.5653 10.5746 70.2097 10.732 69.9338 11.0468C69.6579 11.3616 69.5199 11.7775 69.5199 12.2944V15.384H68.6513V9.86343H69.5141V10.6388C69.7045 10.3551 69.9396 10.1374 70.2194 9.98585C70.5031 9.83039 70.8141 9.75266 71.1522 9.75266ZM75.746 9.75266C76.5777 9.75266 77.2694 10.0267 77.8213 10.5746C78.3771 11.1226 78.6549 11.8047 78.6549 12.6208C78.6549 13.4408 78.3771 14.1248 77.8213 14.6728C77.2694 15.2208 76.5777 15.4948 75.746 15.4948C74.9143 15.4948 74.2225 15.2208 73.6706 14.6728C73.1188 14.1248 72.8428 13.4408 72.8428 12.6208C72.8428 11.8047 73.1188 11.1226 73.6706 10.5746C74.2264 10.0267 74.9182 9.75266 75.746 9.75266ZM77.1859 11.1518C76.8011 10.7631 76.3212 10.5688 75.746 10.5688C75.1708 10.5688 74.6908 10.7631 74.3061 11.1518C73.9213 11.5404 73.7289 12.0301 73.7289 12.6208C73.7289 13.2154 73.9213 13.7071 74.3061 14.0957C74.6908 14.4843 75.1708 14.6787 75.746 14.6787C76.3212 14.6787 76.8011 14.4843 77.1859 14.0957C77.5706 13.7071 77.763 13.2154 77.763 12.6208C77.763 12.0301 77.5706 11.5404 77.1859 11.1518ZM82.5965 9.75266C83.3465 9.75266 83.9645 10.0189 84.4503 10.5513C84.9399 11.0837 85.1867 11.7678 85.1906 12.6033C85.1906 12.7238 85.1848 12.8326 85.1731 12.9298H80.7485C80.8068 13.505 81.0166 13.95 81.3781 14.2648C81.7395 14.5757 82.1806 14.7311 82.7014 14.7311C83.3621 14.7311 83.945 14.4999 84.4503 14.0374L84.9166 14.632C84.3142 15.2072 83.5583 15.4948 82.6489 15.4948C81.8289 15.4948 81.1585 15.2305 80.6377 14.702C80.1169 14.1695 79.8565 13.4778 79.8565 12.6266C79.8565 11.7872 80.115 11.0993 80.6319 10.563C81.1488 10.0228 81.8036 9.75266 82.5965 9.75266ZM82.579 10.528C82.0815 10.528 81.6715 10.6835 81.3489 10.9944C81.0264 11.3053 80.8301 11.7153 80.7601 12.2244H84.3045C84.2501 11.7075 84.0655 11.2956 83.7507 10.9885C83.4398 10.6815 83.0492 10.528 82.579 10.528ZM90.5033 9.86343V10.6504H88.119V13.437C88.119 13.8528 88.2181 14.1637 88.4163 14.3697C88.6145 14.5757 88.8807 14.6787 89.2149 14.6787C89.6308 14.6787 90.0175 14.5485 90.375 14.2881L90.7831 14.9468C90.3012 15.3121 89.7551 15.4948 89.145 15.4948C88.5387 15.4948 88.0704 15.3257 87.74 14.9876C87.4136 14.6456 87.2504 14.1346 87.2504 13.4544V10.6504H86.0436V9.86343H87.2504V8.10872H88.119V9.86343H90.5033ZM92.9123 6.98944V10.6329C93.1261 10.3298 93.3962 10.1083 93.7227 9.96836C94.0491 9.82456 94.395 9.75266 94.7603 9.75266C95.4443 9.75266 95.9981 9.95476 96.4217 10.3589C96.8492 10.7631 97.063 11.2975 97.063 11.9621V15.384H96.1944V12.2477C96.1944 11.7231 96.0545 11.315 95.7747 11.0235C95.4987 10.7281 95.1081 10.5805 94.6029 10.5805C94.1249 10.5805 93.7227 10.7359 93.3962 11.0468C93.0736 11.3539 92.9123 11.7619 92.9123 12.271V15.384H92.0379V6.98944H92.9123ZM103.918 9.86343L99.423 17.7392H98.4611L100.519 14.189L97.9831 9.86343H98.9566L101.014 13.3262L102.962 9.86343H103.918ZM105.904 6.98944V15.384H105.029V6.98944H105.904ZM110.264 9.75266C111.014 9.75266 111.632 10.0189 112.118 10.5513C112.608 11.0837 112.854 11.7678 112.858 12.6033C112.858 12.7238 112.852 12.8326 112.841 12.9298H108.416C108.474 13.505 108.684 13.95 109.046 14.2648C109.407 14.5757 109.848 14.7311 110.369 14.7311C111.03 14.7311 111.613 14.4999 112.118 14.0374L112.584 14.632C111.982 15.2072 111.226 15.4948 110.317 15.4948C109.497 15.4948 108.826 15.2305 108.305 14.702C107.785 14.1695 107.524 13.4778 107.524 12.6266C107.524 11.7872 107.783 11.0993 108.3 10.563C108.816 10.0228 109.471 9.75266 110.264 9.75266ZM110.247 10.528C109.749 10.528 109.339 10.6835 109.017 10.9944C108.694 11.3053 108.498 11.7153 108.428 12.2244H111.972C111.918 11.7075 111.733 11.2956 111.418 10.9885C111.108 10.6815 110.717 10.528 110.247 10.528ZM117.202 9.75266C117.886 9.75266 118.44 9.95476 118.863 10.3589C119.291 10.7631 119.505 11.2975 119.505 11.9621V15.384H118.636V12.2477C118.636 11.7231 118.496 11.315 118.216 11.0235C117.94 10.7281 117.55 10.5805 117.045 10.5805C116.566 10.5805 116.164 10.7359 115.838 11.0468C115.515 11.3539 115.354 11.7619 115.354 12.271V15.384H114.479V9.86343H115.342V10.6504C115.552 10.3395 115.822 10.1122 116.153 9.96836C116.483 9.82456 116.833 9.75266 117.202 9.75266ZM123.802 9.75266C124.552 9.75266 125.17 10.0189 125.656 10.5513C126.145 11.0837 126.392 11.7678 126.396 12.6033C126.396 12.7238 126.39 12.8326 126.379 12.9298H121.954C122.012 13.505 122.222 13.95 122.584 14.2648C122.945 14.5757 123.386 14.7311 123.907 14.7311C124.568 14.7311 125.151 14.4999 125.656 14.0374L126.122 14.632C125.52 15.2072 124.764 15.4948 123.854 15.4948C123.034 15.4948 122.364 15.2305 121.843 14.702C121.322 14.1695 121.062 13.4778 121.062 12.6266C121.062 11.7872 121.321 11.0993 121.837 10.563C122.354 10.0228 123.009 9.75266 123.802 9.75266ZM123.784 10.528C123.287 10.528 122.877 10.6835 122.554 10.9944C122.232 11.3053 122.036 11.7153 121.966 12.2244H125.51C125.456 11.7075 125.271 11.2956 124.956 10.9885C124.645 10.6815 124.255 10.528 123.784 10.528Z" fill="#231F20"/>
<g clip-path="url(#clip1_214_15153)">
<path d="M110.358 18.384L32.6299 18.384V83.481H110.358V18.384Z" fill="white"/>
<path d="M63.5264 50.7383H81.0151" stroke="#231F20" stroke-width="0.971596"/>
<path d="M65.082 48.115H79.5588" stroke="#231F20" stroke-width="0.971596"/>
<path d="M63.526 50.7382L59.6396 43.937" stroke="#231F20" stroke-width="0.971596"/>
<path d="M59.6408 43.9372L55.6572 37.136" stroke="#216C21" stroke-width="0.971596"/>
<path d="M63.526 50.7383L59.6396 57.5395" stroke="#231F20" stroke-width="0.971596"/>
<path d="M59.6408 57.5393L55.6572 64.3405" stroke="#216C21" stroke-width="0.971596"/>
<path d="M81.0156 50.7383L84.5134 56.8593" stroke="#231F20" stroke-width="0.971596"/>
<path d="M84.5137 56.8594L88.1086 62.9804" stroke="#216C21" stroke-width="0.971596"/>
<path d="M81.0156 50.738L84.4162 44.8113" stroke="#231F20" stroke-width="0.971596"/>
<path d="M84.416 44.8115L87.9138 38.8848" stroke="#216C21" stroke-width="0.971596"/>
<path d="M50.1182 35.7757C50.1182 34.9336 50.3125 34.3183 50.7011 33.9296C51.0898 33.4762 51.6727 33.2495 52.45 33.2495C53.0977 33.2495 53.6159 33.4762 54.0045 33.9296L53.5187 34.3183C53.2597 33.9944 52.9034 33.8325 52.45 33.8325C51.9318 33.8325 51.5432 33.9944 51.2841 34.3183C51.025 34.6421 50.8954 35.1279 50.8954 35.7757C50.8954 36.4234 51.025 36.9092 51.2841 37.2331C51.5432 37.6217 51.9318 37.816 52.45 37.816C52.8386 37.816 53.2597 37.6865 53.7131 37.4274L53.9074 38.0103C53.7131 38.0751 53.4864 38.1399 53.2273 38.2046C52.9682 38.2694 52.6767 38.3018 52.3528 38.3018C51.6403 38.3018 51.0898 38.0751 50.7011 37.6217C50.3125 37.2331 50.1182 36.6177 50.1182 35.7757Z" fill="#216C21"/>
<path d="M54.4912 32.958H55.0742V38.3018H54.4912V32.958Z" fill="#216C21"/>
<path d="M50.1182 66.0894C50.1182 65.2473 50.3125 64.632 50.7011 64.2434C51.0898 63.7899 51.6727 63.5632 52.45 63.5632C53.0977 63.5632 53.6159 63.7899 54.0045 64.2434L53.5187 64.632C53.2597 64.3081 52.9034 64.1462 52.45 64.1462C51.9318 64.1462 51.5432 64.3081 51.2841 64.632C51.025 64.9559 50.8954 65.4416 50.8954 66.0894C50.8954 66.7371 51.025 67.2229 51.2841 67.5468C51.5432 67.8706 51.9318 68.0326 52.45 68.0326C52.8386 68.0326 53.2597 67.9354 53.7131 67.7411L53.9074 68.2269C53.7131 68.3564 53.4864 68.4536 53.2273 68.5184C52.9682 68.5831 52.6767 68.6155 52.3528 68.6155C51.6403 68.6155 51.0898 68.3888 50.7011 67.9354C50.3125 67.482 50.1182 66.8667 50.1182 66.0894Z" fill="#216C21"/>
<path d="M54.4912 63.2717H55.0742V68.5183H54.4912V63.2717Z" fill="#216C21"/>
<path d="M87.9141 66.0894C87.9141 65.2473 88.076 64.632 88.3999 64.2434C88.7885 63.7899 89.3715 63.5632 90.1487 63.5632C90.7965 63.5632 91.3146 63.7899 91.7033 64.2434L91.2175 64.632C90.9584 64.3081 90.6021 64.1462 90.1487 64.1462C89.6305 64.1462 89.2419 64.3081 88.9828 64.632C88.7237 64.9559 88.5942 65.4416 88.5942 66.0894C88.5942 66.7371 88.7237 67.2229 88.9828 67.5468C89.2419 67.8706 89.6305 68.0326 90.1487 68.0326C90.5374 68.0326 90.9584 67.9354 91.4118 67.7411L91.6061 68.2269C91.4118 68.3564 91.1851 68.4536 90.926 68.5184C90.6669 68.5831 90.3754 68.6155 90.0516 68.6155C89.3391 68.6155 88.7885 68.3888 88.3999 67.9354C88.076 67.482 87.9141 66.8667 87.9141 66.0894Z" fill="#216C21"/>
<path d="M92.1885 63.2717H92.8686V68.5183H92.1885V63.2717Z" fill="#216C21"/>
<path d="M87.9141 35.7757C87.9141 34.9336 88.076 34.3183 88.3999 33.9296C88.7885 33.4762 89.3715 33.2495 90.1487 33.2495C90.7965 33.2495 91.3146 33.4762 91.7033 33.9296L91.2175 34.3183C90.9584 33.9944 90.6021 33.8325 90.1487 33.8325C89.6305 33.8325 89.2419 33.9944 88.9828 34.3183C88.7237 34.6421 88.5942 35.1279 88.5942 35.7757C88.5942 36.4234 88.7237 36.9092 88.9828 37.2331C89.2419 37.6217 89.6305 37.816 90.1487 37.816C90.5374 37.816 90.9584 37.6865 91.4118 37.4274L91.6061 38.0103C91.4118 38.0751 91.1851 38.1399 90.926 38.2046C90.6669 38.2694 90.3754 38.3018 90.0516 38.3018C89.3391 38.3018 88.7885 38.0751 88.3999 37.6217C88.076 37.2331 87.9141 36.6177 87.9141 35.7757Z" fill="#216C21"/>
<path d="M92.1885 32.958H92.8686V38.3018H92.1885V32.958Z" fill="#216C21"/>
</g>
<path d="M0.494141 83.481H26.4409V95.6065H12.6197C5.92293 95.6065 0.494141 90.1777 0.494141 83.481V83.481Z" fill="white"/>
<rect x="26.4414" y="83.481" width="90.1064" height="12.1255" fill="white"/>
<path d="M116.547 83.481H142.494V83.481C142.494 90.1777 137.065 95.6065 130.368 95.6065H116.547V83.481Z" fill="white"/>
</g>
<rect x="1.24391" y="1.18165" width="140.5" height="84.5005" rx="3.13661" stroke="white" stroke-width="1.49954"/>
<defs>
<clipPath id="clip0_214_15153">
<rect x="0.494141" y="0.431885" width="142" height="86" rx="3.88638" fill="white"/>
</clipPath>
<clipPath id="clip1_214_15153">
<rect width="77.7277" height="65.0969" fill="white" transform="translate(32.6299 18.384)"/>
</clipPath>
</defs>
</svg>
