<svg width="145" height="88" viewBox="0 0 145 88" fill="none" xmlns="http://www.w3.org/2000/svg">
<g clip-path="url(#clip0_214_14050)">
<rect x="0.431641" y="0.431885" width="144" height="87" rx="3.88638" fill="white"/>
<path d="M0.431641 12.5587C0.431641 5.86123 5.86099 0.431885 12.5584 0.431885L26.3784 0.431885V12.5587H0.431641V12.5587Z" fill="white"/>
<rect x="26.3789" y="0.431885" width="92.1064" height="12.1268" fill="white"/>
<path d="M118.484 0.431885L132.304 0.431885C139.002 0.431885 144.431 5.86123 144.431 12.5587V12.5587L118.484 12.5587V0.431885Z" fill="white"/>
<rect width="144" height="15" transform="translate(0.431641 12.5587)" fill="white"/>
<path d="M54.3518 16.2807C55.1524 16.2807 55.8733 16.4595 56.5146 16.817C57.1558 17.1707 57.6572 17.6682 58.0186 18.3094C58.3839 18.9507 58.5666 19.6735 58.5666 20.478C58.5666 21.2825 58.3839 22.0054 58.0186 22.6466C57.6572 23.2879 57.1558 23.7873 56.5146 24.1448C55.8733 24.4985 55.1524 24.6753 54.3518 24.6753C53.7533 24.6753 53.1937 24.5704 52.6729 24.3605C52.1521 24.1506 51.7052 23.8631 51.3321 23.4977C50.9629 23.1285 50.6714 22.6835 50.4576 22.1628C50.2439 21.642 50.137 21.0804 50.137 20.478C50.137 19.8756 50.2439 19.314 50.4576 18.7933C50.6714 18.2725 50.9629 17.8294 51.3321 17.4641C51.7052 17.0949 52.1521 16.8054 52.6729 16.5955C53.1937 16.3857 53.7533 16.2807 54.3518 16.2807ZM54.3518 17.1843C53.8971 17.1843 53.4715 17.2659 53.0751 17.4291C52.6787 17.5885 52.3367 17.81 52.0491 18.0937C51.7615 18.3774 51.5342 18.7253 51.3671 19.1372C51.2038 19.5492 51.1222 19.9961 51.1222 20.478C51.1222 20.9599 51.2038 21.4069 51.3671 21.8188C51.5342 22.2308 51.7615 22.5786 52.0491 22.8623C52.3367 23.146 52.6787 23.3695 53.0751 23.5327C53.4715 23.6921 53.8971 23.7717 54.3518 23.7717C54.962 23.7717 55.5119 23.6357 56.0016 23.3637C56.4913 23.0916 56.878 22.703 57.1617 22.1977C57.4454 21.6925 57.5872 21.1193 57.5872 20.478C57.5872 19.8368 57.4454 19.2635 57.1617 18.7583C56.878 18.2531 56.4913 17.8644 56.0016 17.5924C55.5119 17.3203 54.962 17.1843 54.3518 17.1843ZM62.7601 18.9273C63.1721 18.9273 63.5549 19.0031 63.9086 19.1547C64.2622 19.3024 64.5615 19.5161 64.8063 19.796L64.2467 20.3847C63.8075 19.9572 63.3042 19.7435 62.7368 19.7435C62.1811 19.7435 61.7167 19.9378 61.3436 20.3264C60.9744 20.7151 60.7897 21.2048 60.7897 21.7955C60.7897 22.3901 60.9744 22.8817 61.3436 23.2704C61.7167 23.659 62.1811 23.8533 62.7368 23.8533C63.312 23.8533 63.8211 23.6376 64.2642 23.2063L64.8063 23.8009C64.5576 24.0807 64.2564 24.2964 63.9027 24.448C63.5491 24.5956 63.1682 24.6695 62.7601 24.6695C61.9207 24.6695 61.2347 24.3974 60.7023 23.8533C60.1699 23.3092 59.9037 22.6233 59.9037 21.7955C59.9037 20.9716 60.1699 20.2876 60.7023 19.7435C61.2347 19.1994 61.9207 18.9273 62.7601 18.9273ZM70.1177 19.0381V19.8251H67.7334V22.6116C67.7334 23.0275 67.8325 23.3384 68.0307 23.5444C68.2289 23.7503 68.4951 23.8533 68.8294 23.8533C69.2452 23.8533 69.6319 23.7231 69.9895 23.4628L70.3975 24.1215C69.9156 24.4868 69.3696 24.6695 68.7594 24.6695C68.1531 24.6695 67.6848 24.5004 67.3545 24.1623C67.028 23.8203 66.8648 23.3092 66.8648 22.6291V19.8251H65.6581V19.0381H66.8648V17.2834H67.7334V19.0381H70.1177ZM76.8529 19.0381V24.5587H75.9843V23.7367C75.5024 24.3586 74.83 24.6695 73.9672 24.6695C73.1861 24.6695 72.5312 24.3974 72.0027 23.8533C71.4741 23.3054 71.2098 22.6194 71.2098 21.7955C71.2098 20.9716 71.4741 20.2876 72.0027 19.7435C72.5312 19.1994 73.1861 18.9273 73.9672 18.9273C74.8261 18.9273 75.4985 19.2383 75.9843 19.8601V19.0381H76.8529ZM74.0722 19.7435C73.4892 19.7435 73.0131 19.9417 72.6439 20.3381C72.2786 20.7306 72.0959 21.2164 72.0959 21.7955C72.0959 22.3746 72.2805 22.8623 72.6497 23.2587C73.019 23.6551 73.4931 23.8533 74.0722 23.8533C74.6435 23.8533 75.1137 23.659 75.4829 23.2704C75.8521 22.8779 76.0367 22.3862 76.0367 21.7955C76.0367 21.2087 75.8521 20.7209 75.4829 20.3323C75.1137 19.9397 74.6435 19.7435 74.0722 19.7435ZM81.6162 18.9273C82.3002 18.9273 82.854 19.1294 83.2776 19.5336C83.7051 19.9378 83.9189 20.4722 83.9189 21.1368V24.5587H83.0503V21.4224C83.0503 20.8977 82.9103 20.4897 82.6305 20.1982C82.3546 19.9028 81.964 19.7551 81.4588 19.7551C80.9808 19.7551 80.5785 19.9106 80.2521 20.2215C79.9295 20.5285 79.7682 20.9366 79.7682 21.4457V24.5587H78.8938V19.0381H79.7565V19.8251C79.9664 19.5142 80.2365 19.2868 80.5669 19.143C80.8972 18.9992 81.247 18.9273 81.6162 18.9273ZM91.1194 19.0381V24.5587H90.2508V23.7367C89.7689 24.3586 89.0965 24.6695 88.2338 24.6695C87.4526 24.6695 86.7977 24.3974 86.2692 23.8533C85.7406 23.3054 85.4764 22.6194 85.4764 21.7955C85.4764 20.9716 85.7406 20.2876 86.2692 19.7435C86.7977 19.1994 87.4526 18.9273 88.2338 18.9273C89.0926 18.9273 89.765 19.2383 90.2508 19.8601V19.0381H91.1194ZM88.3387 19.7435C87.7557 19.7435 87.2796 19.9417 86.9104 20.3381C86.5451 20.7306 86.3625 21.2164 86.3625 21.7955C86.3625 22.3746 86.5471 22.8623 86.9163 23.2587C87.2855 23.6551 87.7596 23.8533 88.3387 23.8533C88.91 23.8533 89.3802 23.659 89.7494 23.2704C90.1186 22.8779 90.3033 22.3862 90.3033 21.7955C90.3033 21.2087 90.1186 20.7209 89.7494 20.3323C89.3802 19.9397 88.91 19.7435 88.3387 19.7435ZM94.0347 16.1641V24.5587H93.1603V16.1641H94.0347Z" fill="#231F20"/>
<path d="M0.431641 27.5587H26.3784V39.6842H12.5572C5.86043 39.6842 0.431641 34.2555 0.431641 27.5587V27.5587Z" fill="white"/>
<rect x="26.3789" y="27.5587" width="92.1064" height="12.1255" fill="white"/>
<path d="M118.484 27.5587L144.431 27.5587V27.5587C144.431 34.2555 139.002 39.6842 132.306 39.6842H118.484V27.5587Z" fill="white"/>
<g clip-path="url(#clip1_214_14050)">
<path d="M184.651 39.6842L-39.7881 39.6842V62.0309L184.651 62.0309V39.6842Z" fill="white"/>
<path d="M10.6377 52.995L25.7946 44.2506" stroke="#231F20" stroke-width="0.971596"/>
<path d="M25.7949 44.2506L40.8547 52.995" stroke="#231F20" stroke-width="0.971596"/>
<path d="M40.8545 52.995L56.0114 44.2506" stroke="#231F20" stroke-width="0.971596"/>
<path d="M56.0107 44.2506L71.1676 52.995" stroke="#231F20" stroke-width="0.971596"/>
<path d="M71.168 52.995L86.3249 44.2506" stroke="#231F20" stroke-width="0.971596"/>
<path d="M86.3252 44.2506L101.482 52.995" stroke="#231F20" stroke-width="0.971596"/>
<path d="M101.482 52.995L116.639 44.2506" stroke="#231F20" stroke-width="0.971596"/>
<path d="M116.639 44.2506L122.76 47.8455" stroke="#231F20" stroke-width="0.971596"/>
<path d="M122.76 47.8456L128.881 51.3433" stroke="#FF6A00" stroke-width="0.971596"/>
<path d="M116.639 47.3599L121.497 50.0803" stroke="#231F20" stroke-width="0.971596"/>
<path d="M121.497 50.0802L127.618 53.6751" stroke="#FF6A00" stroke-width="0.971596"/>
<path d="M25.0176 44.7364L25.7949 44.2506L26.475 44.7364" stroke="#231F20" stroke-width="0.971596"/>
<path d="M40.1738 52.6064L40.8539 52.9951L41.6312 52.6064" stroke="#231F20" stroke-width="0.971596"/>
<path d="M55.2334 44.7364L56.0107 44.2506L56.788 44.7364" stroke="#231F20" stroke-width="0.971596"/>
<path d="M70.3916 52.6064L71.1689 52.9951L71.9462 52.6064" stroke="#231F20" stroke-width="0.971596"/>
<path d="M85.5479 44.7364L86.3251 44.2506L87.1024 44.7364" stroke="#231F20" stroke-width="0.971596"/>
<path d="M100.704 52.6064L101.481 52.9951L102.259 52.6064" stroke="#231F20" stroke-width="0.971596"/>
<path d="M115.861 44.7364L116.639 44.2506L116.93 44.4449" stroke="#231F20" stroke-width="0.971596"/>
<path d="M128.881 54.161C128.881 53.3838 129.075 52.7684 129.464 52.315C129.852 51.8616 130.403 51.6349 131.116 51.6349C131.828 51.6349 132.379 51.8616 132.767 52.315C133.156 52.7684 133.35 53.3838 133.35 54.161C133.35 55.0031 133.156 55.6508 132.767 56.1042C132.379 56.5576 131.828 56.7843 131.116 56.7843C130.403 56.7843 129.852 56.5576 129.464 56.1042C129.075 55.6508 128.881 55.0031 128.881 54.161ZM131.116 56.2014C131.634 56.2014 132.022 56.0395 132.281 55.7156C132.541 55.327 132.67 54.8088 132.67 54.161C132.67 53.5133 132.541 53.0275 132.281 52.7036C132.022 52.3798 131.634 52.2178 131.116 52.2178C130.597 52.2178 130.209 52.3798 129.95 52.7036C129.691 53.0275 129.561 53.5133 129.561 54.161C129.561 54.8735 129.691 55.3917 129.95 55.7156C130.209 56.0395 130.597 56.2014 131.116 56.2014Z" fill="#FF6A00"/>
</g>
</g>
<rect x="1.18141" y="1.18165" width="142.5" height="85.5005" rx="3.13661" stroke="white" stroke-width="1.49954"/>
<defs>
<clipPath id="clip0_214_14050">
<rect x="0.431641" y="0.431885" width="144" height="87" rx="3.88638" fill="white"/>
</clipPath>
<clipPath id="clip1_214_14050">
<rect width="224.439" height="22.3467" fill="white" transform="translate(-39.7881 39.6842)"/>
</clipPath>
</defs>
</svg>
