<svg width="145" height="87" viewBox="0 0 145 87" fill="none" xmlns="http://www.w3.org/2000/svg">
<g clip-path="url(#clip0_214_15141)">
<rect x="0.806641" y="0.431885" width="144" height="86" rx="3.88638" fill="white"/>
<path d="M0.806641 8.72786C0.806641 2.03042 6.23599 -3.39893 12.9334 -3.39893L26.7534 -3.39893V8.72786L0.806641 8.72786V8.72786Z" fill="white"/>
<rect x="26.7539" y="-3.39893" width="92.1064" height="12.1268" fill="white"/>
<path d="M118.859 -3.39893L132.679 -3.39893C139.377 -3.39893 144.806 2.03042 144.806 8.72786V8.72786L118.859 8.72786V-3.39893Z" fill="white"/>
<rect width="144" height="15" transform="translate(0.806641 8.72778)" fill="white"/>
<path d="M36.4551 14.3386L35.8022 13.8139C36.4084 12.9123 37.2421 12.4614 38.303 12.4614C39.1114 12.4614 39.7468 12.6985 40.2093 13.1727C40.6757 13.6429 40.9089 14.2472 40.9089 14.9857C40.9089 15.4404 40.8078 15.8504 40.6057 16.2157C40.4075 16.581 40.1432 16.9405 39.8129 17.2942L37.3761 19.8708H41.177V20.7278H36.0412V20.0224L39.125 16.7695C39.6847 16.1827 39.9645 15.588 39.9645 14.9857C39.9645 14.4999 39.8148 14.1015 39.5156 13.7906C39.2163 13.4758 38.8024 13.3184 38.2739 13.3184C37.8503 13.3184 37.4966 13.4097 37.2129 13.5924C36.9331 13.775 36.6805 14.0238 36.4551 14.3386ZM45.7232 17.2475V18.0403H42.4819V17.2475H45.7232ZM48.6606 12.5664V16.1749H53.5983V12.5664H54.5369V20.7278H53.5983V17.061H48.6606V20.7278H47.7221V12.5664H48.6606ZM59.0505 15.0964C59.8006 15.0964 60.4185 15.3626 60.9043 15.8951C61.394 16.4275 61.6408 17.1115 61.6447 17.9471C61.6447 18.0676 61.6388 18.1764 61.6272 18.2735H57.2025C57.2608 18.8487 57.4707 19.2937 57.8321 19.6085C58.1936 19.9194 58.6347 20.0749 59.1554 20.0749C59.8161 20.0749 60.3991 19.8436 60.9043 19.3812L61.3707 19.9758C60.7683 20.551 60.0124 20.8385 59.103 20.8385C58.2829 20.8385 57.6125 20.5743 57.0918 20.0457C56.571 19.5133 56.3106 18.8215 56.3106 17.9704C56.3106 17.1309 56.569 16.443 57.0859 15.9067C57.6028 15.3665 58.2577 15.0964 59.0505 15.0964ZM59.033 15.8717C58.5356 15.8717 58.1255 16.0272 57.803 16.3381C57.4804 16.649 57.2841 17.059 57.2142 17.5682H60.7586C60.7042 17.0513 60.5196 16.6393 60.2048 16.3323C59.8938 16.0253 59.5033 15.8717 59.033 15.8717ZM66.1515 15.0964C66.9326 15.0964 67.5875 15.3685 68.116 15.9126C68.6446 16.4566 68.9089 17.1407 68.9089 17.9646C68.9089 18.7885 68.6446 19.4744 68.116 20.0224C67.5875 20.5665 66.9326 20.8385 66.1515 20.8385C65.2926 20.8385 64.6222 20.5296 64.1403 19.9116V23.0596H63.2658V15.2072H64.1403V16.0233C64.6222 15.4054 65.2926 15.0964 66.1515 15.0964ZM66.0465 15.9126C65.4752 15.9126 65.005 16.1088 64.6358 16.5013C64.2666 16.89 64.082 17.3777 64.082 17.9646C64.082 18.5553 64.2666 19.0469 64.6358 19.4394C65.005 19.8281 65.4752 20.0224 66.0465 20.0224C66.6295 20.0224 67.1036 19.8261 67.469 19.4336C67.8343 19.0372 68.0169 18.5475 68.0169 17.9646C68.0169 17.3855 67.8323 16.8997 67.4631 16.5072C67.0939 16.1108 66.6217 15.9126 66.0465 15.9126ZM74.2215 15.2072V15.9942H71.8372V18.7807C71.8372 19.1965 71.9363 19.5075 72.1345 19.7134C72.3327 19.9194 72.599 20.0224 72.9332 20.0224C73.349 20.0224 73.7357 19.8922 74.0933 19.6318L74.5013 20.2906C74.0194 20.6559 73.4734 20.8385 72.8632 20.8385C72.2569 20.8385 71.7886 20.6695 71.4583 20.3314C71.1318 19.9894 70.9686 19.4783 70.9686 18.7982V15.9942H69.7619V15.2072H70.9686V13.4525L71.8372 13.4525V15.2072H74.2215ZM80.9567 15.2072V20.7278H80.0881V19.9058C79.6062 20.5276 78.9338 20.8385 78.071 20.8385C77.2899 20.8385 76.635 20.5665 76.1065 20.0224C75.5779 19.4744 75.3136 18.7885 75.3136 17.9646C75.3136 17.1407 75.5779 16.4566 76.1065 15.9126C76.635 15.3685 77.2899 15.0964 78.071 15.0964C78.9299 15.0964 79.6023 15.4073 80.0881 16.0291V15.2072H80.9567ZM78.176 15.9126C77.593 15.9126 77.1169 16.1108 76.7477 16.5072C76.3824 16.8997 76.1997 17.3855 76.1997 17.9646C76.1997 18.5436 76.3843 19.0314 76.7536 19.4278C77.1228 19.8242 77.5969 20.0224 78.176 20.0224C78.7473 20.0224 79.2175 19.8281 79.5867 19.4394C79.9559 19.0469 80.1405 18.5553 80.1405 17.9646C80.1405 17.3777 79.9559 16.89 79.5867 16.5013C79.2175 16.1088 78.7473 15.9126 78.176 15.9126ZM85.72 15.0964C86.404 15.0964 86.9578 15.2985 87.3814 15.7027C87.8089 16.1069 88.0227 16.6413 88.0227 17.3058V20.7278H87.1541V17.5915C87.1541 17.0668 87.0142 16.6587 86.7343 16.3673C86.4584 16.0719 86.0678 15.9242 85.5626 15.9242C85.0846 15.9242 84.6823 16.0797 84.3559 16.3906C84.0333 16.6976 83.872 17.1057 83.872 17.6148V20.7278H82.9976V15.2072H83.8604V15.9942C84.0702 15.6833 84.3403 15.4559 84.6707 15.3121C85.001 15.1683 85.3508 15.0964 85.72 15.0964ZM92.4833 15.0964C93.315 15.0964 94.0068 15.3704 94.5586 15.9184C95.1144 16.4664 95.3923 17.1484 95.3923 17.9646C95.3923 18.7846 95.1144 19.4686 94.5586 20.0166C94.0068 20.5646 93.315 20.8385 92.4833 20.8385C91.6516 20.8385 90.9598 20.5646 90.408 20.0166C89.8561 19.4686 89.5802 18.7846 89.5802 17.9646C89.5802 17.1484 89.8561 16.4664 90.408 15.9184C90.9637 15.3704 91.6555 15.0964 92.4833 15.0964ZM93.9232 16.4955C93.5385 16.1069 93.0585 15.9126 92.4833 15.9126C91.9081 15.9126 91.4281 16.1069 91.0434 16.4955C90.6586 16.8841 90.4663 17.3738 90.4663 17.9646C90.4663 18.5592 90.6586 19.0508 91.0434 19.4394C91.4281 19.8281 91.9081 20.0224 92.4833 20.0224C93.0585 20.0224 93.5385 19.8281 93.9232 19.4394C94.308 19.0508 94.5003 18.5592 94.5003 17.9646C94.5003 17.3738 94.308 16.8841 93.9232 16.4955ZM99.736 15.0964C100.42 15.0964 100.974 15.2985 101.397 15.7027C101.825 16.1069 102.039 16.6413 102.039 17.3058V20.7278H101.17V17.5915C101.17 17.0668 101.03 16.6587 100.75 16.3673C100.474 16.0719 100.084 15.9242 99.5786 15.9242C99.1006 15.9242 98.6984 16.0797 98.3719 16.3906C98.0493 16.6976 97.888 17.1057 97.888 17.6148V20.7278H97.0136V15.2072H97.8764V15.9942C98.0862 15.6833 98.3564 15.4559 98.6867 15.3121C99.017 15.1683 99.3668 15.0964 99.736 15.0964ZM106.336 15.0964C107.086 15.0964 107.704 15.3626 108.19 15.8951C108.68 16.4275 108.926 17.1115 108.93 17.9471C108.93 18.0676 108.924 18.1764 108.913 18.2735L104.488 18.2735C104.546 18.8487 104.756 19.2937 105.118 19.6085C105.479 19.9194 105.92 20.0749 106.441 20.0749C107.102 20.0749 107.685 19.8436 108.19 19.3812L108.656 19.9758C108.054 20.551 107.298 20.8385 106.389 20.8385C105.569 20.8385 104.898 20.5743 104.377 20.0457C103.857 19.5133 103.596 18.8215 103.596 17.9704C103.596 17.1309 103.855 16.443 104.372 15.9067C104.888 15.3665 105.543 15.0964 106.336 15.0964ZM106.319 15.8717C105.821 15.8717 105.411 16.0272 105.089 16.3381C104.766 16.649 104.57 17.059 104.5 17.5682L108.044 17.5682C107.99 17.0513 107.805 16.6393 107.49 16.3323C107.179 16.0253 106.789 15.8717 106.319 15.8717Z" fill="#231F20"/>
<g clip-path="url(#clip1_214_15141)">
<path d="M155.392 23.7278L-9.7793 23.7278V78.1371H155.392V23.7278Z" fill="white"/>
<path d="M27.5303 57.6363L43.3673 50.3494" stroke="#231F20" stroke-width="0.971596"/>
<path d="M118.083 65.7006L103.801 55.6931" stroke="#231F20" stroke-width="0.971596"/>
<path d="M43.3672 50.3494L57.7468 60.3568" stroke="#231F20" stroke-width="0.971596"/>
<path d="M57.7471 60.357L73.5841 52.9729" stroke="#231F20" stroke-width="0.971596"/>
<path d="M73.583 52.9729L87.8655 63.0775" stroke="#231F20" stroke-width="0.971596"/>
<path d="M87.8662 63.0772L103.8 55.6931" stroke="#231F20" stroke-width="0.971596"/>
<path d="M104.966 56.5677L105.646 48.9893" stroke="#231F20" stroke-width="0.971596"/>
<path d="M105.646 48.9893L106.327 41.5081" stroke="#FF6A00" stroke-width="0.971596"/>
<path d="M102.343 56.2762L103.023 48.7949" stroke="#231F20" stroke-width="0.971596"/>
<path d="M103.022 48.795L103.703 41.3137" stroke="#FF6A00" stroke-width="0.971596"/>
<path d="M42.5898 50.6408L43.3671 50.3494L44.1444 50.8352" stroke="#231F20" stroke-width="0.971596"/>
<path d="M56.9697 59.8711L57.747 60.3569L58.5243 59.9683" stroke="#231F20" stroke-width="0.971596"/>
<path d="M72.8066 53.3615L73.5839 52.9729L74.264 53.4587" stroke="#231F20" stroke-width="0.971596"/>
<path d="M87.1855 62.4944L87.8657 63.0773L88.6429 62.6887" stroke="#231F20" stroke-width="0.971596"/>
<path d="M104.48 56.1789L103.8 55.6931L102.926 56.0818" stroke="#231F20" stroke-width="0.971596"/>
<path d="M103.022 38.3015C103.022 37.4595 103.217 36.8441 103.605 36.4555C103.994 36.0021 104.545 35.7754 105.257 35.7754C106.034 35.7754 106.617 36.0021 107.006 36.4555C107.395 36.8441 107.589 37.4595 107.589 38.3015C107.589 39.0788 107.395 39.6942 107.006 40.1476C106.617 40.601 106.034 40.8277 105.257 40.8277C104.545 40.8277 103.994 40.601 103.605 40.1476C103.217 39.6942 103.022 39.0788 103.022 38.3015ZM105.257 40.2447C105.775 40.2447 106.164 40.0828 106.423 39.7589C106.747 39.4351 106.909 38.9493 106.909 38.3015C106.909 37.6538 106.747 37.168 106.423 36.8441C106.164 36.5203 105.775 36.3583 105.257 36.3583C104.804 36.3583 104.415 36.5203 104.091 36.8441C103.832 37.168 103.703 37.6538 103.703 38.3015C103.703 38.9493 103.832 39.4351 104.091 39.7589C104.415 40.0828 104.804 40.2447 105.257 40.2447Z" fill="#FF6A00"/>
</g>
<path d="M0.806641 78.1372H26.7534V90.2627H12.9322C6.23543 90.2627 0.806641 84.8339 0.806641 78.1372V78.1372Z" fill="white"/>
<rect x="26.7539" y="78.1372" width="92.1064" height="12.1255" fill="white"/>
<path d="M118.859 78.1372H144.806V78.1372C144.806 84.8339 139.377 90.2627 132.681 90.2627H118.859V78.1372Z" fill="white"/>
</g>
<rect x="1.55641" y="1.18165" width="142.5" height="84.5005" rx="3.13661" stroke="white" stroke-width="1.49954"/>
<defs>
<clipPath id="clip0_214_15141">
<rect x="0.806641" y="0.431885" width="144" height="86" rx="3.88638" fill="white"/>
</clipPath>
<clipPath id="clip1_214_15141">
<rect width="165.171" height="54.4094" fill="white" transform="translate(-9.7793 23.7278)"/>
</clipPath>
</defs>
</svg>
