<svg width="145" height="87" viewBox="0 0 145 87" fill="none" xmlns="http://www.w3.org/2000/svg">
<g clip-path="url(#clip0_214_14313)">
<rect x="0.181641" y="0.431885" width="144" height="86" rx="3.88638" fill="white"/>
<rect width="144" height="30" transform="translate(0.181641 3.67493)" fill="white"/>
<path d="M25.8459 7.51352L28.9181 7.51352C30.2511 7.51352 31.3102 7.88273 32.0952 8.62114C32.8803 9.35955 33.2728 10.3506 33.2728 11.5942C33.2728 12.8379 32.8803 13.8289 32.0952 14.5673C31.3102 15.3057 30.2511 15.6749 28.9181 15.6749H25.8459V7.51352ZM28.9181 8.39962H26.7845V14.7888H28.9181C29.9985 14.7888 30.8302 14.5012 31.4131 13.9261C31.9961 13.3509 32.2876 12.5736 32.2876 11.5942C32.2876 10.611 31.9961 9.83369 31.4131 9.26239C30.8341 8.68721 30.0024 8.39962 28.9181 8.39962ZM35.8766 10.1543V15.6749H35.0022V10.1543H35.8766ZM35.4394 7.57765C35.6104 7.57765 35.7561 7.63788 35.8766 7.75836C35.9971 7.87495 36.0573 8.02069 36.0573 8.19558C36.0573 8.37047 35.9971 8.51621 35.8766 8.6328C35.76 8.74939 35.6143 8.80769 35.4394 8.80769C35.2645 8.80769 35.1187 8.74939 35.0022 8.6328C34.8856 8.51621 34.8273 8.37047 34.8273 8.19558C34.8273 8.02069 34.8856 7.87495 35.0022 7.75836C35.1187 7.63788 35.2645 7.57765 35.4394 7.57765ZM40.2371 10.0436C40.9872 10.0436 41.6051 10.3098 42.0909 10.8422C42.5806 11.3746 42.8274 12.0586 42.8313 12.8942C42.8313 13.0147 42.8254 13.1235 42.8138 13.2207H38.3891C38.4474 13.7959 38.6573 14.2409 39.0187 14.5556C39.3802 14.8666 39.8213 15.022 40.342 15.022C41.0027 15.022 41.5857 14.7908 42.0909 14.3283L42.5573 14.9229C41.9549 15.4981 41.199 15.7857 40.2896 15.7857C39.4696 15.7857 38.7992 15.5214 38.2784 14.9929C37.7576 14.4604 37.4972 13.7687 37.4972 12.9175C37.4972 12.0781 37.7557 11.3902 38.2725 10.8539C38.7894 10.3137 39.4443 10.0436 40.2371 10.0436ZM40.2196 10.8189C39.7222 10.8189 39.3122 10.9743 38.9896 11.2853C38.667 11.5962 38.4708 12.0062 38.4008 12.5153H41.9452C41.8908 11.9984 41.7062 11.5865 41.3914 11.2794C41.0805 10.9724 40.6899 10.8189 40.2196 10.8189ZM48.1439 10.1543V10.9413H45.7596V13.7278C45.7596 14.1437 45.8587 14.4546 46.0569 14.6606C46.2551 14.8666 46.5214 14.9695 46.8556 14.9695C47.2714 14.9695 47.6581 14.8394 48.0157 14.579L48.4238 15.2377C47.9418 15.603 47.3958 15.7857 46.7856 15.7857C46.1794 15.7857 45.7111 15.6166 45.3807 15.2785C45.0543 14.9365 44.891 14.4255 44.891 13.7453V10.9413H43.6843V10.1543H44.891V8.39962H45.7596V10.1543H48.1439ZM50.553 7.28034V10.9238C50.7668 10.6207 51.0369 10.3992 51.3633 10.2593C51.6898 10.1155 52.0357 10.0436 52.401 10.0436C53.085 10.0436 53.6388 10.2456 54.0624 10.6498C54.4899 11.054 54.7037 11.5884 54.7037 12.253V15.6749H53.8351V12.5386C53.8351 12.014 53.6951 11.6059 53.4153 11.3144C53.1394 11.019 52.7488 10.8714 52.2436 10.8714C51.7656 10.8714 51.3633 11.0268 51.0369 11.3377C50.7143 11.6447 50.553 12.0528 50.553 12.5619V15.6749H49.6786V7.28034H50.553ZM61.5582 10.1543L57.0636 18.0301H56.1018L58.1596 14.4799L55.6237 10.1543H56.5973L58.6551 13.6171L60.6022 10.1543H61.5582ZM63.5443 7.28034V15.6749H62.6699V7.28034H63.5443ZM67.9048 10.0436C68.6549 10.0436 69.2728 10.3098 69.7586 10.8422C70.2483 11.3746 70.4951 12.0586 70.499 12.8942C70.499 13.0147 70.4932 13.1235 70.4815 13.2207L66.0569 13.2207C66.1151 13.7959 66.325 14.2409 66.6864 14.5556C67.0479 14.8666 67.489 15.022 68.0098 15.022C68.6704 15.022 69.2534 14.7908 69.7586 14.3283L70.225 14.9229C69.6226 15.4981 68.8667 15.7857 67.9573 15.7857C67.1373 15.7857 66.4669 15.5214 65.9461 14.9929C65.4253 14.4604 65.1649 13.7687 65.1649 12.9175C65.1649 12.0781 65.4234 11.3902 65.9403 10.8539C66.4571 10.3137 67.112 10.0436 67.9048 10.0436ZM67.8873 10.8189C67.3899 10.8189 66.9799 10.9743 66.6573 11.2853C66.3347 11.5962 66.1385 12.0062 66.0685 12.5153L69.6129 12.5153C69.5585 11.9984 69.3739 11.5865 69.0591 11.2794C68.7482 10.9724 68.3576 10.8189 67.8873 10.8189ZM74.8426 10.0436C75.5266 10.0436 76.0804 10.2456 76.504 10.6498C76.9315 11.054 77.1453 11.5884 77.1453 12.253V15.6749H76.2766V12.5386C76.2766 12.014 76.1367 11.6059 75.8569 11.3144C75.581 11.019 75.1904 10.8714 74.6852 10.8714C74.2071 10.8714 73.8049 11.0268 73.4785 11.3377C73.1559 11.6447 72.9946 12.0528 72.9946 12.5619V15.6749H72.1202V10.1543H72.9829V10.9413C73.1928 10.6304 73.4629 10.403 73.7932 10.2593C74.1236 10.1155 74.4734 10.0436 74.8426 10.0436ZM81.4426 10.0436C82.1927 10.0436 82.8107 10.3098 83.2965 10.8422C83.7861 11.3746 84.0329 12.0586 84.0368 12.8942C84.0368 13.0147 84.031 13.1235 84.0193 13.2207H79.5947C79.653 13.7959 79.8628 14.2409 80.2243 14.5556C80.5857 14.8666 81.0268 15.022 81.5476 15.022C82.2083 15.022 82.7912 14.7908 83.2965 14.3283L83.7628 14.9229C83.1604 15.4981 82.4045 15.7857 81.4951 15.7857C80.6751 15.7857 80.0047 15.5214 79.4839 14.9929C78.9631 14.4604 78.7027 13.7687 78.7027 12.9175C78.7027 12.0781 78.9612 11.3902 79.4781 10.8539C79.995 10.3137 80.6498 10.0436 81.4426 10.0436ZM81.4252 10.8189C80.9277 10.8189 80.5177 10.9743 80.1951 11.2853C79.8726 11.5962 79.6763 12.0062 79.6063 12.5153H83.1507C83.0963 11.9984 82.9117 11.5865 82.5969 11.2794C82.286 10.9724 81.8954 10.8189 81.4252 10.8189ZM91.0807 10.0436C91.9357 10.0436 92.5925 10.3564 93.0511 10.9821V10.1543H93.9255V15.296C93.9255 16.1782 93.6573 16.8642 93.121 17.3538C92.5847 17.8474 91.8793 18.0942 91.0049 18.0942C90.5618 18.0942 90.1324 18.0281 89.7166 17.896C89.3046 17.7677 88.9587 17.587 88.6789 17.3538L89.0636 16.6543C89.6349 17.0857 90.282 17.3014 91.0049 17.3014C91.6189 17.3014 92.1125 17.1304 92.4856 16.7884C92.8626 16.4464 93.0511 15.9606 93.0511 15.331V14.7655C92.5964 15.3912 91.9396 15.7041 91.0807 15.7041C90.2995 15.7041 89.6485 15.4398 89.1278 14.9113C88.607 14.3788 88.3466 13.6987 88.3466 12.8709C88.3466 12.0431 88.607 11.3649 89.1278 10.8364C89.6485 10.3078 90.2995 10.0436 91.0807 10.0436ZM91.1798 10.8597C90.6046 10.8597 90.1363 11.054 89.7748 11.4427C89.4134 11.8274 89.2327 12.3035 89.2327 12.8709C89.2327 13.4422 89.4134 13.9222 89.7748 14.3108C90.1363 14.6956 90.6046 14.8879 91.1798 14.8879C91.7433 14.8879 92.2077 14.6975 92.573 14.3166C92.9423 13.9319 93.1269 13.45 93.1269 12.8709C93.1269 12.2996 92.9423 11.8216 92.573 11.4368C92.2077 11.0521 91.7433 10.8597 91.1798 10.8597ZM96.8366 7.28034V15.6749H95.9622V7.28034H96.8366ZM103.914 10.1543L99.4192 18.0301H98.4573L100.515 14.4799L97.9792 10.1543H98.9528L101.011 13.6171L102.958 10.1543H103.914ZM107.36 10.0436C107.772 10.0436 108.154 10.1193 108.508 10.2709C108.862 10.4186 109.161 10.6323 109.406 10.9122L108.846 11.501C108.407 11.0734 107.904 10.8597 107.336 10.8597C106.781 10.8597 106.316 11.054 105.943 11.4427C105.574 11.8313 105.389 12.321 105.389 12.9117C105.389 13.5063 105.574 13.998 105.943 14.3866C106.316 14.7752 106.781 14.9695 107.336 14.9695C107.912 14.9695 108.421 14.7539 108.864 14.3225L109.406 14.9171C109.157 15.1969 108.856 15.4126 108.502 15.5642C108.149 15.7118 107.768 15.7857 107.36 15.7857C106.52 15.7857 105.834 15.5136 105.302 14.9695C104.769 14.4255 104.503 13.7395 104.503 12.9117C104.503 12.0878 104.769 11.4038 105.302 10.8597C105.834 10.3156 106.52 10.0436 107.36 10.0436ZM113.27 10.0436C114.102 10.0436 114.794 10.3175 115.345 10.8655C115.901 11.4135 116.179 12.0956 116.179 12.9117C116.179 13.7317 115.901 14.4157 115.345 14.9637C114.794 15.5117 114.102 15.7857 113.27 15.7857C112.438 15.7857 111.747 15.5117 111.195 14.9637C110.643 14.4157 110.367 13.7317 110.367 12.9117C110.367 12.0956 110.643 11.4135 111.195 10.8655C111.75 10.3175 112.442 10.0436 113.27 10.0436ZM114.71 11.4427C114.325 11.054 113.845 10.8597 113.27 10.8597C112.695 10.8597 112.215 11.054 111.83 11.4427C111.445 11.8313 111.253 12.321 111.253 12.9117C111.253 13.5063 111.445 13.998 111.83 14.3866C112.215 14.7752 112.695 14.9695 113.27 14.9695C113.845 14.9695 114.325 14.7752 114.71 14.3866C115.095 13.998 115.287 13.5063 115.287 12.9117C115.287 12.321 115.095 11.8313 114.71 11.4427ZM118.675 7.28034V15.6749H117.8V7.28034H118.675ZM33.5237 25.0436C34.2116 25.0436 34.7673 25.2456 35.1909 25.6498C35.6184 26.054 35.8322 26.5884 35.8322 27.253V30.6749H34.9636V27.5386C34.9636 27.014 34.8237 26.6059 34.5439 26.3144C34.264 26.019 33.8715 25.8714 33.3663 25.8714C32.8883 25.8714 32.486 26.0268 32.1596 26.3377C31.837 26.6447 31.6757 27.0528 31.6757 27.5619V30.6749H30.8071V27.5386C30.8071 27.014 30.6672 26.6059 30.3874 26.3144C30.1114 26.019 29.7209 25.8714 29.2156 25.8714C28.7376 25.8714 28.3354 26.0268 28.0089 26.3377C27.6863 26.6447 27.525 27.0528 27.525 27.5619V30.6749H26.6506V25.1543H27.5134V25.9413C27.7232 25.6304 27.9934 25.403 28.3237 25.2593C28.654 25.1155 29.0038 25.0436 29.373 25.0436C29.851 25.0436 30.2708 25.1465 30.6322 25.3525C30.9936 25.5546 31.2637 25.8383 31.4425 26.2036C31.6485 25.8033 31.938 25.5099 32.3111 25.3234C32.6881 25.1368 33.0923 25.0436 33.5237 25.0436ZM40.2922 25.0436C41.1239 25.0436 41.8156 25.3175 42.3675 25.8655C42.9233 26.4135 43.2011 27.0956 43.2011 27.9117C43.2011 28.7317 42.9233 29.4157 42.3675 29.9637C41.8156 30.5117 41.1239 30.7857 40.2922 30.7857C39.4605 30.7857 38.7687 30.5117 38.2169 29.9637C37.665 29.4157 37.3891 28.7317 37.3891 27.9117C37.3891 27.0956 37.665 26.4135 38.2169 25.8655C38.7726 25.3175 39.4644 25.0436 40.2922 25.0436ZM41.7321 26.4427C41.3473 26.054 40.8674 25.8597 40.2922 25.8597C39.717 25.8597 39.237 26.054 38.8523 26.4427C38.4675 26.8313 38.2751 27.321 38.2751 27.9117C38.2751 28.5063 38.4675 28.998 38.8523 29.3866C39.237 29.7752 39.717 29.9695 40.2922 29.9695C40.8674 29.9695 41.3473 29.7752 41.7321 29.3866C42.1168 28.998 42.3092 28.5063 42.3092 27.9117C42.3092 27.321 42.1168 26.8313 41.7321 26.4427ZM47.5449 25.0436C48.2289 25.0436 48.7827 25.2456 49.2063 25.6498C49.6338 26.054 49.8476 26.5884 49.8476 27.253V30.6749H48.979V27.5386C48.979 27.014 48.8391 26.6059 48.5592 26.3144C48.2833 26.019 47.8927 25.8714 47.3875 25.8714C46.9095 25.8714 46.5072 26.0268 46.1808 26.3377C45.8582 26.6447 45.6969 27.0528 45.6969 27.5619V30.6749H44.8225V25.1543H45.6853V25.9413C45.8951 25.6304 46.1652 25.403 46.4956 25.2593C46.8259 25.1155 47.1757 25.0436 47.5449 25.0436ZM54.3082 25.0436C55.1399 25.0436 55.8317 25.3175 56.3835 25.8655C56.9393 26.4135 57.2172 27.0956 57.2172 27.9117C57.2172 28.7317 56.9393 29.4157 56.3835 29.9637C55.8317 30.5117 55.1399 30.7857 54.3082 30.7857C53.4765 30.7857 52.7847 30.5117 52.2329 29.9637C51.681 29.4157 51.4051 28.7317 51.4051 27.9117C51.4051 27.0956 51.681 26.4135 52.2329 25.8655C52.7886 25.3175 53.4804 25.0436 54.3082 25.0436ZM55.7481 26.4427C55.3634 26.054 54.8834 25.8597 54.3082 25.8597C53.733 25.8597 53.2531 26.054 52.8683 26.4427C52.4836 26.8313 52.2912 27.321 52.2912 27.9117C52.2912 28.5063 52.4836 28.998 52.8683 29.3866C53.2531 29.7752 53.733 29.9695 54.3082 29.9695C54.8834 29.9695 55.3634 29.7752 55.7481 29.3866C56.1329 28.998 56.3252 28.5063 56.3252 27.9117C56.3252 27.321 56.1329 26.8313 55.7481 26.4427ZM61.1587 25.0436C61.9088 25.0436 62.5267 25.3098 63.0125 25.8422C63.5022 26.3746 63.749 27.0586 63.7529 27.8942C63.7529 28.0147 63.747 28.1235 63.7354 28.2207H59.3107C59.369 28.7959 59.5789 29.2409 59.9403 29.5556C60.3017 29.8666 60.7428 30.022 61.2636 30.022C61.9243 30.022 62.5073 29.7908 63.0125 29.3283L63.4789 29.9229C62.8765 30.4981 62.1206 30.7857 61.2112 30.7857C60.3911 30.7857 59.7207 30.5214 59.2 29.9929C58.6792 29.4604 58.4188 28.7687 58.4188 27.9175C58.4188 27.0781 58.6772 26.3902 59.1941 25.8539C59.711 25.3137 60.3659 25.0436 61.1587 25.0436ZM61.1412 25.8189C60.6437 25.8189 60.2337 25.9743 59.9112 26.2853C59.5886 26.5962 59.3923 27.0062 59.3224 27.5153H62.8668C62.8123 26.9984 62.6277 26.5865 62.3129 26.2794C62.002 25.9724 61.6115 25.8189 61.1412 25.8189ZM69.0655 25.1543V25.9413H66.6812V28.7278C66.6812 29.1437 66.7803 29.4546 66.9785 29.6606C67.1767 29.8666 67.4429 29.9695 67.7772 29.9695C68.193 29.9695 68.5797 29.8394 68.9373 29.579L69.3453 30.2377C68.8634 30.603 68.3174 30.7857 67.7072 30.7857C67.1009 30.7857 66.6326 30.6166 66.3023 30.2785C65.9758 29.9365 65.8126 29.4255 65.8126 28.7453V25.9413H64.6059V25.1543H65.8126V23.3996H66.6812V25.1543H69.0655ZM71.4746 22.2803V25.9238C71.6883 25.6207 71.9584 25.3992 72.2849 25.2593C72.6114 25.1155 72.9572 25.0436 73.3226 25.0436C74.0066 25.0436 74.5604 25.2456 74.984 25.6498C75.4115 26.054 75.6252 26.5884 75.6252 27.253V30.6749H74.7566V27.5386C74.7566 27.014 74.6167 26.6059 74.3369 26.3144C74.061 26.019 73.6704 25.8714 73.1652 25.8714C72.6871 25.8714 72.2849 26.0268 71.9584 26.3377C71.6359 26.6447 71.4746 27.0528 71.4746 27.5619V30.6749H70.6001V22.2803H71.4746ZM82.4798 25.1543L77.9852 33.0301H77.0233L79.0812 29.4799L76.5453 25.1543H77.5188L79.5767 28.6171L81.5238 25.1543H82.4798ZM84.4659 22.2803V30.6749H83.5914V22.2803H84.4659ZM91.9348 25.0436C92.6848 25.0436 93.3028 25.3098 93.7886 25.8422C94.2782 26.3746 94.525 27.0586 94.5289 27.8942C94.5289 28.0147 94.5231 28.1235 94.5114 28.2207H90.0868C90.1451 28.7959 90.3549 29.2409 90.7164 29.5556C91.0778 29.8666 91.5189 30.022 92.0397 30.022C92.7004 30.022 93.2833 29.7908 93.7886 29.3283L94.2549 29.9229C93.6525 30.4981 92.8966 30.7857 91.9872 30.7857C91.1672 30.7857 90.4968 30.5214 89.976 29.9929C89.4552 29.4604 89.1949 28.7687 89.1949 27.9175C89.1949 27.0781 89.4533 26.3902 89.9702 25.8539C90.4871 25.3137 91.1419 25.0436 91.9348 25.0436ZM91.9173 25.8189C91.4198 25.8189 91.0098 25.9743 90.6872 26.2853C90.3647 26.5962 90.1684 27.0062 90.0984 27.5153H93.6428C93.5884 26.9984 93.4038 26.5865 93.089 26.2794C92.7781 25.9724 92.3875 25.8189 91.9173 25.8189ZM99.8416 25.1543V25.9413L97.4573 25.9413V28.7278C97.4573 29.1437 97.5564 29.4546 97.7546 29.6606C97.9528 29.8666 98.219 29.9695 98.5532 29.9695C98.9691 29.9695 99.3558 29.8394 99.7133 29.579L100.121 30.2377C99.6395 30.603 99.0934 30.7857 98.4833 30.7857C97.877 30.7857 97.4087 30.6166 97.0783 30.2785C96.7519 29.9365 96.5887 29.4255 96.5887 28.7453V25.9413H95.3819V25.1543H96.5887V23.3996H97.4573V25.1543L99.8416 25.1543ZM102.251 22.2803V25.9238C102.464 25.6207 102.734 25.3992 103.061 25.2593C103.387 25.1155 103.733 25.0436 104.099 25.0436C104.783 25.0436 105.336 25.2456 105.76 25.6498C106.188 26.054 106.401 26.5884 106.401 27.253V30.6749H105.533V27.5386C105.533 27.014 105.393 26.6059 105.113 26.3144C104.837 26.019 104.446 25.8714 103.941 25.8714C103.463 25.8714 103.061 26.0268 102.734 26.3377C102.412 26.6447 102.251 27.0528 102.251 27.5619V30.6749H101.376V22.2803H102.251ZM110.699 25.0436C111.449 25.0436 112.067 25.3098 112.553 25.8422C113.042 26.3746 113.289 27.0586 113.293 27.8942C113.293 28.0147 113.287 28.1235 113.275 28.2207H108.851C108.909 28.7959 109.119 29.2409 109.48 29.5556C109.842 29.8666 110.283 30.022 110.804 30.022C111.464 30.022 112.047 29.7908 112.553 29.3283L113.019 29.9229C112.416 30.4981 111.661 30.7857 110.751 30.7857C109.931 30.7857 109.261 30.5214 108.74 29.9929C108.219 29.4604 107.959 28.7687 107.959 27.9175C107.959 27.0781 108.217 26.3902 108.734 25.8539C109.251 25.3137 109.906 25.0436 110.699 25.0436ZM110.681 25.8189C110.184 25.8189 109.774 25.9743 109.451 26.2853C109.129 26.5962 108.932 27.0062 108.862 27.5153H112.407C112.352 26.9984 112.168 26.5865 111.853 26.2794C111.542 25.9724 111.151 25.8189 110.681 25.8189ZM117.415 25.0436C117.819 25.0436 118.157 25.1057 118.429 25.2301L118.219 26.0871C117.947 25.9394 117.629 25.8655 117.263 25.8655C116.828 25.8655 116.472 26.0229 116.197 26.3377C115.921 26.6525 115.783 27.0684 115.783 27.5853V30.6749H114.914V25.1543H115.777V25.9297C115.967 25.6459 116.202 25.4283 116.482 25.2767C116.766 25.1213 117.077 25.0436 117.415 25.0436Z" fill="#231F20"/>
<path d="M0.181641 45.8018C0.181641 39.1044 5.61099 33.675 12.3084 33.675H26.1284V45.8018H0.181641V45.8018Z" fill="white"/>
<rect x="26.1289" y="33.675" width="92.1064" height="12.1268" fill="white"/>
<path d="M118.234 33.675H132.054C138.752 33.675 144.181 39.1044 144.181 45.8018V45.8018H118.234V33.675Z" fill="white"/>
<g clip-path="url(#clip1_214_14313)">
<path d="M189.259 45.8018L-44.8955 45.8018V71.0632L189.259 71.0632V45.8018Z" fill="white"/>
<path d="M7.66699 62.6105L22.8239 53.8661" stroke="#231F20" stroke-width="0.971596"/>
<path d="M22.8252 53.8661L29.0434 57.3638" stroke="#231F20" stroke-width="0.971596"/>
<path d="M29.043 57.3638L35.164 60.9587" stroke="#FF6A00" stroke-width="0.971596"/>
<path d="M113.766 53.8661L98.6094 62.6105" stroke="#231F20" stroke-width="0.971596"/>
<path d="M113.766 53.8661L119.887 57.3638" stroke="#231F20" stroke-width="0.971596"/>
<path d="M119.887 57.3638L126.008 60.9587" stroke="#FF6A00" stroke-width="0.971596"/>
<path d="M98.6088 62.6103L92.3906 59.0154" stroke="#231F20" stroke-width="0.971596"/>
<path d="M92.3906 59.0154L86.2695 55.5177" stroke="#FF6A00" stroke-width="0.971596"/>
<path d="M53.1387 53.8661L68.2956 62.6105" stroke="#231F20" stroke-width="0.971596"/>
<path d="M53.1377 53.8661L47.0166 57.3638" stroke="#231F20" stroke-width="0.971596"/>
<path d="M47.018 57.3638L40.7998 60.9587" stroke="#FF6A00" stroke-width="0.971596"/>
<path d="M68.2949 62.6103L74.416 59.0154" stroke="#231F20" stroke-width="0.971596"/>
<path d="M74.416 59.0154L80.5371 55.5177" stroke="#FF6A00" stroke-width="0.971596"/>
<path d="M22.0479 54.2547L22.8251 53.8661L23.1166 53.9632" stroke="#231F20" stroke-width="0.971596"/>
<path d="M112.989 54.2547L113.767 53.8661L114.058 53.9632" stroke="#231F20" stroke-width="0.971596"/>
<path d="M99.2894 62.1246L98.6093 62.6104L98.2207 62.4161" stroke="#231F20" stroke-width="0.971596"/>
<path d="M53.9154 54.2547L53.1382 53.8661L52.8467 53.9632" stroke="#231F20" stroke-width="0.971596"/>
<path d="M67.5186 62.1246L68.2958 62.6104L68.5873 62.4161" stroke="#231F20" stroke-width="0.971596"/>
<path d="M126.591 62.6104C126.591 61.8331 126.785 61.2178 127.174 60.7643C127.562 60.3109 128.113 60.0842 128.825 60.0842C129.603 60.0842 130.186 60.3109 130.574 60.7643C130.963 61.2178 131.157 61.8331 131.157 62.6104C131.157 63.3877 130.963 64.003 130.574 64.4564C130.186 64.9098 129.603 65.1365 128.825 65.1365C128.113 65.1365 127.562 64.9098 127.174 64.4564C126.785 64.003 126.591 63.3877 126.591 62.6104ZM128.825 64.5536C129.344 64.5536 129.732 64.3916 129.991 64.0678C130.315 63.7439 130.477 63.2581 130.477 62.6104C130.477 61.9626 130.315 61.4768 129.991 61.153C129.732 60.8291 129.344 60.6672 128.825 60.6672C128.372 60.6672 127.983 60.8291 127.66 61.153C127.4 61.4768 127.271 61.9626 127.271 62.6104C127.271 63.2581 127.4 63.7439 127.66 64.0678C127.983 64.3916 128.372 64.5536 128.825 64.5536Z" fill="#FF6A00"/>
<path d="M131.935 60.0842H132.615V62.2217H135.141V60.0842H135.821V65.0394H135.141V62.8047H132.615V65.0394H131.935V60.0842Z" fill="#FF6A00"/>
<path d="M35.7471 62.6104C35.7471 61.8331 35.9414 61.2178 36.33 60.7643C36.7187 60.3109 37.2692 60.0842 37.9817 60.0842C38.6942 60.0842 39.2448 60.3109 39.6335 60.7643C40.0869 61.2178 40.3136 61.8331 40.3136 62.6104C40.3136 63.3877 40.0869 64.003 39.6335 64.4564C39.2448 64.9098 38.6942 65.1365 37.9817 65.1365C37.2692 65.1365 36.7187 64.9098 36.33 64.4564C35.9414 64.003 35.7471 63.3877 35.7471 62.6104ZM37.9817 64.5536C38.4999 64.5536 38.8886 64.3916 39.1477 64.0678C39.4067 63.7439 39.5363 63.2581 39.5363 62.6104C39.5363 61.9626 39.4067 61.4768 39.1477 61.153C38.8886 60.8291 38.4999 60.6672 37.9817 60.6672C37.4636 60.6672 37.0749 60.8291 36.8158 61.153C36.5567 61.4768 36.4272 61.9626 36.4272 62.6104C36.4272 63.2581 36.5567 63.7439 36.8158 64.0678C37.0749 64.3916 37.4636 64.5536 37.9817 64.5536Z" fill="#FF6A00"/>
<path d="M81.1211 53.866C81.1211 53.0887 81.3154 52.4734 81.7041 52.02C82.0927 51.5665 82.6757 51.3398 83.4529 51.3398C84.1654 51.3398 84.716 51.5665 85.1046 52.02C85.4933 52.4734 85.6876 53.0887 85.6876 53.866C85.6876 54.6433 85.4933 55.2586 85.1046 55.712C84.716 56.1654 84.1654 56.3921 83.4529 56.3921C82.7404 56.3921 82.1575 56.1654 81.7041 55.712C81.3154 55.2586 81.1211 54.6433 81.1211 53.866ZM83.4529 55.8092C83.9711 55.8092 84.3598 55.6473 84.6188 55.3234C84.8779 54.9995 85.0075 54.5137 85.0075 53.866C85.0075 53.2183 84.8779 52.7325 84.6188 52.4086C84.3598 52.0847 83.9711 51.9228 83.4529 51.9228C82.9347 51.9228 82.5461 52.0847 82.287 52.4086C82.0279 52.7325 81.8984 53.2183 81.8984 53.866C81.8984 54.5137 82.0279 54.9995 82.287 55.3234C82.5461 55.6473 82.9347 55.8092 83.4529 55.8092Z" fill="#FF6A00"/>
</g>
<path d="M0.181641 71.0632H26.1284V83.1888H12.3072C5.61043 83.1888 0.181641 77.76 0.181641 71.0632V71.0632Z" fill="white"/>
<rect x="26.1289" y="71.0632" width="92.1064" height="12.1255" fill="white"/>
<path d="M118.234 71.0632H144.181V71.0632C144.181 77.76 138.752 83.1888 132.056 83.1888H118.234V71.0632Z" fill="white"/>
</g>
<rect x="0.93141" y="1.18165" width="142.5" height="84.5005" rx="3.13661" stroke="white" stroke-width="1.49954"/>
<defs>
<clipPath id="clip0_214_14313">
<rect x="0.181641" y="0.431885" width="144" height="86" rx="3.88638" fill="white"/>
</clipPath>
<clipPath id="clip1_214_14313">
<rect width="234.155" height="25.2615" fill="white" transform="translate(-44.8955 45.8018)"/>
</clipPath>
</defs>
</svg>
