<svg width="145" height="88" viewBox="0 0 145 88" fill="none" xmlns="http://www.w3.org/2000/svg">
<g clip-path="url(#clip0_214_14385)">
<rect x="0.119141" y="0.431885" width="144" height="87" rx="3.88638" fill="white"/>
<path d="M0.119141 7.77046C0.119141 1.07302 5.54849 -4.35632 12.2459 -4.35632L26.0659 -4.35632V7.77046L0.119141 7.77046V7.77046Z" fill="white"/>
<rect x="26.0664" y="-4.35632" width="92.1064" height="12.1268" fill="white"/>
<path d="M118.172 -4.35632L131.992 -4.35632C138.689 -4.35632 144.119 1.07302 144.119 7.77046V7.77046L118.172 7.77046V-4.35632Z" fill="white"/>
<rect width="144" height="15" transform="translate(0.119141 7.77039)" fill="white"/>
<path d="M30.4514 11.609V12.4951H27.6182V19.7704H26.6855V12.4951H23.8523V11.609H30.4514ZM33.4366 14.139C33.8408 14.139 34.1789 14.2012 34.4509 14.3256L34.2411 15.1825C33.969 15.0348 33.6504 14.961 33.285 14.961C32.8498 14.961 32.4942 15.1184 32.2182 15.4332C31.9423 15.748 31.8043 16.1638 31.8043 16.6807V19.7704H30.9357V14.2498H31.7985V15.0251C31.9889 14.7414 32.224 14.5238 32.5039 14.3722C32.7876 14.2167 33.0985 14.139 33.4366 14.139ZM36.6492 14.2498V19.7704H35.7747V14.2498H36.6492ZM36.2119 11.6731C36.3829 11.6731 36.5287 11.7333 36.6492 11.8538C36.7696 11.9704 36.8299 12.1162 36.8299 12.291C36.8299 12.4659 36.7696 12.6117 36.6492 12.7283C36.5326 12.8448 36.3868 12.9031 36.2119 12.9031C36.037 12.9031 35.8913 12.8448 35.7747 12.7283C35.6581 12.6117 35.5998 12.4659 35.5998 12.291C35.5998 12.1162 35.6581 11.9704 35.7747 11.8538C35.8913 11.7333 36.037 11.6731 36.2119 11.6731ZM41.1263 14.139C41.5382 14.139 41.921 14.2148 42.2747 14.3664C42.6284 14.5141 42.9276 14.7278 43.1724 15.0076L42.6128 15.5964C42.1736 15.1689 41.6704 14.9552 41.1029 14.9552C40.5472 14.9552 40.0828 15.1495 39.7097 15.5381C39.3405 15.9268 39.1559 16.4164 39.1559 17.0072C39.1559 17.6018 39.3405 18.0934 39.7097 18.482C40.0828 18.8707 40.5472 19.065 41.1029 19.065C41.6781 19.065 42.1872 18.8493 42.6303 18.4179L43.1724 19.0125C42.9237 19.2924 42.6225 19.5081 42.2689 19.6596C41.9152 19.8073 41.5343 19.8811 41.1263 19.8811C40.2868 19.8811 39.6009 19.6091 39.0684 19.065C38.536 18.5209 38.2698 17.835 38.2698 17.0072C38.2698 16.1833 38.536 15.4992 39.0684 14.9552C39.6009 14.4111 40.2868 14.139 41.1263 14.139ZM45.5301 11.3758V15.0193C45.7439 14.7161 46.014 14.4946 46.3405 14.3547C46.6669 14.2109 47.0128 14.139 47.3781 14.139C48.0621 14.139 48.6159 14.3411 49.0396 14.7453C49.4671 15.1495 49.6808 15.6839 49.6808 16.3484V19.7704H48.8122V16.6341C48.8122 16.1094 48.6723 15.7013 48.3925 15.4099C48.1165 15.1145 47.726 14.9668 47.2207 14.9668C46.7427 14.9668 46.3405 15.1223 46.014 15.4332C45.6914 15.7402 45.5301 16.1483 45.5301 16.6574V19.7704H44.6557V11.3758H45.5301ZM52.5325 11.3758V19.7704H51.658V11.3758H52.5325ZM57.0562 14.139C57.8879 14.139 58.5797 14.413 59.1315 14.961C59.6873 15.509 59.9652 16.191 59.9652 17.0072C59.9652 17.8272 59.6873 18.5112 59.1315 19.0592C58.5797 19.6072 57.8879 19.8811 57.0562 19.8811C56.2245 19.8811 55.5328 19.6072 54.9809 19.0592C54.429 18.5112 54.1531 17.8272 54.1531 17.0072C54.1531 16.191 54.429 15.509 54.9809 14.961C55.5366 14.413 56.2284 14.139 57.0562 14.139ZM58.4961 15.5381C58.1114 15.1495 57.6314 14.9552 57.0562 14.9552C56.481 14.9552 56.0011 15.1495 55.6163 15.5381C55.2316 15.9268 55.0392 16.4164 55.0392 17.0072C55.0392 17.6018 55.2316 18.0934 55.6163 18.482C56.0011 18.8707 56.481 19.065 57.0562 19.065C57.6314 19.065 58.1114 18.8707 58.4961 18.482C58.8809 18.0934 59.0733 17.6018 59.0733 17.0072C59.0733 16.4164 58.8809 15.9268 58.4961 15.5381ZM64.0874 14.139C64.4916 14.139 64.8297 14.2012 65.1018 14.3256L64.8919 15.1825C64.6199 15.0348 64.3012 14.961 63.9358 14.961C63.5006 14.961 63.145 15.1184 62.869 15.4332C62.5931 15.748 62.4551 16.1638 62.4551 16.6807V19.7704H61.5865V14.2498H62.4493V15.0251C62.6397 14.7414 62.8749 14.5238 63.1547 14.3722C63.4384 14.2167 63.7493 14.139 64.0874 14.139ZM68.6812 14.139C69.5129 14.139 70.2047 14.413 70.7565 14.961C71.3123 15.509 71.5902 16.191 71.5902 17.0072C71.5902 17.8272 71.3123 18.5112 70.7565 19.0592C70.2047 19.6072 69.5129 19.8811 68.6812 19.8811C67.8495 19.8811 67.1578 19.6072 66.6059 19.0592C66.054 18.5112 65.7781 17.8272 65.7781 17.0072C65.7781 16.191 66.054 15.509 66.6059 14.961C67.1616 14.413 67.8534 14.139 68.6812 14.139ZM70.1211 15.5381C69.7364 15.1495 69.2564 14.9552 68.6812 14.9552C68.106 14.9552 67.6261 15.1495 67.2413 15.5381C66.8566 15.9268 66.6642 16.4164 66.6642 17.0072C66.6642 17.6018 66.8566 18.0934 67.2413 18.482C67.6261 18.8707 68.106 19.065 68.6812 19.065C69.2564 19.065 69.7364 18.8707 70.1211 18.482C70.5059 18.0934 70.6982 17.6018 70.6982 17.0072C70.6982 16.4164 70.5059 15.9268 70.1211 15.5381ZM75.5317 14.139C76.2818 14.139 76.8997 14.4052 77.3855 14.9377C77.8752 15.4701 78.122 16.1541 78.1259 16.9897C78.1259 17.1102 78.12 17.219 78.1084 17.3161H73.6837C73.742 17.8913 73.9519 18.3363 74.3133 18.6511C74.6747 18.962 75.1158 19.1175 75.6366 19.1175C76.2973 19.1175 76.8803 18.8862 77.3855 18.4238L77.8519 19.0184C77.2495 19.5936 76.4936 19.8811 75.5842 19.8811C74.7641 19.8811 74.0937 19.6169 73.573 19.0883C73.0522 18.5559 72.7918 17.8641 72.7918 17.013C72.7918 16.1735 73.0502 15.4856 73.5671 14.9493C74.084 14.4091 74.7389 14.139 75.5317 14.139ZM75.5142 14.9143C75.0167 14.9143 74.6067 15.0698 74.2842 15.3807C73.9616 15.6916 73.7653 16.1016 73.6954 16.6108H77.2398C77.1853 16.0939 77.0007 15.6819 76.6859 15.3749C76.375 15.0679 75.9845 14.9143 75.5142 14.9143ZM83.4385 14.2498V15.0368H81.0542V17.8233C81.0542 18.2392 81.1533 18.5501 81.3515 18.756C81.5497 18.962 81.8159 19.065 82.1502 19.065C82.566 19.065 82.9527 18.9348 83.3103 18.6744L83.7183 19.3332C83.2364 19.6985 82.6904 19.8811 82.0802 19.8811C81.4739 19.8811 81.0056 19.7121 80.6753 19.374C80.3488 19.032 80.1856 18.5209 80.1856 17.8408V15.0368H78.9789V14.2498H80.1856V12.4951H81.0542V14.2498H83.4385ZM85.8476 11.3758V15.0193C86.0613 14.7161 86.3314 14.4946 86.6579 14.3547C86.9844 14.2109 87.3302 14.139 87.6956 14.139C88.3796 14.139 88.9334 14.3411 89.357 14.7453C89.7845 15.1495 89.9982 15.6839 89.9982 16.3484V19.7704H89.1296V16.6341C89.1296 16.1094 88.9897 15.7013 88.7099 15.4099C88.434 15.1145 88.0434 14.9668 87.5382 14.9668C87.0601 14.9668 86.6579 15.1223 86.3314 15.4332C86.0089 15.7402 85.8476 16.1483 85.8476 16.6574V19.7704H84.9731V11.3758H85.8476ZM96.8528 14.2498L92.3582 22.1255H91.3963L93.4542 18.5753L90.9183 14.2498H91.8919L93.9497 17.7125L95.8968 14.2498H96.8528ZM98.8389 11.3758V19.7704H97.9644V11.3758H98.8389ZM103.199 14.139C103.949 14.139 104.567 14.4052 105.053 14.9377C105.543 15.4701 105.79 16.1541 105.794 16.9897C105.794 17.1102 105.788 17.219 105.776 17.3161H101.351C101.41 17.8913 101.62 18.3363 101.981 18.6511C102.342 18.962 102.784 19.1175 103.304 19.1175C103.965 19.1175 104.548 18.8862 105.053 18.4238L105.52 19.0184C104.917 19.5936 104.161 19.8811 103.252 19.8811C102.432 19.8811 101.761 19.6169 101.241 19.0883C100.72 18.5559 100.46 17.8641 100.46 17.013C100.46 16.1735 100.718 15.4856 101.235 14.9493C101.752 14.4091 102.407 14.139 103.199 14.139ZM103.182 14.9143C102.684 14.9143 102.274 15.0698 101.952 15.3807C101.629 15.6916 101.433 16.1016 101.363 16.6108H104.907C104.853 16.0939 104.668 15.6819 104.354 15.3749C104.043 15.0679 103.652 14.9143 103.182 14.9143ZM110.137 14.139C110.821 14.139 111.375 14.3411 111.799 14.7453C112.226 15.1495 112.44 15.6839 112.44 16.3484V19.7704H111.571V16.6341C111.571 16.1094 111.431 15.7013 111.151 15.4099C110.876 15.1145 110.485 14.9668 109.98 14.9668C109.502 14.9668 109.099 15.1223 108.773 15.4332C108.45 15.7402 108.289 16.1483 108.289 16.6574V19.7704H107.415V14.2498H108.278V15.0368C108.487 14.7259 108.757 14.4985 109.088 14.3547C109.418 14.2109 109.768 14.139 110.137 14.139ZM116.737 14.139C117.487 14.139 118.105 14.4052 118.591 14.9377C119.081 15.4701 119.328 16.1541 119.331 16.9897C119.331 17.1102 119.326 17.219 119.314 17.3161H114.889C114.948 17.8913 115.157 18.3363 115.519 18.6511C115.88 18.962 116.321 19.1175 116.842 19.1175C117.503 19.1175 118.086 18.8862 118.591 18.4238L119.057 19.0184C118.455 19.5936 117.699 19.8811 116.79 19.8811C115.97 19.8811 115.299 19.6169 114.778 19.0883C114.258 18.5559 113.997 17.8641 113.997 17.013C113.997 16.1735 114.256 15.4856 114.773 14.9493C115.29 14.4091 115.944 14.139 116.737 14.139ZM116.72 14.9143C116.222 14.9143 115.812 15.0698 115.49 15.3807C115.167 15.6916 114.971 16.1016 114.901 16.6108H118.445C118.391 16.0939 118.206 15.6819 117.891 15.3749C117.581 15.0679 117.19 14.9143 116.72 14.9143Z" fill="#231F20"/>
<g clip-path="url(#clip1_214_14385)">
<path d="M120.699 22.7704L23.5391 22.7704V80.0945H120.699V22.7704Z" fill="white"/>
<path d="M65.3174 64.4519L80.4743 55.7075" stroke="#231F20" stroke-width="0.971596"/>
<path d="M65.3174 61.4399L77.851 54.2501" stroke="#231F20" stroke-width="0.971596"/>
<path d="M65.3182 64.4518L58.2256 60.3711" stroke="#231F20" stroke-width="0.971596"/>
<path d="M58.2255 60.3711L51.1328 56.2904" stroke="#216C21" stroke-width="0.971596"/>
<path d="M80.4746 55.7075L86.79 59.3996" stroke="#231F20" stroke-width="0.971596"/>
<path d="M86.79 59.3995L93.1054 62.9944" stroke="#216C21" stroke-width="0.971596"/>
<path d="M80.4746 55.7075V48.6149" stroke="#231F20" stroke-width="0.971596"/>
<path d="M80.4746 48.6149V41.5222" stroke="#216C21" stroke-width="0.971596"/>
<path d="M66.0951 64.0632L65.3178 64.4519L65.0264 64.2576" stroke="#231F20" stroke-width="0.971596"/>
<path d="M45.5947 55.9018C45.5947 55.0597 45.7567 54.4444 46.0805 54.0557C46.4692 53.6023 47.0521 53.3756 47.8294 53.3756C48.4771 53.3756 48.9953 53.6023 49.3839 54.0557L48.8982 54.4444C48.6391 54.1205 48.2828 53.9586 47.8294 53.9586C47.3112 53.9586 46.9226 54.1205 46.6635 54.4444C46.4044 54.7682 46.2748 55.254 46.2748 55.9018C46.2748 56.5495 46.4044 57.0353 46.6635 57.3592C46.9226 57.683 47.3436 57.8449 47.9266 57.8449C48.2504 57.8449 48.6391 57.7478 49.0925 57.5535L49.2868 58.0393C49.0925 58.1688 48.8658 58.266 48.6067 58.3307C48.3476 58.3955 48.0885 58.4279 47.8294 58.4279C47.0521 58.4279 46.4692 58.2012 46.0805 57.7478C45.7567 57.3592 45.5947 56.7438 45.5947 55.9018Z" fill="#216C21"/>
<path d="M49.8691 53.0841H50.5493V58.3307H49.8691V53.0841Z" fill="#216C21"/>
<path d="M93.6885 64.6461C93.6885 63.8041 93.8828 63.1888 94.2714 62.8001C94.6601 62.3467 95.243 62.12 96.0203 62.12C96.668 62.12 97.1862 62.3467 97.5749 62.8001L97.0891 63.1887C96.83 62.8649 96.4737 62.703 96.0203 62.703C95.5021 62.703 95.1135 62.8649 94.8544 63.1887C94.5953 63.5126 94.4658 63.9984 94.4658 64.6461C94.4658 65.2939 94.5953 65.7797 94.8544 66.1035C95.1135 66.4274 95.5021 66.5893 96.0203 66.5893C96.4089 66.5893 96.7976 66.4922 97.1862 66.2979L97.4777 66.7837C97.2834 66.9132 97.0567 67.0104 96.7976 67.0751C96.5385 67.1399 96.247 67.1723 95.9231 67.1723C95.2106 67.1723 94.6601 66.9456 94.2714 66.4922C93.8828 66.1035 93.6885 65.4882 93.6885 64.6461Z" fill="#216C21"/>
<path d="M98.0605 61.8285H98.6435V67.0751H98.0605V61.8285Z" fill="#216C21"/>
<path d="M78.5312 38.4131C78.5312 37.5711 78.7256 36.9557 79.1142 36.5671C79.5028 36.1137 80.0858 35.887 80.8631 35.887C81.5108 35.887 82.029 36.1137 82.4176 36.5671L81.9318 36.9557C81.6727 36.6319 81.3165 36.4699 80.8631 36.4699C80.3449 36.4699 79.9563 36.6319 79.6972 36.9557C79.4381 37.2796 79.3085 37.7654 79.3085 38.4131C79.3085 39.0608 79.4381 39.5466 79.6972 39.8705C79.9563 40.1944 80.3449 40.3563 80.8631 40.3563C81.2517 40.3563 81.6727 40.2591 82.1262 40.0648L82.3205 40.5506C82.1262 40.6802 81.8994 40.7773 81.6404 40.8421C81.3813 40.9069 81.0898 40.9393 80.7659 40.9393C80.0534 40.9393 79.5028 40.7126 79.1142 40.2591C78.7256 39.8705 78.5312 39.2552 78.5312 38.4131Z" fill="#216C21"/>
<path d="M82.9033 35.5955H83.5834V40.8421H82.9033V35.5955Z" fill="#216C21"/>
</g>
<path d="M0.119141 80.0946H26.0659V92.2201H12.2447C5.54793 92.2201 0.119141 86.7913 0.119141 80.0946V80.0946Z" fill="white"/>
<rect x="26.0664" y="80.0946" width="92.1064" height="12.1255" fill="white"/>
<path d="M118.172 80.0946H144.119V80.0946C144.119 86.7913 138.69 92.2201 131.993 92.2201H118.172V80.0946Z" fill="white"/>
</g>
<rect x="0.86891" y="1.18165" width="142.5" height="85.5005" rx="3.13661" stroke="white" stroke-width="1.49954"/>
<defs>
<clipPath id="clip0_214_14385">
<rect x="0.119141" y="0.431885" width="144" height="87" rx="3.88638" fill="white"/>
</clipPath>
<clipPath id="clip1_214_14385">
<rect width="97.1596" height="57.3242" fill="white" transform="translate(23.5391 22.7704)"/>
</clipPath>
</defs>
</svg>
