<svg width="144" height="87" viewBox="0 0 144 87" fill="none" xmlns="http://www.w3.org/2000/svg">
<g clip-path="url(#clip0_214_15033)">
<rect x="0.806641" y="0.431885" width="143" height="86" rx="3.88638" fill="white"/>
<rect width="143" height="15" transform="translate(0.806641 16.033)" fill="white"/>
<path d="M51.6389 19.8716V20.7576H48.8057V28.033H47.873V20.7576H45.0398V19.8716H51.6389ZM54.6241 22.4016C55.0283 22.4016 55.3664 22.4638 55.6384 22.5881L55.4286 23.4451C55.1565 23.2974 54.8379 23.2236 54.4725 23.2236C54.0373 23.2236 53.6817 23.381 53.4057 23.6958C53.1298 24.0106 52.9918 24.4264 52.9918 24.9433V28.033H52.1232V22.5124H52.986V23.2877C53.1764 23.004 53.4115 22.7863 53.6914 22.6348C53.9751 22.4793 54.286 22.4016 54.6241 22.4016ZM57.8367 22.5124V28.033H56.9622V22.5124H57.8367ZM57.3994 19.9357C57.5704 19.9357 57.7162 19.9959 57.8367 20.1164C57.9571 20.233 58.0174 20.3787 58.0174 20.5536C58.0174 20.7285 57.9571 20.8742 57.8367 20.9908C57.7201 21.1074 57.5743 21.1657 57.3994 21.1657C57.2245 21.1657 57.0788 21.1074 56.9622 20.9908C56.8456 20.8742 56.7873 20.7285 56.7873 20.5536C56.7873 20.3787 56.8456 20.233 56.9622 20.1164C57.0788 19.9959 57.2245 19.9357 57.3994 19.9357ZM62.2147 22.4016C63.0736 22.4016 63.7459 22.7125 64.2317 23.3343V19.6384H65.1003V28.033H64.2317V27.211C63.7498 27.8328 63.0774 28.1437 62.2147 28.1437C61.4335 28.1437 60.7786 27.8717 60.2501 27.3276C59.7215 26.7796 59.4573 26.0937 59.4573 25.2697C59.4573 24.4458 59.7215 23.7618 60.2501 23.2177C60.7786 22.6736 61.4335 22.4016 62.2147 22.4016ZM62.3196 23.2177C61.7366 23.2177 61.2606 23.4159 60.8914 23.8123C60.526 24.2049 60.3434 24.6907 60.3434 25.2697C60.3434 25.8488 60.528 26.3366 60.8972 26.733C61.2664 27.1294 61.7405 27.3276 62.3196 27.3276C62.8909 27.3276 63.3611 27.1333 63.7304 26.7446C64.0996 26.3521 64.2842 25.8605 64.2842 25.2697C64.2842 24.6829 64.0996 24.1952 63.7304 23.8065C63.3611 23.414 62.8909 23.2177 62.3196 23.2177ZM69.4614 22.4016C70.2114 22.4016 70.8294 22.6678 71.3152 23.2002C71.8049 23.7327 72.0516 24.4167 72.0555 25.2523C72.0555 25.3727 72.0497 25.4815 72.038 25.5787H67.6134C67.6717 26.1539 67.8816 26.5989 68.243 26.9137C68.6044 27.2246 69.0455 27.38 69.5663 27.38C70.227 27.38 70.8099 27.1488 71.3152 26.6863L71.7815 27.2809C71.1792 27.8561 70.4233 28.1437 69.5138 28.1437C68.6938 28.1437 68.0234 27.8794 67.5026 27.3509C66.9819 26.8185 66.7215 26.1267 66.7215 25.2756C66.7215 24.4361 66.9799 23.7482 67.4968 23.2119C68.0137 22.6717 68.6686 22.4016 69.4614 22.4016ZM69.4439 23.1769C68.9464 23.1769 68.5364 23.3324 68.2138 23.6433C67.8913 23.9542 67.695 24.3642 67.6251 24.8733H71.1694C71.115 24.3564 70.9304 23.9445 70.6156 23.6375C70.3047 23.3304 69.9141 23.1769 69.4439 23.1769ZM76.1135 22.4016C76.5254 22.4016 76.9082 22.4774 77.2619 22.6289C77.6156 22.7766 77.9148 22.9904 78.1596 23.2702L77.6 23.859C77.1608 23.4315 76.6576 23.2177 76.0901 23.2177C75.5344 23.2177 75.07 23.412 74.6969 23.8007C74.3277 24.1893 74.1431 24.679 74.1431 25.2697C74.1431 25.8644 74.3277 26.356 74.6969 26.7446C75.07 27.1333 75.5344 27.3276 76.0901 27.3276C76.6653 27.3276 77.1744 27.1119 77.6175 26.6805L78.1596 27.2751C77.9109 27.5549 77.6097 27.7706 77.2561 27.9222C76.9024 28.0699 76.5215 28.1437 76.1135 28.1437C75.274 28.1437 74.5881 27.8717 74.0556 27.3276C73.5232 26.7835 73.257 26.0975 73.257 25.2697C73.257 24.4458 73.5232 23.7618 74.0556 23.2177C74.5881 22.6736 75.274 22.4016 76.1135 22.4016ZM84.7637 22.5124V28.033H83.8951V27.211C83.4132 27.8328 82.7409 28.1437 81.8781 28.1437C81.0969 28.1437 80.4421 27.8717 79.9135 27.3276C79.385 26.7796 79.1207 26.0937 79.1207 25.2697C79.1207 24.4458 79.385 23.7618 79.9135 23.2177C80.4421 22.6736 81.0969 22.4016 81.8781 22.4016C82.737 22.4016 83.4093 22.7125 83.8951 23.3343V22.5124H84.7637ZM81.983 23.2177C81.4001 23.2177 80.924 23.4159 80.5548 23.8123C80.1895 24.2049 80.0068 24.6907 80.0068 25.2697C80.0068 25.8488 80.1914 26.3366 80.5606 26.733C80.9298 27.1294 81.404 27.3276 81.983 27.3276C82.5543 27.3276 83.0246 27.1333 83.3938 26.7446C83.763 26.3521 83.9476 25.8605 83.9476 25.2697C83.9476 24.6829 83.763 24.1952 83.3938 23.8065C83.0246 23.414 82.5543 23.2177 81.983 23.2177ZM89.527 22.4016C90.211 22.4016 90.7649 22.6037 91.1885 23.0079C91.616 23.412 91.8297 23.9464 91.8297 24.611V28.033H90.9611V24.8966C90.9611 24.372 90.8212 23.9639 90.5414 23.6724C90.2655 23.3771 89.8749 23.2294 89.3696 23.2294C88.8916 23.2294 88.4894 23.3848 88.1629 23.6958C87.8404 24.0028 87.6791 24.4108 87.6791 24.92V28.033H86.8046V22.5124H87.6674V23.2993C87.8773 22.9884 88.1474 22.7611 88.4777 22.6173C88.8081 22.4735 89.1578 22.4016 89.527 22.4016ZM96.1271 22.4016C96.8772 22.4016 97.4951 22.6678 97.9809 23.2002C98.4706 23.7327 98.7174 24.4167 98.7213 25.2523C98.7213 25.3727 98.7155 25.4815 98.7038 25.5787H94.2792C94.3374 26.1539 94.5473 26.5989 94.9087 26.9137C95.2702 27.2246 95.7113 27.38 96.2321 27.38C96.8927 27.38 97.4757 27.1488 97.9809 26.6863L98.4473 27.2809C97.8449 27.8561 97.089 28.1437 96.1796 28.1437C95.3596 28.1437 94.6892 27.8794 94.1684 27.3509C93.6476 26.8185 93.3872 26.1267 93.3872 25.2756C93.3872 24.4361 93.6457 23.7482 94.1626 23.2119C94.6795 22.6717 95.3343 22.4016 96.1271 22.4016ZM96.1096 23.1769C95.6122 23.1769 95.2022 23.3324 94.8796 23.6433C94.557 23.9542 94.3608 24.3642 94.2908 24.8733H97.8352C97.7808 24.3564 97.5962 23.9445 97.2814 23.6375C96.9705 23.3304 96.5799 23.1769 96.1096 23.1769Z" fill="#231F20"/>
<path d="M0.806641 43.1597C0.806641 36.4623 6.23599 31.033 12.9334 31.033H26.7534V43.1597H0.806641V43.1597Z" fill="white"/>
<rect x="26.7539" y="31.033" width="91.1064" height="12.1268" fill="white"/>
<path d="M117.859 31.033H131.679C138.377 31.033 143.806 36.4623 143.806 43.1597V43.1597H117.859V31.033Z" fill="white"/>
<g clip-path="url(#clip1_214_15033)">
<path d="M238.45 43.1597H-93.8359V58.7052H238.45V43.1597Z" fill="white"/>
<path d="M-3.76855 46.366L11.2912 55.1103" stroke="#231F20" stroke-width="0.971596"/>
<path d="M147.606 46.366L132.546 55.1103" stroke="#231F20" stroke-width="0.971596"/>
<path d="M11.291 55.1103L26.4479 46.366" stroke="#231F20" stroke-width="0.971596"/>
<path d="M132.547 55.1103L117.39 46.366" stroke="#231F20" stroke-width="0.971596"/>
<path d="M26.4473 46.366L41.6042 55.1103" stroke="#231F20" stroke-width="0.971596"/>
<path d="M117.388 46.366L102.231 55.1103" stroke="#231F20" stroke-width="0.971596"/>
<path d="M41.6045 55.1103L56.7614 46.366" stroke="#231F20" stroke-width="0.971596"/>
<path d="M102.232 55.1103L87.0752 46.366" stroke="#231F20" stroke-width="0.971596"/>
<path d="M56.7617 46.366L71.9186 55.1103" stroke="#231F20" stroke-width="0.971596"/>
<path d="M87.0749 46.366L71.918 55.1103" stroke="#231F20" stroke-width="0.971596"/>
<path d="M10.6104 54.6245L11.2905 55.1103L12.0677 54.6245" stroke="#231F20" stroke-width="0.971596"/>
<path d="M133.226 54.7217L132.546 55.1103L131.769 54.7217" stroke="#231F20" stroke-width="0.971596"/>
<path d="M25.7676 46.7546L26.4477 46.366L27.225 46.7546" stroke="#231F20" stroke-width="0.971596"/>
<path d="M118.069 46.8518L117.389 46.366L116.611 46.8518" stroke="#231F20" stroke-width="0.971596"/>
<path d="M40.8271 54.6245L41.6044 55.1103L42.3817 54.6245" stroke="#231F20" stroke-width="0.971596"/>
<path d="M103.01 54.7217L102.232 55.1103L101.455 54.7217" stroke="#231F20" stroke-width="0.971596"/>
<path d="M55.9844 46.7546L56.7617 46.366L57.5389 46.7546" stroke="#231F20" stroke-width="0.971596"/>
<path d="M87.8524 46.8518L87.0751 46.366L86.2979 46.8518" stroke="#231F20" stroke-width="0.971596"/>
<path d="M71.1406 54.6245L71.9179 55.1103L72.6952 54.7217" stroke="#231F20" stroke-width="0.971596"/>
</g>
<path d="M0.806641 58.7053H26.7534V70.8308H12.9322C6.23543 70.8308 0.806641 65.4021 0.806641 58.7053V58.7053Z" fill="white"/>
<rect x="26.7539" y="58.7053" width="91.1064" height="12.1255" fill="white"/>
<path d="M117.859 58.7053H143.806V58.7053C143.806 65.4021 138.377 70.8308 131.681 70.8308H117.859V58.7053Z" fill="white"/>
</g>
<rect x="1.55641" y="1.18165" width="141.5" height="84.5005" rx="3.13661" stroke="white" stroke-width="1.49954"/>
<defs>
<clipPath id="clip0_214_15033">
<rect x="0.806641" y="0.431885" width="143" height="86" rx="3.88638" fill="white"/>
</clipPath>
<clipPath id="clip1_214_15033">
<rect width="332.286" height="15.5455" fill="white" transform="translate(-93.8359 43.1597)"/>
</clipPath>
</defs>
</svg>
