<svg width="144" height="87" viewBox="0 0 144 87" fill="none" xmlns="http://www.w3.org/2000/svg">
<g clip-path="url(#clip0_214_14673)">
<rect x="0.932617" y="0.431885" width="143" height="86" rx="3.88638" fill="white"/>
<path d="M0.932617 12.5587C0.932617 5.86123 6.36196 0.431885 13.0594 0.431885L26.8794 0.431885V12.5587L0.932617 12.5587V12.5587Z" fill="white"/>
<rect x="26.8799" y="0.431885" width="91.1064" height="12.1268" fill="white"/>
<path d="M117.985 0.431885L131.805 0.431885C138.503 0.431885 143.932 5.86123 143.932 12.5587V12.5587L117.985 12.5587V0.431885Z" fill="white"/>
<rect width="143" height="17.3807" transform="translate(0.932617 12.5587)" fill="white"/>
<path d="M45.8053 15.1754V23.4359H44.9076V16.4812L42.4941 17.5247V16.5862L45.8053 15.1754ZM51.0913 19.9557V20.7485H47.85V19.9557H51.0913ZM56.174 20.1539H54.0288V23.4359H53.0902V15.2745L56.174 15.2745C57.0873 15.2745 57.7966 15.4902 58.3018 15.9216C58.8071 16.353 59.0597 16.9515 59.0597 17.7171C59.0597 18.4827 58.8071 19.0812 58.3018 19.5126C57.7966 19.9401 57.0873 20.1539 56.174 20.1539ZM56.1449 16.1606H54.0288V19.2736H56.1449C56.7784 19.2736 57.2603 19.1434 57.5906 18.883C57.921 18.6226 58.0861 18.234 58.0861 17.7171C58.0861 17.2002 57.921 16.8116 57.5906 16.5512C57.2603 16.2908 56.7784 16.1606 56.1449 16.1606ZM63.1761 17.8045C63.5803 17.8045 63.9184 17.8667 64.1904 17.9911L63.9806 18.848C63.7085 18.7004 63.3898 18.6265 63.0245 18.6265C62.5893 18.6265 62.2336 18.7839 61.9577 19.0987C61.6818 19.4135 61.5438 19.8293 61.5438 20.3462V23.4359H60.6752V17.9153H61.538V18.6906C61.7284 18.4069 61.9635 18.1893 62.2434 18.0377C62.5271 17.8823 62.838 17.8045 63.1761 17.8045ZM67.7699 17.8045C68.6016 17.8045 69.2934 18.0785 69.8452 18.6265C70.401 19.1745 70.6788 19.8566 70.6788 20.6727C70.6788 21.4927 70.401 22.1767 69.8452 22.7247C69.2934 23.2727 68.6016 23.5467 67.7699 23.5467C66.9382 23.5467 66.2464 23.2727 65.6946 22.7247C65.1427 22.1767 64.8668 21.4927 64.8668 20.6727C64.8668 19.8566 65.1427 19.1745 65.6946 18.6265C66.2503 18.0785 66.9421 17.8045 67.7699 17.8045ZM69.2098 19.2036C68.825 18.815 68.3451 18.6207 67.7699 18.6207C67.1947 18.6207 66.7147 18.815 66.33 19.2036C65.9452 19.5923 65.7529 20.082 65.7529 20.6727C65.7529 21.2673 65.9452 21.7589 66.33 22.1476C66.7147 22.5362 67.1947 22.7305 67.7699 22.7305C68.3451 22.7305 68.825 22.5362 69.2098 22.1476C69.5945 21.7589 69.7869 21.2673 69.7869 20.6727C69.7869 20.082 69.5945 19.5923 69.2098 19.2036ZM75.1858 17.8045C75.967 17.8045 76.6219 18.0766 77.1504 18.6207C77.679 19.1648 77.9432 19.8488 77.9432 20.6727C77.9432 21.4966 77.679 22.1826 77.1504 22.7305C76.6219 23.2746 75.967 23.5467 75.1858 23.5467C74.327 23.5467 73.6565 23.2377 73.1746 22.6198V25.7677H72.3002V17.9153H73.1746V18.7314C73.6565 18.1135 74.327 17.8045 75.1858 17.8045ZM75.0809 18.6207C74.5096 18.6207 74.0394 18.8169 73.6702 19.2095C73.3009 19.5981 73.1163 20.0859 73.1163 20.6727C73.1163 21.2634 73.3009 21.7551 73.6702 22.1476C74.0394 22.5362 74.5096 22.7305 75.0809 22.7305C75.6639 22.7305 76.138 22.5343 76.5033 22.1417C76.8686 21.7453 77.0513 21.2557 77.0513 20.6727C77.0513 20.0936 76.8667 19.6078 76.4975 19.2153C76.1283 18.8189 75.6561 18.6207 75.0809 18.6207ZM84.7877 17.9153V23.4359H83.9191V22.6139C83.4372 23.2358 82.7648 23.5467 81.9021 23.5467C81.1209 23.5467 80.466 23.2746 79.9375 22.7305C79.4089 22.1826 79.1447 21.4966 79.1447 20.6727C79.1447 19.8488 79.4089 19.1648 79.9375 18.6207C80.466 18.0766 81.1209 17.8045 81.9021 17.8045C82.761 17.8045 83.4333 18.1155 83.9191 18.7373V17.9153H84.7877ZM82.007 18.6207C81.424 18.6207 80.948 18.8189 80.5787 19.2153C80.2134 19.6078 80.0308 20.0936 80.0308 20.6727C80.0308 21.2518 80.2154 21.7395 80.5846 22.1359C80.9538 22.5323 81.4279 22.7305 82.007 22.7305C82.5783 22.7305 83.0485 22.5362 83.4177 22.1476C83.787 21.7551 83.9716 21.2634 83.9716 20.6727C83.9716 20.0859 83.787 19.5981 83.4177 19.2095C83.0485 18.8169 82.5783 18.6207 82.007 18.6207ZM89.551 17.8045C90.235 17.8045 90.7888 18.0066 91.2124 18.4108C91.6399 18.815 91.8537 19.3494 91.8537 20.014V23.4359H90.9851V20.2996C90.9851 19.7749 90.8452 19.3669 90.5654 19.0754C90.2894 18.78 89.8988 18.6323 89.3936 18.6323C88.9156 18.6323 88.5133 18.7878 88.1869 19.0987C87.8643 19.4057 87.703 19.8138 87.703 20.3229V23.4359H86.8286V17.9153H87.6914V18.7023C87.9012 18.3914 88.1713 18.164 88.5017 18.0202C88.832 17.8764 89.1818 17.8045 89.551 17.8045ZM96.3143 17.8045C97.146 17.8045 97.8378 18.0785 98.3896 18.6265C98.9454 19.1745 99.2233 19.8566 99.2233 20.6727C99.2233 21.4927 98.9454 22.1767 98.3896 22.7247C97.8378 23.2727 97.146 23.5467 96.3143 23.5467C95.4826 23.5467 94.7909 23.2727 94.239 22.7247C93.6871 22.1767 93.4112 21.4927 93.4112 20.6727C93.4112 19.8566 93.6871 19.1745 94.239 18.6265C94.7947 18.0785 95.4865 17.8045 96.3143 17.8045ZM97.7542 19.2036C97.3695 18.815 96.8895 18.6207 96.3143 18.6207C95.7391 18.6207 95.2592 18.815 94.8744 19.2036C94.4897 19.5923 94.2973 20.082 94.2973 20.6727C94.2973 21.2673 94.4897 21.7589 94.8744 22.1476C95.2592 22.5362 95.7391 22.7305 96.3143 22.7305C96.8895 22.7305 97.3695 22.5362 97.7542 22.1476C98.139 21.7589 98.3313 21.2673 98.3313 20.6727C98.3313 20.082 98.139 19.5923 97.7542 19.2036ZM101.719 15.0413V23.4359H100.845V15.0413H101.719Z" fill="#231F20"/>
<path d="M0.932617 29.9393L26.8794 29.9393V42.0648H13.0581C6.3614 42.0648 0.932617 36.6361 0.932617 29.9393V29.9393Z" fill="white"/>
<rect x="26.8799" y="29.9393" width="91.1064" height="12.1255" fill="white"/>
<path d="M117.985 29.9393L143.932 29.9393V29.9393C143.932 36.6361 138.503 42.0648 131.807 42.0648H117.985V29.9393Z" fill="white"/>
<g clip-path="url(#clip1_214_14673)">
<path d="M121.012 42.0649L23.8525 42.0649V60.5253L121.012 60.5253V42.0649Z" fill="white"/>
<path d="M45.9082 52.8496L61.9395 45.9513" stroke="#231F20" stroke-width="0.971596"/>
<path d="M61.9395 45.9513L75.9304 56.5417" stroke="#231F20" stroke-width="0.971596"/>
<path d="M75.9297 56.5417L82.5365 53.7241" stroke="#231F20" stroke-width="0.971596"/>
<path d="M82.5371 53.7241L89.2411 50.9065" stroke="#FF6A00" stroke-width="0.971596"/>
<path d="M61.1621 46.3399L61.9394 45.9513L62.7167 46.5343" stroke="#231F20" stroke-width="0.971596"/>
<path d="M75.25 55.9589L75.9301 56.5418L76.3188 56.3475" stroke="#231F20" stroke-width="0.971596"/>
<path d="M89.8242 49.6433C89.8242 48.8661 90.0185 48.2507 90.4072 47.7973C90.7958 47.3439 91.3464 47.1172 92.0589 47.1172C92.7714 47.1172 93.322 47.3439 93.7106 47.7973C94.0992 48.2507 94.2936 48.8661 94.2936 49.6433C94.2936 50.4854 94.0992 51.1331 93.7106 51.5865C93.322 52.0399 92.7714 52.2666 92.0589 52.2666C91.3464 52.2666 90.7958 52.0399 90.4072 51.5865C90.0185 51.1331 89.8242 50.4854 89.8242 49.6433ZM92.0589 51.6837C92.5771 51.6837 92.9657 51.5218 93.2248 51.1979C93.4839 50.8093 93.6134 50.2911 93.6134 49.6433C93.6134 48.9956 93.4839 48.5098 93.2248 48.1859C92.9657 47.8621 92.5771 47.7001 92.0589 47.7001C91.5407 47.7001 91.1521 47.8621 90.893 48.1859C90.6339 48.5098 90.5043 48.9956 90.5043 49.6433C90.5043 50.3558 90.6339 50.874 90.893 51.1979C91.1521 51.5218 91.5407 51.6837 92.0589 51.6837Z" fill="#FF6A00"/>
<path d="M95.0703 47.2145H95.7504V49.352H98.2766V47.2145H98.9567V52.1696H98.2766V49.8378H95.7504V52.1696H95.0703V47.2145Z" fill="#FF6A00"/>
</g>
</g>
<rect x="1.68239" y="1.18165" width="141.5" height="84.5005" rx="3.13661" stroke="white" stroke-width="1.49954"/>
<defs>
<clipPath id="clip0_214_14673">
<rect x="0.932617" y="0.431885" width="143" height="86" rx="3.88638" fill="white"/>
</clipPath>
<clipPath id="clip1_214_14673">
<rect width="97.1596" height="18.4603" fill="white" transform="translate(23.8525 42.0649)"/>
</clipPath>
</defs>
</svg>
