<svg width="144" height="88" viewBox="0 0 144 88" fill="none" xmlns="http://www.w3.org/2000/svg">
<g clip-path="url(#clip0_214_14074)">
<rect x="0.806641" y="0.431885" width="143" height="87" rx="3.88638" fill="white"/>
<path d="M0.806641 12.5587C0.806641 5.86123 6.23599 0.431885 12.9334 0.431885L26.7534 0.431885V12.5587H0.806641V12.5587Z" fill="white"/>
<rect x="26.7539" y="0.431885" width="91.1064" height="12.1268" fill="white"/>
<path d="M117.859 0.431885L131.679 0.431885C138.377 0.431885 143.806 5.86123 143.806 12.5587V12.5587L117.859 12.5587V0.431885Z" fill="white"/>
<rect width="143" height="15" transform="translate(0.806641 12.5587)" fill="white"/>
<path d="M24.0286 16.3973L27.3806 24.5587H26.3779L25.451 22.2852H21.4111L20.49 24.5587H19.5165L22.8685 16.3973H24.0286ZM23.434 17.3242L21.7726 21.3991H25.0954L23.434 17.3242ZM29.4902 16.1641V24.5587H28.6157V16.1641H29.4902ZM32.405 16.1641V24.5587H31.5305V16.1641H32.405ZM39.4821 19.0381L34.9875 26.9139H34.0256L36.0834 23.3637L33.5476 19.0381H34.5211L36.5789 22.5009L38.526 19.0381H39.4821ZM41.4681 16.1641V24.5587H40.5937V16.1641H41.4681ZM53.4899 18.9273C54.1778 18.9273 54.7335 19.1294 55.1572 19.5336C55.5847 19.9378 55.7984 20.4722 55.7984 21.1368V24.5587H54.9298V21.4224C54.9298 20.8977 54.7899 20.4897 54.5101 20.1982C54.2303 19.9028 53.8377 19.7551 53.3325 19.7551C52.8545 19.7551 52.4522 19.9106 52.1258 20.2215C51.8032 20.5285 51.6419 20.9366 51.6419 21.4457V24.5587H50.7733V21.4224C50.7733 20.8977 50.6334 20.4897 50.3536 20.1982C50.0777 19.9028 49.6871 19.7551 49.1818 19.7551C48.7038 19.7551 48.3016 19.9106 47.9751 20.2215C47.6526 20.5285 47.4913 20.9366 47.4913 21.4457V24.5587H46.6168V19.0381H47.4796V19.8251C47.6895 19.5142 47.9596 19.2868 48.2899 19.143C48.6203 18.9992 48.97 18.9273 49.3392 18.9273C49.8173 18.9273 50.237 19.0303 50.5984 19.2363C50.9599 19.4384 51.23 19.7221 51.4087 20.0874C51.6147 19.6871 51.9043 19.3937 52.2774 19.2072C52.6543 19.0206 53.0585 18.9273 53.4899 18.9273ZM60.0952 18.9273C60.8453 18.9273 61.4632 19.1936 61.949 19.726C62.4387 20.2584 62.6855 20.9424 62.6893 21.778C62.6893 21.8985 62.6835 22.0073 62.6719 22.1045H58.2472C58.3055 22.6796 58.5154 23.1246 58.8768 23.4394C59.2382 23.7503 59.6793 23.9058 60.2001 23.9058C60.8608 23.9058 61.4438 23.6746 61.949 23.2121L62.4154 23.8067C61.813 24.3819 61.0571 24.6695 60.1476 24.6695C59.3276 24.6695 58.6572 24.4052 58.1364 23.8767C57.6157 23.3442 57.3553 22.6524 57.3553 21.8013C57.3553 20.9619 57.6137 20.274 58.1306 19.7377C58.6475 19.1974 59.3024 18.9273 60.0952 18.9273ZM60.0777 19.7027C59.5802 19.7027 59.1702 19.8581 58.8477 20.169C58.5251 20.48 58.3288 20.89 58.2589 21.3991H61.8032C61.7488 20.8822 61.5642 20.4702 61.2494 20.1632C60.9385 19.8562 60.5479 19.7027 60.0777 19.7027ZM68.002 19.0381V19.8251H65.6177V22.6116C65.6177 23.0275 65.7168 23.3384 65.915 23.5444C66.1132 23.7503 66.3794 23.8533 66.7137 23.8533C67.1295 23.8533 67.5162 23.7231 67.8737 23.4628L68.2818 24.1215C67.7999 24.4868 67.2539 24.6695 66.6437 24.6695C66.0374 24.6695 65.5691 24.5004 65.2388 24.1623C64.9123 23.8203 64.7491 23.3092 64.7491 22.6291V19.8251H63.5424V19.0381H64.7491V17.2834H65.6177V19.0381H68.002ZM70.4111 16.1641V19.8076C70.6248 19.5045 70.8949 19.2829 71.2214 19.143C71.5478 18.9992 71.8937 18.9273 72.259 18.9273C72.943 18.9273 73.4969 19.1294 73.9205 19.5336C74.348 19.9378 74.5617 20.4722 74.5617 21.1368V24.5587H73.6931V21.4224C73.6931 20.8977 73.5532 20.4897 73.2734 20.1982C72.9975 19.9028 72.6069 19.7551 72.1016 19.7551C71.6236 19.7551 71.2214 19.9106 70.8949 20.2215C70.5724 20.5285 70.4111 20.9366 70.4111 21.4457V24.5587H69.5366V16.1641H70.4111ZM81.4163 19.0381L76.9217 26.9139H75.9598L78.0177 23.3637L75.4818 19.0381H76.4553L78.5132 22.5009L80.4603 19.0381H81.4163ZM83.4024 16.1641V24.5587H82.5279V16.1641H83.4024ZM92.6376 19.5336L92.2587 20.2099C92.0566 20.0699 91.7904 19.9495 91.46 19.8484C91.1336 19.7435 90.7974 19.691 90.4515 19.691C90.0551 19.691 89.7384 19.7687 89.5013 19.9242C89.2642 20.0797 89.1457 20.2915 89.1457 20.5596C89.1457 20.9871 89.5207 21.2456 90.2708 21.335L90.9237 21.4166C92.1596 21.5759 92.7775 22.0889 92.7775 22.9556C92.7775 23.4802 92.5579 23.8961 92.1188 24.2031C91.6796 24.5101 91.0889 24.6636 90.3466 24.6636C89.4333 24.6636 88.6657 24.4285 88.0439 23.9583L88.4461 23.3054C88.9591 23.7057 89.5965 23.9058 90.3582 23.9058C90.8324 23.9058 91.2035 23.83 91.4717 23.6784C91.7437 23.523 91.8798 23.3015 91.8798 23.0139C91.8798 22.5708 91.495 22.3027 90.7255 22.2094L90.0668 22.1336C89.4566 22.0598 88.9999 21.8927 88.6968 21.6323C88.3937 21.368 88.2421 21.026 88.2421 20.6063C88.2421 20.0894 88.4422 19.6813 88.8425 19.3821C89.2428 19.0828 89.7772 18.9332 90.4457 18.9332C90.8693 18.9332 91.2715 18.9876 91.6524 19.0964C92.0333 19.2052 92.3617 19.351 92.6376 19.5336ZM99.2503 19.0381V22.256C99.2503 22.6524 99.1822 23.008 99.0462 23.3228C98.9102 23.6338 98.7256 23.8864 98.4924 24.0807C98.2592 24.275 97.993 24.4227 97.6938 24.5237C97.3984 24.6209 97.0817 24.6695 96.7435 24.6695C96.4015 24.6695 96.0809 24.6209 95.7817 24.5237C95.4863 24.4227 95.222 24.275 94.9888 24.0807C94.7557 23.8864 94.571 23.6338 94.435 23.3228C94.3029 23.008 94.2368 22.6524 94.2368 22.256V19.0381H95.1054V22.1744C95.1054 22.7263 95.2551 23.1441 95.5543 23.4278C95.8536 23.7115 96.25 23.8533 96.7435 23.8533C97.2371 23.8533 97.6316 23.7115 97.9269 23.4278C98.2262 23.1441 98.3758 22.7263 98.3758 22.1744V19.0381H99.2503ZM102.098 16.1641V24.5587H101.224V16.1641H102.098ZM107.759 19.0381V19.8251H105.561V24.5587H104.686V19.8251H103.427V19.0381H104.686V18.0937C104.686 17.468 104.836 16.9725 105.135 16.6072C105.434 16.238 105.897 16.0534 106.523 16.0534C107.078 16.0534 107.582 16.1913 108.033 16.4673L107.718 17.196C107.349 16.9783 106.97 16.8695 106.581 16.8695C105.901 16.8695 105.561 17.2776 105.561 18.0937V19.0381H107.759ZM110.045 19.0381V24.5587H109.171V19.0381H110.045ZM109.608 16.4614C109.779 16.4614 109.925 16.5217 110.045 16.6422C110.166 16.7587 110.226 16.9045 110.226 17.0794C110.226 17.2543 110.166 17.4 110.045 17.5166C109.929 17.6332 109.783 17.6915 109.608 17.6915C109.433 17.6915 109.288 17.6332 109.171 17.5166C109.054 17.4 108.996 17.2543 108.996 17.0794C108.996 16.9045 109.054 16.7587 109.171 16.6422C109.288 16.5217 109.433 16.4614 109.608 16.4614ZM114.423 18.9273C115.282 18.9273 115.955 19.2383 116.44 19.8601V16.1641H117.309V24.5587H116.44V23.7367C115.958 24.3586 115.286 24.6695 114.423 24.6695C113.642 24.6695 112.987 24.3974 112.459 23.8533C111.93 23.3054 111.666 22.6194 111.666 21.7955C111.666 20.9716 111.93 20.2876 112.459 19.7435C112.987 19.1994 113.642 18.9273 114.423 18.9273ZM114.528 19.7435C113.945 19.7435 113.469 19.9417 113.1 20.3381C112.735 20.7306 112.552 21.2164 112.552 21.7955C112.552 22.3746 112.737 22.8623 113.106 23.2587C113.475 23.6551 113.949 23.8533 114.528 23.8533C115.1 23.8533 115.57 23.659 115.939 23.2704C116.308 22.8779 116.493 22.3862 116.493 21.7955C116.493 21.2087 116.308 20.7209 115.939 20.3323C115.57 19.9397 115.1 19.7435 114.528 19.7435ZM121.67 18.9273C122.42 18.9273 123.038 19.1936 123.524 19.726C124.014 20.2584 124.26 20.9424 124.264 21.778C124.264 21.8985 124.258 22.0073 124.247 22.1045H119.822C119.88 22.6796 120.09 23.1246 120.452 23.4394C120.813 23.7503 121.254 23.9058 121.775 23.9058C122.436 23.9058 123.019 23.6746 123.524 23.2121L123.99 23.8067C123.388 24.3819 122.632 24.6695 121.723 24.6695C120.903 24.6695 120.232 24.4052 119.711 23.8767C119.191 23.3442 118.93 22.6524 118.93 21.8013C118.93 20.9619 119.189 20.274 119.706 19.7377C120.222 19.1974 120.877 18.9273 121.67 18.9273ZM121.653 19.7027C121.155 19.7027 120.745 19.8581 120.423 20.169C120.1 20.48 119.904 20.89 119.834 21.3991H123.378C123.324 20.8822 123.139 20.4702 122.824 20.1632C122.513 19.8562 122.123 19.7027 121.653 19.7027Z" fill="#231F20"/>
<path d="M0.806641 27.5587H26.7534V39.6842H12.9322C6.23543 39.6842 0.806641 34.2555 0.806641 27.5587V27.5587Z" fill="white"/>
<rect x="26.7539" y="27.5587" width="91.1064" height="12.1255" fill="white"/>
<path d="M117.859 27.5587H143.806V27.5587C143.806 34.2555 138.377 39.6842 131.681 39.6842H117.859V27.5587Z" fill="white"/>
<g clip-path="url(#clip1_214_14074)">
<path d="M127.688 39.6842L16.9258 39.6842V63.9741L127.688 63.9741V39.6842Z" fill="white"/>
<path d="M41.7012 56.1042L56.8581 47.3599" stroke="#231F20" stroke-width="0.971596"/>
<path d="M43.0625 58.3388L56.8592 50.3717" stroke="#231F20" stroke-width="0.971596"/>
<path d="M102.329 56.1042L95.8193 52.3149" stroke="#231F20" stroke-width="0.971596"/>
<path d="M95.8193 52.315L89.3096 48.5258" stroke="#CFCF37" stroke-width="0.971596"/>
<path d="M56.8584 47.3599L72.0153 56.1042" stroke="#231F20" stroke-width="0.971596"/>
<path d="M72.0156 56.1042L78.5253 52.3149" stroke="#231F20" stroke-width="0.971596"/>
<path d="M78.5254 52.315L85.0351 48.5258" stroke="#CFCF37" stroke-width="0.971596"/>
<path d="M56.0811 47.7485L56.8583 47.3599L57.6356 47.7485" stroke="#231F20" stroke-width="0.971596"/>
<path d="M71.2383 55.6184L72.0156 56.1042L72.307 55.9099" stroke="#231F20" stroke-width="0.971596"/>
<path d="M85.7153 49.0116C85.7801 49.0116 85.8773 49.044 86.0068 49.1088C86.2011 49.1735 86.3631 49.2383 86.4926 49.3031C86.6869 49.3031 86.8812 49.3031 87.0756 49.3031C87.3347 49.3031 87.5614 49.2383 87.7557 49.1088C87.95 48.9792 88.0472 48.7849 88.0472 48.5258C88.0472 48.3315 88.0148 48.1696 87.95 48.04C87.8204 47.9105 87.6909 47.8133 87.5614 47.7485C87.4318 47.7485 87.2375 47.6838 86.9784 47.5542C86.7193 47.4894 86.4926 47.4247 86.2983 47.3599C86.104 47.2951 85.942 47.1656 85.8125 46.9713C85.7477 46.7769 85.7153 46.5178 85.7153 46.194C85.7153 45.8053 85.8449 45.4815 86.104 45.2224C86.3631 44.9633 86.7841 44.8337 87.367 44.8337C87.7557 44.8337 88.1767 44.9309 88.6301 45.1252L88.4358 45.611C88.0472 45.4815 87.6909 45.4167 87.367 45.4167C87.0432 45.4167 86.7841 45.4815 86.5898 45.611C86.4602 45.7406 86.3954 45.9349 86.3954 46.194C86.3954 46.3235 86.4278 46.4531 86.4926 46.5826C86.6221 46.7122 86.7517 46.8093 86.8812 46.8741C87.0108 46.8741 87.1727 46.9389 87.367 47.0684C87.6909 47.1332 87.95 47.198 88.1443 47.2627C88.2739 47.3923 88.4034 47.5542 88.533 47.7485C88.6625 47.9428 88.7273 48.2019 88.7273 48.5258C88.7273 48.9792 88.5653 49.3355 88.2415 49.5946C87.9824 49.7889 87.5937 49.886 87.0756 49.886C86.7517 49.886 86.4926 49.8537 86.2983 49.7889C86.104 49.7241 85.8773 49.6593 85.6182 49.5946L85.7153 49.0116Z" fill="#CFCF37"/>
</g>
</g>
<rect x="1.55641" y="1.18165" width="141.5" height="85.5005" rx="3.13661" stroke="white" stroke-width="1.49954"/>
<defs>
<clipPath id="clip0_214_14074">
<rect x="0.806641" y="0.431885" width="143" height="87" rx="3.88638" fill="white"/>
</clipPath>
<clipPath id="clip1_214_14074">
<rect width="110.762" height="24.2899" fill="white" transform="translate(16.9258 39.6842)"/>
</clipPath>
</defs>
</svg>
