<svg width="144" height="87" viewBox="0 0 144 87" fill="none" xmlns="http://www.w3.org/2000/svg">
<g clip-path="url(#clip0_214_14877)">
<rect x="0.245117" y="0.431885" width="143" height="86" rx="3.88638" fill="white"/>
<path d="M0.245117 5.81307C0.245117 -0.884375 5.67446 -6.31372 12.3719 -6.31372L26.1919 -6.31372V5.81307L0.245117 5.81307V5.81307Z" fill="white"/>
<rect x="26.1924" y="-6.31372" width="91.1064" height="12.1268" fill="white"/>
<path d="M117.298 -6.31372L131.118 -6.31372C137.815 -6.31372 143.245 -0.884375 143.245 5.81307V5.81307L117.298 5.81307V-6.31372Z" fill="white"/>
<rect width="143" height="15" transform="translate(0.245117 5.81299)" fill="white"/>
<path d="M39.4227 9.65158H42.5823C43.4917 9.65158 44.2107 9.82647 44.7393 10.1762C45.2678 10.5221 45.5321 11.0643 45.5321 11.8027C45.5321 12.2496 45.4213 12.6305 45.1998 12.9453C44.9783 13.2562 44.679 13.4777 44.302 13.6099C44.7295 13.7498 45.0696 13.9849 45.3222 14.3152C45.5787 14.6456 45.707 15.0556 45.707 15.5453C45.707 16.3148 45.4446 16.8861 44.92 17.2592C44.3992 17.6284 43.6705 17.813 42.7339 17.813H39.4227V9.65158ZM42.6931 14.1112H40.3613V16.9327H42.6931C43.0118 16.9327 43.2896 16.9094 43.5267 16.8628C43.7677 16.8161 43.9795 16.7403 44.1621 16.6354C44.3487 16.5305 44.4886 16.3847 44.5819 16.1982C44.6751 16.0116 44.7218 15.7843 44.7218 15.5161C44.7218 15.0031 44.5469 14.6417 44.1971 14.4318C43.8512 14.2181 43.3499 14.1112 42.6931 14.1112ZM42.5473 10.5318H40.3613V13.2368H42.5532C42.8524 13.2368 43.1148 13.2173 43.3402 13.1785C43.5695 13.1357 43.7774 13.0658 43.9639 12.9686C44.1544 12.8715 44.2982 12.7315 44.3953 12.5489C44.4964 12.3623 44.5469 12.1369 44.5469 11.8727C44.5469 11.6161 44.4964 11.3985 44.3953 11.2197C44.2982 11.0371 44.1544 10.8972 43.9639 10.8C43.7735 10.7028 43.5636 10.6348 43.3343 10.596C43.1089 10.5532 42.8466 10.5318 42.5473 10.5318ZM52.3897 12.2924V15.5103C52.3897 15.9067 52.3217 16.2623 52.1856 16.5771C52.0496 16.888 51.865 17.1406 51.6318 17.335C51.3986 17.5293 51.1324 17.677 50.8332 17.778C50.5378 17.8752 50.2211 17.9238 49.883 17.9238C49.541 17.9238 49.2203 17.8752 48.9211 17.778C48.6257 17.677 48.3614 17.5293 48.1283 17.335C47.8951 17.1406 47.7105 16.888 47.5744 16.5771C47.4423 16.2623 47.3762 15.9067 47.3762 15.5103V12.2924H48.2448V15.4287C48.2448 15.9806 48.3945 16.3983 48.6937 16.6821C48.993 16.9658 49.3894 17.1076 49.883 17.1076C50.3765 17.1076 50.771 16.9658 51.0664 16.6821C51.3656 16.3983 51.5152 15.9806 51.5152 15.4287V12.2924H52.3897ZM58.1114 12.2924V13.0794H55.7271V15.8659C55.7271 16.2818 55.8262 16.5927 56.0244 16.7986C56.2226 17.0046 56.4888 17.1076 56.8231 17.1076C57.2389 17.1076 57.6256 16.9774 57.9831 16.717L58.3912 17.3758C57.9093 17.7411 57.3633 17.9238 56.7531 17.9238C56.1468 17.9238 55.6785 17.7547 55.3482 17.4166C55.0217 17.0746 54.8585 16.5635 54.8585 15.8834V13.0794H53.6518V12.2924H54.8585V10.5377H55.7271V12.2924H58.1114ZM64.7966 12.2924L60.302 20.1681H59.3402L61.398 16.6179L58.8621 12.2924H59.8357L61.8935 15.7551L63.8406 12.2924H64.7966ZM68.4092 12.1816C68.8133 12.1816 69.1515 12.2438 69.4235 12.3682L69.2136 13.2251C68.9416 13.0774 68.6229 13.0036 68.2576 13.0036C67.8223 13.0036 67.4667 13.161 67.1908 13.4758C66.9148 13.7906 66.7769 14.2064 66.7769 14.7233V17.813H65.9083V12.2924H66.7711V13.0677C66.9615 12.784 67.1966 12.5664 67.4764 12.4148C67.7601 12.2593 68.071 12.1816 68.4092 12.1816ZM71.6217 12.2924V17.813H70.7473V12.2924H71.6217ZM71.1845 9.71571C71.3555 9.71571 71.5012 9.77595 71.6217 9.89642C71.7422 10.013 71.8024 10.1588 71.8024 10.3336C71.8024 10.5085 71.7422 10.6543 71.6217 10.7709C71.5051 10.8875 71.3594 10.9457 71.1845 10.9457C71.0096 10.9457 70.8639 10.8875 70.7473 10.7709C70.6307 10.6543 70.5724 10.5085 70.5724 10.3336C70.5724 10.1588 70.6307 10.013 70.7473 9.89642C70.8639 9.77595 71.0096 9.71571 71.1845 9.71571ZM76.0988 12.1816C76.5108 12.1816 76.8936 12.2574 77.2473 12.409C77.6009 12.5567 77.9002 12.7704 78.145 13.0502L77.5854 13.639C77.1462 13.2115 76.6429 12.9978 76.0755 12.9978C75.5198 12.9978 75.0553 13.1921 74.6822 13.5807C74.313 13.9694 74.1284 14.459 74.1284 15.0498C74.1284 15.6444 74.313 16.136 74.6822 16.5247C75.0553 16.9133 75.5198 17.1076 76.0755 17.1076C76.6507 17.1076 77.1598 16.8919 77.6029 16.4605L78.145 17.0551C77.8963 17.335 77.5951 17.5507 77.2414 17.7022C76.8878 17.8499 76.5069 17.9238 76.0988 17.9238C75.2594 17.9238 74.5734 17.6517 74.041 17.1076C73.5086 16.5635 73.2423 15.8776 73.2423 15.0498C73.2423 14.2259 73.5086 13.5419 74.041 12.9978C74.5734 12.4537 75.2594 12.1816 76.0988 12.1816ZM87.9599 12.2924V17.813H87.0913V16.991C86.6094 17.6128 85.9371 17.9238 85.0743 17.9238C84.2931 17.9238 83.6383 17.6517 83.1097 17.1076C82.5812 16.5596 82.3169 15.8737 82.3169 15.0498C82.3169 14.2259 82.5812 13.5419 83.1097 12.9978C83.6383 12.4537 84.2931 12.1816 85.0743 12.1816C85.9332 12.1816 86.6055 12.4925 87.0913 13.1144V12.2924H87.9599ZM85.1792 12.9978C84.5963 12.9978 84.1202 13.196 83.751 13.5924C83.3856 13.9849 83.203 14.4707 83.203 15.0498C83.203 15.6288 83.3876 16.1166 83.7568 16.513C84.126 16.9094 84.6001 17.1076 85.1792 17.1076C85.7505 17.1076 86.2208 16.9133 86.59 16.5247C86.9592 16.1321 87.1438 15.6405 87.1438 15.0498C87.1438 14.4629 86.9592 13.9752 86.59 13.5865C86.2208 13.194 85.7505 12.9978 85.1792 12.9978ZM92.4376 12.1816C92.8495 12.1816 93.2323 12.2574 93.586 12.409C93.9397 12.5567 94.2389 12.7704 94.4838 13.0502L93.9241 13.639C93.485 13.2115 92.9817 12.9978 92.4143 12.9978C91.8585 12.9978 91.3941 13.1921 91.021 13.5807C90.6518 13.9694 90.4672 14.459 90.4672 15.0498C90.4672 15.6444 90.6518 16.136 91.021 16.5247C91.3941 16.9133 91.8585 17.1076 92.4143 17.1076C92.9894 17.1076 93.4986 16.8919 93.9416 16.4605L94.4838 17.0551C94.235 17.335 93.9338 17.5507 93.5802 17.7022C93.2265 17.8499 92.8456 17.9238 92.4376 17.9238C91.5981 17.9238 90.9122 17.6517 90.3797 17.1076C89.8473 16.5635 89.5811 15.8776 89.5811 15.0498C89.5811 14.2259 89.8473 13.5419 90.3797 12.9978C90.9122 12.4537 91.5981 12.1816 92.4376 12.1816ZM96.8415 12.2924V17.813H95.967V12.2924H96.8415ZM96.4042 9.71571C96.5752 9.71571 96.721 9.77595 96.8415 9.89642C96.9619 10.013 97.0222 10.1588 97.0222 10.3336C97.0222 10.5085 96.9619 10.6543 96.8415 10.7709C96.7249 10.8875 96.5791 10.9457 96.4042 10.9457C96.2294 10.9457 96.0836 10.8875 95.967 10.7709C95.8504 10.6543 95.7921 10.5085 95.7921 10.3336C95.7921 10.1588 95.8504 10.013 95.967 9.89642C96.0836 9.77595 96.2294 9.71571 96.4042 9.71571ZM101.219 12.1816C102.078 12.1816 102.751 12.4925 103.237 13.1144V9.4184L104.105 9.4184V17.813H103.237V16.991C102.755 17.6128 102.082 17.9238 101.219 17.9238C100.438 17.9238 99.7835 17.6517 99.2549 17.1076C98.7264 16.5596 98.4621 15.8737 98.4621 15.0498C98.4621 14.2259 98.7264 13.5419 99.2549 12.9978C99.7835 12.4537 100.438 12.1816 101.219 12.1816ZM101.324 12.9978C100.741 12.9978 100.265 13.196 99.8962 13.5924C99.5308 13.9849 99.3482 14.4707 99.3482 15.0498C99.3482 15.6288 99.5328 16.1166 99.902 16.513C100.271 16.9094 100.745 17.1076 101.324 17.1076C101.896 17.1076 102.366 16.9133 102.735 16.5247C103.104 16.1321 103.289 15.6405 103.289 15.0498C103.289 14.4629 103.104 13.9752 102.735 13.5865C102.366 13.194 101.896 12.9978 101.324 12.9978Z" fill="#231F20"/>
<g clip-path="url(#clip1_214_14877)">
<path d="M128.584 20.813L14.9072 20.813V81.0519H128.584V20.813Z" fill="white"/>
<path d="M40.46 55.9848L56.6856 49.4751" stroke="#231F20" stroke-width="0.971596"/>
<path d="M56.6855 49.4751L70.4822 60.2598" stroke="#231F20" stroke-width="0.971596"/>
<path d="M70.4824 60.2597L86.7081 53.75" stroke="#231F20" stroke-width="0.971596"/>
<path d="M85.251 54.333L91.0806 58.8023" stroke="#231F20" stroke-width="0.971596"/>
<path d="M91.0811 58.8022L96.8135 63.3687" stroke="#FF6A00" stroke-width="0.971596"/>
<path d="M86.9023 52.2927L92.6348 56.7621" stroke="#231F20" stroke-width="0.971596"/>
<path d="M92.6348 56.762L98.3672 61.3285" stroke="#FF6A00" stroke-width="0.971596"/>
<path d="M86.709 53.7501L87.6806 46.6575" stroke="#231F20" stroke-width="0.971596"/>
<path d="M87.6797 46.6576L88.7484 39.5649" stroke="#FF6A00" stroke-width="0.971596"/>
<path d="M55.9092 49.7666L56.6865 49.4751L57.3666 49.9609" stroke="#231F20" stroke-width="0.971596"/>
<path d="M69.8027 59.7739L70.4829 60.2597L71.2601 59.9682" stroke="#231F20" stroke-width="0.971596"/>
<path d="M85.9307 54.0414L86.7079 53.75V53.3613" stroke="#231F20" stroke-width="0.971596"/>
<path d="M98.1729 64.5347C98.1729 63.7574 98.3672 63.1421 98.7558 62.6887C99.1445 62.3 99.695 62.1057 100.408 62.1057C101.185 62.1057 101.768 62.3 102.156 62.6887C102.545 63.1421 102.739 63.7574 102.739 64.5347C102.739 65.3768 102.545 66.0245 102.156 66.4779C101.768 66.9313 101.185 67.158 100.408 67.158C99.695 67.158 99.1445 66.9313 98.7558 66.4779C98.3672 66.0245 98.1729 65.3768 98.1729 64.5347ZM100.408 66.5751C100.926 66.5751 101.314 66.4131 101.573 66.0893C101.897 65.7654 102.059 65.2472 102.059 64.5347C102.059 63.887 101.897 63.4012 101.573 63.0773C101.314 62.7534 100.926 62.5915 100.408 62.5915C99.9541 62.5915 99.5655 62.7534 99.2416 63.0773C98.9825 63.4012 98.853 63.887 98.853 64.5347C98.853 65.2472 98.9825 65.7654 99.2416 66.0893C99.5655 66.4131 99.9541 66.5751 100.408 66.5751Z" fill="#FF6A00"/>
<path d="M86.9023 36.4556C86.9023 35.6783 87.0967 35.063 87.4853 34.6096C87.8739 34.1561 88.4245 33.9294 89.137 33.9294C89.9143 33.9294 90.4972 34.1561 90.8859 34.6096C91.2745 35.063 91.4688 35.6783 91.4688 36.4556C91.4688 37.2329 91.2745 37.8806 90.8859 38.3988C90.4972 38.7874 89.9143 38.9817 89.137 38.9817C88.4245 38.9817 87.8739 38.7874 87.4853 38.3988C87.0967 37.9454 86.9023 37.2976 86.9023 36.4556ZM89.137 38.4959C89.6552 38.4959 90.0438 38.334 90.3029 38.0101C90.6268 37.6215 90.7887 37.1033 90.7887 36.4556C90.7887 35.8079 90.6268 35.3221 90.3029 34.9982C90.0438 34.6743 89.6552 34.5124 89.137 34.5124C88.6836 34.5124 88.295 34.6743 87.9711 34.9982C87.712 35.3221 87.5825 35.8079 87.5825 36.4556C87.5825 37.1033 87.712 37.6215 87.9711 38.0101C88.295 38.334 88.6836 38.4959 89.137 38.4959Z" fill="#FF6A00"/>
<path d="M92.2461 34.0266H92.9262V36.067H95.4524V34.0266H96.1325V38.9818H95.4524V36.6499H92.9262V38.9818H92.2461V34.0266Z" fill="#FF6A00"/>
</g>
<path d="M0.245117 81.052H26.1919V93.1775H12.3706C5.6739 93.1775 0.245117 87.7487 0.245117 81.052V81.052Z" fill="white"/>
<rect x="26.1924" y="81.052" width="91.1064" height="12.1255" fill="white"/>
<path d="M117.298 81.052H143.245V81.052C143.245 87.7487 137.816 93.1775 131.119 93.1775H117.298V81.052Z" fill="white"/>
</g>
<rect x="0.994886" y="1.18165" width="141.5" height="84.5005" rx="3.13661" stroke="white" stroke-width="1.49954"/>
<defs>
<clipPath id="clip0_214_14877">
<rect x="0.245117" y="0.431885" width="143" height="86" rx="3.88638" fill="white"/>
</clipPath>
<clipPath id="clip1_214_14877">
<rect width="113.677" height="60.2389" fill="white" transform="translate(14.9072 20.813)"/>
</clipPath>
</defs>
</svg>
