<svg width="145" height="87" viewBox="0 0 145 87" fill="none" xmlns="http://www.w3.org/2000/svg">
<g clip-path="url(#clip0_214_15057)">
<rect x="0.181641" y="0.431885" width="144" height="86" rx="3.88638" fill="white"/>
<rect width="144" height="15" transform="translate(0.181641 12.6323)" fill="white"/>
<path d="M51.2978 16.4709V20.0794H56.2354V16.4709H57.174V24.6323H56.2354V20.9655H51.2978V24.6323H50.3592V16.4709H51.2978ZM61.6876 19.001C62.4377 19.001 63.0556 19.2672 63.5414 19.7996C64.0311 20.332 64.2779 21.016 64.2818 21.8516C64.2818 21.9721 64.276 22.0809 64.2643 22.1781H59.8397C59.8979 22.7533 60.1078 23.1982 60.4692 23.513C60.8307 23.824 61.2718 23.9794 61.7926 23.9794C62.4532 23.9794 63.0362 23.7482 63.5414 23.2857L64.0078 23.8803C63.4054 24.4555 62.6495 24.7431 61.7401 24.7431C60.9201 24.7431 60.2497 24.4788 59.7289 23.9503C59.2081 23.4178 58.9477 22.7261 58.9477 21.8749C58.9477 21.0355 59.2062 20.3476 59.7231 19.8113C60.24 19.2711 60.8948 19.001 61.6876 19.001ZM61.6701 19.7763C61.1727 19.7763 60.7627 19.9317 60.4401 20.2427C60.1175 20.5536 59.9213 20.9636 59.8513 21.4727H63.3957C63.3413 20.9558 63.1567 20.5438 62.8419 20.2368C62.531 19.9298 62.1404 19.7763 61.6701 19.7763ZM70.3619 19.1117L68.205 21.805L70.4261 24.6323H69.3593L67.6162 22.4521L65.8907 24.6323H64.8705L67.0857 21.8108L64.9288 19.1117H65.9956L67.6629 21.2045L69.3359 19.1117H70.3619ZM76.6598 19.1117V24.6323H75.7912V23.8104C75.3093 24.4322 74.6369 24.7431 73.7742 24.7431C72.993 24.7431 72.3381 24.471 71.8096 23.9269C71.281 23.379 71.0168 22.693 71.0168 21.8691C71.0168 21.0452 71.281 20.3612 71.8096 19.8171C72.3381 19.273 72.993 19.001 73.7742 19.001C74.6331 19.001 75.3054 19.3119 75.7912 19.9337V19.1117H76.6598ZM73.8791 19.8171C73.2961 19.8171 72.8201 20.0153 72.4508 20.4117C72.0855 20.8042 71.9029 21.29 71.9029 21.8691C71.9029 22.4482 72.0875 22.9359 72.4567 23.3323C72.8259 23.7287 73.3 23.9269 73.8791 23.9269C74.4504 23.9269 74.9206 23.7326 75.2898 23.344C75.6591 22.9515 75.8437 22.4598 75.8437 21.8691C75.8437 21.2823 75.6591 20.7945 75.2898 20.4059C74.9206 20.0134 74.4504 19.8171 73.8791 19.8171ZM81.4231 19.001C82.1071 19.001 82.6609 19.203 83.0845 19.6072C83.512 20.0114 83.7258 20.5458 83.7258 21.2104V24.6323H82.8572V21.496C82.8572 20.9714 82.7173 20.5633 82.4375 20.2718C82.1615 19.9764 81.7709 19.8288 81.2657 19.8288C80.7877 19.8288 80.3854 19.9842 80.059 20.2951C79.7364 20.6021 79.5751 21.0102 79.5751 21.5193V24.6323H78.7007V19.1117H79.5635V19.8987C79.7733 19.5878 80.0434 19.3604 80.3738 19.2166C80.7041 19.0729 81.0539 19.001 81.4231 19.001ZM90.9263 19.1117V24.6323H90.0577V23.8104C89.5758 24.4322 88.9035 24.7431 88.0407 24.7431C87.2595 24.7431 86.6047 24.471 86.0761 23.9269C85.5476 23.379 85.2833 22.693 85.2833 21.8691C85.2833 21.0452 85.5476 20.3612 86.0761 19.8171C86.6047 19.273 87.2595 19.001 88.0407 19.001C88.8996 19.001 89.5719 19.3119 90.0577 19.9337V19.1117H90.9263ZM88.1456 19.8171C87.5627 19.8171 87.0866 20.0153 86.7174 20.4117C86.352 20.8042 86.1694 21.29 86.1694 21.8691C86.1694 22.4482 86.354 22.9359 86.7232 23.3323C87.0924 23.7287 87.5665 23.9269 88.1456 23.9269C88.7169 23.9269 89.1872 23.7326 89.5564 23.344C89.9256 22.9515 90.1102 22.4598 90.1102 21.8691C90.1102 21.2823 89.9256 20.7945 89.5564 20.4059C89.1872 20.0134 88.7169 19.8171 88.1456 19.8171ZM93.8417 16.2377V24.6323H92.9672V16.2377H93.8417Z" fill="#231F20"/>
<path d="M0.181641 39.7591C0.181641 33.0617 5.61099 27.6323 12.3084 27.6323H26.1284V39.7591H0.181641V39.7591Z" fill="white"/>
<rect x="26.1289" y="27.6323" width="92.1064" height="12.1268" fill="white"/>
<path d="M118.234 27.6323H132.054C138.752 27.6323 144.181 33.0617 144.181 39.7591V39.7591H118.234V27.6323Z" fill="white"/>
<g clip-path="url(#clip1_214_15057)">
<path d="M156.71 39.7593L-12.3477 39.7593V62.106L156.71 62.106V39.7593Z" fill="white"/>
<path d="M25.6416 53.07L40.7985 44.3257" stroke="#231F20" stroke-width="0.971596"/>
<path d="M40.7988 44.3257L55.9557 53.07" stroke="#231F20" stroke-width="0.971596"/>
<path d="M55.9551 53.07L71.112 44.3257" stroke="#231F20" stroke-width="0.971596"/>
<path d="M71.1133 44.3257L86.2702 53.07" stroke="#231F20" stroke-width="0.971596"/>
<path d="M86.2695 53.07L101.329 44.3257" stroke="#231F20" stroke-width="0.971596"/>
<path d="M101.329 44.3257L107.547 47.9206" stroke="#231F20" stroke-width="0.971596"/>
<path d="M107.548 47.9207L113.669 51.4184" stroke="#FF6A00" stroke-width="0.971596"/>
<path d="M101.329 47.4348L106.187 50.1553" stroke="#231F20" stroke-width="0.971596"/>
<path d="M106.188 50.1553L112.309 53.7502" stroke="#FF6A00" stroke-width="0.971596"/>
<path d="M40.0215 44.8115L40.7988 44.3257L41.576 44.8115" stroke="#231F20" stroke-width="0.971596"/>
<path d="M55.1787 52.6816L55.956 53.0703L56.7333 52.6816" stroke="#231F20" stroke-width="0.971596"/>
<path d="M70.335 44.8115L71.1122 44.3257L71.7924 44.8115" stroke="#231F20" stroke-width="0.971596"/>
<path d="M85.4922 52.6816L86.2695 53.0703L86.9496 52.6816" stroke="#231F20" stroke-width="0.971596"/>
<path d="M100.648 44.8115L101.329 44.3257L101.717 44.52" stroke="#231F20" stroke-width="0.971596"/>
<path d="M113.57 54.2361C113.57 53.4588 113.765 52.8435 114.153 52.3901C114.542 51.9367 115.125 51.71 115.902 51.71C116.615 51.71 117.165 51.9367 117.554 52.3901C117.942 52.8435 118.137 53.4588 118.137 54.2361C118.137 55.0782 117.942 55.7259 117.554 56.1793C117.165 56.6327 116.615 56.8594 115.902 56.8594C115.125 56.8594 114.542 56.6327 114.153 56.1793C113.765 55.7259 113.57 55.0782 113.57 54.2361ZM115.902 56.2765C116.356 56.2765 116.744 56.1145 117.068 55.7907C117.327 55.402 117.457 54.8838 117.457 54.2361C117.457 53.5884 117.327 53.1026 117.068 52.7787C116.744 52.4549 116.356 52.2929 115.902 52.2929C115.384 52.2929 114.995 52.4549 114.736 52.7787C114.412 53.1026 114.25 53.5884 114.25 54.2361C114.25 54.9486 114.412 55.4668 114.736 55.7907C114.995 56.1145 115.384 56.2765 115.902 56.2765Z" fill="#FF6A00"/>
</g>
<path d="M0.181641 62.106H26.1284V74.2315H12.3072C5.61043 74.2315 0.181641 68.8027 0.181641 62.106V62.106Z" fill="white"/>
<rect x="26.1289" y="62.106" width="92.1064" height="12.1255" fill="white"/>
<path d="M118.234 62.106H144.181V62.106C144.181 68.8027 138.752 74.2315 132.056 74.2315H118.234V62.106Z" fill="white"/>
</g>
<rect x="0.93141" y="1.18165" width="142.5" height="84.5005" rx="3.13661" stroke="white" stroke-width="1.49954"/>
<defs>
<clipPath id="clip0_214_15057">
<rect x="0.181641" y="0.431885" width="144" height="86" rx="3.88638" fill="white"/>
</clipPath>
<clipPath id="clip1_214_15057">
<rect width="169.058" height="22.3467" fill="white" transform="translate(-12.3477 39.7593)"/>
</clipPath>
</defs>
</svg>
