<svg width="144" height="87" viewBox="0 0 144 87" fill="none" xmlns="http://www.w3.org/2000/svg">
<g clip-path="url(#clip0_214_14589)">
<rect x="0.119141" y="0.431885" width="143" height="86" rx="3.88638" fill="white"/>
<path d="M0.119141 8.72786C0.119141 2.03042 5.54849 -3.39893 12.2459 -3.39893L26.0659 -3.39893V8.72786H0.119141V8.72786Z" fill="white"/>
<rect x="26.0664" y="-3.39893" width="91.1064" height="12.1268" fill="white"/>
<path d="M117.172 -3.39893L130.992 -3.39893C137.689 -3.39893 143.119 2.03042 143.119 8.72786V8.72786L117.172 8.72786V-3.39893Z" fill="white"/>
<rect width="143" height="15" transform="translate(0.119141 8.72778)" fill="white"/>
<path d="M35.2676 14.3386L34.6147 13.8139C35.2209 12.9123 36.0546 12.4614 37.1155 12.4614C37.9239 12.4614 38.5593 12.6985 39.0218 13.1727C39.4882 13.6429 39.7214 14.2472 39.7214 14.9857C39.7214 15.4404 39.6203 15.8504 39.4182 16.2157C39.22 16.581 38.9557 16.9405 38.6254 17.2942L36.1886 19.8708H39.9895V20.7278H34.8537V20.0224L37.9375 16.7695C38.4972 16.1827 38.777 15.588 38.777 14.9857C38.777 14.4999 38.6273 14.1015 38.3281 13.7906C38.0288 13.4758 37.6149 13.3184 37.0864 13.3184C36.6628 13.3184 36.3091 13.4097 36.0254 13.5924C35.7456 13.775 35.493 14.0238 35.2676 14.3386ZM44.5357 17.2475V18.0403H41.2944V17.2475H44.5357ZM47.4731 12.5664V16.1749H52.4108V12.5664H53.3494V20.7278H52.4108V17.061H47.4731V20.7278H46.5346V12.5664H47.4731ZM57.863 15.0964C58.6131 15.0964 59.231 15.3626 59.7168 15.8951C60.2065 16.4275 60.4533 17.1115 60.4572 17.9471C60.4572 18.0676 60.4513 18.1764 60.4397 18.2735H56.015C56.0733 18.8487 56.2832 19.2937 56.6446 19.6085C57.0061 19.9194 57.4472 20.0749 57.9679 20.0749C58.6286 20.0749 59.2116 19.8436 59.7168 19.3812L60.1832 19.9758C59.5808 20.551 58.8249 20.8385 57.9155 20.8385C57.0954 20.8385 56.425 20.5743 55.9043 20.0457C55.3835 19.5133 55.1231 18.8215 55.1231 17.9704C55.1231 17.1309 55.3815 16.443 55.8984 15.9067C56.4153 15.3665 57.0702 15.0964 57.863 15.0964ZM57.8455 15.8717C57.3481 15.8717 56.938 16.0272 56.6155 16.3381C56.2929 16.649 56.0966 17.059 56.0267 17.5682H59.5711C59.5167 17.0513 59.3321 16.6393 59.0173 16.3323C58.7063 16.0253 58.3158 15.8717 57.8455 15.8717ZM64.964 15.0964C65.7451 15.0964 66.4 15.3685 66.9285 15.9126C67.4571 16.4566 67.7214 17.1407 67.7214 17.9646C67.7214 18.7885 67.4571 19.4744 66.9285 20.0224C66.4 20.5665 65.7451 20.8385 64.964 20.8385C64.1051 20.8385 63.4347 20.5296 62.9528 19.9116V23.0596H62.0783V15.2072H62.9528V16.0233C63.4347 15.4054 64.1051 15.0964 64.964 15.0964ZM64.859 15.9126C64.2877 15.9126 63.8175 16.1088 63.4483 16.5013C63.0791 16.89 62.8945 17.3777 62.8945 17.9646C62.8945 18.5553 63.0791 19.0469 63.4483 19.4394C63.8175 19.8281 64.2877 20.0224 64.859 20.0224C65.442 20.0224 65.9161 19.8261 66.2815 19.4336C66.6468 19.0372 66.8294 18.5475 66.8294 17.9646C66.8294 17.3855 66.6448 16.8997 66.2756 16.5072C65.9064 16.1108 65.4342 15.9126 64.859 15.9126ZM73.034 15.2072V15.9942H70.6497V18.7807C70.6497 19.1965 70.7488 19.5075 70.947 19.7134C71.1452 19.9194 71.4115 20.0224 71.7457 20.0224C72.1615 20.0224 72.5482 19.8922 72.9058 19.6318L73.3138 20.2906C72.8319 20.6559 72.2859 20.8385 71.6757 20.8385C71.0694 20.8385 70.6011 20.6695 70.2708 20.3314C69.9443 19.9894 69.7811 19.4783 69.7811 18.7982V15.9942H68.5744V15.2072H69.7811V13.4525L70.6497 13.4525V15.2072H73.034ZM79.7692 15.2072V20.7278H78.9006V19.9058C78.4187 20.5276 77.7463 20.8385 76.8835 20.8385C76.1024 20.8385 75.4475 20.5665 74.919 20.0224C74.3904 19.4744 74.1261 18.7885 74.1261 17.9646C74.1261 17.1407 74.3904 16.4566 74.919 15.9126C75.4475 15.3685 76.1024 15.0964 76.8835 15.0964C77.7424 15.0964 78.4148 15.4073 78.9006 16.0291V15.2072H79.7692ZM76.9885 15.9126C76.4055 15.9126 75.9294 16.1108 75.5602 16.5072C75.1949 16.8997 75.0122 17.3855 75.0122 17.9646C75.0122 18.5436 75.1968 19.0314 75.5661 19.4278C75.9353 19.8242 76.4094 20.0224 76.9885 20.0224C77.5598 20.0224 78.03 19.8281 78.3992 19.4394C78.7684 19.0469 78.953 18.5553 78.953 17.9646C78.953 17.3777 78.7684 16.89 78.3992 16.5013C78.03 16.1088 77.5598 15.9126 76.9885 15.9126ZM84.5325 15.0964C85.2165 15.0964 85.7703 15.2985 86.1939 15.7027C86.6214 16.1069 86.8352 16.6413 86.8352 17.3058V20.7278H85.9666V17.5915C85.9666 17.0668 85.8267 16.6587 85.5468 16.3673C85.2709 16.0719 84.8803 15.9242 84.3751 15.9242C83.8971 15.9242 83.4948 16.0797 83.1684 16.3906C82.8458 16.6976 82.6845 17.1057 82.6845 17.6148V20.7278H81.8101V15.2072H82.6729V15.9942C82.8827 15.6833 83.1528 15.4559 83.4832 15.3121C83.8135 15.1683 84.1633 15.0964 84.5325 15.0964ZM91.2958 15.0964C92.1275 15.0964 92.8193 15.3704 93.3711 15.9184C93.9269 16.4664 94.2048 17.1484 94.2048 17.9646C94.2048 18.7846 93.9269 19.4686 93.3711 20.0166C92.8193 20.5646 92.1275 20.8385 91.2958 20.8385C90.4641 20.8385 89.7723 20.5646 89.2205 20.0166C88.6686 19.4686 88.3927 18.7846 88.3927 17.9646C88.3927 17.1484 88.6686 16.4664 89.2205 15.9184C89.7762 15.3704 90.468 15.0964 91.2958 15.0964ZM92.7357 16.4955C92.351 16.1069 91.871 15.9126 91.2958 15.9126C90.7206 15.9126 90.2406 16.1069 89.8559 16.4955C89.4711 16.8841 89.2788 17.3738 89.2788 17.9646C89.2788 18.5592 89.4711 19.0508 89.8559 19.4394C90.2406 19.8281 90.7206 20.0224 91.2958 20.0224C91.871 20.0224 92.351 19.8281 92.7357 19.4394C93.1205 19.0508 93.3128 18.5592 93.3128 17.9646C93.3128 17.3738 93.1205 16.8841 92.7357 16.4955ZM98.5485 15.0964C99.2325 15.0964 99.7863 15.2985 100.21 15.7027C100.637 16.1069 100.851 16.6413 100.851 17.3058V20.7278H99.9826V17.5915C99.9826 17.0668 99.8427 16.6587 99.5629 16.3673C99.2869 16.0719 98.8964 15.9242 98.3911 15.9242C97.9131 15.9242 97.5109 16.0797 97.1844 16.3906C96.8618 16.6976 96.7005 17.1057 96.7005 17.6148V20.7278H95.8261V15.2072H96.6889V15.9942C96.8987 15.6833 97.1689 15.4559 97.4992 15.3121C97.8295 15.1683 98.1793 15.0964 98.5485 15.0964ZM105.149 15.0964C105.899 15.0964 106.517 15.3626 107.002 15.8951C107.492 16.4275 107.739 17.1115 107.743 17.9471C107.743 18.0676 107.737 18.1764 107.725 18.2735L103.301 18.2735C103.359 18.8487 103.569 19.2937 103.93 19.6085C104.292 19.9194 104.733 20.0749 105.254 20.0749C105.914 20.0749 106.497 19.8436 107.002 19.3812L107.469 19.9758C106.866 20.551 106.11 20.8385 105.201 20.8385C104.381 20.8385 103.711 20.5743 103.19 20.0457C102.669 19.5133 102.409 18.8215 102.409 17.9704C102.409 17.1309 102.667 16.443 103.184 15.9067C103.701 15.3665 104.356 15.0964 105.149 15.0964ZM105.131 15.8717C104.634 15.8717 104.224 16.0272 103.901 16.3381C103.579 16.649 103.382 17.059 103.312 17.5682L106.857 17.5682C106.802 17.0513 106.618 16.6393 106.303 16.3323C105.992 16.0253 105.601 15.8717 105.131 15.8717Z" fill="#231F20"/>
<g clip-path="url(#clip1_214_14589)">
<path d="M154.204 23.7278L-10.9668 23.7278V78.1371H154.204V23.7278Z" fill="white"/>
<path d="M26.3428 57.6365L42.1798 50.3495" stroke="#231F20" stroke-width="0.971596"/>
<path d="M116.896 65.7008L102.613 55.6934" stroke="#231F20" stroke-width="0.971596"/>
<path d="M42.1797 50.3495L56.5593 60.3569" stroke="#231F20" stroke-width="0.971596"/>
<path d="M56.5596 60.3569L72.3966 52.9728" stroke="#231F20" stroke-width="0.971596"/>
<path d="M72.3955 52.9728L86.678 63.0774" stroke="#231F20" stroke-width="0.971596"/>
<path d="M86.6787 63.0775L102.613 55.6934" stroke="#231F20" stroke-width="0.971596"/>
<path d="M103.778 56.5677L104.458 48.9893" stroke="#231F20" stroke-width="0.971596"/>
<path d="M104.459 48.9893L105.139 41.5081" stroke="#FF6A00" stroke-width="0.971596"/>
<path d="M101.155 56.2763L101.835 48.795" stroke="#231F20" stroke-width="0.971596"/>
<path d="M101.835 48.7949L102.515 41.3136" stroke="#FF6A00" stroke-width="0.971596"/>
<path d="M41.4023 50.641L42.1796 50.3495L42.9569 50.8353" stroke="#231F20" stroke-width="0.971596"/>
<path d="M55.7822 59.8711L56.5595 60.3569L57.3368 59.9683" stroke="#231F20" stroke-width="0.971596"/>
<path d="M71.6191 53.3614L72.3964 52.9728L73.0765 53.4586" stroke="#231F20" stroke-width="0.971596"/>
<path d="M85.998 62.4945L86.6782 63.0775L87.4554 62.6888" stroke="#231F20" stroke-width="0.971596"/>
<path d="M103.293 56.1792L102.613 55.6934L101.738 56.082" stroke="#231F20" stroke-width="0.971596"/>
<path d="M101.835 38.3018C101.835 37.4597 102.029 36.8444 102.418 36.4558C102.807 36.0023 103.357 35.7756 104.07 35.7756C104.847 35.7756 105.43 36.0023 105.819 36.4558C106.207 36.8444 106.401 37.4597 106.401 38.3018C106.401 39.0791 106.207 39.6944 105.819 40.1478C105.43 40.6012 104.847 40.8279 104.07 40.8279C103.357 40.8279 102.807 40.6012 102.418 40.1478C102.029 39.6944 101.835 39.0791 101.835 38.3018ZM104.07 40.245C104.588 40.245 104.976 40.083 105.236 39.7592C105.559 39.4353 105.721 38.9495 105.721 38.3018C105.721 37.6541 105.559 37.1683 105.236 36.8444C104.976 36.5205 104.588 36.3586 104.07 36.3586C103.616 36.3586 103.228 36.5205 102.904 36.8444C102.645 37.1683 102.515 37.6541 102.515 38.3018C102.515 38.9495 102.645 39.4353 102.904 39.7592C103.228 40.083 103.616 40.245 104.07 40.245Z" fill="#FF6A00"/>
</g>
<path d="M0.119141 78.1372H26.0659V90.2627H12.2447C5.54793 90.2627 0.119141 84.8339 0.119141 78.1372V78.1372Z" fill="white"/>
<rect x="26.0664" y="78.1372" width="91.1064" height="12.1255" fill="white"/>
<path d="M117.172 78.1372H143.119V78.1372C143.119 84.8339 137.69 90.2627 130.993 90.2627H117.172V78.1372Z" fill="white"/>
</g>
<rect x="0.86891" y="1.18165" width="141.5" height="84.5005" rx="3.13661" stroke="white" stroke-width="1.49954"/>
<defs>
<clipPath id="clip0_214_14589">
<rect x="0.119141" y="0.431885" width="143" height="86" rx="3.88638" fill="white"/>
</clipPath>
<clipPath id="clip1_214_14589">
<rect width="165.171" height="54.4094" fill="white" transform="translate(-10.9668 23.7278)"/>
</clipPath>
</defs>
</svg>
