<svg width="145" height="87" viewBox="0 0 145 87" fill="none" xmlns="http://www.w3.org/2000/svg">
<g clip-path="url(#clip0_214_14841)">
<rect x="0.181641" y="0.431885" width="144" height="86" rx="3.88638" fill="white"/>
<path d="M0.181641 7.27034C0.181641 0.572901 5.61099 -4.85645 12.3084 -4.85645L26.1284 -4.85645V7.27034L0.181641 7.27034V7.27034Z" fill="white"/>
<rect x="26.1289" y="-4.85645" width="92.1064" height="12.1268" fill="white"/>
<path d="M118.234 -4.85645L132.054 -4.85645C138.752 -4.85645 144.181 0.572901 144.181 7.27034V7.27034L118.234 7.27034V-4.85645Z" fill="white"/>
<rect width="144" height="15" transform="translate(0.181641 7.27051)" fill="white"/>
<path d="M36.9431 15.9885H34.7978V19.2705H33.8592V11.1091H36.9431C37.8564 11.1091 38.5656 11.3248 39.0709 11.7562C39.5761 12.1876 39.8287 12.7861 39.8287 13.5517C39.8287 14.3173 39.5761 14.9158 39.0709 15.3472C38.5656 15.7747 37.8564 15.9885 36.9431 15.9885ZM36.9139 11.9952H34.7978V15.1082H36.9139C37.5474 15.1082 38.0293 14.978 38.3596 14.7176C38.69 14.4572 38.8552 14.0686 38.8552 13.5517C38.8552 13.0348 38.69 12.6462 38.3596 12.3858C38.0293 12.1254 37.5474 11.9952 36.9139 11.9952ZM43.9451 13.6391C44.3493 13.6391 44.6874 13.7013 44.9595 13.8257L44.7496 14.6826C44.4775 14.5349 44.1589 14.4611 43.7935 14.4611C43.3583 14.4611 43.0027 14.6185 42.7267 14.9333C42.4508 15.2481 42.3128 15.6639 42.3128 16.1808V19.2705H41.4442V13.7499H42.307V14.5252C42.4974 14.2415 42.7326 14.0239 43.0124 13.8723C43.2961 13.7169 43.607 13.6391 43.9451 13.6391ZM48.5389 13.6391C49.3706 13.6391 50.0624 13.9131 50.6142 14.4611C51.17 15.0091 51.4479 15.6911 51.4479 16.5073C51.4479 17.3273 51.17 18.0113 50.6142 18.5593C50.0624 19.1073 49.3706 19.3813 48.5389 19.3813C47.7072 19.3813 47.0154 19.1073 46.4636 18.5593C45.9117 18.0113 45.6358 17.3273 45.6358 16.5073C45.6358 15.6911 45.9117 15.0091 46.4636 14.4611C47.0193 13.9131 47.7111 13.6391 48.5389 13.6391ZM49.9788 15.0382C49.5941 14.6496 49.1141 14.4553 48.5389 14.4553C47.9637 14.4553 47.4838 14.6496 47.099 15.0382C46.7142 15.4269 46.5219 15.9166 46.5219 16.5073C46.5219 17.1019 46.7142 17.5935 47.099 17.9822C47.4838 18.3708 47.9637 18.5651 48.5389 18.5651C49.1141 18.5651 49.5941 18.3708 49.9788 17.9822C50.3636 17.5935 50.5559 17.1019 50.5559 16.5073C50.5559 15.9166 50.3636 15.4269 49.9788 15.0382ZM55.9549 13.6391C56.736 13.6391 57.3909 13.9112 57.9194 14.4553C58.448 14.9994 58.7122 15.6834 58.7122 16.5073C58.7122 17.3312 58.448 18.0171 57.9194 18.5651C57.3909 19.1092 56.736 19.3813 55.9549 19.3813C55.096 19.3813 54.4256 19.0723 53.9437 18.4544V21.6023H53.0692V13.7499H53.9437V14.566C54.4256 13.9481 55.096 13.6391 55.9549 13.6391ZM55.8499 14.4553C55.2786 14.4553 54.8084 14.6515 54.4392 15.0441C54.07 15.4327 53.8854 15.9204 53.8854 16.5073C53.8854 17.098 54.07 17.5896 54.4392 17.9822C54.8084 18.3708 55.2786 18.5651 55.8499 18.5651C56.4329 18.5651 56.907 18.3689 57.2723 17.9763C57.6377 17.5799 57.8203 17.0902 57.8203 16.5073C57.8203 15.9282 57.6357 15.4424 57.2665 15.0499C56.8973 14.6535 56.4251 14.4553 55.8499 14.4553ZM61.2078 13.7499V19.2705H60.3334V13.7499H61.2078ZM60.7706 11.1732C60.9416 11.1732 61.0874 11.2335 61.2078 11.3539C61.3283 11.4705 61.3886 11.6163 61.3886 11.7912C61.3886 11.966 61.3283 12.1118 61.2078 12.2284C61.0913 12.345 60.9455 12.4033 60.7706 12.4033C60.5957 12.4033 60.45 12.345 60.3334 12.2284C60.2168 12.1118 60.1585 11.966 60.1585 11.7912C60.1585 11.6163 60.2168 11.4705 60.3334 11.3539C60.45 11.2335 60.5957 11.1732 60.7706 11.1732ZM65.7316 13.6391C66.5633 13.6391 67.2551 13.9131 67.8069 14.4611C68.3627 15.0091 68.6406 15.6911 68.6406 16.5073C68.6406 17.3273 68.3627 18.0113 67.8069 18.5593C67.2551 19.1073 66.5633 19.3813 65.7316 19.3813C64.8999 19.3813 64.2081 19.1073 63.6563 18.5593C63.1044 18.0113 62.8285 17.3273 62.8285 16.5073C62.8285 15.6911 63.1044 15.0091 63.6563 14.4611C64.212 13.9131 64.9038 13.6391 65.7316 13.6391ZM67.1715 15.0382C66.7868 14.6496 66.3068 14.4553 65.7316 14.4553C65.1564 14.4553 64.6764 14.6496 64.2917 15.0382C63.9069 15.4269 63.7146 15.9166 63.7146 16.5073C63.7146 17.1019 63.9069 17.5935 64.2917 17.9822C64.6764 18.3708 65.1564 18.5651 65.7316 18.5651C66.3068 18.5651 66.7868 18.3708 67.1715 17.9822C67.5563 17.5935 67.7486 17.1019 67.7486 16.5073C67.7486 15.9166 67.5563 15.4269 67.1715 15.0382ZM72.9843 13.6391C73.6683 13.6391 74.2221 13.8412 74.6458 14.2454C75.0733 14.6496 75.287 15.184 75.287 15.8485V19.2705H74.4184V16.1342C74.4184 15.6095 74.2785 15.2015 73.9987 14.91C73.7227 14.6146 73.3322 14.4669 72.8269 14.4669C72.3489 14.4669 71.9467 14.6224 71.6202 14.9333C71.2976 15.2403 71.1363 15.6484 71.1363 16.1575V19.2705H70.2619V13.7499H71.1247V14.5369C71.3346 14.226 71.6047 13.9986 71.935 13.8548C72.2653 13.711 72.6151 13.6391 72.9843 13.6391ZM78.1387 13.7499V19.2705H77.2642V13.7499H78.1387ZM77.7015 11.1732C77.8725 11.1732 78.0182 11.2335 78.1387 11.3539C78.2591 11.4705 78.3194 11.6163 78.3194 11.7912C78.3194 11.966 78.2591 12.1118 78.1387 12.2284C78.0221 12.345 77.8763 12.4033 77.7015 12.4033C77.5266 12.4033 77.3808 12.345 77.2642 12.2284C77.1476 12.1118 77.0893 11.966 77.0893 11.7912C77.0893 11.6163 77.1476 11.4705 77.2642 11.3539C77.3808 11.2335 77.5266 11.1732 77.7015 11.1732ZM82.6158 13.6391C83.0277 13.6391 83.4105 13.7149 83.7642 13.8665C84.1179 14.0142 84.4171 14.2279 84.662 14.5077L84.1023 15.0965C83.6632 14.669 83.1599 14.4553 82.5925 14.4553C82.0367 14.4553 81.5723 14.6496 81.1992 15.0382C80.83 15.4269 80.6454 15.9166 80.6454 16.5073C80.6454 17.1019 80.83 17.5935 81.1992 17.9822C81.5723 18.3708 82.0367 18.5651 82.5925 18.5651C83.1676 18.5651 83.6768 18.3494 84.1198 17.918L84.662 18.5127C84.4132 18.7925 84.112 19.0082 83.7584 19.1597C83.4047 19.3074 83.0239 19.3813 82.6158 19.3813C81.7763 19.3813 81.0904 19.1092 80.5579 18.5651C80.0255 18.021 79.7593 17.3351 79.7593 16.5073C79.7593 15.6834 80.0255 14.9994 80.5579 14.4553C81.0904 13.9112 81.7763 13.6391 82.6158 13.6391ZM94.4769 13.7499V19.2705H93.6083V18.4485C93.1264 19.0704 92.454 19.3813 91.5912 19.3813C90.8101 19.3813 90.1552 19.1092 89.6267 18.5651C89.0981 18.0171 88.8338 17.3312 88.8338 16.5073C88.8338 15.6834 89.0981 14.9994 89.6267 14.4553C90.1552 13.9112 90.8101 13.6391 91.5912 13.6391C92.4501 13.6391 93.1225 13.95 93.6083 14.5719V13.7499H94.4769ZM91.6962 14.4553C91.1132 14.4553 90.6371 14.6535 90.2679 15.0499C89.9026 15.4424 89.7199 15.9282 89.7199 16.5073C89.7199 17.0864 89.9045 17.5741 90.2738 17.9705C90.643 18.3669 91.1171 18.5651 91.6962 18.5651C92.2675 18.5651 92.7377 18.3708 93.1069 17.9822C93.4761 17.5896 93.6607 17.098 93.6607 16.5073C93.6607 15.9204 93.4761 15.4327 93.1069 15.0441C92.7377 14.6515 92.2675 14.4553 91.6962 14.4553ZM98.9545 13.6391C99.3665 13.6391 99.7493 13.7149 100.103 13.8665C100.457 14.0142 100.756 14.2279 101.001 14.5077L100.441 15.0965C100.002 14.669 99.4986 14.4553 98.9312 14.4553C98.3755 14.4553 97.911 14.6496 97.5379 15.0382C97.1687 15.4269 96.9841 15.9166 96.9841 16.5073C96.9841 17.1019 97.1687 17.5935 97.5379 17.9822C97.911 18.3708 98.3755 18.5651 98.9312 18.5651C99.5064 18.5651 100.016 18.3494 100.459 17.918L101.001 18.5127C100.752 18.7925 100.451 19.0082 100.097 19.1597C99.7435 19.3074 99.3626 19.3813 98.9545 19.3813C98.1151 19.3813 97.4291 19.1092 96.8967 18.5651C96.3643 18.021 96.098 17.3351 96.098 16.5073C96.098 15.6834 96.3643 14.9994 96.8967 14.4553C97.4291 13.9112 98.1151 13.6391 98.9545 13.6391ZM103.358 13.7499V19.2705H102.484V13.7499H103.358ZM102.921 11.1732C103.092 11.1732 103.238 11.2335 103.358 11.3539C103.479 11.4705 103.539 11.6163 103.539 11.7912C103.539 11.966 103.479 12.1118 103.358 12.2284C103.242 12.345 103.096 12.4033 102.921 12.4033C102.746 12.4033 102.601 12.345 102.484 12.2284C102.367 12.1118 102.309 11.966 102.309 11.7912C102.309 11.6163 102.367 11.4705 102.484 11.3539C102.601 11.2335 102.746 11.1732 102.921 11.1732ZM107.736 13.6391C108.595 13.6391 109.268 13.95 109.753 14.5719V10.8759H110.622V19.2705H109.753V18.4485C109.272 19.0704 108.599 19.3813 107.736 19.3813C106.955 19.3813 106.3 19.1092 105.772 18.5651C105.243 18.0171 104.979 17.3312 104.979 16.5073C104.979 15.6834 105.243 14.9994 105.772 14.4553C106.3 13.9112 106.955 13.6391 107.736 13.6391ZM107.841 14.4553C107.258 14.4553 106.782 14.6535 106.413 15.0499C106.048 15.4424 105.865 15.9282 105.865 16.5073C105.865 17.0864 106.05 17.5741 106.419 17.9705C106.788 18.3669 107.262 18.5651 107.841 18.5651C108.413 18.5651 108.883 18.3708 109.252 17.9822C109.621 17.5896 109.806 17.098 109.806 16.5073C109.806 15.9204 109.621 15.4327 109.252 15.0441C108.883 14.6515 108.413 14.4553 107.841 14.4553Z" fill="#231F20"/>
<g clip-path="url(#clip1_214_14841)">
<path d="M115.904 22.2705L28.46 22.2705V79.5947H115.904V22.2705Z" fill="white"/>
<path d="M48.2812 46.4634L63.4381 37.719" stroke="#231F20" stroke-width="0.971596"/>
<path d="M63.4375 37.719L78.5944 46.4634" stroke="#231F20" stroke-width="0.971596"/>
<path d="M78.5938 48.0177L85.1034 44.2285" stroke="#231F20" stroke-width="0.971596"/>
<path d="M85.1035 44.2287L91.6132 40.5366" stroke="#FF6A00" stroke-width="0.971596"/>
<path d="M77.3311 45.686L83.7436 41.9939" stroke="#231F20" stroke-width="0.971596"/>
<path d="M83.7441 41.9938L90.2538 38.2046" stroke="#FF6A00" stroke-width="0.971596"/>
<path d="M78.5938 46.4634V53.6532" stroke="#231F20" stroke-width="0.971596"/>
<path d="M78.5938 53.6531V60.8429" stroke="#FF6A00" stroke-width="0.971596"/>
<path d="M62.7568 38.2048L63.437 37.719L64.2142 38.2048" stroke="#231F20" stroke-width="0.971596"/>
<path d="M77.8164 46.0747L78.5937 46.4633V46.852" stroke="#231F20" stroke-width="0.971596"/>
<path d="M91.5166 37.719C91.5166 36.9417 91.7109 36.3264 92.0996 35.873C92.4882 35.4196 93.0388 35.1929 93.7513 35.1929C94.4638 35.1929 95.0143 35.4196 95.403 35.873C95.8564 36.3264 96.0831 36.9417 96.0831 37.719C96.0831 38.5611 95.8564 39.2088 95.403 39.6622C95.0143 40.1156 94.4638 40.3423 93.7513 40.3423C93.0388 40.3423 92.4882 40.1156 92.0996 39.6622C91.7109 39.2088 91.5166 38.5611 91.5166 37.719ZM93.7513 39.7594C94.2695 39.7594 94.6581 39.5974 94.9172 39.2736C95.1763 38.8849 95.3058 38.3668 95.3058 37.719C95.3058 37.0713 95.1763 36.5855 94.9172 36.2616C94.6581 35.9378 94.2695 35.7758 93.7513 35.7758C93.2331 35.7758 92.8444 35.9378 92.5854 36.2616C92.3263 36.5855 92.1967 37.0713 92.1967 37.719C92.1967 38.4315 92.3263 38.9497 92.5854 39.2736C92.8444 39.5974 93.2331 39.7594 93.7513 39.7594Z" fill="#FF6A00"/>
<path d="M76.3594 63.9519C76.3594 63.1747 76.5537 62.5593 76.9423 62.1059C77.331 61.6525 77.8815 61.4258 78.594 61.4258C79.3713 61.4258 79.9543 61.6525 80.3429 62.1059C80.7316 62.5593 80.9259 63.1747 80.9259 63.9519C80.9259 64.794 80.7316 65.4417 80.3429 65.8951C79.8895 66.3485 79.3065 66.5752 78.594 66.5752C77.8815 66.5752 77.331 66.3485 76.9423 65.8951C76.5537 65.4417 76.3594 64.794 76.3594 63.9519ZM78.594 65.9923C79.1122 65.9923 79.5009 65.8303 79.76 65.5065C80.0191 65.1178 80.1486 64.5997 80.1486 63.9519C80.1486 63.3042 80.0191 62.8184 79.76 62.4945C79.5009 62.1707 79.1122 62.0087 78.594 62.0087C78.0759 62.0087 77.6872 62.1707 77.4281 62.4945C77.169 62.8184 77.0395 63.3042 77.0395 63.9519C77.0395 64.6644 77.169 65.1826 77.4281 65.5065C77.6872 65.8303 78.0759 65.9923 78.594 65.9923Z" fill="#FF6A00"/>
<path d="M81.7031 61.5229H82.2861V63.6605H84.9094V61.5229H85.4924V66.4781H84.9094V64.1463H82.2861V66.4781H81.7031V61.5229Z" fill="#FF6A00"/>
</g>
<path d="M0.181641 79.5945H26.1284V91.72H12.3072C5.61043 91.72 0.181641 86.2912 0.181641 79.5945V79.5945Z" fill="white"/>
<rect x="26.1289" y="79.5945" width="92.1064" height="12.1255" fill="white"/>
<path d="M118.234 79.5945H144.181V79.5945C144.181 86.2912 138.752 91.72 132.056 91.72H118.234V79.5945Z" fill="white"/>
</g>
<rect x="0.93141" y="1.18165" width="142.5" height="84.5005" rx="3.13661" stroke="white" stroke-width="1.49954"/>
<defs>
<clipPath id="clip0_214_14841">
<rect x="0.181641" y="0.431885" width="144" height="86" rx="3.88638" fill="white"/>
</clipPath>
<clipPath id="clip1_214_14841">
<rect width="87.4436" height="57.3242" fill="white" transform="translate(28.46 22.2705)"/>
</clipPath>
</defs>
</svg>
