<svg width="145" height="88" viewBox="0 0 145 88" fill="none" xmlns="http://www.w3.org/2000/svg">
<g clip-path="url(#clip0_214_14421)">
<rect x="0.181641" y="0.431885" width="144" height="87" rx="3.88638" fill="white"/>
<path d="M0.181641 10.6853C0.181641 3.98782 5.61099 -1.44153 12.3084 -1.44153L26.1284 -1.44153V10.6853L0.181641 10.6853V10.6853Z" fill="white"/>
<rect x="26.1289" y="-1.44153" width="92.1064" height="12.1268" fill="white"/>
<path d="M118.234 -1.44153L132.054 -1.44153C138.752 -1.44153 144.181 3.98782 144.181 10.6853V10.6853L118.234 10.6853V-1.44153Z" fill="white"/>
<rect width="144" height="15" transform="translate(0.181641 10.6852)" fill="white"/>
<path d="M61.7865 18.1323V19.0184H57.2978V22.6852H56.3592V14.5238H62.0081V15.4099H57.2978V18.1323H61.7865ZM68.5064 17.1646V20.3825C68.5064 20.7789 68.4384 21.1345 68.3024 21.4493C68.1664 21.7602 67.9817 22.0128 67.7486 22.2072C67.5154 22.4015 67.2492 22.5492 66.9499 22.6502C66.6545 22.7474 66.3378 22.7959 65.9997 22.7959C65.6577 22.7959 65.3371 22.7474 65.0378 22.6502C64.7424 22.5492 64.4782 22.4015 64.245 22.2072C64.0118 22.0128 63.8272 21.7602 63.6912 21.4493C63.559 21.1345 63.493 20.7789 63.493 20.3825V17.1646H64.3616V20.3009C64.3616 20.8528 64.5112 21.2705 64.8105 21.5542C65.1097 21.8379 65.5061 21.9798 65.9997 21.9798C66.4933 21.9798 66.8877 21.8379 67.1831 21.5542C67.4823 21.2705 67.632 20.8528 67.632 20.3009V17.1646H68.5064ZM72.9806 17.0538C73.3848 17.0538 73.7229 17.116 73.995 17.2404L73.7851 18.0973C73.513 17.9496 73.1944 17.8758 72.829 17.8758C72.3938 17.8758 72.0382 18.0332 71.7622 18.348C71.4863 18.6628 71.3483 19.0786 71.3483 19.5955V22.6852H70.4797V17.1646H71.3425V17.9399C71.5329 17.6562 71.7681 17.4386 72.0479 17.287C72.3316 17.1315 72.6425 17.0538 72.9806 17.0538ZM80.3143 17.1646V22.6852H79.4457V21.8632C78.9638 22.485 78.2914 22.7959 77.4287 22.7959C76.6475 22.7959 75.9926 22.5239 75.4641 21.9798C74.9356 21.4318 74.6713 20.7459 74.6713 19.922C74.6713 19.098 74.9356 18.414 75.4641 17.87C75.9926 17.3259 76.6475 17.0538 77.4287 17.0538C78.2876 17.0538 78.9599 17.3647 79.4457 17.9865V17.1646H80.3143ZM77.5336 17.87C76.9506 17.87 76.4746 18.0682 76.1054 18.4646C75.74 18.8571 75.5574 19.3429 75.5574 19.922C75.5574 20.501 75.742 20.9888 76.1112 21.3852C76.4804 21.7816 76.9545 21.9798 77.5336 21.9798C78.1049 21.9798 78.5752 21.7855 78.9444 21.3968C79.3136 21.0043 79.4982 20.5127 79.4982 19.922C79.4982 19.3351 79.3136 18.8474 78.9444 18.4587C78.5752 18.0662 78.1049 17.87 77.5336 17.87ZM85.0776 17.0538C85.7616 17.0538 86.3154 17.2559 86.739 17.6601C87.1665 18.0643 87.3803 18.5986 87.3803 19.2632V22.6852H86.5117V19.5489C86.5117 19.0242 86.3718 18.6161 86.092 18.3247C85.816 18.0293 85.4254 17.8816 84.9202 17.8816C84.4422 17.8816 84.04 18.0371 83.7135 18.348C83.3909 18.655 83.2296 19.0631 83.2296 19.5722V22.6852H82.3552V17.1646H83.218V17.9516C83.4278 17.6407 83.698 17.4133 84.0283 17.2695C84.3586 17.1257 84.7084 17.0538 85.0776 17.0538Z" fill="#231F20"/>
<g clip-path="url(#clip1_214_14421)">
<path d="M98.9007 25.6852L45.4629 25.6852V77.1798H98.9007V25.6852Z" fill="white"/>
<path d="M86.5616 51.0438L76.2627 36.9557" stroke="#231F20" stroke-width="0.971596"/>
<path d="M86.5616 51.0438L76.2627 65.2291" stroke="#231F20" stroke-width="0.971596"/>
<path d="M83.2581 51.0438L75.291 62.12" stroke="#231F20" stroke-width="0.971596"/>
<path d="M76.2617 36.9557L59.6475 42.2995" stroke="#231F20" stroke-width="0.971596"/>
<path d="M75.2909 40.0648L62.2715 44.2427" stroke="#231F20" stroke-width="0.971596"/>
<path d="M76.2616 65.2292L69.3633 62.9945" stroke="#231F20" stroke-width="0.971596"/>
<path d="M69.3642 62.9944L62.4658 60.7598" stroke="#FF6A00" stroke-width="0.971596"/>
<path d="M59.6475 42.2994V49.5864" stroke="#231F20" stroke-width="0.971596"/>
<path d="M59.6475 49.5864V56.7762" stroke="#FF6A00" stroke-width="0.971596"/>
<path d="M85.9785 50.3638L86.5615 51.0439L85.9785 51.8212" stroke="#231F20" stroke-width="0.971596"/>
<path d="M76.7479 37.6358L76.2621 36.9557L75.3877 37.2472" stroke="#231F20" stroke-width="0.971596"/>
<path d="M76.7485 64.5491L76.2627 65.2292L75.874 65.132" stroke="#231F20" stroke-width="0.971596"/>
<path d="M60.4247 42.1052L59.6475 42.2995V42.6882" stroke="#231F20" stroke-width="0.971596"/>
<path d="M57.3164 59.8853C57.3164 59.0432 57.5107 58.4279 57.8994 58.0392C58.288 57.5858 58.871 57.3591 59.6482 57.3591C60.3607 57.3591 60.9113 57.5858 61.2999 58.0392C61.6886 58.4279 61.8829 59.0432 61.8829 59.8853C61.8829 60.6626 61.6886 61.2779 61.2999 61.7313C60.9113 62.1847 60.3607 62.4114 59.6482 62.4114C58.871 62.4114 58.288 62.1847 57.8994 61.7313C57.5107 61.2779 57.3164 60.6626 57.3164 59.8853ZM59.6482 61.8285C60.1016 61.8285 60.4903 61.6665 60.8142 61.3427C61.0732 61.0188 61.2028 60.533 61.2028 59.8853C61.2028 59.2376 61.0732 58.7518 60.8142 58.4279C60.4903 58.0393 60.1016 57.8449 59.6482 57.8449C59.1301 57.8449 58.7414 58.0393 58.4823 58.4279C58.2232 58.7518 58.0937 59.2376 58.0937 59.8853C58.0937 60.533 58.2232 61.0188 58.4823 61.3427C58.7414 61.6665 59.1301 61.8285 59.6482 61.8285Z" fill="#FF6A00"/>
</g>
<path d="M0.181641 77.1798H26.1284V89.3053H12.3072C5.61043 89.3053 0.181641 83.8765 0.181641 77.1798V77.1798Z" fill="white"/>
<rect x="26.1289" y="77.1798" width="92.1064" height="12.1255" fill="white"/>
<path d="M118.234 77.1798H144.181V77.1798C144.181 83.8765 138.752 89.3053 132.056 89.3053H118.234V77.1798Z" fill="white"/>
</g>
<rect x="0.93141" y="1.18165" width="142.5" height="85.5005" rx="3.13661" stroke="white" stroke-width="1.49954"/>
<defs>
<clipPath id="clip0_214_14421">
<rect x="0.181641" y="0.431885" width="144" height="87" rx="3.88638" fill="white"/>
</clipPath>
<clipPath id="clip1_214_14421">
<rect width="53.4378" height="51.4946" fill="white" transform="translate(45.4629 25.6852)"/>
</clipPath>
</defs>
</svg>
