<svg width="144" height="87" viewBox="0 0 144 87" fill="none" xmlns="http://www.w3.org/2000/svg">
<g clip-path="url(#clip0_214_15009)">
<rect x="0.431641" y="0.431885" width="143" height="86" rx="3.88638" fill="white"/>
<path d="M0.431641 3.86995C0.431641 -2.82749 5.86099 -8.25684 12.5584 -8.25684L26.3784 -8.25684V3.86995L0.431641 3.86995V3.86995Z" fill="white"/>
<rect x="26.3789" y="-8.25684" width="91.1064" height="12.1268" fill="white"/>
<path d="M117.484 -8.25684L131.304 -8.25684C138.002 -8.25684 143.431 -2.82749 143.431 3.86995V3.86995L117.484 3.86995V-8.25684Z" fill="white"/>
<rect width="143" height="15" transform="translate(0.431641 3.86987)" fill="white"/>
<path d="M32.5478 7.70847V15.8699H31.6092V7.70847H32.5478ZM38.8289 10.8448L38.4499 11.521C38.2479 11.3811 37.9816 11.2606 37.6513 11.1596C37.3248 11.0546 36.9887 11.0022 36.6428 11.0022C36.2464 11.0022 35.9296 11.0799 35.6926 11.2354C35.4555 11.3908 35.337 11.6026 35.337 11.8708C35.337 12.2983 35.712 12.5567 36.4621 12.6461L37.115 12.7277C38.3508 12.8871 38.9688 13.4001 38.9688 14.2667C38.9688 14.7914 38.7492 15.2072 38.31 15.5143C37.8709 15.8213 37.2801 15.9748 36.5378 15.9748C35.6245 15.9748 34.857 15.7397 34.2352 15.2694L34.6374 14.6165C35.1504 15.0168 35.7878 15.217 36.5495 15.217C37.0236 15.217 37.3948 15.1412 37.663 14.9896C37.935 14.8342 38.071 14.6126 38.071 14.325C38.071 13.882 37.6863 13.6138 36.9168 13.5206L36.258 13.4448C35.6479 13.3709 35.1912 13.2038 34.8881 12.9434C34.5849 12.6792 34.4334 12.3372 34.4334 11.9174C34.4334 11.4005 34.6335 10.9925 35.0338 10.6932C35.4341 10.394 35.9685 10.2443 36.637 10.2443C37.0606 10.2443 37.4628 10.2987 37.8437 10.4076C38.2245 10.5164 38.5529 10.6621 38.8289 10.8448ZM42.9756 10.2385C43.8073 10.2385 44.4991 10.5125 45.0509 11.0605C45.6067 11.6085 45.8846 12.2905 45.8846 13.1067C45.8846 13.9267 45.6067 14.6107 45.0509 15.1587C44.4991 15.7066 43.8073 15.9806 42.9756 15.9806C42.1439 15.9806 41.4521 15.7066 40.9003 15.1587C40.3484 14.6107 40.0725 13.9267 40.0725 13.1067C40.0725 12.2905 40.3484 11.6085 40.9003 11.0605C41.456 10.5125 42.1478 10.2385 42.9756 10.2385ZM44.4155 11.6376C44.0308 11.249 43.5508 11.0546 42.9756 11.0546C42.4004 11.0546 41.9205 11.249 41.5357 11.6376C41.151 12.0262 40.9586 12.5159 40.9586 13.1067C40.9586 13.7013 41.151 14.1929 41.5357 14.5815C41.9205 14.9702 42.4004 15.1645 42.9756 15.1645C43.5508 15.1645 44.0308 14.9702 44.4155 14.5815C44.8003 14.1929 44.9926 13.7013 44.9926 13.1067C44.9926 12.5159 44.8003 12.0262 44.4155 11.6376ZM50.3916 10.2385C51.1727 10.2385 51.8276 10.5105 52.3561 11.0546C52.8847 11.5987 53.1489 12.2827 53.1489 13.1067C53.1489 13.9306 52.8847 14.6165 52.3561 15.1645C51.8276 15.7086 51.1727 15.9806 50.3916 15.9806C49.5327 15.9806 48.8623 15.6717 48.3804 15.0537V15.8699H47.5059V7.47528H48.3804V11.1654C48.8623 10.5475 49.5327 10.2385 50.3916 10.2385ZM50.2866 11.0546C49.7153 11.0546 49.2451 11.2509 48.8759 11.6434C48.5067 12.0321 48.3221 12.5198 48.3221 13.1067C48.3221 13.6974 48.5067 14.189 48.8759 14.5815C49.2451 14.9702 49.7153 15.1645 50.2866 15.1645C50.8696 15.1645 51.3437 14.9682 51.709 14.5757C52.0744 14.1793 52.257 13.6896 52.257 13.1067C52.257 12.5276 52.0724 12.0418 51.7032 11.6493C51.334 11.2528 50.8618 11.0546 50.2866 11.0546ZM59.7194 10.3493V13.5672C59.7194 13.9636 59.6514 14.3192 59.5154 14.634C59.3794 14.9449 59.1948 15.1975 58.9616 15.3918C58.7284 15.5862 58.4622 15.7338 58.1629 15.8349C57.8676 15.9321 57.5508 15.9806 57.2127 15.9806C56.8707 15.9806 56.5501 15.9321 56.2508 15.8349C55.9555 15.7338 55.6912 15.5862 55.458 15.3918C55.2248 15.1975 55.0402 14.9449 54.9042 14.634C54.7721 14.3192 54.706 13.9636 54.706 13.5672V10.3493H55.5746V13.4856C55.5746 14.0374 55.7242 14.4552 56.0235 14.7389C56.3227 15.0226 56.7191 15.1645 57.2127 15.1645C57.7063 15.1645 58.1007 15.0226 58.3961 14.7389C58.6954 14.4552 58.845 14.0374 58.845 13.4856V10.3493H59.7194ZM65.4412 10.3493V11.1363H63.0569V13.9228C63.0569 14.3386 63.156 14.6495 63.3542 14.8555C63.5524 15.0615 63.8186 15.1645 64.1528 15.1645C64.5687 15.1645 64.9554 15.0343 65.3129 14.7739L65.721 15.4327C65.2391 15.798 64.693 15.9806 64.0829 15.9806C63.4766 15.9806 63.0083 15.8116 62.6779 15.4735C62.3515 15.1315 62.1883 14.6204 62.1883 13.9403V11.1363H60.9815V10.3493H62.1883V8.59456H63.0569V10.3493H65.4412ZM72.1264 10.3493L67.6318 18.225H66.6699L68.7278 14.6748L66.1919 10.3493H67.1654L69.2233 13.812L71.1704 10.3493H72.1264ZM75.7389 10.2385C76.1431 10.2385 76.4812 10.3007 76.7533 10.425L76.5434 11.282C76.2714 11.1343 75.9527 11.0605 75.5874 11.0605C75.1521 11.0605 74.7965 11.2179 74.5205 11.5327C74.2446 11.8475 74.1066 12.2633 74.1066 12.7802V15.8699H73.238V10.3493H74.1008V11.1246C74.2912 10.8409 74.5264 10.6233 74.8062 10.4717C75.0899 10.3162 75.4008 10.2385 75.7389 10.2385ZM78.9515 10.3493V15.8699H78.077V10.3493H78.9515ZM78.5143 7.77259C78.6853 7.77259 78.831 7.83283 78.9515 7.95331C79.0719 8.0699 79.1322 8.21564 79.1322 8.39053C79.1322 8.56541 79.0719 8.71115 78.9515 8.82775C78.8349 8.94434 78.6891 9.00263 78.5143 9.00263C78.3394 9.00263 78.1936 8.94434 78.077 8.82775C77.9604 8.71115 77.9021 8.56541 77.9021 8.39053C77.9021 8.21564 77.9604 8.0699 78.077 7.95331C78.1936 7.83283 78.3394 7.77259 78.5143 7.77259ZM83.4286 10.2385C83.8405 10.2385 84.2233 10.3143 84.577 10.4659C84.9307 10.6135 85.2299 10.8273 85.4748 11.1071L84.9151 11.6959C84.476 11.2684 83.9727 11.0546 83.4053 11.0546C82.8495 11.0546 82.3851 11.249 82.012 11.6376C81.6428 12.0262 81.4582 12.5159 81.4582 13.1067C81.4582 13.7013 81.6428 14.1929 82.012 14.5815C82.3851 14.9702 82.8495 15.1645 83.4053 15.1645C83.9805 15.1645 84.4896 14.9488 84.9326 14.5174L85.4748 15.112C85.226 15.3918 84.9248 15.6075 84.5712 15.7591C84.2175 15.9068 83.8367 15.9806 83.4286 15.9806C82.5891 15.9806 81.9032 15.7086 81.3707 15.1645C80.8383 14.6204 80.5721 13.9345 80.5721 13.1067C80.5721 12.2827 80.8383 11.5987 81.3707 11.0546C81.9032 10.5105 82.5891 10.2385 83.4286 10.2385ZM95.2897 10.3493V15.8699H94.4211V15.0479C93.9392 15.6697 93.2668 15.9806 92.404 15.9806C91.6229 15.9806 90.968 15.7086 90.4395 15.1645C89.9109 14.6165 89.6466 13.9306 89.6466 13.1067C89.6466 12.2827 89.9109 11.5987 90.4395 11.0546C90.968 10.5105 91.6229 10.2385 92.404 10.2385C93.2629 10.2385 93.9353 10.5494 94.4211 11.1712V10.3493H95.2897ZM92.509 11.0546C91.926 11.0546 91.4499 11.2528 91.0807 11.6493C90.7154 12.0418 90.5327 12.5276 90.5327 13.1067C90.5327 13.6857 90.7173 14.1735 91.0866 14.5699C91.4558 14.9663 91.9299 15.1645 92.509 15.1645C93.0803 15.1645 93.5505 14.9702 93.9197 14.5815C94.2889 14.189 94.4735 13.6974 94.4735 13.1067C94.4735 12.5198 94.2889 12.0321 93.9197 11.6434C93.5505 11.2509 93.0803 11.0546 92.509 11.0546ZM99.7673 10.2385C100.179 10.2385 100.562 10.3143 100.916 10.4659C101.269 10.6135 101.569 10.8273 101.814 11.1071L101.254 11.6959C100.815 11.2684 100.311 11.0546 99.744 11.0546C99.1883 11.0546 98.7238 11.249 98.3507 11.6376C97.9815 12.0262 97.7969 12.5159 97.7969 13.1067C97.7969 13.7013 97.9815 14.1929 98.3507 14.5815C98.7238 14.9702 99.1883 15.1645 99.744 15.1645C100.319 15.1645 100.828 14.9488 101.271 14.5174L101.814 15.112C101.565 15.3918 101.264 15.6075 100.91 15.7591C100.556 15.9068 100.175 15.9806 99.7673 15.9806C98.9279 15.9806 98.2419 15.7086 97.7095 15.1645C97.1771 14.6204 96.9108 13.9345 96.9108 13.1067C96.9108 12.2827 97.1771 11.5987 97.7095 11.0546C98.2419 10.5105 98.9279 10.2385 99.7673 10.2385ZM104.171 10.3493V15.8699H103.297V10.3493H104.171ZM103.734 7.77259C103.905 7.77259 104.051 7.83283 104.171 7.95331C104.292 8.0699 104.352 8.21564 104.352 8.39053C104.352 8.56541 104.292 8.71115 104.171 8.82775C104.055 8.94434 103.909 9.00263 103.734 9.00263C103.559 9.00263 103.413 8.94434 103.297 8.82775C103.18 8.71115 103.122 8.56541 103.122 8.39053C103.122 8.21564 103.18 8.0699 103.297 7.95331C103.413 7.83283 103.559 7.77259 103.734 7.77259ZM108.549 10.2385C109.408 10.2385 110.08 10.5494 110.566 11.1712V7.47528H111.435V15.8699H110.566V15.0479C110.084 15.6697 109.412 15.9806 108.549 15.9806C107.768 15.9806 107.113 15.7086 106.585 15.1645C106.056 14.6165 105.792 13.9306 105.792 13.1067C105.792 12.2827 106.056 11.5987 106.585 11.0546C107.113 10.5105 107.768 10.2385 108.549 10.2385ZM108.654 11.0546C108.071 11.0546 107.595 11.2528 107.226 11.6493C106.861 12.0418 106.678 12.5276 106.678 13.1067C106.678 13.6857 106.863 14.1735 107.232 14.5699C107.601 14.9663 108.075 15.1645 108.654 15.1645C109.225 15.1645 109.696 14.9702 110.065 14.5815C110.434 14.189 110.619 13.6974 110.619 13.1067C110.619 12.5198 110.434 12.0321 110.065 11.6434C109.696 11.2509 109.225 11.0546 108.654 11.0546Z" fill="#231F20"/>
<g clip-path="url(#clip1_214_15009)">
<path d="M110.31 18.8699L33.5537 18.8699V82.9952H110.31V18.8699Z" fill="white"/>
<path d="M50.9453 35.5813L59.6897 50.7382" stroke="#231F20" stroke-width="0.971596"/>
<path d="M50.9453 65.798L59.6897 50.7383" stroke="#231F20" stroke-width="0.971596"/>
<path d="M59.6904 50.7383H77.1792" stroke="#231F20" stroke-width="0.971596"/>
<path d="M75.624 50.7383L79.3161 57.0537" stroke="#231F20" stroke-width="0.971596"/>
<path d="M79.3154 57.0537L83.0075 63.4662" stroke="#FF6A00" stroke-width="0.971596"/>
<path d="M77.9561 49.3779L81.551 55.7905" stroke="#231F20" stroke-width="0.971596"/>
<path d="M81.5508 55.7905L85.2428 62.1059" stroke="#FF6A00" stroke-width="0.971596"/>
<path d="M77.1787 50.7382L80.6765 44.7144" stroke="#231F20" stroke-width="0.971596"/>
<path d="M80.6758 44.7143L84.0764 38.6904" stroke="#FF6A00" stroke-width="0.971596"/>
<path d="M76.3037 50.7383H77.1781L77.3725 50.4468" stroke="#231F20" stroke-width="0.971596"/>
<path d="M83.5908 65.895C83.5908 65.053 83.8175 64.4377 84.2709 64.049C84.6596 63.5956 85.2101 63.3689 85.9227 63.3689C86.6352 63.3689 87.1857 63.5956 87.5744 64.049C87.963 64.4377 88.1573 65.053 88.1573 65.895C88.1573 66.6723 87.963 67.2877 87.5744 67.7411C87.1857 68.1945 86.6352 68.4212 85.9227 68.4212C85.2101 68.4212 84.6596 68.1945 84.2709 67.7411C83.8175 67.2877 83.5908 66.6723 83.5908 65.895ZM85.9227 67.8382C86.4408 67.8382 86.8295 67.6763 87.0886 67.3524C87.3477 67.0286 87.4772 66.5428 87.4772 65.895C87.4772 65.2473 87.3477 64.7615 87.0886 64.4377C86.8295 64.049 86.4408 63.8547 85.9227 63.8547C85.4045 63.8547 85.0158 64.049 84.7567 64.4377C84.4976 64.7615 84.3681 65.2473 84.3681 65.895C84.3681 66.5428 84.4976 67.0286 84.7567 67.3524C85.0158 67.6763 85.4045 67.8382 85.9227 67.8382Z" fill="#FF6A00"/>
<path d="M83.5908 35.5813C83.5908 34.804 83.8175 34.1887 84.2709 33.7353C84.6596 33.2819 85.2101 33.0552 85.9227 33.0552C86.6352 33.0552 87.1857 33.2819 87.5744 33.7353C87.963 34.1887 88.1573 34.804 88.1573 35.5813C88.1573 36.3586 87.963 36.9739 87.5744 37.4274C87.1857 37.8808 86.6352 38.1075 85.9227 38.1075C85.2101 38.1075 84.6596 37.8808 84.2709 37.4274C83.8175 36.9739 83.5908 36.3586 83.5908 35.5813ZM85.9227 37.6217C86.4408 37.6217 86.8295 37.4274 87.0886 37.0387C87.3477 36.7149 87.4772 36.2291 87.4772 35.5813C87.4772 34.9336 87.3477 34.4478 87.0886 34.1239C86.8295 33.8001 86.4408 33.6381 85.9227 33.6381C85.4045 33.6381 85.0158 33.8001 84.7567 34.1239C84.4976 34.4478 84.3681 34.9336 84.3681 35.5813C84.3681 36.2291 84.4976 36.7149 84.7567 37.0387C85.0158 37.4274 85.4045 37.6217 85.9227 37.6217Z" fill="#FF6A00"/>
<path d="M88.9346 33.1523H89.6147V35.1927H92.1408V33.1523H92.821V38.0103H92.1408V35.7757H89.6147V38.0103H88.9346V33.1523Z" fill="#FF6A00"/>
</g>
<path d="M0.431641 82.9951H26.3784V95.1206H12.5572C5.86043 95.1206 0.431641 89.6919 0.431641 82.9951V82.9951Z" fill="white"/>
<rect x="26.3789" y="82.9951" width="91.1064" height="12.1255" fill="white"/>
<path d="M117.484 82.9951H143.431V82.9951C143.431 89.6919 138.002 95.1206 131.306 95.1206H117.484V82.9951Z" fill="white"/>
</g>
<rect x="1.18141" y="1.18165" width="141.5" height="84.5005" rx="3.13661" stroke="white" stroke-width="1.49954"/>
<defs>
<clipPath id="clip0_214_15009">
<rect x="0.431641" y="0.431885" width="143" height="86" rx="3.88638" fill="white"/>
</clipPath>
<clipPath id="clip1_214_15009">
<rect width="76.7561" height="64.1253" fill="white" transform="translate(33.5537 18.8699)"/>
</clipPath>
</defs>
</svg>
