<svg width="145" height="87" viewBox="0 0 145 87" fill="none" xmlns="http://www.w3.org/2000/svg">
<g clip-path="url(#clip0_214_15093)">
<rect x="0.245117" y="0.431885" width="144" height="86" rx="3.88638" fill="white"/>
<path d="M0.245117 5.32723C0.245117 -1.37021 5.67446 -6.79956 12.3719 -6.79956L26.1919 -6.79956V5.32723H0.245117V5.32723Z" fill="white"/>
<rect x="26.1924" y="-6.79956" width="92.1064" height="12.1268" fill="white"/>
<path d="M118.298 -6.79956L132.118 -6.79956C138.815 -6.79956 144.245 -1.37021 144.245 5.32723V5.32723L118.298 5.32723V-6.79956Z" fill="white"/>
<rect width="144" height="15" transform="translate(0.245117 5.32715)" fill="white"/>
<path d="M51.4671 9.16574L54.8191 17.3271H53.8164L52.8895 15.0536H48.8496L47.9285 17.3271H46.955L50.307 9.16574H51.4671ZM50.8725 10.0926L49.211 14.1675H52.5339L50.8725 10.0926ZM58.7766 11.6958C59.4606 11.6958 60.0144 11.8979 60.4381 12.3021C60.8656 12.7062 61.0793 13.2406 61.0793 13.9052V17.3271H60.2107V14.1908C60.2107 13.6662 60.0708 13.2581 59.791 12.9666C59.515 12.6713 59.1245 12.5236 58.6192 12.5236C58.1412 12.5236 57.739 12.679 57.4125 12.9899C57.0899 13.297 56.9287 13.705 56.9287 14.2142V17.3271H56.0542V11.8065H56.917V12.5935C57.1269 12.2826 57.397 12.0553 57.7273 11.9115C58.0577 11.7677 58.4074 11.6958 58.7766 11.6958ZM65.3767 11.6958C66.1268 11.6958 66.7447 11.962 67.2305 12.4944C67.7202 13.0269 67.967 13.7109 67.9709 14.5464C67.9709 14.6669 67.965 14.7757 67.9534 14.8729H63.5287C63.587 15.4481 63.7969 15.8931 64.1583 16.2079C64.5198 16.5188 64.9609 16.6742 65.4816 16.6742C66.1423 16.6742 66.7253 16.443 67.2305 15.9805L67.6969 16.5751C67.0945 17.1503 66.3386 17.4379 65.4292 17.4379C64.6092 17.4379 63.9388 17.1736 63.418 16.6451C62.8972 16.1127 62.6368 15.4209 62.6368 14.5698C62.6368 13.7303 62.8953 13.0424 63.4121 12.5061C63.929 11.9659 64.5839 11.6958 65.3767 11.6958ZM65.3592 12.4711C64.8618 12.4711 64.4518 12.6266 64.1292 12.9375C63.8066 13.2484 63.6104 13.6584 63.5404 14.1675H67.0848C67.0304 13.6506 66.8458 13.2387 66.531 12.9316C66.2201 12.6246 65.8295 12.4711 65.3592 12.4711ZM73.2835 11.8065V12.5935L70.8992 12.5935V15.3801C70.8992 15.7959 70.9983 16.1068 71.1965 16.3128C71.3947 16.5188 71.661 16.6218 71.9952 16.6218C72.411 16.6218 72.7977 16.4916 73.1553 16.2312L73.5634 16.8899C73.0814 17.2553 72.5354 17.4379 71.9252 17.4379C71.319 17.4379 70.8507 17.2689 70.5203 16.9307C70.1939 16.5887 70.0306 16.0777 70.0306 15.3976V12.5935H68.8239V11.8065H70.0306V10.0518H70.8992V11.8065L73.2835 11.8065ZM75.6926 8.93256V12.576C75.9064 12.2729 76.1765 12.0514 76.5029 11.9115C76.8294 11.7677 77.1753 11.6958 77.5406 11.6958C78.2246 11.6958 78.7784 11.8979 79.202 12.3021C79.6295 12.7062 79.8433 13.2406 79.8433 13.9052V17.3271H78.9747V14.1908C78.9747 13.6662 78.8347 13.2581 78.5549 12.9666C78.279 12.6713 77.8884 12.5236 77.3832 12.5236C76.9052 12.5236 76.5029 12.679 76.1765 12.9899C75.8539 13.297 75.6926 13.705 75.6926 14.2142V17.3271H74.8182V8.93256H75.6926ZM84.3039 11.6958C85.1356 11.6958 85.8274 11.9698 86.3792 12.5177C86.935 13.0657 87.2128 13.7478 87.2128 14.5639C87.2128 15.384 86.935 16.068 86.3792 16.6159C85.8274 17.1639 85.1356 17.4379 84.3039 17.4379C83.4722 17.4379 82.7804 17.1639 82.2286 16.6159C81.6767 16.068 81.4008 15.384 81.4008 14.5639C81.4008 13.7478 81.6767 13.0657 82.2286 12.5177C82.7843 11.9698 83.4761 11.6958 84.3039 11.6958ZM85.7438 13.0949C85.359 12.7062 84.8791 12.5119 84.3039 12.5119C83.7287 12.5119 83.2487 12.7062 82.864 13.0949C82.4792 13.4835 82.2869 13.9732 82.2869 14.5639C82.2869 15.1585 82.4792 15.6502 82.864 16.0388C83.2487 16.4275 83.7287 16.6218 84.3039 16.6218C84.8791 16.6218 85.359 16.4275 85.7438 16.0388C86.1285 15.6502 86.3209 15.1585 86.3209 14.5639C86.3209 13.9732 86.1285 13.4835 85.7438 13.0949ZM89.7086 8.93256V17.3271H88.8342V8.93256H89.7086ZM94.0692 11.6958C94.8192 11.6958 95.4372 11.962 95.923 12.4944C96.4126 13.0269 96.6594 13.7109 96.6633 14.5464C96.6633 14.6669 96.6575 14.7757 96.6458 14.8729L92.2212 14.8729C92.2795 15.4481 92.4893 15.8931 92.8508 16.2079C93.2122 16.5188 93.6533 16.6742 94.1741 16.6742C94.8348 16.6742 95.4177 16.443 95.923 15.9805L96.3893 16.5751C95.7869 17.1503 95.031 17.4379 94.1216 17.4379C93.3016 17.4379 92.6312 17.1736 92.1104 16.6451C91.5896 16.1127 91.3293 15.4209 91.3293 14.5698C91.3293 13.7303 91.5877 13.0424 92.1046 12.5061C92.6215 11.9659 93.2763 11.6958 94.0692 11.6958ZM94.0517 12.4711C93.5542 12.4711 93.1442 12.6266 92.8216 12.9375C92.4991 13.2484 92.3028 13.6584 92.2328 14.1675L95.7772 14.1675C95.7228 13.6506 95.5382 13.2387 95.2234 12.9316C94.9125 12.6246 94.5219 12.4711 94.0517 12.4711Z" fill="#231F20"/>
<g clip-path="url(#clip1_214_15093)">
<path d="M171.833 20.3271L-27.3438 20.3271V81.5377L171.833 81.5377V20.3271Z" fill="white"/>
<path d="M126.557 51.7097L109.457 55.5961" stroke="#231F20" stroke-width="0.971596"/>
<path d="M17.4463 45.5886L22.0128 50.4466" stroke="#231F20" stroke-width="0.971596"/>
<path d="M22.0127 50.4465L26.482 55.3045" stroke="#FF6A00" stroke-width="0.971596"/>
<path d="M109.457 55.5961L97.6035 42.771" stroke="#231F20" stroke-width="0.971596"/>
<path d="M110.331 52.7785L99.5459 41.0222" stroke="#231F20" stroke-width="0.971596"/>
<path d="M97.603 42.771L80.5029 46.6574" stroke="#231F20" stroke-width="0.971596"/>
<path d="M75.3545 63.3689L58.3516 67.2553" stroke="#231F20" stroke-width="0.971596"/>
<path d="M73.3127 61.2314L59.2246 64.4377" stroke="#231F20" stroke-width="0.971596"/>
<path d="M75.3545 63.3689L80.504 46.6575" stroke="#231F20" stroke-width="0.971596"/>
<path d="M68.6499 33.9294L51.5498 37.8158" stroke="#231F20" stroke-width="0.971596"/>
<path d="M68.6494 33.9294L80.5029 46.6573" stroke="#231F20" stroke-width="0.971596"/>
<path d="M67.7754 36.7471L77.5885 47.3375" stroke="#231F20" stroke-width="0.971596"/>
<path d="M58.351 67.2552L46.4004 54.5273" stroke="#231F20" stroke-width="0.971596"/>
<path d="M51.5498 37.8159L46.4004 54.5274" stroke="#231F20" stroke-width="0.971596"/>
<path d="M53.6871 39.9534L49.4121 53.8472" stroke="#231F20" stroke-width="0.971596"/>
<path d="M46.4003 54.5273L39.3076 56.0819" stroke="#231F20" stroke-width="0.971596"/>
<path d="M39.3075 56.082L32.2148 57.7337" stroke="#FF6A00" stroke-width="0.971596"/>
<path d="M110.331 55.4018L109.457 55.5961L108.874 55.0132" stroke="#231F20" stroke-width="0.971596"/>
<path d="M98.1869 43.4511L97.6039 42.771L96.7295 42.9653" stroke="#231F20" stroke-width="0.971596"/>
<path d="M74.4795 63.5631L75.3539 63.3688L75.6454 62.5916" stroke="#231F20" stroke-width="0.971596"/>
<path d="M67.7754 34.1238L68.6498 33.9294L69.2328 34.5124" stroke="#231F20" stroke-width="0.971596"/>
<path d="M59.1278 67.0608L58.3505 67.2551L57.7676 66.6721" stroke="#231F20" stroke-width="0.971596"/>
<path d="M52.4242 37.6216L51.5498 37.8159L51.3555 38.5932" stroke="#231F20" stroke-width="0.971596"/>
<path d="M27.0654 58.4138C27.0654 57.5718 27.2597 56.9565 27.6484 56.5678C28.037 56.1144 28.62 55.8877 29.3973 55.8877C30.1098 55.8877 30.6603 56.1144 31.049 56.5678C31.4376 56.9565 31.6319 57.5718 31.6319 58.4138C31.6319 59.1911 31.4376 59.8065 31.049 60.2599C30.6603 60.7133 30.1098 60.94 29.3973 60.94C28.6848 60.94 28.1018 60.7133 27.6484 60.2599C27.2597 59.8065 27.0654 59.1911 27.0654 58.4138ZM29.3973 60.357C29.9154 60.357 30.3041 60.1951 30.5632 59.8712C30.8223 59.5474 30.9518 59.0616 30.9518 58.4138C30.9518 57.7661 30.8223 57.2803 30.5632 56.9565C30.3041 56.6326 29.9154 56.4707 29.3973 56.4707C28.8791 56.4707 28.4904 56.6326 28.2313 56.9565C27.9723 57.2803 27.8427 57.7661 27.8427 58.4138C27.8427 59.0616 27.9723 59.5474 28.2313 59.8712C28.4904 60.1951 28.8791 60.357 29.3973 60.357Z" fill="#FF6A00"/>
</g>
<path d="M0.245117 81.5378H26.1919V93.6634H12.3706C5.6739 93.6634 0.245117 88.2346 0.245117 81.5378V81.5378Z" fill="white"/>
<rect x="26.1924" y="81.5378" width="92.1064" height="12.1255" fill="white"/>
<path d="M118.298 81.5378H144.245V81.5378C144.245 88.2346 138.816 93.6634 132.119 93.6634H118.298V81.5378Z" fill="white"/>
</g>
<rect x="0.994886" y="1.18165" width="142.5" height="84.5005" rx="3.13661" stroke="white" stroke-width="1.49954"/>
<defs>
<clipPath id="clip0_214_15093">
<rect x="0.245117" y="0.431885" width="144" height="86" rx="3.88638" fill="white"/>
</clipPath>
<clipPath id="clip1_214_15093">
<rect width="199.177" height="61.2105" fill="white" transform="translate(-27.3438 20.3271)"/>
</clipPath>
</defs>
</svg>
