<svg width="145" height="87" viewBox="0 0 145 87" fill="none" xmlns="http://www.w3.org/2000/svg">
<g clip-path="url(#clip0_214_14277)">
<rect x="0.119141" y="0.431885" width="144" height="86" rx="3.88638" fill="white"/>
<path d="M0.119141 7.27046C0.119141 0.573023 5.54849 -4.85632 12.2459 -4.85632L26.0659 -4.85632V7.27046L0.119141 7.27046V7.27046Z" fill="white"/>
<rect x="26.0664" y="-4.85632" width="92.1064" height="12.1268" fill="white"/>
<path d="M118.172 -4.85632L131.992 -4.85632C138.689 -4.85632 144.119 0.573023 144.119 7.27046V7.27046L118.172 7.27046V-4.85632Z" fill="white"/>
<rect width="144" height="15" transform="translate(0.119141 7.27039)" fill="white"/>
<path d="M45.8411 11.109L49.1931 19.2704H48.1904L47.2635 16.9969H43.2236L42.3025 19.2704H41.329L44.681 11.109H45.8411ZM45.2465 12.0359L43.5851 16.1108H46.9079L45.2465 12.0359ZM52.8195 13.639C53.2314 13.639 53.6142 13.7148 53.9679 13.8664C54.3216 14.0141 54.6208 14.2278 54.8656 14.5076L54.306 15.0964C53.8668 14.6689 53.3636 14.4552 52.7961 14.4552C52.2404 14.4552 51.776 14.6495 51.4029 15.0381C51.0337 15.4268 50.8491 15.9164 50.8491 16.5072C50.8491 17.1018 51.0337 17.5934 51.4029 17.982C51.776 18.3707 52.2404 18.565 52.7961 18.565C53.3713 18.565 53.8804 18.3493 54.3235 17.9179L54.8656 18.5125C54.6169 18.7924 54.3157 19.0081 53.9621 19.1596C53.6084 19.3073 53.2275 19.3811 52.8195 19.3811C51.98 19.3811 51.2941 19.1091 50.7616 18.565C50.2292 18.0209 49.963 17.335 49.963 16.5072C49.963 15.6833 50.2292 14.9992 50.7616 14.4552C51.2941 13.9111 51.98 13.639 52.8195 13.639ZM58.5666 13.639C59.3167 13.639 59.9346 13.9052 60.4204 14.4377C60.9101 14.9701 61.1569 15.6541 61.1608 16.4897C61.1608 16.6102 61.1549 16.719 61.1433 16.8161H56.7186C56.7769 17.3913 56.9868 17.8363 57.3482 18.1511C57.7097 18.462 58.1508 18.6175 58.6715 18.6175C59.3322 18.6175 59.9152 18.3862 60.4204 17.9238L60.8868 18.5184C60.2844 19.0936 59.5285 19.3811 58.6191 19.3811C57.799 19.3811 57.1286 19.1169 56.6079 18.5883C56.0871 18.0559 55.8267 17.3641 55.8267 16.513C55.8267 15.6735 56.0851 14.9856 56.602 14.4493C57.1189 13.9091 57.7738 13.639 58.5666 13.639ZM58.5491 14.4143C58.0517 14.4143 57.6416 14.5698 57.3191 14.8807C56.9965 15.1916 56.8002 15.6016 56.7303 16.1108H60.2747C60.2203 15.5939 60.0357 15.1819 59.7209 14.8749C59.41 14.5679 59.0194 14.4143 58.5491 14.4143ZM66.4734 13.7498V14.5368H64.0891V17.3233C64.0891 17.7392 64.1882 18.0501 64.3864 18.256C64.5846 18.462 64.8509 18.565 65.1851 18.565C65.6009 18.565 65.9876 18.4348 66.3452 18.1744L66.7532 18.8332C66.2713 19.1985 65.7253 19.3811 65.1151 19.3811C64.5089 19.3811 64.0405 19.2121 63.7102 18.874C63.3837 18.532 63.2205 18.0209 63.2205 17.3408V14.5368L62.0138 14.5368V13.7498L63.2205 13.7498V11.9951H64.0891V13.7498H66.4734ZM68.8825 13.7498V19.2704H68.0081V13.7498H68.8825ZM68.4453 11.1731C68.6163 11.1731 68.762 11.2333 68.8825 11.3538C69.003 11.4704 69.0632 11.6162 69.0632 11.791C69.0632 11.9659 69.003 12.1117 68.8825 12.2283C68.7659 12.3448 68.6202 12.4031 68.4453 12.4031C68.2704 12.4031 68.1246 12.3448 68.0081 12.2283C67.8915 12.1117 67.8332 11.9659 67.8332 11.791C67.8332 11.6162 67.8915 11.4704 68.0081 11.3538C68.1246 11.2333 68.2704 11.1731 68.4453 11.1731ZM73.3596 13.639C73.7716 13.639 74.1544 13.7148 74.508 13.8664C74.8617 14.0141 75.1609 14.2278 75.4058 14.5076L74.8462 15.0964C74.407 14.6689 73.9037 14.4552 73.3363 14.4552C72.7805 14.4552 72.3161 14.6495 71.943 15.0381C71.5738 15.4268 71.3892 15.9164 71.3892 16.5072C71.3892 17.1018 71.5738 17.5934 71.943 17.982C72.3161 18.3707 72.7805 18.565 73.3363 18.565C73.9115 18.565 74.4206 18.3493 74.8636 17.9179L75.4058 18.5125C75.1571 18.7924 74.8559 19.0081 74.5022 19.1596C74.1485 19.3073 73.7677 19.3811 73.3596 19.3811C72.5201 19.3811 71.8342 19.1091 71.3018 18.565C70.7693 18.0209 70.5031 17.335 70.5031 16.5072C70.5031 15.6833 70.7693 14.9992 71.3018 14.4552C71.8342 13.9111 72.5201 13.639 73.3596 13.639ZM85.2207 13.7498V19.2704L84.3521 19.2704V18.4484C83.8702 19.0702 83.1978 19.3811 82.3351 19.3811C81.5539 19.3811 80.899 19.1091 80.3705 18.565C79.8419 18.017 79.5777 17.3311 79.5777 16.5072C79.5777 15.6833 79.8419 14.9992 80.3705 14.4552C80.899 13.9111 81.5539 13.639 82.3351 13.639C83.194 13.639 83.8663 13.9499 84.3521 14.5717V13.7498H85.2207ZM82.44 14.4552C81.857 14.4552 81.381 14.6534 81.0117 15.0498C80.6464 15.4423 80.4638 15.9281 80.4638 16.5072C80.4638 17.0862 80.6484 17.574 81.0176 17.9704C81.3868 18.3668 81.8609 18.565 82.44 18.565C83.0113 18.565 83.4815 18.3707 83.8508 17.982C84.22 17.5895 84.4046 17.0979 84.4046 16.5072C84.4046 15.9203 84.22 15.4326 83.8508 15.0439C83.4815 14.6514 83.0113 14.4552 82.44 14.4552ZM89.6984 13.639C90.1103 13.639 90.4931 13.7148 90.8468 13.8664C91.2004 14.0141 91.4997 14.2278 91.7445 14.5076L91.1849 15.0964C90.7457 14.6689 90.2425 14.4552 89.675 14.4552C89.1193 14.4552 88.6549 14.6495 88.2818 15.0381C87.9126 15.4268 87.728 15.9164 87.728 16.5072C87.728 17.1018 87.9126 17.5934 88.2818 17.982C88.6549 18.3707 89.1193 18.565 89.675 18.565C90.2502 18.565 90.7593 18.3493 91.2024 17.9179L91.7445 18.5125C91.4958 18.7924 91.1946 19.0081 90.841 19.1596C90.4873 19.3073 90.1064 19.3811 89.6984 19.3811C88.8589 19.3811 88.173 19.1091 87.6405 18.565C87.1081 18.0209 86.8419 17.335 86.8419 16.5072C86.8419 15.6833 87.1081 14.9992 87.6405 14.4552C88.173 13.9111 88.8589 13.639 89.6984 13.639ZM94.1022 13.7498V19.2704H93.2278V13.7498H94.1022ZM93.665 11.1731C93.836 11.1731 93.9818 11.2333 94.1022 11.3538C94.2227 11.4704 94.283 11.6162 94.283 11.791C94.283 11.9659 94.2227 12.1117 94.1022 12.2283C93.9856 12.3448 93.8399 12.4031 93.665 12.4031C93.4901 12.4031 93.3444 12.3448 93.2278 12.2283C93.1112 12.1117 93.0529 11.9659 93.0529 11.791C93.0529 11.6162 93.1112 11.4704 93.2278 11.3538C93.3444 11.2333 93.4901 11.1731 93.665 11.1731ZM98.4803 13.639C99.3391 13.639 100.011 13.9499 100.497 14.5717V10.8758H101.366V19.2704H100.497V18.4484C100.015 19.0702 99.343 19.3811 98.4803 19.3811C97.6991 19.3811 97.0442 19.1091 96.5157 18.565C95.9871 18.017 95.7229 17.3311 95.7229 16.5072C95.7229 15.6833 95.9871 14.9992 96.5157 14.4552C97.0442 13.9111 97.6991 13.639 98.4803 13.639ZM98.5852 14.4552C98.0022 14.4552 97.5261 14.6534 97.1569 15.0498C96.7916 15.4423 96.609 15.9281 96.609 16.5072C96.609 17.0862 96.7936 17.574 97.1628 17.9704C97.532 18.3668 98.0061 18.565 98.5852 18.565C99.1565 18.565 99.6267 18.3707 99.9959 17.982C100.365 17.5895 100.55 17.0979 100.55 16.5072C100.55 15.9203 100.365 15.4326 99.9959 15.0439C99.6267 14.6514 99.1565 14.4552 98.5852 14.4552Z" fill="#231F20"/>
<g clip-path="url(#clip1_214_14277)">
<path d="M101.753 22.2704L42.4854 22.2704V79.5945H101.753V22.2704Z" fill="white"/>
<path d="M55.4072 63.9519L70.5641 55.2075" stroke="#231F20" stroke-width="0.971596"/>
<path d="M69.2041 55.9847L75.7138 59.6768" stroke="#231F20" stroke-width="0.971596"/>
<path d="M75.7139 59.6769L82.2236 63.4661" stroke="#FF6A00" stroke-width="0.971596"/>
<path d="M70.5645 53.7501L76.977 57.4422" stroke="#231F20" stroke-width="0.971596"/>
<path d="M76.9766 57.4421L83.4863 61.1342" stroke="#FF6A00" stroke-width="0.971596"/>
<path d="M70.5645 55.2075V48.0177" stroke="#231F20" stroke-width="0.971596"/>
<path d="M70.5645 48.0176V40.9249" stroke="#FF6A00" stroke-width="0.971596"/>
<path d="M69.7871 55.6933L70.5644 55.2075V54.8188" stroke="#231F20" stroke-width="0.971596"/>
<path d="M83.3887 63.9519C83.3887 63.1747 83.583 62.5593 83.9716 62.1059C84.3603 61.6525 84.9432 61.4258 85.7205 61.4258C86.433 61.4258 86.9836 61.6525 87.3722 62.1059C87.7609 62.5593 87.9552 63.1747 87.9552 63.9519C87.9552 64.794 87.7609 65.4417 87.3722 65.8951C86.9836 66.3485 86.433 66.5752 85.7205 66.5752C84.9432 66.5752 84.3603 66.3485 83.9716 65.8951C83.583 65.4417 83.3887 64.794 83.3887 63.9519ZM85.7205 65.9923C86.1739 65.9923 86.5626 65.8303 86.8864 65.5065C87.1455 65.1178 87.2751 64.5997 87.2751 63.9519C87.2751 63.3042 87.1455 62.8184 86.8864 62.4945C86.5626 62.1707 86.1739 62.0087 85.7205 62.0087C85.2023 62.0087 84.8137 62.1707 84.5546 62.4945C84.2307 62.8184 84.0688 63.3042 84.0688 63.9519C84.0688 64.6644 84.2307 65.1826 84.5546 65.5065C84.8137 65.8303 85.2023 65.9923 85.7205 65.9923Z" fill="#FF6A00"/>
<path d="M68.2324 37.7188C68.2324 36.9415 68.4267 36.3262 68.8154 35.8727C69.204 35.4193 69.787 35.1926 70.5643 35.1926C71.2768 35.1926 71.8273 35.4193 72.216 35.8727C72.6046 36.3262 72.7989 36.9415 72.7989 37.7188C72.7989 38.5608 72.6046 39.2086 72.216 39.662C71.8273 40.1154 71.2768 40.3421 70.5643 40.3421C69.8517 40.3421 69.2688 40.1154 68.8154 39.662C68.4267 39.2086 68.2324 38.5608 68.2324 37.7188ZM70.5643 39.7591C71.0824 39.7591 71.4711 39.5972 71.7302 39.2733C71.9893 38.8847 72.1188 38.3665 72.1188 37.7188C72.1188 37.071 71.9893 36.5852 71.7302 36.2614C71.4711 35.9375 71.0824 35.7756 70.5643 35.7756C70.0461 35.7756 69.6574 35.9375 69.3983 36.2614C69.1392 36.5852 69.0097 37.071 69.0097 37.7188C69.0097 38.4313 69.1392 38.9495 69.3983 39.2733C69.6574 39.5972 70.0461 39.7591 70.5643 39.7591Z" fill="#FF6A00"/>
<path d="M73.5762 35.2898H74.2563V37.4273H76.7824V35.2898H77.4626V40.2449H76.7824V37.9131H74.2563V40.2449H73.5762V35.2898Z" fill="#FF6A00"/>
</g>
<path d="M0.119141 79.5946H26.0659V91.7201H12.2447C5.54793 91.7201 0.119141 86.2913 0.119141 79.5946V79.5946Z" fill="white"/>
<rect x="26.0664" y="79.5946" width="92.1064" height="12.1255" fill="white"/>
<path d="M118.172 79.5946H144.119V79.5946C144.119 86.2913 138.69 91.7201 131.993 91.7201H118.172V79.5946Z" fill="white"/>
</g>
<rect x="0.86891" y="1.18165" width="142.5" height="84.5005" rx="3.13661" stroke="white" stroke-width="1.49954"/>
<defs>
<clipPath id="clip0_214_14277">
<rect x="0.119141" y="0.431885" width="144" height="86" rx="3.88638" fill="white"/>
</clipPath>
<clipPath id="clip1_214_14277">
<rect width="59.2673" height="57.3242" fill="white" transform="translate(42.4854 22.2704)"/>
</clipPath>
</defs>
</svg>
