<svg width="145" height="88" viewBox="0 0 145 88" fill="none" xmlns="http://www.w3.org/2000/svg">
<g clip-path="url(#clip0_214_14373)">
<rect x="0.431641" y="0.431885" width="144" height="87" rx="3.88638" fill="white"/>
<path d="M0.431641 8.74202C0.431641 2.04458 5.86099 -3.38477 12.5584 -3.38477L26.3784 -3.38477V8.74202H0.431641V8.74202Z" fill="white"/>
<rect x="26.3789" y="-3.38477" width="92.1064" height="12.1268" fill="white"/>
<path d="M118.484 -3.38477L132.304 -3.38477C139.002 -3.38477 144.431 2.04458 144.431 8.74202V8.74202L118.484 8.74202V-3.38477Z" fill="white"/>
<rect width="144" height="15" transform="translate(0.431641 8.74207)" fill="white"/>
<path d="M41.1751 15.2215V20.7421H40.3065V19.9201C39.8246 20.5419 39.1523 20.8528 38.2895 20.8528C37.5083 20.8528 36.8535 20.5808 36.3249 20.0367C35.7964 19.4887 35.5321 18.8028 35.5321 17.9788C35.5321 17.1549 35.7964 16.4709 36.3249 15.9268C36.8535 15.3827 37.5083 15.1107 38.2895 15.1107C39.1484 15.1107 39.8207 15.4216 40.3065 16.0434V15.2215H41.1751ZM38.3944 15.9268C37.8115 15.9268 37.3354 16.125 36.9662 16.5215C36.6008 16.914 36.4182 17.3998 36.4182 17.9788C36.4182 18.5579 36.6028 19.0457 36.972 19.4421C37.3412 19.8385 37.8153 20.0367 38.3944 20.0367C38.9657 20.0367 39.436 19.8424 39.8052 19.4537C40.1744 19.0612 40.359 18.5696 40.359 17.9788C40.359 17.392 40.1744 16.9043 39.8052 16.5156C39.436 16.1231 38.9657 15.9268 38.3944 15.9268ZM44.0905 12.3475V20.7421H43.216V12.3475H44.0905ZM49.0164 15.1107C49.7976 15.1107 50.4525 15.3827 50.981 15.9268C51.5096 16.4709 51.7738 17.1549 51.7738 17.9788C51.7738 18.8028 51.5096 19.4887 50.981 20.0367C50.4525 20.5808 49.7976 20.8528 49.0164 20.8528C48.1576 20.8528 47.4872 20.5439 47.0052 19.9259V23.0739H46.1308V15.2215H47.0052V16.0376C47.4872 15.4197 48.1576 15.1107 49.0164 15.1107ZM48.9115 15.9268C48.3402 15.9268 47.87 16.1231 47.5008 16.5156C47.1315 16.9043 46.9469 17.392 46.9469 17.9788C46.9469 18.5696 47.1315 19.0612 47.5008 19.4537C47.87 19.8424 48.3402 20.0367 48.9115 20.0367C49.4945 20.0367 49.9686 19.8404 50.3339 19.4479C50.6992 19.0515 50.8819 18.5618 50.8819 17.9788C50.8819 17.3998 50.6973 16.914 50.3281 16.5215C49.9589 16.125 49.4867 15.9268 48.9115 15.9268ZM54.2694 12.3475V15.991C54.4832 15.6878 54.7533 15.4663 55.0797 15.3264C55.4062 15.1826 55.7521 15.1107 56.1174 15.1107C56.8014 15.1107 57.3552 15.3128 57.7788 15.717C58.2063 16.1212 58.4201 16.6555 58.4201 17.3201V20.7421H57.5515V17.6058C57.5515 17.0811 57.4116 16.673 57.1318 16.3815C56.8558 16.0862 56.4652 15.9385 55.96 15.9385C55.482 15.9385 55.0797 16.094 54.7533 16.4049C54.4307 16.7119 54.2694 17.12 54.2694 17.6291V20.7421H53.395V12.3475H54.2694ZM65.6206 15.2215V20.7421H64.752V19.9201C64.2701 20.5419 63.5978 20.8528 62.735 20.8528C61.9538 20.8528 61.299 20.5808 60.7704 20.0367C60.2419 19.4887 59.9776 18.8028 59.9776 17.9788C59.9776 17.1549 60.2419 16.4709 60.7704 15.9268C61.299 15.3827 61.9538 15.1107 62.735 15.1107C63.5939 15.1107 64.2662 15.4216 64.752 16.0434V15.2215H65.6206ZM62.8399 15.9268C62.257 15.9268 61.7809 16.125 61.4117 16.5215C61.0463 16.914 60.8637 17.3998 60.8637 17.9788C60.8637 18.5579 61.0483 19.0457 61.4175 19.4421C61.7867 19.8385 62.2608 20.0367 62.8399 20.0367C63.4112 20.0367 63.8815 19.8424 64.2507 19.4537C64.6199 19.0612 64.8045 18.5696 64.8045 17.9788C64.8045 17.392 64.6199 16.9043 64.2507 16.5156C63.8815 16.1231 63.4112 15.9268 62.8399 15.9268ZM70.7046 17.2618V18.0546H67.4633V17.2618H70.7046ZM75.7873 17.46H73.642V20.7421H72.7035V12.5807H75.7873C76.7006 12.5807 77.4099 12.7964 77.9151 13.2277C78.4203 13.6591 78.673 14.2576 78.673 15.0233C78.673 15.7889 78.4203 16.3874 77.9151 16.8188C77.4099 17.2463 76.7006 17.46 75.7873 17.46ZM75.7582 13.4668H73.642V16.5797H75.7582C76.3916 16.5797 76.8736 16.4496 77.2039 16.1892C77.5342 15.9288 77.6994 15.5401 77.6994 15.0233C77.6994 14.5064 77.5342 14.1177 77.2039 13.8573C76.8736 13.5969 76.3916 13.4668 75.7582 13.4668ZM81.1629 15.2215V20.7421H80.2885V15.2215H81.1629ZM80.7257 12.6448C80.8967 12.6448 81.0424 12.705 81.1629 12.8255C81.2834 12.9421 81.3436 13.0878 81.3436 13.2627C81.3436 13.4376 81.2834 13.5833 81.1629 13.6999C81.0463 13.8165 80.9006 13.8748 80.7257 13.8748C80.5508 13.8748 80.4051 13.8165 80.2885 13.6999C80.1719 13.5833 80.1136 13.4376 80.1136 13.2627C80.1136 13.0878 80.1719 12.9421 80.2885 12.8255C80.4051 12.705 80.5508 12.6448 80.7257 12.6448ZM85.9257 15.1107C86.6097 15.1107 87.1635 15.3128 87.5871 15.717C88.0146 16.1212 88.2284 16.6555 88.2284 17.3201V20.7421H87.3597V17.6058C87.3597 17.0811 87.2198 16.673 86.94 16.3815C86.6641 16.0862 86.2735 15.9385 85.7683 15.9385C85.2902 15.9385 84.888 16.094 84.5615 16.4049C84.239 16.7119 84.0777 17.12 84.0777 17.6291V20.7421L83.2033 20.7421V15.2215H84.066V16.0084C84.2759 15.6975 84.546 15.4702 84.8763 15.3264C85.2067 15.1826 85.5565 15.1107 85.9257 15.1107ZM92.5258 15.1107C93.2758 15.1107 93.8938 15.3769 94.3796 15.9093C94.8692 16.4418 95.116 17.1258 95.1199 17.9614C95.1199 18.0818 95.1141 18.1907 95.1024 18.2878H90.6778C90.7361 18.863 90.9459 19.308 91.3074 19.6228C91.6688 19.9337 92.1099 20.0892 92.6307 20.0892C93.2914 20.0892 93.8743 19.8579 94.3796 19.3954L94.8459 19.9901C94.2435 20.5652 93.4876 20.8528 92.5782 20.8528C91.7582 20.8528 91.0878 20.5886 90.567 20.06C90.0462 19.5276 89.7859 18.8358 89.7859 17.9847C89.7859 17.1452 90.0443 16.4573 90.5612 15.921C91.0781 15.3808 91.7329 15.1107 92.5258 15.1107ZM92.5083 15.886C92.0108 15.886 91.6008 16.0415 91.2782 16.3524C90.9557 16.6633 90.7594 17.0733 90.6894 17.5824H94.2338C94.1794 17.0655 93.9948 16.6536 93.68 16.3466C93.3691 16.0395 92.9785 15.886 92.5083 15.886ZM99.4635 15.1107C100.147 15.1107 100.701 15.3128 101.125 15.717C101.552 16.1212 101.766 16.6555 101.766 17.3201V20.7421H100.898V17.6058C100.898 17.0811 100.758 16.673 100.478 16.3815C100.202 16.0862 99.8113 15.9385 99.3061 15.9385C98.8281 15.9385 98.4258 16.094 98.0994 16.4049C97.7768 16.7119 97.6155 17.12 97.6155 17.6291V20.7421H96.7411V15.2215H97.6039V16.0084C97.8137 15.6975 98.0838 15.4702 98.4142 15.3264C98.7445 15.1826 99.0943 15.1107 99.4635 15.1107ZM106.064 15.1107C106.814 15.1107 107.432 15.3769 107.917 15.9093C108.407 16.4418 108.654 17.1258 108.658 17.9614C108.658 18.0818 108.652 18.1907 108.64 18.2878H104.216C104.274 18.863 104.484 19.308 104.845 19.6228C105.207 19.9337 105.648 20.0892 106.169 20.0892C106.829 20.0892 107.412 19.8579 107.917 19.3954L108.384 19.9901C107.781 20.5652 107.025 20.8528 106.116 20.8528C105.296 20.8528 104.626 20.5886 104.105 20.06C103.584 19.5276 103.324 18.8358 103.324 17.9847C103.324 17.1452 103.582 16.4573 104.099 15.921C104.616 15.3808 105.271 15.1107 106.064 15.1107ZM106.046 15.886C105.549 15.886 105.139 16.0415 104.816 16.3524C104.493 16.6633 104.297 17.0733 104.227 17.5824H107.772C107.717 17.0655 107.533 16.6536 107.218 16.3466C106.907 16.0395 106.516 15.886 106.046 15.886Z" fill="#231F20"/>
<g clip-path="url(#clip1_214_14373)">
<path d="M120.04 23.7421L24.8232 23.7421V79.123H120.04V23.7421Z" fill="white"/>
<path d="M98.5678 51.5297L81.0791 51.4325" stroke="#231F20" stroke-width="0.971596"/>
<path d="M64.3671 63.9662L63.5898 51.3354" stroke="#231F20" stroke-width="0.971596"/>
<path d="M74.0831 58.5253L63.5898 51.3354" stroke="#231F20" stroke-width="0.971596"/>
<path d="M72.2368 66.4923L54.748 66.3951" stroke="#231F20" stroke-width="0.971596"/>
<path d="M72.2373 66.4922L81.0788 51.4325" stroke="#231F20" stroke-width="0.971596"/>
<path d="M70.7793 63.9662L78.1634 51.3354" stroke="#231F20" stroke-width="0.971596"/>
<path d="M54.7488 66.395L46.1016 51.141" stroke="#231F20" stroke-width="0.971596"/>
<path d="M54.9431 36.0813L46.1016 51.141" stroke="#231F20" stroke-width="0.971596"/>
<path d="M54.9424 36.0813L72.4311 36.1785" stroke="#231F20" stroke-width="0.971596"/>
<path d="M81.0788 51.4326L72.4316 36.1786" stroke="#231F20" stroke-width="0.971596"/>
<path d="M46.1016 51.141L63.5903 51.3353" stroke="#231F20" stroke-width="0.971596"/>
<path d="M72.4314 36.1786L63.5898 51.3355" stroke="#231F20" stroke-width="0.971596"/>
<path d="M71.3633 66.4922H72.2377L72.7235 65.715" stroke="#231F20" stroke-width="0.971596"/>
<path d="M55.6234 66.3951H54.749L54.3604 65.6178" stroke="#231F20" stroke-width="0.971596"/>
<path d="M54.457 36.8586L54.9428 36.0813H55.8173" stroke="#231F20" stroke-width="0.971596"/>
</g>
<path d="M0.431641 79.123H26.3784V91.2486H12.5572C5.86043 91.2486 0.431641 85.8198 0.431641 79.123V79.123Z" fill="white"/>
<rect x="26.3789" y="79.123" width="92.1064" height="12.1255" fill="white"/>
<path d="M118.484 79.123H144.431V79.123C144.431 85.8198 139.002 91.2486 132.306 91.2486H118.484V79.123Z" fill="white"/>
</g>
<rect x="1.18141" y="1.18165" width="142.5" height="85.5005" rx="3.13661" stroke="white" stroke-width="1.49954"/>
<defs>
<clipPath id="clip0_214_14373">
<rect x="0.431641" y="0.431885" width="144" height="87" rx="3.88638" fill="white"/>
</clipPath>
<clipPath id="clip1_214_14373">
<rect width="95.2164" height="55.381" fill="white" transform="translate(24.8232 23.7421)"/>
</clipPath>
</defs>
</svg>
