<svg width="144" height="87" viewBox="0 0 144 87" fill="none" xmlns="http://www.w3.org/2000/svg">
<g clip-path="url(#clip0_214_14637)">
<rect x="0.870117" y="0.431885" width="143" height="86" rx="3.88638" fill="white"/>
<path d="M0.870117 12.5587C0.870117 5.86123 6.29946 0.431885 12.9969 0.431885L26.8169 0.431885V12.5587H0.870117V12.5587Z" fill="white"/>
<rect x="26.8174" y="0.431885" width="91.1064" height="12.1268" fill="white"/>
<path d="M117.923 0.431885L131.743 0.431885C138.44 0.431885 143.87 5.86123 143.87 12.5587V12.5587L117.923 12.5587V0.431885Z" fill="white"/>
<rect width="143" height="15" transform="translate(0.870117 12.5587)" fill="white"/>
<path d="M56.2903 16.2807C57.0909 16.2807 57.8118 16.4595 58.4531 16.817C59.0943 17.1707 59.5956 17.6682 59.9571 18.3094C60.3224 18.9507 60.5051 19.6735 60.5051 20.478C60.5051 21.2825 60.3224 22.0054 59.9571 22.6466C59.5956 23.2879 59.0943 23.7873 58.4531 24.1448C57.8118 24.4985 57.0909 24.6753 56.2903 24.6753C55.6918 24.6753 55.1321 24.5704 54.6114 24.3605C54.0906 24.1506 53.6437 23.8631 53.2706 23.4977C52.9014 23.1285 52.6099 22.6835 52.3961 22.1628C52.1824 21.642 52.0755 21.0804 52.0755 20.478C52.0755 19.8756 52.1824 19.314 52.3961 18.7933C52.6099 18.2725 52.9014 17.8294 53.2706 17.4641C53.6437 17.0949 54.0906 16.8054 54.6114 16.5955C55.1321 16.3857 55.6918 16.2807 56.2903 16.2807ZM56.2903 17.1843C55.8356 17.1843 55.41 17.2659 55.0136 17.4291C54.6172 17.5885 54.2752 17.81 53.9876 18.0937C53.7 18.3774 53.4727 18.7253 53.3055 19.1372C53.1423 19.5492 53.0607 19.9961 53.0607 20.478C53.0607 20.9599 53.1423 21.4069 53.3055 21.8188C53.4727 22.2308 53.7 22.5786 53.9876 22.8623C54.2752 23.146 54.6172 23.3695 55.0136 23.5327C55.41 23.6921 55.8356 23.7717 56.2903 23.7717C56.9004 23.7717 57.4504 23.6357 57.94 23.3637C58.4297 23.0916 58.8164 22.703 59.1001 22.1977C59.3838 21.6925 59.5257 21.1193 59.5257 20.478C59.5257 19.8368 59.3838 19.2635 59.1001 18.7583C58.8164 18.2531 58.4297 17.8644 57.94 17.5924C57.4504 17.3203 56.9004 17.1843 56.2903 17.1843ZM64.6986 18.9273C65.1106 18.9273 65.4934 19.0031 65.847 19.1547C66.2007 19.3024 66.5 19.5161 66.7448 19.796L66.1852 20.3847C65.746 19.9572 65.2427 19.7435 64.6753 19.7435C64.1196 19.7435 63.6551 19.9378 63.282 20.3264C62.9128 20.7151 62.7282 21.2048 62.7282 21.7955C62.7282 22.3901 62.9128 22.8817 63.282 23.2704C63.6551 23.659 64.1196 23.8533 64.6753 23.8533C65.2505 23.8533 65.7596 23.6376 66.2027 23.2063L66.7448 23.8009C66.4961 24.0807 66.1949 24.2964 65.8412 24.448C65.4876 24.5956 65.1067 24.6695 64.6986 24.6695C63.8592 24.6695 63.1732 24.3974 62.6408 23.8533C62.1083 23.3092 61.8421 22.6233 61.8421 21.7955C61.8421 20.9716 62.1083 20.2876 62.6408 19.7435C63.1732 19.1994 63.8592 18.9273 64.6986 18.9273ZM72.0562 19.0381V19.8251H69.6719V22.6116C69.6719 23.0275 69.771 23.3384 69.9692 23.5444C70.1674 23.7503 70.4336 23.8533 70.7678 23.8533C71.1837 23.8533 71.5704 23.7231 71.9279 23.4628L72.336 24.1215C71.8541 24.4868 71.3081 24.6695 70.6979 24.6695C70.0916 24.6695 69.6233 24.5004 69.293 24.1623C68.9665 23.8203 68.8033 23.3092 68.8033 22.6291V19.8251H67.5966V19.0381H68.8033V17.2834H69.6719V19.0381H72.0562ZM78.7913 19.0381V24.5587H77.9227V23.7367C77.4408 24.3586 76.7685 24.6695 75.9057 24.6695C75.1245 24.6695 74.4697 24.3974 73.9411 23.8533C73.4126 23.3054 73.1483 22.6194 73.1483 21.7955C73.1483 20.9716 73.4126 20.2876 73.9411 19.7435C74.4697 19.1994 75.1245 18.9273 75.9057 18.9273C76.7646 18.9273 77.4369 19.2383 77.9227 19.8601V19.0381H78.7913ZM76.0106 19.7435C75.4277 19.7435 74.9516 19.9417 74.5824 20.3381C74.2171 20.7306 74.0344 21.2164 74.0344 21.7955C74.0344 22.3746 74.219 22.8623 74.5882 23.2587C74.9574 23.6551 75.4316 23.8533 76.0106 23.8533C76.5819 23.8533 77.0522 23.659 77.4214 23.2704C77.7906 22.8779 77.9752 22.3862 77.9752 21.7955C77.9752 21.2087 77.7906 20.7209 77.4214 20.3323C77.0522 19.9397 76.5819 19.7435 76.0106 19.7435ZM83.5547 18.9273C84.2387 18.9273 84.7925 19.1294 85.2161 19.5336C85.6436 19.9378 85.8573 20.4722 85.8573 21.1368V24.5587H84.9887V21.4224C84.9887 20.8977 84.8488 20.4897 84.569 20.1982C84.2931 19.9028 83.9025 19.7551 83.3973 19.7551C82.9192 19.7551 82.517 19.9106 82.1905 20.2215C81.868 20.5285 81.7067 20.9366 81.7067 21.4457V24.5587H80.8322V19.0381H81.695V19.8251C81.9049 19.5142 82.175 19.2868 82.5053 19.143C82.8357 18.9992 83.1855 18.9273 83.5547 18.9273ZM90.1547 18.9273C90.9048 18.9273 91.5227 19.1936 92.0085 19.726C92.4982 20.2584 92.745 20.9424 92.7489 21.778C92.7489 21.8985 92.7431 22.0073 92.7314 22.1045H88.3068C88.3651 22.6796 88.5749 23.1246 88.9364 23.4394C89.2978 23.7503 89.7389 23.9058 90.2597 23.9058C90.9204 23.9058 91.5033 23.6746 92.0085 23.2121L92.4749 23.8067C91.8725 24.3819 91.1166 24.6695 90.2072 24.6695C89.3872 24.6695 88.7168 24.4052 88.196 23.8767C87.6752 23.3442 87.4148 22.6524 87.4148 21.8013C87.4148 20.9619 87.6733 20.274 88.1902 19.7377C88.7071 19.1974 89.3619 18.9273 90.1547 18.9273ZM90.1373 19.7027C89.6398 19.7027 89.2298 19.8581 88.9072 20.169C88.5846 20.48 88.3884 20.89 88.3184 21.3991H91.8628C91.8084 20.8822 91.6238 20.4702 91.309 20.1632C90.9981 19.8562 90.6075 19.7027 90.1373 19.7027Z" fill="#231F20"/>
<path d="M0.870117 27.5587H26.8169V39.6842H12.9956C6.2989 39.6842 0.870117 34.2555 0.870117 27.5587V27.5587Z" fill="white"/>
<rect x="26.8174" y="27.5587" width="91.1064" height="12.1255" fill="white"/>
<path d="M117.923 27.5587H143.87V27.5587C143.87 34.2555 138.441 39.6842 131.744 39.6842H117.923V27.5587Z" fill="white"/>
<g clip-path="url(#clip1_214_14637)">
<path d="M169.53 39.6842L-24.7891 39.6842V59.1161L169.53 59.1161V39.6842Z" fill="white"/>
<path d="M19.2236 52.315L34.672 43.9592" stroke="#231F20" stroke-width="0.971596"/>
<path d="M125.517 46.4854L110.068 54.8411" stroke="#231F20" stroke-width="0.971596"/>
<path d="M34.6729 43.9592L49.5383 53.0922" stroke="#231F20" stroke-width="0.971596"/>
<path d="M110.069 54.841L95.2031 45.708" stroke="#231F20" stroke-width="0.971596"/>
<path d="M49.5381 53.0923L64.8893 44.8337" stroke="#231F20" stroke-width="0.971596"/>
<path d="M95.2028 45.708L79.8516 53.9666" stroke="#231F20" stroke-width="0.971596"/>
<path d="M64.8887 44.8337L79.8512 53.9667" stroke="#231F20" stroke-width="0.971596"/>
<path d="M33.8955 44.3479L34.6728 43.9592L35.3529 44.445" stroke="#231F20" stroke-width="0.971596"/>
<path d="M110.845 54.4524L110.068 54.841L109.388 54.3552" stroke="#231F20" stroke-width="0.971596"/>
<path d="M48.7607 52.7036L49.538 53.0923L50.3153 52.7036" stroke="#231F20" stroke-width="0.971596"/>
<path d="M95.9803 46.0966L95.2031 45.708L94.4258 46.0966" stroke="#231F20" stroke-width="0.971596"/>
<path d="M64.1123 45.2224L64.8896 44.8337L65.6669 45.3195" stroke="#231F20" stroke-width="0.971596"/>
<path d="M80.6297 53.578L79.8525 53.9666L79.0752 53.4808" stroke="#231F20" stroke-width="0.971596"/>
</g>
</g>
<rect x="1.61989" y="1.18165" width="141.5" height="84.5005" rx="3.13661" stroke="white" stroke-width="1.49954"/>
<defs>
<clipPath id="clip0_214_14637">
<rect x="0.870117" y="0.431885" width="143" height="86" rx="3.88638" fill="white"/>
</clipPath>
<clipPath id="clip1_214_14637">
<rect width="194.319" height="19.4319" fill="white" transform="translate(-24.7891 39.6842)"/>
</clipPath>
</defs>
</svg>
