<svg width="144" height="87" viewBox="0 0 144 87" fill="none" xmlns="http://www.w3.org/2000/svg">
<g clip-path="url(#clip0_214_14505)">
<rect x="0.494141" y="0.431885" width="143" height="86" rx="3.88638" fill="white"/>
<path d="M0.494141 3.86983C0.494141 -2.82761 5.92349 -8.25696 12.6209 -8.25696H26.4409V3.86983L0.494141 3.86983V3.86983Z" fill="white"/>
<rect x="26.4414" y="-8.25696" width="91.1064" height="12.1268" fill="white"/>
<path d="M117.547 -8.25696L131.367 -8.25696C138.064 -8.25696 143.494 -2.82761 143.494 3.86983V3.86983L117.547 3.86983V-8.25696Z" fill="white"/>
<rect width="143" height="15" transform="translate(0.494141 3.86987)" fill="white"/>
<path d="M32.6103 7.70847V15.8699H31.6717V7.70847H32.6103ZM38.8914 10.8448L38.5124 11.521C38.3104 11.3811 38.0441 11.2606 37.7138 11.1596C37.3873 11.0546 37.0512 11.0022 36.7053 11.0022C36.3089 11.0022 35.9921 11.0799 35.7551 11.2354C35.518 11.3908 35.3995 11.6026 35.3995 11.8708C35.3995 12.2983 35.7745 12.5567 36.5246 12.6461L37.1775 12.7277C38.4133 12.8871 39.0313 13.4001 39.0313 14.2667C39.0313 14.7914 38.8117 15.2072 38.3725 15.5143C37.9334 15.8213 37.3426 15.9748 36.6003 15.9748C35.687 15.9748 34.9195 15.7397 34.2977 15.2694L34.6999 14.6165C35.2129 15.0168 35.8503 15.217 36.612 15.217C37.0861 15.217 37.4573 15.1412 37.7255 14.9896C37.9975 14.8342 38.1335 14.6126 38.1335 14.325C38.1335 13.882 37.7488 13.6138 36.9793 13.5206L36.3205 13.4448C35.7104 13.3709 35.2537 13.2038 34.9506 12.9434C34.6474 12.6792 34.4959 12.3372 34.4959 11.9174C34.4959 11.4005 34.696 10.9925 35.0963 10.6932C35.4966 10.394 36.031 10.2443 36.6995 10.2443C37.1231 10.2443 37.5253 10.2987 37.9062 10.4076C38.287 10.5164 38.6154 10.6621 38.8914 10.8448ZM43.0381 10.2385C43.8698 10.2385 44.5616 10.5125 45.1134 11.0605C45.6692 11.6085 45.9471 12.2905 45.9471 13.1067C45.9471 13.9267 45.6692 14.6107 45.1134 15.1587C44.5616 15.7066 43.8698 15.9806 43.0381 15.9806C42.2064 15.9806 41.5146 15.7066 40.9628 15.1587C40.4109 14.6107 40.135 13.9267 40.135 13.1067C40.135 12.2905 40.4109 11.6085 40.9628 11.0605C41.5185 10.5125 42.2103 10.2385 43.0381 10.2385ZM44.478 11.6376C44.0933 11.249 43.6133 11.0546 43.0381 11.0546C42.4629 11.0546 41.983 11.249 41.5982 11.6376C41.2135 12.0262 41.0211 12.5159 41.0211 13.1067C41.0211 13.7013 41.2135 14.1929 41.5982 14.5815C41.983 14.9702 42.4629 15.1645 43.0381 15.1645C43.6133 15.1645 44.0933 14.9702 44.478 14.5815C44.8628 14.1929 45.0551 13.7013 45.0551 13.1067C45.0551 12.5159 44.8628 12.0262 44.478 11.6376ZM50.4541 10.2385C51.2352 10.2385 51.8901 10.5105 52.4186 11.0546C52.9472 11.5987 53.2114 12.2827 53.2114 13.1067C53.2114 13.9306 52.9472 14.6165 52.4186 15.1645C51.8901 15.7086 51.2352 15.9806 50.4541 15.9806C49.5952 15.9806 48.9248 15.6717 48.4429 15.0537V15.8699H47.5684V7.47528H48.4429V11.1654C48.9248 10.5475 49.5952 10.2385 50.4541 10.2385ZM50.3491 11.0546C49.7778 11.0546 49.3076 11.2509 48.9384 11.6434C48.5692 12.0321 48.3846 12.5198 48.3846 13.1067C48.3846 13.6974 48.5692 14.189 48.9384 14.5815C49.3076 14.9702 49.7778 15.1645 50.3491 15.1645C50.9321 15.1645 51.4062 14.9682 51.7715 14.5757C52.1369 14.1793 52.3195 13.6896 52.3195 13.1067C52.3195 12.5276 52.1349 12.0418 51.7657 11.6493C51.3965 11.2528 50.9243 11.0546 50.3491 11.0546ZM59.7819 10.3493V13.5672C59.7819 13.9636 59.7139 14.3192 59.5779 14.634C59.4419 14.9449 59.2573 15.1975 59.0241 15.3918C58.7909 15.5862 58.5247 15.7338 58.2254 15.8349C57.9301 15.9321 57.6133 15.9806 57.2752 15.9806C56.9332 15.9806 56.6126 15.9321 56.3133 15.8349C56.018 15.7338 55.7537 15.5862 55.5205 15.3918C55.2873 15.1975 55.1027 14.9449 54.9667 14.634C54.8346 14.3192 54.7685 13.9636 54.7685 13.5672V10.3493H55.6371V13.4856C55.6371 14.0374 55.7867 14.4552 56.086 14.7389C56.3852 15.0226 56.7816 15.1645 57.2752 15.1645C57.7688 15.1645 58.1632 15.0226 58.4586 14.7389C58.7579 14.4552 58.9075 14.0374 58.9075 13.4856V10.3493H59.7819ZM65.5037 10.3493V11.1363H63.1194V13.9228C63.1194 14.3386 63.2185 14.6495 63.4167 14.8555C63.6149 15.0615 63.8811 15.1645 64.2153 15.1645C64.6312 15.1645 65.0179 15.0343 65.3754 14.7739L65.7835 15.4327C65.3016 15.798 64.7555 15.9806 64.1454 15.9806C63.5391 15.9806 63.0708 15.8116 62.7404 15.4735C62.414 15.1315 62.2508 14.6204 62.2508 13.9403V11.1363H61.044V10.3493H62.2508V8.59456H63.1194V10.3493H65.5037ZM72.1889 10.3493L67.6943 18.225H66.7324L68.7903 14.6748L66.2544 10.3493H67.2279L69.2858 13.812L71.2329 10.3493H72.1889ZM75.8014 10.2385C76.2056 10.2385 76.5437 10.3007 76.8158 10.425L76.6059 11.282C76.3339 11.1343 76.0152 11.0605 75.6499 11.0605C75.2146 11.0605 74.859 11.2179 74.583 11.5327C74.3071 11.8475 74.1691 12.2633 74.1691 12.7802V15.8699H73.3005V10.3493H74.1633V11.1246C74.3537 10.8409 74.5889 10.6233 74.8687 10.4717C75.1524 10.3162 75.4633 10.2385 75.8014 10.2385ZM79.014 10.3493V15.8699L78.1395 15.8699V10.3493H79.014ZM78.5768 7.77259C78.7478 7.77259 78.8935 7.83283 79.014 7.95331C79.1344 8.0699 79.1947 8.21564 79.1947 8.39053C79.1947 8.56541 79.1344 8.71115 79.014 8.82775C78.8974 8.94434 78.7516 9.00263 78.5768 9.00263C78.4019 9.00263 78.2561 8.94434 78.1395 8.82775C78.0229 8.71115 77.9646 8.56541 77.9646 8.39053C77.9646 8.21564 78.0229 8.0699 78.1395 7.95331C78.2561 7.83283 78.4019 7.77259 78.5768 7.77259ZM83.4911 10.2385C83.903 10.2385 84.2858 10.3143 84.6395 10.4659C84.9932 10.6135 85.2924 10.8273 85.5373 11.1071L84.9776 11.6959C84.5385 11.2684 84.0352 11.0546 83.4678 11.0546C82.912 11.0546 82.4476 11.249 82.0745 11.6376C81.7053 12.0262 81.5207 12.5159 81.5207 13.1067C81.5207 13.7013 81.7053 14.1929 82.0745 14.5815C82.4476 14.9702 82.912 15.1645 83.4678 15.1645C84.043 15.1645 84.5521 14.9488 84.9951 14.5174L85.5373 15.112C85.2885 15.3918 84.9873 15.6075 84.6337 15.7591C84.28 15.9068 83.8992 15.9806 83.4911 15.9806C82.6516 15.9806 81.9657 15.7086 81.4332 15.1645C80.9008 14.6204 80.6346 13.9345 80.6346 13.1067C80.6346 12.2827 80.9008 11.5987 81.4332 11.0546C81.9657 10.5105 82.6516 10.2385 83.4911 10.2385ZM95.3522 10.3493V15.8699H94.4836V15.0479C94.0017 15.6697 93.3293 15.9806 92.4665 15.9806C91.6854 15.9806 91.0305 15.7086 90.502 15.1645C89.9734 14.6165 89.7091 13.9306 89.7091 13.1067C89.7091 12.2827 89.9734 11.5987 90.502 11.0546C91.0305 10.5105 91.6854 10.2385 92.4665 10.2385C93.3254 10.2385 93.9978 10.5494 94.4836 11.1712V10.3493H95.3522ZM92.5715 11.0546C91.9885 11.0546 91.5124 11.2528 91.1432 11.6493C90.7779 12.0418 90.5952 12.5276 90.5952 13.1067C90.5952 13.6857 90.7798 14.1735 91.1491 14.5699C91.5183 14.9663 91.9924 15.1645 92.5715 15.1645C93.1428 15.1645 93.613 14.9702 93.9822 14.5815C94.3514 14.189 94.536 13.6974 94.536 13.1067C94.536 12.5198 94.3514 12.0321 93.9822 11.6434C93.613 11.2509 93.1428 11.0546 92.5715 11.0546ZM99.8298 10.2385C100.242 10.2385 100.625 10.3143 100.978 10.4659C101.332 10.6135 101.631 10.8273 101.876 11.1071L101.316 11.6959C100.877 11.2684 100.374 11.0546 99.8065 11.0546C99.2508 11.0546 98.7863 11.249 98.4132 11.6376C98.044 12.0262 97.8594 12.5159 97.8594 13.1067C97.8594 13.7013 98.044 14.1929 98.4132 14.5815C98.7863 14.9702 99.2508 15.1645 99.8065 15.1645C100.382 15.1645 100.891 14.9488 101.334 14.5174L101.876 15.112C101.627 15.3918 101.326 15.6075 100.972 15.7591C100.619 15.9068 100.238 15.9806 99.8298 15.9806C98.9904 15.9806 98.3044 15.7086 97.772 15.1645C97.2396 14.6204 96.9733 13.9345 96.9733 13.1067C96.9733 12.2827 97.2396 11.5987 97.772 11.0546C98.3044 10.5105 98.9904 10.2385 99.8298 10.2385ZM104.234 10.3493V15.8699H103.359V10.3493H104.234ZM103.796 7.77259C103.967 7.77259 104.113 7.83283 104.234 7.95331C104.354 8.0699 104.414 8.21564 104.414 8.39053C104.414 8.56541 104.354 8.71115 104.234 8.82775C104.117 8.94434 103.971 9.00263 103.796 9.00263C103.622 9.00263 103.476 8.94434 103.359 8.82775C103.243 8.71115 103.184 8.56541 103.184 8.39053C103.184 8.21564 103.243 8.0699 103.359 7.95331C103.476 7.83283 103.622 7.77259 103.796 7.77259ZM108.612 10.2385C109.471 10.2385 110.143 10.5494 110.629 11.1712V7.47528H111.497V15.8699H110.629V15.0479C110.147 15.6697 109.475 15.9806 108.612 15.9806C107.831 15.9806 107.176 15.7086 106.647 15.1645C106.119 14.6165 105.854 13.9306 105.854 13.1067C105.854 12.2827 106.119 11.5987 106.647 11.0546C107.176 10.5105 107.831 10.2385 108.612 10.2385ZM108.717 11.0546C108.134 11.0546 107.658 11.2528 107.288 11.6493C106.923 12.0418 106.74 12.5276 106.74 13.1067C106.74 13.6857 106.925 14.1735 107.294 14.5699C107.663 14.9663 108.138 15.1645 108.717 15.1645C109.288 15.1645 109.758 14.9702 110.127 14.5815C110.497 14.189 110.681 13.6974 110.681 13.1067C110.681 12.5198 110.497 12.0321 110.127 11.6434C109.758 11.2509 109.288 11.0546 108.717 11.0546Z" fill="#231F20"/>
<g clip-path="url(#clip1_214_14505)">
<path d="M110.372 18.8699L33.6162 18.8699V82.9952H110.372V18.8699Z" fill="white"/>
<path d="M51.0078 35.5813L59.7522 50.7382" stroke="#231F20" stroke-width="0.971596"/>
<path d="M51.0078 65.798L59.7522 50.7383" stroke="#231F20" stroke-width="0.971596"/>
<path d="M59.7529 50.7383H77.2417" stroke="#231F20" stroke-width="0.971596"/>
<path d="M75.6865 50.7383L79.3786 57.0537" stroke="#231F20" stroke-width="0.971596"/>
<path d="M79.3779 57.0536L83.07 63.4661" stroke="#FF6A00" stroke-width="0.971596"/>
<path d="M78.0186 49.3781L81.6135 55.7906" stroke="#231F20" stroke-width="0.971596"/>
<path d="M81.6133 55.7905L85.3053 62.1059" stroke="#FF6A00" stroke-width="0.971596"/>
<path d="M77.2412 50.7382L80.739 44.7144" stroke="#231F20" stroke-width="0.971596"/>
<path d="M80.7383 44.7143L84.1389 38.6904" stroke="#FF6A00" stroke-width="0.971596"/>
<path d="M76.3662 50.7383H77.2406L77.435 50.4468" stroke="#231F20" stroke-width="0.971596"/>
<path d="M83.6533 65.8952C83.6533 65.0531 83.88 64.4378 84.3334 64.0491C84.7221 63.5957 85.2726 63.369 85.9852 63.369C86.6977 63.369 87.2482 63.5957 87.6369 64.0491C88.0255 64.4378 88.2198 65.0531 88.2198 65.8952C88.2198 66.6724 88.0255 67.2878 87.6369 67.7412C87.2482 68.1946 86.6977 68.4213 85.9852 68.4213C85.2726 68.4213 84.7221 68.1946 84.3334 67.7412C83.88 67.2878 83.6533 66.6724 83.6533 65.8952ZM85.9852 67.8384C86.5033 67.8384 86.892 67.6764 87.1511 67.3526C87.4102 67.0287 87.5397 66.5429 87.5397 65.8952C87.5397 65.2474 87.4102 64.7616 87.1511 64.4378C86.892 64.0491 86.5033 63.8548 85.9852 63.8548C85.467 63.8548 85.0783 64.0491 84.8192 64.4378C84.5601 64.7616 84.4306 65.2474 84.4306 65.8952C84.4306 66.5429 84.5601 67.0287 84.8192 67.3526C85.0783 67.6764 85.467 67.8384 85.9852 67.8384Z" fill="#FF6A00"/>
<path d="M83.6533 35.5813C83.6533 34.804 83.88 34.1887 84.3334 33.7353C84.7221 33.2819 85.2726 33.0552 85.9852 33.0552C86.6977 33.0552 87.2482 33.2819 87.6369 33.7353C88.0255 34.1887 88.2198 34.804 88.2198 35.5813C88.2198 36.3586 88.0255 36.9739 87.6369 37.4274C87.2482 37.8808 86.6977 38.1075 85.9852 38.1075C85.2726 38.1075 84.7221 37.8808 84.3334 37.4274C83.88 36.9739 83.6533 36.3586 83.6533 35.5813ZM85.9852 37.6217C86.5033 37.6217 86.892 37.4274 87.1511 37.0387C87.4102 36.7149 87.5397 36.2291 87.5397 35.5813C87.5397 34.9336 87.4102 34.4478 87.1511 34.1239C86.892 33.8001 86.5033 33.6381 85.9852 33.6381C85.467 33.6381 85.0783 33.8001 84.8192 34.1239C84.5601 34.4478 84.4306 34.9336 84.4306 35.5813C84.4306 36.2291 84.5601 36.7149 84.8192 37.0387C85.0783 37.4274 85.467 37.6217 85.9852 37.6217Z" fill="#FF6A00"/>
<path d="M88.9971 33.1523H89.6772V35.1927H92.2033V33.1523H92.8835V38.0103H92.2033V35.7757H89.6772V38.0103H88.9971V33.1523Z" fill="#FF6A00"/>
</g>
<path d="M0.494141 82.9952H26.4409V95.1208H12.6197C5.92293 95.1208 0.494141 89.692 0.494141 82.9952V82.9952Z" fill="white"/>
<rect x="26.4414" y="82.9952" width="91.1064" height="12.1255" fill="white"/>
<path d="M117.547 82.9952H143.494V82.9952C143.494 89.692 138.065 95.1208 131.368 95.1208H117.547V82.9952Z" fill="white"/>
</g>
<rect x="1.24391" y="1.18165" width="141.5" height="84.5005" rx="3.13661" stroke="white" stroke-width="1.49954"/>
<defs>
<clipPath id="clip0_214_14505">
<rect x="0.494141" y="0.431885" width="143" height="86" rx="3.88638" fill="white"/>
</clipPath>
<clipPath id="clip1_214_14505">
<rect width="76.7561" height="64.1253" fill="white" transform="translate(33.6162 18.8699)"/>
</clipPath>
</defs>
</svg>
