<svg width="143" height="87" viewBox="0 0 143 87" fill="none" xmlns="http://www.w3.org/2000/svg">
<g clip-path="url(#clip0_214_14781)">
<rect x="0.932617" y="0.431885" width="142" height="86" rx="3.88638" fill="white"/>
<path d="M0.932617 5.36312C0.932617 -1.33433 6.36196 -6.76367 13.0594 -6.76367L26.8794 -6.76367V5.36312H0.932617V5.36312Z" fill="white"/>
<rect x="26.8799" y="-6.76367" width="90.1064" height="12.1268" fill="white"/>
<path d="M116.985 -6.76367L130.805 -6.76367C137.503 -6.76367 142.932 -1.33433 142.932 5.36312V5.36312L116.985 5.36312V-6.76367Z" fill="white"/>
<rect width="142" height="19.7864" transform="translate(0.932617 5.36304)" fill="white"/>
<path d="M50.7707 21.2633V22.1494H45.1102V13.988H46.0488V21.2633H50.7707ZM52.8979 16.6288V22.1494H52.0234V16.6288H52.8979ZM52.4606 14.0521C52.6316 14.0521 52.7774 14.1124 52.8979 14.2329C53.0183 14.3494 53.0786 14.4952 53.0786 14.6701C53.0786 14.845 53.0183 14.9907 52.8979 15.1073C52.7813 15.2239 52.6355 15.2822 52.4606 15.2822C52.2858 15.2822 52.14 15.2239 52.0234 15.1073C51.9068 14.9907 51.8485 14.845 51.8485 14.6701C51.8485 14.4952 51.9068 14.3494 52.0234 14.2329C52.14 14.1124 52.2858 14.0521 52.4606 14.0521ZM61.8113 16.518C62.4992 16.518 63.0549 16.7201 63.4785 17.1243C63.906 17.5285 64.1198 18.0629 64.1198 18.7275V22.1494H63.2512V19.0131C63.2512 18.4884 63.1113 18.0804 62.8315 17.7889C62.5516 17.4935 62.1591 17.3458 61.6539 17.3458C61.1759 17.3458 60.7736 17.5013 60.4472 17.8122C60.1246 18.1192 59.9633 18.5273 59.9633 19.0364V22.1494H59.0947V19.0131C59.0947 18.4884 58.9548 18.0804 58.675 17.7889C58.399 17.4935 58.0085 17.3458 57.5032 17.3458C57.0252 17.3458 56.623 17.5013 56.2965 17.8122C55.9739 18.1192 55.8127 18.5273 55.8127 19.0364V22.1494H54.9382V16.6288H55.801V17.4158C56.0109 17.1049 56.281 16.8775 56.6113 16.7337C56.9416 16.5899 57.2914 16.518 57.6606 16.518C58.1387 16.518 58.5584 16.621 58.9198 16.827C59.2813 17.0291 59.5514 17.3128 59.7301 17.6781C59.9361 17.2778 60.2256 16.9844 60.5987 16.7979C60.9757 16.6113 61.3799 16.518 61.8113 16.518ZM68.5798 16.518C69.4115 16.518 70.1033 16.792 70.6551 17.34C71.2109 17.888 71.4887 18.5701 71.4887 19.3862C71.4887 20.2062 71.2109 20.8902 70.6551 21.4382C70.1033 21.9862 69.4115 22.2602 68.5798 22.2602C67.7481 22.2602 67.0563 21.9862 66.5045 21.4382C65.9526 20.8902 65.6767 20.2062 65.6767 19.3862C65.6767 18.5701 65.9526 17.888 66.5045 17.34C67.0602 16.792 67.752 16.518 68.5798 16.518ZM70.0197 17.9171C69.6349 17.5285 69.155 17.3342 68.5798 17.3342C68.0046 17.3342 67.5246 17.5285 67.1399 17.9171C66.7551 18.3058 66.5628 18.7955 66.5628 19.3862C66.5628 19.9808 66.7551 20.4724 67.1399 20.8611C67.5246 21.2497 68.0046 21.444 68.5798 21.444C69.155 21.444 69.6349 21.2497 70.0197 20.8611C70.4044 20.4724 70.5968 19.9808 70.5968 19.3862C70.5968 18.7955 70.4044 18.3058 70.0197 17.9171ZM75.8325 16.518C76.5165 16.518 77.0703 16.7201 77.4939 17.1243C77.9214 17.5285 78.1352 18.0629 78.1352 18.7275V22.1494H77.2666V19.0131C77.2666 18.4884 77.1267 18.0804 76.8469 17.7889C76.5709 17.4935 76.1803 17.3458 75.6751 17.3458C75.1971 17.3458 74.7948 17.5013 74.4684 17.8122C74.1458 18.1192 73.9845 18.5273 73.9845 19.0364V22.1494H73.1101V16.6288H73.9729V17.4158C74.1827 17.1049 74.4528 16.8775 74.7832 16.7337C75.1135 16.5899 75.4633 16.518 75.8325 16.518ZM82.4326 16.518C83.1827 16.518 83.8006 16.7843 84.2864 17.3167C84.7761 17.8491 85.0229 18.5331 85.0268 19.3687C85.0268 19.4892 85.0209 19.598 85.0093 19.6952H80.5846C80.6429 20.2703 80.8528 20.7153 81.2142 21.0301C81.5756 21.341 82.0167 21.4965 82.5375 21.4965C83.1982 21.4965 83.7812 21.2653 84.2864 20.8028L84.7528 21.3974C84.1504 21.9726 83.3945 22.2602 82.4851 22.2602C81.665 22.2602 80.9946 21.9959 80.4739 21.4674C79.9531 20.9349 79.6927 20.2431 79.6927 19.392C79.6927 18.5526 79.9511 17.8647 80.468 17.3284C80.9849 16.7881 81.6398 16.518 82.4326 16.518ZM82.4151 17.2934C81.9176 17.2934 81.5076 17.4488 81.1851 17.7597C80.8625 18.0707 80.6662 18.4807 80.5963 18.9898H84.1407C84.0862 18.4729 83.9016 18.0609 83.5868 17.7539C83.2759 17.4469 82.8854 17.2934 82.4151 17.2934ZM89.3703 16.518C90.0543 16.518 90.6081 16.7201 91.0318 17.1243C91.4593 17.5285 91.673 18.0629 91.673 18.7275V22.1494H90.8044V19.0131C90.8044 18.4884 90.6645 18.0804 90.3847 17.7889C90.1087 17.4935 89.7182 17.3458 89.2129 17.3458C88.7349 17.3458 88.3327 17.5013 88.0062 17.8122C87.6836 18.1192 87.5224 18.5273 87.5224 19.0364V22.1494H86.6479V16.6288H87.5107V17.4158C87.7206 17.1049 87.9907 16.8775 88.321 16.7337C88.6514 16.5899 89.0011 16.518 89.3703 16.518ZM95.9704 16.518C96.7205 16.518 97.3384 16.7843 97.8242 17.3167C98.3139 17.8491 98.5607 18.5331 98.5646 19.3687C98.5646 19.4892 98.5587 19.598 98.5471 19.6952H94.1224C94.1807 20.2703 94.3906 20.7153 94.752 21.0301C95.1135 21.341 95.5546 21.4965 96.0753 21.4965C96.736 21.4965 97.319 21.2653 97.8242 20.8028L98.2906 21.3974C97.6882 21.9726 96.9323 22.2602 96.0229 22.2602C95.2029 22.2602 94.5325 21.9959 94.0117 21.4674C93.4909 20.9349 93.2305 20.2431 93.2305 19.392C93.2305 18.5526 93.489 17.8647 94.0058 17.3284C94.5227 16.7881 95.1776 16.518 95.9704 16.518ZM95.9529 17.2934C95.4555 17.2934 95.0455 17.4488 94.7229 17.7597C94.4003 18.0707 94.2041 18.4807 94.1341 18.9898H97.6785C97.6241 18.4729 97.4395 18.0609 97.1247 17.7539C96.8138 17.4469 96.4232 17.2934 95.9529 17.2934Z" fill="#231F20"/>
<g clip-path="url(#clip1_214_14781)">
<path d="M144.802 25.1494L-0.9375 25.1494V81.502H144.802V25.1494Z" fill="white"/>
<path d="M34.3311 37.7803L43.3669 53.5201" stroke="#231F20" stroke-width="0.971596"/>
<path d="M32 39.0432L41.133 54.8802" stroke="#231F20" stroke-width="0.971596"/>
<path d="M33.165 68.6769L41.9094 53.52" stroke="#231F20" stroke-width="0.971596"/>
<path d="M111.865 53.52H94.376" stroke="#231F20" stroke-width="0.971596"/>
<path d="M85.6313 68.6768H68.1426" stroke="#231F20" stroke-width="0.971596"/>
<path d="M85.6309 68.6769L94.3752 53.52" stroke="#231F20" stroke-width="0.971596"/>
<path d="M84.0771 66.0536L91.3641 53.52" stroke="#231F20" stroke-width="0.971596"/>
<path d="M85.6313 38.363H68.1426" stroke="#231F20" stroke-width="0.971596"/>
<path d="M85.6309 38.363L94.3752 53.5199" stroke="#231F20" stroke-width="0.971596"/>
<path d="M68.1428 68.6769L59.3984 53.52" stroke="#231F20" stroke-width="0.971596"/>
<path d="M68.1428 38.363L59.3984 53.5199" stroke="#231F20" stroke-width="0.971596"/>
<path d="M41.9092 53.52H59.3979" stroke="#231F20" stroke-width="0.971596"/>
<path d="M84.7578 68.6769H85.6323L86.0209 67.8997" stroke="#231F20" stroke-width="0.971596"/>
<path d="M84.7578 38.363H85.6323L86.0209 39.1403" stroke="#231F20" stroke-width="0.971596"/>
<path d="M69.0175 68.6769H68.143L67.6572 67.8997" stroke="#231F20" stroke-width="0.971596"/>
<path d="M69.0175 38.363H68.143L67.6572 39.1403" stroke="#231F20" stroke-width="0.971596"/>
<path d="M41.4238 54.2973L41.9096 53.52H42.7841" stroke="#231F20" stroke-width="0.971596"/>
</g>
<path d="M0.932617 81.502H26.8794V93.6275H13.0581C6.3614 93.6275 0.932617 88.1987 0.932617 81.502V81.502Z" fill="white"/>
<rect x="26.8799" y="81.502" width="90.1064" height="12.1255" fill="white"/>
<path d="M116.985 81.502H142.932V81.502C142.932 88.1987 137.503 93.6275 130.807 93.6275H116.985V81.502Z" fill="white"/>
</g>
<rect x="1.68239" y="1.18165" width="140.5" height="84.5005" rx="3.13661" stroke="white" stroke-width="1.49954"/>
<defs>
<clipPath id="clip0_214_14781">
<rect x="0.932617" y="0.431885" width="142" height="86" rx="3.88638" fill="white"/>
</clipPath>
<clipPath id="clip1_214_14781">
<rect width="145.739" height="56.3526" fill="white" transform="translate(-0.9375 25.1494)"/>
</clipPath>
</defs>
</svg>
