<svg width="144" height="87" viewBox="0 0 144 87" fill="none" xmlns="http://www.w3.org/2000/svg">
<g clip-path="url(#clip0_214_14601)">
<rect x="0.806641" y="0.431885" width="143" height="86" rx="3.88638" fill="white"/>
<path d="M0.806641 1.92647C0.806641 -4.77097 6.23599 -10.2003 12.9334 -10.2003H26.7534V1.92647L0.806641 1.92647V1.92647Z" fill="white"/>
<rect x="26.7539" y="-10.2001" width="91.1064" height="12.1268" fill="white"/>
<path d="M117.859 -10.2001L131.679 -10.2001C138.377 -10.2001 143.806 -4.77073 143.806 1.92671V1.92671L117.859 1.92671V-10.2001Z" fill="white"/>
<rect width="143" height="15" transform="translate(0.806641 6.90454)" fill="white"/>
<path d="M48.7622 10.6382C49.5667 10.6382 50.2177 10.8461 50.7151 11.262C51.2126 11.6739 51.4613 12.2102 51.4613 12.8709C51.4613 13.3373 51.3486 13.7298 51.1232 14.0485C50.8978 14.3672 50.5849 14.612 50.1847 14.783C50.6316 14.9463 50.9852 15.193 51.2456 15.5234C51.5099 15.8537 51.642 16.2521 51.642 16.7185C51.642 17.0216 51.5896 17.2995 51.4846 17.5521C51.3836 17.8047 51.2437 18.0204 51.0649 18.1992C50.89 18.374 50.6841 18.5237 50.447 18.648C50.2099 18.7724 49.9554 18.8637 49.6833 18.922C49.4113 18.9803 49.1295 19.0095 48.838 19.0095C48.2784 19.0095 47.7732 18.9162 47.3223 18.7297C46.8715 18.5431 46.4945 18.2788 46.1914 17.9368L46.7685 17.3364C47.025 17.6007 47.3301 17.8066 47.6838 17.9543C48.0413 18.0981 48.4202 18.17 48.8205 18.17C49.3607 18.17 49.8096 18.0418 50.1672 17.7853C50.5247 17.5288 50.7035 17.1596 50.7035 16.6776C50.7035 16.219 50.515 15.8576 50.138 15.5933C49.7649 15.3291 49.2966 15.1969 48.7331 15.1969H47.6604V14.375H48.7273C49.2519 14.375 49.6814 14.2487 50.0156 13.996C50.3537 13.7434 50.5228 13.3839 50.5228 12.9176C50.5228 12.4862 50.3518 12.1383 50.0098 11.8741C49.6678 11.6098 49.2344 11.4777 48.7098 11.4777C48.325 11.4777 47.9772 11.5651 47.6663 11.74C47.3593 11.911 47.1066 12.1325 46.9084 12.4046L46.2613 11.8508C46.5101 11.4815 46.8482 11.1881 47.2757 10.9705C47.7032 10.749 48.1987 10.6382 48.7622 10.6382ZM56.3598 15.4243V16.2171H53.1186V15.4243L56.3598 15.4243ZM62.1013 10.6265C62.8125 10.6265 63.4654 10.7781 64.06 11.0813C64.6547 11.3805 65.1113 11.7925 65.43 12.3171L64.6488 12.8418C64.3768 12.4337 64.0173 12.1131 63.5704 11.8799C63.1234 11.6467 62.6337 11.5301 62.1013 11.5301C61.6466 11.5301 61.221 11.6117 60.8246 11.775C60.4282 11.9343 60.0862 12.1558 59.7986 12.4395C59.511 12.7232 59.2837 13.0711 59.1166 13.483C58.9533 13.895 58.8717 14.3419 58.8717 14.8238C58.8717 15.3057 58.9533 15.7527 59.1166 16.1646C59.2837 16.5766 59.511 16.9244 59.7986 17.2081C60.0862 17.4918 60.4282 17.7153 60.8246 17.8785C61.221 18.0379 61.6466 18.1175 62.1013 18.1175C62.6376 18.1175 63.1273 18.0029 63.5704 17.7736C64.0134 17.5443 64.3729 17.2237 64.6488 16.8117L65.4067 17.3714C65.0647 17.8844 64.6022 18.2885 64.0192 18.5839C63.4402 18.8754 62.8009 19.0211 62.1013 19.0211C61.5028 19.0211 60.9432 18.9162 60.4224 18.7063C59.9016 18.4965 59.4547 18.2089 59.0816 17.8436C58.7124 17.4744 58.4209 17.0294 58.2072 16.5086C57.9934 15.9878 57.8865 15.4262 57.8865 14.8238C57.8865 14.2214 57.9934 13.6599 58.2072 13.1391C58.4209 12.6183 58.7124 12.1753 59.0816 11.8099C59.4547 11.4407 59.9016 11.1512 60.4224 10.9413C60.9432 10.7315 61.5028 10.6265 62.1013 10.6265ZM72.2373 13.3839V18.9045H71.3687V18.0826C70.8868 18.7044 70.2144 19.0153 69.3517 19.0153C68.5705 19.0153 67.9156 18.7433 67.3871 18.1992C66.8585 17.6512 66.5943 16.9652 66.5943 16.1413C66.5943 15.3174 66.8585 14.6334 67.3871 14.0893C67.9156 13.5452 68.5705 13.2732 69.3517 13.2732C70.2106 13.2732 70.8829 13.5841 71.3687 14.2059V13.3839H72.2373ZM69.4566 14.0893C68.8736 14.0893 68.3976 14.2875 68.0283 14.6839C67.663 15.0765 67.4804 15.5623 67.4804 16.1413C67.4804 16.7204 67.665 17.2081 68.0342 17.6045C68.4034 18.001 68.8775 18.1992 69.4566 18.1992C70.0279 18.1992 70.4981 18.0048 70.8673 17.6162C71.2366 17.2237 71.4212 16.7321 71.4212 16.1413C71.4212 15.5545 71.2366 15.0667 70.8673 14.6781C70.4981 14.2856 70.0279 14.0893 69.4566 14.0893ZM76.7791 13.2732C77.1833 13.2732 77.5214 13.3354 77.7934 13.4597L77.5836 14.3167C77.3115 14.169 76.9928 14.0951 76.6275 14.0951C76.1922 14.0951 75.8366 14.2525 75.5607 14.5673C75.2848 14.8821 75.1468 15.298 75.1468 15.8149V18.9045L74.2782 18.9045V13.3839H75.141V14.1593C75.3314 13.8756 75.5665 13.6579 75.8464 13.5064C76.1301 13.3509 76.441 13.2732 76.7791 13.2732ZM81.2097 13.2732C81.9597 13.2732 82.5777 13.5394 83.0635 14.0718C83.5531 14.6043 83.7999 15.2883 83.8038 16.1238C83.8038 16.2443 83.798 16.3531 83.7863 16.4503H79.3617C79.42 17.0255 79.6298 17.4705 79.9913 17.7853C80.3527 18.0962 80.7938 18.2516 81.3146 18.2516C81.9753 18.2516 82.5582 18.0204 83.0635 17.5579L83.5298 18.1525C82.9274 18.7277 82.1715 19.0153 81.2621 19.0153C80.4421 19.0153 79.7717 18.751 79.2509 18.2225C78.7301 17.69 78.4698 16.9983 78.4698 16.1472C78.4698 15.3077 78.7282 14.6198 79.2451 14.0835C79.762 13.5433 80.4168 13.2732 81.2097 13.2732ZM81.1922 14.0485C80.6947 14.0485 80.2847 14.204 79.9621 14.5149C79.6396 14.8258 79.4433 15.2358 79.3733 15.7449H82.9177C82.8633 15.228 82.6787 14.8161 82.3639 14.509C82.053 14.202 81.6624 14.0485 81.1922 14.0485ZM88.1474 13.2732C88.8314 13.2732 89.3852 13.4753 89.8088 13.8794C90.2363 14.2836 90.4501 14.818 90.4501 15.4826V18.9045H89.5815V15.7682C89.5815 15.2436 89.4416 14.8355 89.1617 14.544C88.8858 14.2487 88.4952 14.101 87.99 14.101C87.512 14.101 87.1097 14.2564 86.7833 14.5673C86.4607 14.8744 86.2994 15.2824 86.2994 15.7915V18.9045H85.425V13.3839H86.2878V14.1709C86.4976 13.86 86.7677 13.6327 87.0981 13.4889C87.4284 13.3451 87.7782 13.2732 88.1474 13.2732ZM94.7475 13.2732C95.4975 13.2732 96.1155 13.5394 96.6013 14.0718C97.091 14.6043 97.3377 15.2883 97.3416 16.1238C97.3416 16.2443 97.3358 16.3531 97.3241 16.4503L92.8995 16.4503C92.9578 17.0255 93.1677 17.4705 93.5291 17.7853C93.8905 18.0962 94.3316 18.2516 94.8524 18.2516C95.5131 18.2516 96.096 18.0204 96.6013 17.5579L97.0676 18.1525C96.4653 18.7277 95.7094 19.0153 94.7999 19.0153C93.9799 19.0153 93.3095 18.751 92.7887 18.2225C92.268 17.69 92.0076 16.9983 92.0076 16.1472C92.0076 15.3077 92.266 14.6198 92.7829 14.0835C93.2998 13.5433 93.9547 13.2732 94.7475 13.2732ZM94.73 14.0485C94.2325 14.0485 93.8225 14.204 93.4999 14.5149C93.1774 14.8258 92.9811 15.2358 92.9112 15.7449L96.4555 15.7449C96.4011 15.228 96.2165 14.8161 95.9017 14.509C95.5908 14.202 95.2002 14.0485 94.73 14.0485Z" fill="#231F20"/>
<g clip-path="url(#clip1_214_14601)">
<path d="M141.776 21.9045L2.83789 21.9045V89.9163L141.776 89.9163V21.9045Z" fill="white"/>
<path d="M109.908 45.0286L93.585 51.1496" stroke="#231F20" stroke-width="0.971596"/>
<path d="M34.0254 63.6832L47.3363 52.3156" stroke="#231F20" stroke-width="0.971596"/>
<path d="M38.3975 37.2559L47.3361 52.3156" stroke="#231F20" stroke-width="0.971596"/>
<path d="M90.6695 68.3469L74.3467 74.5651" stroke="#231F20" stroke-width="0.971596"/>
<path d="M90.6709 68.3468L93.5857 51.1495" stroke="#231F20" stroke-width="0.971596"/>
<path d="M88.3379 66.5007L90.6697 52.2183" stroke="#231F20" stroke-width="0.971596"/>
<path d="M74.348 74.565L60.8428 63.3916" stroke="#231F20" stroke-width="0.971596"/>
<path d="M80.0801 40.0734L93.5853 51.1496" stroke="#231F20" stroke-width="0.971596"/>
<path d="M80.0792 40.0734L63.6592 46.1944" stroke="#231F20" stroke-width="0.971596"/>
<path d="M60.8428 63.3917L63.6604 46.1945" stroke="#231F20" stroke-width="0.971596"/>
<path d="M60.8421 63.3917L47.3369 52.3156" stroke="#231F20" stroke-width="0.971596"/>
<path d="M63.6597 46.1945L47.3369 52.3155" stroke="#231F20" stroke-width="0.971596"/>
<path d="M89.8926 68.7355L90.6699 68.3469L90.8642 67.5696" stroke="#231F20" stroke-width="0.971596"/>
<path d="M75.1254 74.2735L74.3481 74.565L73.668 73.9821" stroke="#231F20" stroke-width="0.971596"/>
<path d="M80.7596 40.5592L80.0795 40.0734L79.2051 40.3648" stroke="#231F20" stroke-width="0.971596"/>
</g>
</g>
<rect x="1.55641" y="1.18165" width="141.5" height="84.5005" rx="3.13661" stroke="white" stroke-width="1.49954"/>
<defs>
<clipPath id="clip0_214_14601">
<rect x="0.806641" y="0.431885" width="143" height="86" rx="3.88638" fill="white"/>
</clipPath>
<clipPath id="clip1_214_14601">
<rect width="138.938" height="68.0117" fill="white" transform="translate(2.83789 21.9045)"/>
</clipPath>
</defs>
</svg>
