<svg width="143" height="87" viewBox="0 0 143 87" fill="none" xmlns="http://www.w3.org/2000/svg">
<g clip-path="url(#clip0_214_14829)">
<rect x="0.494141" y="0.431885" width="142" height="86" rx="3.88638" fill="white"/>
<path d="M0.494141 8.24202C0.494141 1.54458 5.92349 -3.88477 12.6209 -3.88477L26.4409 -3.88477V8.24202L0.494141 8.24202V8.24202Z" fill="white"/>
<rect x="26.4414" y="-3.88477" width="90.1064" height="12.1268" fill="white"/>
<path d="M116.547 -3.88477L130.367 -3.88477C137.064 -3.88477 142.494 1.54458 142.494 8.24202V8.24202L116.547 8.24202V-3.88477Z" fill="white"/>
<rect width="142" height="15" transform="translate(0.494141 8.24194)" fill="white"/>
<path d="M56.3264 12.0805V12.9666H53.4932V20.2419H52.5605V12.9666H49.7273V12.0805H56.3264ZM59.1006 14.6106C59.9322 14.6106 60.624 14.8846 61.1759 15.4325C61.7316 15.9805 62.0095 16.6626 62.0095 17.4787C62.0095 18.2988 61.7316 18.9828 61.1759 19.5307C60.624 20.0787 59.9322 20.3527 59.1006 20.3527C58.2689 20.3527 57.5771 20.0787 57.0252 19.5307C56.4734 18.9828 56.1974 18.2988 56.1974 17.4787C56.1974 16.6626 56.4734 15.9805 57.0252 15.4325C57.581 14.8846 58.2728 14.6106 59.1006 14.6106ZM60.5405 16.0097C60.1557 15.621 59.6757 15.4267 59.1006 15.4267C58.5254 15.4267 58.0454 15.621 57.6606 16.0097C57.2759 16.3983 57.0835 16.888 57.0835 17.4787C57.0835 18.0733 57.2759 18.565 57.6606 18.9536C58.0454 19.3422 58.5254 19.5366 59.1006 19.5366C59.6757 19.5366 60.1557 19.3422 60.5405 18.9536C60.9252 18.565 61.1176 18.0733 61.1176 17.4787C61.1176 16.888 60.9252 16.3983 60.5405 16.0097ZM64.5053 11.8474V20.2419H63.6309V11.8474H64.5053ZM71.495 14.7213V17.9393C71.495 18.3357 71.4269 18.6913 71.2909 19.0061C71.1549 19.317 70.9703 19.5696 70.7371 19.7639C70.5039 19.9582 70.2377 20.1059 69.9385 20.207C69.6431 20.3041 69.3264 20.3527 68.9882 20.3527C68.6462 20.3527 68.3256 20.3041 68.0264 20.207C67.731 20.1059 67.4667 19.9582 67.2335 19.7639C67.0004 19.5696 66.8158 19.317 66.6797 19.0061C66.5476 18.6913 66.4815 18.3357 66.4815 17.9393V14.7213H67.3501V17.8576C67.3501 18.4095 67.4998 18.8273 67.799 19.111C68.0983 19.3947 68.4947 19.5366 68.9882 19.5366C69.4818 19.5366 69.8763 19.3947 70.1716 19.111C70.4709 18.8273 70.6205 18.4095 70.6205 17.8576V14.7213H71.495ZM75.7884 14.6106C76.5385 14.6106 77.1564 14.8768 77.6422 15.4092C78.1319 15.9417 78.3787 16.6257 78.3826 17.4612C78.3826 17.5817 78.3768 17.6905 78.3651 17.7877H73.9405C73.9988 18.3629 74.2086 18.8079 74.5701 19.1227C74.9315 19.4336 75.3726 19.589 75.8934 19.589C76.5541 19.589 77.137 19.3578 77.6422 18.8953L78.1086 19.4899C77.5062 20.0651 76.7503 20.3527 75.8409 20.3527C75.0209 20.3527 74.3505 20.0884 73.8297 19.5599C73.3089 19.0274 73.0485 18.3357 73.0485 17.4846C73.0485 16.6451 73.307 15.9572 73.8239 15.4209C74.3408 14.8807 74.9956 14.6106 75.7884 14.6106ZM75.771 15.3859C75.2735 15.3859 74.8635 15.5414 74.5409 15.8523C74.2183 16.1632 74.0221 16.5732 73.9521 17.0823H77.4965C77.4421 16.5654 77.2575 16.1535 76.9427 15.8464C76.6318 15.5394 76.2412 15.3859 75.771 15.3859ZM82.7262 14.6106C83.4102 14.6106 83.964 14.8127 84.3876 15.2168C84.8151 15.621 85.0289 16.1554 85.0289 16.82V20.2419H84.1603V17.1056C84.1603 16.581 84.0203 16.1729 83.7405 15.8814C83.4646 15.5861 83.074 15.4384 82.5688 15.4384C82.0908 15.4384 81.6885 15.5938 81.3621 15.9047C81.0395 16.2118 80.8782 16.6198 80.8782 17.1289V20.2419H80.0038V14.7213H80.8665V15.5083C81.0764 15.1974 81.3465 14.9701 81.6769 14.8263C82.0072 14.6825 82.357 14.6106 82.7262 14.6106ZM89.3263 14.6106C90.0763 14.6106 90.6943 14.8768 91.1801 15.4092C91.6698 15.9417 91.9165 16.6257 91.9204 17.4612C91.9204 17.5817 91.9146 17.6905 91.9029 17.7877H87.4783C87.5366 18.3629 87.7464 18.8079 88.1079 19.1227C88.4693 19.4336 88.9104 19.589 89.4312 19.589C90.0919 19.589 90.6748 19.3578 91.1801 18.8953L91.6464 19.4899C91.044 20.0651 90.2881 20.3527 89.3787 20.3527C88.5587 20.3527 87.8883 20.0884 87.3675 19.5599C86.8468 19.0274 86.5864 18.3357 86.5864 17.4846C86.5864 16.6451 86.8448 15.9572 87.3617 15.4209C87.8786 14.8807 88.5334 14.6106 89.3263 14.6106ZM89.3088 15.3859C88.8113 15.3859 88.4013 15.5414 88.0787 15.8523C87.7562 16.1632 87.5599 16.5732 87.4899 17.0823H91.0343C90.9799 16.5654 90.7953 16.1535 90.4805 15.8464C90.1696 15.5394 89.779 15.3859 89.3088 15.3859Z" fill="#231F20"/>
<g clip-path="url(#clip1_214_14829)">
<path d="M119.588 23.2419L23.4004 23.2419V78.6229H119.588V23.2419Z" fill="white"/>
<path d="M45.1641 50.738H62.6528" stroke="#231F20" stroke-width="0.971596"/>
<path d="M97.7282 50.738L88.8867 65.8949" stroke="#231F20" stroke-width="0.971596"/>
<path d="M94.6185 50.738L87.4287 63.2716" stroke="#231F20" stroke-width="0.971596"/>
<path d="M97.7278 50.7382L88.9834 35.6785" stroke="#231F20" stroke-width="0.971596"/>
<path d="M88.8862 65.895H71.3975" stroke="#231F20" stroke-width="0.971596"/>
<path d="M88.9829 35.6785H71.4941" stroke="#231F20" stroke-width="0.971596"/>
<path d="M87.4289 38.3018H72.9521" stroke="#231F20" stroke-width="0.971596"/>
<path d="M71.3977 65.8949L62.6533 50.738" stroke="#231F20" stroke-width="0.971596"/>
<path d="M72.9515 63.2716L65.7617 50.738" stroke="#231F20" stroke-width="0.971596"/>
<path d="M71.4948 35.6785L62.6533 50.7382" stroke="#231F20" stroke-width="0.971596"/>
<path d="M97.2412 51.5153L97.727 50.738L97.2412 50.0579" stroke="#231F20" stroke-width="0.971596"/>
<path d="M89.372 65.2148L88.8862 65.895H88.0117" stroke="#231F20" stroke-width="0.971596"/>
<path d="M89.372 36.3586L88.9833 35.6785H88.0117" stroke="#231F20" stroke-width="0.971596"/>
<path d="M72.2719 65.895H71.3974L71.0088 65.2148" stroke="#231F20" stroke-width="0.971596"/>
<path d="M72.369 35.6785H71.4946L71.0088 36.3586" stroke="#231F20" stroke-width="0.971596"/>
</g>
<path d="M0.494141 78.623H26.4409V90.7486H12.6197C5.92293 90.7486 0.494141 85.3198 0.494141 78.623V78.623Z" fill="white"/>
<rect x="26.4414" y="78.623" width="90.1064" height="12.1255" fill="white"/>
<path d="M116.547 78.623H142.494V78.623C142.494 85.3198 137.065 90.7486 130.368 90.7486H116.547V78.623Z" fill="white"/>
</g>
<rect x="1.24391" y="1.18165" width="140.5" height="84.5005" rx="3.13661" stroke="white" stroke-width="1.49954"/>
<defs>
<clipPath id="clip0_214_14829">
<rect x="0.494141" y="0.431885" width="142" height="86" rx="3.88638" fill="white"/>
</clipPath>
<clipPath id="clip1_214_14829">
<rect width="96.188" height="55.381" fill="white" transform="translate(23.4004 23.2419)"/>
</clipPath>
</defs>
</svg>
