<svg width="145" height="87" viewBox="0 0 145 87" fill="none" xmlns="http://www.w3.org/2000/svg">
<g clip-path="url(#clip0_214_14769)">
<rect x="0.245117" y="0.431885" width="144" height="86" rx="3.88638" fill="white"/>
<path d="M0.245117 7.27046C0.245117 0.573023 5.67446 -4.85632 12.3719 -4.85632L26.1919 -4.85632V7.27046L0.245117 7.27046V7.27046Z" fill="white"/>
<rect x="26.1924" y="-4.85632" width="92.1064" height="12.1268" fill="white"/>
<path d="M118.298 -4.85632L132.118 -4.85632C138.815 -4.85632 144.245 0.573023 144.245 7.27046V7.27046L118.298 7.27046V-4.85632Z" fill="white"/>
<rect width="144" height="15" transform="translate(0.245117 7.27051)" fill="white"/>
<path d="M38.9688 11.1091V19.2705H38.0303V12.1584L35.1855 18.3669H34.2003L31.3613 12.2051V19.2705H30.4227V11.1091H31.8451L34.6958 17.2768L37.5406 11.1091H38.9688ZM43.4818 13.6391C44.2318 13.6391 44.8498 13.9054 45.3356 14.4378C45.8253 14.9702 46.072 15.6542 46.0759 16.4898C46.0759 16.6103 46.0701 16.7191 46.0584 16.8163H41.6338C41.6921 17.3914 41.9019 17.8364 42.2634 18.1512C42.6248 18.4621 43.0659 18.6176 43.5867 18.6176C44.2474 18.6176 44.8303 18.3864 45.3356 17.9239L45.8019 18.5185C45.1995 19.0937 44.4436 19.3813 43.5342 19.3813C42.7142 19.3813 42.0438 19.117 41.523 18.5884C41.0022 18.056 40.7419 17.3642 40.7419 16.5131C40.7419 15.6737 41.0003 14.9858 41.5172 14.4494C42.0341 13.9092 42.6889 13.6391 43.4818 13.6391ZM43.4643 14.4145C42.9668 14.4145 42.5568 14.5699 42.2342 14.8808C41.9117 15.1917 41.7154 15.6018 41.6454 16.1109H45.1898C45.1354 15.594 44.9508 15.182 44.636 14.875C44.3251 14.568 43.9345 14.4145 43.4643 14.4145ZM51.3886 13.7499V14.5369H49.0043V17.3234C49.0043 17.7393 49.1034 18.0502 49.3016 18.2562C49.4998 18.4621 49.766 18.5651 50.1002 18.5651C50.5161 18.5651 50.9028 18.4349 51.2603 18.1745L51.6684 18.8333C51.1865 19.1986 50.6404 19.3813 50.0303 19.3813C49.424 19.3813 48.9557 19.2122 48.6254 18.8741C48.2989 18.5321 48.1357 18.021 48.1357 17.3409V14.5369H46.929V13.7499H48.1357V11.9952H49.0043V13.7499H51.3886ZM53.7977 10.8759V14.5194C54.0114 14.2163 54.2815 13.9947 54.608 13.8548C54.9344 13.711 55.2803 13.6391 55.6456 13.6391C56.3296 13.6391 56.8834 13.8412 57.3071 14.2454C57.7346 14.6496 57.9483 15.184 57.9483 15.8485V19.2705H57.0797V16.1342C57.0797 15.6095 56.9398 15.2015 56.66 14.91C56.384 14.6146 55.9935 14.4669 55.4882 14.4669C55.0102 14.4669 54.608 14.6224 54.2815 14.9333C53.9589 15.2403 53.7977 15.6484 53.7977 16.1575V19.2705H52.9232V10.8759H53.7977ZM64.8029 13.7499L60.3083 21.6257H59.3464L61.4042 18.0754L58.8684 13.7499H59.8419L61.8998 17.2127L63.8468 13.7499H64.8029ZM66.7889 10.8759V19.2705H65.9145V10.8759H66.7889ZM77.1609 13.7499V19.2705H76.2923V18.4485C75.8104 19.0704 75.1381 19.3813 74.2753 19.3813C73.4941 19.3813 72.8393 19.1092 72.3107 18.5651C71.7822 18.0171 71.5179 17.3312 71.5179 16.5073C71.5179 15.6834 71.7822 14.9994 72.3107 14.4553C72.8393 13.9112 73.4941 13.6391 74.2753 13.6391C75.1342 13.6391 75.8065 13.95 76.2923 14.5719V13.7499H77.1609ZM74.3802 14.4553C73.7973 14.4553 73.3212 14.6535 72.952 15.0499C72.5867 15.4424 72.404 15.9282 72.404 16.5073C72.404 17.0864 72.5886 17.5741 72.9578 17.9705C73.327 18.3669 73.8012 18.5651 74.3802 18.5651C74.9515 18.5651 75.4218 18.3708 75.791 17.9822C76.1602 17.5896 76.3448 17.098 76.3448 16.5073C76.3448 15.9204 76.1602 15.4327 75.791 15.0441C75.4218 14.6515 74.9515 14.4553 74.3802 14.4553ZM81.6386 13.6391C82.0506 13.6391 82.4334 13.7149 82.787 13.8665C83.1407 14.0142 83.4399 14.2279 83.6848 14.5077L83.1252 15.0965C82.686 14.669 82.1827 14.4553 81.6153 14.4553C81.0595 14.4553 80.5951 14.6496 80.222 15.0382C79.8528 15.4269 79.6682 15.9166 79.6682 16.5073C79.6682 17.1019 79.8528 17.5935 80.222 17.9822C80.5951 18.3708 81.0595 18.5651 81.6153 18.5651C82.1905 18.5651 82.6996 18.3494 83.1426 17.918L83.6848 18.5127C83.4361 18.7925 83.1349 19.0082 82.7812 19.1597C82.4275 19.3074 82.0467 19.3813 81.6386 19.3813C80.7992 19.3813 80.1132 19.1092 79.5808 18.5651C79.0483 18.021 78.7821 17.3351 78.7821 16.5073C78.7821 15.6834 79.0483 14.9994 79.5808 14.4553C80.1132 13.9112 80.7992 13.6391 81.6386 13.6391ZM87.3858 13.6391C88.1358 13.6391 88.7538 13.9054 89.2396 14.4378C89.7292 14.9702 89.976 15.6542 89.9799 16.4898C89.9799 16.6103 89.9741 16.7191 89.9624 16.8163H85.5378C85.5961 17.3914 85.8059 17.8364 86.1674 18.1512C86.5288 18.4621 86.9699 18.6176 87.4907 18.6176C88.1514 18.6176 88.7343 18.3864 89.2396 17.9239L89.7059 18.5185C89.1035 19.0937 88.3476 19.3813 87.4382 19.3813C86.6182 19.3813 85.9478 19.117 85.427 18.5884C84.9062 18.056 84.6459 17.3642 84.6459 16.5131C84.6459 15.6737 84.9043 14.9858 85.4212 14.4494C85.9381 13.9092 86.5929 13.6391 87.3858 13.6391ZM87.3683 14.4145C86.8708 14.4145 86.4608 14.5699 86.1382 14.8808C85.8157 15.1917 85.6194 15.6018 85.5494 16.1109H89.0938C89.0394 15.594 88.8548 15.182 88.54 14.875C88.2291 14.568 87.8385 14.4145 87.3683 14.4145ZM95.2926 13.7499V14.5369H92.9083V17.3234C92.9083 17.7393 93.0074 18.0502 93.2056 18.2562C93.4038 18.4621 93.67 18.5651 94.0042 18.5651C94.4201 18.5651 94.8068 18.4349 95.1643 18.1745L95.5724 18.8333C95.0905 19.1986 94.5444 19.3813 93.9343 19.3813C93.328 19.3813 92.8597 19.2122 92.5293 18.8741C92.2029 18.5321 92.0397 18.021 92.0397 17.3409V14.5369H90.8329V13.7499H92.0397V11.9952L92.9083 11.9952V13.7499H95.2926ZM102.028 13.7499V19.2705H101.159V18.4485C100.677 19.0704 100.005 19.3813 99.1421 19.3813C98.3609 19.3813 97.7061 19.1092 97.1775 18.5651C96.649 18.0171 96.3847 17.3312 96.3847 16.5073C96.3847 15.6834 96.649 14.9994 97.1775 14.4553C97.7061 13.9112 98.3609 13.6391 99.1421 13.6391C100.001 13.6391 100.673 13.95 101.159 14.5719V13.7499H102.028ZM99.247 14.4553C98.6641 14.4553 98.188 14.6535 97.8188 15.0499C97.4535 15.4424 97.2708 15.9282 97.2708 16.5073C97.2708 17.0864 97.4554 17.5741 97.8246 17.9705C98.1938 18.3669 98.668 18.5651 99.247 18.5651C99.8183 18.5651 100.289 18.3708 100.658 17.9822C101.027 17.5896 101.212 17.098 101.212 16.5073C101.212 15.9204 101.027 15.4327 100.658 15.0441C100.289 14.6515 99.8183 14.4553 99.247 14.4553ZM107.817 13.7499V14.5369H105.433V17.3234C105.433 17.7393 105.532 18.0502 105.73 18.2562C105.928 18.4621 106.194 18.5651 106.529 18.5651C106.945 18.5651 107.331 18.4349 107.689 18.1745L108.097 18.8333C107.615 19.1986 107.069 19.3813 106.459 19.3813C105.852 19.3813 105.384 19.2122 105.054 18.8741C104.727 18.5321 104.564 18.021 104.564 17.3409V14.5369H103.357V13.7499H104.564V11.9952H105.433V13.7499H107.817ZM111.649 13.6391C112.399 13.6391 113.017 13.9054 113.503 14.4378C113.993 14.9702 114.239 15.6542 114.243 16.4898C114.243 16.6103 114.237 16.7191 114.226 16.8163H109.801C109.859 17.3914 110.069 17.8364 110.431 18.1512C110.792 18.4621 111.233 18.6176 111.754 18.6176C112.415 18.6176 112.998 18.3864 113.503 17.9239L113.969 18.5185C113.367 19.0937 112.611 19.3813 111.702 19.3813C110.882 19.3813 110.211 19.117 109.69 18.5884C109.17 18.056 108.909 17.3642 108.909 16.5131C108.909 15.6737 109.168 14.9858 109.685 14.4494C110.201 13.9092 110.856 13.6391 111.649 13.6391ZM111.632 14.4145C111.134 14.4145 110.724 14.5699 110.402 14.8808C110.079 15.1917 109.883 15.6018 109.813 16.1109H113.357C113.303 15.594 113.118 15.182 112.803 14.875C112.492 14.568 112.102 14.4145 111.632 14.4145Z" fill="#231F20"/>
<g clip-path="url(#clip1_214_14769)">
<path d="M113.538 22.2705L30.9521 22.2705V79.5947H113.538V22.2705Z" fill="white"/>
<path d="M49.3154 37.719L64.4723 46.4634" stroke="#231F20" stroke-width="0.971596"/>
<path d="M94.6884 46.4633L88.5674 42.9656" stroke="#231F20" stroke-width="0.971596"/>
<path d="M88.5673 42.9655L82.4463 39.3706" stroke="#FF6A00" stroke-width="0.971596"/>
<path d="M63.1113 45.686V53.2645" stroke="#231F20" stroke-width="0.971596"/>
<path d="M63.1113 53.2644V60.8429" stroke="#FF6A00" stroke-width="0.971596"/>
<path d="M65.7354 45.686V53.2645" stroke="#231F20" stroke-width="0.971596"/>
<path d="M65.7354 53.2644V60.8429" stroke="#FF6A00" stroke-width="0.971596"/>
<path d="M64.4727 46.4633L70.5937 42.9656" stroke="#231F20" stroke-width="0.971596"/>
<path d="M70.5928 42.9655L76.7138 39.3706" stroke="#FF6A00" stroke-width="0.971596"/>
<path d="M63.6953 46.0747L64.4726 46.4633L64.7641 46.269" stroke="#231F20" stroke-width="0.971596"/>
<path d="M62.1396 63.9519C62.1396 63.1747 62.334 62.5593 62.7226 62.1059C63.1112 61.6525 63.6942 61.4258 64.4715 61.4258C65.184 61.4258 65.7346 61.6525 66.1232 62.1059C66.5118 62.5593 66.7061 63.1747 66.7061 63.9519C66.7061 64.794 66.5118 65.4417 66.1232 65.8951C65.7346 66.3485 65.184 66.5752 64.4715 66.5752C63.6942 66.5752 63.1112 66.3485 62.7226 65.8951C62.334 65.4417 62.1396 64.794 62.1396 63.9519ZM64.4715 65.9923C64.9249 65.9923 65.3135 65.8303 65.6374 65.5065C65.8965 65.1178 66.026 64.5997 66.026 63.9519C66.026 63.3042 65.8965 62.8184 65.6374 62.4945C65.3135 62.1707 64.9249 62.0087 64.4715 62.0087C63.9533 62.0087 63.5647 62.1707 63.3056 62.4945C62.9817 62.8184 62.8198 63.3042 62.8198 63.9519C62.8198 64.6644 62.9817 65.1826 63.3056 65.5065C63.5647 65.8303 63.9533 65.9923 64.4715 65.9923Z" fill="#FF6A00"/>
<path d="M77.2979 37.719C77.2979 36.9417 77.4922 36.3264 77.8808 35.873C78.2694 35.4196 78.82 35.1929 79.5325 35.1929C80.3098 35.1929 80.8928 35.4196 81.2814 35.873C81.67 36.3264 81.8644 36.9417 81.8644 37.719C81.8644 38.5611 81.67 39.2088 81.2814 39.6622C80.8928 40.1156 80.3098 40.3423 79.5325 40.3423C78.82 40.3423 78.2694 40.1156 77.8808 39.6622C77.4922 39.2088 77.2979 38.5611 77.2979 37.719ZM79.5325 39.7594C80.0507 39.7594 80.4393 39.5974 80.6984 39.2736C81.0223 38.8849 81.1842 38.3668 81.1842 37.719C81.1842 37.0713 81.0223 36.5855 80.6984 36.2616C80.4393 35.9378 80.0507 35.7758 79.5325 35.7758C79.0791 35.7758 78.6905 35.9378 78.3666 36.2616C78.1075 36.5855 77.978 37.0713 77.978 37.719C77.978 38.4315 78.1075 38.9497 78.3666 39.2736C78.6905 39.5974 79.0791 39.7594 79.5325 39.7594Z" fill="#FF6A00"/>
</g>
<path d="M0.245117 79.5945H26.1919V91.72H12.3706C5.6739 91.72 0.245117 86.2912 0.245117 79.5945V79.5945Z" fill="white"/>
<rect x="26.1924" y="79.5945" width="92.1064" height="12.1255" fill="white"/>
<path d="M118.298 79.5945H144.245V79.5945C144.245 86.2912 138.816 91.72 132.119 91.72H118.298V79.5945Z" fill="white"/>
</g>
<rect x="0.994886" y="1.18165" width="142.5" height="84.5005" rx="3.13661" stroke="white" stroke-width="1.49954"/>
<defs>
<clipPath id="clip0_214_14769">
<rect x="0.245117" y="0.431885" width="144" height="86" rx="3.88638" fill="white"/>
</clipPath>
<clipPath id="clip1_214_14769">
<rect width="82.5856" height="57.3242" fill="white" transform="translate(30.9521 22.2705)"/>
</clipPath>
</defs>
</svg>
