<svg width="145" height="87" viewBox="0 0 145 87" fill="none" xmlns="http://www.w3.org/2000/svg">
<g clip-path="url(#clip0_214_15129)">
<rect x="0.119141" y="0.431885" width="144" height="86" rx="3.88638" fill="white"/>
<rect width="144" height="28.1973" transform="translate(0.119141 -6.61523)" fill="white"/>
<path d="M57.2001 10.2234V18.3848H56.2616V10.2234H57.2001ZM62.1171 12.7534C62.8011 12.7534 63.3549 12.9555 63.7785 13.3597C64.206 13.7639 64.4198 14.2982 64.4198 14.9628V18.3848H63.5512V15.2485C63.5512 14.7238 63.4113 14.3157 63.1314 14.0242C62.8555 13.7289 62.4649 13.5812 61.9597 13.5812C61.4817 13.5812 61.0794 13.7367 60.753 14.0476C60.4304 14.3546 60.2691 14.7627 60.2691 15.2718V18.3848H59.3947V12.8642H60.2575V13.6512C60.4673 13.3402 60.7374 13.1129 61.0678 12.9691C61.3981 12.8253 61.7479 12.7534 62.1171 12.7534ZM68.7347 12.7534C69.5936 12.7534 70.2659 13.0643 70.7517 13.6861V9.99018H71.6203V18.3848H70.7517V17.5628C70.2698 18.1846 69.5974 18.4955 68.7347 18.4955C67.9535 18.4955 67.2986 18.2235 66.7701 17.6794C66.2415 17.1314 65.9773 16.4455 65.9773 15.6215C65.9773 14.7976 66.2415 14.1136 66.7701 13.5695C67.2986 13.0254 67.9535 12.7534 68.7347 12.7534ZM68.8396 13.5695C68.2566 13.5695 67.7806 13.7677 67.4114 14.1642C67.046 14.5567 66.8634 15.0425 66.8634 15.6215C66.8634 16.2006 67.048 16.6884 67.4172 17.0848C67.7864 17.4812 68.2605 17.6794 68.8396 17.6794C69.4109 17.6794 69.8811 17.4851 70.2504 17.0964C70.6196 16.7039 70.8042 16.2123 70.8042 15.6215C70.8042 15.0347 70.6196 14.547 70.2504 14.1583C69.8811 13.7658 69.4109 13.5695 68.8396 13.5695ZM76.1446 12.7534C76.9763 12.7534 77.6681 13.0274 78.2199 13.5754C78.7757 14.1233 79.0536 14.8054 79.0536 15.6215C79.0536 16.4416 78.7757 17.1256 78.2199 17.6736C77.6681 18.2215 76.9763 18.4955 76.1446 18.4955C75.3129 18.4955 74.6211 18.2215 74.0693 17.6736C73.5174 17.1256 73.2415 16.4416 73.2415 15.6215C73.2415 14.8054 73.5174 14.1233 74.0693 13.5754C74.625 13.0274 75.3168 12.7534 76.1446 12.7534ZM77.5845 14.1525C77.1998 13.7639 76.7198 13.5695 76.1446 13.5695C75.5694 13.5695 75.0894 13.7639 74.7047 14.1525C74.3199 14.5411 74.1276 15.0308 74.1276 15.6215C74.1276 16.2162 74.3199 16.7078 74.7047 17.0964C75.0894 17.4851 75.5694 17.6794 76.1446 17.6794C76.7198 17.6794 77.1998 17.4851 77.5845 17.0964C77.9693 16.7078 78.1616 16.2162 78.1616 15.6215C78.1616 15.0308 77.9693 14.5411 77.5845 14.1525ZM81.5493 9.99018V18.3848H80.6749V9.99018H81.5493ZM85.9099 12.7534C86.6599 12.7534 87.2779 13.0196 87.7637 13.552C88.2534 14.0845 88.5001 14.7685 88.504 15.6041C88.504 15.7245 88.4982 15.8334 88.4865 15.9305H84.0619C84.1202 16.5057 84.3301 16.9507 84.6915 17.2655C85.0529 17.5764 85.494 17.7319 86.0148 17.7319C86.6755 17.7319 87.2584 17.5006 87.7637 17.0381L88.23 17.6328C87.6277 18.2079 86.8717 18.4955 85.9623 18.4955C85.1423 18.4955 84.4719 18.2313 83.9511 17.7027C83.4304 17.1703 83.17 16.4785 83.17 15.6274C83.17 14.7879 83.4284 14.1 83.9453 13.5637C84.4622 13.0235 85.117 12.7534 85.9099 12.7534ZM85.8924 13.5287C85.3949 13.5287 84.9849 13.6842 84.6623 13.9951C84.3398 14.306 84.1435 14.716 84.0736 15.2251H87.6179C87.5635 14.7082 87.3789 14.2963 87.0641 13.9893C86.7532 13.6822 86.3626 13.5287 85.8924 13.5287Z" fill="#231F20"/>
<g clip-path="url(#clip1_214_15129)">
<path d="M124.099 21.582L20.1387 21.582V93.4801H124.099V21.582Z" fill="white"/>
<path d="M43.3604 68.3159V50.8271" stroke="#231F20" stroke-width="0.971596"/>
<path d="M45.9824 66.7614V52.2847" stroke="#231F20" stroke-width="0.971596"/>
<path d="M43.3604 68.3159L58.5172 77.0603" stroke="#231F20" stroke-width="0.971596"/>
<path d="M43.3604 50.8271L58.5172 42.0828" stroke="#231F20" stroke-width="0.971596"/>
<path d="M58.5166 77.0603L73.6735 68.3159" stroke="#231F20" stroke-width="0.971596"/>
<path d="M58.5166 73.951L71.0502 66.7612" stroke="#231F20" stroke-width="0.971596"/>
<path d="M58.5166 42.0828L73.6735 50.8271" stroke="#231F20" stroke-width="0.971596"/>
<path d="M58.5166 45.0945L71.0502 52.2843" stroke="#231F20" stroke-width="0.971596"/>
<path d="M90.2881 73.6597L100.587 59.5715" stroke="#231F20" stroke-width="0.971596"/>
<path d="M89.3164 70.5506L97.3807 59.5715" stroke="#231F20" stroke-width="0.971596"/>
<path d="M90.2871 73.6597L73.6729 68.3159" stroke="#231F20" stroke-width="0.971596"/>
<path d="M100.587 59.5715L96.5059 53.9363" stroke="#231F20" stroke-width="0.971596"/>
<path d="M96.506 53.9363L92.5225 48.3982" stroke="#0F4BA3" stroke-width="0.971596"/>
<path d="M73.6729 68.3159V50.8271" stroke="#231F20" stroke-width="0.971596"/>
<path d="M73.6729 50.8269L80.7655 48.4951" stroke="#231F20" stroke-width="0.971596"/>
<path d="M80.7666 48.4954L87.8592 46.1636" stroke="#0F4BA3" stroke-width="0.971596"/>
<path d="M43.3604 67.4414V68.3158L44.1376 68.7045" stroke="#231F20" stroke-width="0.971596"/>
<path d="M43.3604 51.7015V50.8271L44.1376 50.3413" stroke="#231F20" stroke-width="0.971596"/>
<path d="M57.7393 76.5745L58.5165 77.0603L59.2938 76.5745" stroke="#231F20" stroke-width="0.971596"/>
<path d="M57.7393 42.4714L58.5165 42.0828L59.2938 42.4714" stroke="#231F20" stroke-width="0.971596"/>
<path d="M90.7738 72.9792L90.288 73.6594L89.5107 73.3679" stroke="#231F20" stroke-width="0.971596"/>
<path d="M100.101 60.2516L100.586 59.5715L100.392 59.28" stroke="#231F20" stroke-width="0.971596"/>
<path d="M89.2187 42.8599L90.8704 45.4832C90.9352 45.6775 91.0647 45.9366 91.259 46.2604C91.3886 46.5843 91.4857 46.7462 91.5505 46.7462V42.8599H92.1335V47.815H91.4534L89.7045 44.9974C89.5749 44.7383 89.4454 44.5116 89.3158 44.3173C89.1863 44.0582 89.0891 43.8638 89.0244 43.7343V47.815H88.4414V42.8599H89.2187Z" fill="#0F4BA3"/>
<path d="M88.3447 37.4192H89.0248V39.5567H91.551V37.4192H92.2311V42.3743H91.551V40.1397H89.0248V42.3743H88.3447V37.4192Z" fill="#0F4BA3"/>
</g>
</g>
<rect x="0.86891" y="1.18165" width="142.5" height="84.5005" rx="3.13661" stroke="white" stroke-width="1.49954"/>
<defs>
<clipPath id="clip0_214_15129">
<rect x="0.119141" y="0.431885" width="144" height="86" rx="3.88638" fill="white"/>
</clipPath>
<clipPath id="clip1_214_15129">
<rect width="103.961" height="71.8981" fill="white" transform="translate(20.1387 21.582)"/>
</clipPath>
</defs>
</svg>
