<svg width="144" height="87" viewBox="0 0 144 87" fill="none" xmlns="http://www.w3.org/2000/svg">
<g clip-path="url(#clip0_214_14241)">
<rect x="0.245117" y="0.431885" width="143" height="86" rx="3.88638" fill="white"/>
<path d="M0.245117 7.27046C0.245117 0.573023 5.67446 -4.85632 12.3719 -4.85632H26.1919V7.27046L0.245117 7.27046V7.27046Z" fill="white"/>
<rect x="26.1924" y="-4.85632" width="91.1064" height="12.1268" fill="white"/>
<path d="M117.298 -4.85632L131.118 -4.85632C137.815 -4.85632 143.245 0.573023 143.245 7.27046V7.27046L117.298 7.27046V-4.85632Z" fill="white"/>
<rect width="143" height="15" transform="translate(0.245117 7.27039)" fill="white"/>
<path d="M38.4688 11.109V19.2704H37.5303V12.1583L34.6855 18.3668H33.7003L30.8613 12.2049V19.2704H29.9227V11.109H31.3451L34.1958 17.2767L37.0406 11.109H38.4688ZM42.9818 13.639C43.7318 13.639 44.3498 13.9052 44.8356 14.4377C45.3253 14.9701 45.572 15.6541 45.5759 16.4897C45.5759 16.6102 45.5701 16.719 45.5584 16.8161H41.1338C41.1921 17.3913 41.4019 17.8363 41.7634 18.1511C42.1248 18.462 42.5659 18.6175 43.0867 18.6175C43.7474 18.6175 44.3303 18.3862 44.8356 17.9238L45.3019 18.5184C44.6995 19.0936 43.9436 19.3811 43.0342 19.3811C42.2142 19.3811 41.5438 19.1169 41.023 18.5883C40.5022 18.0559 40.2419 17.3641 40.2419 16.513C40.2419 15.6735 40.5003 14.9856 41.0172 14.4493C41.5341 13.9091 42.1889 13.639 42.9818 13.639ZM42.9643 14.4143C42.4668 14.4143 42.0568 14.5698 41.7342 14.8807C41.4117 15.1916 41.2154 15.6016 41.1454 16.1108H44.6898C44.6354 15.5939 44.4508 15.1819 44.136 14.8749C43.8251 14.5679 43.4345 14.4143 42.9643 14.4143ZM50.8886 13.7498V14.5368H48.5043V17.3233C48.5043 17.7392 48.6034 18.0501 48.8016 18.256C48.9998 18.462 49.266 18.565 49.6002 18.565C50.0161 18.565 50.4028 18.4348 50.7603 18.1744L51.1684 18.8332C50.6865 19.1985 50.1404 19.3811 49.5303 19.3811C48.924 19.3811 48.4557 19.2121 48.1254 18.874C47.7989 18.532 47.6357 18.0209 47.6357 17.3408V14.5368H46.429V13.7498H47.6357V11.9951H48.5043V13.7498H50.8886ZM53.2977 10.8758V14.5193C53.5114 14.2161 53.7815 13.9946 54.108 13.8547C54.4344 13.7109 54.7803 13.639 55.1456 13.639C55.8296 13.639 56.3834 13.8411 56.8071 14.2453C57.2346 14.6495 57.4483 15.1839 57.4483 15.8484V19.2704H56.5797V16.1341C56.5797 15.6094 56.4398 15.2013 56.16 14.9099C55.884 14.6145 55.4935 14.4668 54.9882 14.4668C54.5102 14.4668 54.108 14.6223 53.7815 14.9332C53.4589 15.2402 53.2977 15.6483 53.2977 16.1574V19.2704H52.4232V10.8758H53.2977ZM64.3029 13.7498L59.8083 21.6255H58.8464L60.9042 18.0753L58.3684 13.7498L59.3419 13.7498L61.3998 17.2125L63.3468 13.7498H64.3029ZM66.2889 10.8758V19.2704H65.4145V10.8758H66.2889ZM76.6609 13.7498V19.2704H75.7923V18.4484C75.3104 19.0702 74.6381 19.3811 73.7753 19.3811C72.9941 19.3811 72.3393 19.1091 71.8107 18.565C71.2822 18.017 71.0179 17.3311 71.0179 16.5072C71.0179 15.6833 71.2822 14.9992 71.8107 14.4552C72.3393 13.9111 72.9941 13.639 73.7753 13.639C74.6342 13.639 75.3065 13.9499 75.7923 14.5717V13.7498H76.6609ZM73.8802 14.4552C73.2973 14.4552 72.8212 14.6534 72.452 15.0498C72.0867 15.4423 71.904 15.9281 71.904 16.5072C71.904 17.0862 72.0886 17.574 72.4578 17.9704C72.827 18.3668 73.3012 18.565 73.8802 18.565C74.4515 18.565 74.9218 18.3707 75.291 17.982C75.6602 17.5895 75.8448 17.0979 75.8448 16.5072C75.8448 15.9203 75.6602 15.4326 75.291 15.0439C74.9218 14.6514 74.4515 14.4552 73.8802 14.4552ZM81.1386 13.639C81.5506 13.639 81.9334 13.7148 82.287 13.8664C82.6407 14.0141 82.9399 14.2278 83.1848 14.5076L82.6252 15.0964C82.186 14.6689 81.6827 14.4552 81.1153 14.4552C80.5595 14.4552 80.0951 14.6495 79.722 15.0381C79.3528 15.4268 79.1682 15.9164 79.1682 16.5072C79.1682 17.1018 79.3528 17.5934 79.722 17.982C80.0951 18.3707 80.5595 18.565 81.1153 18.565C81.6905 18.565 82.1996 18.3493 82.6426 17.9179L83.1848 18.5125C82.9361 18.7924 82.6349 19.0081 82.2812 19.1596C81.9275 19.3073 81.5467 19.3811 81.1386 19.3811C80.2992 19.3811 79.6132 19.1091 79.0808 18.565C78.5483 18.0209 78.2821 17.335 78.2821 16.5072C78.2821 15.6833 78.5483 14.9992 79.0808 14.4552C79.6132 13.9111 80.2992 13.639 81.1386 13.639ZM86.8858 13.639C87.6358 13.639 88.2538 13.9052 88.7396 14.4377C89.2292 14.9701 89.476 15.6541 89.4799 16.4897C89.4799 16.6102 89.4741 16.719 89.4624 16.8161L85.0378 16.8161C85.0961 17.3913 85.3059 17.8363 85.6674 18.1511C86.0288 18.462 86.4699 18.6175 86.9907 18.6175C87.6514 18.6175 88.2343 18.3862 88.7396 17.9238L89.2059 18.5184C88.6035 19.0936 87.8476 19.3811 86.9382 19.3811C86.1182 19.3811 85.4478 19.1169 84.927 18.5883C84.4062 18.0559 84.1459 17.3641 84.1459 16.513C84.1459 15.6735 84.4043 14.9856 84.9212 14.4493C85.4381 13.9091 86.0929 13.639 86.8858 13.639ZM86.8683 14.4143C86.3708 14.4143 85.9608 14.5698 85.6382 14.8807C85.3157 15.1916 85.1194 15.6016 85.0494 16.1108L88.5938 16.1108C88.5394 15.5939 88.3548 15.1819 88.04 14.8749C87.7291 14.5679 87.3385 14.4143 86.8683 14.4143ZM94.7926 13.7498V14.5368H92.4083V17.3233C92.4083 17.7392 92.5074 18.0501 92.7056 18.256C92.9038 18.462 93.17 18.565 93.5042 18.565C93.9201 18.565 94.3068 18.4348 94.6643 18.1744L95.0724 18.8332C94.5905 19.1985 94.0444 19.3811 93.4343 19.3811C92.828 19.3811 92.3597 19.2121 92.0293 18.874C91.7029 18.532 91.5397 18.0209 91.5397 17.3408V14.5368H90.3329V13.7498H91.5397V11.9951H92.4083V13.7498H94.7926ZM101.528 13.7498V19.2704H100.659V18.4484C100.177 19.0702 99.5049 19.3811 98.6421 19.3811C97.8609 19.3811 97.2061 19.1091 96.6775 18.565C96.149 18.017 95.8847 17.3311 95.8847 16.5072C95.8847 15.6833 96.149 14.9992 96.6775 14.4552C97.2061 13.9111 97.8609 13.639 98.6421 13.639C99.501 13.639 100.173 13.9499 100.659 14.5717V13.7498H101.528ZM98.747 14.4552C98.1641 14.4552 97.688 14.6534 97.3188 15.0498C96.9535 15.4423 96.7708 15.9281 96.7708 16.5072C96.7708 17.0862 96.9554 17.574 97.3246 17.9704C97.6938 18.3668 98.168 18.565 98.747 18.565C99.3183 18.565 99.7886 18.3707 100.158 17.982C100.527 17.5895 100.712 17.0979 100.712 16.5072C100.712 15.9203 100.527 15.4326 100.158 15.0439C99.7886 14.6514 99.3183 14.4552 98.747 14.4552ZM107.317 13.7498V14.5368H104.933V17.3233C104.933 17.7392 105.032 18.0501 105.23 18.256C105.428 18.462 105.694 18.565 106.029 18.565C106.445 18.565 106.831 18.4348 107.189 18.1744L107.597 18.8332C107.115 19.1985 106.569 19.3811 105.959 19.3811C105.352 19.3811 104.884 19.2121 104.554 18.874C104.227 18.532 104.064 18.0209 104.064 17.3408V14.5368H102.857V13.7498H104.064V11.9951H104.933V13.7498H107.317ZM111.149 13.639C111.899 13.639 112.517 13.9052 113.003 14.4377C113.493 14.9701 113.739 15.6541 113.743 16.4897C113.743 16.6102 113.737 16.719 113.726 16.8161H109.301C109.359 17.3913 109.569 17.8363 109.931 18.1511C110.292 18.462 110.733 18.6175 111.254 18.6175C111.915 18.6175 112.498 18.3862 113.003 17.9238L113.469 18.5184C112.867 19.0936 112.111 19.3811 111.202 19.3811C110.382 19.3811 109.711 19.1169 109.19 18.5883C108.67 18.0559 108.409 17.3641 108.409 16.513C108.409 15.6735 108.668 14.9856 109.185 14.4493C109.701 13.9091 110.356 13.639 111.149 13.639ZM111.132 14.4143C110.634 14.4143 110.224 14.5698 109.902 14.8807C109.579 15.1916 109.383 15.6016 109.313 16.1108H112.857C112.803 15.5939 112.618 15.1819 112.303 14.8749C111.992 14.5679 111.602 14.4143 111.132 14.4143Z" fill="#231F20"/>
<g clip-path="url(#clip1_214_14241)">
<path d="M113.038 22.2704L30.4521 22.2704V79.5945H113.038V22.2704Z" fill="white"/>
<path d="M48.8154 37.7188L63.9723 46.4631" stroke="#231F20" stroke-width="0.971596"/>
<path d="M94.1884 46.4632L88.0674 42.9655" stroke="#231F20" stroke-width="0.971596"/>
<path d="M88.0673 42.9654L81.9463 39.3705" stroke="#FF6A00" stroke-width="0.971596"/>
<path d="M62.6113 45.6858V53.2642" stroke="#231F20" stroke-width="0.971596"/>
<path d="M62.6113 53.2643V60.8427" stroke="#FF6A00" stroke-width="0.971596"/>
<path d="M65.2354 45.6858V53.2642" stroke="#231F20" stroke-width="0.971596"/>
<path d="M65.2354 53.2643V60.8427" stroke="#FF6A00" stroke-width="0.971596"/>
<path d="M63.9727 46.4632L70.0937 42.9655" stroke="#231F20" stroke-width="0.971596"/>
<path d="M70.0928 42.9654L76.2138 39.3705" stroke="#FF6A00" stroke-width="0.971596"/>
<path d="M63.1953 46.0745L63.9726 46.4631L64.2641 46.2688" stroke="#231F20" stroke-width="0.971596"/>
<path d="M61.6396 63.9519C61.6396 63.1747 61.834 62.5593 62.2226 62.1059C62.6112 61.6525 63.1942 61.4258 63.9715 61.4258C64.684 61.4258 65.2346 61.6525 65.6232 62.1059C66.0118 62.5593 66.2061 63.1747 66.2061 63.9519C66.2061 64.794 66.0118 65.4417 65.6232 65.8951C65.2346 66.3485 64.684 66.5752 63.9715 66.5752C63.1942 66.5752 62.6112 66.3485 62.2226 65.8951C61.834 65.4417 61.6396 64.794 61.6396 63.9519ZM63.9715 65.9923C64.4249 65.9923 64.8135 65.8303 65.1374 65.5065C65.3965 65.1178 65.526 64.5997 65.526 63.9519C65.526 63.3042 65.3965 62.8184 65.1374 62.4945C64.8135 62.1707 64.4249 62.0087 63.9715 62.0087C63.4533 62.0087 63.0647 62.1707 62.8056 62.4945C62.4817 62.8184 62.3198 63.3042 62.3198 63.9519C62.3198 64.6644 62.4817 65.1826 62.8056 65.5065C63.0647 65.8303 63.4533 65.9923 63.9715 65.9923Z" fill="#FF6A00"/>
<path d="M76.7979 37.7188C76.7979 36.9415 76.9922 36.3262 77.3808 35.8727C77.7694 35.4193 78.32 35.1926 79.0325 35.1926C79.8098 35.1926 80.3928 35.4193 80.7814 35.8727C81.17 36.3262 81.3644 36.9415 81.3644 37.7188C81.3644 38.5608 81.17 39.2086 80.7814 39.662C80.3928 40.1154 79.8098 40.3421 79.0325 40.3421C78.32 40.3421 77.7694 40.1154 77.3808 39.662C76.9922 39.2086 76.7979 38.5608 76.7979 37.7188ZM79.0325 39.7591C79.5507 39.7591 79.9393 39.5972 80.1984 39.2733C80.5223 38.8847 80.6842 38.3665 80.6842 37.7188C80.6842 37.071 80.5223 36.5852 80.1984 36.2614C79.9393 35.9375 79.5507 35.7756 79.0325 35.7756C78.5791 35.7756 78.1905 35.9375 77.8666 36.2614C77.6075 36.5852 77.478 37.071 77.478 37.7188C77.478 38.4313 77.6075 38.9495 77.8666 39.2733C78.1905 39.5972 78.5791 39.7591 79.0325 39.7591Z" fill="#FF6A00"/>
</g>
<path d="M0.245117 79.5946H26.1919V91.7201H12.3706C5.6739 91.7201 0.245117 86.2913 0.245117 79.5946V79.5946Z" fill="white"/>
<rect x="26.1924" y="79.5946" width="91.1064" height="12.1255" fill="white"/>
<path d="M117.298 79.5946H143.245V79.5946C143.245 86.2913 137.816 91.7201 131.119 91.7201H117.298V79.5946Z" fill="white"/>
</g>
<rect x="0.994886" y="1.18165" width="141.5" height="84.5005" rx="3.13661" stroke="white" stroke-width="1.49954"/>
<defs>
<clipPath id="clip0_214_14241">
<rect x="0.245117" y="0.431885" width="143" height="86" rx="3.88638" fill="white"/>
</clipPath>
<clipPath id="clip1_214_14241">
<rect width="82.5856" height="57.3242" fill="white" transform="translate(30.4521 22.2704)"/>
</clipPath>
</defs>
</svg>
