<svg width="144" height="87" viewBox="0 0 144 87" fill="none" xmlns="http://www.w3.org/2000/svg">
<g clip-path="url(#clip0_214_14793)">
<rect x="0.431641" y="0.431885" width="143" height="86" rx="3.88638" fill="white"/>
<path d="M0.431641 13.5274C0.431641 6.82998 5.86099 1.40063 12.5584 1.40063L26.3784 1.40063V13.5274L0.431641 13.5274V13.5274Z" fill="white"/>
<rect x="26.3789" y="1.40063" width="91.1064" height="12.1268" fill="white"/>
<path d="M117.484 1.40063L131.304 1.40063C138.002 1.40063 143.431 6.82998 143.431 13.5274V13.5274L117.484 13.5274V1.40063Z" fill="white"/>
<rect width="143" height="37.4636" transform="translate(0.431641 13.5273)" fill="white"/>
<path d="M38.2288 17.3659L41.5808 25.5273H40.5781L39.6512 23.2538H35.6113L34.6902 25.5273H33.7167L37.0687 17.3659H38.2288ZM37.6342 18.2928L35.9727 22.3677H39.2956L37.6342 18.2928ZM45.2072 19.896C45.6191 19.896 46.0019 19.9718 46.3556 20.1233C46.7092 20.271 47.0085 20.4848 47.2533 20.7646L46.6937 21.3534C46.2545 20.9259 45.7513 20.7121 45.1838 20.7121C44.6281 20.7121 44.1637 20.9064 43.7906 21.2951C43.4214 21.6837 43.2368 22.1734 43.2368 22.7641C43.2368 23.3587 43.4214 23.8504 43.7906 24.239C44.1637 24.6276 44.6281 24.822 45.1838 24.822C45.759 24.822 46.2681 24.6063 46.7112 24.1749L47.2533 24.7695C47.0046 25.0493 46.7034 25.265 46.3498 25.4166C45.9961 25.5643 45.6152 25.6381 45.2072 25.6381C44.3677 25.6381 43.6818 25.3661 43.1493 24.822C42.6169 24.2779 42.3507 23.5919 42.3507 22.7641C42.3507 21.9402 42.6169 21.2562 43.1493 20.7121C43.6818 20.168 44.3677 19.896 45.2072 19.896ZM50.9543 19.896C51.7044 19.896 52.3223 20.1622 52.8081 20.6946C53.2978 21.2271 53.5446 21.9111 53.5485 22.7466C53.5485 22.8671 53.5426 22.9759 53.531 23.0731H49.1063C49.1646 23.6483 49.3745 24.0933 49.7359 24.4081C50.0974 24.719 50.5385 24.8744 51.0592 24.8744C51.7199 24.8744 52.3029 24.6432 52.8081 24.1807L53.2745 24.7753C52.6721 25.3505 51.9162 25.6381 51.0068 25.6381C50.1867 25.6381 49.5163 25.3738 48.9956 24.8453C48.4748 24.3128 48.2144 23.6211 48.2144 22.77C48.2144 21.9305 48.4728 21.2426 48.9897 20.7063C49.5066 20.1661 50.1615 19.896 50.9543 19.896ZM50.9368 20.6713C50.4394 20.6713 50.0293 20.8268 49.7068 21.1377C49.3842 21.4486 49.1879 21.8586 49.118 22.3677H52.6624C52.608 21.8508 52.4234 21.4389 52.1086 21.1318C51.7976 20.8248 51.4071 20.6713 50.9368 20.6713ZM58.8611 20.0067V20.7937H56.4768V23.5803C56.4768 23.9961 56.5759 24.307 56.7741 24.513C56.9723 24.719 57.2386 24.822 57.5728 24.822C57.9886 24.822 58.3753 24.6918 58.7329 24.4314L59.1409 25.0901C58.659 25.4554 58.113 25.6381 57.5028 25.6381C56.8966 25.6381 56.4282 25.469 56.0979 25.1309C55.7714 24.7889 55.6082 24.2779 55.6082 23.5978V20.7937H54.4015V20.0067H55.6082V18.252H56.4768V20.0067H58.8611ZM65.5963 20.0067V25.5273H64.7277V24.7054C64.2458 25.3272 63.5734 25.6381 62.7106 25.6381C61.9295 25.6381 61.2746 25.3661 60.7461 24.822C60.2175 24.274 59.9533 23.588 59.9533 22.7641C59.9533 21.9402 60.2175 21.2562 60.7461 20.7121C61.2746 20.168 61.9295 19.896 62.7106 19.896C63.5695 19.896 64.2419 20.2069 64.7277 20.8287V20.0067H65.5963ZM62.8156 20.7121C62.2326 20.7121 61.7565 20.9103 61.3873 21.3067C61.022 21.6993 60.8393 22.1851 60.8393 22.7641C60.8393 23.3432 61.024 23.8309 61.3932 24.2273C61.7624 24.6238 62.2365 24.822 62.8156 24.822C63.3869 24.822 63.8571 24.6276 64.2263 24.239C64.5955 23.8465 64.7801 23.3549 64.7801 22.7641C64.7801 22.1773 64.5955 21.6895 64.2263 21.3009C63.8571 20.9084 63.3869 20.7121 62.8156 20.7121ZM68.5116 17.1328V25.5273H67.6372V17.1328H68.5116ZM72.8896 19.896C73.7485 19.896 74.4209 20.2069 74.9067 20.8287V17.1328H75.7753V25.5273H74.9067V24.7054C74.4247 25.3272 73.7524 25.6381 72.8896 25.6381C72.1085 25.6381 71.4536 25.3661 70.9251 24.822C70.3965 24.274 70.1322 23.588 70.1322 22.7641C70.1322 21.9402 70.3965 21.2562 70.9251 20.7121C71.4536 20.168 72.1085 19.896 72.8896 19.896ZM72.9946 20.7121C72.4116 20.7121 71.9355 20.9103 71.5663 21.3067C71.201 21.6993 71.0183 22.1851 71.0183 22.7641C71.0183 23.3432 71.2029 23.8309 71.5721 24.2273C71.9413 24.6238 72.4155 24.822 72.9946 24.822C73.5659 24.822 74.0361 24.6276 74.4053 24.239C74.7745 23.8465 74.9591 23.3549 74.9591 22.7641C74.9591 22.1773 74.7745 21.6895 74.4053 21.3009C74.0361 20.9084 73.5659 20.7121 72.9946 20.7121ZM80.1363 19.896C80.8864 19.896 81.5043 20.1622 81.9901 20.6946C82.4798 21.2271 82.7266 21.9111 82.7305 22.7466C82.7305 22.8671 82.7247 22.9759 82.713 23.0731H78.2884C78.3467 23.6483 78.5565 24.0933 78.918 24.4081C79.2794 24.719 79.7205 24.8744 80.2413 24.8744C80.902 24.8744 81.4849 24.6432 81.9901 24.1807L82.4565 24.7753C81.8541 25.3505 81.0982 25.6381 80.1888 25.6381C79.3688 25.6381 78.6984 25.3738 78.1776 24.8453C77.6568 24.3128 77.3964 23.6211 77.3964 22.77C77.3964 21.9305 77.6549 21.2426 78.1718 20.7063C78.6887 20.1661 79.3435 19.896 80.1363 19.896ZM80.1188 20.6713C79.6214 20.6713 79.2114 20.8268 78.8888 21.1377C78.5662 21.4486 78.37 21.8586 78.3 22.3677H81.8444C81.79 21.8508 81.6054 21.4389 81.2906 21.1318C80.9797 20.8248 80.5891 20.6713 80.1188 20.6713ZM85.2261 17.1328V20.7762C85.4399 20.4731 85.71 20.2516 86.0364 20.1117C86.3629 19.9679 86.7088 19.896 87.0741 19.896C87.7581 19.896 88.3119 20.0981 88.7355 20.5022C89.163 20.9064 89.3768 21.4408 89.3768 22.1054V25.5273H88.5082V22.391C88.5082 21.8664 88.3682 21.4583 88.0884 21.1668C87.8125 20.8715 87.4219 20.7238 86.9167 20.7238C86.4387 20.7238 86.0364 20.8792 85.71 21.1901C85.3874 21.4972 85.2261 21.9052 85.2261 22.4144V25.5273H84.3517V17.1328H85.2261ZM96.2313 20.0067L91.7367 27.8825H90.7749L92.8327 24.3323L90.2968 20.0067H91.2704L93.3282 23.4695L95.2753 20.0067H96.2313ZM99.5782 19.896C100.437 19.896 101.109 20.2069 101.595 20.8287V17.1328H102.464V25.5273H101.595V24.7054C101.113 25.3272 100.441 25.6381 99.5782 25.6381C98.797 25.6381 98.1421 25.3661 97.6136 24.822C97.085 24.274 96.8208 23.588 96.8208 22.7641C96.8208 21.9402 97.085 21.2562 97.6136 20.7121C98.1421 20.168 98.797 19.896 99.5782 19.896ZM99.6831 20.7121C99.1001 20.7121 98.624 20.9103 98.2548 21.3067C97.8895 21.6993 97.7069 22.1851 97.7069 22.7641C97.7069 23.3432 97.8915 23.8309 98.2607 24.2273C98.6299 24.6238 99.104 24.822 99.6831 24.822C100.254 24.822 100.725 24.6276 101.094 24.239C101.463 23.8465 101.648 23.3549 101.648 22.7641C101.648 22.1773 101.463 21.6895 101.094 21.3009C100.725 20.9084 100.254 20.7121 99.6831 20.7121ZM106.825 19.896C107.575 19.896 108.193 20.1622 108.679 20.6946C109.168 21.2271 109.415 21.9111 109.419 22.7466C109.419 22.8671 109.413 22.9759 109.402 23.0731H104.977C105.035 23.6483 105.245 24.0933 105.606 24.4081C105.968 24.719 106.409 24.8744 106.93 24.8744C107.59 24.8744 108.173 24.6432 108.679 24.1807L109.145 24.7753C108.543 25.3505 107.787 25.6381 106.877 25.6381C106.057 25.6381 105.387 25.3738 104.866 24.8453C104.345 24.3128 104.085 23.6211 104.085 22.77C104.085 21.9305 104.343 21.2426 104.86 20.7063C105.377 20.1661 106.032 19.896 106.825 19.896ZM106.807 20.6713C106.31 20.6713 105.9 20.8268 105.577 21.1377C105.255 21.4486 105.058 21.8586 104.989 22.3677H108.533C108.479 21.8508 108.294 21.4389 107.979 21.1318C107.668 20.8248 107.278 20.6713 106.807 20.6713Z" fill="#231F20"/>
<g clip-path="url(#clip1_214_14793)">
<path d="M101.08 50.991L42.7842 50.991V73.3377H101.08V50.991Z" fill="white"/>
<path d="M55.9971 64.3017L71.154 55.5574" stroke="#231F20" stroke-width="0.971596"/>
<path d="M71.1553 55.5574L77.2763 59.1523" stroke="#231F20" stroke-width="0.971596"/>
<path d="M77.2754 59.1523L83.3964 62.6501" stroke="#FF6A00" stroke-width="0.971596"/>
<path d="M71.1553 58.6665L75.9161 61.387" stroke="#231F20" stroke-width="0.971596"/>
<path d="M75.915 61.387L82.1333 64.9819" stroke="#FF6A00" stroke-width="0.971596"/>
<path d="M70.3779 56.0432L71.1552 55.5574L71.4467 55.7517" stroke="#231F20" stroke-width="0.971596"/>
<path d="M83.2998 65.4678C83.2998 64.6905 83.4941 64.0752 83.8828 63.6218C84.3362 63.1684 84.9191 62.9417 85.6316 62.9417C86.3441 62.9417 86.8947 63.1684 87.2833 63.6218C87.672 64.0752 87.8663 64.6905 87.8663 65.4678C87.8663 66.3098 87.672 66.9576 87.2833 67.411C86.8947 67.8644 86.3441 68.0911 85.6316 68.0911C84.9191 68.0911 84.3362 67.8644 83.8828 67.411C83.4941 66.9576 83.2998 66.3098 83.2998 65.4678ZM85.6316 67.5082C86.1498 67.5082 86.5385 67.3462 86.7975 67.0224C87.0566 66.6337 87.1862 66.1155 87.1862 65.4678C87.1862 64.8201 87.0566 64.3343 86.7975 64.0104C86.5385 63.6865 86.1498 63.5246 85.6316 63.5246C85.1134 63.5246 84.7248 63.6865 84.4657 64.0104C84.2066 64.3343 84.0771 64.8201 84.0771 65.4678C84.0771 66.1803 84.2066 66.6985 84.4657 67.0224C84.7248 67.3462 85.1134 67.5082 85.6316 67.5082Z" fill="#FF6A00"/>
</g>
<path d="M0.431641 73.3376H26.3784V85.4632H12.5572C5.86043 85.4632 0.431641 80.0344 0.431641 73.3376V73.3376Z" fill="white"/>
<rect x="26.3789" y="73.3376" width="91.1064" height="12.1255" fill="white"/>
<path d="M117.484 73.3376H143.431V73.3376C143.431 80.0344 138.002 85.4632 131.306 85.4632H117.484V73.3376Z" fill="white"/>
</g>
<rect x="1.18141" y="1.18165" width="141.5" height="84.5005" rx="3.13661" stroke="white" stroke-width="1.49954"/>
<defs>
<clipPath id="clip0_214_14793">
<rect x="0.431641" y="0.431885" width="143" height="86" rx="3.88638" fill="white"/>
</clipPath>
<clipPath id="clip1_214_14793">
<rect width="58.2957" height="22.3467" fill="white" transform="translate(42.7842 50.991)"/>
</clipPath>
</defs>
</svg>
