<svg width="145" height="87" viewBox="0 0 145 87" fill="none" xmlns="http://www.w3.org/2000/svg">
<g clip-path="url(#clip0_214_14961)">
<rect x="0.870117" y="0.431885" width="144" height="86" rx="3.88638" fill="white"/>
<path d="M0.870117 8.24202C0.870117 1.54458 6.29946 -3.88477 12.9969 -3.88477L26.8169 -3.88477V8.24202L0.870117 8.24202V8.24202Z" fill="white"/>
<rect x="26.8174" y="-3.88477" width="92.1064" height="12.1268" fill="white"/>
<path d="M118.923 -3.88477L132.743 -3.88477C139.44 -3.88477 144.87 1.54458 144.87 8.24202V8.24202L118.923 8.24202V-3.88477Z" fill="white"/>
<rect width="144" height="15" transform="translate(0.870117 8.24194)" fill="white"/>
<path d="M37.5185 13.8527L36.8656 13.3281C37.4719 12.4264 38.3055 11.9756 39.3665 11.9756C40.1749 11.9756 40.8103 12.2127 41.2728 12.6868C41.7392 13.1571 41.9723 13.7614 41.9723 14.4998C41.9723 14.9545 41.8713 15.3645 41.6692 15.7299C41.471 16.0952 41.2067 16.4547 40.8764 16.8083L38.4396 19.385H42.2405V20.2419H37.1046V19.5366L40.1885 16.2837C40.7481 15.6968 41.0279 15.1022 41.0279 14.4998C41.0279 14.014 40.8783 13.6157 40.5791 13.3047C40.2798 12.99 39.8659 12.8326 39.3374 12.8326C38.9138 12.8326 38.5601 12.9239 38.2764 13.1065C37.9966 13.2892 37.744 13.5379 37.5185 13.8527ZM46.7867 16.7617V17.5545H43.5454V16.7617H46.7867ZM51.8694 16.9599H49.7241V20.2419H48.7856V12.0805H51.8694C52.7827 12.0805 53.492 12.2962 53.9972 12.7276C54.5024 13.159 54.7551 13.7575 54.7551 14.5231C54.7551 15.2887 54.5024 15.8873 53.9972 16.3186C53.492 16.7461 52.7827 16.9599 51.8694 16.9599ZM51.8403 12.9666L49.7241 12.9666V16.0796H51.8403C52.4737 16.0796 52.9557 15.9494 53.286 15.689C53.6163 15.4287 53.7815 15.04 53.7815 14.5231C53.7815 14.0062 53.6163 13.6176 53.286 13.3572C52.9557 13.0968 52.4737 12.9666 51.8403 12.9666ZM58.4972 14.6106C59.2473 14.6106 59.8652 14.8768 60.351 15.4092C60.8407 15.9417 61.0875 16.6257 61.0913 17.4612C61.0913 17.5817 61.0855 17.6905 61.0739 17.7877H56.6492C56.7075 18.3629 56.9174 18.8079 57.2788 19.1227C57.6402 19.4336 58.0813 19.589 58.6021 19.589C59.2628 19.589 59.8458 19.3578 60.351 18.8953L60.8174 19.4899C60.215 20.0651 59.4591 20.3527 58.5496 20.3527C57.7296 20.3527 57.0592 20.0884 56.5384 19.5599C56.0177 19.0274 55.7573 18.3357 55.7573 17.4846C55.7573 16.6451 56.0157 15.9572 56.5326 15.4209C57.0495 14.8807 57.7044 14.6106 58.4972 14.6106ZM58.4797 15.3859C57.9822 15.3859 57.5722 15.5414 57.2497 15.8523C56.9271 16.1632 56.7308 16.5732 56.6609 17.0823H60.2052C60.1508 16.5654 59.9662 16.1535 59.6514 15.8464C59.3405 15.5394 58.9499 15.3859 58.4797 15.3859ZM65.4349 14.6106C66.1189 14.6106 66.6727 14.8127 67.0964 15.2168C67.5239 15.621 67.7376 16.1554 67.7376 16.82V20.2419H66.869V17.1056C66.869 16.581 66.7291 16.1729 66.4493 15.8814C66.1733 15.5861 65.7828 15.4384 65.2775 15.4384C64.7995 15.4384 64.3973 15.5938 64.0708 15.9047C63.7482 16.2118 63.5869 16.6198 63.5869 17.1289V20.2419H62.7125V14.7213H63.5753V15.5083C63.7852 15.1974 64.0553 14.9701 64.3856 14.8263C64.7159 14.6825 65.0657 14.6106 65.4349 14.6106ZM73.3835 14.7213V15.5083H70.9993V18.2949C70.9993 18.7107 71.0984 19.0216 71.2966 19.2276C71.4948 19.4336 71.761 19.5366 72.0952 19.5366C72.5111 19.5366 72.8978 19.4064 73.2553 19.146L73.6634 19.8047C73.1815 20.17 72.6354 20.3527 72.0253 20.3527C71.419 20.3527 70.9507 20.1836 70.6203 19.8455C70.2939 19.5035 70.1306 18.9925 70.1306 18.3124V15.5083H68.9239V14.7213H70.1306V12.9666H70.9993V14.7213H73.3835ZM80.1187 14.7213V20.2419H79.2501V19.42C78.7682 20.0418 78.0958 20.3527 77.2331 20.3527C76.4519 20.3527 75.7971 20.0807 75.2685 19.5366C74.74 18.9886 74.4757 18.3026 74.4757 17.4787C74.4757 16.6548 74.74 15.9708 75.2685 15.4267C75.7971 14.8826 76.4519 14.6106 77.2331 14.6106C78.092 14.6106 78.7643 14.9215 79.2501 15.5433V14.7213H80.1187ZM77.338 15.4267C76.755 15.4267 76.279 15.6249 75.9098 16.0213C75.5444 16.4139 75.3618 16.8997 75.3618 17.4787C75.3618 18.0578 75.5464 18.5455 75.9156 18.9419C76.2848 19.3384 76.7589 19.5366 77.338 19.5366C77.9093 19.5366 78.3796 19.3422 78.7488 18.9536C79.118 18.5611 79.3026 18.0695 79.3026 17.4787C79.3026 16.8919 79.118 16.4041 78.7488 16.0155C78.3796 15.623 77.9093 15.4267 77.338 15.4267ZM84.882 14.6106C85.566 14.6106 86.1198 14.8127 86.5435 15.2168C86.971 15.621 87.1847 16.1554 87.1847 16.82V20.2419H86.3161V17.1056C86.3161 16.581 86.1762 16.1729 85.8964 15.8814C85.6204 15.5861 85.2299 15.4384 84.7246 15.4384C84.2466 15.4384 83.8444 15.5938 83.5179 15.9047C83.1953 16.2118 83.034 16.6198 83.034 17.1289V20.2419H82.1596V14.7213H83.0224V15.5083C83.2323 15.1974 83.5024 14.9701 83.8327 14.8263C84.163 14.6825 84.5128 14.6106 84.882 14.6106ZM91.6453 14.6106C92.477 14.6106 93.1688 14.8846 93.7207 15.4325C94.2764 15.9805 94.5543 16.6626 94.5543 17.4787C94.5543 18.2988 94.2764 18.9828 93.7207 19.5307C93.1688 20.0787 92.477 20.3527 91.6453 20.3527C90.8136 20.3527 90.1219 20.0787 89.57 19.5307C89.0181 18.9828 88.7422 18.2988 88.7422 17.4787C88.7422 16.6626 89.0181 15.9805 89.57 15.4325C90.1258 14.8846 90.8175 14.6106 91.6453 14.6106ZM93.0852 16.0097C92.7005 15.621 92.2205 15.4267 91.6453 15.4267C91.0701 15.4267 90.5902 15.621 90.2054 16.0097C89.8207 16.3983 89.6283 16.888 89.6283 17.4787C89.6283 18.0733 89.8207 18.565 90.2054 18.9536C90.5902 19.3422 91.0701 19.5366 91.6453 19.5366C92.2205 19.5366 92.7005 19.3422 93.0852 18.9536C93.47 18.565 93.6624 18.0733 93.6624 17.4787C93.6624 16.888 93.47 16.3983 93.0852 16.0097ZM98.8981 14.6106C99.5821 14.6106 100.136 14.8127 100.559 15.2168C100.987 15.621 101.201 16.1554 101.201 16.82V20.2419H100.332V17.1056C100.332 16.581 100.192 16.1729 99.9124 15.8814C99.6365 15.5861 99.2459 15.4384 98.7407 15.4384C98.2626 15.4384 97.8604 15.5938 97.5339 15.9047C97.2114 16.2118 97.0501 16.6198 97.0501 17.1289V20.2419H96.1756V14.7213H97.0384V15.5083C97.2483 15.1974 97.5184 14.9701 97.8487 14.8263C98.1791 14.6825 98.5288 14.6106 98.8981 14.6106ZM105.498 14.6106C106.248 14.6106 106.866 14.8768 107.352 15.4092C107.842 15.9417 108.088 16.6257 108.092 17.4612C108.092 17.5817 108.086 17.6905 108.075 17.7877H103.65C103.708 18.3629 103.918 18.8079 104.28 19.1227C104.641 19.4336 105.082 19.589 105.603 19.589C106.264 19.589 106.847 19.3578 107.352 18.8953L107.818 19.4899C107.216 20.0651 106.46 20.3527 105.551 20.3527C104.731 20.3527 104.06 20.0884 103.539 19.5599C103.019 19.0274 102.758 18.3357 102.758 17.4846C102.758 16.6451 103.017 15.9572 103.534 15.4209C104.05 14.8807 104.705 14.6106 105.498 14.6106ZM105.481 15.3859C104.983 15.3859 104.573 15.5414 104.251 15.8523C103.928 16.1632 103.732 16.5732 103.662 17.0823H107.206C107.152 16.5654 106.967 16.1535 106.652 15.8464C106.341 15.5394 105.951 15.3859 105.481 15.3859Z" fill="#231F20"/>
<g clip-path="url(#clip1_214_14961)">
<path d="M127.765 23.2419L17.9746 23.2419V78.6229H127.765V23.2419Z" fill="white"/>
<path d="M42.5557 57.5395L58.7813 51.0298" stroke="#231F20" stroke-width="0.971596"/>
<path d="M102.504 66.0894L88.8047 55.3047" stroke="#231F20" stroke-width="0.971596"/>
<path d="M58.7812 51.0298L72.4808 61.8145" stroke="#231F20" stroke-width="0.971596"/>
<path d="M72.4805 61.8144L88.8033 55.3047" stroke="#231F20" stroke-width="0.971596"/>
<path d="M89.9697 56.2762L91.0385 48.7949" stroke="#231F20" stroke-width="0.971596"/>
<path d="M91.0391 48.795L92.1078 41.3137" stroke="#FF6A00" stroke-width="0.971596"/>
<path d="M87.3467 55.8875L88.4154 48.4062" stroke="#231F20" stroke-width="0.971596"/>
<path d="M88.415 48.4063L89.4838 40.925" stroke="#FF6A00" stroke-width="0.971596"/>
<path d="M58.0049 51.3213L58.7822 51.0298L59.4623 51.5156" stroke="#231F20" stroke-width="0.971596"/>
<path d="M71.8018 61.2314L72.4819 61.8144L73.3563 61.5229" stroke="#231F20" stroke-width="0.971596"/>
<path d="M89.4842 55.7905L88.8041 55.3047L87.9297 55.5962" stroke="#231F20" stroke-width="0.971596"/>
<path d="M88.998 38.0103C88.998 37.233 89.1924 36.6177 89.581 36.1642C89.9696 35.7108 90.5202 35.4841 91.2327 35.4841C91.9452 35.4841 92.4958 35.7108 92.8844 36.1642C93.2731 36.6177 93.4674 37.233 93.4674 38.0103C93.4674 38.7876 93.2731 39.4029 92.8844 39.8563C92.4958 40.3097 91.9452 40.5364 91.2327 40.5364C90.5202 40.5364 89.9696 40.3097 89.581 39.8563C89.1924 39.4029 88.998 38.7876 88.998 38.0103ZM91.2327 40.0506C91.7509 40.0506 92.1395 39.8563 92.3986 39.4677C92.6577 39.1438 92.7873 38.658 92.7873 38.0103C92.7873 37.3625 92.6577 36.8768 92.3986 36.5529C92.1395 36.229 91.7509 36.0671 91.2327 36.0671C90.7145 36.0671 90.3259 36.229 90.0668 36.5529C89.8077 36.8768 89.6782 37.3625 89.6782 38.0103C89.6782 38.658 89.8077 39.1438 90.0668 39.4677C90.3259 39.8563 90.7145 40.0506 91.2327 40.0506Z" fill="#FF6A00"/>
</g>
<path d="M0.870117 78.623H26.8169V90.7486H12.9956C6.2989 90.7486 0.870117 85.3198 0.870117 78.623V78.623Z" fill="white"/>
<rect x="26.8174" y="78.623" width="92.1064" height="12.1255" fill="white"/>
<path d="M118.923 78.623H144.87V78.623C144.87 85.3198 139.441 90.7486 132.744 90.7486H118.923V78.623Z" fill="white"/>
</g>
<rect x="1.61989" y="1.18165" width="142.5" height="84.5005" rx="3.13661" stroke="white" stroke-width="1.49954"/>
<defs>
<clipPath id="clip0_214_14961">
<rect x="0.870117" y="0.431885" width="144" height="86" rx="3.88638" fill="white"/>
</clipPath>
<clipPath id="clip1_214_14961">
<rect width="109.79" height="55.381" fill="white" transform="translate(17.9746 23.2419)"/>
</clipPath>
</defs>
</svg>
