<svg width="145" height="87" viewBox="0 0 145 87" fill="none" xmlns="http://www.w3.org/2000/svg">
<g clip-path="url(#clip0_214_14265)">
<rect x="0.431641" y="0.431885" width="144" height="86" rx="3.88638" fill="white"/>
<path d="M0.431641 7.75618C0.431641 1.05874 5.86099 -4.37061 12.5584 -4.37061L26.3784 -4.37061V7.75618L0.431641 7.75618V7.75618Z" fill="white"/>
<rect x="26.3789" y="-4.37085" width="92.1064" height="12.1268" fill="white"/>
<path d="M118.484 -4.37061L132.304 -4.37061C139.002 -4.37061 144.431 1.05874 144.431 7.75618V7.75618L118.484 7.75618V-4.37061Z" fill="white"/>
<rect width="144" height="15" transform="translate(0.431641 7.75623)" fill="white"/>
<path d="M51.2697 18.8701V19.7562H45.6092V11.5948H46.5478V18.8701H51.2697ZM53.3969 14.2356V19.7562H52.5225V14.2356H53.3969ZM52.9597 11.6589C53.1307 11.6589 53.2764 11.7192 53.3969 11.8397C53.5174 11.9563 53.5776 12.102 53.5776 12.2769C53.5776 12.4518 53.5174 12.5975 53.3969 12.7141C53.2803 12.8307 53.1346 12.889 52.9597 12.889C52.7848 12.889 52.639 12.8307 52.5225 12.7141C52.4059 12.5975 52.3476 12.4518 52.3476 12.2769C52.3476 12.102 52.4059 11.9563 52.5225 11.8397C52.639 11.7192 52.7848 11.6589 52.9597 11.6589ZM62.3103 14.1249C62.9982 14.1249 63.554 14.3269 63.9776 14.7311C64.4051 15.1353 64.6188 15.6697 64.6188 16.3343V19.7562H63.7502V16.6199C63.7502 16.0953 63.6103 15.6872 63.3305 15.3957C63.0507 15.1003 62.6581 14.9527 62.1529 14.9527C61.6749 14.9527 61.2726 15.1081 60.9462 15.419C60.6236 15.726 60.4623 16.1341 60.4623 16.6432V19.7562H59.5937V16.6199C59.5937 16.0953 59.4538 15.6872 59.174 15.3957C58.8981 15.1003 58.5075 14.9527 58.0023 14.9527C57.5242 14.9527 57.122 15.1081 56.7955 15.419C56.473 15.726 56.3117 16.1341 56.3117 16.6432V19.7562H55.4372V14.2356H56.3V15.0226C56.5099 14.7117 56.78 14.4843 57.1103 14.3405C57.4407 14.1968 57.7904 14.1249 58.1597 14.1249C58.6377 14.1249 59.0574 14.2278 59.4188 14.4338C59.7803 14.6359 60.0504 14.9196 60.2292 15.2849C60.4351 14.8846 60.7247 14.5912 61.0978 14.4047C61.4747 14.2181 61.8789 14.1249 62.3103 14.1249ZM69.0788 14.1249C69.9105 14.1249 70.6023 14.3988 71.1541 14.9468C71.7099 15.4948 71.9878 16.1769 71.9878 16.993C71.9878 17.813 71.7099 18.497 71.1541 19.045C70.6023 19.593 69.9105 19.867 69.0788 19.867C68.2471 19.867 67.5553 19.593 67.0035 19.045C66.4516 18.497 66.1757 17.813 66.1757 16.993C66.1757 16.1769 66.4516 15.4948 67.0035 14.9468C67.5592 14.3988 68.251 14.1249 69.0788 14.1249ZM70.5187 15.524C70.134 15.1353 69.654 14.941 69.0788 14.941C68.5036 14.941 68.0237 15.1353 67.6389 15.524C67.2542 15.9126 67.0618 16.4023 67.0618 16.993C67.0618 17.5876 67.2542 18.0793 67.6389 18.4679C68.0237 18.8565 68.5036 19.0508 69.0788 19.0508C69.654 19.0508 70.134 18.8565 70.5187 18.4679C70.9035 18.0793 71.0958 17.5876 71.0958 16.993C71.0958 16.4023 70.9035 15.9126 70.5187 15.524ZM76.3315 14.1249C77.0155 14.1249 77.5693 14.3269 77.993 14.7311C78.4205 15.1353 78.6342 15.6697 78.6342 16.3343V19.7562H77.7656V16.6199C77.7656 16.0953 77.6257 15.6872 77.3459 15.3957C77.0699 15.1003 76.6794 14.9527 76.1741 14.9527C75.6961 14.9527 75.2939 15.1081 74.9674 15.419C74.6448 15.726 74.4836 16.1341 74.4836 16.6432V19.7562H73.6091V14.2356H74.4719V15.0226C74.6818 14.7117 74.9519 14.4843 75.2822 14.3405C75.6126 14.1968 75.9623 14.1249 76.3315 14.1249ZM82.9316 14.1249C83.6817 14.1249 84.2996 14.3911 84.7854 14.9235C85.2751 15.4559 85.5219 16.1399 85.5258 16.9755C85.5258 17.096 85.5199 17.2048 85.5083 17.302H81.0836C81.1419 17.8772 81.3518 18.3221 81.7132 18.6369C82.0747 18.9479 82.5158 19.1033 83.0365 19.1033C83.6972 19.1033 84.2802 18.8721 84.7854 18.4096L85.2518 19.0042C84.6494 19.5794 83.8935 19.867 82.9841 19.867C82.1641 19.867 81.4937 19.6027 80.9729 19.0742C80.4521 18.5417 80.1917 17.85 80.1917 16.9988C80.1917 16.1594 80.4502 15.4715 80.967 14.9352C81.4839 14.395 82.1388 14.1249 82.9316 14.1249ZM82.9141 14.9002C82.4167 14.9002 82.0067 15.0556 81.6841 15.3666C81.3615 15.6775 81.1653 16.0875 81.0953 16.5966H84.6397C84.5853 16.0797 84.4007 15.6677 84.0859 15.3607C83.775 15.0537 83.3844 14.9002 82.9141 14.9002ZM89.8694 14.1249C90.5534 14.1249 91.1072 14.3269 91.5308 14.7311C91.9583 15.1353 92.172 15.6697 92.172 16.3343V19.7562H91.3034V16.6199C91.3034 16.0953 91.1635 15.6872 90.8837 15.3957C90.6078 15.1003 90.2172 14.9527 89.712 14.9527C89.2339 14.9527 88.8317 15.1081 88.5052 15.419C88.1827 15.726 88.0214 16.1341 88.0214 16.6432V19.7562H87.1469V14.2356H88.0097V15.0226C88.2196 14.7117 88.4897 14.4843 88.82 14.3405C89.1504 14.1968 89.5002 14.1249 89.8694 14.1249ZM96.4694 14.1249C97.2195 14.1249 97.8374 14.3911 98.3232 14.9235C98.8129 15.4559 99.0597 16.1399 99.0636 16.9755C99.0636 17.096 99.0578 17.2048 99.0461 17.302H94.6215C94.6798 17.8772 94.8896 18.3221 95.2511 18.6369C95.6125 18.9479 96.0536 19.1033 96.5744 19.1033C97.2351 19.1033 97.818 18.8721 98.3232 18.4096L98.7896 19.0042C98.1872 19.5794 97.4313 19.867 96.5219 19.867C95.7019 19.867 95.0315 19.6027 94.5107 19.0742C93.9899 18.5417 93.7295 17.85 93.7295 16.9988C93.7295 16.1594 93.988 15.4715 94.5049 14.9352C95.0218 14.395 95.6766 14.1249 96.4694 14.1249ZM96.4519 14.9002C95.9545 14.9002 95.5445 15.0556 95.2219 15.3666C94.8993 15.6775 94.7031 16.0875 94.6331 16.5966H98.1775C98.1231 16.0797 97.9385 15.6677 97.6237 15.3607C97.3128 15.0537 96.9222 14.9002 96.4519 14.9002Z" fill="#231F20"/>
<g clip-path="url(#clip1_214_14265)">
<path d="M145.301 22.7562L-0.438477 22.7562V79.1088H145.301V22.7562Z" fill="white"/>
<path d="M34.8301 35.387L43.8659 51.1268" stroke="#231F20" stroke-width="0.971596"/>
<path d="M32.499 36.6501L41.632 52.4872" stroke="#231F20" stroke-width="0.971596"/>
<path d="M33.6641 66.2837L42.4084 51.1268" stroke="#231F20" stroke-width="0.971596"/>
<path d="M112.364 51.1268H94.875" stroke="#231F20" stroke-width="0.971596"/>
<path d="M86.1303 66.2838H68.6416" stroke="#231F20" stroke-width="0.971596"/>
<path d="M86.1299 66.2837L94.8742 51.1268" stroke="#231F20" stroke-width="0.971596"/>
<path d="M84.5762 63.6604L91.8631 51.1268" stroke="#231F20" stroke-width="0.971596"/>
<path d="M86.1303 35.9698H68.6416" stroke="#231F20" stroke-width="0.971596"/>
<path d="M86.1299 35.9698L94.8742 51.1267" stroke="#231F20" stroke-width="0.971596"/>
<path d="M68.6418 66.2837L59.8975 51.1268" stroke="#231F20" stroke-width="0.971596"/>
<path d="M68.6418 35.9698L59.8975 51.1267" stroke="#231F20" stroke-width="0.971596"/>
<path d="M42.4082 51.1268H59.8969" stroke="#231F20" stroke-width="0.971596"/>
<path d="M85.2568 66.2837H86.1313L86.5199 65.5065" stroke="#231F20" stroke-width="0.971596"/>
<path d="M85.2568 35.9698H86.1313L86.5199 36.7471" stroke="#231F20" stroke-width="0.971596"/>
<path d="M69.5165 66.2837H68.642L68.1562 65.5065" stroke="#231F20" stroke-width="0.971596"/>
<path d="M69.5165 35.9698H68.642L68.1562 36.7471" stroke="#231F20" stroke-width="0.971596"/>
<path d="M41.9229 51.9041L42.4086 51.1268H43.2831" stroke="#231F20" stroke-width="0.971596"/>
</g>
<path d="M0.431641 79.1088H26.3784V91.2343H12.5572C5.86043 91.2343 0.431641 85.8055 0.431641 79.1088V79.1088Z" fill="white"/>
<rect x="26.3789" y="79.1085" width="92.1064" height="12.1255" fill="white"/>
<path d="M118.484 79.1088H144.431V79.1088C144.431 85.8055 139.002 91.2343 132.306 91.2343H118.484V79.1088Z" fill="white"/>
</g>
<rect x="1.18141" y="1.18165" width="142.5" height="84.5005" rx="3.13661" stroke="white" stroke-width="1.49954"/>
<defs>
<clipPath id="clip0_214_14265">
<rect x="0.431641" y="0.431885" width="144" height="86" rx="3.88638" fill="white"/>
</clipPath>
<clipPath id="clip1_214_14265">
<rect width="145.739" height="56.3526" fill="white" transform="translate(-0.438477 22.7562)"/>
</clipPath>
</defs>
</svg>
