<svg width="143" height="87" viewBox="0 0 143 87" fill="none" xmlns="http://www.w3.org/2000/svg">
<g clip-path="url(#clip0_214_14721)">
<rect x="0.494141" y="0.431885" width="142" height="86" rx="3.88638" fill="white"/>
<path d="M0.494141 12.5587C0.494141 5.86123 5.92349 0.431885 12.6209 0.431885L26.4409 0.431885V12.5587H0.494141V12.5587Z" fill="white"/>
<rect x="26.4414" y="0.431885" width="90.1064" height="12.1268" fill="white"/>
<path d="M116.547 0.431885L130.367 0.431885C137.064 0.431885 142.494 5.86123 142.494 12.5587V12.5587L116.547 12.5587V0.431885Z" fill="white"/>
<rect width="142" height="15" transform="translate(0.494141 12.5586)" fill="white"/>
<path d="M28.1717 16.3972H31.2439C32.5769 16.3972 33.636 16.7664 34.421 17.5048C35.2061 18.2432 35.5986 19.2342 35.5986 20.4779C35.5986 21.7215 35.2061 22.7126 34.421 23.451C33.636 24.1894 32.5769 24.5586 31.2439 24.5586H28.1717V16.3972ZM31.2439 17.2833H29.1103V23.6725H31.2439C32.3243 23.6725 33.156 23.3849 33.739 22.8097C34.3219 22.2345 34.6134 21.4573 34.6134 20.4779C34.6134 19.4946 34.3219 18.7174 33.739 18.1461C33.1599 17.5709 32.3282 17.2833 31.2439 17.2833ZM38.2024 19.038V24.5586H37.328V19.038H38.2024ZM37.7652 16.4613C37.9362 16.4613 38.0819 16.5216 38.2024 16.642C38.3229 16.7586 38.3831 16.9044 38.3831 17.0792C38.3831 17.2541 38.3229 17.3999 38.2024 17.5165C38.0858 17.6331 37.9401 17.6914 37.7652 17.6914C37.5903 17.6914 37.4446 17.6331 37.328 17.5165C37.2114 17.3999 37.1531 17.2541 37.1531 17.0792C37.1531 16.9044 37.2114 16.7586 37.328 16.642C37.4446 16.5216 37.5903 16.4613 37.7652 16.4613ZM47.1158 18.9272C47.8037 18.9272 48.3595 19.1293 48.7831 19.5335C49.2106 19.9377 49.4243 20.4721 49.4243 21.1366V24.5586H48.5557V21.4223C48.5557 20.8976 48.4158 20.4895 48.136 20.1981C47.8562 19.9027 47.4637 19.755 46.9584 19.755C46.4804 19.755 46.0782 19.9105 45.7517 20.2214C45.4291 20.5284 45.2679 20.9365 45.2679 21.4456V24.5586H44.3992V21.4223C44.3992 20.8976 44.2593 20.4895 43.9795 20.1981C43.7036 19.9027 43.313 19.755 42.8078 19.755C42.3297 19.755 41.9275 19.9105 41.6011 20.2214C41.2785 20.5284 41.1172 20.9365 41.1172 21.4456V24.5586H40.2428V19.038H41.1055V19.825C41.3154 19.5141 41.5855 19.2867 41.9158 19.1429C42.2462 18.9991 42.596 18.9272 42.9652 18.9272C43.4432 18.9272 43.8629 19.0302 44.2244 19.2362C44.5858 19.4383 44.8559 19.722 45.0347 20.0873C45.2407 19.687 45.5302 19.3936 45.9033 19.207C46.2803 19.0205 46.6844 18.9272 47.1158 18.9272ZM53.7211 18.9272C54.4712 18.9272 55.0891 19.1934 55.5749 19.7259C56.0646 20.2583 56.3114 20.9423 56.3153 21.7779C56.3153 21.8984 56.3094 22.0072 56.2978 22.1043H51.8731C51.9314 22.6795 52.1413 23.1245 52.5027 23.4393C52.8642 23.7502 53.3053 23.9057 53.826 23.9057C54.4867 23.9057 55.0697 23.6744 55.5749 23.212L56.0413 23.8066C55.4389 24.3818 54.683 24.6694 53.7736 24.6694C52.9535 24.6694 52.2831 24.4051 51.7624 23.8765C51.2416 23.3441 50.9812 22.6523 50.9812 21.8012C50.9812 20.9617 51.2396 20.2739 51.7565 19.7375C52.2734 19.1973 52.9283 18.9272 53.7211 18.9272ZM53.7036 19.7026C53.2062 19.7026 52.7961 19.858 52.4736 20.1689C52.151 20.4798 51.9547 20.8898 51.8848 21.399H55.4292C55.3748 20.8821 55.1902 20.4701 54.8754 20.1631C54.5645 19.8561 54.1739 19.7026 53.7036 19.7026ZM61.6279 19.038V19.825H59.2436V22.6115C59.2436 23.0274 59.3427 23.3383 59.5409 23.5442C59.7391 23.7502 60.0054 23.8532 60.3396 23.8532C60.7554 23.8532 61.1421 23.723 61.4997 23.4626L61.9077 24.1214C61.4258 24.4867 60.8798 24.6694 60.2696 24.6694C59.6634 24.6694 59.195 24.5003 58.8647 24.1622C58.5382 23.8202 58.375 23.3091 58.375 22.629V19.825H57.1683V19.038H58.375V17.2833H59.2436V19.038H61.6279ZM64.037 16.164V19.8075C64.2507 19.5044 64.5209 19.2828 64.8473 19.1429C65.1738 18.9991 65.5197 18.9272 65.885 18.9272C66.569 18.9272 67.1228 19.1293 67.5464 19.5335C67.9739 19.9377 68.1877 20.4721 68.1877 21.1366V24.5586H67.319V21.4223C67.319 20.8976 67.1791 20.4895 66.8993 20.1981C66.6234 19.9027 66.2328 19.755 65.7276 19.755C65.2495 19.755 64.8473 19.9105 64.5209 20.2214C64.1983 20.5284 64.037 20.9365 64.037 21.4456V24.5586H63.1626V16.164H64.037ZM75.0422 19.038L70.5476 26.9137H69.5857L71.6436 23.3635L69.1077 19.038H70.0813L72.1391 22.5008L74.0862 19.038H75.0422ZM77.0283 16.164V24.5586H76.1539V16.164H77.0283ZM83.1552 19.5335L82.7763 20.2097C82.5742 20.0698 82.3079 19.9493 81.9776 19.8483C81.6511 19.7434 81.315 19.6909 80.9691 19.6909C80.5727 19.6909 80.2559 19.7686 80.0189 19.9241C79.7818 20.0795 79.6633 20.2913 79.6633 20.5595C79.6633 20.987 80.0383 21.2455 80.7884 21.3348L81.4413 21.4165C82.6772 21.5758 83.2951 22.0888 83.2951 22.9555C83.2951 23.4801 83.0755 23.896 82.6363 24.203C82.1972 24.51 81.6065 24.6635 80.8642 24.6635C79.9509 24.6635 79.1833 24.4284 78.5615 23.9581L78.9637 23.3052C79.4767 23.7055 80.1141 23.9057 80.8758 23.9057C81.35 23.9057 81.7211 23.8299 81.9893 23.6783C82.2613 23.5229 82.3973 23.3013 82.3973 23.0138C82.3973 22.5707 82.0126 22.3025 81.2431 22.2093L80.5843 22.1335C79.9742 22.0596 79.5175 21.8925 79.2144 21.6321C78.9112 21.3679 78.7597 21.0259 78.7597 20.6061C78.7597 20.0893 78.9598 19.6812 79.3601 19.3819C79.7604 19.0827 80.2948 18.9331 80.9633 18.9331C81.3869 18.9331 81.7891 18.9875 82.17 19.0963C82.5508 19.2051 82.8792 19.3508 83.1552 19.5335ZM89.7678 19.038V22.2559C89.7678 22.6523 89.6998 23.0079 89.5638 23.3227C89.4278 23.6336 89.2432 23.8862 89.01 24.0806C88.7768 24.2749 88.5106 24.4226 88.2113 24.5236C87.916 24.6208 87.5992 24.6694 87.2611 24.6694C86.9191 24.6694 86.5985 24.6208 86.2992 24.5236C86.0039 24.4226 85.7396 24.2749 85.5064 24.0806C85.2732 23.8862 85.0886 23.6336 84.9526 23.3227C84.8205 23.0079 84.7544 22.6523 84.7544 22.2559V19.038H85.623V22.1743C85.623 22.7262 85.7726 23.1439 86.0719 23.4277C86.3711 23.7114 86.7675 23.8532 87.2611 23.8532C87.7547 23.8532 88.1492 23.7114 88.4445 23.4277C88.7438 23.1439 88.8934 22.7262 88.8934 22.1743V19.038H89.7678ZM92.6156 16.164V24.5586H91.7411V16.164H92.6156ZM98.2761 19.038V19.825H96.0783V24.5586H95.2039V19.825H93.9447V19.038H95.2039V18.0936C95.2039 17.4679 95.3535 16.9724 95.6528 16.6071C95.952 16.2378 96.4145 16.0532 97.0402 16.0532C97.596 16.0532 98.0993 16.1912 98.5501 16.4671L98.2353 17.1958C97.8661 16.9782 97.4872 16.8694 97.0985 16.8694C96.4184 16.8694 96.0783 17.2775 96.0783 18.0936V19.038H98.2761ZM100.563 19.038V24.5586L99.6885 24.5586V19.038H100.563ZM100.126 16.4613C100.297 16.4613 100.442 16.5216 100.563 16.642C100.683 16.7586 100.744 16.9044 100.744 17.0792C100.744 17.2541 100.683 17.3999 100.563 17.5165C100.446 17.6331 100.301 17.6914 100.126 17.6914C99.9508 17.6914 99.8051 17.6331 99.6885 17.5165C99.5719 17.3999 99.5136 17.2541 99.5136 17.0792C99.5136 16.9044 99.5719 16.7586 99.6885 16.642C99.8051 16.5216 99.9508 16.4613 100.126 16.4613ZM104.941 18.9272C105.8 18.9272 106.472 19.2381 106.958 19.86V16.164H107.827V24.5586H106.958V23.7366C106.476 24.3584 105.804 24.6694 104.941 24.6694C104.16 24.6694 103.505 24.3973 102.976 23.8532C102.448 23.3052 102.184 22.6193 102.184 21.7954C102.184 20.9715 102.448 20.2875 102.976 19.7434C103.505 19.1993 104.16 18.9272 104.941 18.9272ZM105.046 19.7434C104.463 19.7434 103.987 19.9416 103.618 20.338C103.252 20.7305 103.07 21.2163 103.07 21.7954C103.07 22.3744 103.254 22.8622 103.623 23.2586C103.993 23.655 104.467 23.8532 105.046 23.8532C105.617 23.8532 106.087 23.6589 106.457 23.2703C106.826 22.8777 107.01 22.3861 107.01 21.7954C107.01 21.2085 106.826 20.7208 106.457 20.3322C106.087 19.9396 105.617 19.7434 105.046 19.7434ZM112.188 18.9272C112.938 18.9272 113.556 19.1934 114.041 19.7259C114.531 20.2583 114.778 20.9423 114.782 21.7779C114.782 21.8984 114.776 22.0072 114.764 22.1043H110.34C110.398 22.6795 110.608 23.1245 110.969 23.4393C111.331 23.7502 111.772 23.9057 112.293 23.9057C112.953 23.9057 113.536 23.6744 114.041 23.212L114.508 23.8066C113.905 24.3818 113.15 24.6694 112.24 24.6694C111.42 24.6694 110.75 24.4051 110.229 23.8765C109.708 23.3441 109.448 22.6523 109.448 21.8012C109.448 20.9617 109.706 20.2739 110.223 19.7375C110.74 19.1973 111.395 18.9272 112.188 18.9272ZM112.17 19.7026C111.673 19.7026 111.263 19.858 110.94 20.1689C110.618 20.4798 110.421 20.8898 110.351 21.399H113.896C113.841 20.8821 113.657 20.4701 113.342 20.1631C113.031 19.8561 112.64 19.7026 112.17 19.7026Z" fill="#231F20"/>
<path d="M0.494141 27.5586H26.4409V39.6841H12.6197C5.92293 39.6841 0.494141 34.2553 0.494141 27.5586V27.5586Z" fill="white"/>
<rect x="26.4414" y="27.5586" width="90.1064" height="12.1255" fill="white"/>
<path d="M116.547 27.5586H142.494V27.5586C142.494 34.2553 137.065 39.6841 130.368 39.6841H116.547V27.5586Z" fill="white"/>
<g clip-path="url(#clip1_214_14721)">
<path d="M99.1847 39.6841H43.8037V60.0876H99.1847V39.6841Z" fill="white"/>
<path d="M56.2402 55.0353L62.6528 51.3433" stroke="#231F20" stroke-width="0.971596"/>
<path d="M62.6533 51.3432L69.163 47.554" stroke="#CFCF37" stroke-width="0.971596"/>
<path d="M86.4565 55.0353L80.0439 51.3433" stroke="#231F20" stroke-width="0.971596"/>
<path d="M80.0439 51.3432L73.5342 47.554" stroke="#CFCF37" stroke-width="0.971596"/>
<path d="M69.9394 48.0399C70.0042 48.0399 70.1014 48.0723 70.2309 48.1371C70.3605 48.2019 70.5224 48.2666 70.7167 48.3314C70.911 48.3314 71.073 48.3314 71.2025 48.3314C71.5264 48.3314 71.7855 48.2666 71.9798 48.1371C72.1741 47.9428 72.2713 47.7161 72.2713 47.457C72.2713 47.3274 72.2065 47.1979 72.0769 47.0683C72.0122 46.9388 71.915 46.8416 71.7855 46.7768C71.6559 46.7121 71.4616 46.6473 71.2025 46.5825C70.8786 46.5178 70.6519 46.4206 70.5224 46.2911C70.3281 46.2263 70.1661 46.0967 70.0366 45.9024C69.907 45.7729 69.8423 45.5462 69.8423 45.2223C69.8423 44.8337 70.0042 44.5098 70.3281 44.2507C70.5872 43.9916 71.0082 43.8621 71.5911 43.8621C71.915 43.8621 72.3037 43.9592 72.7571 44.1535L72.6599 44.6393C72.2065 44.5098 71.8502 44.445 71.5911 44.445C71.2673 44.445 71.0082 44.5098 70.8139 44.6393C70.6196 44.7689 70.5224 44.9308 70.5224 45.1251C70.5224 45.3195 70.5872 45.4814 70.7167 45.6109C70.7815 45.6757 70.8786 45.7405 71.0082 45.8053C71.1377 45.87 71.3321 45.9348 71.5911 45.9996C71.8502 46.1291 72.0769 46.2263 72.2713 46.2911C72.4656 46.4206 72.6275 46.5825 72.7571 46.7768C72.8866 46.9064 72.9514 47.1331 72.9514 47.457C72.9514 47.9104 72.7895 48.2666 72.4656 48.5257C72.1417 48.7848 71.7531 48.9144 71.2997 48.9144C70.9758 48.9144 70.7167 48.882 70.5224 48.8172C70.2633 48.7524 70.0042 48.6553 69.7451 48.5257L69.9394 48.0399Z" fill="#CFCF37"/>
</g>
</g>
<rect x="1.24391" y="1.18165" width="140.5" height="84.5005" rx="3.13661" stroke="white" stroke-width="1.49954"/>
<defs>
<clipPath id="clip0_214_14721">
<rect x="0.494141" y="0.431885" width="142" height="86" rx="3.88638" fill="white"/>
</clipPath>
<clipPath id="clip1_214_14721">
<rect width="55.381" height="20.4035" fill="white" transform="translate(43.8037 39.6841)"/>
</clipPath>
</defs>
</svg>
