<svg width="144" height="88" viewBox="0 0 144 88" fill="none" xmlns="http://www.w3.org/2000/svg">
<g clip-path="url(#clip0_214_14145)">
<rect x="0.932617" y="0.431885" width="143" height="87" rx="3.88638" fill="white"/>
<path d="M0.932617 12.5587C0.932617 5.86123 6.36196 0.431885 13.0594 0.431885L26.8794 0.431885V12.5587H0.932617V12.5587Z" fill="white"/>
<rect x="26.8799" y="0.431885" width="91.1064" height="12.1268" fill="white"/>
<path d="M117.985 0.431885L131.805 0.431885C138.503 0.431885 143.932 5.86123 143.932 12.5587V12.5587L117.985 12.5587V0.431885Z" fill="white"/>
<rect width="143" height="15" transform="translate(0.932617 12.5587)" fill="white"/>
<path d="M54.1546 16.3973L57.5066 24.5587H56.5039L55.577 22.2852H51.5371L50.616 24.5587H49.6425L52.9945 16.3973H54.1546ZM53.56 17.3242L51.8985 21.3991H55.2214L53.56 17.3242ZM61.1329 18.9273C61.5449 18.9273 61.9277 19.0031 62.2814 19.1547C62.635 19.3024 62.9343 19.5161 63.1791 19.796L62.6195 20.3847C62.1803 19.9572 61.677 19.7435 61.1096 19.7435C60.5539 19.7435 60.0894 19.9378 59.7164 20.3264C59.3471 20.7151 59.1625 21.2048 59.1625 21.7955C59.1625 22.3901 59.3471 22.8817 59.7164 23.2704C60.0894 23.659 60.5539 23.8533 61.1096 23.8533C61.6848 23.8533 62.1939 23.6376 62.637 23.2063L63.1791 23.8009C62.9304 24.0807 62.6292 24.2964 62.2755 24.448C61.9219 24.5956 61.541 24.6695 61.1329 24.6695C60.2935 24.6695 59.6075 24.3974 59.0751 23.8533C58.5427 23.3092 58.2764 22.6233 58.2764 21.7955C58.2764 20.9716 58.5427 20.2876 59.0751 19.7435C59.6075 19.1994 60.2935 18.9273 61.1329 18.9273ZM67.1633 18.9273C67.5675 18.9273 67.9056 18.9895 68.1776 19.1139L67.9678 19.9708C67.6957 19.8232 67.377 19.7493 67.0117 19.7493C66.5764 19.7493 66.2208 19.9067 65.9449 20.2215C65.669 20.5363 65.531 20.9522 65.531 21.469V24.5587H64.6624V19.0381H65.5252V19.8134C65.7156 19.5297 65.9507 19.3121 66.2305 19.1605C66.5142 19.0051 66.8252 18.9273 67.1633 18.9273ZM71.7571 18.9273C72.5888 18.9273 73.2805 19.2013 73.8324 19.7493C74.3881 20.2973 74.666 20.9794 74.666 21.7955C74.666 22.6155 74.3881 23.2995 73.8324 23.8475C73.2805 24.3955 72.5888 24.6695 71.7571 24.6695C70.9254 24.6695 70.2336 24.3955 69.6817 23.8475C69.1299 23.2995 68.8539 22.6155 68.8539 21.7955C68.8539 20.9794 69.1299 20.2973 69.6817 19.7493C70.2375 19.2013 70.9293 18.9273 71.7571 18.9273ZM73.197 20.3264C72.8122 19.9378 72.3323 19.7435 71.7571 19.7435C71.1819 19.7435 70.7019 19.9378 70.3172 20.3264C69.9324 20.7151 69.74 21.2048 69.74 21.7955C69.74 22.3901 69.9324 22.8817 70.3172 23.2704C70.7019 23.659 71.1819 23.8533 71.7571 23.8533C72.3323 23.8533 72.8122 23.659 73.197 23.2704C73.5817 22.8817 73.7741 22.3901 73.7741 21.7955C73.7741 21.2048 73.5817 20.7151 73.197 20.3264ZM77.1618 16.1641V24.5587H76.2874V16.1641H77.1618ZM81.5223 18.9273C82.2724 18.9273 82.8903 19.1936 83.3761 19.726C83.8658 20.2584 84.1126 20.9424 84.1165 21.778C84.1165 21.8985 84.1107 22.0073 84.099 22.1045H79.6744C79.7327 22.6796 79.9425 23.1246 80.304 23.4394C80.6654 23.7503 81.1065 23.9058 81.6273 23.9058C82.288 23.9058 82.8709 23.6746 83.3761 23.2121L83.8425 23.8067C83.2401 24.3819 82.4842 24.6695 81.5748 24.6695C80.7548 24.6695 80.0844 24.4052 79.5636 23.8767C79.0428 23.3442 78.7824 22.6524 78.7824 21.8013C78.7824 20.9619 79.0409 20.274 79.5578 19.7377C80.0747 19.1974 80.7295 18.9273 81.5223 18.9273ZM81.5048 19.7027C81.0074 19.7027 80.5974 19.8581 80.2748 20.169C79.9522 20.48 79.756 20.89 79.686 21.3991H83.2304C83.176 20.8822 82.9914 20.4702 82.6766 20.1632C82.3657 19.8562 81.9751 19.7027 81.5048 19.7027ZM86.6121 19.0381V24.5587H85.7377V19.0381H86.6121ZM86.1749 16.4614C86.3459 16.4614 86.4916 16.5217 86.6121 16.6422C86.7326 16.7587 86.7928 16.9045 86.7928 17.0794C86.7928 17.2543 86.7326 17.4 86.6121 17.5166C86.4955 17.6332 86.3498 17.6915 86.1749 17.6915C86 17.6915 85.8543 17.6332 85.7377 17.5166C85.6211 17.4 85.5628 17.2543 85.5628 17.0794C85.5628 16.9045 85.6211 16.7587 85.7377 16.6422C85.8543 16.5217 86 16.4614 86.1749 16.4614ZM91.3749 18.9273C92.0589 18.9273 92.6127 19.1294 93.0363 19.5336C93.4638 19.9378 93.6775 20.4722 93.6775 21.1368V24.5587H92.8089V21.4224C92.8089 20.8977 92.669 20.4897 92.3892 20.1982C92.1133 19.9028 91.7227 19.7551 91.2175 19.7551C90.7394 19.7551 90.3372 19.9106 90.0107 20.2215C89.6882 20.5285 89.5269 20.9366 89.5269 21.4457V24.5587H88.6525V19.0381H89.5152V19.8251C89.7251 19.5142 89.9952 19.2868 90.3255 19.143C90.6559 18.9992 91.0057 18.9273 91.3749 18.9273Z" fill="#231F20"/>
<path d="M0.932617 27.5587H26.8794V39.6842H13.0581C6.3614 39.6842 0.932617 34.2555 0.932617 27.5587V27.5587Z" fill="white"/>
<rect x="26.8799" y="27.5587" width="91.1064" height="12.1255" fill="white"/>
<path d="M117.985 27.5587L143.932 27.5587V27.5587C143.932 34.2555 138.503 39.6842 131.807 39.6842H117.985V27.5587Z" fill="white"/>
<g clip-path="url(#clip1_214_14145)">
<path d="M116.155 39.6842L28.7109 39.6842V58.1445L116.155 58.1445V39.6842Z" fill="white"/>
<path d="M48.4346 50.4689L64.5631 43.6677" stroke="#231F20" stroke-width="0.971596"/>
<path d="M49.5039 52.8979L64.175 46.6797" stroke="#231F20" stroke-width="0.971596"/>
<path d="M64.5635 43.6677L78.5545 54.161" stroke="#231F20" stroke-width="0.971596"/>
<path d="M78.5537 54.161L85.1606 51.3434" stroke="#231F20" stroke-width="0.971596"/>
<path d="M85.1602 51.3434L91.767 48.5258" stroke="#FF6A00" stroke-width="0.971596"/>
<path d="M78.9424 51.149L84.0918 48.9143" stroke="#231F20" stroke-width="0.971596"/>
<path d="M84.0918 48.9143L90.7958 46.0967" stroke="#FF6A00" stroke-width="0.971596"/>
<path d="M63.7852 43.9592L64.5624 43.6677L65.2425 44.1535" stroke="#231F20" stroke-width="0.971596"/>
<path d="M77.873 53.5781L78.5532 54.1611L78.8446 53.9668" stroke="#231F20" stroke-width="0.971596"/>
<path d="M91.8643 46.0967C91.8643 45.3194 92.0586 44.7041 92.4472 44.2507C92.8359 43.7973 93.3864 43.5706 94.0989 43.5706C94.8762 43.5706 95.4592 43.7973 95.8478 44.2507C96.2364 44.7041 96.4308 45.3194 96.4308 46.0967C96.4308 46.874 96.2041 47.5217 95.7506 48.0399C95.362 48.4933 94.8114 48.72 94.0989 48.72C93.3864 48.72 92.8359 48.4933 92.4472 48.0399C92.0586 47.5865 91.8643 46.9388 91.8643 46.0967ZM94.0989 48.1371C94.6171 48.1371 95.0058 47.9751 95.2648 47.6513C95.5239 47.2626 95.6535 46.7444 95.6535 46.0967C95.6535 45.449 95.5239 44.9632 95.2648 44.6393C95.0058 44.3154 94.6171 44.1535 94.0989 44.1535C93.5807 44.1535 93.1921 44.3154 92.933 44.6393C92.6739 44.9632 92.5444 45.449 92.5444 46.0967C92.5444 46.7444 92.6739 47.2626 92.933 47.6513C93.1921 47.9751 93.5807 48.1371 94.0989 48.1371Z" fill="#FF6A00"/>
</g>
</g>
<rect x="1.68239" y="1.18165" width="141.5" height="85.5005" rx="3.13661" stroke="white" stroke-width="1.49954"/>
<defs>
<clipPath id="clip0_214_14145">
<rect x="0.932617" y="0.431885" width="143" height="87" rx="3.88638" fill="white"/>
</clipPath>
<clipPath id="clip1_214_14145">
<rect width="87.4436" height="18.4603" fill="white" transform="translate(28.7109 39.6842)"/>
</clipPath>
</defs>
</svg>
