<svg width="144" height="87" viewBox="0 0 144 87" fill="none" xmlns="http://www.w3.org/2000/svg">
<g clip-path="url(#clip0_214_14949)">
<rect x="0.181641" y="0.431885" width="143" height="86" rx="3.88638" fill="white"/>
<path d="M0.181641 11.1568C0.181641 4.45938 5.61099 -0.969971 12.3084 -0.969971L26.1284 -0.969971V11.1568L0.181641 11.1568V11.1568Z" fill="white"/>
<rect x="26.1289" y="-0.969971" width="91.1064" height="12.1268" fill="white"/>
<path d="M117.234 -0.969971L131.054 -0.969971C137.752 -0.969971 143.181 4.45938 143.181 11.1568V11.1568L117.234 11.1568V-0.969971Z" fill="white"/>
<rect width="143" height="15" transform="translate(0.181641 11.1567)" fill="white"/>
<path d="M44.4054 14.9953V23.1567H43.4668V16.0447L40.622 22.2532H39.6368L36.7978 16.0913V23.1567H35.8592V14.9953H37.2816L40.1323 21.163L42.9771 14.9953H44.4054ZM48.9183 17.5254C49.6684 17.5254 50.2863 17.7916 50.7721 18.324C51.2618 18.8565 51.5086 19.5405 51.5124 20.376C51.5124 20.4965 51.5066 20.6053 51.495 20.7025H47.0703C47.1286 21.2777 47.3385 21.7227 47.6999 22.0375C48.0613 22.3484 48.5024 22.5038 49.0232 22.5038C49.6839 22.5038 50.2669 22.2726 50.7721 21.8101L51.2385 22.4047C50.6361 22.9799 49.8802 23.2675 48.9708 23.2675C48.1507 23.2675 47.4803 23.0032 46.9595 22.4747C46.4388 21.9422 46.1784 21.2505 46.1784 20.3993C46.1784 19.5599 46.4368 18.872 46.9537 18.3357C47.4706 17.7955 48.1255 17.5254 48.9183 17.5254ZM48.9008 18.3007C48.4033 18.3007 47.9933 18.4562 47.6708 18.7671C47.3482 19.078 47.1519 19.488 47.082 19.9971H50.6263C50.5719 19.4802 50.3873 19.0683 50.0725 18.7612C49.7616 18.4542 49.371 18.3007 48.9008 18.3007ZM56.8251 17.6361V18.4231H54.4408V21.2097C54.4408 21.6255 54.5399 21.9364 54.7381 22.1424C54.9363 22.3484 55.2025 22.4514 55.5368 22.4514C55.9526 22.4514 56.3393 22.3212 56.6969 22.0608L57.1049 22.7195C56.623 23.0848 56.077 23.2675 55.4668 23.2675C54.8605 23.2675 54.3922 23.0984 54.0619 22.7603C53.7354 22.4183 53.5722 21.9073 53.5722 21.2271V18.4231H52.3655V17.6361H53.5722V15.8814H54.4408V17.6361H56.8251ZM59.2342 14.7621V18.4056C59.4479 18.1025 59.718 17.881 60.0445 17.7411C60.3709 17.5973 60.7168 17.5254 61.0821 17.5254C61.7662 17.5254 62.32 17.7275 62.7436 18.1316C63.1711 18.5358 63.3848 19.0702 63.3848 19.7348V23.1567H62.5162V20.0204C62.5162 19.4958 62.3763 19.0877 62.0965 18.7962C61.8206 18.5009 61.43 18.3532 60.9248 18.3532C60.4467 18.3532 60.0445 18.5086 59.718 18.8195C59.3955 19.1266 59.2342 19.5346 59.2342 20.0437V23.1567H58.3597V14.7621H59.2342ZM70.5854 17.6361V23.1567H69.7168V22.3348C69.2348 22.9566 68.5625 23.2675 67.6997 23.2675C66.9186 23.2675 66.2637 22.9955 65.7352 22.4514C65.2066 21.9034 64.9423 21.2174 64.9423 20.3935C64.9423 19.5696 65.2066 18.8856 65.7352 18.3415C66.2637 17.7974 66.9186 17.5254 67.6997 17.5254C68.5586 17.5254 69.231 17.8363 69.7168 18.4581V17.6361H70.5854ZM67.8047 18.3415C67.2217 18.3415 66.7456 18.5397 66.3764 18.9361C66.0111 19.3287 65.8284 19.8144 65.8284 20.3935C65.8284 20.9726 66.013 21.4603 66.3822 21.8567C66.7514 22.2532 67.2256 22.4514 67.8047 22.4514C68.376 22.4514 68.8462 22.257 69.2154 21.8684C69.5846 21.4759 69.7692 20.9842 69.7692 20.3935C69.7692 19.8067 69.5846 19.3189 69.2154 18.9303C68.8462 18.5378 68.376 18.3415 67.8047 18.3415ZM75.063 17.5254C75.475 17.5254 75.8578 17.6012 76.2114 17.7527C76.5651 17.9004 76.8644 18.1142 77.1092 18.394L76.5496 18.9828C76.1104 18.5553 75.6071 18.3415 75.0397 18.3415C74.484 18.3415 74.0195 18.5358 73.6464 18.9245C73.2772 19.3131 73.0926 19.8028 73.0926 20.3935C73.0926 20.9881 73.2772 21.4798 73.6464 21.8684C74.0195 22.257 74.484 22.4514 75.0397 22.4514C75.6149 22.4514 76.124 22.2357 76.5671 21.8043L77.1092 22.3989C76.8605 22.6787 76.5593 22.8944 76.2056 23.046C75.852 23.1937 75.4711 23.2675 75.063 23.2675C74.2236 23.2675 73.5376 22.9955 73.0052 22.4514C72.4727 21.9073 72.2065 21.2213 72.2065 20.3935C72.2065 19.5696 72.4727 18.8856 73.0052 18.3415C73.5376 17.7974 74.2236 17.5254 75.063 17.5254ZM81.0934 17.5254C81.4975 17.5254 81.8357 17.5876 82.1077 17.7119L81.8978 18.5689C81.6258 18.4212 81.3071 18.3473 80.9418 18.3473C80.5065 18.3473 80.1509 18.5047 79.875 18.8195C79.599 19.1343 79.4611 19.5502 79.4611 20.0671V23.1567H78.5925V17.6361H79.4552V18.4115C79.6457 18.1278 79.8808 17.9101 80.1606 17.7586C80.4443 17.6031 80.7552 17.5254 81.0934 17.5254ZM85.6871 17.5254C86.5188 17.5254 87.2106 17.7994 87.7625 18.3473C88.3182 18.8953 88.5961 19.5774 88.5961 20.3935C88.5961 21.2135 88.3182 21.8975 87.7625 22.4455C87.2106 22.9935 86.5188 23.2675 85.6871 23.2675C84.8555 23.2675 84.1637 22.9935 83.6118 22.4455C83.06 21.8975 82.784 21.2135 82.784 20.3935C82.784 19.5774 83.06 18.8953 83.6118 18.3473C84.1676 17.7994 84.8593 17.5254 85.6871 17.5254ZM87.1271 18.9245C86.7423 18.5358 86.2623 18.3415 85.6871 18.3415C85.112 18.3415 84.632 18.5358 84.2472 18.9245C83.8625 19.3131 83.6701 19.8028 83.6701 20.3935C83.6701 20.9881 83.8625 21.4798 84.2472 21.8684C84.632 22.257 85.112 22.4514 85.6871 22.4514C86.2623 22.4514 86.7423 22.257 87.1271 21.8684C87.5118 21.4798 87.7042 20.9881 87.7042 20.3935C87.7042 19.8028 87.5118 19.3131 87.1271 18.9245ZM91.0919 14.7621V23.1567H90.2175V14.7621H91.0919ZM95.4524 17.5254C96.2025 17.5254 96.8204 17.7916 97.3062 18.324C97.7959 18.8565 98.0427 19.5405 98.0466 20.376C98.0466 20.4965 98.0407 20.6053 98.0291 20.7025H93.6044C93.6627 21.2777 93.8726 21.7227 94.234 22.0375C94.5955 22.3484 95.0366 22.5038 95.5573 22.5038C96.218 22.5038 96.801 22.2726 97.3062 21.8101L97.7726 22.4047C97.1702 22.9799 96.4143 23.2675 95.5049 23.2675C94.6849 23.2675 94.0145 23.0032 93.4937 22.4747C92.9729 21.9422 92.7125 21.2505 92.7125 20.3993C92.7125 19.5599 92.971 18.872 93.4878 18.3357C94.0047 17.7955 94.6596 17.5254 95.4524 17.5254ZM95.4349 18.3007C94.9375 18.3007 94.5275 18.4562 94.2049 18.7671C93.8823 19.078 93.6861 19.488 93.6161 19.9971H97.1605C97.1061 19.4802 96.9215 19.0683 96.6067 18.7612C96.2958 18.4542 95.9052 18.3007 95.4349 18.3007ZM100.542 17.6361V23.1567H99.6677V17.6361H100.542ZM100.105 15.0595C100.276 15.0595 100.422 15.1197 100.542 15.2402C100.663 15.3568 100.723 15.5025 100.723 15.6774C100.723 15.8523 100.663 15.998 100.542 16.1146C100.426 16.2312 100.28 16.2895 100.105 16.2895C99.9301 16.2895 99.7843 16.2312 99.6677 16.1146C99.5512 15.998 99.4929 15.8523 99.4929 15.6774C99.4929 15.5025 99.5512 15.3568 99.6677 15.2402C99.7843 15.1197 99.9301 15.0595 100.105 15.0595ZM105.305 17.5254C105.989 17.5254 106.543 17.7275 106.966 18.1316C107.394 18.5358 107.608 19.0702 107.608 19.7348V23.1567H106.739V20.0204C106.739 19.4958 106.599 19.0877 106.319 18.7962C106.043 18.5009 105.653 18.3532 105.148 18.3532C104.67 18.3532 104.267 18.5086 103.941 18.8195C103.618 19.1266 103.457 19.5346 103.457 20.0437V23.1567H102.583V17.6361H103.445V18.4231C103.655 18.1122 103.925 17.8849 104.256 17.7411C104.586 17.5973 104.936 17.5254 105.305 17.5254Z" fill="#231F20"/>
<g clip-path="url(#clip1_214_14949)">
<path d="M115.404 26.1567L27.96 26.1567V75.7081H115.404V26.1567Z" fill="white"/>
<path d="M49.1406 36.8442L64.9776 45.9772" stroke="#231F20" stroke-width="0.971596"/>
<path d="M47.7812 39.0791L63.6183 48.2121" stroke="#231F20" stroke-width="0.971596"/>
<path d="M63.6182 64.1462V46.6575" stroke="#231F20" stroke-width="0.971596"/>
<path d="M78.7751 37.9131L63.6182 46.6574" stroke="#231F20" stroke-width="0.971596"/>
<path d="M78.7744 37.9131L84.8955 41.508" stroke="#231F20" stroke-width="0.971596"/>
<path d="M84.8955 41.5081L91.1137 45.0058" stroke="#FF6A00" stroke-width="0.971596"/>
<path d="M78.7744 41.0222L83.6324 43.7427" stroke="#231F20" stroke-width="0.971596"/>
<path d="M83.6318 43.7427L89.7529 47.3376" stroke="#FF6A00" stroke-width="0.971596"/>
<path d="M77.9971 38.3989L78.7743 37.9131L79.0658 38.1074" stroke="#231F20" stroke-width="0.971596"/>
<path d="M63.6182 47.5319V46.6574L64.3954 46.2688" stroke="#231F20" stroke-width="0.971596"/>
<path d="M91.0166 47.8233C91.0166 47.046 91.2109 46.4306 91.5996 45.9772C91.9882 45.5238 92.5388 45.2971 93.2513 45.2971C93.9638 45.2971 94.5143 45.5238 94.903 45.9772C95.3564 46.4306 95.5831 47.046 95.5831 47.8233C95.5831 48.6653 95.3564 49.313 94.903 49.7665C94.5143 50.2199 93.9638 50.4466 93.2513 50.4466C92.5388 50.4466 91.9882 50.2199 91.5996 49.7665C91.2109 49.313 91.0166 48.6653 91.0166 47.8233ZM93.2513 49.8636C93.7695 49.8636 94.1581 49.7017 94.4172 49.3778C94.6763 48.9892 94.8058 48.471 94.8058 47.8233C94.8058 47.1755 94.6763 46.6897 94.4172 46.3659C94.1581 46.042 93.7695 45.8801 93.2513 45.8801C92.7331 45.8801 92.3444 46.042 92.0854 46.3659C91.8263 46.6897 91.6967 47.1755 91.6967 47.8233C91.6967 48.471 91.8263 48.9892 92.0854 49.3778C92.3444 49.7017 92.7331 49.8636 93.2513 49.8636Z" fill="#FF6A00"/>
</g>
<path d="M0.181641 75.7083H26.1284V87.8338H12.3072C5.61043 87.8338 0.181641 82.405 0.181641 75.7083V75.7083Z" fill="white"/>
<rect x="26.1289" y="75.7083" width="91.1064" height="12.1255" fill="white"/>
<path d="M117.234 75.7083H143.181V75.7083C143.181 82.405 137.752 87.8338 131.056 87.8338H117.234V75.7083Z" fill="white"/>
</g>
<rect x="0.93141" y="1.18165" width="141.5" height="84.5005" rx="3.13661" stroke="white" stroke-width="1.49954"/>
<defs>
<clipPath id="clip0_214_14949">
<rect x="0.181641" y="0.431885" width="143" height="86" rx="3.88638" fill="white"/>
</clipPath>
<clipPath id="clip1_214_14949">
<rect width="87.4436" height="49.5514" fill="white" transform="translate(27.96 26.1567)"/>
</clipPath>
</defs>
</svg>
