<svg width="143" height="87" viewBox="0 0 143 87" fill="none" xmlns="http://www.w3.org/2000/svg">
<g clip-path="url(#clip0_214_14289)">
<rect x="0.806641" y="0.431885" width="142" height="86" rx="3.88638" fill="white"/>
<rect width="142" height="15.408" transform="translate(0.806641 12.4283)" fill="white"/>
<path d="M38.272 11.6903L41.624 19.8517H40.6213L39.6944 17.5782H35.6545L34.7335 19.8517H33.7599L37.1119 11.6903H38.272ZM37.6774 12.6172L36.016 16.6921H39.3388L37.6774 12.6172ZM45.2504 14.2203C45.6623 14.2203 46.0451 14.2961 46.3988 14.4477C46.7525 14.5954 47.0517 14.8091 47.2966 15.0889L46.7369 15.6777C46.2978 15.2502 45.7945 15.0365 45.2271 15.0365C44.6713 15.0365 44.2069 15.2308 43.8338 15.6194C43.4646 16.0081 43.28 16.4977 43.28 17.0885C43.28 17.6831 43.4646 18.1747 43.8338 18.5633C44.2069 18.952 44.6713 19.1463 45.2271 19.1463C45.8022 19.1463 46.3114 18.9306 46.7544 18.4992L47.2966 19.0938C47.0478 19.3737 46.7466 19.5894 46.393 19.7409C46.0393 19.8886 45.6584 19.9624 45.2504 19.9624C44.4109 19.9624 43.725 19.6904 43.1925 19.1463C42.6601 18.6022 42.3939 17.9163 42.3939 17.0885C42.3939 16.2646 42.6601 15.5805 43.1925 15.0365C43.725 14.4924 44.4109 14.2203 45.2504 14.2203ZM50.9975 14.2203C51.7476 14.2203 52.3655 14.4865 52.8513 15.019C53.341 15.5514 53.5878 16.2354 53.5917 17.071C53.5917 17.1915 53.5858 17.3003 53.5742 17.3974H49.1495C49.2078 17.9726 49.4177 18.4176 49.7791 18.7324C50.1406 19.0433 50.5817 19.1988 51.1024 19.1988C51.7631 19.1988 52.3461 18.9675 52.8513 18.5051L53.3177 19.0997C52.7153 19.6749 51.9594 19.9624 51.05 19.9624C50.23 19.9624 49.5596 19.6982 49.0388 19.1696C48.518 18.6372 48.2576 17.9454 48.2576 17.0943C48.2576 16.2548 48.5161 15.5669 49.0329 15.0306C49.5498 14.4904 50.2047 14.2203 50.9975 14.2203ZM50.98 14.9956C50.4826 14.9956 50.0726 15.1511 49.75 15.462C49.4274 15.7729 49.2312 16.1829 49.1612 16.6921H52.7056C52.6512 16.1752 52.4666 15.7632 52.1518 15.4562C51.8409 15.1492 51.4503 14.9956 50.98 14.9956ZM58.9043 14.3311V15.1181H56.52V17.9046C56.52 18.3204 56.6191 18.6314 56.8173 18.8373C57.0155 19.0433 57.2818 19.1463 57.616 19.1463C58.0318 19.1463 58.4185 19.0161 58.7761 18.7557L59.1842 19.4145C58.7022 19.7798 58.1562 19.9624 57.546 19.9624C56.9398 19.9624 56.4715 19.7934 56.1411 19.4553C55.8147 19.1133 55.6514 18.6022 55.6514 17.9221V15.1181L54.4447 15.1181V14.3311L55.6514 14.3311V12.5764H56.52V14.3311H58.9043ZM65.6395 14.3311V19.8517H64.7709V19.0297C64.289 19.6515 63.6166 19.9624 62.7539 19.9624C61.9727 19.9624 61.3178 19.6904 60.7893 19.1463C60.2607 18.5983 59.9965 17.9124 59.9965 17.0885C59.9965 16.2646 60.2607 15.5805 60.7893 15.0365C61.3178 14.4924 61.9727 14.2203 62.7539 14.2203C63.6127 14.2203 64.2851 14.5312 64.7709 15.153V14.3311H65.6395ZM62.8588 15.0365C62.2758 15.0365 61.7997 15.2347 61.4305 15.6311C61.0652 16.0236 60.8826 16.5094 60.8826 17.0885C60.8826 17.6675 61.0672 18.1553 61.4364 18.5517C61.8056 18.9481 62.2797 19.1463 62.8588 19.1463C63.4301 19.1463 63.9003 18.952 64.2695 18.5633C64.6388 18.1708 64.8234 17.6792 64.8234 17.0885C64.8234 16.5016 64.6388 16.0139 64.2695 15.6252C63.9003 15.2327 63.4301 15.0365 62.8588 15.0365ZM68.5548 11.4571V19.8517H67.6804V11.4571H68.5548ZM72.9328 14.2203C73.7917 14.2203 74.4641 14.5312 74.9499 15.153V11.4571H75.8185V19.8517H74.9499V19.0297C74.468 19.6515 73.7956 19.9624 72.9328 19.9624C72.1517 19.9624 71.4968 19.6904 70.9683 19.1463C70.4397 18.5983 70.1755 17.9124 70.1755 17.0885C70.1755 16.2646 70.4397 15.5805 70.9683 15.0365C71.4968 14.4924 72.1517 14.2203 72.9328 14.2203ZM73.0378 15.0365C72.4548 15.0365 71.9787 15.2347 71.6095 15.6311C71.2442 16.0236 71.0615 16.5094 71.0615 17.0885C71.0615 17.6675 71.2461 18.1553 71.6154 18.5517C71.9846 18.9481 72.4587 19.1463 73.0378 19.1463C73.6091 19.1463 74.0793 18.952 74.4485 18.5633C74.8177 18.1708 75.0023 17.6792 75.0023 17.0885C75.0023 16.5016 74.8177 16.0139 74.4485 15.6252C74.0793 15.2327 73.6091 15.0365 73.0378 15.0365ZM80.1795 14.2203C80.9296 14.2203 81.5476 14.4865 82.0334 15.019C82.523 15.5514 82.7698 16.2354 82.7737 17.071C82.7737 17.1915 82.7679 17.3003 82.7562 17.3974H78.3316C78.3899 17.9726 78.5997 18.4176 78.9612 18.7324C79.3226 19.0433 79.7637 19.1988 80.2845 19.1988C80.9452 19.1988 81.5281 18.9675 82.0334 18.5051L82.4997 19.0997C81.8973 19.6749 81.1414 19.9624 80.232 19.9624C79.412 19.9624 78.7416 19.6982 78.2208 19.1696C77.7 18.6372 77.4396 17.9454 77.4396 17.0943C77.4396 16.2548 77.6981 15.5669 78.215 15.0306C78.7319 14.4904 79.3867 14.2203 80.1795 14.2203ZM80.1621 14.9956C79.6646 14.9956 79.2546 15.1511 78.932 15.462C78.6095 15.7729 78.4132 16.1829 78.3432 16.6921H81.8876C81.8332 16.1752 81.6486 15.7632 81.3338 15.4562C81.0229 15.1492 80.6323 14.9956 80.1621 14.9956ZM85.2693 11.4571V15.1006C85.4831 14.7974 85.7532 14.5759 86.0796 14.436C86.4061 14.2922 86.752 14.2203 87.1173 14.2203C87.8013 14.2203 88.3551 14.4224 88.7787 14.8266C89.2062 15.2308 89.42 15.7652 89.42 16.4297V19.8517H88.5514V16.7154C88.5514 16.1907 88.4115 15.7826 88.1316 15.4912C87.8557 15.1958 87.4651 15.0481 86.9599 15.0481C86.4819 15.0481 86.0796 15.2036 85.7532 15.5145C85.4306 15.8215 85.2693 16.2296 85.2693 16.7387V19.8517H84.3949V11.4571H85.2693ZM96.2746 14.3311L91.7799 22.2068H90.8181L92.8759 18.6566L90.34 14.3311H91.3136L93.3714 17.7938L95.3185 14.3311H96.2746ZM99.6214 14.2203C100.48 14.2203 101.153 14.5312 101.638 15.153V11.4571H102.507V19.8517H101.638V19.0297C101.156 19.6515 100.484 19.9624 99.6214 19.9624C98.8402 19.9624 98.1853 19.6904 97.6568 19.1463C97.1283 18.5983 96.864 17.9124 96.864 17.0885C96.864 16.2646 97.1283 15.5805 97.6568 15.0365C98.1853 14.4924 98.8402 14.2203 99.6214 14.2203ZM99.7263 15.0365C99.1433 15.0365 98.6673 15.2347 98.2981 15.6311C97.9327 16.0236 97.7501 16.5094 97.7501 17.0885C97.7501 17.6675 97.9347 18.1553 98.3039 18.5517C98.6731 18.9481 99.1472 19.1463 99.7263 19.1463C100.298 19.1463 100.768 18.952 101.137 18.5633C101.506 18.1708 101.691 17.6792 101.691 17.0885C101.691 16.5016 101.506 16.0139 101.137 15.6252C100.768 15.2327 100.298 15.0365 99.7263 15.0365ZM106.868 14.2203C107.618 14.2203 108.236 14.4865 108.722 15.019C109.212 15.5514 109.458 16.2354 109.462 17.071C109.462 17.1915 109.456 17.3003 109.445 17.3974L105.02 17.3974C105.078 17.9726 105.288 18.4176 105.65 18.7324C106.011 19.0433 106.452 19.1988 106.973 19.1988C107.634 19.1988 108.217 18.9675 108.722 18.5051L109.188 19.0997C108.586 19.6749 107.83 19.9624 106.921 19.9624C106.101 19.9624 105.43 19.6982 104.909 19.1696C104.389 18.6372 104.128 17.9454 104.128 17.0943C104.128 16.2548 104.387 15.5669 104.904 15.0306C105.42 14.4904 106.075 14.2203 106.868 14.2203ZM106.851 14.9956C106.353 14.9956 105.943 15.1511 105.621 15.462C105.298 15.7729 105.102 16.1829 105.032 16.6921L108.576 16.6921C108.522 16.1752 108.337 15.7632 108.022 15.4562C107.711 15.1492 107.321 14.9956 106.851 14.9956Z" fill="#231F20"/>
<path d="M0.806641 39.9632C0.806641 33.2658 6.23599 27.8364 12.9334 27.8364H26.7534V39.9632H0.806641V39.9632Z" fill="white"/>
<rect x="26.7539" y="27.8364" width="90.1064" height="12.1268" fill="white"/>
<path d="M116.859 27.8364H130.679C137.377 27.8364 142.806 33.2658 142.806 39.9632V39.9632H116.859V27.8364Z" fill="white"/>
<g clip-path="url(#clip1_214_14289)">
<path d="M100.955 39.9631L42.6592 39.9631V62.3098H100.955V39.9631Z" fill="white"/>
<path d="M55.8721 53.2739L71.029 44.5295" stroke="#231F20" stroke-width="0.971596"/>
<path d="M71.0303 44.5295L77.1513 48.1244" stroke="#231F20" stroke-width="0.971596"/>
<path d="M77.1504 48.1245L83.2714 51.6223" stroke="#FF6A00" stroke-width="0.971596"/>
<path d="M71.0303 47.6388L75.7911 50.3593" stroke="#231F20" stroke-width="0.971596"/>
<path d="M75.79 50.3591L82.0083 53.954" stroke="#FF6A00" stroke-width="0.971596"/>
<path d="M70.2529 45.0153L71.0302 44.5295L71.3217 44.7239" stroke="#231F20" stroke-width="0.971596"/>
<path d="M83.1748 54.44C83.1748 53.6627 83.3691 53.0473 83.7578 52.5939C84.2112 52.1405 84.7941 51.9138 85.5066 51.9138C86.2191 51.9138 86.7697 52.1405 87.1583 52.5939C87.547 53.0473 87.7413 53.6627 87.7413 54.44C87.7413 55.282 87.547 55.9297 87.1583 56.3832C86.7697 56.8366 86.2191 57.0633 85.5066 57.0633C84.7941 57.0633 84.2112 56.8366 83.7578 56.3832C83.3691 55.9297 83.1748 55.282 83.1748 54.44ZM85.5066 56.4803C86.0248 56.4803 86.4135 56.3184 86.6725 55.9945C86.9316 55.6059 87.0612 55.0877 87.0612 54.44C87.0612 53.7922 86.9316 53.3064 86.6725 52.9826C86.4135 52.6587 86.0248 52.4968 85.5066 52.4968C84.9884 52.4968 84.5998 52.6587 84.3407 52.9826C84.0816 53.3064 83.9521 53.7922 83.9521 54.44C83.9521 55.1525 84.0816 55.6707 84.3407 55.9945C84.5998 56.3184 84.9884 56.4803 85.5066 56.4803Z" fill="#FF6A00"/>
</g>
<path d="M0.806641 62.3098H26.7534V74.4353H12.9322C6.23543 74.4353 0.806641 69.0066 0.806641 62.3098V62.3098Z" fill="white"/>
<rect x="26.7539" y="62.3098" width="90.1064" height="12.1255" fill="white"/>
<path d="M116.859 62.3098H142.806V62.3098C142.806 69.0066 137.377 74.4353 130.681 74.4353H116.859V62.3098Z" fill="white"/>
</g>
<rect x="1.55641" y="1.18165" width="140.5" height="84.5005" rx="3.13661" stroke="white" stroke-width="1.49954"/>
<defs>
<clipPath id="clip0_214_14289">
<rect x="0.806641" y="0.431885" width="142" height="86" rx="3.88638" fill="white"/>
</clipPath>
<clipPath id="clip1_214_14289">
<rect width="58.2957" height="22.3467" fill="white" transform="translate(42.6592 39.9631)"/>
</clipPath>
</defs>
</svg>
