<svg width="145" height="87" viewBox="0 0 145 87" fill="none" xmlns="http://www.w3.org/2000/svg">
<g clip-path="url(#clip0_214_14625)">
<rect x="0.181641" y="0.431885" width="144" height="86" rx="3.88638" fill="white"/>
<path d="M0.181641 12.5587C0.181641 5.86123 5.61099 0.431885 12.3084 0.431885L26.1284 0.431885V12.5587H0.181641V12.5587Z" fill="white"/>
<rect x="26.1289" y="0.431885" width="92.1064" height="12.1268" fill="white"/>
<path d="M118.234 0.431885L132.054 0.431885C138.752 0.431885 144.181 5.86123 144.181 12.5587V12.5587H118.234V0.431885Z" fill="white"/>
<rect width="144" height="15" transform="translate(0.181641 12.5587)" fill="white"/>
<path d="M54.1018 16.2807C54.9024 16.2807 55.6233 16.4595 56.2646 16.817C56.9058 17.1707 57.4072 17.6682 57.7686 18.3094C58.1339 18.9507 58.3166 19.6735 58.3166 20.478C58.3166 21.2825 58.1339 22.0054 57.7686 22.6466C57.4072 23.2879 56.9058 23.7873 56.2646 24.1448C55.6233 24.4985 54.9024 24.6753 54.1018 24.6753C53.5033 24.6753 52.9437 24.5704 52.4229 24.3605C51.9021 24.1506 51.4552 23.8631 51.0821 23.4977C50.7129 23.1285 50.4214 22.6835 50.2076 22.1628C49.9939 21.642 49.887 21.0804 49.887 20.478C49.887 19.8756 49.9939 19.314 50.2076 18.7933C50.4214 18.2725 50.7129 17.8294 51.0821 17.4641C51.4552 17.0949 51.9021 16.8054 52.4229 16.5955C52.9437 16.3857 53.5033 16.2807 54.1018 16.2807ZM54.1018 17.1843C53.6471 17.1843 53.2215 17.2659 52.8251 17.4291C52.4287 17.5885 52.0867 17.81 51.7991 18.0937C51.5115 18.3774 51.2842 18.7253 51.1171 19.1372C50.9538 19.5492 50.8722 19.9961 50.8722 20.478C50.8722 20.9599 50.9538 21.4069 51.1171 21.8188C51.2842 22.2308 51.5115 22.5786 51.7991 22.8623C52.0867 23.146 52.4287 23.3695 52.8251 23.5327C53.2215 23.6921 53.6471 23.7717 54.1018 23.7717C54.712 23.7717 55.2619 23.6357 55.7516 23.3637C56.2413 23.0916 56.628 22.703 56.9117 22.1977C57.1954 21.6925 57.3372 21.1193 57.3372 20.478C57.3372 19.8368 57.1954 19.2635 56.9117 18.7583C56.628 18.2531 56.2413 17.8644 55.7516 17.5924C55.2619 17.3203 54.712 17.1843 54.1018 17.1843ZM62.5101 18.9273C62.9221 18.9273 63.3049 19.0031 63.6586 19.1547C64.0122 19.3024 64.3115 19.5161 64.5563 19.796L63.9967 20.3847C63.5575 19.9572 63.0542 19.7435 62.4868 19.7435C61.9311 19.7435 61.4667 19.9378 61.0936 20.3264C60.7244 20.7151 60.5397 21.2048 60.5397 21.7955C60.5397 22.3901 60.7244 22.8817 61.0936 23.2704C61.4667 23.659 61.9311 23.8533 62.4868 23.8533C63.062 23.8533 63.5711 23.6376 64.0142 23.2063L64.5563 23.8009C64.3076 24.0807 64.0064 24.2964 63.6527 24.448C63.2991 24.5956 62.9182 24.6695 62.5101 24.6695C61.6707 24.6695 60.9847 24.3974 60.4523 23.8533C59.9199 23.3092 59.6537 22.6233 59.6537 21.7955C59.6537 20.9716 59.9199 20.2876 60.4523 19.7435C60.9847 19.1994 61.6707 18.9273 62.5101 18.9273ZM69.8677 19.0381V19.8251H67.4834V22.6116C67.4834 23.0275 67.5825 23.3384 67.7807 23.5444C67.9789 23.7503 68.2451 23.8533 68.5794 23.8533C68.9952 23.8533 69.3819 23.7231 69.7395 23.4628L70.1475 24.1215C69.6656 24.4868 69.1196 24.6695 68.5094 24.6695C67.9031 24.6695 67.4348 24.5004 67.1045 24.1623C66.778 23.8203 66.6148 23.3092 66.6148 22.6291V19.8251H65.4081V19.0381H66.6148V17.2834H67.4834V19.0381H69.8677ZM76.6029 19.0381V24.5587H75.7343V23.7367C75.2524 24.3586 74.58 24.6695 73.7172 24.6695C72.9361 24.6695 72.2812 24.3974 71.7527 23.8533C71.2241 23.3054 70.9598 22.6194 70.9598 21.7955C70.9598 20.9716 71.2241 20.2876 71.7527 19.7435C72.2812 19.1994 72.9361 18.9273 73.7172 18.9273C74.5761 18.9273 75.2485 19.2383 75.7343 19.8601V19.0381H76.6029ZM73.8222 19.7435C73.2392 19.7435 72.7631 19.9417 72.3939 20.3381C72.0286 20.7306 71.8459 21.2164 71.8459 21.7955C71.8459 22.3746 72.0305 22.8623 72.3997 23.2587C72.769 23.6551 73.2431 23.8533 73.8222 23.8533C74.3935 23.8533 74.8637 23.659 75.2329 23.2704C75.6021 22.8779 75.7867 22.3862 75.7867 21.7955C75.7867 21.2087 75.6021 20.7209 75.2329 20.3323C74.8637 19.9397 74.3935 19.7435 73.8222 19.7435ZM81.3662 18.9273C82.0502 18.9273 82.604 19.1294 83.0276 19.5336C83.4551 19.9378 83.6689 20.4722 83.6689 21.1368V24.5587H82.8003V21.4224C82.8003 20.8977 82.6603 20.4897 82.3805 20.1982C82.1046 19.9028 81.714 19.7551 81.2088 19.7551C80.7308 19.7551 80.3285 19.9106 80.0021 20.2215C79.6795 20.5285 79.5182 20.9366 79.5182 21.4457V24.5587H78.6438V19.0381H79.5065V19.8251C79.7164 19.5142 79.9865 19.2868 80.3169 19.143C80.6472 18.9992 80.997 18.9273 81.3662 18.9273ZM90.8694 19.0381V24.5587H90.0008V23.7367C89.5189 24.3586 88.8465 24.6695 87.9838 24.6695C87.2026 24.6695 86.5477 24.3974 86.0192 23.8533C85.4906 23.3054 85.2264 22.6194 85.2264 21.7955C85.2264 20.9716 85.4906 20.2876 86.0192 19.7435C86.5477 19.1994 87.2026 18.9273 87.9838 18.9273C88.8426 18.9273 89.515 19.2383 90.0008 19.8601V19.0381H90.8694ZM88.0887 19.7435C87.5057 19.7435 87.0296 19.9417 86.6604 20.3381C86.2951 20.7306 86.1125 21.2164 86.1125 21.7955C86.1125 22.3746 86.2971 22.8623 86.6663 23.2587C87.0355 23.6551 87.5096 23.8533 88.0887 23.8533C88.66 23.8533 89.1302 23.659 89.4994 23.2704C89.8686 22.8779 90.0533 22.3862 90.0533 21.7955C90.0533 21.2087 89.8686 20.7209 89.4994 20.3323C89.1302 19.9397 88.66 19.7435 88.0887 19.7435ZM93.7847 16.1641V24.5587H92.9103V16.1641H93.7847Z" fill="#231F20"/>
<path d="M0.181641 27.5587H26.1284V39.6842H12.3072C5.61043 39.6842 0.181641 34.2555 0.181641 27.5587V27.5587Z" fill="white"/>
<rect x="26.1289" y="27.5587" width="92.1064" height="12.1255" fill="white"/>
<path d="M118.234 27.5587L144.181 27.5587V27.5587C144.181 34.2555 138.752 39.6842 132.056 39.6842H118.234V27.5587Z" fill="white"/>
<g clip-path="url(#clip1_214_14625)">
<path d="M184.401 39.6842L-40.0381 39.6842V62.0309L184.401 62.0309V39.6842Z" fill="white"/>
<path d="M10.3877 52.995L25.5446 44.2506" stroke="#231F20" stroke-width="0.971596"/>
<path d="M25.5449 44.2506L40.6047 52.995" stroke="#231F20" stroke-width="0.971596"/>
<path d="M40.6045 52.995L55.7614 44.2506" stroke="#231F20" stroke-width="0.971596"/>
<path d="M55.7607 44.2506L70.9176 52.995" stroke="#231F20" stroke-width="0.971596"/>
<path d="M70.918 52.995L86.0749 44.2506" stroke="#231F20" stroke-width="0.971596"/>
<path d="M86.0752 44.2506L101.232 52.995" stroke="#231F20" stroke-width="0.971596"/>
<path d="M101.232 52.995L116.389 44.2506" stroke="#231F20" stroke-width="0.971596"/>
<path d="M116.389 44.2506L122.51 47.8455" stroke="#231F20" stroke-width="0.971596"/>
<path d="M122.51 47.8456L128.631 51.3433" stroke="#FF6A00" stroke-width="0.971596"/>
<path d="M116.389 47.3599L121.247 50.0803" stroke="#231F20" stroke-width="0.971596"/>
<path d="M121.247 50.0802L127.368 53.6751" stroke="#FF6A00" stroke-width="0.971596"/>
<path d="M24.7676 44.7364L25.5449 44.2506L26.225 44.7364" stroke="#231F20" stroke-width="0.971596"/>
<path d="M39.9238 52.6064L40.6039 52.9951L41.3812 52.6064" stroke="#231F20" stroke-width="0.971596"/>
<path d="M54.9834 44.7364L55.7607 44.2506L56.538 44.7364" stroke="#231F20" stroke-width="0.971596"/>
<path d="M70.1416 52.6064L70.9189 52.9951L71.6962 52.6064" stroke="#231F20" stroke-width="0.971596"/>
<path d="M85.2979 44.7364L86.0751 44.2506L86.8524 44.7364" stroke="#231F20" stroke-width="0.971596"/>
<path d="M100.454 52.6064L101.231 52.9951L102.009 52.6064" stroke="#231F20" stroke-width="0.971596"/>
<path d="M115.611 44.7364L116.389 44.2506L116.68 44.4449" stroke="#231F20" stroke-width="0.971596"/>
<path d="M128.631 54.161C128.631 53.3838 128.825 52.7684 129.214 52.315C129.602 51.8616 130.153 51.6349 130.866 51.6349C131.578 51.6349 132.129 51.8616 132.517 52.315C132.906 52.7684 133.1 53.3838 133.1 54.161C133.1 55.0031 132.906 55.6508 132.517 56.1042C132.129 56.5576 131.578 56.7843 130.866 56.7843C130.153 56.7843 129.602 56.5576 129.214 56.1042C128.825 55.6508 128.631 55.0031 128.631 54.161ZM130.866 56.2014C131.384 56.2014 131.772 56.0395 132.031 55.7156C132.291 55.327 132.42 54.8088 132.42 54.161C132.42 53.5133 132.291 53.0275 132.031 52.7036C131.772 52.3798 131.384 52.2178 130.866 52.2178C130.347 52.2178 129.959 52.3798 129.7 52.7036C129.441 53.0275 129.311 53.5133 129.311 54.161C129.311 54.8735 129.441 55.3917 129.7 55.7156C129.959 56.0395 130.347 56.2014 130.866 56.2014Z" fill="#FF6A00"/>
</g>
</g>
<rect x="0.93141" y="1.18165" width="142.5" height="84.5005" rx="3.13661" stroke="white" stroke-width="1.49954"/>
<defs>
<clipPath id="clip0_214_14625">
<rect x="0.181641" y="0.431885" width="144" height="86" rx="3.88638" fill="white"/>
</clipPath>
<clipPath id="clip1_214_14625">
<rect width="224.439" height="22.3467" fill="white" transform="translate(-40.0381 39.6842)"/>
</clipPath>
</defs>
</svg>
