<svg width="145" height="87" viewBox="0 0 145 87" fill="none" xmlns="http://www.w3.org/2000/svg">
<g clip-path="url(#clip0_214_14529)">
<rect x="0.870117" y="0.431885" width="144" height="86" rx="3.88638" fill="white"/>
<path d="M0.870117 3.38411C0.870117 -3.31333 6.29946 -8.74268 12.9969 -8.74268H26.8169V3.38411L0.870117 3.38411V3.38411Z" fill="white"/>
<rect x="26.8174" y="-8.74268" width="92.1064" height="12.1268" fill="white"/>
<path d="M118.923 -8.74268L132.743 -8.74268C139.44 -8.74268 144.87 -3.31333 144.87 3.38411V3.38411L118.923 3.38411V-8.74268Z" fill="white"/>
<rect width="144" height="15" transform="translate(0.870117 3.38403)" fill="white"/>
<path d="M23.2024 7.22263V8.10872H20.3692V15.384H19.4365V8.10872H16.6033V7.22263H23.2024ZM25.8133 9.75266C26.5634 9.75266 27.1813 10.0189 27.6671 10.5513C28.1568 11.0837 28.4036 11.7678 28.4075 12.6033C28.4075 12.7238 28.4016 12.8326 28.39 12.9298L23.9653 12.9298C24.0236 13.505 24.2335 13.95 24.5949 14.2648C24.9564 14.5757 25.3975 14.7311 25.9182 14.7311C26.5789 14.7311 27.1619 14.4999 27.6671 14.0374L28.1335 14.632C27.5311 15.2072 26.7752 15.4948 25.8658 15.4948C25.0457 15.4948 24.3753 15.2305 23.8546 14.702C23.3338 14.1695 23.0734 13.4778 23.0734 12.6266C23.0734 11.7872 23.3318 11.0993 23.8487 10.563C24.3656 10.0228 25.0205 9.75266 25.8133 9.75266ZM25.7958 10.528C25.2984 10.528 24.8883 10.6835 24.5658 10.9944C24.2432 11.3053 24.0469 11.7153 23.977 12.2244L27.5214 12.2244C27.467 11.7075 27.2824 11.2956 26.9676 10.9885C26.6566 10.6815 26.2661 10.528 25.7958 10.528ZM33.7201 9.86343V10.6504H31.3358V13.437C31.3358 13.8528 31.4349 14.1637 31.6331 14.3697C31.8313 14.5757 32.0976 14.6787 32.4318 14.6787C32.8476 14.6787 33.2343 14.5485 33.5919 14.2881L33.9999 14.9468C33.518 15.3121 32.972 15.4948 32.3618 15.4948C31.7556 15.4948 31.2872 15.3257 30.9569 14.9876C30.6304 14.6456 30.4672 14.1346 30.4672 13.4544V10.6504H29.2605V9.86343H30.4672V8.10872L31.3358 8.10872V9.86343H33.7201ZM37.7556 9.75266C38.1598 9.75266 38.4979 9.81485 38.77 9.93921L38.5601 10.7962C38.2881 10.6485 37.9694 10.5746 37.6041 10.5746C37.1688 10.5746 36.8132 10.732 36.5373 11.0468C36.2613 11.3616 36.1234 11.7775 36.1234 12.2944V15.384H35.2548V9.86343H36.1175V10.6388C36.308 10.3551 36.5431 10.1374 36.8229 9.98585C37.1066 9.83039 37.4175 9.75266 37.7556 9.75266ZM45.0893 9.86343V15.384H44.2207V14.5621C43.7388 15.1839 43.0665 15.4948 42.2037 15.4948C41.4225 15.4948 40.7677 15.2227 40.2391 14.6787C39.7106 14.1307 39.4463 13.4447 39.4463 12.6208C39.4463 11.7969 39.7106 11.1129 40.2391 10.5688C40.7677 10.0247 41.4225 9.75266 42.2037 9.75266C43.0626 9.75266 43.7349 10.0636 44.2207 10.6854V9.86343H45.0893ZM42.3086 10.5688C41.7257 10.5688 41.2496 10.767 40.8804 11.1634C40.5151 11.5559 40.3324 12.0417 40.3324 12.6208C40.3324 13.1999 40.517 13.6876 40.8862 14.084C41.2554 14.4804 41.7296 14.6787 42.3086 14.6787C42.8799 14.6787 43.3502 14.4843 43.7194 14.0957C44.0886 13.7032 44.2732 13.2115 44.2732 12.6208C44.2732 12.034 44.0886 11.5462 43.7194 11.1576C43.3502 10.7651 42.8799 10.5688 42.3086 10.5688ZM49.567 9.75266C49.979 9.75266 50.3618 9.82845 50.7154 9.98002C51.0691 10.1277 51.3683 10.3415 51.6132 10.6213L51.0535 11.2101C50.6144 10.7826 50.1111 10.5688 49.5437 10.5688C48.9879 10.5688 48.5235 10.7631 48.1504 11.1518C47.7812 11.5404 47.5966 12.0301 47.5966 12.6208C47.5966 13.2154 47.7812 13.7071 48.1504 14.0957C48.5235 14.4843 48.9879 14.6787 49.5437 14.6787C50.1189 14.6787 50.628 14.463 51.071 14.0316L51.6132 14.6262C51.3645 14.906 51.0633 15.1217 50.7096 15.2733C50.3559 15.421 49.9751 15.4948 49.567 15.4948C48.7275 15.4948 48.0416 15.2227 47.5092 14.6787C46.9767 14.1346 46.7105 13.4486 46.7105 12.6208C46.7105 11.7969 46.9767 11.1129 47.5092 10.5688C48.0416 10.0247 48.7275 9.75266 49.567 9.75266ZM53.9709 6.98944V10.6329C54.1846 10.3298 54.4547 10.1083 54.7812 9.96836C55.1076 9.82456 55.4535 9.75266 55.8189 9.75266C56.5029 9.75266 57.0567 9.95476 57.4803 10.3589C57.9078 10.7631 58.1215 11.2975 58.1215 11.9621V15.384H57.2529V12.2477C57.2529 11.7231 57.113 11.315 56.8332 11.0235C56.5573 10.7281 56.1667 10.5805 55.6615 10.5805C55.1834 10.5805 54.7812 10.7359 54.4547 11.0468C54.1322 11.3539 53.9709 11.7619 53.9709 12.271V15.384H53.0964V6.98944H53.9709ZM60.9732 6.98944V15.384H60.0988V6.98944H60.9732ZM65.497 9.75266C66.3286 9.75266 67.0204 10.0267 67.5723 10.5746C68.128 11.1226 68.4059 11.8047 68.4059 12.6208C68.4059 13.4408 68.128 14.1248 67.5723 14.6728C67.0204 15.2208 66.3286 15.4948 65.497 15.4948C64.6653 15.4948 63.9735 15.2208 63.4216 14.6728C62.8698 14.1248 62.5938 13.4408 62.5938 12.6208C62.5938 11.8047 62.8698 11.1226 63.4216 10.5746C63.9774 10.0267 64.6692 9.75266 65.497 9.75266ZM66.9369 11.1518C66.5521 10.7631 66.0721 10.5688 65.497 10.5688C64.9218 10.5688 64.4418 10.7631 64.057 11.1518C63.6723 11.5404 63.4799 12.0301 63.4799 12.6208C63.4799 13.2154 63.6723 13.7071 64.057 14.0957C64.4418 14.4843 64.9218 14.6787 65.497 14.6787C66.0721 14.6787 66.5521 14.4843 66.9369 14.0957C67.3216 13.7071 67.514 13.2154 67.514 12.6208C67.514 12.0301 67.3216 11.5404 66.9369 11.1518ZM72.5282 9.75266C72.9323 9.75266 73.2705 9.81485 73.5425 9.93921L73.3326 10.7962C73.0606 10.6485 72.7419 10.5746 72.3766 10.5746C71.9413 10.5746 71.5857 10.732 71.3098 11.0468C71.0338 11.3616 70.8959 11.7775 70.8959 12.2944V15.384H70.0273V9.86343H70.89V10.6388C71.0805 10.3551 71.3156 10.1374 71.5954 9.98585C71.8791 9.83039 72.19 9.75266 72.5282 9.75266ZM77.1219 9.75266C77.9536 9.75266 78.6454 10.0267 79.1973 10.5746C79.753 11.1226 80.0309 11.8047 80.0309 12.6208C80.0309 13.4408 79.753 14.1248 79.1973 14.6728C78.6454 15.2208 77.9536 15.4948 77.1219 15.4948C76.2903 15.4948 75.5985 15.2208 75.0466 14.6728C74.4947 14.1248 74.2188 13.4408 74.2188 12.6208C74.2188 11.8047 74.4947 11.1226 75.0466 10.5746C75.6024 10.0267 76.2941 9.75266 77.1219 9.75266ZM78.5619 11.1518C78.1771 10.7631 77.6971 10.5688 77.1219 10.5688C76.5468 10.5688 76.0668 10.7631 75.682 11.1518C75.2973 11.5404 75.1049 12.0301 75.1049 12.6208C75.1049 13.2154 75.2973 13.7071 75.682 14.0957C76.0668 14.4843 76.5468 14.6787 77.1219 14.6787C77.6971 14.6787 78.1771 14.4843 78.5619 14.0957C78.9466 13.7071 79.139 13.2154 79.139 12.6208C79.139 12.0301 78.9466 11.5404 78.5619 11.1518ZM83.9724 9.75266C84.7225 9.75266 85.3404 10.0189 85.8262 10.5513C86.3159 11.0837 86.5627 11.7678 86.5666 12.6033C86.5666 12.7238 86.5608 12.8326 86.5491 12.9298L82.1245 12.9298C82.1827 13.505 82.3926 13.95 82.754 14.2648C83.1155 14.5757 83.5566 14.7311 84.0774 14.7311C84.738 14.7311 85.321 14.4999 85.8262 14.0374L86.2926 14.632C85.6902 15.2072 84.9343 15.4948 84.0249 15.4948C83.2049 15.4948 82.5345 15.2305 82.0137 14.702C81.4929 14.1695 81.2325 13.4778 81.2325 12.6266C81.2325 11.7872 81.491 11.0993 82.0079 10.563C82.5247 10.0228 83.1796 9.75266 83.9724 9.75266ZM83.9549 10.528C83.4575 10.528 83.0475 10.6835 82.7249 10.9944C82.4023 11.3053 82.2061 11.7153 82.1361 12.2244L85.6805 12.2244C85.6261 11.7075 85.4415 11.2956 85.1267 10.9885C84.8158 10.6815 84.4252 10.528 83.9549 10.528ZM91.8792 9.86343V10.6504H89.4949V13.437C89.4949 13.8528 89.594 14.1637 89.7923 14.3697C89.9905 14.5757 90.2567 14.6787 90.5909 14.6787C91.0067 14.6787 91.3934 14.5485 91.751 14.2881L92.1591 14.9468C91.6772 15.3121 91.1311 15.4948 90.521 15.4948C89.9147 15.4948 89.4464 15.3257 89.116 14.9876C88.7896 14.6456 88.6263 14.1346 88.6263 13.4544V10.6504H87.4196V9.86343H88.6263V8.10872H89.4949V9.86343H91.8792ZM94.2883 6.98944V10.6329C94.5021 10.3298 94.7722 10.1083 95.0986 9.96836C95.4251 9.82456 95.771 9.75266 96.1363 9.75266C96.8203 9.75266 97.3741 9.95476 97.7977 10.3589C98.2252 10.7631 98.439 11.2975 98.439 11.9621V15.384H97.5704V12.2477C97.5704 11.7231 97.4305 11.315 97.1506 11.0235C96.8747 10.7281 96.4841 10.5805 95.9789 10.5805C95.5009 10.5805 95.0986 10.7359 94.7722 11.0468C94.4496 11.3539 94.2883 11.7619 94.2883 12.271V15.384H93.4139V6.98944H94.2883ZM105.294 9.86343L100.799 17.7392H99.8371L101.895 14.189L99.359 9.86343H100.333L102.39 13.3262L104.338 9.86343H105.294ZM107.28 6.98944V15.384H106.405V6.98944H107.28ZM111.64 9.75266C112.39 9.75266 113.008 10.0189 113.494 10.5513C113.984 11.0837 114.23 11.7678 114.234 12.6033C114.234 12.7238 114.228 12.8326 114.217 12.9298H109.792C109.85 13.505 110.06 13.95 110.422 14.2648C110.783 14.5757 111.224 14.7311 111.745 14.7311C112.406 14.7311 112.989 14.4999 113.494 14.0374L113.96 14.632C113.358 15.2072 112.602 15.4948 111.693 15.4948C110.873 15.4948 110.202 15.2305 109.681 14.702C109.161 14.1695 108.9 13.4778 108.9 12.6266C108.9 11.7872 109.159 11.0993 109.676 10.563C110.192 10.0228 110.847 9.75266 111.64 9.75266ZM111.623 10.528C111.125 10.528 110.715 10.6835 110.393 10.9944C110.07 11.3053 109.874 11.7153 109.804 12.2244H113.348C113.294 11.7075 113.109 11.2956 112.794 10.9885C112.483 10.6815 112.093 10.528 111.623 10.528ZM118.578 9.75266C119.262 9.75266 119.816 9.95476 120.239 10.3589C120.667 10.7631 120.881 11.2975 120.881 11.9621V15.384H120.012V12.2477C120.012 11.7231 119.872 11.315 119.592 11.0235C119.316 10.7281 118.926 10.5805 118.42 10.5805C117.942 10.5805 117.54 10.7359 117.214 11.0468C116.891 11.3539 116.73 11.7619 116.73 12.271V15.384H115.855V9.86343H116.718V10.6504C116.928 10.3395 117.198 10.1122 117.529 9.96836C117.859 9.82456 118.209 9.75266 118.578 9.75266ZM125.178 9.75266C125.928 9.75266 126.546 10.0189 127.032 10.5513C127.521 11.0837 127.768 11.7678 127.772 12.6033C127.772 12.7238 127.766 12.8326 127.755 12.9298H123.33C123.388 13.505 123.598 13.95 123.96 14.2648C124.321 14.5757 124.762 14.7311 125.283 14.7311C125.944 14.7311 126.527 14.4999 127.032 14.0374L127.498 14.632C126.896 15.2072 126.14 15.4948 125.23 15.4948C124.41 15.4948 123.74 15.2305 123.219 14.702C122.698 14.1695 122.438 13.4778 122.438 12.6266C122.438 11.7872 122.697 11.0993 123.213 10.563C123.73 10.0228 124.385 9.75266 125.178 9.75266ZM125.16 10.528C124.663 10.528 124.253 10.6835 123.93 10.9944C123.608 11.3053 123.412 11.7153 123.342 12.2244H126.886C126.832 11.7075 126.647 11.2956 126.332 10.9885C126.021 10.6815 125.631 10.528 125.16 10.528Z" fill="#231F20"/>
<g clip-path="url(#clip1_214_14529)">
<path d="M111.734 18.384L34.0059 18.384V83.481H111.734V18.384Z" fill="white"/>
<path d="M64.9023 50.7383H82.3911" stroke="#231F20" stroke-width="0.971596"/>
<path d="M66.458 48.1149H80.9348" stroke="#231F20" stroke-width="0.971596"/>
<path d="M64.902 50.7382L61.0156 43.937" stroke="#231F20" stroke-width="0.971596"/>
<path d="M61.0167 43.937L57.0332 37.1359" stroke="#216C21" stroke-width="0.971596"/>
<path d="M64.902 50.7383L61.0156 57.5395" stroke="#231F20" stroke-width="0.971596"/>
<path d="M61.0167 57.5394L57.0332 64.3406" stroke="#216C21" stroke-width="0.971596"/>
<path d="M82.3916 50.7383L85.8893 56.8593" stroke="#231F20" stroke-width="0.971596"/>
<path d="M85.8896 56.8593L89.4846 62.9803" stroke="#216C21" stroke-width="0.971596"/>
<path d="M82.3916 50.7381L85.7922 44.8114" stroke="#231F20" stroke-width="0.971596"/>
<path d="M85.792 44.8114L89.2897 38.8846" stroke="#216C21" stroke-width="0.971596"/>
<path d="M51.4941 35.7757C51.4941 34.9336 51.6885 34.3183 52.0771 33.9296C52.4657 33.4762 53.0487 33.2495 53.826 33.2495C54.4737 33.2495 54.9919 33.4762 55.3805 33.9296L54.8947 34.3183C54.6356 33.9944 54.2794 33.8325 53.826 33.8325C53.3078 33.8325 52.9191 33.9944 52.6601 34.3183C52.401 34.6421 52.2714 35.1279 52.2714 35.7757C52.2714 36.4234 52.401 36.9092 52.6601 37.2331C52.9191 37.6217 53.3078 37.816 53.826 37.816C54.2146 37.816 54.6356 37.6865 55.089 37.4274L55.2834 38.0103C55.089 38.0751 54.8623 38.1399 54.6032 38.2046C54.3442 38.2694 54.0527 38.3018 53.7288 38.3018C53.0163 38.3018 52.4657 38.0751 52.0771 37.6217C51.6885 37.2331 51.4941 36.6177 51.4941 35.7757Z" fill="#216C21"/>
<path d="M55.8672 32.958H56.4501V38.3018H55.8672V32.958Z" fill="#216C21"/>
<path d="M51.4941 66.0894C51.4941 65.2473 51.6885 64.632 52.0771 64.2434C52.4657 63.7899 53.0487 63.5632 53.826 63.5632C54.4737 63.5632 54.9919 63.7899 55.3805 64.2434L54.8947 64.632C54.6356 64.3081 54.2794 64.1462 53.826 64.1462C53.3078 64.1462 52.9191 64.3081 52.6601 64.632C52.401 64.9559 52.2714 65.4416 52.2714 66.0894C52.2714 66.7371 52.401 67.2229 52.6601 67.5468C52.9191 67.8706 53.3078 68.0326 53.826 68.0326C54.2146 68.0326 54.6356 67.9354 55.089 67.7411L55.2834 68.2269C55.089 68.3564 54.8623 68.4536 54.6032 68.5184C54.3442 68.5831 54.0527 68.6155 53.7288 68.6155C53.0163 68.6155 52.4657 68.3888 52.0771 67.9354C51.6885 67.482 51.4941 66.8667 51.4941 66.0894Z" fill="#216C21"/>
<path d="M55.8672 63.2717H56.4501V68.5183H55.8672V63.2717Z" fill="#216C21"/>
<path d="M89.29 66.0894C89.29 65.2473 89.452 64.632 89.7758 64.2434C90.1645 63.7899 90.7474 63.5632 91.5247 63.5632C92.1724 63.5632 92.6906 63.7899 93.0793 64.2434L92.5935 64.632C92.3344 64.3081 91.9781 64.1462 91.5247 64.1462C91.0065 64.1462 90.6179 64.3081 90.3588 64.632C90.0997 64.9559 89.9702 65.4416 89.9702 66.0894C89.9702 66.7371 90.0997 67.2229 90.3588 67.5468C90.6179 67.8706 91.0065 68.0326 91.5247 68.0326C91.9133 68.0326 92.3344 67.9354 92.7878 67.7411L92.9821 68.2269C92.7878 68.3564 92.5611 68.4536 92.302 68.5184C92.0429 68.5831 91.7514 68.6155 91.4275 68.6155C90.715 68.6155 90.1645 68.3888 89.7758 67.9354C89.452 67.482 89.29 66.8667 89.29 66.0894Z" fill="#216C21"/>
<path d="M93.5645 63.2717H94.2446V68.5183H93.5645V63.2717Z" fill="#216C21"/>
<path d="M89.29 35.7757C89.29 34.9336 89.452 34.3183 89.7758 33.9296C90.1645 33.4762 90.7474 33.2495 91.5247 33.2495C92.1724 33.2495 92.6906 33.4762 93.0793 33.9296L92.5935 34.3183C92.3344 33.9944 91.9781 33.8325 91.5247 33.8325C91.0065 33.8325 90.6179 33.9944 90.3588 34.3183C90.0997 34.6421 89.9702 35.1279 89.9702 35.7757C89.9702 36.4234 90.0997 36.9092 90.3588 37.2331C90.6179 37.6217 91.0065 37.816 91.5247 37.816C91.9133 37.816 92.3344 37.6865 92.7878 37.4274L92.9821 38.0103C92.7878 38.0751 92.5611 38.1399 92.302 38.2046C92.0429 38.2694 91.7514 38.3018 91.4275 38.3018C90.715 38.3018 90.1645 38.0751 89.7758 37.6217C89.452 37.2331 89.29 36.6177 89.29 35.7757Z" fill="#216C21"/>
<path d="M93.5645 32.958H94.2446V38.3018H93.5645V32.958Z" fill="#216C21"/>
</g>
<path d="M0.870117 83.481H26.8169V95.6065H12.9956C6.2989 95.6065 0.870117 90.1777 0.870117 83.481V83.481Z" fill="white"/>
<rect x="26.8174" y="83.481" width="92.1064" height="12.1255" fill="white"/>
<path d="M118.923 83.481H144.87V83.481C144.87 90.1777 139.441 95.6065 132.744 95.6065H118.923V83.481Z" fill="white"/>
</g>
<rect x="1.61989" y="1.18165" width="142.5" height="84.5005" rx="3.13661" stroke="white" stroke-width="1.49954"/>
<defs>
<clipPath id="clip0_214_14529">
<rect x="0.870117" y="0.431885" width="144" height="86" rx="3.88638" fill="white"/>
</clipPath>
<clipPath id="clip1_214_14529">
<rect width="77.7277" height="65.0969" fill="white" transform="translate(34.0059 18.384)"/>
</clipPath>
</defs>
</svg>
