<svg width="145" height="87" viewBox="0 0 145 87" fill="none" xmlns="http://www.w3.org/2000/svg">
<g clip-path="url(#clip0_214_14325)">
<rect x="0.870117" y="0.431885" width="144" height="86" rx="3.88638" fill="white"/>
<rect width="144" height="17" transform="translate(0.870117 19.3097)" fill="white"/>
<path d="M52.2024 24.1483V25.0344H49.3692V32.3097H48.4365V25.0344H45.6033V24.1483H52.2024ZM55.1876 26.6783C55.5918 26.6783 55.9299 26.7405 56.2019 26.8649L55.9921 27.7218C55.72 27.5741 55.4013 27.5003 55.036 27.5003C54.6007 27.5003 54.2451 27.6577 53.9692 27.9725C53.6933 28.2873 53.5553 28.7031 53.5553 29.22V32.3097H52.6867V26.7891H53.5495V27.5644C53.7399 27.2807 53.975 27.0631 54.2548 26.9115C54.5386 26.756 54.8495 26.6783 55.1876 26.6783ZM58.4001 26.7891V32.3097H57.5257V26.7891H58.4001ZM57.9629 24.2124C58.1339 24.2124 58.2797 24.2727 58.4001 24.3931C58.5206 24.5097 58.5808 24.6555 58.5808 24.8303C58.5808 25.0052 58.5206 25.151 58.4001 25.2676C58.2835 25.3842 58.1378 25.4425 57.9629 25.4425C57.788 25.4425 57.6423 25.3842 57.5257 25.2676C57.4091 25.151 57.3508 25.0052 57.3508 24.8303C57.3508 24.6555 57.4091 24.5097 57.5257 24.3931C57.6423 24.2727 57.788 24.2124 57.9629 24.2124ZM62.7781 26.6783C63.637 26.6783 64.3094 26.9892 64.7952 27.6111V23.9151H65.6638V32.3097H64.7952V31.4877C64.3133 32.1095 63.6409 32.4205 62.7781 32.4205C61.997 32.4205 61.3421 32.1484 60.8136 31.6043C60.285 31.0563 60.0208 30.3704 60.0208 29.5465C60.0208 28.7226 60.285 28.0386 60.8136 27.4945C61.3421 26.9504 61.997 26.6783 62.7781 26.6783ZM62.8831 27.4945C62.3001 27.4945 61.824 27.6927 61.4548 28.0891C61.0895 28.4816 60.9068 28.9674 60.9068 29.5465C60.9068 30.1255 61.0915 30.6133 61.4607 31.0097C61.8299 31.4061 62.304 31.6043 62.8831 31.6043C63.4544 31.6043 63.9246 31.41 64.2938 31.0214C64.663 30.6288 64.8476 30.1372 64.8476 29.5465C64.8476 28.9596 64.663 28.4719 64.2938 28.0832C63.9246 27.6907 63.4544 27.4945 62.8831 27.4945ZM70.0249 26.6783C70.7749 26.6783 71.3929 26.9445 71.8787 27.477C72.3683 28.0094 72.6151 28.6934 72.619 29.529C72.619 29.6495 72.6132 29.7583 72.6015 29.8554H68.1769C68.2352 30.4306 68.445 30.8756 68.8065 31.1904C69.1679 31.5013 69.609 31.6568 70.1298 31.6568C70.7905 31.6568 71.3734 31.4255 71.8787 30.9631L72.345 31.5577C71.7426 32.1329 70.9867 32.4205 70.0773 32.4205C69.2573 32.4205 68.5869 32.1562 68.0661 31.6276C67.5453 31.0952 67.2849 30.4034 67.2849 29.5523C67.2849 28.7128 67.5434 28.025 68.0603 27.4886C68.5772 26.9484 69.232 26.6783 70.0249 26.6783ZM70.0074 27.4537C69.5099 27.4537 69.0999 27.6091 68.7773 27.92C68.4548 28.2309 68.2585 28.6409 68.1885 29.1501H71.7329C71.6785 28.6332 71.4939 28.2212 71.1791 27.9142C70.8682 27.6072 70.4776 27.4537 70.0074 27.4537ZM76.6769 26.6783C77.0889 26.6783 77.4717 26.7541 77.8254 26.9057C78.179 27.0534 78.4783 27.2671 78.7231 27.5469L78.1635 28.1357C77.7243 27.7082 77.221 27.4945 76.6536 27.4945C76.0979 27.4945 75.6334 27.6888 75.2604 28.0774C74.8911 28.4661 74.7065 28.9557 74.7065 29.5465C74.7065 30.1411 74.8911 30.6327 75.2604 31.0214C75.6334 31.41 76.0979 31.6043 76.6536 31.6043C77.2288 31.6043 77.7379 31.3886 78.181 30.9572L78.7231 31.5518C78.4744 31.8317 78.1732 32.0474 77.8195 32.1989C77.4659 32.3466 77.085 32.4205 76.6769 32.4205C75.8375 32.4205 75.1515 32.1484 74.6191 31.6043C74.0867 31.0602 73.8204 30.3743 73.8204 29.5465C73.8204 28.7226 74.0867 28.0386 74.6191 27.4945C75.1515 26.9504 75.8375 26.6783 76.6769 26.6783ZM85.3272 26.7891V32.3097H84.4586V31.4877C83.9767 32.1095 83.3043 32.4205 82.4416 32.4205C81.6604 32.4205 81.0056 32.1484 80.477 31.6043C79.9485 31.0563 79.6842 30.3704 79.6842 29.5465C79.6842 28.7226 79.9485 28.0386 80.477 27.4945C81.0056 26.9504 81.6604 26.6783 82.4416 26.6783C83.3005 26.6783 83.9728 26.9892 84.4586 27.6111V26.7891H85.3272ZM82.5465 27.4945C81.9635 27.4945 81.4875 27.6927 81.1183 28.0891C80.7529 28.4816 80.5703 28.9674 80.5703 29.5465C80.5703 30.1255 80.7549 30.6133 81.1241 31.0097C81.4933 31.4061 81.9674 31.6043 82.5465 31.6043C83.1178 31.6043 83.5881 31.41 83.9573 31.0214C84.3265 30.6288 84.5111 30.1372 84.5111 29.5465C84.5111 28.9596 84.3265 28.4719 83.9573 28.0832C83.5881 27.6907 83.1178 27.4945 82.5465 27.4945ZM90.0905 26.6783C90.7745 26.6783 91.3283 26.8804 91.752 27.2846C92.1795 27.6888 92.3932 28.2232 92.3932 28.8877V32.3097H91.5246V29.1734C91.5246 28.6487 91.3847 28.2406 91.1049 27.9492C90.8289 27.6538 90.4384 27.5061 89.9331 27.5061C89.4551 27.5061 89.0529 27.6616 88.7264 27.9725C88.4038 28.2795 88.2425 28.6876 88.2425 29.1967V32.3097H87.3681V26.7891H88.2309V27.5761C88.4408 27.2652 88.7109 27.0378 89.0412 26.894C89.3715 26.7502 89.7213 26.6783 90.0905 26.6783ZM96.6906 26.6783C97.4407 26.6783 98.0586 26.9445 98.5444 27.477C99.0341 28.0094 99.2809 28.6934 99.2848 29.529C99.2848 29.6495 99.2789 29.7583 99.2673 29.8554H94.8426C94.9009 30.4306 95.1108 30.8756 95.4722 31.1904C95.8337 31.5013 96.2748 31.6568 96.7955 31.6568C97.4562 31.6568 98.0392 31.4255 98.5444 30.9631L99.0108 31.5577C98.4084 32.1329 97.6525 32.4205 96.7431 32.4205C95.923 32.4205 95.2526 32.1562 94.7319 31.6276C94.2111 31.0952 93.9507 30.4034 93.9507 29.5523C93.9507 28.7128 94.2091 28.025 94.726 27.4886C95.2429 26.9484 95.8978 26.6783 96.6906 26.6783ZM96.6731 27.4537C96.1757 27.4537 95.7656 27.6091 95.4431 27.92C95.1205 28.2309 94.9242 28.6409 94.8543 29.1501H98.3987C98.3443 28.6332 98.1597 28.2212 97.8449 27.9142C97.534 27.6072 97.1434 27.4537 96.6731 27.4537Z" fill="#231F20"/>
<path d="M0.870117 44.1597C0.870117 37.4623 6.29946 32.033 12.9969 32.033H26.8169V44.1597H0.870117V44.1597Z" fill="white"/>
<rect x="26.8174" y="32.033" width="92.1064" height="12.1268" fill="white"/>
<path d="M118.923 32.033H132.743C139.44 32.033 144.87 37.4623 144.87 44.1597V44.1597H118.923V32.033Z" fill="white"/>
<g clip-path="url(#clip1_214_14325)">
<path d="M239.013 39.8831H-93.2725V55.4286H239.013V39.8831Z" fill="white"/>
<path d="M-3.20508 43.0894L11.8547 51.8337" stroke="#231F20" stroke-width="0.971596"/>
<path d="M148.169 43.0894L133.109 51.8337" stroke="#231F20" stroke-width="0.971596"/>
<path d="M11.8545 51.8337L27.0114 43.0894" stroke="#231F20" stroke-width="0.971596"/>
<path d="M133.11 51.8337L117.953 43.0894" stroke="#231F20" stroke-width="0.971596"/>
<path d="M27.0107 43.0894L42.1676 51.8337" stroke="#231F20" stroke-width="0.971596"/>
<path d="M117.952 43.0894L102.795 51.8337" stroke="#231F20" stroke-width="0.971596"/>
<path d="M42.168 51.8337L57.3249 43.0894" stroke="#231F20" stroke-width="0.971596"/>
<path d="M102.796 51.8337L87.6387 43.0894" stroke="#231F20" stroke-width="0.971596"/>
<path d="M57.3252 43.0894L72.4821 51.8337" stroke="#231F20" stroke-width="0.971596"/>
<path d="M87.6383 43.0894L72.4814 51.8337" stroke="#231F20" stroke-width="0.971596"/>
<path d="M11.1738 51.3479L11.8539 51.8337L12.6312 51.3479" stroke="#231F20" stroke-width="0.971596"/>
<path d="M133.789 51.4451L133.109 51.8337L132.332 51.4451" stroke="#231F20" stroke-width="0.971596"/>
<path d="M26.3311 43.478L27.0112 43.0894L27.7884 43.478" stroke="#231F20" stroke-width="0.971596"/>
<path d="M118.632 43.5752L117.952 43.0894L117.175 43.5752" stroke="#231F20" stroke-width="0.971596"/>
<path d="M41.3906 51.3479L42.1679 51.8337L42.9452 51.3479" stroke="#231F20" stroke-width="0.971596"/>
<path d="M103.573 51.4451L102.796 51.8337L102.019 51.4451" stroke="#231F20" stroke-width="0.971596"/>
<path d="M56.5479 43.478L57.3251 43.0894L58.1024 43.478" stroke="#231F20" stroke-width="0.971596"/>
<path d="M88.4159 43.5752L87.6386 43.0894L86.8613 43.5752" stroke="#231F20" stroke-width="0.971596"/>
<path d="M71.7041 51.3479L72.4814 51.8337L73.2586 51.4451" stroke="#231F20" stroke-width="0.971596"/>
</g>
<path d="M0.870117 55.4286H26.8169V67.5541H12.9956C6.2989 67.5541 0.870117 62.1253 0.870117 55.4286V55.4286Z" fill="white"/>
<rect x="26.8174" y="55.4286" width="92.1064" height="12.1255" fill="white"/>
<path d="M118.923 55.4286H144.87V55.4286C144.87 62.1253 139.441 67.5541 132.744 67.5541H118.923V55.4286Z" fill="white"/>
</g>
<rect x="1.61989" y="1.18165" width="142.5" height="84.5005" rx="3.13661" stroke="white" stroke-width="1.49954"/>
<defs>
<clipPath id="clip0_214_14325">
<rect x="0.870117" y="0.431885" width="144" height="86" rx="3.88638" fill="white"/>
</clipPath>
<clipPath id="clip1_214_14325">
<rect width="332.286" height="15.5455" fill="white" transform="translate(-93.2725 39.8831)"/>
</clipPath>
</defs>
</svg>
