<svg width="144" height="87" viewBox="0 0 144 87" fill="none" xmlns="http://www.w3.org/2000/svg">
<g clip-path="url(#clip0_214_14889)">
<rect x="0.932617" y="0.431885" width="143" height="86" rx="3.88638" fill="white"/>
<path d="M0.932617 8.24202C0.932617 1.54458 6.36196 -3.88477 13.0594 -3.88477L26.8794 -3.88477V8.24202L0.932617 8.24202V8.24202Z" fill="white"/>
<rect x="26.8799" y="-3.88477" width="91.1064" height="12.1268" fill="white"/>
<path d="M117.985 -3.88477H131.805C138.503 -3.88477 143.932 1.54458 143.932 8.24202V8.24202H117.985V-3.88477Z" fill="white"/>
<rect width="143" height="15" transform="translate(0.932617 8.24194)" fill="white"/>
<path d="M25.7671 14.6106C26.6221 14.6106 27.2789 14.9234 27.7375 15.5491V14.7213H28.612V19.863C28.612 20.7452 28.3438 21.4312 27.8075 21.9209C27.2712 22.4144 26.5658 22.6612 25.6914 22.6612C25.2483 22.6612 24.8189 22.5951 24.403 22.463C23.9911 22.3348 23.6452 22.154 23.3653 21.9209L23.7501 21.2213C24.3214 21.6527 24.9685 21.8684 25.6914 21.8684C26.3054 21.8684 26.799 21.6974 27.1721 21.3554C27.549 21.0134 27.7375 20.5276 27.7375 19.898V19.3325C27.2828 19.9582 26.626 20.2711 25.7671 20.2711C24.986 20.2711 24.335 20.0068 23.8142 19.4783C23.2935 18.9458 23.0331 18.2657 23.0331 17.4379C23.0331 16.6101 23.2935 15.9319 23.8142 15.4034C24.335 14.8748 24.986 14.6106 25.7671 14.6106ZM25.8662 15.4267C25.2911 15.4267 24.8227 15.621 24.4613 16.0097C24.0999 16.3944 23.9192 16.8705 23.9192 17.4379C23.9192 18.0092 24.0999 18.4892 24.4613 18.8778C24.8227 19.2626 25.2911 19.455 25.8662 19.455C26.4298 19.455 26.8942 19.2645 27.2595 18.8837C27.6287 18.4989 27.8133 18.017 27.8133 17.4379C27.8133 16.8666 27.6287 16.3886 27.2595 16.0038C26.8942 15.6191 26.4298 15.4267 25.8662 15.4267ZM35.872 14.7213V20.2419H35.0034V19.42C34.5215 20.0418 33.8491 20.3527 32.9863 20.3527C32.2052 20.3527 31.5503 20.0807 31.0218 19.5366C30.4932 18.9886 30.2289 18.3026 30.2289 17.4787C30.2289 16.6548 30.4932 15.9708 31.0218 15.4267C31.5503 14.8826 32.2052 14.6106 32.9863 14.6106C33.8452 14.6106 34.5176 14.9215 35.0034 15.5433V14.7213H35.872ZM33.0913 15.4267C32.5083 15.4267 32.0322 15.6249 31.663 16.0213C31.2977 16.4139 31.115 16.8997 31.115 17.4787C31.115 18.0578 31.2996 18.5455 31.6689 18.9419C32.0381 19.3384 32.5122 19.5366 33.0913 19.5366C33.6626 19.5366 34.1328 19.3422 34.502 18.9536C34.8712 18.5611 35.0558 18.0695 35.0558 17.4787C35.0558 16.8919 34.8712 16.4041 34.502 16.0155C34.1328 15.623 33.6626 15.4267 33.0913 15.4267ZM44.7859 14.6106C45.4738 14.6106 46.0296 14.8127 46.4532 15.2168C46.8807 15.621 47.0945 16.1554 47.0945 16.82V20.2419H46.2258V17.1056C46.2258 16.581 46.0859 16.1729 45.8061 15.8814C45.5263 15.5861 45.1338 15.4384 44.6285 15.4384C44.1505 15.4384 43.7483 15.5938 43.4218 15.9047C43.0993 16.2118 42.938 16.6198 42.938 17.1289V20.2419H42.0694V17.1056C42.0694 16.581 41.9295 16.1729 41.6496 15.8814C41.3737 15.5861 40.9831 15.4384 40.4779 15.4384C39.9999 15.4384 39.5976 15.5938 39.2712 15.9047C38.9486 16.2118 38.7873 16.6198 38.7873 17.1289V20.2419H37.9129V14.7213H38.7757V15.5083C38.9855 15.1974 39.2556 14.9701 39.586 14.8263C39.9163 14.6825 40.2661 14.6106 40.6353 14.6106C41.1133 14.6106 41.533 14.7136 41.8945 14.9195C42.2559 15.1216 42.526 15.4053 42.7048 15.7707C42.9108 15.3704 43.2003 15.0769 43.5734 14.8904C43.9504 14.7038 44.3546 14.6106 44.7859 14.6106ZM55.9441 14.6106C56.632 14.6106 57.1878 14.8127 57.6114 15.2168C58.0389 15.621 58.2526 16.1554 58.2526 16.82V20.2419H57.384V17.1056C57.384 16.581 57.2441 16.1729 56.9643 15.8814C56.6845 15.5861 56.2919 15.4384 55.7867 15.4384C55.3087 15.4384 54.9065 15.5938 54.58 15.9047C54.2574 16.2118 54.0961 16.6198 54.0961 17.1289V20.2419H53.2275V17.1056C53.2275 16.581 53.0876 16.1729 52.8078 15.8814C52.5319 15.5861 52.1413 15.4384 51.6361 15.4384C51.158 15.4384 50.7558 15.5938 50.4293 15.9047C50.1068 16.2118 49.9455 16.6198 49.9455 17.1289V20.2419H49.071V14.7213H49.9338V15.5083C50.1437 15.1974 50.4138 14.9701 50.7441 14.8263C51.0745 14.6825 51.4243 14.6106 51.7935 14.6106C52.2715 14.6106 52.6912 14.7136 53.0526 14.9195C53.4141 15.1216 53.6842 15.4053 53.863 15.7707C54.0689 15.3704 54.3585 15.0769 54.7316 14.8904C55.1085 14.7038 55.5127 14.6106 55.9441 14.6106ZM65.4525 14.7213V20.2419H64.5839V19.42C64.102 20.0418 63.4297 20.3527 62.5669 20.3527C61.7857 20.3527 61.1309 20.0807 60.6023 19.5366C60.0738 18.9886 59.8095 18.3026 59.8095 17.4787C59.8095 16.6548 60.0738 15.9708 60.6023 15.4267C61.1309 14.8826 61.7857 14.6106 62.5669 14.6106C63.4258 14.6106 64.0981 14.9215 64.5839 15.5433V14.7213H65.4525ZM62.6718 15.4267C62.0889 15.4267 61.6128 15.6249 61.2436 16.0213C60.8782 16.4139 60.6956 16.8997 60.6956 17.4787C60.6956 18.0578 60.8802 18.5455 61.2494 18.9419C61.6186 19.3384 62.0927 19.5366 62.6718 19.5366C63.2431 19.5366 63.7134 19.3422 64.0826 18.9536C64.4518 18.5611 64.6364 18.0695 64.6364 17.4787C64.6364 16.8919 64.4518 16.4041 64.0826 16.0155C63.7134 15.623 63.2431 15.4267 62.6718 15.4267ZM70.5365 16.7617V17.5545H67.2952V16.7617H70.5365ZM77.3816 12.0805V12.9666H74.5485V20.2419H73.6157V12.9666H70.7826V12.0805H77.3816ZM79.9926 14.6106C80.7426 14.6106 81.3606 14.8768 81.8464 15.4092C82.3361 15.9417 82.5828 16.6257 82.5867 17.4612C82.5867 17.5817 82.5809 17.6905 82.5692 17.7877H78.1446C78.2029 18.3629 78.4128 18.8079 78.7742 19.1227C79.1356 19.4336 79.5767 19.589 80.0975 19.589C80.7582 19.589 81.3411 19.3578 81.8464 18.8953L82.3127 19.4899C81.7104 20.0651 80.9545 20.3527 80.045 20.3527C79.225 20.3527 78.5546 20.0884 78.0338 19.5599C77.5131 19.0274 77.2527 18.3357 77.2527 17.4846C77.2527 16.6451 77.5111 15.9572 78.028 15.4209C78.5449 14.8807 79.1998 14.6106 79.9926 14.6106ZM79.9751 15.3859C79.4776 15.3859 79.0676 15.5414 78.745 15.8523C78.4225 16.1632 78.2262 16.5732 78.1563 17.0823H81.7006C81.6462 16.5654 81.4616 16.1535 81.1468 15.8464C80.8359 15.5394 80.4453 15.3859 79.9751 15.3859ZM86.7088 14.6106C87.113 14.6106 87.4511 14.6728 87.7231 14.7971L87.5133 15.6541C87.2412 15.5064 86.9225 15.4325 86.5572 15.4325C86.1219 15.4325 85.7663 15.5899 85.4904 15.9047C85.2145 16.2195 85.0765 16.6354 85.0765 17.1523V20.2419H84.2079V14.7213H85.0707V15.4967C85.2611 15.213 85.4962 14.9953 85.7761 14.8438C86.0598 14.6883 86.3707 14.6106 86.7088 14.6106ZM91.9325 14.6106C92.7137 14.6106 93.3686 14.8826 93.8971 15.4267C94.4257 15.9708 94.6899 16.6548 94.6899 17.4787C94.6899 18.3026 94.4257 18.9886 93.8971 19.5366C93.3686 20.0807 92.7137 20.3527 91.9325 20.3527C91.0737 20.3527 90.4032 20.0437 89.9213 19.4258V22.5738H89.0469V14.7213H89.9213V15.5375C90.4032 14.9195 91.0737 14.6106 91.9325 14.6106ZM91.8276 15.4267C91.2563 15.4267 90.7861 15.623 90.4169 16.0155C90.0476 16.4041 89.863 16.8919 89.863 17.4787C89.863 18.0695 90.0476 18.5611 90.4169 18.9536C90.7861 19.3422 91.2563 19.5366 91.8276 19.5366C92.4106 19.5366 92.8847 19.3403 93.25 18.9478C93.6153 18.5514 93.798 18.0617 93.798 17.4787C93.798 16.8997 93.6134 16.4139 93.2442 16.0213C92.875 15.6249 92.4028 15.4267 91.8276 15.4267ZM97.1855 14.7213V20.2419H96.3111V14.7213H97.1855ZM96.7483 12.1447C96.9193 12.1447 97.0651 12.2049 97.1855 12.3254C97.306 12.442 97.3663 12.5877 97.3663 12.7626C97.3663 12.9375 97.306 13.0832 97.1855 13.1998C97.0689 13.3164 96.9232 13.3747 96.7483 13.3747C96.5734 13.3747 96.4277 13.3164 96.3111 13.1998C96.1945 13.0832 96.1362 12.9375 96.1362 12.7626C96.1362 12.5877 96.1945 12.442 96.3111 12.3254C96.4277 12.2049 96.5734 12.1447 96.7483 12.1447ZM101.948 14.6106C102.632 14.6106 103.186 14.8127 103.61 15.2168C104.037 15.621 104.251 16.1554 104.251 16.82V20.2419H103.382V17.1056C103.382 16.581 103.242 16.1729 102.963 15.8814C102.687 15.5861 102.296 15.4384 101.791 15.4384C101.313 15.4384 100.911 15.5938 100.584 15.9047C100.262 16.2118 100.1 16.6198 100.1 17.1289V20.2419H99.2259V14.7213H100.089V15.5083C100.299 15.1974 100.569 14.9701 100.899 14.8263C101.229 14.6825 101.579 14.6106 101.948 14.6106ZM107.103 14.7213V20.2419H106.228V14.7213H107.103ZM106.665 12.1447C106.836 12.1447 106.982 12.2049 107.103 12.3254C107.223 12.442 107.283 12.5877 107.283 12.7626C107.283 12.9375 107.223 13.0832 107.103 13.1998C106.986 13.3164 106.84 13.3747 106.665 13.3747C106.491 13.3747 106.345 13.3164 106.228 13.1998C106.112 13.0832 106.053 12.9375 106.053 12.7626C106.053 12.5877 106.112 12.442 106.228 12.3254C106.345 12.2049 106.491 12.1447 106.665 12.1447ZM111.865 14.6106C112.549 14.6106 113.103 14.8127 113.527 15.2168C113.954 15.621 114.168 16.1554 114.168 16.82V20.2419H113.299V17.1056C113.299 16.581 113.16 16.1729 112.88 15.8814C112.604 15.5861 112.213 15.4384 111.708 15.4384C111.23 15.4384 110.828 15.5938 110.501 15.9047C110.179 16.2118 110.017 16.6198 110.017 17.1289V20.2419H109.143V14.7213H110.006V15.5083C110.216 15.1974 110.486 14.9701 110.816 14.8263C111.146 14.6825 111.496 14.6106 111.865 14.6106ZM118.465 14.6106C119.216 14.6106 119.833 14.8768 120.319 15.4092C120.809 15.9417 121.056 16.6257 121.06 17.4612C121.06 17.5817 121.054 17.6905 121.042 17.7877H116.618C116.676 18.3629 116.886 18.8079 117.247 19.1227C117.609 19.4336 118.05 19.589 118.57 19.589C119.231 19.589 119.814 19.3578 120.319 18.8953L120.786 19.4899C120.183 20.0651 119.427 20.3527 118.518 20.3527C117.698 20.3527 117.028 20.0884 116.507 19.5599C115.986 19.0274 115.726 18.3357 115.726 17.4846C115.726 16.6451 115.984 15.9572 116.501 15.4209C117.018 14.8807 117.673 14.6106 118.465 14.6106ZM118.448 15.3859C117.951 15.3859 117.541 15.5414 117.218 15.8523C116.895 16.1632 116.699 16.5732 116.629 17.0823H120.174C120.119 16.5654 119.935 16.1535 119.62 15.8464C119.309 15.5394 118.918 15.3859 118.448 15.3859Z" fill="#231F20"/>
<g clip-path="url(#clip1_214_14889)">
<path d="M144.33 23.2419L0.53418 23.2419V78.6229H144.33V23.2419Z" fill="white"/>
<path d="M32.9863 35.6785L41.7307 50.8354" stroke="#231F20" stroke-width="0.971596"/>
<path d="M32.9863 65.8949L41.7307 50.8352" stroke="#231F20" stroke-width="0.971596"/>
<path d="M111.685 50.738H94.1963" stroke="#231F20" stroke-width="0.971596"/>
<path d="M85.4516 65.895H67.9629" stroke="#231F20" stroke-width="0.971596"/>
<path d="M85.4521 65.8949L94.1965 50.738" stroke="#231F20" stroke-width="0.971596"/>
<path d="M83.8965 63.2716L91.1835 50.738" stroke="#231F20" stroke-width="0.971596"/>
<path d="M85.4516 35.6785H67.9629" stroke="#231F20" stroke-width="0.971596"/>
<path d="M85.4521 35.6785L94.1965 50.7382" stroke="#231F20" stroke-width="0.971596"/>
<path d="M67.9631 65.8949L59.2188 50.8352" stroke="#231F20" stroke-width="0.971596"/>
<path d="M67.9631 35.6785L59.2188 50.8354" stroke="#231F20" stroke-width="0.971596"/>
<path d="M69.5174 38.3018L62.2305 50.8353" stroke="#231F20" stroke-width="0.971596"/>
<path d="M41.7305 50.8352H59.2192" stroke="#231F20" stroke-width="0.971596"/>
<path d="M84.5771 65.895H85.4516L85.8402 65.2148" stroke="#231F20" stroke-width="0.971596"/>
<path d="M84.5771 35.6785H85.4516L85.8402 36.3586" stroke="#231F20" stroke-width="0.971596"/>
<path d="M68.8378 65.895H67.9633L67.4775 65.2148" stroke="#231F20" stroke-width="0.971596"/>
<path d="M68.8378 35.6785H67.9633L67.4775 36.3586" stroke="#231F20" stroke-width="0.971596"/>
</g>
<path d="M0.932617 78.623H26.8794V90.7486H13.0581C6.3614 90.7486 0.932617 85.3198 0.932617 78.623V78.623Z" fill="white"/>
<rect x="26.8799" y="78.623" width="91.1064" height="12.1255" fill="white"/>
<path d="M117.985 78.623H143.932V78.623C143.932 85.3198 138.503 90.7486 131.807 90.7486H117.985V78.623Z" fill="white"/>
</g>
<rect x="1.68239" y="1.18165" width="141.5" height="84.5005" rx="3.13661" stroke="white" stroke-width="1.49954"/>
<defs>
<clipPath id="clip0_214_14889">
<rect x="0.932617" y="0.431885" width="143" height="86" rx="3.88638" fill="white"/>
</clipPath>
<clipPath id="clip1_214_14889">
<rect width="143.796" height="55.381" fill="white" transform="translate(0.53418 23.2419)"/>
</clipPath>
</defs>
</svg>
