<svg width="144" height="87" viewBox="0 0 144 87" fill="none" xmlns="http://www.w3.org/2000/svg">
<g clip-path="url(#clip0_214_14997)">
<rect x="0.932617" y="0.431885" width="143" height="86" rx="3.88638" fill="white"/>
<path d="M0.932617 8.24202C0.932617 1.54458 6.36196 -3.88477 13.0594 -3.88477L26.8794 -3.88477V8.24202H0.932617V8.24202Z" fill="white"/>
<rect x="26.8799" y="-3.88477" width="91.1064" height="12.1268" fill="white"/>
<path d="M117.985 -3.88477L131.805 -3.88477C138.503 -3.88477 143.932 1.54458 143.932 8.24202V8.24202L117.985 8.24202V-3.88477Z" fill="white"/>
<rect width="143" height="15" transform="translate(0.932617 8.24194)" fill="white"/>
<path d="M41.1761 14.7213V20.2419H40.3075V19.42C39.8256 20.0418 39.1532 20.3527 38.2905 20.3527C37.5093 20.3527 36.8544 20.0807 36.3259 19.5366C35.7973 18.9886 35.5331 18.3026 35.5331 17.4787C35.5331 16.6548 35.7973 15.9708 36.3259 15.4267C36.8544 14.8826 37.5093 14.6106 38.2905 14.6106C39.1493 14.6106 39.8217 14.9215 40.3075 15.5433V14.7213H41.1761ZM38.3954 15.4267C37.8124 15.4267 37.3363 15.6249 36.9671 16.0213C36.6018 16.4139 36.4192 16.8997 36.4192 17.4787C36.4192 18.0578 36.6038 18.5455 36.973 18.9419C37.3422 19.3384 37.8163 19.5366 38.3954 19.5366C38.9667 19.5366 39.4369 19.3422 39.8061 18.9536C40.1753 18.5611 40.36 18.0695 40.36 17.4787C40.36 16.8919 40.1753 16.4041 39.8061 16.0155C39.4369 15.623 38.9667 15.4267 38.3954 15.4267ZM44.0914 11.8474V20.2419H43.217V11.8474H44.0914ZM49.0174 14.6106C49.7986 14.6106 50.4534 14.8826 50.982 15.4267C51.5105 15.9708 51.7748 16.6548 51.7748 17.4787C51.7748 18.3026 51.5105 18.9886 50.982 19.5366C50.4534 20.0807 49.7986 20.3527 49.0174 20.3527C48.1585 20.3527 47.4881 20.0437 47.0062 19.4258V22.5738H46.1318V14.7213H47.0062V15.5375C47.4881 14.9195 48.1585 14.6106 49.0174 14.6106ZM48.9125 15.4267C48.3412 15.4267 47.8709 15.623 47.5017 16.0155C47.1325 16.4041 46.9479 16.8919 46.9479 17.4787C46.9479 18.0695 47.1325 18.5611 47.5017 18.9536C47.8709 19.3422 48.3412 19.5366 48.9125 19.5366C49.4954 19.5366 49.9696 19.3403 50.3349 18.9478C50.7002 18.5514 50.8829 18.0617 50.8829 17.4787C50.8829 16.8997 50.6983 16.4139 50.3291 16.0213C49.9599 15.6249 49.4877 15.4267 48.9125 15.4267ZM54.2704 11.8474V15.4908C54.4842 15.1877 54.7543 14.9662 55.0807 14.8263C55.4072 14.6825 55.7531 14.6106 56.1184 14.6106C56.8024 14.6106 57.3562 14.8127 57.7798 15.2168C58.2073 15.621 58.4211 16.1554 58.4211 16.82V20.2419H57.5525V17.1056C57.5525 16.581 57.4126 16.1729 57.1327 15.8814C56.8568 15.5861 56.4662 15.4384 55.961 15.4384C55.483 15.4384 55.0807 15.5938 54.7543 15.9047C54.4317 16.2118 54.2704 16.6198 54.2704 17.1289V20.2419H53.396V11.8474H54.2704ZM65.6216 14.7213V20.2419H64.753V19.42C64.2711 20.0418 63.5987 20.3527 62.736 20.3527C61.9548 20.3527 61.2999 20.0807 60.7714 19.5366C60.2428 18.9886 59.9786 18.3026 59.9786 17.4787C59.9786 16.6548 60.2428 15.9708 60.7714 15.4267C61.2999 14.8826 61.9548 14.6106 62.736 14.6106C63.5948 14.6106 64.2672 14.9215 64.753 15.5433V14.7213H65.6216ZM62.8409 15.4267C62.2579 15.4267 61.7819 15.6249 61.4126 16.0213C61.0473 16.4139 60.8647 16.8997 60.8647 17.4787C60.8647 18.0578 61.0493 18.5455 61.4185 18.9419C61.7877 19.3384 62.2618 19.5366 62.8409 19.5366C63.4122 19.5366 63.8824 19.3422 64.2516 18.9536C64.6209 18.5611 64.8055 18.0695 64.8055 17.4787C64.8055 16.8919 64.6209 16.4041 64.2516 16.0155C63.8824 15.623 63.4122 15.4267 62.8409 15.4267ZM70.7055 16.7617V17.5545H67.4643V16.7617H70.7055ZM75.7883 16.9599H73.643V20.2419H72.7044V12.0805H75.7883C76.7016 12.0805 77.4109 12.2962 77.9161 12.7276C78.4213 13.159 78.6739 13.7575 78.6739 14.5231C78.6739 15.2887 78.4213 15.8873 77.9161 16.3186C77.4109 16.7461 76.7016 16.9599 75.7883 16.9599ZM75.7591 12.9666H73.643V16.0796H75.7591C76.3926 16.0796 76.8745 15.9494 77.2049 15.689C77.5352 15.4287 77.7004 15.04 77.7004 14.5231C77.7004 14.0062 77.5352 13.6176 77.2049 13.3572C76.8745 13.0968 76.3926 12.9666 75.7591 12.9666ZM81.1639 14.7213V20.2419H80.2894V14.7213H81.1639ZM80.7267 12.1447C80.8977 12.1447 81.0434 12.2049 81.1639 12.3254C81.2844 12.442 81.3446 12.5877 81.3446 12.7626C81.3446 12.9375 81.2844 13.0832 81.1639 13.1998C81.0473 13.3164 80.9016 13.3747 80.7267 13.3747C80.5518 13.3747 80.406 13.3164 80.2894 13.1998C80.1729 13.0832 80.1146 12.9375 80.1146 12.7626C80.1146 12.5877 80.1729 12.442 80.2894 12.3254C80.406 12.2049 80.5518 12.1447 80.7267 12.1447ZM85.9266 14.6106C86.6107 14.6106 87.1645 14.8127 87.5881 15.2168C88.0156 15.621 88.2293 16.1554 88.2293 16.82V20.2419H87.3607V17.1056C87.3607 16.581 87.2208 16.1729 86.941 15.8814C86.6651 15.5861 86.2745 15.4384 85.7692 15.4384C85.2912 15.4384 84.889 15.5938 84.5625 15.9047C84.24 16.2118 84.0787 16.6198 84.0787 17.1289V20.2419L83.2042 20.2419V14.7213H84.067V15.5083C84.2769 15.1974 84.547 14.9701 84.8773 14.8263C85.2077 14.6825 85.5574 14.6106 85.9266 14.6106ZM92.5267 14.6106C93.2768 14.6106 93.8947 14.8768 94.3805 15.4092C94.8702 15.9417 95.117 16.6257 95.1209 17.4612C95.1209 17.5817 95.1151 17.6905 95.1034 17.7877H90.6788C90.737 18.3629 90.9469 18.8079 91.3083 19.1227C91.6698 19.4336 92.1109 19.589 92.6317 19.589C93.2923 19.589 93.8753 19.3578 94.3805 18.8953L94.8469 19.4899C94.2445 20.0651 93.4886 20.3527 92.5792 20.3527C91.7592 20.3527 91.0888 20.0884 90.568 19.5599C90.0472 19.0274 89.7868 18.3357 89.7868 17.4846C89.7868 16.6451 90.0453 15.9572 90.5622 15.4209C91.0791 14.8807 91.7339 14.6106 92.5267 14.6106ZM92.5092 15.3859C92.0118 15.3859 91.6018 15.5414 91.2792 15.8523C90.9566 16.1632 90.7604 16.5732 90.6904 17.0823H94.2348C94.1804 16.5654 93.9958 16.1535 93.681 15.8464C93.3701 15.5394 92.9795 15.3859 92.5092 15.3859ZM99.4645 14.6106C100.148 14.6106 100.702 14.8127 101.126 15.2168C101.553 15.621 101.767 16.1554 101.767 16.82V20.2419H100.899V17.1056C100.899 16.581 100.759 16.1729 100.479 15.8814C100.203 15.5861 99.8123 15.4384 99.3071 15.4384C98.829 15.4384 98.4268 15.5938 98.1003 15.9047C97.7778 16.2118 97.6165 16.6198 97.6165 17.1289V20.2419H96.7421V14.7213H97.6048V15.5083C97.8147 15.1974 98.0848 14.9701 98.4151 14.8263C98.7455 14.6825 99.0953 14.6106 99.4645 14.6106ZM106.065 14.6106C106.815 14.6106 107.433 14.8768 107.918 15.4092C108.408 15.9417 108.655 16.6257 108.659 17.4612C108.659 17.5817 108.653 17.6905 108.641 17.7877H104.217C104.275 18.3629 104.485 18.8079 104.846 19.1227C105.208 19.4336 105.649 19.589 106.169 19.589C106.83 19.589 107.413 19.3578 107.918 18.8953L108.385 19.4899C107.782 20.0651 107.026 20.3527 106.117 20.3527C105.297 20.3527 104.627 20.0884 104.106 19.5599C103.585 19.0274 103.325 18.3357 103.325 17.4846C103.325 16.6451 103.583 15.9572 104.1 15.4209C104.617 14.8807 105.272 14.6106 106.065 14.6106ZM106.047 15.3859C105.55 15.3859 105.14 15.5414 104.817 15.8523C104.494 16.1632 104.298 16.5732 104.228 17.0823H107.773C107.718 16.5654 107.534 16.1535 107.219 15.8464C106.908 15.5394 106.517 15.3859 106.047 15.3859Z" fill="#231F20"/>
<g clip-path="url(#clip1_214_14997)">
<path d="M120.041 23.2419L24.8242 23.2419V78.6229H120.041V23.2419Z" fill="white"/>
<path d="M98.5688 51.0295L81.0801 50.9324" stroke="#231F20" stroke-width="0.971596"/>
<path d="M64.3681 63.466L63.5908 50.8352" stroke="#231F20" stroke-width="0.971596"/>
<path d="M74.0841 58.025L63.5908 50.8352" stroke="#231F20" stroke-width="0.971596"/>
<path d="M72.2377 65.9922L54.749 65.895" stroke="#231F20" stroke-width="0.971596"/>
<path d="M72.2383 65.9921L81.0798 50.9324" stroke="#231F20" stroke-width="0.971596"/>
<path d="M70.7803 63.466L78.1644 50.8352" stroke="#231F20" stroke-width="0.971596"/>
<path d="M54.7497 65.8949L46.1025 50.6409" stroke="#231F20" stroke-width="0.971596"/>
<path d="M54.9441 35.5811L46.1025 50.6408" stroke="#231F20" stroke-width="0.971596"/>
<path d="M54.9434 35.5811L72.4321 35.6782" stroke="#231F20" stroke-width="0.971596"/>
<path d="M81.0798 50.9325L72.4326 35.6785" stroke="#231F20" stroke-width="0.971596"/>
<path d="M46.1025 50.6409L63.5913 50.8352" stroke="#231F20" stroke-width="0.971596"/>
<path d="M72.4323 35.6785L63.5908 50.8354" stroke="#231F20" stroke-width="0.971596"/>
<path d="M71.3643 65.9921H72.2387L72.7245 65.2148" stroke="#231F20" stroke-width="0.971596"/>
<path d="M55.6244 65.8952H54.75L54.3613 65.1179" stroke="#231F20" stroke-width="0.971596"/>
<path d="M54.458 36.3583L54.9438 35.5811H55.8182" stroke="#231F20" stroke-width="0.971596"/>
</g>
<path d="M0.932617 78.623H26.8794V90.7486H13.0581C6.3614 90.7486 0.932617 85.3198 0.932617 78.623V78.623Z" fill="white"/>
<rect x="26.8799" y="78.623" width="91.1064" height="12.1255" fill="white"/>
<path d="M117.985 78.623H143.932V78.623C143.932 85.3198 138.503 90.7486 131.807 90.7486H117.985V78.623Z" fill="white"/>
</g>
<rect x="1.68239" y="1.18165" width="141.5" height="84.5005" rx="3.13661" stroke="white" stroke-width="1.49954"/>
<defs>
<clipPath id="clip0_214_14997">
<rect x="0.932617" y="0.431885" width="143" height="86" rx="3.88638" fill="white"/>
</clipPath>
<clipPath id="clip1_214_14997">
<rect width="95.2164" height="55.381" fill="white" transform="translate(24.8242 23.2419)"/>
</clipPath>
</defs>
</svg>
