<svg width="143" height="87" viewBox="0 0 143 87" fill="none" xmlns="http://www.w3.org/2000/svg">
<g clip-path="url(#clip0_214_14649)">
<rect x="0.557617" y="0.431885" width="142" height="86" rx="3.88638" fill="white"/>
<path d="M0.557617 12.5587C0.557617 5.86123 5.98696 0.431885 12.6844 0.431885L26.5044 0.431885V12.5587H0.557617V12.5587Z" fill="white"/>
<rect x="26.5049" y="0.431885" width="90.1064" height="12.1268" fill="white"/>
<path d="M116.61 0.431885L130.43 0.431885C137.128 0.431885 142.557 5.86123 142.557 12.5587V12.5587L116.61 12.5587V0.431885Z" fill="white"/>
<rect width="142" height="15" transform="translate(0.557617 12.5587)" fill="white"/>
<path d="M23.2796 16.3973L26.6316 24.5587H25.6289L24.702 22.2852H20.6621L19.741 24.5587H18.7675L22.1195 16.3973H23.2796ZM22.685 17.3242L21.0235 21.3991H24.3464L22.685 17.3242ZM28.7412 16.1641V24.5587H27.8667V16.1641H28.7412ZM31.6559 16.1641V24.5587H30.7815V16.1641H31.6559ZM38.733 19.0381L34.2384 26.9139H33.2766L35.3344 23.3637L32.7985 19.0381H33.7721L35.8299 22.5009L37.777 19.0381H38.733ZM40.7191 16.1641V24.5587H39.8447V16.1641L40.7191 16.1641ZM52.7409 18.9273C53.4288 18.9273 53.9845 19.1294 54.4081 19.5336C54.8356 19.9378 55.0494 20.4722 55.0494 21.1368V24.5587H54.1808V21.4224C54.1808 20.8977 54.0409 20.4897 53.7611 20.1982C53.4812 19.9028 53.0887 19.7551 52.5835 19.7551C52.1055 19.7551 51.7032 19.9106 51.3768 20.2215C51.0542 20.5285 50.8929 20.9366 50.8929 21.4457V24.5587H50.0243V21.4224C50.0243 20.8977 49.8844 20.4897 49.6046 20.1982C49.3286 19.9028 48.9381 19.7551 48.4328 19.7551C47.9548 19.7551 47.5526 19.9106 47.2261 20.2215C46.9035 20.5285 46.7422 20.9366 46.7422 21.4457V24.5587H45.8678V19.0381H46.7306V19.8251C46.9405 19.5142 47.2106 19.2868 47.5409 19.143C47.8712 18.9992 48.221 18.9273 48.5902 18.9273C49.0683 18.9273 49.488 19.0303 49.8494 19.2363C50.2108 19.4384 50.481 19.7221 50.6597 20.0874C50.8657 19.6871 51.1552 19.3937 51.5283 19.2072C51.9053 19.0206 52.3095 18.9273 52.7409 18.9273ZM59.3462 18.9273C60.0962 18.9273 60.7142 19.1936 61.2 19.726C61.6896 20.2584 61.9364 20.9424 61.9403 21.778C61.9403 21.8985 61.9345 22.0073 61.9228 22.1045H57.4982C57.5565 22.6796 57.7663 23.1246 58.1278 23.4394C58.4892 23.7503 58.9303 23.9058 59.4511 23.9058C60.1118 23.9058 60.6947 23.6746 61.2 23.2121L61.6663 23.8067C61.0639 24.3819 60.308 24.6695 59.3986 24.6695C58.5786 24.6695 57.9082 24.4052 57.3874 23.8767C56.8666 23.3442 56.6063 22.6524 56.6063 21.8013C56.6063 20.9619 56.8647 20.274 57.3816 19.7377C57.8985 19.1974 58.5533 18.9273 59.3462 18.9273ZM59.3287 19.7027C58.8312 19.7027 58.4212 19.8581 58.0986 20.169C57.7761 20.48 57.5798 20.89 57.5098 21.3991H61.0542C60.9998 20.8822 60.8152 20.4702 60.5004 20.1632C60.1895 19.8562 59.7989 19.7027 59.3287 19.7027ZM67.253 19.0381V19.8251H64.8687V22.6116C64.8687 23.0275 64.9678 23.3384 65.166 23.5444C65.3642 23.7503 65.6304 23.8533 65.9646 23.8533C66.3805 23.8533 66.7672 23.7231 67.1247 23.4628L67.5328 24.1215C67.0509 24.4868 66.5048 24.6695 65.8947 24.6695C65.2884 24.6695 64.8201 24.5004 64.4898 24.1623C64.1633 23.8203 64.0001 23.3092 64.0001 22.6291V19.8251H62.7933V19.0381H64.0001V17.2834H64.8687V19.0381H67.253ZM69.662 16.1641V19.8076C69.8758 19.5045 70.1459 19.2829 70.4724 19.143C70.7988 18.9992 71.1447 18.9273 71.51 18.9273C72.194 18.9273 72.7478 19.1294 73.1714 19.5336C73.599 19.9378 73.8127 20.4722 73.8127 21.1368V24.5587H72.9441V21.4224C72.9441 20.8977 72.8042 20.4897 72.5244 20.1982C72.2484 19.9028 71.8579 19.7551 71.3526 19.7551C70.8746 19.7551 70.4724 19.9106 70.1459 20.2215C69.8233 20.5285 69.662 20.9366 69.662 21.4457V24.5587H68.7876V16.1641H69.662ZM80.6673 19.0381L76.1727 26.9139H75.2108L77.2686 23.3637L74.7328 19.0381H75.7063L77.7642 22.5009L79.7112 19.0381H80.6673ZM82.6533 16.1641V24.5587H81.7789V16.1641H82.6533ZM91.8886 19.5336L91.5097 20.2099C91.3076 20.0699 91.0413 19.9495 90.711 19.8484C90.3845 19.7435 90.0484 19.691 89.7025 19.691C89.3061 19.691 88.9893 19.7687 88.7523 19.9242C88.5152 20.0797 88.3967 20.2915 88.3967 20.5596C88.3967 20.9871 88.7717 21.2456 89.5218 21.335L90.1747 21.4166C91.4106 21.5759 92.0285 22.0889 92.0285 22.9556C92.0285 23.4802 91.8089 23.8961 91.3697 24.2031C90.9306 24.5101 90.3399 24.6636 89.5976 24.6636C88.6843 24.6636 87.9167 24.4285 87.2949 23.9583L87.6971 23.3054C88.2101 23.7057 88.8475 23.9058 89.6092 23.9058C90.0834 23.9058 90.4545 23.83 90.7227 23.6784C90.9947 23.523 91.1307 23.3015 91.1307 23.0139C91.1307 22.5708 90.746 22.3027 89.9765 22.2094L89.3177 22.1336C88.7076 22.0598 88.2509 21.8927 87.9478 21.6323C87.6446 21.368 87.4931 21.026 87.4931 20.6063C87.4931 20.0894 87.6932 19.6813 88.0935 19.3821C88.4938 19.0828 89.0282 18.9332 89.6967 18.9332C90.1203 18.9332 90.5225 18.9876 90.9034 19.0964C91.2842 19.2052 91.6126 19.351 91.8886 19.5336ZM98.5012 19.0381V22.256C98.5012 22.6524 98.4332 23.008 98.2972 23.3228C98.1612 23.6338 97.9766 23.8864 97.7434 24.0807C97.5102 24.275 97.244 24.4227 96.9447 24.5237C96.6494 24.6209 96.3326 24.6695 95.9945 24.6695C95.6525 24.6695 95.3319 24.6209 95.0326 24.5237C94.7373 24.4227 94.473 24.275 94.2398 24.0807C94.0066 23.8864 93.822 23.6338 93.686 23.3228C93.5539 23.008 93.4878 22.6524 93.4878 22.256V19.0381H94.3564V22.1744C94.3564 22.7263 94.506 23.1441 94.8053 23.4278C95.1045 23.7115 95.5009 23.8533 95.9945 23.8533C96.4881 23.8533 96.8826 23.7115 97.1779 23.4278C97.4772 23.1441 97.6268 22.7263 97.6268 22.1744V19.0381H98.5012ZM101.349 16.1641V24.5587H100.475V16.1641H101.349ZM107.009 19.0381V19.8251H104.812V24.5587H103.937V19.8251H102.678V19.0381H103.937V18.0937C103.937 17.468 104.087 16.9725 104.386 16.6072C104.685 16.238 105.148 16.0534 105.774 16.0534C106.329 16.0534 106.833 16.1913 107.283 16.4673L106.969 17.196C106.599 16.9783 106.221 16.8695 105.832 16.8695C105.152 16.8695 104.812 17.2776 104.812 18.0937V19.0381H107.009ZM109.296 19.0381V24.5587H108.422V19.0381H109.296ZM108.859 16.4614C109.03 16.4614 109.176 16.5217 109.296 16.6422C109.417 16.7587 109.477 16.9045 109.477 17.0794C109.477 17.2543 109.417 17.4 109.296 17.5166C109.18 17.6332 109.034 17.6915 108.859 17.6915C108.684 17.6915 108.538 17.6332 108.422 17.5166C108.305 17.4 108.247 17.2543 108.247 17.0794C108.247 16.9045 108.305 16.7587 108.422 16.6422C108.538 16.5217 108.684 16.4614 108.859 16.4614ZM113.674 18.9273C114.533 18.9273 115.206 19.2383 115.691 19.8601V16.1641H116.56V24.5587H115.691V23.7367C115.209 24.3586 114.537 24.6695 113.674 24.6695C112.893 24.6695 112.238 24.3974 111.71 23.8533C111.181 23.3054 110.917 22.6194 110.917 21.7955C110.917 20.9716 111.181 20.2876 111.71 19.7435C112.238 19.1994 112.893 18.9273 113.674 18.9273ZM113.779 19.7435C113.196 19.7435 112.72 19.9417 112.351 20.3381C111.986 20.7306 111.803 21.2164 111.803 21.7955C111.803 22.3746 111.988 22.8623 112.357 23.2587C112.726 23.6551 113.2 23.8533 113.779 23.8533C114.351 23.8533 114.821 23.659 115.19 23.2704C115.559 22.8779 115.744 22.3862 115.744 21.7955C115.744 21.2087 115.559 20.7209 115.19 20.3323C114.821 19.9397 114.351 19.7435 113.779 19.7435ZM120.921 18.9273C121.671 18.9273 122.289 19.1936 122.775 19.726C123.265 20.2584 123.511 20.9424 123.515 21.778C123.515 21.8985 123.509 22.0073 123.498 22.1045H119.073C119.131 22.6796 119.341 23.1246 119.703 23.4394C120.064 23.7503 120.505 23.9058 121.026 23.9058C121.687 23.9058 122.27 23.6746 122.775 23.2121L123.241 23.8067C122.639 24.3819 121.883 24.6695 120.974 24.6695C120.153 24.6695 119.483 24.4052 118.962 23.8767C118.442 23.3442 118.181 22.6524 118.181 21.8013C118.181 20.9619 118.44 20.274 118.956 19.7377C119.473 19.1974 120.128 18.9273 120.921 18.9273ZM120.904 19.7027C120.406 19.7027 119.996 19.8581 119.674 20.169C119.351 20.48 119.155 20.89 119.085 21.3991H122.629C122.575 20.8822 122.39 20.4702 122.075 20.1632C121.764 19.8562 121.374 19.7027 120.904 19.7027Z" fill="#231F20"/>
<path d="M0.557617 27.5587H26.5044V39.6842H12.6831C5.9864 39.6842 0.557617 34.2555 0.557617 27.5587V27.5587Z" fill="white"/>
<rect x="26.5049" y="27.5587" width="90.1064" height="12.1255" fill="white"/>
<path d="M116.61 27.5587L142.557 27.5587V27.5587C142.557 34.2555 137.128 39.6842 130.432 39.6842H116.61V27.5587Z" fill="white"/>
<g clip-path="url(#clip1_214_14649)">
<path d="M126.939 39.6842L16.1768 39.6842V63.9741L126.939 63.9741V39.6842Z" fill="white"/>
<path d="M40.9521 56.1042L56.109 47.3599" stroke="#231F20" stroke-width="0.971596"/>
<path d="M42.3135 58.3388L56.1101 50.3717" stroke="#231F20" stroke-width="0.971596"/>
<path d="M101.58 56.1042L95.0703 52.3149" stroke="#231F20" stroke-width="0.971596"/>
<path d="M95.0702 52.315L88.5605 48.5258" stroke="#CFCF37" stroke-width="0.971596"/>
<path d="M56.1094 47.3599L71.2663 56.1042" stroke="#231F20" stroke-width="0.971596"/>
<path d="M71.2666 56.1042L77.7763 52.3149" stroke="#231F20" stroke-width="0.971596"/>
<path d="M77.7764 52.315L84.2861 48.5258" stroke="#CFCF37" stroke-width="0.971596"/>
<path d="M55.332 47.7485L56.1093 47.3599L56.8866 47.7485" stroke="#231F20" stroke-width="0.971596"/>
<path d="M70.4893 55.6184L71.2665 56.1042L71.558 55.9099" stroke="#231F20" stroke-width="0.971596"/>
<path d="M84.9663 49.0116C85.0311 49.0116 85.1282 49.044 85.2578 49.1088C85.4521 49.1735 85.614 49.2383 85.7436 49.3031C85.9379 49.3031 86.1322 49.3031 86.3265 49.3031C86.5856 49.3031 86.8123 49.2383 87.0067 49.1088C87.201 48.9792 87.2981 48.7849 87.2981 48.5258C87.2981 48.3315 87.2657 48.1696 87.201 48.04C87.0714 47.9105 86.9419 47.8133 86.8123 47.7485C86.6828 47.7485 86.4885 47.6838 86.2294 47.5542C85.9703 47.4894 85.7436 47.4247 85.5493 47.3599C85.3549 47.2951 85.193 47.1656 85.0635 46.9713C84.9987 46.7769 84.9663 46.5178 84.9663 46.194C84.9663 45.8053 85.0958 45.4815 85.3549 45.2224C85.614 44.9633 86.0351 44.8337 86.618 44.8337C87.0067 44.8337 87.4277 44.9309 87.8811 45.1252L87.6868 45.611C87.2981 45.4815 86.9419 45.4167 86.618 45.4167C86.2942 45.4167 86.0351 45.4815 85.8407 45.611C85.7112 45.7406 85.6464 45.9349 85.6464 46.194C85.6464 46.3235 85.6788 46.4531 85.7436 46.5826C85.8731 46.7122 86.0027 46.8093 86.1322 46.8741C86.2618 46.8741 86.4237 46.9389 86.618 47.0684C86.9419 47.1332 87.201 47.198 87.3953 47.2627C87.5248 47.3923 87.6544 47.5542 87.7839 47.7485C87.9135 47.9428 87.9783 48.2019 87.9783 48.5258C87.9783 48.9792 87.8163 49.3355 87.4925 49.5946C87.2334 49.7889 86.8447 49.886 86.3265 49.886C86.0027 49.886 85.7436 49.8537 85.5493 49.7889C85.3549 49.7241 85.1282 49.6593 84.8691 49.5946L84.9663 49.0116Z" fill="#CFCF37"/>
</g>
</g>
<rect x="1.30739" y="1.18165" width="140.5" height="84.5005" rx="3.13661" stroke="white" stroke-width="1.49954"/>
<defs>
<clipPath id="clip0_214_14649">
<rect x="0.557617" y="0.431885" width="142" height="86" rx="3.88638" fill="white"/>
</clipPath>
<clipPath id="clip1_214_14649">
<rect width="110.762" height="24.2899" fill="white" transform="translate(16.1768 39.6842)"/>
</clipPath>
</defs>
</svg>
