<svg width="144" height="87" viewBox="0 0 144 87" fill="none" xmlns="http://www.w3.org/2000/svg">
<g clip-path="url(#clip0_214_14205)">
<rect x="0.181641" y="0.431885" width="143" height="86" rx="3.88638" fill="white"/>
<path d="M0.181641 8.24202C0.181641 1.54458 5.61099 -3.88477 12.3084 -3.88477L26.1284 -3.88477V8.24202L0.181641 8.24202V8.24202Z" fill="white"/>
<rect x="26.1289" y="-3.88477" width="91.1064" height="12.1268" fill="white"/>
<path d="M117.234 -3.88477L131.054 -3.88477C137.752 -3.88477 143.181 1.54458 143.181 8.24202V8.24202L117.234 8.24202V-3.88477Z" fill="white"/>
<rect width="143" height="15" transform="translate(0.181641 8.24207)" fill="white"/>
<path d="M56.5139 12.0807V12.9668H53.6807V20.2421H52.748V12.9668H49.9148V12.0807H56.5139ZM59.2881 14.6107C60.1197 14.6107 60.8115 14.8847 61.3634 15.4327C61.9191 15.9806 62.197 16.6627 62.197 17.4788C62.197 18.2989 61.9191 18.9829 61.3634 19.5309C60.8115 20.0788 60.1197 20.3528 59.2881 20.3528C58.4564 20.3528 57.7646 20.0788 57.2127 19.5309C56.6609 18.9829 56.3849 18.2989 56.3849 17.4788C56.3849 16.6627 56.6609 15.9806 57.2127 15.4327C57.7685 14.8847 58.4603 14.6107 59.2881 14.6107ZM60.728 16.0098C60.3432 15.6212 59.8632 15.4268 59.2881 15.4268C58.7129 15.4268 58.2329 15.6212 57.8481 16.0098C57.4634 16.3984 57.271 16.8881 57.271 17.4788C57.271 18.0735 57.4634 18.5651 57.8481 18.9537C58.2329 19.3424 58.7129 19.5367 59.2881 19.5367C59.8632 19.5367 60.3432 19.3424 60.728 18.9537C61.1127 18.5651 61.3051 18.0735 61.3051 17.4788C61.3051 16.8881 61.1127 16.3984 60.728 16.0098ZM64.6928 11.8475V20.2421H63.8184V11.8475H64.6928ZM71.6825 14.7215V17.9394C71.6825 18.3358 71.6144 18.6914 71.4784 19.0062C71.3424 19.3171 71.1578 19.5697 70.9246 19.764C70.6914 19.9584 70.4252 20.106 70.126 20.2071C69.8306 20.3042 69.5139 20.3528 69.1757 20.3528C68.8337 20.3528 68.5131 20.3042 68.2139 20.2071C67.9185 20.106 67.6542 19.9584 67.421 19.764C67.1879 19.5697 67.0033 19.3171 66.8672 19.0062C66.7351 18.6914 66.669 18.3358 66.669 17.9394V14.7215H67.5376V17.8578C67.5376 18.4096 67.6873 18.8274 67.9865 19.1111C68.2858 19.3948 68.6822 19.5367 69.1757 19.5367C69.6693 19.5367 70.0638 19.3948 70.3591 19.1111C70.6584 18.8274 70.808 18.4096 70.808 17.8578V14.7215H71.6825ZM75.9759 14.6107C76.726 14.6107 77.3439 14.8769 77.8297 15.4093C78.3194 15.9418 78.5662 16.6258 78.5701 17.4614C78.5701 17.5818 78.5643 17.6907 78.5526 17.7878H74.128C74.1863 18.363 74.3961 18.808 74.7576 19.1228C75.119 19.4337 75.5601 19.5892 76.0809 19.5892C76.7416 19.5892 77.3245 19.3579 77.8297 18.8954L78.2961 19.4901C77.6937 20.0652 76.9378 20.3528 76.0284 20.3528C75.2084 20.3528 74.538 20.0886 74.0172 19.56C73.4964 19.0276 73.236 18.3358 73.236 17.4847C73.236 16.6452 73.4945 15.9573 74.0114 15.421C74.5283 14.8808 75.1831 14.6107 75.9759 14.6107ZM75.9585 15.386C75.461 15.386 75.051 15.5415 74.7284 15.8524C74.4058 16.1633 74.2096 16.5733 74.1396 17.0824H77.684C77.6296 16.5655 77.445 16.1536 77.1302 15.8466C76.8193 15.5395 76.4287 15.386 75.9585 15.386ZM82.9137 14.6107C83.5977 14.6107 84.1515 14.8128 84.5751 15.217C85.0026 15.6212 85.2164 16.1555 85.2164 16.8201V20.2421H84.3478V17.1058C84.3478 16.5811 84.2078 16.173 83.928 15.8815C83.6521 15.5862 83.2615 15.4385 82.7563 15.4385C82.2783 15.4385 81.876 15.594 81.5496 15.9049C81.227 16.2119 81.0657 16.62 81.0657 17.1291V20.2421H80.1913V14.7215H81.054V15.5084C81.2639 15.1975 81.534 14.9702 81.8644 14.8264C82.1947 14.6826 82.5445 14.6107 82.9137 14.6107ZM89.5138 14.6107C90.2638 14.6107 90.8818 14.8769 91.3676 15.4093C91.8573 15.9418 92.104 16.6258 92.1079 17.4614C92.1079 17.5818 92.1021 17.6907 92.0904 17.7878H87.6658C87.7241 18.363 87.9339 18.808 88.2954 19.1228C88.6568 19.4337 89.0979 19.5892 89.6187 19.5892C90.2794 19.5892 90.8623 19.3579 91.3676 18.8954L91.8339 19.4901C91.2315 20.0652 90.4756 20.3528 89.5662 20.3528C88.7462 20.3528 88.0758 20.0886 87.555 19.56C87.0343 19.0276 86.7739 18.3358 86.7739 17.4847C86.7739 16.6452 87.0323 15.9573 87.5492 15.421C88.0661 14.8808 88.7209 14.6107 89.5138 14.6107ZM89.4963 15.386C88.9988 15.386 88.5888 15.5415 88.2662 15.8524C87.9437 16.1633 87.7474 16.5733 87.6774 17.0824H91.2218C91.1674 16.5655 90.9828 16.1536 90.668 15.8466C90.3571 15.5395 89.9665 15.386 89.4963 15.386Z" fill="#231F20"/>
<g clip-path="url(#clip1_214_14205)">
<path d="M119.776 23.2421L23.5879 23.2421V78.623H119.776V23.2421Z" fill="white"/>
<path d="M45.3516 50.7383H62.8403" stroke="#231F20" stroke-width="0.971596"/>
<path d="M97.9157 50.7383L89.0742 65.8952" stroke="#231F20" stroke-width="0.971596"/>
<path d="M94.806 50.7383L87.6162 63.2719" stroke="#231F20" stroke-width="0.971596"/>
<path d="M97.9153 50.7383L89.1709 35.6786" stroke="#231F20" stroke-width="0.971596"/>
<path d="M89.0737 65.8951H71.585" stroke="#231F20" stroke-width="0.971596"/>
<path d="M89.1704 35.6786H71.6816" stroke="#231F20" stroke-width="0.971596"/>
<path d="M87.6164 38.3018H73.1396" stroke="#231F20" stroke-width="0.971596"/>
<path d="M71.5852 65.8952L62.8408 50.7383" stroke="#231F20" stroke-width="0.971596"/>
<path d="M73.139 63.2719L65.9492 50.7383" stroke="#231F20" stroke-width="0.971596"/>
<path d="M71.6823 35.6786L62.8408 50.7383" stroke="#231F20" stroke-width="0.971596"/>
<path d="M97.4287 51.5155L97.9145 50.7382L97.4287 50.0581" stroke="#231F20" stroke-width="0.971596"/>
<path d="M89.5595 65.215L89.0737 65.8951H88.1992" stroke="#231F20" stroke-width="0.971596"/>
<path d="M89.5595 36.3587L89.1708 35.6786H88.1992" stroke="#231F20" stroke-width="0.971596"/>
<path d="M72.4594 65.8951H71.5849L71.1963 65.215" stroke="#231F20" stroke-width="0.971596"/>
<path d="M72.5565 35.6786H71.6821L71.1963 36.3587" stroke="#231F20" stroke-width="0.971596"/>
</g>
<path d="M0.181641 78.623H26.1284V90.7486H12.3072C5.61043 90.7486 0.181641 85.3198 0.181641 78.623V78.623Z" fill="white"/>
<rect x="26.1289" y="78.623" width="91.1064" height="12.1255" fill="white"/>
<path d="M117.234 78.623H143.181V78.623C143.181 85.3198 137.752 90.7486 131.056 90.7486H117.234V78.623Z" fill="white"/>
</g>
<rect x="0.93141" y="1.18165" width="141.5" height="84.5005" rx="3.13661" stroke="white" stroke-width="1.49954"/>
<defs>
<clipPath id="clip0_214_14205">
<rect x="0.181641" y="0.431885" width="143" height="86" rx="3.88638" fill="white"/>
</clipPath>
<clipPath id="clip1_214_14205">
<rect width="96.188" height="55.381" fill="white" transform="translate(23.5879 23.2421)"/>
</clipPath>
</defs>
</svg>
