<svg width="145" height="88" viewBox="0 0 145 88" fill="none" xmlns="http://www.w3.org/2000/svg">
<g clip-path="url(#clip0_214_14122)">
<rect x="0.557617" y="0.431885" width="144" height="87" rx="3.88638" fill="white"/>
<path d="M0.557617 12.5587C0.557617 5.86123 5.98696 0.431885 12.6844 0.431885L26.5044 0.431885V12.5587H0.557617V12.5587Z" fill="white"/>
<rect x="26.5049" y="0.431885" width="92.1064" height="12.1268" fill="white"/>
<path d="M118.61 0.431885L132.43 0.431885C139.128 0.431885 144.557 5.86123 144.557 12.5587V12.5587L118.61 12.5587V0.431885Z" fill="white"/>
<rect width="144" height="15" transform="translate(0.557617 12.5587)" fill="white"/>
<path d="M29.2352 16.3973H32.3074C33.6404 16.3973 34.6994 16.7665 35.4845 17.5049C36.2695 18.2433 36.6621 19.2344 36.6621 20.478C36.6621 21.7217 36.2695 22.7127 35.4845 23.4511C34.6994 24.1895 33.6404 24.5587 32.3074 24.5587H29.2352V16.3973ZM32.3074 17.2834H30.1738V23.6726H32.3074C33.3878 23.6726 34.2195 23.385 34.8024 22.8098C35.3854 22.2347 35.6769 21.4574 35.6769 20.478C35.6769 19.4948 35.3854 18.7175 34.8024 18.1462C34.2234 17.571 33.3917 17.2834 32.3074 17.2834ZM39.2659 19.0381V24.5587H38.3915V19.0381H39.2659ZM38.8287 16.4614C38.9997 16.4614 39.1454 16.5217 39.2659 16.6422C39.3864 16.7587 39.4466 16.9045 39.4466 17.0794C39.4466 17.2543 39.3864 17.4 39.2659 17.5166C39.1493 17.6332 39.0036 17.6915 38.8287 17.6915C38.6538 17.6915 38.508 17.6332 38.3915 17.5166C38.2749 17.4 38.2166 17.2543 38.2166 17.0794C38.2166 16.9045 38.2749 16.7587 38.3915 16.6422C38.508 16.5217 38.6538 16.4614 38.8287 16.4614ZM48.1793 18.9273C48.8672 18.9273 49.423 19.1294 49.8466 19.5336C50.2741 19.9378 50.4878 20.4722 50.4878 21.1368V24.5587H49.6192V21.4224C49.6192 20.8977 49.4793 20.4897 49.1995 20.1982C48.9197 19.9028 48.5271 19.7551 48.0219 19.7551C47.5439 19.7551 47.1416 19.9106 46.8152 20.2215C46.4926 20.5285 46.3313 20.9366 46.3313 21.4457V24.5587H45.4627V21.4224C45.4627 20.8977 45.3228 20.4897 45.043 20.1982C44.7671 19.9028 44.3765 19.7551 43.8713 19.7551C43.3932 19.7551 42.991 19.9106 42.6645 20.2215C42.342 20.5285 42.1807 20.9366 42.1807 21.4457V24.5587H41.3062V19.0381H42.169V19.8251C42.3789 19.5142 42.649 19.2868 42.9793 19.143C43.3097 18.9992 43.6594 18.9273 44.0286 18.9273C44.5067 18.9273 44.9264 19.0303 45.2878 19.2363C45.6493 19.4384 45.9194 19.7221 46.0981 20.0874C46.3041 19.6871 46.5937 19.3937 46.9668 19.2072C47.3437 19.0206 47.7479 18.9273 48.1793 18.9273ZM54.7846 18.9273C55.5347 18.9273 56.1526 19.1936 56.6384 19.726C57.1281 20.2584 57.3749 20.9424 57.3787 21.778C57.3787 21.8985 57.3729 22.0073 57.3613 22.1045H52.9366C52.9949 22.6796 53.2048 23.1246 53.5662 23.4394C53.9276 23.7503 54.3687 23.9058 54.8895 23.9058C55.5502 23.9058 56.1332 23.6746 56.6384 23.2121L57.1048 23.8067C56.5024 24.3819 55.7465 24.6695 54.837 24.6695C54.017 24.6695 53.3466 24.4052 52.8258 23.8767C52.3051 23.3442 52.0447 22.6524 52.0447 21.8013C52.0447 20.9619 52.3031 20.274 52.82 19.7377C53.3369 19.1974 53.9918 18.9273 54.7846 18.9273ZM54.7671 19.7027C54.2696 19.7027 53.8596 19.8581 53.5371 20.169C53.2145 20.48 53.0182 20.89 52.9483 21.3991H56.4926C56.4382 20.8822 56.2536 20.4702 55.9388 20.1632C55.6279 19.8562 55.2373 19.7027 54.7671 19.7027ZM62.6914 19.0381V19.8251H60.3071V22.6116C60.3071 23.0275 60.4062 23.3384 60.6044 23.5444C60.8026 23.7503 61.0688 23.8533 61.4031 23.8533C61.8189 23.8533 62.2056 23.7231 62.5631 23.4628L62.9712 24.1215C62.4893 24.4868 61.9433 24.6695 61.3331 24.6695C60.7268 24.6695 60.2585 24.5004 59.9282 24.1623C59.6017 23.8203 59.4385 23.3092 59.4385 22.6291V19.8251H58.2318V19.0381H59.4385V17.2834H60.3071V19.0381H62.6914ZM65.1005 16.1641V19.8076C65.3142 19.5045 65.5843 19.2829 65.9108 19.143C66.2372 18.9992 66.5831 18.9273 66.9484 18.9273C67.6325 18.9273 68.1863 19.1294 68.6099 19.5336C69.0374 19.9378 69.2511 20.4722 69.2511 21.1368V24.5587H68.3825V21.4224C68.3825 20.8977 68.2426 20.4897 67.9628 20.1982C67.6869 19.9028 67.2963 19.7551 66.791 19.7551C66.313 19.7551 65.9108 19.9106 65.5843 20.2215C65.2618 20.5285 65.1005 20.9366 65.1005 21.4457V24.5587H64.226V16.1641H65.1005ZM76.1057 19.0381L71.6111 26.9139H70.6492L72.7071 23.3637L70.1712 19.0381H71.1447L73.2026 22.5009L75.1497 19.0381H76.1057ZM78.0918 16.1641V24.5587H77.2173V16.1641H78.0918ZM84.2187 19.5336L83.8397 20.2099C83.6376 20.0699 83.3714 19.9495 83.0411 19.8484C82.7146 19.7435 82.3785 19.691 82.0326 19.691C81.6362 19.691 81.3194 19.7687 81.0823 19.9242C80.8453 20.0797 80.7267 20.2915 80.7267 20.5596C80.7267 20.9871 81.1018 21.2456 81.8518 21.335L82.5048 21.4166C83.7406 21.5759 84.3586 22.0889 84.3586 22.9556C84.3586 23.4802 84.139 23.8961 83.6998 24.2031C83.2607 24.5101 82.6699 24.6636 81.9276 24.6636C81.0143 24.6636 80.2468 24.4285 79.6249 23.9583L80.0272 23.3054C80.5402 23.7057 81.1776 23.9058 81.9393 23.9058C82.4134 23.9058 82.7846 23.83 83.0527 23.6784C83.3248 23.523 83.4608 23.3015 83.4608 23.0139C83.4608 22.5708 83.0761 22.3027 82.3066 22.2094L81.6478 22.1336C81.0376 22.0598 80.581 21.8927 80.2779 21.6323C79.9747 21.368 79.8232 21.026 79.8232 20.6063C79.8232 20.0894 80.0233 19.6813 80.4236 19.3821C80.8239 19.0828 81.3583 18.9332 82.0267 18.9332C82.4503 18.9332 82.8526 18.9876 83.2335 19.0964C83.6143 19.2052 83.9427 19.351 84.2187 19.5336ZM90.8313 19.0381V22.256C90.8313 22.6524 90.7633 23.008 90.6273 23.3228C90.4912 23.6338 90.3066 23.8864 90.0735 24.0807C89.8403 24.275 89.5741 24.4227 89.2748 24.5237C88.9794 24.6209 88.6627 24.6695 88.3246 24.6695C87.9826 24.6695 87.662 24.6209 87.3627 24.5237C87.0673 24.4227 86.8031 24.275 86.5699 24.0807C86.3367 23.8864 86.1521 23.6338 86.0161 23.3228C85.8839 23.008 85.8179 22.6524 85.8179 22.256V19.0381H86.6865V22.1744C86.6865 22.7263 86.8361 23.1441 87.1354 23.4278C87.4346 23.7115 87.831 23.8533 88.3246 23.8533C88.8182 23.8533 89.2126 23.7115 89.508 23.4278C89.8072 23.1441 89.9569 22.7263 89.9569 22.1744V19.0381H90.8313ZM93.6791 16.1641V24.5587H92.8046V16.1641H93.6791ZM99.3396 19.0381V19.8251H97.1418V24.5587H96.2674V19.8251H95.0082V19.0381H96.2674V18.0937C96.2674 17.468 96.417 16.9725 96.7163 16.6072C97.0155 16.238 97.478 16.0534 98.1037 16.0534C98.6595 16.0534 99.1627 16.1913 99.6136 16.4673L99.2988 17.196C98.9296 16.9783 98.5506 16.8695 98.162 16.8695C97.4819 16.8695 97.1418 17.2776 97.1418 18.0937V19.0381H99.3396ZM101.626 19.0381V24.5587L100.752 24.5587V19.0381H101.626ZM101.189 16.4614C101.36 16.4614 101.506 16.5217 101.626 16.6422C101.747 16.7587 101.807 16.9045 101.807 17.0794C101.807 17.2543 101.747 17.4 101.626 17.5166C101.51 17.6332 101.364 17.6915 101.189 17.6915C101.014 17.6915 100.869 17.6332 100.752 17.5166C100.635 17.4 100.577 17.2543 100.577 17.0794C100.577 16.9045 100.635 16.7587 100.752 16.6422C100.869 16.5217 101.014 16.4614 101.189 16.4614ZM106.004 18.9273C106.863 18.9273 107.536 19.2383 108.021 19.8601V16.1641H108.89V24.5587H108.021V23.7367C107.54 24.3586 106.867 24.6695 106.004 24.6695C105.223 24.6695 104.568 24.3974 104.04 23.8533C103.511 23.3054 103.247 22.6194 103.247 21.7955C103.247 20.9716 103.511 20.2876 104.04 19.7435C104.568 19.1994 105.223 18.9273 106.004 18.9273ZM106.109 19.7435C105.526 19.7435 105.05 19.9417 104.681 20.3381C104.316 20.7306 104.133 21.2164 104.133 21.7955C104.133 22.3746 104.318 22.8623 104.687 23.2587C105.056 23.6551 105.53 23.8533 106.109 23.8533C106.681 23.8533 107.151 23.659 107.52 23.2704C107.889 22.8779 108.074 22.3862 108.074 21.7955C108.074 21.2087 107.889 20.7209 107.52 20.3323C107.151 19.9397 106.681 19.7435 106.109 19.7435ZM113.251 18.9273C114.001 18.9273 114.619 19.1936 115.105 19.726C115.595 20.2584 115.841 20.9424 115.845 21.778C115.845 21.8985 115.839 22.0073 115.828 22.1045H111.403C111.461 22.6796 111.671 23.1246 112.033 23.4394C112.394 23.7503 112.835 23.9058 113.356 23.9058C114.017 23.9058 114.6 23.6746 115.105 23.2121L115.571 23.8067C114.969 24.3819 114.213 24.6695 113.304 24.6695C112.484 24.6695 111.813 24.4052 111.292 23.8767C110.772 23.3442 110.511 22.6524 110.511 21.8013C110.511 20.9619 110.77 20.274 111.287 19.7377C111.803 19.1974 112.458 18.9273 113.251 18.9273ZM113.234 19.7027C112.736 19.7027 112.326 19.8581 112.004 20.169C111.681 20.48 111.485 20.89 111.415 21.3991H114.959C114.905 20.8822 114.72 20.4702 114.405 20.1632C114.094 19.8562 113.704 19.7027 113.234 19.7027Z" fill="#231F20"/>
<path d="M0.557617 27.5587H26.5044V39.6842H12.6831C5.9864 39.6842 0.557617 34.2555 0.557617 27.5587V27.5587Z" fill="white"/>
<rect x="26.5049" y="27.5587" width="92.1064" height="12.1255" fill="white"/>
<path d="M118.61 27.5587H144.557V27.5587C144.557 34.2555 139.128 39.6842 132.432 39.6842H118.61V27.5587Z" fill="white"/>
<g clip-path="url(#clip1_214_14122)">
<path d="M100.248 39.6842H44.8672V60.0877H100.248V39.6842Z" fill="white"/>
<path d="M57.3037 55.0354L63.7162 51.3434" stroke="#231F20" stroke-width="0.971596"/>
<path d="M63.7168 51.3433L70.2265 47.5541" stroke="#CFCF37" stroke-width="0.971596"/>
<path d="M87.52 55.0354L81.1074 51.3434" stroke="#231F20" stroke-width="0.971596"/>
<path d="M81.1073 51.3433L74.5977 47.5541" stroke="#CFCF37" stroke-width="0.971596"/>
<path d="M71.0029 48.0399C71.0677 48.0399 71.1648 48.0723 71.2944 48.1371C71.4239 48.2019 71.5859 48.2666 71.7802 48.3314C71.9745 48.3314 72.1364 48.3314 72.266 48.3314C72.5899 48.3314 72.8489 48.2666 73.0433 48.1371C73.2376 47.9428 73.3347 47.7161 73.3347 47.457C73.3347 47.3274 73.27 47.1979 73.1404 47.0683C73.0757 46.9388 72.9785 46.8416 72.8489 46.7768C72.7194 46.7121 72.5251 46.6473 72.266 46.5825C71.9421 46.5178 71.7154 46.4206 71.5859 46.2911C71.3916 46.2263 71.2296 46.0967 71.1001 45.9024C70.9705 45.7729 70.9058 45.5462 70.9058 45.2223C70.9058 44.8337 71.0677 44.5098 71.3915 44.2507C71.6506 43.9916 72.0717 43.8621 72.6546 43.8621C72.9785 43.8621 73.3671 43.9592 73.8205 44.1535L73.7234 44.6393C73.27 44.5098 72.9137 44.445 72.6546 44.445C72.3308 44.445 72.0717 44.5098 71.8773 44.6393C71.683 44.7689 71.5859 44.9308 71.5859 45.1251C71.5859 45.3195 71.6506 45.4814 71.7802 45.6109C71.845 45.6757 71.9421 45.7405 72.0717 45.8053C72.2012 45.87 72.3955 45.9348 72.6546 45.9996C72.9137 46.1291 73.1404 46.2263 73.3347 46.2911C73.5291 46.4206 73.691 46.5825 73.8205 46.7768C73.9501 46.9064 74.0149 47.1331 74.0149 47.457C74.0149 47.9104 73.8529 48.2666 73.5291 48.5257C73.2052 48.7848 72.8166 48.9144 72.3631 48.9144C72.0393 48.9144 71.7802 48.882 71.5859 48.8172C71.3268 48.7524 71.0677 48.6553 70.8086 48.5257L71.0029 48.0399Z" fill="#CFCF37"/>
</g>
</g>
<rect x="1.30739" y="1.18165" width="142.5" height="85.5005" rx="3.13661" stroke="white" stroke-width="1.49954"/>
<defs>
<clipPath id="clip0_214_14122">
<rect x="0.557617" y="0.431885" width="144" height="87" rx="3.88638" fill="white"/>
</clipPath>
<clipPath id="clip1_214_14122">
<rect width="55.381" height="20.4035" fill="white" transform="translate(44.8672 39.6842)"/>
</clipPath>
</defs>
</svg>
