<svg width="143" height="88" viewBox="0 0 143 88" fill="none" xmlns="http://www.w3.org/2000/svg">
<g clip-path="url(#clip0_214_14110)">
<rect x="0.870117" y="0.431885" width="142" height="87" rx="3.88638" fill="white"/>
<path d="M0.870117 12.5587C0.870117 5.86123 6.29946 0.431885 12.9969 0.431885L26.8169 0.431885V12.5587L0.870117 12.5587V12.5587Z" fill="white"/>
<rect x="26.8174" y="0.431885" width="90.1064" height="12.1268" fill="white"/>
<path d="M116.923 0.431885L130.743 0.431885C137.44 0.431885 142.87 5.86123 142.87 12.5587V12.5587L116.923 12.5587V0.431885Z" fill="white"/>
<rect width="142" height="15" transform="translate(0.870117 12.5587)" fill="white"/>
<path d="M28.6315 21.2767H26.4863V24.5587H25.5477V16.3973H28.6315C29.5448 16.3973 30.2541 16.613 30.7593 17.0444C31.2646 17.4758 31.5172 18.0743 31.5172 18.8399C31.5172 19.6055 31.2646 20.204 30.7593 20.6354C30.2541 21.0629 29.5448 21.2767 28.6315 21.2767ZM28.6024 17.2834H26.4863V20.3964H28.6024C29.2359 20.3964 29.7178 20.2662 30.0481 20.0058C30.3785 19.7454 30.5436 19.3568 30.5436 18.8399C30.5436 18.323 30.3785 17.9344 30.0481 17.674C29.7178 17.4136 29.2359 17.2834 28.6024 17.2834ZM35.6336 18.9273C36.0378 18.9273 36.3759 18.9895 36.6479 19.1139L36.4381 19.9708C36.166 19.8232 35.8473 19.7493 35.482 19.7493C35.0467 19.7493 34.6911 19.9067 34.4152 20.2215C34.1393 20.5363 34.0013 20.9522 34.0013 21.469V24.5587H33.1327V19.0381H33.9955V19.8134C34.1859 19.5297 34.421 19.3121 34.7009 19.1605C34.9846 19.0051 35.2955 18.9273 35.6336 18.9273ZM40.2274 18.9273C41.0591 18.9273 41.7508 19.2013 42.3027 19.7493C42.8585 20.2973 43.1363 20.9794 43.1363 21.7955C43.1363 22.6155 42.8585 23.2995 42.3027 23.8475C41.7508 24.3955 41.0591 24.6695 40.2274 24.6695C39.3957 24.6695 38.7039 24.3955 38.1521 23.8475C37.6002 23.2995 37.3243 22.6155 37.3243 21.7955C37.3243 20.9794 37.6002 20.2973 38.1521 19.7493C38.7078 19.2013 39.3996 18.9273 40.2274 18.9273ZM41.6673 20.3264C41.2825 19.9378 40.8026 19.7435 40.2274 19.7435C39.6522 19.7435 39.1722 19.9378 38.7875 20.3264C38.4027 20.7151 38.2103 21.2048 38.2103 21.7955C38.2103 22.3901 38.4027 22.8817 38.7875 23.2704C39.1722 23.659 39.6522 23.8533 40.2274 23.8533C40.8026 23.8533 41.2825 23.659 41.6673 23.2704C42.052 22.8817 42.2444 22.3901 42.2444 21.7955C42.2444 21.2048 42.052 20.7151 41.6673 20.3264ZM47.6433 18.9273C48.4245 18.9273 49.0793 19.1994 49.6079 19.7435C50.1364 20.2876 50.4007 20.9716 50.4007 21.7955C50.4007 22.6194 50.1364 23.3054 49.6079 23.8533C49.0793 24.3974 48.4245 24.6695 47.6433 24.6695C46.7844 24.6695 46.114 24.3605 45.6321 23.7426V26.8905H44.7577V19.0381H45.6321V19.8542C46.114 19.2363 46.7844 18.9273 47.6433 18.9273ZM47.5384 19.7435C46.9671 19.7435 46.4968 19.9397 46.1276 20.3323C45.7584 20.7209 45.5738 21.2087 45.5738 21.7955C45.5738 22.3862 45.7584 22.8779 46.1276 23.2704C46.4968 23.659 46.9671 23.8533 47.5384 23.8533C48.1214 23.8533 48.5955 23.6571 48.9608 23.2645C49.3261 22.8681 49.5088 22.3785 49.5088 21.7955C49.5088 21.2164 49.3242 20.7306 48.955 20.3381C48.5858 19.9417 48.1136 19.7435 47.5384 19.7435ZM52.8963 19.0381V24.5587H52.0219V19.0381H52.8963ZM52.4591 16.4614C52.6301 16.4614 52.7758 16.5217 52.8963 16.6422C53.0168 16.7587 53.077 16.9045 53.077 17.0794C53.077 17.2543 53.0168 17.4 52.8963 17.5166C52.7797 17.6332 52.634 17.6915 52.4591 17.6915C52.2842 17.6915 52.1385 17.6332 52.0219 17.5166C51.9053 17.4 51.847 17.2543 51.847 17.0794C51.847 16.9045 51.9053 16.7587 52.0219 16.6422C52.1385 16.5217 52.2842 16.4614 52.4591 16.4614ZM57.4201 18.9273C58.2518 18.9273 58.9435 19.2013 59.4954 19.7493C60.0512 20.2973 60.329 20.9794 60.329 21.7955C60.329 22.6155 60.0512 23.2995 59.4954 23.8475C58.9435 24.3955 58.2518 24.6695 57.4201 24.6695C56.5884 24.6695 55.8966 24.3955 55.3447 23.8475C54.7929 23.2995 54.5169 22.6155 54.5169 21.7955C54.5169 20.9794 54.7929 20.2973 55.3447 19.7493C55.9005 19.2013 56.5923 18.9273 57.4201 18.9273ZM58.86 20.3264C58.4752 19.9378 57.9953 19.7435 57.4201 19.7435C56.8449 19.7435 56.3649 19.9378 55.9802 20.3264C55.5954 20.7151 55.403 21.2048 55.403 21.7955C55.403 22.3901 55.5954 22.8817 55.9802 23.2704C56.3649 23.659 56.8449 23.8533 57.4201 23.8533C57.9953 23.8533 58.4752 23.659 58.86 23.2704C59.2447 22.8817 59.4371 22.3901 59.4371 21.7955C59.4371 21.2048 59.2447 20.7151 58.86 20.3264ZM64.6728 18.9273C65.3568 18.9273 65.9106 19.1294 66.3342 19.5336C66.7617 19.9378 66.9755 20.4722 66.9755 21.1368V24.5587H66.1069V21.4224C66.1069 20.8977 65.967 20.4897 65.6871 20.1982C65.4112 19.9028 65.0206 19.7551 64.5154 19.7551C64.0374 19.7551 63.6351 19.9106 63.3087 20.2215C62.9861 20.5285 62.8248 20.9366 62.8248 21.4457V24.5587H61.9504V19.0381H62.8132V19.8251C63.023 19.5142 63.2931 19.2868 63.6235 19.143C63.9538 18.9992 64.3036 18.9273 64.6728 18.9273ZM74.176 19.0381V24.5587H73.3074V23.7367C72.8255 24.3586 72.1531 24.6695 71.2904 24.6695C70.5092 24.6695 69.8544 24.3974 69.3258 23.8533C68.7973 23.3054 68.533 22.6194 68.533 21.7955C68.533 20.9716 68.7973 20.2876 69.3258 19.7435C69.8544 19.1994 70.5092 18.9273 71.2904 18.9273C72.1493 18.9273 72.8216 19.2383 73.3074 19.8601V19.0381H74.176ZM71.3953 19.7435C70.8123 19.7435 70.3363 19.9417 69.9671 20.3381C69.6017 20.7306 69.4191 21.2164 69.4191 21.7955C69.4191 22.3746 69.6037 22.8623 69.9729 23.2587C70.3421 23.6551 70.8162 23.8533 71.3953 23.8533C71.9666 23.8533 72.4369 23.659 72.8061 23.2704C73.1753 22.8779 73.3599 22.3862 73.3599 21.7955C73.3599 21.2087 73.1753 20.7209 72.8061 20.3323C72.4369 19.9397 71.9666 19.7435 71.3953 19.7435ZM77.0913 16.1641V24.5587H76.2169V16.1641H77.0913ZM81.4694 18.9273C82.3282 18.9273 83.0006 19.2383 83.4864 19.8601V16.1641H84.355V24.5587H83.4864V23.7367C83.0045 24.3586 82.3321 24.6695 81.4694 24.6695C80.6882 24.6695 80.0333 24.3974 79.5048 23.8533C78.9762 23.3054 78.712 22.6194 78.712 21.7955C78.712 20.9716 78.9762 20.2876 79.5048 19.7435C80.0333 19.1994 80.6882 18.9273 81.4694 18.9273ZM81.5743 19.7435C80.9913 19.7435 80.5152 19.9417 80.146 20.3381C79.7807 20.7306 79.5981 21.2164 79.5981 21.7955C79.5981 22.3746 79.7827 22.8623 80.1519 23.2587C80.5211 23.6551 80.9952 23.8533 81.5743 23.8533C82.1456 23.8533 82.6158 23.659 82.985 23.2704C83.3543 22.8779 83.5389 22.3862 83.5389 21.7955C83.5389 21.2087 83.3543 20.7209 82.985 20.3323C82.6158 19.9397 82.1456 19.7435 81.5743 19.7435ZM88.7161 18.9273C89.4661 18.9273 90.0841 19.1936 90.5699 19.726C91.0595 20.2584 91.3063 20.9424 91.3102 21.778C91.3102 21.8985 91.3044 22.0073 91.2927 22.1045H86.8681C86.9264 22.6796 87.1362 23.1246 87.4977 23.4394C87.8591 23.7503 88.3002 23.9058 88.821 23.9058C89.4817 23.9058 90.0646 23.6746 90.5699 23.2121L91.0362 23.8067C90.4338 24.3819 89.6779 24.6695 88.7685 24.6695C87.9485 24.6695 87.2781 24.4052 86.7573 23.8767C86.2365 23.3442 85.9762 22.6524 85.9762 21.8013C85.9762 20.9619 86.2346 20.274 86.7515 19.7377C87.2684 19.1974 87.9232 18.9273 88.7161 18.9273ZM88.6986 19.7027C88.2011 19.7027 87.7911 19.8581 87.4685 20.169C87.146 20.48 86.9497 20.89 86.8797 21.3991H90.4241C90.3697 20.8822 90.1851 20.4702 89.8703 20.1632C89.5594 19.8562 89.1688 19.7027 88.6986 19.7027ZM93.8058 16.1641V19.8076C94.0196 19.5045 94.2897 19.2829 94.6161 19.143C94.9426 18.9992 95.2885 18.9273 95.6538 18.9273C96.3378 18.9273 96.8916 19.1294 97.3152 19.5336C97.7427 19.9378 97.9565 20.4722 97.9565 21.1368V24.5587H97.0879V21.4224C97.0879 20.8977 96.948 20.4897 96.6682 20.1982C96.3922 19.9028 96.0016 19.7551 95.4964 19.7551C95.0184 19.7551 94.6161 19.9106 94.2897 20.2215C93.9671 20.5285 93.8058 20.9366 93.8058 21.4457V24.5587H92.9314V16.1641H93.8058ZM104.811 19.0381L100.316 26.9139H99.3546L101.412 23.3637L98.8766 19.0381H99.8501L101.908 22.5009L103.855 19.0381L104.811 19.0381ZM108.158 18.9273C109.017 18.9273 109.689 19.2383 110.175 19.8601V16.1641H111.044V24.5587H110.175V23.7367C109.693 24.3586 109.021 24.6695 108.158 24.6695C107.377 24.6695 106.722 24.3974 106.193 23.8533C105.665 23.3054 105.4 22.6194 105.4 21.7955C105.4 20.9716 105.665 20.2876 106.193 19.7435C106.722 19.1994 107.377 18.9273 108.158 18.9273ZM108.263 19.7435C107.68 19.7435 107.204 19.9417 106.835 20.3381C106.469 20.7306 106.287 21.2164 106.287 21.7955C106.287 22.3746 106.471 22.8623 106.84 23.2587C107.21 23.6551 107.684 23.8533 108.263 23.8533C108.834 23.8533 109.304 23.659 109.674 23.2704C110.043 22.8779 110.227 22.3862 110.227 21.7955C110.227 21.2087 110.043 20.7209 109.674 20.3323C109.304 19.9397 108.834 19.7435 108.263 19.7435ZM115.405 18.9273C116.155 18.9273 116.773 19.1936 117.258 19.726C117.748 20.2584 117.995 20.9424 117.999 21.778C117.999 21.8985 117.993 22.0073 117.981 22.1045H113.557C113.615 22.6796 113.825 23.1246 114.186 23.4394C114.548 23.7503 114.989 23.9058 115.51 23.9058C116.17 23.9058 116.753 23.6746 117.258 23.2121L117.725 23.8067C117.122 24.3819 116.366 24.6695 115.457 24.6695C114.637 24.6695 113.967 24.4052 113.446 23.8767C112.925 23.3442 112.665 22.6524 112.665 21.8013C112.665 20.9619 112.923 20.274 113.44 19.7377C113.957 19.1974 114.612 18.9273 115.405 18.9273ZM115.387 19.7027C114.89 19.7027 114.48 19.8581 114.157 20.169C113.834 20.48 113.638 20.89 113.568 21.3991H117.113C117.058 20.8822 116.874 20.4702 116.559 20.1632C116.248 19.8562 115.857 19.7027 115.387 19.7027Z" fill="#231F20"/>
<path d="M0.870117 27.5587H26.8169V39.6842H12.9956C6.2989 39.6842 0.870117 34.2555 0.870117 27.5587V27.5587Z" fill="white"/>
<rect x="26.8174" y="27.5587" width="90.1064" height="12.1255" fill="white"/>
<path d="M116.923 27.5587H142.87V27.5587C142.87 34.2555 137.441 39.6842 130.744 39.6842H116.923V27.5587Z" fill="white"/>
<g clip-path="url(#clip1_214_14110)">
<path d="M115.592 39.6842L28.1484 39.6842V58.1445L115.592 58.1445V39.6842Z" fill="white"/>
<path d="M47.8721 50.4689L64.0006 43.6677" stroke="#231F20" stroke-width="0.971596"/>
<path d="M64.001 43.6677L77.992 54.161" stroke="#231F20" stroke-width="0.971596"/>
<path d="M77.9912 54.161L84.5981 51.3434" stroke="#231F20" stroke-width="0.971596"/>
<path d="M84.5977 51.3434L91.2045 48.5258" stroke="#FF6A00" stroke-width="0.971596"/>
<path d="M78.3799 51.149L83.5293 48.9143" stroke="#231F20" stroke-width="0.971596"/>
<path d="M83.5293 48.9143L90.2333 46.0967" stroke="#FF6A00" stroke-width="0.971596"/>
<path d="M63.2227 43.9592L63.9999 43.6677L64.68 44.1535" stroke="#231F20" stroke-width="0.971596"/>
<path d="M77.3105 53.5781L77.9907 54.1611L78.2821 53.9668" stroke="#231F20" stroke-width="0.971596"/>
<path d="M91.3018 46.0967C91.3018 45.3194 91.4961 44.7041 91.8847 44.2507C92.2734 43.7973 92.8239 43.5706 93.5364 43.5706C94.3137 43.5706 94.8967 43.7973 95.2853 44.2507C95.6739 44.7041 95.8683 45.3194 95.8683 46.0967C95.8683 46.874 95.6416 47.5217 95.1881 48.0399C94.7995 48.4933 94.2489 48.72 93.5364 48.72C92.8239 48.72 92.2734 48.4933 91.8847 48.0399C91.4961 47.5865 91.3018 46.9388 91.3018 46.0967ZM93.5364 48.1371C94.0546 48.1371 94.4433 47.9751 94.7023 47.6513C94.9614 47.2626 95.091 46.7444 95.091 46.0967C95.091 45.449 94.9614 44.9632 94.7023 44.6393C94.4433 44.3154 94.0546 44.1535 93.5364 44.1535C93.0182 44.1535 92.6296 44.3154 92.3705 44.6393C92.1114 44.9632 91.9819 45.449 91.9819 46.0967C91.9819 46.7444 92.1114 47.2626 92.3705 47.6513C92.6296 47.9751 93.0182 48.1371 93.5364 48.1371Z" fill="#FF6A00"/>
</g>
</g>
<rect x="1.61989" y="1.18165" width="140.5" height="85.5005" rx="3.13661" stroke="white" stroke-width="1.49954"/>
<defs>
<clipPath id="clip0_214_14110">
<rect x="0.870117" y="0.431885" width="142" height="87" rx="3.88638" fill="white"/>
</clipPath>
<clipPath id="clip1_214_14110">
<rect width="87.4436" height="18.4603" fill="white" transform="translate(28.1484 39.6842)"/>
</clipPath>
</defs>
</svg>
