<svg width="143" height="88" viewBox="0 0 143 88" fill="none" xmlns="http://www.w3.org/2000/svg">
<g clip-path="url(#clip0_214_14397)">
<rect x="0.806641" y="0.431885" width="142" height="87" rx="3.88638" fill="white"/>
<path d="M0.806641 11.6568C0.806641 4.95938 6.23599 -0.469971 12.9334 -0.469971H26.7534V11.6568H0.806641V11.6568Z" fill="white"/>
<rect x="26.7539" y="-0.469971" width="90.1064" height="12.1268" fill="white"/>
<path d="M116.859 -0.469971L130.679 -0.469971C137.377 -0.469971 142.806 4.95938 142.806 11.6568V11.6568H116.859V-0.469971Z" fill="white"/>
<rect width="142" height="15" transform="translate(0.806641 11.6569)" fill="white"/>
<path d="M44.5304 15.4955V23.6569H43.5918V16.5448L40.747 22.7533H39.7618L36.9228 16.5914V23.6569H35.9842V15.4955H37.4066L40.2573 21.6631L43.1021 15.4955H44.5304ZM49.0433 18.0255C49.7934 18.0255 50.4113 18.2917 50.8971 18.8241C51.3868 19.3566 51.6336 20.0406 51.6374 20.8762C51.6374 20.9966 51.6316 21.1054 51.62 21.2026H47.1953C47.2536 21.7778 47.4635 22.2228 47.8249 22.5376C48.1863 22.8485 48.6274 23.0039 49.1482 23.0039C49.8089 23.0039 50.3919 22.7727 50.8971 22.3102L51.3635 22.9048C50.7611 23.48 50.0052 23.7676 49.0958 23.7676C48.2757 23.7676 47.6053 23.5033 47.0845 22.9748C46.5638 22.4424 46.3034 21.7506 46.3034 20.8995C46.3034 20.06 46.5618 19.3721 47.0787 18.8358C47.5956 18.2956 48.2505 18.0255 49.0433 18.0255ZM49.0258 18.8008C48.5283 18.8008 48.1183 18.9563 47.7958 19.2672C47.4732 19.5781 47.2769 19.9881 47.207 20.4972H50.7513C50.6969 19.9803 50.5123 19.5684 50.1975 19.2614C49.8866 18.9543 49.496 18.8008 49.0258 18.8008ZM56.9501 18.1363V18.9232H54.5658V21.7098C54.5658 22.1256 54.6649 22.4365 54.8631 22.6425C55.0613 22.8485 55.3275 22.9515 55.6618 22.9515C56.0776 22.9515 56.4643 22.8213 56.8219 22.5609L57.2299 23.2196C56.748 23.585 56.202 23.7676 55.5918 23.7676C54.9855 23.7676 54.5172 23.5986 54.1869 23.2604C53.8604 22.9184 53.6972 22.4074 53.6972 21.7273V18.9232H52.4905V18.1363H53.6972V16.3815H54.5658V18.1363H56.9501ZM59.3592 15.2623V18.9058C59.5729 18.6026 59.843 18.3811 60.1695 18.2412C60.4959 18.0974 60.8418 18.0255 61.2071 18.0255C61.8912 18.0255 62.445 18.2276 62.8686 18.6318C63.2961 19.0359 63.5098 19.5703 63.5098 20.2349V23.6569H62.6412V20.5205C62.6412 19.9959 62.5013 19.5878 62.2215 19.2963C61.9456 19.001 61.555 18.8533 61.0498 18.8533C60.5717 18.8533 60.1695 19.0087 59.843 19.3197C59.5205 19.6267 59.3592 20.0348 59.3592 20.5439V23.6569H58.4847V15.2623H59.3592ZM70.7104 18.1363V23.6569H69.8418V22.8349C69.3598 23.4567 68.6875 23.7676 67.8247 23.7676C67.0436 23.7676 66.3887 23.4956 65.8602 22.9515C65.3316 22.4035 65.0673 21.7176 65.0673 20.8936C65.0673 20.0697 65.3316 19.3857 65.8602 18.8416C66.3887 18.2975 67.0436 18.0255 67.8247 18.0255C68.6836 18.0255 69.356 18.3364 69.8418 18.9582V18.1363H70.7104ZM67.9297 18.8416C67.3467 18.8416 66.8706 19.0398 66.5014 19.4362C66.1361 19.8288 65.9534 20.3146 65.9534 20.8936C65.9534 21.4727 66.138 21.9605 66.5072 22.3569C66.8764 22.7533 67.3506 22.9515 67.9297 22.9515C68.501 22.9515 68.9712 22.7572 69.3404 22.3685C69.7096 21.976 69.8942 21.4844 69.8942 20.8936C69.8942 20.3068 69.7096 19.8191 69.3404 19.4304C68.9712 19.0379 68.501 18.8416 67.9297 18.8416ZM75.188 18.0255C75.6 18.0255 75.9828 18.1013 76.3364 18.2528C76.6901 18.4005 76.9894 18.6143 77.2342 18.8941L76.6746 19.4829C76.2354 19.0554 75.7321 18.8416 75.1647 18.8416C74.609 18.8416 74.1445 19.0359 73.7714 19.4246C73.4022 19.8132 73.2176 20.3029 73.2176 20.8936C73.2176 21.4883 73.4022 21.9799 73.7714 22.3685C74.1445 22.7572 74.609 22.9515 75.1647 22.9515C75.7399 22.9515 76.249 22.7358 76.6921 22.3044L77.2342 22.899C76.9855 23.1788 76.6843 23.3945 76.3306 23.5461C75.977 23.6938 75.5961 23.7676 75.188 23.7676C74.3486 23.7676 73.6626 23.4956 73.1302 22.9515C72.5977 22.4074 72.3315 21.7214 72.3315 20.8936C72.3315 20.0697 72.5977 19.3857 73.1302 18.8416C73.6626 18.2975 74.3486 18.0255 75.188 18.0255ZM81.2184 18.0255C81.6225 18.0255 81.9607 18.0877 82.2327 18.212L82.0228 19.069C81.7508 18.9213 81.4321 18.8475 81.0668 18.8475C80.6315 18.8475 80.2759 19.0049 80 19.3197C79.724 19.6345 79.5861 20.0503 79.5861 20.5672V23.6569H78.7175V18.1363H79.5802V18.9116C79.7707 18.6279 80.0058 18.4102 80.2856 18.2587C80.5693 18.1032 80.8802 18.0255 81.2184 18.0255ZM85.8121 18.0255C86.6438 18.0255 87.3356 18.2995 87.8875 18.8475C88.4432 19.3954 88.7211 20.0775 88.7211 20.8936C88.7211 21.7137 88.4432 22.3977 87.8875 22.9457C87.3356 23.4936 86.6438 23.7676 85.8121 23.7676C84.9805 23.7676 84.2887 23.4936 83.7368 22.9457C83.185 22.3977 82.909 21.7137 82.909 20.8936C82.909 20.0775 83.185 19.3954 83.7368 18.8475C84.2926 18.2995 84.9843 18.0255 85.8121 18.0255ZM87.2521 19.4246C86.8673 19.0359 86.3873 18.8416 85.8121 18.8416C85.237 18.8416 84.757 19.0359 84.3722 19.4246C83.9875 19.8132 83.7951 20.3029 83.7951 20.8936C83.7951 21.4883 83.9875 21.9799 84.3722 22.3685C84.757 22.7572 85.237 22.9515 85.8121 22.9515C86.3873 22.9515 86.8673 22.7572 87.2521 22.3685C87.6368 21.9799 87.8292 21.4883 87.8292 20.8936C87.8292 20.3029 87.6368 19.8132 87.2521 19.4246ZM91.2169 15.2623V23.6569H90.3425V15.2623H91.2169ZM95.5774 18.0255C96.3275 18.0255 96.9454 18.2917 97.4312 18.8241C97.9209 19.3566 98.1677 20.0406 98.1716 20.8762C98.1716 20.9966 98.1657 21.1054 98.1541 21.2026H93.7294C93.7877 21.7778 93.9976 22.2228 94.359 22.5376C94.7205 22.8485 95.1616 23.0039 95.6823 23.0039C96.343 23.0039 96.926 22.7727 97.4312 22.3102L97.8976 22.9048C97.2952 23.48 96.5393 23.7676 95.6299 23.7676C94.8099 23.7676 94.1395 23.5033 93.6187 22.9748C93.0979 22.4424 92.8375 21.7506 92.8375 20.8995C92.8375 20.06 93.096 19.3721 93.6128 18.8358C94.1297 18.2956 94.7846 18.0255 95.5774 18.0255ZM95.5599 18.8008C95.0625 18.8008 94.6525 18.9563 94.3299 19.2672C94.0073 19.5781 93.8111 19.9881 93.7411 20.4972H97.2855C97.2311 19.9803 97.0465 19.5684 96.7317 19.2614C96.4208 18.9543 96.0302 18.8008 95.5599 18.8008ZM100.667 18.1363V23.6569H99.7927V18.1363H100.667ZM100.23 15.5596C100.401 15.5596 100.547 15.6198 100.667 15.7403C100.788 15.8569 100.848 16.0026 100.848 16.1775C100.848 16.3524 100.788 16.4981 100.667 16.6147C100.551 16.7313 100.405 16.7896 100.23 16.7896C100.055 16.7896 99.9093 16.7313 99.7927 16.6147C99.6762 16.4981 99.6179 16.3524 99.6179 16.1775C99.6179 16.0026 99.6762 15.8569 99.7927 15.7403C99.9093 15.6198 100.055 15.5596 100.23 15.5596ZM105.43 18.0255C106.114 18.0255 106.668 18.2276 107.091 18.6318C107.519 19.0359 107.733 19.5703 107.733 20.2349V23.6569H106.864V20.5205C106.864 19.9959 106.724 19.5878 106.444 19.2963C106.168 19.001 105.778 18.8533 105.273 18.8533C104.795 18.8533 104.392 19.0087 104.066 19.3197C103.743 19.6267 103.582 20.0348 103.582 20.5439V23.6569H102.708V18.1363H103.57V18.9232C103.78 18.6123 104.05 18.385 104.381 18.2412C104.711 18.0974 105.061 18.0255 105.43 18.0255Z" fill="#231F20"/>
<g clip-path="url(#clip1_214_14397)">
<path d="M115.529 26.6569L28.085 26.6569V76.2082H115.529V26.6569Z" fill="white"/>
<path d="M49.2656 37.3444L65.1026 46.4774" stroke="#231F20" stroke-width="0.971596"/>
<path d="M47.9062 39.5791L63.7433 48.7121" stroke="#231F20" stroke-width="0.971596"/>
<path d="M63.7432 64.6462V47.1575" stroke="#231F20" stroke-width="0.971596"/>
<path d="M78.9001 38.4131L63.7432 47.1574" stroke="#231F20" stroke-width="0.971596"/>
<path d="M78.8994 38.4131L85.0205 42.008" stroke="#231F20" stroke-width="0.971596"/>
<path d="M85.0205 42.0082L91.2387 45.5059" stroke="#FF6A00" stroke-width="0.971596"/>
<path d="M78.8994 41.5223L83.7574 44.2428" stroke="#231F20" stroke-width="0.971596"/>
<path d="M83.7568 44.2427L89.8779 47.8376" stroke="#FF6A00" stroke-width="0.971596"/>
<path d="M78.1221 38.8989L78.8993 38.4131L79.1908 38.6074" stroke="#231F20" stroke-width="0.971596"/>
<path d="M63.7432 48.0319V47.1574L64.5204 46.7688" stroke="#231F20" stroke-width="0.971596"/>
<path d="M91.1416 48.3234C91.1416 47.5461 91.3359 46.9308 91.7246 46.4774C92.1132 46.0239 92.6638 45.7972 93.3763 45.7972C94.0888 45.7972 94.6393 46.0239 95.028 46.4774C95.4814 46.9308 95.7081 47.5461 95.7081 48.3234C95.7081 49.1654 95.4814 49.8132 95.028 50.2666C94.6393 50.72 94.0888 50.9467 93.3763 50.9467C92.6638 50.9467 92.1132 50.72 91.7246 50.2666C91.3359 49.8132 91.1416 49.1654 91.1416 48.3234ZM93.3763 50.3637C93.8945 50.3637 94.2831 50.2018 94.5422 49.8779C94.8013 49.4893 94.9308 48.9711 94.9308 48.3234C94.9308 47.6757 94.8013 47.1899 94.5422 46.866C94.2831 46.5421 93.8945 46.3802 93.3763 46.3802C92.8581 46.3802 92.4694 46.5421 92.2104 46.866C91.9513 47.1899 91.8217 47.6757 91.8217 48.3234C91.8217 48.9711 91.9513 49.4893 92.2104 49.8779C92.4694 50.2018 92.8581 50.3637 93.3763 50.3637Z" fill="#FF6A00"/>
</g>
<path d="M0.806641 76.2083H26.7534V88.3338H12.9322C6.23543 88.3338 0.806641 82.905 0.806641 76.2083V76.2083Z" fill="white"/>
<rect x="26.7539" y="76.2083" width="90.1064" height="12.1255" fill="white"/>
<path d="M116.859 76.2083H142.806V76.2083C142.806 82.905 137.377 88.3338 130.681 88.3338H116.859V76.2083Z" fill="white"/>
</g>
<rect x="1.55641" y="1.18165" width="140.5" height="85.5005" rx="3.13661" stroke="white" stroke-width="1.49954"/>
<defs>
<clipPath id="clip0_214_14397">
<rect x="0.806641" y="0.431885" width="142" height="87" rx="3.88638" fill="white"/>
</clipPath>
<clipPath id="clip1_214_14397">
<rect width="87.4436" height="49.5514" fill="white" transform="translate(28.085 26.6569)"/>
</clipPath>
</defs>
</svg>
