<svg width="145" height="88" viewBox="0 0 145 88" fill="none" xmlns="http://www.w3.org/2000/svg">
<g clip-path="url(#clip0_214_14469)">
<rect x="0.431641" y="0.431885" width="144" height="87" rx="3.88638" fill="white"/>
<path d="M0.431641 8.25618C0.431641 1.55874 5.86099 -3.87061 12.5584 -3.87061L26.3784 -3.87061V8.25618H0.431641V8.25618Z" fill="white"/>
<rect x="26.3789" y="-3.87061" width="92.1064" height="12.1268" fill="white"/>
<path d="M118.484 -3.87061L132.304 -3.87061C139.002 -3.87061 144.431 1.55874 144.431 8.25618V8.25618L118.484 8.25618V-3.87061Z" fill="white"/>
<rect width="144" height="15" transform="translate(0.431641 8.25623)" fill="white"/>
<path d="M33.0801 13.867L32.4272 13.3423C33.0334 12.4407 33.8671 11.9899 34.928 11.9899C35.7364 11.9899 36.3718 12.227 36.8343 12.7011C37.3007 13.1713 37.5339 13.7757 37.5339 14.5141C37.5339 14.9688 37.4328 15.3788 37.2307 15.7441C37.0325 16.1095 36.7682 16.4689 36.4379 16.8226L34.0011 19.3993H37.802V20.2562H32.6662V19.5508L35.75 16.2979C36.3097 15.7111 36.5895 15.1165 36.5895 14.5141C36.5895 14.0283 36.4398 13.6299 36.1406 13.319C35.8413 13.0042 35.4274 12.8468 34.8989 12.8468C34.4753 12.8468 34.1216 12.9382 33.8379 13.1208C33.5581 13.3035 33.3055 13.5522 33.0801 13.867ZM42.3482 16.776V17.5688H39.1069V16.776H42.3482ZM52.8932 12.0948V20.2562H51.9547V13.1441L49.1099 19.3526H48.1247L45.2856 13.1908V20.2562H44.3471V12.0948H45.7695L48.6202 18.2625L51.465 12.0948H52.8932ZM57.4062 14.6249C58.1562 14.6249 58.7742 14.8911 59.26 15.4235C59.7496 15.9559 59.9964 16.6399 60.0003 17.4755C60.0003 17.596 59.9945 17.7048 59.9828 17.802H55.5582C55.6165 18.3772 55.8263 18.8221 56.1878 19.1369C56.5492 19.4479 56.9903 19.6033 57.5111 19.6033C58.1718 19.6033 58.7547 19.3721 59.26 18.9096L59.7263 19.5042C59.1239 20.0794 58.368 20.367 57.4586 20.367C56.6386 20.367 55.9682 20.1027 55.4474 19.5742C54.9266 19.0417 54.6663 18.35 54.6663 17.4988C54.6663 16.6594 54.9247 15.9715 55.4416 15.4352C55.9585 14.895 56.6133 14.6249 57.4062 14.6249ZM57.3887 15.4002C56.8912 15.4002 56.4812 15.5556 56.1586 15.8666C55.8361 16.1775 55.6398 16.5875 55.5698 17.0966H59.1142C59.0598 16.5797 58.8752 16.1677 58.5604 15.8607C58.2495 15.5537 57.8589 15.4002 57.3887 15.4002ZM65.313 14.7356V15.5226H62.9287V18.3091C62.9287 18.725 63.0278 19.0359 63.226 19.2419C63.4242 19.4479 63.6904 19.5508 64.0246 19.5508C64.4405 19.5508 64.8272 19.4207 65.1847 19.1603L65.5928 19.819C65.1109 20.1843 64.5648 20.367 63.9547 20.367C63.3484 20.367 62.8801 20.1979 62.5498 19.8598C62.2233 19.5178 62.0601 19.0068 62.0601 18.3266V15.5226L60.8533 15.5226V14.7356L62.0601 14.7356V12.9809H62.9287V14.7356H65.313ZM67.722 11.8616V15.5051C67.9358 15.202 68.2059 14.9805 68.5324 14.8405C68.8588 14.6968 69.2047 14.6249 69.57 14.6249C70.254 14.6249 70.8078 14.8269 71.2315 15.2311C71.659 15.6353 71.8727 16.1697 71.8727 16.8343V20.2562H71.0041V17.1199C71.0041 16.5953 70.8642 16.1872 70.5844 15.8957C70.3084 15.6003 69.9179 15.4527 69.4126 15.4527C68.9346 15.4527 68.5324 15.6081 68.2059 15.919C67.8833 16.226 67.722 16.6341 67.722 17.1432V20.2562H66.8476V11.8616H67.722ZM78.7273 14.7356L74.2327 22.6114H73.2708L75.3286 19.0612L72.7928 14.7356H73.7663L75.8242 18.1984L77.7712 14.7356H78.7273ZM80.7133 11.8616V20.2562H79.8389V11.8616H80.7133ZM86.3739 14.7356V15.5226H84.1761V20.2562H83.3017V15.5226H82.0425V14.7356H83.3017V13.7912C83.3017 13.1655 83.4513 12.67 83.7506 12.3047C84.0498 11.9355 84.5123 11.7509 85.138 11.7509C85.6937 11.7509 86.197 11.8888 86.6479 12.1648L86.3331 12.8935C85.9638 12.6758 85.5849 12.567 85.1963 12.567C84.5162 12.567 84.1761 12.9751 84.1761 13.7912V14.7356H86.3739ZM92.6445 14.7356V17.9535C92.6445 18.35 92.5765 18.7056 92.4404 19.0204C92.3044 19.3313 92.1198 19.5839 91.8866 19.7782C91.6535 19.9725 91.3872 20.1202 91.088 20.2212C90.7926 20.3184 90.4759 20.367 90.1378 20.367C89.7958 20.367 89.4751 20.3184 89.1759 20.2212C88.8805 20.1202 88.6162 19.9725 88.3831 19.7782C88.1499 19.5839 87.9653 19.3313 87.8293 19.0204C87.6971 18.7056 87.631 18.35 87.631 17.9535V14.7356H88.4997V17.8719C88.4997 18.4238 88.6493 18.8416 88.9485 19.1253C89.2478 19.409 89.6442 19.5508 90.1378 19.5508C90.6313 19.5508 91.0258 19.409 91.3212 19.1253C91.6204 18.8416 91.77 18.4238 91.77 17.8719V14.7356H92.6445ZM97.1187 14.6249C97.5229 14.6249 97.861 14.687 98.133 14.8114L97.9232 15.6683C97.6511 15.5207 97.3324 15.4468 96.9671 15.4468C96.5318 15.4468 96.1762 15.6042 95.9003 15.919C95.6244 16.2338 95.4864 16.6497 95.4864 17.1666V20.2562H94.6178V14.7356H95.4806V15.511C95.671 15.2272 95.9061 15.0096 96.1859 14.858C96.4697 14.7026 96.7806 14.6249 97.1187 14.6249ZM104.452 14.7356V20.2562H103.584V19.4343C103.102 20.0561 102.43 20.367 101.567 20.367C100.786 20.367 100.131 20.0949 99.6022 19.5508C99.0736 19.0029 98.8094 18.3169 98.8094 17.493C98.8094 16.6691 99.0736 15.9851 99.6022 15.441C100.131 14.8969 100.786 14.6249 101.567 14.6249C102.426 14.6249 103.098 14.9358 103.584 15.5576V14.7356H104.452ZM101.672 15.441C101.089 15.441 100.613 15.6392 100.243 16.0356C99.8781 16.4281 99.6954 16.9139 99.6954 17.493C99.6954 18.0721 99.8801 18.5598 100.249 18.9562C100.618 19.3526 101.093 19.5508 101.672 19.5508C102.243 19.5508 102.713 19.3565 103.082 18.9679C103.452 18.5754 103.636 18.0837 103.636 17.493C103.636 16.9062 103.452 16.4184 103.082 16.0298C102.713 15.6373 102.243 15.441 101.672 15.441ZM109.216 14.6249C109.9 14.6249 110.453 14.8269 110.877 15.2311C111.305 15.6353 111.518 16.1697 111.518 16.8343V20.2562H110.65V17.1199C110.65 16.5953 110.51 16.1872 110.23 15.8957C109.954 15.6003 109.564 15.4527 109.058 15.4527C108.58 15.4527 108.178 15.6081 107.852 15.919C107.529 16.226 107.368 16.6341 107.368 17.1432V20.2562H106.493V14.7356H107.356V15.5226C107.566 15.2117 107.836 14.9843 108.166 14.8405C108.497 14.6968 108.846 14.6249 109.216 14.6249Z" fill="#231F20"/>
<g clip-path="url(#clip1_214_14469)">
<path d="M112.753 23.2562L32.1104 23.2562V79.6088H112.753V23.2562Z" fill="white"/>
<path d="M94.2924 52.5984H76.8037" stroke="#231F20" stroke-width="0.971596"/>
<path d="M49.8906 61.3428L66.5049 66.7837" stroke="#231F20" stroke-width="0.971596"/>
<path d="M49.8906 61.3427V43.854" stroke="#231F20" stroke-width="0.971596"/>
<path d="M52.5137 59.3996V45.7972" stroke="#231F20" stroke-width="0.971596"/>
<path d="M66.5049 66.7837L76.8038 52.5984" stroke="#231F20" stroke-width="0.971596"/>
<path d="M65.5332 63.6746L73.5974 52.5984" stroke="#231F20" stroke-width="0.971596"/>
<path d="M49.8906 43.8541L56.789 41.6194" stroke="#231F20" stroke-width="0.971596"/>
<path d="M56.7891 41.6193L63.6874 39.3846" stroke="#FF6A00" stroke-width="0.971596"/>
<path d="M76.8039 52.5984L72.8203 47.0603" stroke="#231F20" stroke-width="0.971596"/>
<path d="M72.8205 47.0603L68.8369 41.6194" stroke="#FF6A00" stroke-width="0.971596"/>
<path d="M50.7651 61.6343L49.8906 61.3428V60.4684" stroke="#231F20" stroke-width="0.971596"/>
<path d="M65.7275 66.4923L66.5048 66.7837L66.9906 66.0065" stroke="#231F20" stroke-width="0.971596"/>
<path d="M49.8906 44.7284V43.854L50.2793 43.7568" stroke="#231F20" stroke-width="0.971596"/>
<path d="M64.2695 38.4131C64.2695 37.6358 64.4639 37.0205 64.8525 36.5671C65.2411 36.1137 65.7917 35.887 66.5042 35.887C67.2167 35.887 67.7997 36.1137 68.2531 36.5671C68.6417 37.0205 68.836 37.6358 68.836 38.4131C68.836 39.2552 68.6093 39.9029 68.1559 40.3563C67.7673 40.8097 67.2167 41.0364 66.5042 41.0364C65.7917 41.0364 65.2411 40.8097 64.8525 40.3563C64.4639 39.9029 64.2695 39.2552 64.2695 38.4131ZM66.5042 40.4535C67.0224 40.4535 67.411 40.2915 67.6701 39.9677C67.9292 39.6438 68.0588 39.1256 68.0588 38.4131C68.0588 37.7654 67.9292 37.2796 67.6701 36.9557C67.411 36.6319 67.0224 36.4699 66.5042 36.4699C65.986 36.4699 65.5974 36.6319 65.3383 36.9557C65.0792 37.2796 64.9496 37.7654 64.9496 38.4131C64.9496 39.1256 65.0792 39.6438 65.3383 39.9677C65.5974 40.2915 65.986 40.4535 66.5042 40.4535Z" fill="#FF6A00"/>
</g>
<path d="M0.431641 79.6088H26.3784V91.7343H12.5572C5.86043 91.7343 0.431641 86.3055 0.431641 79.6088V79.6088Z" fill="white"/>
<rect x="26.3789" y="79.6088" width="92.1064" height="12.1255" fill="white"/>
<path d="M118.484 79.6088H144.431V79.6088C144.431 86.3055 139.002 91.7343 132.306 91.7343H118.484V79.6088Z" fill="white"/>
</g>
<rect x="1.18141" y="1.18165" width="142.5" height="85.5005" rx="3.13661" stroke="white" stroke-width="1.49954"/>
<defs>
<clipPath id="clip0_214_14469">
<rect x="0.431641" y="0.431885" width="144" height="87" rx="3.88638" fill="white"/>
</clipPath>
<clipPath id="clip1_214_14469">
<rect width="80.6425" height="56.3526" fill="white" transform="translate(32.1104 23.2562)"/>
</clipPath>
</defs>
</svg>
