<svg width="145" height="87" viewBox="0 0 145 87" fill="none" xmlns="http://www.w3.org/2000/svg">
<g clip-path="url(#clip0_214_15045)">
<rect x="0.494141" y="0.431885" width="144" height="86" rx="3.88638" fill="white"/>
<rect width="144" height="30" transform="translate(0.494141 3.67505)" fill="white"/>
<path d="M26.1584 7.51364L29.2306 7.51364C30.5636 7.51364 31.6227 7.88285 32.4077 8.62126C33.1928 9.35967 33.5853 10.3507 33.5853 11.5943C33.5853 12.838 33.1928 13.829 32.4077 14.5674C31.6227 15.3058 30.5636 15.675 29.2306 15.675H26.1584V7.51364ZM29.2306 8.39974H27.097V14.789H29.2306C30.311 14.789 31.1427 14.5014 31.7256 13.9262C32.3086 13.351 32.6001 12.5737 32.6001 11.5943C32.6001 10.6111 32.3086 9.83381 31.7256 9.26252C31.1466 8.68733 30.3149 8.39974 29.2306 8.39974ZM36.1891 10.1544V15.675H35.3147V10.1544H36.1891ZM35.7519 7.57777C35.9229 7.57777 36.0686 7.63801 36.1891 7.75849C36.3096 7.87508 36.3698 8.02082 36.3698 8.1957C36.3698 8.37059 36.3096 8.51633 36.1891 8.63292C36.0725 8.74951 35.9268 8.80781 35.7519 8.80781C35.577 8.80781 35.4312 8.74951 35.3147 8.63292C35.1981 8.51633 35.1398 8.37059 35.1398 8.1957C35.1398 8.02082 35.1981 7.87508 35.3147 7.75849C35.4312 7.63801 35.577 7.57777 35.7519 7.57777ZM40.5496 10.0437C41.2997 10.0437 41.9176 10.3099 42.4034 10.8423C42.8931 11.3748 43.1399 12.0588 43.1438 12.8943C43.1438 13.0148 43.1379 13.1236 43.1263 13.2208H38.7016C38.7599 13.796 38.9698 14.241 39.3312 14.5558C39.6927 14.8667 40.1338 15.0221 40.6545 15.0221C41.3152 15.0221 41.8982 14.7909 42.4034 14.3284L42.8698 14.923C42.2674 15.4982 41.5115 15.7858 40.6021 15.7858C39.7821 15.7858 39.1117 15.5215 38.5909 14.993C38.0701 14.4606 37.8097 13.7688 37.8097 12.9177C37.8097 12.0782 38.0682 11.3903 38.585 10.854C39.1019 10.3138 39.7568 10.0437 40.5496 10.0437ZM40.5321 10.819C40.0347 10.819 39.6247 10.9745 39.3021 11.2854C38.9795 11.5963 38.7833 12.0063 38.7133 12.5154H42.2577C42.2033 11.9985 42.0187 11.5866 41.7039 11.2795C41.393 10.9725 41.0024 10.819 40.5321 10.819ZM48.4564 10.1544V10.9414H46.0721V13.728C46.0721 14.1438 46.1712 14.4547 46.3694 14.6607C46.5676 14.8667 46.8339 14.9697 47.1681 14.9697C47.5839 14.9697 47.9706 14.8395 48.3282 14.5791L48.7363 15.2378C48.2543 15.6032 47.7083 15.7858 47.0981 15.7858C46.4919 15.7858 46.0236 15.6168 45.6932 15.2786C45.3668 14.9366 45.2035 14.4256 45.2035 13.7455V10.9414H43.9968V10.1544H45.2035V8.39974H46.0721V10.1544H48.4564ZM50.8655 7.28046V10.9239C51.0793 10.6208 51.3494 10.3993 51.6758 10.2594C52.0023 10.1156 52.3482 10.0437 52.7135 10.0437C53.3975 10.0437 53.9513 10.2458 54.3749 10.65C54.8024 11.0541 55.0162 11.5885 55.0162 12.2531V15.675H54.1476V12.5387C54.1476 12.0141 54.0076 11.606 53.7278 11.3145C53.4519 11.0192 53.0613 10.8715 52.5561 10.8715C52.0781 10.8715 51.6758 11.0269 51.3494 11.3378C51.0268 11.6449 50.8655 12.0529 50.8655 12.5621V15.675L49.9911 15.675V7.28046H50.8655ZM61.8707 10.1544L57.3761 18.0302H56.4143L58.4721 14.48L55.9362 10.1544H56.9098L58.9676 13.6172L60.9147 10.1544H61.8707ZM63.8568 7.28046V15.675H62.9824V7.28046H63.8568ZM68.2173 10.0437C68.9674 10.0437 69.5853 10.3099 70.0711 10.8423C70.5608 11.3748 70.8076 12.0588 70.8115 12.8943C70.8115 13.0148 70.8057 13.1236 70.794 13.2208L66.3694 13.2208C66.4276 13.796 66.6375 14.241 66.9989 14.5558C67.3604 14.8667 67.8015 15.0221 68.3223 15.0221C68.9829 15.0221 69.5659 14.7909 70.0711 14.3284L70.5375 14.923C69.9351 15.4982 69.1792 15.7858 68.2698 15.7858C67.4498 15.7858 66.7794 15.5215 66.2586 14.993C65.7378 14.4606 65.4774 13.7688 65.4774 12.9177C65.4774 12.0782 65.7359 11.3903 66.2528 10.854C66.7696 10.3138 67.4245 10.0437 68.2173 10.0437ZM68.1998 10.819C67.7024 10.819 67.2924 10.9745 66.9698 11.2854C66.6472 11.5963 66.451 12.0063 66.381 12.5154L69.9254 12.5154C69.871 11.9985 69.6864 11.5866 69.3716 11.2795C69.0607 10.9725 68.6701 10.819 68.1998 10.819ZM75.1551 10.0437C75.8391 10.0437 76.3929 10.2458 76.8165 10.65C77.244 11.0541 77.4578 11.5885 77.4578 12.2531V15.675H76.5891V12.5387C76.5891 12.0141 76.4492 11.606 76.1694 11.3145C75.8935 11.0192 75.5029 10.8715 74.9977 10.8715C74.5196 10.8715 74.1174 11.0269 73.791 11.3378C73.4684 11.6449 73.3071 12.0529 73.3071 12.5621V15.675H72.4327V10.1544H73.2954V10.9414C73.5053 10.6305 73.7754 10.4032 74.1057 10.2594C74.4361 10.1156 74.7859 10.0437 75.1551 10.0437ZM81.7551 10.0437C82.5052 10.0437 83.1232 10.3099 83.609 10.8423C84.0986 11.3748 84.3454 12.0588 84.3493 12.8943C84.3493 13.0148 84.3435 13.1236 84.3318 13.2208H79.9072C79.9655 13.796 80.1753 14.241 80.5368 14.5558C80.8982 14.8667 81.3393 15.0221 81.8601 15.0221C82.5208 15.0221 83.1037 14.7909 83.609 14.3284L84.0753 14.923C83.4729 15.4982 82.717 15.7858 81.8076 15.7858C80.9876 15.7858 80.3172 15.5215 79.7964 14.993C79.2756 14.4606 79.0152 13.7688 79.0152 12.9177C79.0152 12.0782 79.2737 11.3903 79.7906 10.854C80.3075 10.3138 80.9623 10.0437 81.7551 10.0437ZM81.7377 10.819C81.2402 10.819 80.8302 10.9745 80.5076 11.2854C80.1851 11.5963 79.9888 12.0063 79.9188 12.5154H83.4632C83.4088 11.9985 83.2242 11.5866 82.9094 11.2795C82.5985 10.9725 82.2079 10.819 81.7377 10.819ZM91.3932 10.0437C92.2482 10.0437 92.905 10.3565 93.3636 10.9822V10.1544L94.238 10.1544V15.2961C94.238 16.1783 93.9698 16.8643 93.4335 17.354C92.8972 17.8475 92.1918 18.0943 91.3174 18.0943C90.8743 18.0943 90.4449 18.0283 90.0291 17.8961C89.6171 17.7679 89.2712 17.5871 88.9914 17.354L89.3761 16.6544C89.9474 17.0858 90.5945 17.3015 91.3174 17.3015C91.9314 17.3015 92.425 17.1305 92.7981 16.7885C93.1751 16.4465 93.3636 15.9607 93.3636 15.3311V14.7656C92.9089 15.3913 92.2521 15.7042 91.3932 15.7042C90.612 15.7042 89.961 15.4399 89.4403 14.9114C88.9195 14.3789 88.6591 13.6988 88.6591 12.871C88.6591 12.0432 88.9195 11.365 89.4403 10.8365C89.961 10.308 90.612 10.0437 91.3932 10.0437ZM91.4923 10.8598C90.9171 10.8598 90.4488 11.0541 90.0873 11.4428C89.7259 11.8275 89.5452 12.3036 89.5452 12.871C89.5452 13.4423 89.7259 13.9223 90.0873 14.3109C90.4488 14.6957 90.9171 14.8881 91.4923 14.8881C92.0558 14.8881 92.5202 14.6976 92.8855 14.3168C93.2548 13.932 93.4394 13.4501 93.4394 12.871C93.4394 12.2997 93.2548 11.8217 92.8855 11.4369C92.5202 11.0522 92.0558 10.8598 91.4923 10.8598ZM97.1491 7.28046V15.675H96.2747V7.28046H97.1491ZM104.226 10.1544L99.7317 18.0302H98.7698L100.828 14.48L98.2917 10.1544H99.2653L101.323 13.6172L103.27 10.1544L104.226 10.1544ZM107.672 10.0437C108.084 10.0437 108.467 10.1195 108.821 10.271C109.174 10.4187 109.474 10.6325 109.718 10.9123L109.159 11.5011C108.72 11.0736 108.216 10.8598 107.649 10.8598C107.093 10.8598 106.629 11.0541 106.256 11.4428C105.886 11.8314 105.702 12.3211 105.702 12.9118C105.702 13.5064 105.886 13.9981 106.256 14.3867C106.629 14.7754 107.093 14.9697 107.649 14.9697C108.224 14.9697 108.733 14.754 109.176 14.3226L109.718 14.9172C109.47 15.197 109.168 15.4127 108.815 15.5643C108.461 15.712 108.08 15.7858 107.672 15.7858C106.833 15.7858 106.147 15.5138 105.614 14.9697C105.082 14.4256 104.816 13.7396 104.816 12.9118C104.816 12.0879 105.082 11.4039 105.614 10.8598C106.147 10.3157 106.833 10.0437 107.672 10.0437ZM113.583 10.0437C114.414 10.0437 115.106 10.3177 115.658 10.8656C116.214 11.4136 116.491 12.0957 116.491 12.9118C116.491 13.7319 116.214 14.4159 115.658 14.9638C115.106 15.5118 114.414 15.7858 113.583 15.7858C112.751 15.7858 112.059 15.5118 111.507 14.9638C110.955 14.4159 110.679 13.7319 110.679 12.9118C110.679 12.0957 110.955 11.4136 111.507 10.8656C112.063 10.3177 112.755 10.0437 113.583 10.0437ZM115.022 11.4428C114.638 11.0541 114.158 10.8598 113.583 10.8598C113.007 10.8598 112.527 11.0541 112.143 11.4428C111.758 11.8314 111.566 12.3211 111.566 12.9118C111.566 13.5064 111.758 13.9981 112.143 14.3867C112.527 14.7754 113.007 14.9697 113.583 14.9697C114.158 14.9697 114.638 14.7754 115.022 14.3867C115.407 13.9981 115.6 13.5064 115.6 12.9118C115.6 12.3211 115.407 11.8314 115.022 11.4428ZM118.987 7.28046V15.675H118.113V7.28046H118.987ZM33.8362 25.0437C34.5241 25.0437 35.0798 25.2458 35.5034 25.65C35.9309 26.0541 36.1447 26.5885 36.1447 27.2531V30.675H35.2761V27.5387C35.2761 27.0141 35.1362 26.606 34.8564 26.3145C34.5765 26.0192 34.184 25.8715 33.6788 25.8715C33.2008 25.8715 32.7985 26.0269 32.4721 26.3378C32.1495 26.6449 31.9882 27.0529 31.9882 27.5621V30.675H31.1196V27.5387C31.1196 27.0141 30.9797 26.606 30.6999 26.3145C30.4239 26.0192 30.0334 25.8715 29.5281 25.8715C29.0501 25.8715 28.6479 26.0269 28.3214 26.3378C27.9988 26.6449 27.8375 27.0529 27.8375 27.5621V30.675H26.9631V25.1544H27.8259V25.9414C28.0357 25.6305 28.3059 25.4032 28.6362 25.2594C28.9665 25.1156 29.3163 25.0437 29.6855 25.0437C30.1635 25.0437 30.5833 25.1467 30.9447 25.3526C31.3061 25.5547 31.5762 25.8384 31.755 26.2038C31.961 25.8035 32.2505 25.51 32.6236 25.3235C33.0006 25.137 33.4048 25.0437 33.8362 25.0437ZM40.6047 25.0437C41.4364 25.0437 42.1281 25.3177 42.68 25.8656C43.2358 26.4136 43.5136 27.0957 43.5136 27.9118C43.5136 28.7319 43.2358 29.4159 42.68 29.9638C42.1281 30.5118 41.4364 30.7858 40.6047 30.7858C39.773 30.7858 39.0812 30.5118 38.5294 29.9638C37.9775 29.4159 37.7016 28.7319 37.7016 27.9118C37.7016 27.0957 37.9775 26.4136 38.5294 25.8656C39.0851 25.3177 39.7769 25.0437 40.6047 25.0437ZM42.0446 26.4428C41.6598 26.0541 41.1799 25.8598 40.6047 25.8598C40.0295 25.8598 39.5495 26.0541 39.1648 26.4428C38.78 26.8314 38.5876 27.3211 38.5876 27.9118C38.5876 28.5064 38.78 28.9981 39.1648 29.3867C39.5495 29.7754 40.0295 29.9697 40.6047 29.9697C41.1799 29.9697 41.6598 29.7754 42.0446 29.3867C42.4293 28.9981 42.6217 28.5064 42.6217 27.9118C42.6217 27.3211 42.4293 26.8314 42.0446 26.4428ZM47.8574 25.0437C48.5414 25.0437 49.0952 25.2458 49.5188 25.65C49.9463 26.0541 50.1601 26.5885 50.1601 27.2531V30.675H49.2915V27.5387C49.2915 27.0141 49.1516 26.606 48.8717 26.3145C48.5958 26.0192 48.2052 25.8715 47.7 25.8715C47.222 25.8715 46.8197 26.0269 46.4933 26.3378C46.1707 26.6449 46.0094 27.0529 46.0094 27.5621V30.675H45.135V25.1544H45.9978V25.9414C46.2076 25.6305 46.4777 25.4032 46.8081 25.2594C47.1384 25.1156 47.4882 25.0437 47.8574 25.0437ZM54.6207 25.0437C55.4524 25.0437 56.1442 25.3177 56.696 25.8656C57.2518 26.4136 57.5297 27.0957 57.5297 27.9118C57.5297 28.7319 57.2518 29.4159 56.696 29.9638C56.1442 30.5118 55.4524 30.7858 54.6207 30.7858C53.789 30.7858 53.0972 30.5118 52.5454 29.9638C51.9935 29.4159 51.7176 28.7319 51.7176 27.9118C51.7176 27.0957 51.9935 26.4136 52.5454 25.8656C53.1011 25.3177 53.7929 25.0437 54.6207 25.0437ZM56.0606 26.4428C55.6759 26.0541 55.1959 25.8598 54.6207 25.8598C54.0455 25.8598 53.5656 26.0541 53.1808 26.4428C52.7961 26.8314 52.6037 27.3211 52.6037 27.9118C52.6037 28.5064 52.7961 28.9981 53.1808 29.3867C53.5656 29.7754 54.0455 29.9697 54.6207 29.9697C55.1959 29.9697 55.6759 29.7754 56.0606 29.3867C56.4454 28.9981 56.6377 28.5064 56.6377 27.9118C56.6377 27.3211 56.4454 26.8314 56.0606 26.4428ZM61.4712 25.0437C62.2213 25.0437 62.8392 25.3099 63.325 25.8423C63.8147 26.3748 64.0615 27.0588 64.0654 27.8943C64.0654 28.0148 64.0595 28.1236 64.0479 28.2208L59.6232 28.2208C59.6815 28.796 59.8914 29.241 60.2528 29.5558C60.6142 29.8667 61.0553 30.0221 61.5761 30.0221C62.2368 30.0221 62.8198 29.7909 63.325 29.3284L63.7914 29.923C63.189 30.4982 62.4331 30.7858 61.5237 30.7858C60.7036 30.7858 60.0332 30.5215 59.5125 29.993C58.9917 29.4606 58.7313 28.7688 58.7313 27.9177C58.7313 27.0782 58.9897 26.3903 59.5066 25.854C60.0235 25.3138 60.6784 25.0437 61.4712 25.0437ZM61.4537 25.819C60.9562 25.819 60.5462 25.9745 60.2237 26.2854C59.9011 26.5963 59.7048 27.0063 59.6349 27.5154L63.1793 27.5154C63.1248 26.9985 62.9402 26.5866 62.6254 26.2795C62.3145 25.9725 61.924 25.819 61.4537 25.819ZM69.378 25.1544V25.9414H66.9937V28.728C66.9937 29.1438 67.0928 29.4547 67.291 29.6607C67.4892 29.8667 67.7554 29.9697 68.0897 29.9697C68.5055 29.9697 68.8922 29.8395 69.2498 29.5791L69.6578 30.2378C69.1759 30.6032 68.6299 30.7858 68.0197 30.7858C67.4134 30.7858 66.9451 30.6168 66.6148 30.2786C66.2883 29.9366 66.1251 29.4256 66.1251 28.7455V25.9414H64.9184V25.1544H66.1251V23.3997H66.9937V25.1544H69.378ZM71.7871 22.2805V25.9239C72.0008 25.6208 72.2709 25.3993 72.5974 25.2594C72.9239 25.1156 73.2697 25.0437 73.6351 25.0437C74.3191 25.0437 74.8729 25.2458 75.2965 25.65C75.724 26.0541 75.9377 26.5885 75.9377 27.2531V30.675H75.0691V27.5387C75.0691 27.0141 74.9292 26.606 74.6494 26.3145C74.3735 26.0192 73.9829 25.8715 73.4777 25.8715C72.9996 25.8715 72.5974 26.0269 72.2709 26.3378C71.9484 26.6449 71.7871 27.0529 71.7871 27.5621V30.675H70.9126V22.2805H71.7871ZM82.7923 25.1544L78.2977 33.0302H77.3358L79.3937 29.48L76.8578 25.1544H77.8313L79.8892 28.6172L81.8363 25.1544H82.7923ZM84.7784 22.2805V30.675H83.9039V22.2805H84.7784ZM92.2473 25.0437C92.9973 25.0437 93.6153 25.3099 94.1011 25.8423C94.5907 26.3748 94.8375 27.0588 94.8414 27.8943C94.8414 28.0148 94.8356 28.1236 94.8239 28.2208H90.3993C90.4576 28.796 90.6674 29.241 91.0289 29.5558C91.3903 29.8667 91.8314 30.0221 92.3522 30.0221C93.0129 30.0221 93.5958 29.7909 94.1011 29.3284L94.5674 29.923C93.965 30.4982 93.2091 30.7858 92.2997 30.7858C91.4797 30.7858 90.8093 30.5215 90.2885 29.993C89.7677 29.4606 89.5074 28.7688 89.5074 27.9177C89.5074 27.0782 89.7658 26.3903 90.2827 25.854C90.7996 25.3138 91.4544 25.0437 92.2473 25.0437ZM92.2298 25.819C91.7323 25.819 91.3223 25.9745 90.9997 26.2854C90.6772 26.5963 90.4809 27.0063 90.4109 27.5154H93.9553C93.9009 26.9985 93.7163 26.5866 93.4015 26.2795C93.0906 25.9725 92.7 25.819 92.2298 25.819ZM100.154 25.1544V25.9414L97.7698 25.9414V28.728C97.7698 29.1438 97.8689 29.4547 98.0671 29.6607C98.2653 29.8667 98.5315 29.9697 98.8657 29.9697C99.2816 29.9697 99.6683 29.8395 100.026 29.5791L100.434 30.2378C99.952 30.6032 99.4059 30.7858 98.7958 30.7858C98.1895 30.7858 97.7212 30.6168 97.3908 30.2786C97.0644 29.9366 96.9012 29.4256 96.9012 28.7455V25.9414H95.6944V25.1544H96.9012V23.3997H97.7698V25.1544L100.154 25.1544ZM102.563 22.2805V25.9239C102.777 25.6208 103.047 25.3993 103.373 25.2594C103.7 25.1156 104.046 25.0437 104.411 25.0437C105.095 25.0437 105.649 25.2458 106.073 25.65C106.5 26.0541 106.714 26.5885 106.714 27.2531V30.675H105.845V27.5387C105.845 27.0141 105.705 26.606 105.425 26.3145C105.15 26.0192 104.759 25.8715 104.254 25.8715C103.776 25.8715 103.373 26.0269 103.047 26.3378C102.724 26.6449 102.563 27.0529 102.563 27.5621V30.675H101.689V22.2805H102.563ZM111.011 25.0437C111.761 25.0437 112.379 25.3099 112.865 25.8423C113.355 26.3748 113.601 27.0588 113.605 27.8943C113.605 28.0148 113.6 28.1236 113.588 28.2208H109.163C109.222 28.796 109.431 29.241 109.793 29.5558C110.154 29.8667 110.595 30.0221 111.116 30.0221C111.777 30.0221 112.36 29.7909 112.865 29.3284L113.331 29.923C112.729 30.4982 111.973 30.7858 111.064 30.7858C110.244 30.7858 109.573 30.5215 109.052 29.993C108.532 29.4606 108.271 28.7688 108.271 27.9177C108.271 27.0782 108.53 26.3903 109.047 25.854C109.564 25.3138 110.218 25.0437 111.011 25.0437ZM110.994 25.819C110.496 25.819 110.086 25.9745 109.764 26.2854C109.441 26.5963 109.245 27.0063 109.175 27.5154H112.719C112.665 26.9985 112.48 26.5866 112.165 26.2795C111.855 25.9725 111.464 25.819 110.994 25.819ZM117.727 25.0437C118.132 25.0437 118.47 25.1059 118.742 25.2302L118.532 26.0872C118.26 25.9395 117.941 25.8656 117.576 25.8656C117.141 25.8656 116.785 26.023 116.509 26.3378C116.233 26.6526 116.095 27.0685 116.095 27.5854V30.675H115.227V25.1544H116.089V25.9298C116.28 25.6461 116.515 25.4284 116.795 25.2769C117.078 25.1214 117.389 25.0437 117.727 25.0437Z" fill="#231F20"/>
<path d="M0.494141 45.8018C0.494141 39.1044 5.92349 33.675 12.6209 33.675H26.4409V45.8018H0.494141V45.8018Z" fill="white"/>
<rect x="26.4414" y="33.675" width="92.1064" height="12.1268" fill="white"/>
<path d="M118.547 33.675H132.367C139.064 33.675 144.494 39.1044 144.494 45.8018V45.8018H118.547V33.675Z" fill="white"/>
<g clip-path="url(#clip1_214_15045)">
<path d="M189.572 45.8018L-44.583 45.8018V71.0632L189.572 71.0632V45.8018Z" fill="white"/>
<path d="M7.97949 62.6103L23.1364 53.866" stroke="#231F20" stroke-width="0.971596"/>
<path d="M23.1377 53.866L29.3559 57.3637" stroke="#231F20" stroke-width="0.971596"/>
<path d="M29.3555 57.3638L35.4765 60.9587" stroke="#FF6A00" stroke-width="0.971596"/>
<path d="M114.079 53.866L98.9219 62.6103" stroke="#231F20" stroke-width="0.971596"/>
<path d="M114.078 53.866L120.199 57.3637" stroke="#231F20" stroke-width="0.971596"/>
<path d="M120.199 57.3638L126.32 60.9587" stroke="#FF6A00" stroke-width="0.971596"/>
<path d="M98.9213 62.6105L92.7031 59.0156" stroke="#231F20" stroke-width="0.971596"/>
<path d="M92.7031 59.0156L86.582 55.5178" stroke="#FF6A00" stroke-width="0.971596"/>
<path d="M53.4512 53.866L68.6081 62.6103" stroke="#231F20" stroke-width="0.971596"/>
<path d="M53.4502 53.866L47.3291 57.3637" stroke="#231F20" stroke-width="0.971596"/>
<path d="M47.3305 57.3638L41.1123 60.9587" stroke="#FF6A00" stroke-width="0.971596"/>
<path d="M68.6074 62.6105L74.7285 59.0156" stroke="#231F20" stroke-width="0.971596"/>
<path d="M74.7285 59.0156L80.8496 55.5178" stroke="#FF6A00" stroke-width="0.971596"/>
<path d="M22.3604 54.2546L23.1376 53.866L23.4291 53.9631" stroke="#231F20" stroke-width="0.971596"/>
<path d="M113.302 54.2546L114.079 53.866L114.371 53.9631" stroke="#231F20" stroke-width="0.971596"/>
<path d="M99.6019 62.1245L98.9218 62.6103L98.5332 62.416" stroke="#231F20" stroke-width="0.971596"/>
<path d="M54.2279 54.2546L53.4507 53.866L53.1592 53.9631" stroke="#231F20" stroke-width="0.971596"/>
<path d="M67.8311 62.1245L68.6083 62.6103L68.8998 62.416" stroke="#231F20" stroke-width="0.971596"/>
<path d="M126.903 62.6104C126.903 61.8331 127.098 61.2178 127.486 60.7643C127.875 60.3109 128.425 60.0842 129.138 60.0842C129.915 60.0842 130.498 60.3109 130.887 60.7643C131.276 61.2178 131.47 61.8331 131.47 62.6104C131.47 63.3877 131.276 64.003 130.887 64.4564C130.498 64.9098 129.915 65.1365 129.138 65.1365C128.425 65.1365 127.875 64.9098 127.486 64.4564C127.098 64.003 126.903 63.3877 126.903 62.6104ZM129.138 64.5536C129.656 64.5536 130.045 64.3916 130.304 64.0678C130.628 63.7439 130.79 63.2581 130.79 62.6104C130.79 61.9626 130.628 61.4768 130.304 61.153C130.045 60.8291 129.656 60.6672 129.138 60.6672C128.685 60.6672 128.296 60.8291 127.972 61.153C127.713 61.4768 127.583 61.9626 127.583 62.6104C127.583 63.2581 127.713 63.7439 127.972 64.0678C128.296 64.3916 128.685 64.5536 129.138 64.5536Z" fill="#FF6A00"/>
<path d="M132.247 60.0842H132.927V62.2217H135.453V60.0842H136.133V65.0394H135.453V62.8047H132.927V65.0394H132.247V60.0842Z" fill="#FF6A00"/>
<path d="M36.0596 62.6104C36.0596 61.8331 36.2539 61.2178 36.6425 60.7643C37.0312 60.3109 37.5817 60.0842 38.2942 60.0842C39.0067 60.0842 39.5573 60.3109 39.946 60.7643C40.3994 61.2178 40.6261 61.8331 40.6261 62.6104C40.6261 63.3877 40.3994 64.003 39.946 64.4564C39.5573 64.9098 39.0067 65.1365 38.2942 65.1365C37.5817 65.1365 37.0312 64.9098 36.6425 64.4564C36.2539 64.003 36.0596 63.3877 36.0596 62.6104ZM38.2942 64.5536C38.8124 64.5536 39.2011 64.3916 39.4602 64.0678C39.7192 63.7439 39.8488 63.2581 39.8488 62.6104C39.8488 61.9626 39.7192 61.4768 39.4602 61.153C39.2011 60.8291 38.8124 60.6672 38.2942 60.6672C37.7761 60.6672 37.3874 60.8291 37.1283 61.153C36.8692 61.4768 36.7397 61.9626 36.7397 62.6104C36.7397 63.2581 36.8692 63.7439 37.1283 64.0678C37.3874 64.3916 37.7761 64.5536 38.2942 64.5536Z" fill="#FF6A00"/>
<path d="M81.4336 53.866C81.4336 53.0887 81.6279 52.4734 82.0166 52.02C82.4052 51.5665 82.9882 51.3398 83.7654 51.3398C84.4779 51.3398 85.0285 51.5665 85.4171 52.02C85.8058 52.4734 86.0001 53.0887 86.0001 53.866C86.0001 54.6433 85.8058 55.2586 85.4171 55.712C85.0285 56.1654 84.4779 56.3921 83.7654 56.3921C83.0529 56.3921 82.47 56.1654 82.0166 55.712C81.6279 55.2586 81.4336 54.6433 81.4336 53.866ZM83.7654 55.8092C84.2836 55.8092 84.6723 55.6473 84.9313 55.3234C85.1904 54.9995 85.32 54.5137 85.32 53.866C85.32 53.2183 85.1904 52.7325 84.9313 52.4086C84.6723 52.0847 84.2836 51.9228 83.7654 51.9228C83.2472 51.9228 82.8586 52.0847 82.5995 52.4086C82.3404 52.7325 82.2109 53.2183 82.2109 53.866C82.2109 54.5137 82.3404 54.9995 82.5995 55.3234C82.8586 55.6473 83.2472 55.8092 83.7654 55.8092Z" fill="#FF6A00"/>
</g>
<path d="M0.494141 71.0632H26.4409V83.1888H12.6197C5.92293 83.1888 0.494141 77.76 0.494141 71.0632V71.0632Z" fill="white"/>
<rect x="26.4414" y="71.0632" width="92.1064" height="12.1255" fill="white"/>
<path d="M118.547 71.0632H144.494V71.0632C144.494 77.76 139.065 83.1888 132.368 83.1888H118.547V71.0632Z" fill="white"/>
</g>
<rect x="1.24391" y="1.18165" width="142.5" height="84.5005" rx="3.13661" stroke="white" stroke-width="1.49954"/>
<defs>
<clipPath id="clip0_214_15045">
<rect x="0.494141" y="0.431885" width="144" height="86" rx="3.88638" fill="white"/>
</clipPath>
<clipPath id="clip1_214_15045">
<rect width="234.155" height="25.2615" fill="white" transform="translate(-44.583 45.8018)"/>
</clipPath>
</defs>
</svg>
