<svg width="143" height="87" viewBox="0 0 143 87" fill="none" xmlns="http://www.w3.org/2000/svg">
<g clip-path="url(#clip0_214_14925)">
<rect x="0.806641" y="0.431885" width="142" height="86" rx="3.88638" fill="white"/>
<path d="M0.806641 12.1285C0.806641 5.43105 6.23599 0.00170898 12.9334 0.00170898L26.7534 0.00170898V12.1285L0.806641 12.1285V12.1285Z" fill="white"/>
<rect x="26.7539" y="0.00170898" width="90.1064" height="12.1268" fill="white"/>
<path d="M116.859 0.00170898L130.679 0.00170898C137.377 0.00170898 142.806 5.43105 142.806 12.1285V12.1285L116.859 12.1285V0.00170898Z" fill="white"/>
<rect width="142" height="15" transform="translate(0.806641 12.1284)" fill="white"/>
<path d="M34.6389 15.967V16.8531H31.8057V24.1284H30.873V16.8531H28.0398V15.967H34.6389ZM37.6241 18.497C38.0283 18.497 38.3664 18.5592 38.6384 18.6836L38.4286 19.5405C38.1565 19.3929 37.8379 19.319 37.4725 19.319C37.0373 19.319 36.6817 19.4764 36.4057 19.7912C36.1298 20.106 35.9918 20.5219 35.9918 21.0387V24.1284H35.1232V18.6078H35.986V19.3831C36.1764 19.0994 36.4115 18.8818 36.6914 18.7302C36.9751 18.5748 37.286 18.497 37.6241 18.497ZM40.8367 18.6078V24.1284H39.9622V18.6078H40.8367ZM40.3994 16.0311C40.5704 16.0311 40.7162 16.0914 40.8367 16.2119C40.9571 16.3284 41.0174 16.4742 41.0174 16.6491C41.0174 16.824 40.9571 16.9697 40.8367 17.0863C40.7201 17.2029 40.5743 17.2612 40.3994 17.2612C40.2245 17.2612 40.0788 17.2029 39.9622 17.0863C39.8456 16.9697 39.7873 16.824 39.7873 16.6491C39.7873 16.4742 39.8456 16.3284 39.9622 16.2119C40.0788 16.0914 40.2245 16.0311 40.3994 16.0311ZM49.7501 18.497C50.438 18.497 50.9937 18.6991 51.4173 19.1033C51.8448 19.5075 52.0586 20.0419 52.0586 20.7065V24.1284H51.19V20.9921C51.19 20.4674 51.0501 20.0594 50.7702 19.7679C50.4904 19.4725 50.0979 19.3248 49.5927 19.3248C49.1147 19.3248 48.7124 19.4803 48.386 19.7912C48.0634 20.0982 47.9021 20.5063 47.9021 21.0154V24.1284H47.0335V20.9921C47.0335 20.4674 46.8936 20.0594 46.6138 19.7679C46.3378 19.4725 45.9472 19.3248 45.442 19.3248C44.964 19.3248 44.5618 19.4803 44.2353 19.7912C43.9127 20.0982 43.7514 20.5063 43.7514 21.0154V24.1284H42.877V18.6078H43.7398V19.3948C43.9496 19.0839 44.2198 18.8565 44.5501 18.7127C44.8804 18.5689 45.2302 18.497 45.5994 18.497C46.0774 18.497 46.4972 18.6 46.8586 18.806C47.22 19.0081 47.4901 19.2918 47.6689 19.6571C47.8749 19.2568 48.1644 18.9634 48.5375 18.7769C48.9145 18.5903 49.3187 18.497 49.7501 18.497ZM56.3553 18.497C57.1054 18.497 57.7234 18.7633 58.2092 19.2957C58.6988 19.8281 58.9456 20.5121 58.9495 21.3477C58.9495 21.4682 58.9437 21.577 58.932 21.6742L54.5074 21.6742C54.5657 22.2494 54.7755 22.6943 55.137 23.0091C55.4984 23.3201 55.9395 23.4755 56.4603 23.4755C57.121 23.4755 57.7039 23.2443 58.2092 22.7818L58.6755 23.3764C58.0731 23.9516 57.3172 24.2392 56.4078 24.2392C55.5878 24.2392 54.9174 23.9749 54.3966 23.4464C53.8758 22.9139 53.6154 22.2221 53.6154 21.371C53.6154 20.5316 53.8739 19.8437 54.3908 19.3074C54.9077 18.7672 55.5625 18.497 56.3553 18.497ZM56.3379 19.2724C55.8404 19.2724 55.4304 19.4278 55.1078 19.7387C54.7852 20.0497 54.589 20.4597 54.519 20.9688L58.0634 20.9688C58.009 20.4519 57.8244 20.0399 57.5096 19.7329C57.1987 19.4259 56.8081 19.2724 56.3379 19.2724ZM64.2622 18.6078V19.3948H61.8779V22.1813C61.8779 22.5972 61.977 22.9081 62.1752 23.1141C62.3734 23.3201 62.6396 23.423 62.9738 23.423C63.3897 23.423 63.7764 23.2928 64.1339 23.0325L64.542 23.6912C64.0601 24.0565 63.514 24.2392 62.9039 24.2392C62.2976 24.2392 61.8293 24.0701 61.4989 23.732C61.1725 23.39 61.0093 22.8789 61.0093 22.1988V19.3948H59.8025V18.6078H61.0093V16.8531H61.8779V18.6078H64.2622ZM66.6712 15.7338V19.3773C66.885 19.0742 67.1551 18.8527 67.4815 18.7127C67.808 18.5689 68.1539 18.497 68.5192 18.497C69.2032 18.497 69.757 18.6991 70.1806 19.1033C70.6081 19.5075 70.8219 20.0419 70.8219 20.7065V24.1284H69.9533V20.9921C69.9533 20.4674 69.8134 20.0594 69.5336 19.7679C69.2576 19.4725 68.867 19.3248 68.3618 19.3248C67.8838 19.3248 67.4815 19.4803 67.1551 19.7912C66.8325 20.0982 66.6712 20.5063 66.6712 21.0154V24.1284H65.7968V15.7338H66.6712ZM77.6765 18.6078L73.1819 26.4836H72.22L74.2778 22.9334L71.742 18.6078H72.7155L74.7733 22.0706L76.7204 18.6078H77.6765ZM79.6625 15.7338V24.1284H78.7881V15.7338H79.6625ZM86.9262 18.6078V24.1284H86.0576V23.3064C85.5757 23.9283 84.9033 24.2392 84.0405 24.2392C83.2594 24.2392 82.6045 23.9671 82.076 23.423C81.5474 22.8751 81.2832 22.1891 81.2832 21.3652C81.2832 20.5413 81.5474 19.8573 82.076 19.3132C82.6045 18.7691 83.2594 18.497 84.0405 18.497C84.8994 18.497 85.5718 18.808 86.0576 19.4298V18.6078H86.9262ZM84.1455 19.3132C83.5625 19.3132 83.0864 19.5114 82.7172 19.9078C82.3519 20.3003 82.1693 20.7861 82.1693 21.3652C82.1693 21.9443 82.3539 22.432 82.7231 22.8284C83.0923 23.2248 83.5664 23.423 84.1455 23.423C84.7168 23.423 85.187 23.2287 85.5562 22.8401C85.9254 22.4476 86.11 21.9559 86.11 21.3652C86.11 20.7784 85.9254 20.2906 85.5562 19.902C85.187 19.5095 84.7168 19.3132 84.1455 19.3132ZM95.8402 18.497C96.528 18.497 97.0838 18.6991 97.5074 19.1033C97.9349 19.5075 98.1487 20.0419 98.1487 20.7065V24.1284H97.2801V20.9921C97.2801 20.4674 97.1402 20.0594 96.8603 19.7679C96.5805 19.4725 96.188 19.3248 95.6828 19.3248C95.2047 19.3248 94.8025 19.4803 94.476 19.7912C94.1535 20.0982 93.9922 20.5063 93.9922 21.0154V24.1284H93.1236V20.9921C93.1236 20.4674 92.9837 20.0594 92.7038 19.7679C92.4279 19.4725 92.0373 19.3248 91.5321 19.3248C91.0541 19.3248 90.6518 19.4803 90.3254 19.7912C90.0028 20.0982 89.8415 20.5063 89.8415 21.0154V24.1284H88.9671V18.6078H89.8299V19.3948C90.0397 19.0839 90.3098 18.8565 90.6402 18.7127C90.9705 18.5689 91.3203 18.497 91.6895 18.497C92.1675 18.497 92.5873 18.6 92.9487 18.806C93.3101 19.0081 93.5802 19.2918 93.759 19.6571C93.965 19.2568 94.2545 18.9634 94.6276 18.7769C95.0046 18.5903 95.4088 18.497 95.8402 18.497ZM101 18.6078V24.1284H100.125V18.6078H101ZM100.562 16.0311C100.733 16.0311 100.879 16.0914 101 16.2119C101.12 16.3284 101.18 16.4742 101.18 16.6491C101.18 16.824 101.12 16.9697 101 17.0863C100.883 17.2029 100.737 17.2612 100.562 17.2612C100.388 17.2612 100.242 17.2029 100.125 17.0863C100.009 16.9697 99.9504 16.824 99.9504 16.6491C99.9504 16.4742 100.009 16.3284 100.125 16.2119C100.242 16.0914 100.388 16.0311 100.562 16.0311ZM105.762 18.497C106.446 18.497 107 18.6991 107.424 19.1033C107.851 19.5075 108.065 20.0419 108.065 20.7065V24.1284H107.197V20.9921C107.197 20.4674 107.057 20.0594 106.777 19.7679C106.501 19.4725 106.11 19.3248 105.605 19.3248C105.127 19.3248 104.725 19.4803 104.398 19.7912C104.076 20.0982 103.914 20.5063 103.914 21.0154V24.1284H103.04V18.6078H103.903V19.3948C104.113 19.0839 104.383 18.8565 104.713 18.7127C105.043 18.5689 105.393 18.497 105.762 18.497ZM112.363 18.497C113.113 18.497 113.731 18.7633 114.216 19.2957C114.706 19.8281 114.953 20.5121 114.957 21.3477C114.957 21.4682 114.951 21.577 114.939 21.6742H110.515C110.573 22.2494 110.783 22.6943 111.144 23.0091C111.506 23.3201 111.947 23.4755 112.467 23.4755C113.128 23.4755 113.711 23.2443 114.216 22.7818L114.683 23.3764C114.08 23.9516 113.324 24.2392 112.415 24.2392C111.595 24.2392 110.925 23.9749 110.404 23.4464C109.883 22.9139 109.623 22.2221 109.623 21.371C109.623 20.5316 109.881 19.8437 110.398 19.3074C110.915 18.7672 111.57 18.497 112.363 18.497ZM112.345 19.2724C111.848 19.2724 111.438 19.4278 111.115 19.7387C110.792 20.0497 110.596 20.4597 110.526 20.9688H114.071C114.016 20.4519 113.832 20.0399 113.517 19.7329C113.206 19.4259 112.815 19.2724 112.345 19.2724Z" fill="#231F20"/>
<g clip-path="url(#clip1_214_14925)">
<path d="M99.4972 27.1284L44.1162 27.1284V74.7366H99.4972V27.1284Z" fill="white"/>
<path d="M56.5527 63.9518L62.8681 60.3569" stroke="#231F20" stroke-width="0.971596"/>
<path d="M62.8682 60.3569L69.1835 56.6648" stroke="#0F4BA3" stroke-width="0.971596"/>
<path d="M86.7695 64.049L80.4541 60.3569" stroke="#231F20" stroke-width="0.971596"/>
<path d="M80.454 60.3569L74.1387 56.6648" stroke="#0F4BA3" stroke-width="0.971596"/>
<path d="M71.71 37.7188V45.0057" stroke="#231F20" stroke-width="0.971596"/>
<path d="M71.71 45.0056V52.1954" stroke="#0F4BA3" stroke-width="0.971596"/>
<path d="M70.5439 52.7786L72.1956 55.4019C72.3251 55.5962 72.4547 55.8229 72.5842 56.082C72.7785 56.4059 72.8757 56.6002 72.8757 56.6649V52.7786H73.5558V57.7337H72.8757L71.1268 54.8189C70.9973 54.6246 70.8677 54.3979 70.7382 54.1388C70.5439 53.8797 70.4467 53.7178 70.4467 53.653V57.7337H69.7666V52.7786H70.5439Z" fill="#0F4BA3"/>
</g>
<path d="M0.806641 74.7366H26.7534V86.8621H12.9322C6.23543 86.8621 0.806641 81.4333 0.806641 74.7366V74.7366Z" fill="white"/>
<rect x="26.7539" y="74.7366" width="90.1064" height="12.1255" fill="white"/>
<path d="M116.859 74.7366H142.806V74.7366C142.806 81.4333 137.377 86.8621 130.681 86.8621H116.859V74.7366Z" fill="white"/>
</g>
<rect x="1.55641" y="1.18165" width="140.5" height="84.5005" rx="3.13661" stroke="white" stroke-width="1.49954"/>
<defs>
<clipPath id="clip0_214_14925">
<rect x="0.806641" y="0.431885" width="142" height="86" rx="3.88638" fill="white"/>
</clipPath>
<clipPath id="clip1_214_14925">
<rect width="55.381" height="47.6082" fill="white" transform="translate(44.1162 27.1284)"/>
</clipPath>
</defs>
</svg>
