<svg width="145" height="87" viewBox="0 0 145 87" fill="none" xmlns="http://www.w3.org/2000/svg">
<g clip-path="url(#clip0_214_14697)">
<rect x="0.119141" y="0.431885" width="144" height="86" rx="3.88638" fill="white"/>
<path d="M0.119141 12.5587C0.119141 5.86123 5.54849 0.431885 12.2459 0.431885L26.0659 0.431885V12.5587H0.119141V12.5587Z" fill="white"/>
<rect x="26.0664" y="0.431885" width="92.1064" height="12.1268" fill="white"/>
<path d="M118.172 0.431885L131.992 0.431885C138.689 0.431885 144.119 5.86123 144.119 12.5587V12.5587L118.172 12.5587V0.431885Z" fill="white"/>
<rect width="144" height="23.3701" transform="translate(0.119141 12.5586)" fill="white"/>
<path d="M30.3625 16.2806C31.0738 16.2806 31.7267 16.4322 32.3213 16.7353C32.9159 17.0346 33.3725 17.4465 33.6912 17.9712L32.9101 18.4958C32.638 18.0878 32.2785 17.7671 31.8316 17.534C31.3847 17.3008 30.895 17.1842 30.3625 17.1842C29.9078 17.1842 29.4823 17.2658 29.0859 17.429C28.6895 17.5884 28.3475 17.8099 28.0599 18.0936C27.7723 18.3773 27.5449 18.7251 27.3778 19.1371C27.2146 19.549 27.133 19.996 27.133 20.4779C27.133 20.9598 27.2146 21.4067 27.3778 21.8187C27.5449 22.2306 27.7723 22.5785 28.0599 22.8622C28.3475 23.1459 28.6895 23.3694 29.0859 23.5326C29.4823 23.6919 29.9078 23.7716 30.3625 23.7716C30.8989 23.7716 31.3886 23.657 31.8316 23.4277C32.2746 23.1984 32.6341 22.8777 32.9101 22.4658L33.6679 23.0254C33.3259 23.5384 32.8634 23.9426 32.2805 24.238C31.7014 24.5294 31.0621 24.6752 30.3625 24.6752C29.764 24.6752 29.2044 24.5703 28.6836 24.3604C28.1629 24.1505 27.7159 23.8629 27.3428 23.4976C26.9736 23.1284 26.6821 22.6834 26.4684 22.1626C26.2546 21.6419 26.1478 21.0803 26.1478 20.4779C26.1478 19.8755 26.2546 19.3139 26.4684 18.7931C26.6821 18.2724 26.9736 17.8293 27.3428 17.464C27.7159 17.0948 28.1629 16.8053 28.6836 16.5954C29.2044 16.3855 29.764 16.2806 30.3625 16.2806ZM40.4985 19.038V24.5586H39.6299V23.7366C39.148 24.3584 38.4757 24.6694 37.6129 24.6694C36.8317 24.6694 36.1769 24.3973 35.6483 23.8532C35.1198 23.3052 34.8555 22.6193 34.8555 21.7954C34.8555 20.9715 35.1198 20.2875 35.6483 19.7434C36.1769 19.1993 36.8317 18.9272 37.6129 18.9272C38.4718 18.9272 39.1441 19.2381 39.6299 19.86V19.038H40.4985ZM37.7178 19.7434C37.1349 19.7434 36.6588 19.9416 36.2896 20.338C35.9243 20.7305 35.7416 21.2163 35.7416 21.7954C35.7416 22.3744 35.9262 22.8622 36.2954 23.2586C36.6646 23.655 37.1388 23.8532 37.7178 23.8532C38.2891 23.8532 38.7594 23.6589 39.1286 23.2703C39.4978 22.8777 39.6824 22.3861 39.6824 21.7954C39.6824 21.2085 39.4978 20.7208 39.1286 20.3322C38.7594 19.9396 38.2891 19.7434 37.7178 19.7434ZM45.0403 18.9272C45.4445 18.9272 45.7826 18.9894 46.0547 19.1138L45.8448 19.9707C45.5728 19.823 45.2541 19.7492 44.8888 19.7492C44.4535 19.7492 44.0979 19.9066 43.8219 20.2214C43.546 20.5362 43.408 20.952 43.408 21.4689V24.5586H42.5394V19.038H43.4022V19.8133C43.5926 19.5296 43.8278 19.312 44.1076 19.1604C44.3913 19.005 44.7022 18.9272 45.0403 18.9272ZM50.2641 18.9272C51.0452 18.9272 51.7001 19.1993 52.2286 19.7434C52.7572 20.2875 53.0215 20.9715 53.0215 21.7954C53.0215 22.6193 52.7572 23.3052 52.2286 23.8532C51.7001 24.3973 51.0452 24.6694 50.2641 24.6694C49.4052 24.6694 48.7348 24.3604 48.2529 23.7425V24.5586H47.3784V16.164H48.2529V19.8541C48.7348 19.2362 49.4052 18.9272 50.2641 18.9272ZM50.1591 19.7434C49.5878 19.7434 49.1176 19.9396 48.7484 20.3322C48.3792 20.7208 48.1946 21.2085 48.1946 21.7954C48.1946 22.3861 48.3792 22.8777 48.7484 23.2703C49.1176 23.6589 49.5878 23.8532 50.1591 23.8532C50.7421 23.8532 51.2162 23.657 51.5816 23.2644C51.9469 22.868 52.1295 22.3783 52.1295 21.7954C52.1295 21.2163 51.9449 20.7305 51.5757 20.338C51.2065 19.9416 50.7343 19.7434 50.1591 19.7434ZM57.126 18.9272C57.9577 18.9272 58.6495 19.2012 59.2014 19.7492C59.7571 20.2972 60.035 20.9792 60.035 21.7954C60.035 22.6154 59.7571 23.2994 59.2014 23.8474C58.6495 24.3954 57.9577 24.6694 57.126 24.6694C56.2943 24.6694 55.6026 24.3954 55.0507 23.8474C54.4988 23.2994 54.2229 22.6154 54.2229 21.7954C54.2229 20.9792 54.4988 20.2972 55.0507 19.7492C55.6065 19.2012 56.2982 18.9272 57.126 18.9272ZM58.5659 20.3263C58.1812 19.9377 57.7012 19.7434 57.126 19.7434C56.5508 19.7434 56.0709 19.9377 55.6861 20.3263C55.3014 20.715 55.109 21.2046 55.109 21.7954C55.109 22.39 55.3014 22.8816 55.6861 23.2703C56.0709 23.6589 56.5508 23.8532 57.126 23.8532C57.7012 23.8532 58.1812 23.6589 58.5659 23.2703C58.9507 22.8816 59.1431 22.39 59.1431 21.7954C59.1431 21.2046 58.9507 20.715 58.5659 20.3263ZM64.3788 18.9272C65.0628 18.9272 65.6166 19.1293 66.0402 19.5335C66.4677 19.9377 66.6814 20.4721 66.6814 21.1366V24.5586H65.8128V21.4223C65.8128 20.8976 65.6729 20.4895 65.3931 20.1981C65.1172 19.9027 64.7266 19.755 64.2214 19.755C63.7433 19.755 63.3411 19.9105 63.0146 20.2214C62.6921 20.5284 62.5308 20.9365 62.5308 21.4456V24.5586H61.6563V19.038L62.5191 19.038V19.825C62.729 19.5141 62.9991 19.2867 63.3294 19.1429C63.6598 18.9991 64.0096 18.9272 64.3788 18.9272ZM74.1047 18.9272C74.9636 18.9272 75.6359 19.2381 76.1217 19.86V16.164H76.9903V24.5586H76.1217V23.7366C75.6398 24.3584 74.9675 24.6694 74.1047 24.6694C73.3235 24.6694 72.6687 24.3973 72.1401 23.8532C71.6116 23.3052 71.3473 22.6193 71.3473 21.7954C71.3473 20.9715 71.6116 20.2875 72.1401 19.7434C72.6687 19.1993 73.3235 18.9272 74.1047 18.9272ZM74.2096 19.7434C73.6266 19.7434 73.1506 19.9416 72.7814 20.338C72.416 20.7305 72.2334 21.2163 72.2334 21.7954C72.2334 22.3744 72.418 22.8622 72.7872 23.2586C73.1564 23.655 73.6305 23.8532 74.2096 23.8532C74.7809 23.8532 75.2512 23.6589 75.6204 23.2703C75.9896 22.8777 76.1742 22.3861 76.1742 21.7954C76.1742 21.2085 75.9896 20.7208 75.6204 20.3322C75.2512 19.9396 74.7809 19.7434 74.2096 19.7434ZM79.9056 19.038V24.5586H79.0312V19.038H79.9056ZM79.4684 16.4613C79.6394 16.4613 79.7852 16.5216 79.9056 16.642C80.0261 16.7586 80.0864 16.9044 80.0864 17.0792C80.0864 17.2541 80.0261 17.3999 79.9056 17.5165C79.7891 17.6331 79.6433 17.6914 79.4684 17.6914C79.2935 17.6914 79.1478 17.6331 79.0312 17.5165C78.9146 17.3999 78.8563 17.2541 78.8563 17.0792C78.8563 16.9044 78.9146 16.7586 79.0312 16.642C79.1478 16.5216 79.2935 16.4613 79.4684 16.4613ZM86.0325 19.5335L85.6536 20.2097C85.4515 20.0698 85.1853 19.9493 84.855 19.8483C84.5285 19.7434 84.1923 19.6909 83.8464 19.6909C83.45 19.6909 83.1333 19.7686 82.8962 19.9241C82.6592 20.0795 82.5406 20.2913 82.5406 20.5595C82.5406 20.987 82.9157 21.2455 83.6657 21.3348L84.3186 21.4165C85.5545 21.5758 86.1724 22.0888 86.1724 22.9555C86.1724 23.4801 85.9529 23.896 85.5137 24.203C85.0745 24.51 84.4838 24.6635 83.7415 24.6635C82.8282 24.6635 82.0606 24.4284 81.4388 23.9581L81.8411 23.3052C82.3541 23.7055 82.9914 23.9057 83.7532 23.9057C84.2273 23.9057 84.5985 23.8299 84.8666 23.6783C85.1387 23.5229 85.2747 23.3013 85.2747 23.0138C85.2747 22.5707 84.8899 22.3025 84.1204 22.2093L83.4617 22.1335C82.8515 22.0596 82.3949 21.8925 82.0917 21.6321C81.7886 21.3679 81.637 21.0259 81.637 20.6061C81.637 20.0893 81.8372 19.6812 82.2375 19.3819C82.6378 19.0827 83.1722 18.9331 83.8406 18.9331C84.2642 18.9331 84.6665 18.9875 85.0473 19.0963C85.4282 19.2051 85.7566 19.3508 86.0325 19.5335ZM92.6452 19.038V22.2559C92.6452 22.6523 92.5772 23.0079 92.4411 23.3227C92.3051 23.6336 92.1205 23.8862 91.8873 24.0806C91.6542 24.2749 91.3879 24.4226 91.0887 24.5236C90.7933 24.6208 90.4766 24.6694 90.1385 24.6694C89.7965 24.6694 89.4758 24.6208 89.1766 24.5236C88.8812 24.4226 88.6169 24.2749 88.3838 24.0806C88.1506 23.8862 87.966 23.6336 87.83 23.3227C87.6978 23.0079 87.6317 22.6523 87.6317 22.2559V19.038H88.5004V22.1743C88.5004 22.7262 88.65 23.1439 88.9492 23.4277C89.2485 23.7114 89.6449 23.8532 90.1385 23.8532C90.632 23.8532 91.0265 23.7114 91.3219 23.4277C91.6211 23.1439 91.7707 22.7262 91.7707 22.1743V19.038H92.6452ZM95.4929 16.164V24.5586H94.6185V16.164H95.4929ZM101.153 19.038V19.825H98.9557V24.5586L98.0813 24.5586V19.825H96.8221V19.038H98.0813V18.0936C98.0813 17.4679 98.2309 16.9724 98.5301 16.6071C98.8294 16.2378 99.2919 16.0532 99.9176 16.0532C100.473 16.0532 100.977 16.1912 101.427 16.4671L101.113 17.1958C100.743 16.9782 100.365 16.8694 99.9759 16.8694C99.2958 16.8694 98.9557 17.2775 98.9557 18.0936V19.038H101.153ZM103.44 19.038V24.5586H102.566V19.038H103.44ZM103.003 16.4613C103.174 16.4613 103.32 16.5216 103.44 16.642C103.561 16.7586 103.621 16.9044 103.621 17.0792C103.621 17.2541 103.561 17.3999 103.44 17.5165C103.324 17.6331 103.178 17.6914 103.003 17.6914C102.828 17.6914 102.682 17.6331 102.566 17.5165C102.449 17.3999 102.391 17.2541 102.391 17.0792C102.391 16.9044 102.449 16.7586 102.566 16.642C102.682 16.5216 102.828 16.4613 103.003 16.4613ZM107.818 18.9272C108.677 18.9272 109.35 19.2381 109.835 19.86V16.164H110.704V24.5586H109.835V23.7366C109.353 24.3584 108.681 24.6694 107.818 24.6694C107.037 24.6694 106.382 24.3973 105.854 23.8532C105.325 23.3052 105.061 22.6193 105.061 21.7954C105.061 20.9715 105.325 20.2875 105.854 19.7434C106.382 19.1993 107.037 18.9272 107.818 18.9272ZM107.923 19.7434C107.34 19.7434 106.864 19.9416 106.495 20.338C106.13 20.7305 105.947 21.2163 105.947 21.7954C105.947 22.3744 106.132 22.8622 106.501 23.2586C106.87 23.655 107.344 23.8532 107.923 23.8532C108.495 23.8532 108.965 23.6589 109.334 23.2703C109.703 22.8777 109.888 22.3861 109.888 21.7954C109.888 21.2085 109.703 20.7208 109.334 20.3322C108.965 19.9396 108.495 19.7434 107.923 19.7434ZM115.065 18.9272C115.815 18.9272 116.433 19.1934 116.919 19.7259C117.408 20.2583 117.655 20.9423 117.659 21.7779C117.659 21.8984 117.653 22.0072 117.642 22.1043H113.217C113.275 22.6795 113.485 23.1245 113.847 23.4393C114.208 23.7502 114.649 23.9057 115.17 23.9057C115.831 23.9057 116.414 23.6744 116.919 23.212L117.385 23.8066C116.783 24.3818 116.027 24.6694 115.117 24.6694C114.297 24.6694 113.627 24.4051 113.106 23.8765C112.585 23.3441 112.325 22.6523 112.325 21.8012C112.325 20.9617 112.584 20.2739 113.1 19.7375C113.617 19.1973 114.272 18.9272 115.065 18.9272ZM115.048 19.7026C114.55 19.7026 114.14 19.858 113.817 20.1689C113.495 20.4798 113.299 20.8898 113.229 21.399H116.773C116.719 20.8821 116.534 20.4701 116.219 20.1631C115.908 19.8561 115.518 19.7026 115.048 19.7026Z" fill="#231F20"/>
<path d="M0.119141 35.9287H26.0659V48.0542H12.2447C5.54793 48.0542 0.119141 42.6254 0.119141 35.9287V35.9287Z" fill="white"/>
<rect x="26.0664" y="35.9287" width="92.1064" height="12.1255" fill="white"/>
<path d="M118.172 35.9287H144.119V35.9287C144.119 42.6254 138.69 48.0542 131.993 48.0542H118.172V35.9287Z" fill="white"/>
<g clip-path="url(#clip1_214_14697)">
<path d="M106.611 48.0542L37.6279 48.0542V56.7986H106.611V48.0542Z" fill="white"/>
<path d="M74.1592 50.969H80.5717" stroke="#231F20" stroke-width="0.971596"/>
<path d="M80.5723 50.969H86.9848" stroke="#CFCF37" stroke-width="0.971596"/>
<path d="M74.1592 53.5923H80.5717" stroke="#231F20" stroke-width="0.971596"/>
<path d="M80.5723 53.5923H86.9848" stroke="#CFCF37" stroke-width="0.971596"/>
<path d="M69.2055 53.5923H62.793" stroke="#231F20" stroke-width="0.971596"/>
<path d="M62.7924 53.5923H56.3799" stroke="#CFCF37" stroke-width="0.971596"/>
<path d="M69.2055 50.969H62.793" stroke="#231F20" stroke-width="0.971596"/>
<path d="M62.7924 50.969H56.3799" stroke="#CFCF37" stroke-width="0.971596"/>
<path d="M69.7871 52.3294C69.7871 51.5521 69.9814 50.9368 70.3701 50.4833C70.7587 50.0299 71.3093 49.8032 72.0218 49.8032C72.7343 49.8032 73.2525 50.0623 73.5763 50.5805L73.0905 50.9691C72.8314 50.5805 72.4752 50.3862 72.0218 50.3862C71.5036 50.3862 71.115 50.5481 70.8559 50.872C70.5968 51.1958 70.4672 51.6816 70.4672 52.3294C70.4672 52.9771 70.5968 53.4629 70.8559 53.7868C71.1797 54.1754 71.6008 54.3697 72.1189 54.3697C72.4428 54.3697 72.8314 54.2402 73.2849 53.9811L73.4792 54.564C73.2849 54.6288 73.0582 54.6936 72.7991 54.7584C72.54 54.8231 72.2809 54.8555 72.0218 54.8555C71.3093 54.8555 70.7587 54.6612 70.3701 54.2726C69.9814 53.8192 69.7871 53.1714 69.7871 52.3294Z" fill="#231F20"/>
<path d="M87.7627 53.9808C87.8274 54.0456 87.9246 54.1104 88.0542 54.1752C88.1837 54.2399 88.3456 54.2723 88.54 54.2723C88.7343 54.3371 88.8962 54.3695 89.0258 54.3695C89.3496 54.3695 89.6087 54.3047 89.803 54.1752C89.9973 53.9808 90.0945 53.7541 90.0945 53.4951C90.0945 53.3007 90.0297 53.1712 89.9002 53.1064C89.8354 52.9769 89.7383 52.8797 89.6087 52.8149C89.4792 52.7502 89.2848 52.6854 89.0258 52.6206C88.7019 52.5558 88.4752 52.4587 88.3456 52.3291C88.1513 52.2644 87.9894 52.1348 87.8598 51.9405C87.7303 51.811 87.6655 51.5842 87.6655 51.2604C87.6655 50.807 87.8275 50.4831 88.1513 50.2888C88.4104 50.0297 88.8314 49.9001 89.4144 49.9001C89.7383 49.9001 90.1269 49.9649 90.5803 50.0945L90.4831 50.6774C90.0297 50.4831 89.6735 50.3859 89.4144 50.3859C89.0905 50.3859 88.8314 50.4507 88.6371 50.5803C88.4428 50.7746 88.3456 50.9689 88.3456 51.1632C88.3456 51.3575 88.4104 51.4871 88.54 51.5519C88.6047 51.6814 88.7019 51.7786 88.8314 51.8433C88.961 51.9081 89.1553 51.9729 89.4144 52.0377C89.6735 52.1024 89.9002 52.1996 90.0945 52.3291C90.2888 52.3939 90.4508 52.5235 90.5803 52.7178C90.7099 52.9121 90.7746 53.1712 90.7746 53.4951C90.7746 53.9485 90.6127 54.3047 90.2888 54.5638C89.965 54.8229 89.5763 54.9524 89.1229 54.9524C88.799 54.9524 88.54 54.9201 88.3456 54.8553C88.0865 54.7905 87.8275 54.6934 87.5684 54.5638L87.7627 53.9808Z" fill="#CFCF37"/>
<path d="M52.7851 53.9808C52.8499 54.0456 52.9471 54.1104 53.0766 54.1752C53.2062 54.2399 53.3681 54.2723 53.5624 54.2723C53.7567 54.3371 53.9187 54.3695 54.0482 54.3695C54.3721 54.3695 54.6312 54.3047 54.8255 54.1752C55.0198 53.9808 55.117 53.7541 55.117 53.4951C55.117 53.3007 55.0522 53.1712 54.9226 53.1064C54.8579 52.9769 54.7607 52.8797 54.6312 52.8149C54.5016 52.7502 54.3073 52.6854 54.0482 52.6206C53.7243 52.5558 53.4976 52.4587 53.3681 52.3291C53.1738 52.2644 53.0118 52.1348 52.8823 51.9405C52.7528 51.811 52.688 51.5842 52.688 51.2604C52.688 50.807 52.8499 50.4831 53.1738 50.2888C53.4329 50.0297 53.8539 49.9001 54.4369 49.9001C54.7607 49.9001 55.1494 49.9649 55.6028 50.0945L55.5056 50.6774C55.0522 50.4831 54.6959 50.3859 54.4369 50.3859C54.113 50.3859 53.8539 50.4507 53.6596 50.5803C53.4653 50.7746 53.3681 50.9689 53.3681 51.1632C53.3681 51.3575 53.4329 51.4871 53.5624 51.5519C53.6272 51.6814 53.7243 51.7786 53.8539 51.8433C53.9834 51.9081 54.1778 51.9729 54.4369 52.0377C54.6959 52.1024 54.9227 52.1996 55.117 52.3291C55.3113 52.3939 55.4732 52.5235 55.6028 52.7178C55.7323 52.9121 55.7971 53.1712 55.7971 53.4951C55.7971 53.9485 55.6352 54.3047 55.3113 54.5638C54.9874 54.8229 54.5988 54.9524 54.1454 54.9524C53.8215 54.9524 53.5624 54.9201 53.3681 54.8553C53.109 54.7905 52.8499 54.6934 52.5908 54.5638L52.7851 53.9808Z" fill="#CFCF37"/>
</g>
</g>
<rect x="0.86891" y="1.18165" width="142.5" height="84.5005" rx="3.13661" stroke="white" stroke-width="1.49954"/>
<defs>
<clipPath id="clip0_214_14697">
<rect x="0.119141" y="0.431885" width="144" height="86" rx="3.88638" fill="white"/>
</clipPath>
<clipPath id="clip1_214_14697">
<rect width="68.9833" height="8.74436" fill="white" transform="translate(37.6279 48.0542)"/>
</clipPath>
</defs>
</svg>
