<svg width="143" height="87" viewBox="0 0 143 87" fill="none" xmlns="http://www.w3.org/2000/svg">
<g clip-path="url(#clip0_214_14217)">
<rect x="0.870117" y="0.431885" width="142" height="86" rx="3.88638" fill="white"/>
<path d="M0.870117 8.24202C0.870117 1.54458 6.29946 -3.88477 12.9969 -3.88477H26.8169V8.24202H0.870117V8.24202Z" fill="white"/>
<rect x="26.8174" y="-3.88477" width="90.1064" height="12.1268" fill="white"/>
<path d="M116.923 -3.88477L130.743 -3.88477C137.44 -3.88477 142.87 1.54458 142.87 8.24202V8.24202L116.923 8.24202V-3.88477Z" fill="white"/>
<rect width="142" height="15" transform="translate(0.870117 8.24207)" fill="white"/>
<path d="M56.6315 16.96H54.4863V20.2421H53.5477V12.0807H56.6315C57.5448 12.0807 58.2541 12.2964 58.7593 12.7277C59.2646 13.1591 59.5172 13.7576 59.5172 14.5233C59.5172 15.2889 59.2646 15.8874 58.7593 16.3188C58.2541 16.7463 57.5448 16.96 56.6315 16.96ZM56.6024 12.9668H54.4863V16.0797H56.6024C57.2359 16.0797 57.7178 15.9496 58.0481 15.6892C58.3785 15.4288 58.5436 15.0401 58.5436 14.5233C58.5436 14.0064 58.3785 13.6177 58.0481 13.3573C57.7178 13.0969 57.2359 12.9668 56.6024 12.9668ZM62.0071 11.8475V15.491C62.2209 15.1878 62.491 14.9663 62.8174 14.8264C63.1439 14.6826 63.4898 14.6107 63.8551 14.6107C64.5391 14.6107 65.0929 14.8128 65.5165 15.217C65.944 15.6212 66.1578 16.1555 66.1578 16.8201V20.2421H65.2892V17.1058C65.2892 16.5811 65.1493 16.173 64.8695 15.8815C64.5935 15.5862 64.2029 15.4385 63.6977 15.4385C63.2197 15.4385 62.8174 15.594 62.491 15.9049C62.1684 16.2119 62.0071 16.62 62.0071 17.1291V20.2421H61.1327V11.8475H62.0071ZM70.4552 14.6107C71.2053 14.6107 71.8232 14.8769 72.309 15.4093C72.7987 15.9418 73.0455 16.6258 73.0494 17.4614C73.0494 17.5818 73.0435 17.6907 73.0319 17.7878H68.6072C68.6655 18.363 68.8754 18.808 69.2368 19.1228C69.5982 19.4337 70.0393 19.5892 70.5601 19.5892C71.2208 19.5892 71.8038 19.3579 72.309 18.8954L72.7754 19.4901C72.173 20.0652 71.4171 20.3528 70.5077 20.3528C69.6876 20.3528 69.0172 20.0886 68.4965 19.56C67.9757 19.0276 67.7153 18.3358 67.7153 17.4847C67.7153 16.6452 67.9737 15.9573 68.4906 15.421C69.0075 14.8808 69.6624 14.6107 70.4552 14.6107ZM70.4377 15.386C69.9402 15.386 69.5302 15.5415 69.2077 15.8524C68.8851 16.1633 68.6888 16.5733 68.6189 17.0824H72.1633C72.1088 16.5655 71.9242 16.1536 71.6094 15.8466C71.2985 15.5395 70.908 15.386 70.4377 15.386ZM77.3929 14.6107C78.0769 14.6107 78.6307 14.8128 79.0544 15.217C79.4819 15.6212 79.6956 16.1555 79.6956 16.8201V20.2421H78.827V17.1058C78.827 16.5811 78.6871 16.173 78.4073 15.8815C78.1313 15.5862 77.7408 15.4385 77.2355 15.4385C76.7575 15.4385 76.3553 15.594 76.0288 15.9049C75.7062 16.2119 75.545 16.62 75.545 17.1291V20.2421H74.6705V14.7215H75.5333V15.5084C75.7432 15.1975 76.0133 14.9702 76.3436 14.8264C76.674 14.6826 77.0237 14.6107 77.3929 14.6107ZM84.1562 14.6107C84.9879 14.6107 85.6797 14.8847 86.2316 15.4327C86.7873 15.9806 87.0652 16.6627 87.0652 17.4788C87.0652 18.2989 86.7873 18.9829 86.2316 19.5309C85.6797 20.0788 84.9879 20.3528 84.1562 20.3528C83.3246 20.3528 82.6328 20.0788 82.0809 19.5309C81.529 18.9829 81.2531 18.2989 81.2531 17.4788C81.2531 16.6627 81.529 15.9806 82.0809 15.4327C82.6367 14.8847 83.3284 14.6107 84.1562 14.6107ZM85.5961 16.0098C85.2114 15.6212 84.7314 15.4268 84.1562 15.4268C83.5811 15.4268 83.1011 15.6212 82.7163 16.0098C82.3316 16.3984 82.1392 16.8881 82.1392 17.4788C82.1392 18.0735 82.3316 18.5651 82.7163 18.9537C83.1011 19.3424 83.5811 19.5367 84.1562 19.5367C84.7314 19.5367 85.2114 19.3424 85.5961 18.9537C85.9809 18.5651 86.1733 18.0735 86.1733 17.4788C86.1733 16.8881 85.9809 16.3984 85.5961 16.0098ZM89.561 11.8475V20.2421H88.6865V11.8475H89.561Z" fill="#231F20"/>
<g clip-path="url(#clip1_214_14217)">
<path d="M126.28 23.2421L17.4609 23.2421V78.623H126.28V23.2421Z" fill="white"/>
<path d="M101.31 50.7383L92.5654 65.8952" stroke="#231F20" stroke-width="0.971596"/>
<path d="M98.2977 50.7383L91.0107 63.2719" stroke="#231F20" stroke-width="0.971596"/>
<path d="M101.31 50.7383L92.5654 35.6786" stroke="#231F20" stroke-width="0.971596"/>
<path d="M92.5649 65.8951H75.0762" stroke="#231F20" stroke-width="0.971596"/>
<path d="M92.5649 35.6786H75.0762" stroke="#231F20" stroke-width="0.971596"/>
<path d="M91.011 38.3018H76.5342" stroke="#231F20" stroke-width="0.971596"/>
<path d="M75.0764 65.8952L66.332 50.7383" stroke="#231F20" stroke-width="0.971596"/>
<path d="M76.5345 63.2719L69.3447 50.7383" stroke="#231F20" stroke-width="0.971596"/>
<path d="M75.0764 35.6786L66.332 50.7383" stroke="#231F20" stroke-width="0.971596"/>
<path d="M66.3319 50.7383H59.0449" stroke="#231F20" stroke-width="0.971596"/>
<path d="M59.0453 50.7383H51.6611" stroke="#FF6A00" stroke-width="0.971596"/>
<path d="M100.823 51.5155L101.309 50.7382L100.823 50.0581" stroke="#231F20" stroke-width="0.971596"/>
<path d="M92.9545 65.215L92.5658 65.8951H91.6914" stroke="#231F20" stroke-width="0.971596"/>
<path d="M92.9545 36.3587L92.5658 35.6786H91.6914" stroke="#231F20" stroke-width="0.971596"/>
<path d="M75.9511 65.8951H75.0766L74.5908 65.215" stroke="#231F20" stroke-width="0.971596"/>
<path d="M75.9511 35.6786H75.0766L74.5908 36.3587" stroke="#231F20" stroke-width="0.971596"/>
<path d="M41.6543 48.3093H42.3344V50.4468H44.8606V48.3093H45.5407V53.2645H44.8606V51.0298H42.3344V53.2645H41.6543V48.3093Z" fill="#FF6A00"/>
<path d="M46.5117 50.8355C46.5117 49.9934 46.7384 49.3781 47.1918 48.9894C47.5805 48.536 48.131 48.3093 48.8435 48.3093C49.5561 48.3093 50.1066 48.536 50.4953 48.9894C50.8839 49.3781 51.0782 49.9934 51.0782 50.8355C51.0782 51.6128 50.8839 52.2281 50.4953 52.6815C50.1066 53.1349 49.5561 53.3616 48.8435 53.3616C48.131 53.3616 47.5805 53.1349 47.1918 52.6815C46.7384 52.2281 46.5117 51.6128 46.5117 50.8355ZM48.8435 52.7787C49.3617 52.7787 49.7504 52.6167 50.0095 52.2929C50.2686 51.969 50.3981 51.4832 50.3981 50.8355C50.3981 50.1877 50.2686 49.7019 50.0095 49.3781C49.7504 48.9894 49.3617 48.7951 48.8435 48.7951C48.3254 48.7951 47.9367 48.9894 47.6776 49.3781C47.4185 49.7019 47.289 50.1877 47.289 50.8355C47.289 51.4832 47.4185 51.969 47.6776 52.2929C47.9367 52.6167 48.3254 52.7787 48.8435 52.7787Z" fill="#FF6A00"/>
</g>
<path d="M0.870117 78.623H26.8169V90.7486H12.9956C6.2989 90.7486 0.870117 85.3198 0.870117 78.623V78.623Z" fill="white"/>
<rect x="26.8174" y="78.623" width="90.1064" height="12.1255" fill="white"/>
<path d="M116.923 78.623H142.87V78.623C142.87 85.3198 137.441 90.7486 130.744 90.7486H116.923V78.623Z" fill="white"/>
</g>
<rect x="1.61989" y="1.18165" width="140.5" height="84.5005" rx="3.13661" stroke="white" stroke-width="1.49954"/>
<defs>
<clipPath id="clip0_214_14217">
<rect x="0.870117" y="0.431885" width="142" height="86" rx="3.88638" fill="white"/>
</clipPath>
<clipPath id="clip1_214_14217">
<rect width="108.819" height="55.381" fill="white" transform="translate(17.4609 23.2421)"/>
</clipPath>
</defs>
</svg>
