<svg width="145" height="88" viewBox="0 0 145 88" fill="none" xmlns="http://www.w3.org/2000/svg">
<g clip-path="url(#clip0_214_14098)">
<rect x="0.181641" y="0.431885" width="144" height="87" rx="3.88638" fill="white"/>
<path d="M0.181641 12.5587C0.181641 5.86123 5.61099 0.431885 12.3084 0.431885L26.1284 0.431885V12.5587L0.181641 12.5587V12.5587Z" fill="white"/>
<rect x="26.1289" y="0.431885" width="92.1064" height="12.1268" fill="white"/>
<path d="M118.234 0.431885L132.054 0.431885C138.752 0.431885 144.181 5.86123 144.181 12.5587V12.5587L118.234 12.5587V0.431885Z" fill="white"/>
<rect width="144" height="15" transform="translate(0.181641 12.5587)" fill="white"/>
<path d="M45.3776 16.2982V24.5587H44.4798V17.604L42.0664 18.6475V17.709L45.3776 16.2982ZM50.6636 21.0785V21.8713H47.4223V21.0785H50.6636ZM55.7463 21.2767H53.601V24.5587H52.6625V16.3973H55.7463C56.6596 16.3973 57.3689 16.613 57.8741 17.0444C58.3793 17.4758 58.632 18.0743 58.632 18.8399C58.632 19.6055 58.3793 20.204 57.8741 20.6354C57.3689 21.0629 56.6596 21.2767 55.7463 21.2767ZM55.7172 17.2834H53.601V20.3964H55.7172C56.3506 20.3964 56.8326 20.2662 57.1629 20.0058C57.4932 19.7454 57.6584 19.3568 57.6584 18.8399C57.6584 18.323 57.4932 17.9344 57.1629 17.674C56.8326 17.4136 56.3506 17.2834 55.7172 17.2834ZM62.7484 18.9273C63.1525 18.9273 63.4907 18.9895 63.7627 19.1139L63.5528 19.9708C63.2808 19.8232 62.9621 19.7493 62.5968 19.7493C62.1615 19.7493 61.8059 19.9067 61.53 20.2215C61.254 20.5363 61.1161 20.9522 61.1161 21.469V24.5587H60.2475V19.0381H61.1102V19.8134C61.3007 19.5297 61.5358 19.3121 61.8156 19.1605C62.0993 19.0051 62.4102 18.9273 62.7484 18.9273ZM67.3422 18.9273C68.1738 18.9273 68.8656 19.2013 69.4175 19.7493C69.9732 20.2973 70.2511 20.9794 70.2511 21.7955C70.2511 22.6155 69.9732 23.2995 69.4175 23.8475C68.8656 24.3955 68.1738 24.6695 67.3422 24.6695C66.5105 24.6695 65.8187 24.3955 65.2668 23.8475C64.715 23.2995 64.439 22.6155 64.439 21.7955C64.439 20.9794 64.715 20.2973 65.2668 19.7493C65.8226 19.2013 66.5144 18.9273 67.3422 18.9273ZM68.7821 20.3264C68.3973 19.9378 67.9173 19.7435 67.3422 19.7435C66.767 19.7435 66.287 19.9378 65.9023 20.3264C65.5175 20.7151 65.3251 21.2048 65.3251 21.7955C65.3251 22.3901 65.5175 22.8817 65.9023 23.2704C66.287 23.659 66.767 23.8533 67.3422 23.8533C67.9173 23.8533 68.3973 23.659 68.7821 23.2704C69.1668 22.8817 69.3592 22.3901 69.3592 21.7955C69.3592 21.2048 69.1668 20.7151 68.7821 20.3264ZM74.7581 18.9273C75.5393 18.9273 76.1941 19.1994 76.7227 19.7435C77.2512 20.2876 77.5155 20.9716 77.5155 21.7955C77.5155 22.6194 77.2512 23.3054 76.7227 23.8533C76.1941 24.3974 75.5393 24.6695 74.7581 24.6695C73.8992 24.6695 73.2288 24.3605 72.7469 23.7426V26.8905H71.8725V19.0381H72.7469V19.8542C73.2288 19.2363 73.8992 18.9273 74.7581 18.9273ZM74.6532 19.7435C74.0819 19.7435 73.6116 19.9397 73.2424 20.3323C72.8732 20.7209 72.6886 21.2087 72.6886 21.7955C72.6886 22.3862 72.8732 22.8779 73.2424 23.2704C73.6116 23.659 74.0819 23.8533 74.6532 23.8533C75.2361 23.8533 75.7103 23.6571 76.0756 23.2645C76.4409 22.8681 76.6236 22.3785 76.6236 21.7955C76.6236 21.2164 76.439 20.7306 76.0698 20.3381C75.7006 19.9417 75.2284 19.7435 74.6532 19.7435ZM84.36 19.0381V24.5587H83.4914V23.7367C83.0094 24.3586 82.3371 24.6695 81.4743 24.6695C80.6932 24.6695 80.0383 24.3974 79.5098 23.8533C78.9812 23.3054 78.7169 22.6194 78.7169 21.7955C78.7169 20.9716 78.9812 20.2876 79.5098 19.7435C80.0383 19.1994 80.6932 18.9273 81.4743 18.9273C82.3332 18.9273 83.0056 19.2383 83.4914 19.8601V19.0381H84.36ZM81.5793 19.7435C80.9963 19.7435 80.5202 19.9417 80.151 20.3381C79.7857 20.7306 79.603 21.2164 79.603 21.7955C79.603 22.3746 79.7876 22.8623 80.1568 23.2587C80.526 23.6551 81.0002 23.8533 81.5793 23.8533C82.1506 23.8533 82.6208 23.659 82.99 23.2704C83.3592 22.8779 83.5438 22.3862 83.5438 21.7955C83.5438 21.2087 83.3592 20.7209 82.99 20.3323C82.6208 19.9397 82.1506 19.7435 81.5793 19.7435ZM89.1233 18.9273C89.8073 18.9273 90.3611 19.1294 90.7847 19.5336C91.2122 19.9378 91.426 20.4722 91.426 21.1368V24.5587H90.5573V21.4224C90.5573 20.8977 90.4174 20.4897 90.1376 20.1982C89.8617 19.9028 89.4711 19.7551 88.9659 19.7551C88.4878 19.7551 88.0856 19.9106 87.7592 20.2215C87.4366 20.5285 87.2753 20.9366 87.2753 21.4457V24.5587H86.4009V19.0381H87.2636V19.8251C87.4735 19.5142 87.7436 19.2868 88.0739 19.143C88.4043 18.9992 88.7541 18.9273 89.1233 18.9273ZM95.8866 18.9273C96.7183 18.9273 97.41 19.2013 97.9619 19.7493C98.5177 20.2973 98.7955 20.9794 98.7955 21.7955C98.7955 22.6155 98.5177 23.2995 97.9619 23.8475C97.41 24.3955 96.7183 24.6695 95.8866 24.6695C95.0549 24.6695 94.3631 24.3955 93.8113 23.8475C93.2594 23.2995 92.9835 22.6155 92.9835 21.7955C92.9835 20.9794 93.2594 20.2973 93.8113 19.7493C94.367 19.2013 95.0588 18.9273 95.8866 18.9273ZM97.3265 20.3264C96.9417 19.9378 96.4618 19.7435 95.8866 19.7435C95.3114 19.7435 94.8314 19.9378 94.4467 20.3264C94.0619 20.7151 93.8695 21.2048 93.8695 21.7955C93.8695 22.3901 94.0619 22.8817 94.4467 23.2704C94.8314 23.659 95.3114 23.8533 95.8866 23.8533C96.4618 23.8533 96.9417 23.659 97.3265 23.2704C97.7112 22.8817 97.9036 22.3901 97.9036 21.7955C97.9036 21.2048 97.7112 20.7151 97.3265 20.3264ZM101.291 16.1641V24.5587H100.417V16.1641H101.291Z" fill="#231F20"/>
<path d="M0.181641 27.5587L26.1284 27.5587V39.6842H12.3072C5.61043 39.6842 0.181641 34.2555 0.181641 27.5587V27.5587Z" fill="white"/>
<rect x="26.1289" y="27.5587" width="92.1064" height="12.1255" fill="white"/>
<path d="M118.234 27.5587L144.181 27.5587V27.5587C144.181 34.2555 138.752 39.6842 132.056 39.6842H118.234V27.5587Z" fill="white"/>
<g clip-path="url(#clip1_214_14098)">
<path d="M120.761 39.6842L23.6016 39.6842V58.1445L120.761 58.1445V39.6842Z" fill="white"/>
<path d="M45.6572 50.4689L61.6886 43.5706" stroke="#231F20" stroke-width="0.971596"/>
<path d="M61.6885 43.5706L75.6795 54.161" stroke="#231F20" stroke-width="0.971596"/>
<path d="M75.6787 54.161L82.2856 51.3434" stroke="#231F20" stroke-width="0.971596"/>
<path d="M82.2861 51.3434L88.9901 48.5258" stroke="#FF6A00" stroke-width="0.971596"/>
<path d="M60.9111 43.9592L61.6884 43.5706L62.4657 44.1535" stroke="#231F20" stroke-width="0.971596"/>
<path d="M74.999 53.5781L75.6791 54.1611L76.0678 53.9668" stroke="#231F20" stroke-width="0.971596"/>
<path d="M89.5732 47.2626C89.5732 46.4853 89.7676 45.87 90.1562 45.4166C90.5448 44.9632 91.0954 44.7365 91.8079 44.7365C92.5204 44.7365 93.071 44.9632 93.4596 45.4166C93.8483 45.87 94.0426 46.4853 94.0426 47.2626C94.0426 48.1046 93.8483 48.7524 93.4596 49.2058C93.071 49.6592 92.5204 49.8859 91.8079 49.8859C91.0954 49.8859 90.5448 49.6592 90.1562 49.2058C89.7676 48.7524 89.5732 48.1046 89.5732 47.2626ZM91.8079 49.303C92.3261 49.303 92.7147 49.141 92.9738 48.8172C93.2329 48.4285 93.3625 47.9103 93.3625 47.2626C93.3625 46.6149 93.2329 46.1291 92.9738 45.8052C92.7147 45.4813 92.3261 45.3194 91.8079 45.3194C91.2897 45.3194 90.9011 45.4813 90.642 45.8052C90.3829 46.1291 90.2534 46.6149 90.2534 47.2626C90.2534 47.9751 90.3829 48.4933 90.642 48.8172C90.9011 49.141 91.2897 49.303 91.8079 49.303Z" fill="#FF6A00"/>
<path d="M94.8193 44.8337H95.4995V46.9713H98.0256V44.8337H98.7057V49.7889H98.0256V47.457H95.4995V49.7889H94.8193V44.8337Z" fill="#FF6A00"/>
</g>
</g>
<rect x="0.93141" y="1.18165" width="142.5" height="85.5005" rx="3.13661" stroke="white" stroke-width="1.49954"/>
<defs>
<clipPath id="clip0_214_14098">
<rect x="0.181641" y="0.431885" width="144" height="87" rx="3.88638" fill="white"/>
</clipPath>
<clipPath id="clip1_214_14098">
<rect width="97.1596" height="18.4603" fill="white" transform="translate(23.6016 39.6842)"/>
</clipPath>
</defs>
</svg>
