<svg width="145" height="87" viewBox="0 0 145 87" fill="none" xmlns="http://www.w3.org/2000/svg">
<g clip-path="url(#clip0_214_14805)">
<rect x="0.119141" y="0.431885" width="144" height="86" rx="3.88638" fill="white"/>
<path d="M0.119141 11.1568C0.119141 4.45938 5.54849 -0.969971 12.2459 -0.969971L26.0659 -0.969971V11.1568L0.119141 11.1568V11.1568Z" fill="white"/>
<rect x="26.0664" y="-0.969971" width="92.1064" height="12.1268" fill="white"/>
<path d="M118.172 -0.969971L131.992 -0.969971C138.689 -0.969971 144.119 4.45938 144.119 11.1568V11.1568L118.172 11.1568V-0.969971Z" fill="white"/>
<rect width="144" height="15" transform="translate(0.119141 11.1567)" fill="white"/>
<path d="M49.7353 14.9953V23.1567H48.7967V14.9953H49.7353ZM56.0164 18.1316L55.6374 18.8079C55.4354 18.668 55.1691 18.5475 54.8388 18.4464C54.5123 18.3415 54.1762 18.289 53.8303 18.289C53.4339 18.289 53.1171 18.3668 52.8801 18.5222C52.643 18.6777 52.5245 18.8895 52.5245 19.1576C52.5245 19.5852 52.8995 19.8436 53.6496 19.933L54.3025 20.0146C55.5383 20.1739 56.1563 20.6869 56.1563 21.5536C56.1563 22.0783 55.9367 22.4941 55.4975 22.8011C55.0584 23.1082 54.4676 23.2617 53.7253 23.2617C52.812 23.2617 52.0445 23.0265 51.4227 22.5563L51.8249 21.9034C52.3379 22.3037 52.9753 22.5038 53.737 22.5038C54.2111 22.5038 54.5823 22.428 54.8505 22.2765C55.1225 22.121 55.2585 21.8995 55.2585 21.6119C55.2585 21.1689 54.8738 20.9007 54.1043 20.8074L53.4455 20.7316C52.8354 20.6578 52.3787 20.4907 52.0756 20.2303C51.7724 19.966 51.6209 19.624 51.6209 19.2043C51.6209 18.6874 51.821 18.2793 52.2213 17.9801C52.6216 17.6808 53.156 17.5312 53.8245 17.5312C54.2481 17.5312 54.6503 17.5856 55.0312 17.6944C55.412 17.8032 55.7404 17.949 56.0164 18.1316ZM60.1631 17.5254C60.9948 17.5254 61.6866 17.7994 62.2384 18.3473C62.7942 18.8953 63.0721 19.5774 63.0721 20.3935C63.0721 21.2135 62.7942 21.8975 62.2384 22.4455C61.6866 22.9935 60.9948 23.2675 60.1631 23.2675C59.3314 23.2675 58.6396 22.9935 58.0878 22.4455C57.5359 21.8975 57.26 21.2135 57.26 20.3935C57.26 19.5774 57.5359 18.8953 58.0878 18.3473C58.6435 17.7994 59.3353 17.5254 60.1631 17.5254ZM61.603 18.9245C61.2183 18.5358 60.7383 18.3415 60.1631 18.3415C59.5879 18.3415 59.108 18.5358 58.7232 18.9245C58.3385 19.3131 58.1461 19.8028 58.1461 20.3935C58.1461 20.9881 58.3385 21.4798 58.7232 21.8684C59.108 22.257 59.5879 22.4514 60.1631 22.4514C60.7383 22.4514 61.2183 22.257 61.603 21.8684C61.9878 21.4798 62.1801 20.9881 62.1801 20.3935C62.1801 19.8028 61.9878 19.3131 61.603 18.9245ZM67.5791 17.5254C68.3602 17.5254 69.0151 17.7974 69.5436 18.3415C70.0722 18.8856 70.3364 19.5696 70.3364 20.3935C70.3364 21.2174 70.0722 21.9034 69.5436 22.4514C69.0151 22.9955 68.3602 23.2675 67.5791 23.2675C66.7202 23.2675 66.0498 22.9585 65.5679 22.3406V25.4886H64.6934V17.6361H65.5679V18.4523C66.0498 17.8343 66.7202 17.5254 67.5791 17.5254ZM67.4741 18.3415C66.9028 18.3415 66.4326 18.5378 66.0634 18.9303C65.6942 19.3189 65.5096 19.8067 65.5096 20.3935C65.5096 20.9842 65.6942 21.4759 66.0634 21.8684C66.4326 22.257 66.9028 22.4514 67.4741 22.4514C68.0571 22.4514 68.5312 22.2551 68.8965 21.8626C69.2619 21.4662 69.4445 20.9765 69.4445 20.3935C69.4445 19.8144 69.2599 19.3287 68.8907 18.9361C68.5215 18.5397 68.0493 18.3415 67.4741 18.3415ZM74.4585 17.5254C74.8627 17.5254 75.2008 17.5876 75.4729 17.7119L75.263 18.5689C74.9909 18.4212 74.6723 18.3473 74.3069 18.3473C73.8717 18.3473 73.5161 18.5047 73.2401 18.8195C72.9642 19.1343 72.8262 19.5502 72.8262 20.0671V23.1567H71.9576V17.6361H72.8204V18.4115C73.0108 18.1278 73.246 17.9101 73.5258 17.7586C73.8095 17.6031 74.1204 17.5254 74.4585 17.5254ZM78.8891 17.5254C79.6391 17.5254 80.2571 17.7916 80.7429 18.324C81.2326 18.8565 81.4794 19.5405 81.4832 20.376C81.4832 20.4965 81.4774 20.6053 81.4657 20.7025H77.0411C77.0994 21.2777 77.3093 21.7227 77.6707 22.0375C78.0321 22.3484 78.4732 22.5038 78.994 22.5038C79.6547 22.5038 80.2377 22.2726 80.7429 21.8101L81.2092 22.4047C80.6069 22.9799 79.851 23.2675 78.9415 23.2675C78.1215 23.2675 77.4511 23.0032 76.9303 22.4747C76.4096 21.9422 76.1492 21.2505 76.1492 20.3993C76.1492 19.5599 76.4076 18.872 76.9245 18.3357C77.4414 17.7955 78.0963 17.5254 78.8891 17.5254ZM78.8716 18.3007C78.3741 18.3007 77.9641 18.4562 77.6415 18.7671C77.319 19.078 77.1227 19.488 77.0528 19.9971H80.5971C80.5427 19.4802 80.3581 19.0683 80.0433 18.7612C79.7324 18.4542 79.3418 18.3007 78.8716 18.3007ZM85.8268 17.5254C86.5108 17.5254 87.0646 17.7275 87.4882 18.1316C87.9157 18.5358 88.1295 19.0702 88.1295 19.7348V23.1567H87.2609V20.0204C87.2609 19.4958 87.121 19.0877 86.8412 18.7962C86.5652 18.5009 86.1746 18.3532 85.6694 18.3532C85.1914 18.3532 84.7892 18.5086 84.4627 18.8195C84.1401 19.1266 83.9788 19.5346 83.9788 20.0437V23.1567H83.1044V17.6361H83.9672V18.4231C84.177 18.1122 84.4471 17.8849 84.7775 17.7411C85.1078 17.5973 85.4576 17.5254 85.8268 17.5254ZM92.4269 17.5254C93.177 17.5254 93.7949 17.7916 94.2807 18.324C94.7704 18.8565 95.0172 19.5405 95.0211 20.376C95.0211 20.4965 95.0152 20.6053 95.0036 20.7025H90.5789C90.6372 21.2777 90.8471 21.7227 91.2085 22.0375C91.57 22.3484 92.0111 22.5038 92.5318 22.5038C93.1925 22.5038 93.7755 22.2726 94.2807 21.8101L94.7471 22.4047C94.1447 22.9799 93.3888 23.2675 92.4794 23.2675C91.6593 23.2675 90.9889 23.0032 90.4682 22.4747C89.9474 21.9422 89.687 21.2505 89.687 20.3993C89.687 19.5599 89.9454 18.872 90.4623 18.3357C90.9792 17.7955 91.6341 17.5254 92.4269 17.5254ZM92.4094 18.3007C91.912 18.3007 91.5019 18.4562 91.1794 18.7671C90.8568 19.078 90.6605 19.488 90.5906 19.9971H94.135C94.0806 19.4802 93.896 19.0683 93.5812 18.7612C93.2702 18.4542 92.8797 18.3007 92.4094 18.3007Z" fill="#231F20"/>
<g clip-path="url(#clip1_214_14805)">
<path d="M113.898 26.1567L30.3408 26.1567V75.7081H113.898V26.1567Z" fill="white"/>
<path d="M48.8975 46.6574L64.0544 37.9131" stroke="#231F20" stroke-width="0.971596"/>
<path d="M50.1621 48.9893L64.0559 41.0222" stroke="#231F20" stroke-width="0.971596"/>
<path d="M94.9518 39.0791L79.2119 48.2121" stroke="#231F20" stroke-width="0.971596"/>
<path d="M93.6895 36.8442L77.8525 45.9772" stroke="#231F20" stroke-width="0.971596"/>
<path d="M79.2119 64.1462V46.6575" stroke="#231F20" stroke-width="0.971596"/>
<path d="M64.0557 37.9131L79.2126 46.6574" stroke="#231F20" stroke-width="0.971596"/>
<path d="M63.2783 38.3989L64.0556 37.9131L64.7357 38.3989" stroke="#231F20" stroke-width="0.971596"/>
<path d="M79.2118 47.5319V46.6574L78.4346 46.2688" stroke="#231F20" stroke-width="0.971596"/>
</g>
<path d="M0.119141 75.7083H26.0659V87.8338H12.2447C5.54793 87.8338 0.119141 82.405 0.119141 75.7083V75.7083Z" fill="white"/>
<rect x="26.0664" y="75.7083" width="92.1064" height="12.1255" fill="white"/>
<path d="M118.172 75.7083H144.119V75.7083C144.119 82.405 138.69 87.8338 131.993 87.8338H118.172V75.7083Z" fill="white"/>
</g>
<rect x="0.86891" y="1.18165" width="142.5" height="84.5005" rx="3.13661" stroke="white" stroke-width="1.49954"/>
<defs>
<clipPath id="clip0_214_14805">
<rect x="0.119141" y="0.431885" width="144" height="86" rx="3.88638" fill="white"/>
</clipPath>
<clipPath id="clip1_214_14805">
<rect width="83.5572" height="49.5514" fill="white" transform="translate(30.3408 26.1567)"/>
</clipPath>
</defs>
</svg>
