<svg width="145" height="88" viewBox="0 0 145 88" fill="none" xmlns="http://www.w3.org/2000/svg">
<g clip-path="url(#clip0_214_14337)">
<rect x="0.557617" y="0.431885" width="144" height="87" rx="3.88638" fill="white"/>
<rect width="144" height="18.3656" transform="translate(0.557617 12.4246)" fill="white"/>
<path d="M50.2352 17.9459H53.3074C54.6404 17.9459 55.6994 18.3151 56.4845 19.0535C57.2695 19.7919 57.6621 20.783 57.6621 22.0266C57.6621 23.2702 57.2695 24.2613 56.4845 24.9997C55.6994 25.7381 54.6404 26.1073 53.3074 26.1073H50.2352V17.9459ZM53.3074 18.832H51.1738V25.2212H53.3074C54.3878 25.2212 55.2195 24.9336 55.8024 24.3584C56.3854 23.7832 56.6769 23.006 56.6769 22.0266C56.6769 21.0433 56.3854 20.2661 55.8024 19.6948C55.2234 19.1196 54.3917 18.832 53.3074 18.832ZM61.7344 20.4759C62.4845 20.4759 63.1024 20.7421 63.5882 21.2746C64.0779 21.807 64.3247 22.491 64.3286 23.3266C64.3286 23.4471 64.3227 23.5559 64.3111 23.653H59.8864C59.9447 24.2282 60.1546 24.6732 60.516 24.988C60.8774 25.2989 61.3186 25.4544 61.8393 25.4544C62.5 25.4544 63.083 25.2231 63.5882 24.7607L64.0546 25.3553C63.4522 25.9305 62.6963 26.2181 61.7869 26.2181C60.9668 26.2181 60.2964 25.9538 59.7757 25.4252C59.2549 24.8928 58.9945 24.201 58.9945 23.3499C58.9945 22.5105 59.2529 21.8226 59.7698 21.2862C60.2867 20.746 60.9416 20.4759 61.7344 20.4759ZM61.7169 21.2513C61.2194 21.2513 60.8094 21.4067 60.4869 21.7176C60.1643 22.0285 59.968 22.4386 59.8981 22.9477H63.4425C63.3881 22.4308 63.2034 22.0188 62.8886 21.7118C62.5777 21.4048 62.1872 21.2513 61.7169 21.2513ZM68.3865 20.4759C68.7984 20.4759 69.1813 20.5517 69.5349 20.7033C69.8886 20.851 70.1878 21.0647 70.4327 21.3445L69.873 21.9333C69.4339 21.5058 68.9306 21.2921 68.3632 21.2921C67.8074 21.2921 67.343 21.4864 66.9699 21.875C66.6007 22.2637 66.4161 22.7534 66.4161 23.3441C66.4161 23.9387 66.6007 24.4303 66.9699 24.819C67.343 25.2076 67.8074 25.4019 68.3632 25.4019C68.9384 25.4019 69.4475 25.1862 69.8905 24.7548L70.4327 25.3495C70.1839 25.6293 69.8827 25.845 69.5291 25.9965C69.1754 26.1442 68.7946 26.2181 68.3865 26.2181C67.547 26.2181 66.8611 25.946 66.3286 25.4019C65.7962 24.8578 65.53 24.1719 65.53 23.3441C65.53 22.5202 65.7962 21.8362 66.3286 21.2921C66.8611 20.748 67.547 20.4759 68.3865 20.4759ZM77.0368 20.5867V26.1073H76.1682V25.2853C75.6862 25.9072 75.0139 26.2181 74.1511 26.2181C73.37 26.2181 72.7151 25.946 72.1866 25.4019C71.658 24.8539 71.3937 24.168 71.3937 23.3441C71.3937 22.5202 71.658 21.8362 72.1866 21.2921C72.7151 20.748 73.37 20.4759 74.1511 20.4759C75.01 20.4759 75.6824 20.7868 76.1682 21.4087V20.5867H77.0368ZM74.256 21.2921C73.6731 21.2921 73.197 21.4903 72.8278 21.8867C72.4625 22.2792 72.2798 22.765 72.2798 23.3441C72.2798 23.9232 72.4644 24.4109 72.8336 24.8073C73.2028 25.2037 73.677 25.4019 74.256 25.4019C74.8273 25.4019 75.2976 25.2076 75.6668 24.819C76.036 24.4264 76.2206 23.9348 76.2206 23.3441C76.2206 22.7572 76.036 22.2695 75.6668 21.8809C75.2976 21.4883 74.8273 21.2921 74.256 21.2921ZM81.8001 20.4759C82.4841 20.4759 83.0379 20.678 83.4615 21.0822C83.889 21.4864 84.1027 22.0208 84.1027 22.6853V26.1073H83.2341V22.971C83.2341 22.4463 83.0942 22.0383 82.8144 21.7468C82.5385 21.4514 82.1479 21.3037 81.6427 21.3037C81.1646 21.3037 80.7624 21.4592 80.4359 21.7701C80.1134 22.0771 79.9521 22.4852 79.9521 22.9943V26.1073H79.0777V20.5867H79.9404V21.3737C80.1503 21.0628 80.4204 20.8354 80.7507 20.6916C81.0811 20.5478 81.4309 20.4759 81.8001 20.4759ZM91.3033 20.5867V26.1073H90.4347V25.2853C89.9528 25.9072 89.2804 26.2181 88.4176 26.2181C87.6365 26.2181 86.9816 25.946 86.4531 25.4019C85.9245 24.8539 85.6602 24.168 85.6602 23.3441C85.6602 22.5202 85.9245 21.8362 86.4531 21.2921C86.9816 20.748 87.6365 20.4759 88.4176 20.4759C89.2765 20.4759 89.9489 20.7868 90.4347 21.4087V20.5867H91.3033ZM88.5226 21.2921C87.9396 21.2921 87.4635 21.4903 87.0943 21.8867C86.729 22.2792 86.5463 22.765 86.5463 23.3441C86.5463 23.9232 86.7309 24.4109 87.1002 24.8073C87.4694 25.2037 87.9435 25.4019 88.5226 25.4019C89.0939 25.4019 89.5641 25.2076 89.9333 24.819C90.3025 24.4264 90.4871 23.9348 90.4871 23.3441C90.4871 22.7572 90.3025 22.2695 89.9333 21.8809C89.5641 21.4883 89.0939 21.2921 88.5226 21.2921ZM94.2186 17.7127V26.1073H93.3442V17.7127H94.2186Z" fill="#231F20"/>
<path d="M0.557617 41.942C0.557617 35.2445 5.98696 29.8152 12.6844 29.8152L26.5044 29.8152V41.942H0.557617V41.942Z" fill="white"/>
<rect x="26.5049" y="29.8152" width="92.1064" height="12.1268" fill="white"/>
<path d="M118.61 29.8152H132.43C139.128 29.8152 144.557 35.2445 144.557 41.942V41.942H118.61V29.8152Z" fill="white"/>
<g clip-path="url(#clip1_214_14337)">
<path d="M212.467 40.967L-67.3525 40.967V63.3137L212.467 63.3137V40.967Z" fill="white"/>
<path d="M-4.10156 54.2778L11.0553 45.5334" stroke="#231F20" stroke-width="0.971596"/>
<path d="M11.0557 45.5334L26.2126 54.2778" stroke="#231F20" stroke-width="0.971596"/>
<path d="M26.2119 54.2778L41.3688 45.5334" stroke="#231F20" stroke-width="0.971596"/>
<path d="M41.3691 45.5334L56.526 54.2778" stroke="#231F20" stroke-width="0.971596"/>
<path d="M56.5264 54.2778L71.6833 45.5334" stroke="#231F20" stroke-width="0.971596"/>
<path d="M71.6826 45.5334L86.8395 54.2778" stroke="#231F20" stroke-width="0.971596"/>
<path d="M86.8398 54.2778L101.9 45.5334" stroke="#231F20" stroke-width="0.971596"/>
<path d="M101.899 45.5334L117.056 54.2778" stroke="#231F20" stroke-width="0.971596"/>
<path d="M117.057 54.2778L132.214 45.5334" stroke="#231F20" stroke-width="0.971596"/>
<path d="M132.214 45.5334L138.335 49.1284" stroke="#231F20" stroke-width="0.971596"/>
<path d="M138.335 49.1284L144.553 52.6262" stroke="#FF6A00" stroke-width="0.971596"/>
<path d="M132.214 48.6427L137.072 51.3632" stroke="#231F20" stroke-width="0.971596"/>
<path d="M137.071 51.363L143.192 54.9579" stroke="#FF6A00" stroke-width="0.971596"/>
<path d="M10.2783 46.0192L11.0556 45.5334L11.8329 46.0192" stroke="#231F20" stroke-width="0.971596"/>
<path d="M25.4346 53.8893L26.2118 54.2779L26.9891 53.8893" stroke="#231F20" stroke-width="0.971596"/>
<path d="M40.5918 46.0192L41.3691 45.5334L42.1463 46.0192" stroke="#231F20" stroke-width="0.971596"/>
<path d="M55.749 53.8893L56.5263 54.2779L57.3036 53.8893" stroke="#231F20" stroke-width="0.971596"/>
<path d="M70.9053 46.0192L71.6826 45.5334L72.3627 46.0192" stroke="#231F20" stroke-width="0.971596"/>
<path d="M86.0625 53.8893L86.8398 54.2779L87.5199 53.8893" stroke="#231F20" stroke-width="0.971596"/>
<path d="M101.22 46.0192L101.9 45.5334L102.677 46.0192" stroke="#231F20" stroke-width="0.971596"/>
<path d="M116.376 53.8893L117.056 54.2779L117.833 53.8893" stroke="#231F20" stroke-width="0.971596"/>
<path d="M131.436 46.0192L132.213 45.5334L132.504 45.7278" stroke="#231F20" stroke-width="0.971596"/>
<path d="M144.455 55.4439C144.455 54.6666 144.649 54.0513 145.038 53.5978C145.427 53.1444 145.977 52.9177 146.69 52.9177C147.467 52.9177 148.05 53.1444 148.439 53.5978C148.827 54.0513 149.022 54.6666 149.022 55.4439C149.022 56.2859 148.827 56.9337 148.439 57.3871C148.05 57.8405 147.467 58.0672 146.69 58.0672C145.977 58.0672 145.427 57.8405 145.038 57.3871C144.649 56.9337 144.455 56.2859 144.455 55.4439ZM146.69 57.4842C147.208 57.4842 147.597 57.3223 147.856 56.9984C148.18 56.6098 148.341 56.0916 148.341 55.4439C148.341 54.7961 148.18 54.3103 147.856 53.9865C147.597 53.6626 147.208 53.5007 146.69 53.5007C146.236 53.5007 145.848 53.6626 145.524 53.9865C145.265 54.3103 145.135 54.7961 145.135 55.4439C145.135 56.1564 145.265 56.6746 145.524 56.9984C145.848 57.3223 146.236 57.4842 146.69 57.4842Z" fill="#FF6A00"/>
</g>
<path d="M0.557617 63.3137H26.5044V75.4392H12.6831C5.9864 75.4392 0.557617 70.0105 0.557617 63.3137V63.3137Z" fill="white"/>
<rect x="26.5049" y="63.3137" width="92.1064" height="12.1255" fill="white"/>
<path d="M118.61 63.3137H144.557V63.3137C144.557 70.0105 139.128 75.4392 132.432 75.4392H118.61V63.3137Z" fill="white"/>
</g>
<rect x="1.30739" y="1.18165" width="142.5" height="85.5005" rx="3.13661" stroke="white" stroke-width="1.49954"/>
<defs>
<clipPath id="clip0_214_14337">
<rect x="0.557617" y="0.431885" width="144" height="87" rx="3.88638" fill="white"/>
</clipPath>
<clipPath id="clip1_214_14337">
<rect width="279.82" height="22.3467" fill="white" transform="translate(-67.3525 40.967)"/>
</clipPath>
</defs>
</svg>
