<svg width="143" height="88" viewBox="0 0 143 88" fill="none" xmlns="http://www.w3.org/2000/svg">
<g clip-path="url(#clip0_214_14349)">
<rect x="0.245117" y="0.431885" width="142" height="87" rx="3.88638" fill="white"/>
<rect width="142" height="15" transform="translate(0.245117 13.6182)" fill="white"/>
<path d="M55.2608 17.4568V25.6182H54.4155L49.3613 19.0657V25.6182H48.4227V17.4568H49.268L54.3222 24.0092V17.4568H55.2608ZM59.9371 19.9868C60.7688 19.9868 61.4606 20.2608 62.0124 20.8088C62.5682 21.3567 62.8461 22.0388 62.8461 22.8549C62.8461 23.675 62.5682 24.359 62.0124 24.907C61.4606 25.4549 60.7688 25.7289 59.9371 25.7289C59.1054 25.7289 58.4136 25.4549 57.8618 24.907C57.3099 24.359 57.034 23.675 57.034 22.8549C57.034 22.0388 57.3099 21.3567 57.8618 20.8088C58.4175 20.2608 59.1093 19.9868 59.9371 19.9868ZM61.377 21.3859C60.9923 20.9973 60.5123 20.8029 59.9371 20.8029C59.3619 20.8029 58.882 20.9973 58.4972 21.3859C58.1124 21.7745 57.9201 22.2642 57.9201 22.8549C57.9201 23.4496 58.1124 23.9412 58.4972 24.3298C58.882 24.7185 59.3619 24.9128 59.9371 24.9128C60.5123 24.9128 60.9923 24.7185 61.377 24.3298C61.7618 23.9412 61.9541 23.4496 61.9541 22.8549C61.9541 22.2642 61.7618 21.7745 61.377 21.3859ZM67.1898 19.9868C67.8738 19.9868 68.4276 20.1889 68.8513 20.5931C69.2788 20.9973 69.4925 21.5316 69.4925 22.1962V25.6182H68.6239V22.4819C68.6239 21.9572 68.484 21.5491 68.2042 21.2576C67.9282 20.9623 67.5377 20.8146 67.0324 20.8146C66.5544 20.8146 66.1522 20.97 65.8257 21.281C65.5031 21.588 65.3419 21.9961 65.3419 22.5052V25.6182H64.4674V20.0976H65.3302V20.8845C65.5401 20.5736 65.8102 20.3463 66.1405 20.2025C66.4708 20.0587 66.8206 19.9868 67.1898 19.9868ZM76.693 20.0976V25.6182L75.8244 25.6182V24.7962C75.3425 25.418 74.6702 25.7289 73.8074 25.7289C73.0262 25.7289 72.3714 25.4569 71.8428 24.9128C71.3143 24.3648 71.05 23.6789 71.05 22.8549C71.05 22.031 71.3143 21.347 71.8428 20.8029C72.3714 20.2588 73.0262 19.9868 73.8074 19.9868C74.6663 19.9868 75.3386 20.2977 75.8244 20.9195V20.0976H76.693ZM73.9123 20.8029C73.3294 20.8029 72.8533 21.0011 72.4841 21.3976C72.1188 21.7901 71.9361 22.2759 71.9361 22.8549C71.9361 23.434 72.1207 23.9218 72.4899 24.3182C72.8591 24.7146 73.3333 24.9128 73.9123 24.9128C74.4836 24.9128 74.9539 24.7185 75.3231 24.3298C75.6923 23.9373 75.8769 23.4457 75.8769 22.8549C75.8769 22.2681 75.6923 21.7804 75.3231 21.3917C74.9539 20.9992 74.4836 20.8029 73.9123 20.8029ZM81.4563 19.9868C82.1403 19.9868 82.6942 20.1889 83.1178 20.5931C83.5453 20.9973 83.759 21.5316 83.759 22.1962V25.6182H82.8904V22.4819C82.8904 21.9572 82.7505 21.5491 82.4707 21.2576C82.1948 20.9623 81.8042 20.8146 81.2989 20.8146C80.8209 20.8146 80.4187 20.97 80.0922 21.281C79.7697 21.588 79.6084 21.9961 79.6084 22.5052V25.6182H78.7339V20.0976H79.5967V20.8845C79.8066 20.5736 80.0767 20.3463 80.407 20.2025C80.7374 20.0587 81.0871 19.9868 81.4563 19.9868ZM90.9596 20.0976V25.6182H90.0909V24.7962C89.609 25.418 88.9367 25.7289 88.0739 25.7289C87.2928 25.7289 86.6379 25.4569 86.1093 24.9128C85.5808 24.3648 85.3165 23.6789 85.3165 22.8549C85.3165 22.031 85.5808 21.347 86.1093 20.8029C86.6379 20.2588 87.2928 19.9868 88.0739 19.9868C88.9328 19.9868 89.6052 20.2977 90.0909 20.9195V20.0976H90.9596ZM88.1788 20.8029C87.5959 20.8029 87.1198 21.0011 86.7506 21.3976C86.3853 21.7901 86.2026 22.2759 86.2026 22.8549C86.2026 23.434 86.3872 23.9218 86.7564 24.3182C87.1256 24.7146 87.5998 24.9128 88.1788 24.9128C88.7501 24.9128 89.2204 24.7185 89.5896 24.3298C89.9588 23.9373 90.1434 23.4457 90.1434 22.8549C90.1434 22.2681 89.9588 21.7804 89.5896 21.3917C89.2204 20.9992 88.7501 20.8029 88.1788 20.8029ZM93.8749 17.2236V25.6182H93.0005V17.2236H93.8749Z" fill="#231F20"/>
<path d="M0.245117 40.745C0.245117 34.0475 5.67446 28.6182 12.3719 28.6182H26.1919V40.745H0.245117V40.745Z" fill="white"/>
<rect x="26.1924" y="28.6182" width="90.1064" height="12.1268" fill="white"/>
<path d="M116.298 28.6182H130.118C136.815 28.6182 142.245 34.0475 142.245 40.745V40.745H116.298V28.6182Z" fill="white"/>
<g clip-path="url(#clip1_214_14349)">
<path d="M197.552 40.745L-55.0625 40.745V62.1201L197.552 62.1201V40.745Z" fill="white"/>
<path d="M2.16504 54.9303L17.5162 46.4774" stroke="#231F20" stroke-width="0.971596"/>
<path d="M17.5156 46.4774L32.4782 55.5133" stroke="#231F20" stroke-width="0.971596"/>
<path d="M32.4775 55.5133L47.8288 47.0604" stroke="#231F20" stroke-width="0.971596"/>
<path d="M47.8301 47.0604L62.7927 55.9991" stroke="#231F20" stroke-width="0.971596"/>
<path d="M62.792 55.999L78.046 47.5461" stroke="#231F20" stroke-width="0.971596"/>
<path d="M78.0459 47.5461L93.1056 56.582" stroke="#231F20" stroke-width="0.971596"/>
<path d="M93.1055 56.582L108.36 48.1292" stroke="#231F20" stroke-width="0.971596"/>
<path d="M108.36 48.1292L123.323 57.0678" stroke="#231F20" stroke-width="0.971596"/>
<path d="M123.322 57.0678L129.54 53.6672" stroke="#231F20" stroke-width="0.971596"/>
<path d="M129.541 53.6672L135.759 50.1694" stroke="#FF6A00" stroke-width="0.971596"/>
<path d="M123.42 54.0559L128.278 51.3354" stroke="#231F20" stroke-width="0.971596"/>
<path d="M128.277 51.3354L134.496 47.9348" stroke="#FF6A00" stroke-width="0.971596"/>
<path d="M16.7393 46.9632L17.5165 46.4774L18.2938 46.9632" stroke="#231F20" stroke-width="0.971596"/>
<path d="M31.7012 55.0275L32.4784 55.5133L33.2557 55.1246" stroke="#231F20" stroke-width="0.971596"/>
<path d="M47.0518 47.4491L47.829 47.0604L48.5092 47.4491" stroke="#231F20" stroke-width="0.971596"/>
<path d="M62.0146 55.6105L62.7919 55.9991L63.5692 55.6105" stroke="#231F20" stroke-width="0.971596"/>
<path d="M77.2695 48.0319L78.0468 47.5461L78.8241 48.0319" stroke="#231F20" stroke-width="0.971596"/>
<path d="M92.3291 56.0963L93.1064 56.5821L93.7865 56.1935" stroke="#231F20" stroke-width="0.971596"/>
<path d="M107.583 48.5178L108.36 48.1292L109.138 48.5178" stroke="#231F20" stroke-width="0.971596"/>
<path d="M122.643 56.6792L123.323 57.0678L123.614 56.9707" stroke="#231F20" stroke-width="0.971596"/>
<path d="M135.76 47.5462C135.76 46.7041 135.954 46.0564 136.343 45.603C136.731 45.2143 137.282 45.02 137.994 45.02C138.707 45.02 139.29 45.2143 139.743 45.603C140.132 46.0564 140.326 46.7041 140.326 47.5462C140.326 48.3234 140.1 48.9388 139.646 49.3922C139.258 49.8456 138.707 50.0723 137.994 50.0723C137.282 50.0723 136.731 49.8456 136.343 49.3922C135.954 48.9388 135.76 48.3234 135.76 47.5462ZM137.994 49.4894C138.513 49.4894 138.901 49.3274 139.16 49.0036C139.419 48.6797 139.549 48.1939 139.549 47.5462C139.549 46.8984 139.419 46.3803 139.16 45.9916C138.901 45.6678 138.513 45.5058 137.994 45.5058C137.476 45.5058 137.088 45.6678 136.829 45.9916C136.569 46.3155 136.44 46.8337 136.44 47.5462C136.44 48.1939 136.569 48.6797 136.829 49.0036C137.088 49.3274 137.476 49.4894 137.994 49.4894Z" fill="#FF6A00"/>
</g>
<path d="M0.245117 62.1201H26.1919V74.2456H12.3706C5.6739 74.2456 0.245117 68.8169 0.245117 62.1201V62.1201Z" fill="white"/>
<rect x="26.1924" y="62.1201" width="90.1064" height="12.1255" fill="white"/>
<path d="M116.298 62.1201H142.245V62.1201C142.245 68.8169 136.816 74.2456 130.119 74.2456H116.298V62.1201Z" fill="white"/>
</g>
<rect x="0.994886" y="1.18165" width="140.5" height="85.5005" rx="3.13661" stroke="white" stroke-width="1.49954"/>
<defs>
<clipPath id="clip0_214_14349">
<rect x="0.245117" y="0.431885" width="142" height="87" rx="3.88638" fill="white"/>
</clipPath>
<clipPath id="clip1_214_14349">
<rect width="252.615" height="21.3751" fill="white" transform="translate(-55.0625 40.745)"/>
</clipPath>
</defs>
</svg>
