<svg width="143" height="87" viewBox="0 0 143 87" fill="none" xmlns="http://www.w3.org/2000/svg">
<g clip-path="url(#clip0_214_14541)">
<rect x="0.557617" y="0.431885" width="142" height="86" rx="3.88638" fill="white"/>
<path d="M0.557617 5.32723C0.557617 -1.37021 5.98696 -6.79956 12.6844 -6.79956L26.5044 -6.79956V5.32723H0.557617V5.32723Z" fill="white"/>
<rect x="26.5049" y="-6.79956" width="90.1064" height="12.1268" fill="white"/>
<path d="M116.61 -6.79956L130.43 -6.79956C137.128 -6.79956 142.557 -1.37021 142.557 5.32723V5.32723L116.61 5.32723V-6.79956Z" fill="white"/>
<rect width="142" height="15" transform="translate(0.557617 5.32727)" fill="white"/>
<path d="M50.7796 9.16586L54.1316 17.3273H53.1289L52.202 15.0537H48.1621L47.241 17.3273H46.2675L49.6195 9.16586H50.7796ZM50.185 10.0928L48.5235 14.1676H51.8464L50.185 10.0928ZM58.0891 11.6959C58.7731 11.6959 59.3269 11.898 59.7506 12.3022C60.1781 12.7064 60.3918 13.2407 60.3918 13.9053V17.3273H59.5232V14.191C59.5232 13.6663 59.3833 13.2582 59.1035 12.9667C58.8275 12.6714 58.437 12.5237 57.9317 12.5237C57.4537 12.5237 57.0515 12.6792 56.725 12.9901C56.4024 13.2971 56.2412 13.7052 56.2412 14.2143V17.3273H55.3667V11.8067H56.2295V12.5937C56.4394 12.2827 56.7095 12.0554 57.0398 11.9116C57.3702 11.7678 57.7199 11.6959 58.0891 11.6959ZM64.6892 11.6959C65.4393 11.6959 66.0572 11.9621 66.543 12.4946C67.0327 13.027 67.2795 13.711 67.2834 14.5466C67.2834 14.667 67.2775 14.7759 67.2659 14.873H62.8412C62.8995 15.4482 63.1094 15.8932 63.4708 16.208C63.8323 16.5189 64.2734 16.6744 64.7941 16.6744C65.4548 16.6744 66.0378 16.4431 66.543 15.9806L67.0094 16.5753C66.407 17.1504 65.6511 17.438 64.7417 17.438C63.9217 17.438 63.2513 17.1738 62.7305 16.6452C62.2097 16.1128 61.9493 15.421 61.9493 14.5699C61.9493 13.7304 62.2078 13.0425 62.7246 12.5062C63.2415 11.966 63.8964 11.6959 64.6892 11.6959ZM64.6717 12.4712C64.1743 12.4712 63.7643 12.6267 63.4417 12.9376C63.1191 13.2485 62.9229 13.6585 62.8529 14.1676H66.3973C66.3429 13.6508 66.1583 13.2388 65.8435 12.9318C65.5326 12.6247 65.142 12.4712 64.6717 12.4712ZM72.596 11.8067V12.5937L70.2117 12.5937V15.3802C70.2117 15.796 70.3108 16.1069 70.509 16.3129C70.7072 16.5189 70.9735 16.6219 71.3077 16.6219C71.7235 16.6219 72.1102 16.4917 72.4678 16.2313L72.8759 16.8901C72.3939 17.2554 71.8479 17.438 71.2377 17.438C70.6315 17.438 70.1632 17.269 69.8328 16.9309C69.5064 16.5889 69.3431 16.0778 69.3431 15.3977V12.5937H68.1364V11.8067H69.3431V10.052H70.2117V11.8067L72.596 11.8067ZM75.0051 8.93268V12.5762C75.2189 12.273 75.489 12.0515 75.8154 11.9116C76.1419 11.7678 76.4878 11.6959 76.8531 11.6959C77.5371 11.6959 78.0909 11.898 78.5145 12.3022C78.942 12.7064 79.1558 13.2407 79.1558 13.9053V17.3273H78.2872V14.191C78.2872 13.6663 78.1472 13.2582 77.8674 12.9667C77.5915 12.6714 77.2009 12.5237 76.6957 12.5237C76.2177 12.5237 75.8154 12.6792 75.489 12.9901C75.1664 13.2971 75.0051 13.7052 75.0051 14.2143V17.3273H74.1307V8.93268H75.0051ZM83.6164 11.6959C84.4481 11.6959 85.1399 11.9699 85.6917 12.5179C86.2475 13.0659 86.5253 13.7479 86.5253 14.5641C86.5253 15.3841 86.2475 16.0681 85.6917 16.6161C85.1399 17.164 84.4481 17.438 83.6164 17.438C82.7847 17.438 82.0929 17.164 81.5411 16.6161C80.9892 16.0681 80.7133 15.3841 80.7133 14.5641C80.7133 13.7479 80.9892 13.0659 81.5411 12.5179C82.0968 11.9699 82.7886 11.6959 83.6164 11.6959ZM85.0563 13.095C84.6715 12.7064 84.1916 12.512 83.6164 12.512C83.0412 12.512 82.5612 12.7064 82.1765 13.095C81.7917 13.4836 81.5994 13.9733 81.5994 14.5641C81.5994 15.1587 81.7917 15.6503 82.1765 16.0389C82.5612 16.4276 83.0412 16.6219 83.6164 16.6219C84.1916 16.6219 84.6715 16.4276 85.0563 16.0389C85.441 15.6503 85.6334 15.1587 85.6334 14.5641C85.6334 13.9733 85.441 13.4836 85.0563 13.095ZM89.0211 8.93268V17.3273H88.1467V8.93268H89.0211ZM93.3817 11.6959C94.1317 11.6959 94.7497 11.9621 95.2355 12.4946C95.7251 13.027 95.9719 13.711 95.9758 14.5466C95.9758 14.667 95.97 14.7759 95.9583 14.873L91.5337 14.873C91.592 15.4482 91.8018 15.8932 92.1633 16.208C92.5247 16.5189 92.9658 16.6744 93.4866 16.6744C94.1473 16.6744 94.7302 16.4431 95.2355 15.9806L95.7018 16.5753C95.0994 17.1504 94.3435 17.438 93.4341 17.438C92.6141 17.438 91.9437 17.1738 91.4229 16.6452C90.9021 16.1128 90.6418 15.421 90.6418 14.5699C90.6418 13.7304 90.9002 13.0425 91.4171 12.5062C91.934 11.966 92.5888 11.6959 93.3817 11.6959ZM93.3642 12.4712C92.8667 12.4712 92.4567 12.6267 92.1341 12.9376C91.8116 13.2485 91.6153 13.6585 91.5453 14.1676L95.0897 14.1676C95.0353 13.6508 94.8507 13.2388 94.5359 12.9318C94.225 12.6247 93.8344 12.4712 93.3642 12.4712Z" fill="#231F20"/>
<g clip-path="url(#clip1_214_14541)">
<path d="M171.146 20.3273L-28.0312 20.3273V81.5378L171.146 81.5378V20.3273Z" fill="white"/>
<path d="M125.87 51.7098L108.77 55.5962" stroke="#231F20" stroke-width="0.971596"/>
<path d="M16.7588 45.5887L21.3253 50.4467" stroke="#231F20" stroke-width="0.971596"/>
<path d="M21.3252 50.4468L25.7945 55.3048" stroke="#FF6A00" stroke-width="0.971596"/>
<path d="M108.769 55.5962L96.916 42.7711" stroke="#231F20" stroke-width="0.971596"/>
<path d="M109.643 52.7787L98.8584 41.0223" stroke="#231F20" stroke-width="0.971596"/>
<path d="M96.9155 42.7711L79.8154 46.6575" stroke="#231F20" stroke-width="0.971596"/>
<path d="M74.667 63.369L57.6641 67.2554" stroke="#231F20" stroke-width="0.971596"/>
<path d="M72.6252 61.2314L58.5371 64.4377" stroke="#231F20" stroke-width="0.971596"/>
<path d="M74.667 63.3689L79.8165 46.6575" stroke="#231F20" stroke-width="0.971596"/>
<path d="M67.9624 33.9296L50.8623 37.8159" stroke="#231F20" stroke-width="0.971596"/>
<path d="M67.9619 33.9296L79.8154 46.6575" stroke="#231F20" stroke-width="0.971596"/>
<path d="M67.0879 36.7473L76.901 47.3377" stroke="#231F20" stroke-width="0.971596"/>
<path d="M57.6635 67.2552L45.7129 54.5273" stroke="#231F20" stroke-width="0.971596"/>
<path d="M50.8623 37.816L45.7129 54.5275" stroke="#231F20" stroke-width="0.971596"/>
<path d="M52.9996 39.9535L48.7246 53.8473" stroke="#231F20" stroke-width="0.971596"/>
<path d="M45.7128 54.5273L38.6201 56.0819" stroke="#231F20" stroke-width="0.971596"/>
<path d="M38.62 56.082L31.5273 57.7337" stroke="#FF6A00" stroke-width="0.971596"/>
<path d="M109.644 55.4018L108.769 55.5961L108.187 55.0132" stroke="#231F20" stroke-width="0.971596"/>
<path d="M97.4994 43.4512L96.9164 42.7711L96.042 42.9654" stroke="#231F20" stroke-width="0.971596"/>
<path d="M73.792 63.5633L74.6664 63.369L74.9579 62.5917" stroke="#231F20" stroke-width="0.971596"/>
<path d="M67.0879 34.1239L67.9623 33.9296L68.5453 34.5125" stroke="#231F20" stroke-width="0.971596"/>
<path d="M58.4403 67.061L57.663 67.2553L57.0801 66.6724" stroke="#231F20" stroke-width="0.971596"/>
<path d="M51.7367 37.6217L50.8623 37.816L50.668 38.5933" stroke="#231F20" stroke-width="0.971596"/>
<path d="M26.3779 58.4138C26.3779 57.5718 26.5722 56.9565 26.9609 56.5678C27.3495 56.1144 27.9325 55.8877 28.7098 55.8877C29.4223 55.8877 29.9728 56.1144 30.3615 56.5678C30.7501 56.9565 30.9444 57.5718 30.9444 58.4138C30.9444 59.1911 30.7501 59.8065 30.3615 60.2599C29.9728 60.7133 29.4223 60.94 28.7098 60.94C27.9973 60.94 27.4143 60.7133 26.9609 60.2599C26.5722 59.8065 26.3779 59.1911 26.3779 58.4138ZM28.7098 60.357C29.2279 60.357 29.6166 60.1951 29.8757 59.8712C30.1348 59.5474 30.2643 59.0616 30.2643 58.4138C30.2643 57.7661 30.1348 57.2803 29.8757 56.9565C29.6166 56.6326 29.2279 56.4707 28.7098 56.4707C28.1916 56.4707 27.8029 56.6326 27.5438 56.9565C27.2848 57.2803 27.1552 57.7661 27.1552 58.4138C27.1552 59.0616 27.2848 59.5474 27.5438 59.8712C27.8029 60.1951 28.1916 60.357 28.7098 60.357Z" fill="#FF6A00"/>
</g>
<path d="M0.557617 81.5378H26.5044V93.6634H12.6831C5.9864 93.6634 0.557617 88.2346 0.557617 81.5378V81.5378Z" fill="white"/>
<rect x="26.5049" y="81.5378" width="90.1064" height="12.1255" fill="white"/>
<path d="M116.61 81.5378H142.557V81.5378C142.557 88.2346 137.128 93.6634 130.432 93.6634H116.61V81.5378Z" fill="white"/>
</g>
<rect x="1.30739" y="1.18165" width="140.5" height="84.5005" rx="3.13661" stroke="white" stroke-width="1.49954"/>
<defs>
<clipPath id="clip0_214_14541">
<rect x="0.557617" y="0.431885" width="142" height="86" rx="3.88638" fill="white"/>
</clipPath>
<clipPath id="clip1_214_14541">
<rect width="199.177" height="61.2105" fill="white" transform="translate(-28.0312 20.3273)"/>
</clipPath>
</defs>
</svg>
