<svg width="144" height="88" viewBox="0 0 144 88" fill="none" xmlns="http://www.w3.org/2000/svg">
<g clip-path="url(#clip0_214_14433)">
<rect x="0.870117" y="0.431885" width="143" height="87" rx="3.88638" fill="white"/>
<path d="M0.870117 6.31307C0.870117 -0.384375 6.29946 -5.81372 12.9969 -5.81372L26.8169 -5.81372V6.31307L0.870117 6.31307V6.31307Z" fill="white"/>
<rect x="26.8174" y="-5.81372" width="91.1064" height="12.1268" fill="white"/>
<path d="M117.923 -5.81372L131.743 -5.81372C138.44 -5.81372 143.87 -0.384375 143.87 6.31307V6.31307L117.923 6.31307V-5.81372Z" fill="white"/>
<rect width="143" height="15" transform="translate(0.870117 8.5376)" fill="white"/>
<path d="M40.0477 12.3762H43.2073C44.1167 12.3762 44.8357 12.5511 45.3643 12.9009C45.8928 13.2467 46.1571 13.7889 46.1571 14.5273C46.1571 14.9742 46.0463 15.3551 45.8248 15.6699C45.6033 15.9808 45.304 16.2023 44.927 16.3345C45.3545 16.4744 45.6946 16.7095 45.9472 17.0399C46.2037 17.3702 46.332 17.7802 46.332 18.2699C46.332 19.0394 46.0696 19.6107 45.545 19.9838C45.0242 20.353 44.2955 20.5376 43.3589 20.5376H40.0477V12.3762ZM43.3181 16.8358H40.9863V19.6573H43.3181C43.6368 19.6573 43.9146 19.634 44.1517 19.5874C44.3927 19.5407 44.6045 19.465 44.7871 19.36C44.9737 19.2551 45.1136 19.1094 45.2069 18.9228C45.3001 18.7363 45.3468 18.5089 45.3468 18.2407C45.3468 17.7277 45.1719 17.3663 44.8221 17.1564C44.4762 16.9427 43.9749 16.8358 43.3181 16.8358ZM43.1723 13.2565H40.9863V15.9614H43.1782C43.4774 15.9614 43.7398 15.9419 43.9652 15.9031C44.1945 15.8603 44.4024 15.7904 44.5889 15.6932C44.7794 15.5961 44.9232 15.4562 45.0203 15.2735C45.1214 15.0869 45.1719 14.8615 45.1719 14.5973C45.1719 14.3408 45.1214 14.1231 45.0203 13.9443C44.9232 13.7617 44.7794 13.6218 44.5889 13.5246C44.3985 13.4275 44.1886 13.3594 43.9593 13.3206C43.7339 13.2778 43.4716 13.2565 43.1723 13.2565ZM53.0147 15.017V18.2349C53.0147 18.6313 52.9467 18.9869 52.8106 19.3017C52.6746 19.6126 52.49 19.8653 52.2568 20.0596C52.0236 20.2539 51.7574 20.4016 51.4582 20.5026C51.1628 20.5998 50.8461 20.6484 50.508 20.6484C50.166 20.6484 49.8453 20.5998 49.5461 20.5026C49.2507 20.4016 48.9864 20.2539 48.7533 20.0596C48.5201 19.8653 48.3355 19.6126 48.1994 19.3017C48.0673 18.9869 48.0012 18.6313 48.0012 18.2349V15.017H48.8698V18.1533C48.8698 18.7052 49.0195 19.123 49.3187 19.4067C49.618 19.6904 50.0144 19.8322 50.508 19.8322C51.0015 19.8322 51.396 19.6904 51.6914 19.4067C51.9906 19.123 52.1402 18.7052 52.1402 18.1533V15.017H53.0147ZM58.7364 15.017V15.804H56.3521V18.5905C56.3521 19.0064 56.4512 19.3173 56.6494 19.5233C56.8476 19.7292 57.1138 19.8322 57.4481 19.8322C57.8639 19.8322 58.2506 19.702 58.6081 19.4416L59.0162 20.1004C58.5343 20.4657 57.9883 20.6484 57.3781 20.6484C56.7718 20.6484 56.3035 20.4793 55.9732 20.1412C55.6467 19.7992 55.4835 19.2881 55.4835 18.608V15.804H54.2768V15.017H55.4835V13.2623H56.3521V15.017H58.7364ZM65.4216 15.017L60.927 22.8927H59.9652L62.023 19.3425L59.4871 15.017H60.4607L62.5185 18.4798L64.4656 15.017H65.4216ZM69.0342 14.9062C69.4383 14.9062 69.7765 14.9684 70.0485 15.0928L69.8386 15.9497C69.5666 15.802 69.2479 15.7282 68.8826 15.7282C68.4473 15.7282 68.0917 15.8856 67.8158 16.2004C67.5398 16.5152 67.4019 16.931 67.4019 17.4479V20.5376H66.5333V15.017H67.3961V15.7923C67.5865 15.5086 67.8216 15.291 68.1014 15.1394C68.3851 14.984 68.696 14.9062 69.0342 14.9062ZM72.2467 15.017V20.5376H71.3723V15.017H72.2467ZM71.8095 12.4403C71.9805 12.4403 72.1262 12.5006 72.2467 12.621C72.3672 12.7376 72.4274 12.8834 72.4274 13.0583C72.4274 13.2331 72.3672 13.3789 72.2467 13.4955C72.1301 13.6121 71.9844 13.6704 71.8095 13.6704C71.6346 13.6704 71.4889 13.6121 71.3723 13.4955C71.2557 13.3789 71.1974 13.2331 71.1974 13.0583C71.1974 12.8834 71.2557 12.7376 71.3723 12.621C71.4889 12.5006 71.6346 12.4403 71.8095 12.4403ZM76.7238 14.9062C77.1358 14.9062 77.5186 14.982 77.8723 15.1336C78.2259 15.2813 78.5252 15.495 78.77 15.7748L78.2104 16.3636C77.7712 15.9361 77.2679 15.7224 76.7005 15.7224C76.1448 15.7224 75.6803 15.9167 75.3072 16.3053C74.938 16.694 74.7534 17.1836 74.7534 17.7744C74.7534 18.369 74.938 18.8606 75.3072 19.2493C75.6803 19.6379 76.1448 19.8322 76.7005 19.8322C77.2757 19.8322 77.7848 19.6165 78.2279 19.1851L78.77 19.7798C78.5213 20.0596 78.2201 20.2753 77.8664 20.4268C77.5128 20.5745 77.1319 20.6484 76.7238 20.6484C75.8844 20.6484 75.1984 20.3763 74.666 19.8322C74.1336 19.2881 73.8673 18.6022 73.8673 17.7744C73.8673 16.9505 74.1336 16.2665 74.666 15.7224C75.1984 15.1783 75.8844 14.9062 76.7238 14.9062ZM88.5849 15.017V20.5376H87.7163V19.7156C87.2344 20.3374 86.5621 20.6484 85.6993 20.6484C84.9181 20.6484 84.2633 20.3763 83.7347 19.8322C83.2062 19.2842 82.9419 18.5983 82.9419 17.7744C82.9419 16.9505 83.2062 16.2665 83.7347 15.7224C84.2633 15.1783 84.9181 14.9062 85.6993 14.9062C86.5582 14.9062 87.2305 15.2171 87.7163 15.839V15.017H88.5849ZM85.8042 15.7224C85.2213 15.7224 84.7452 15.9206 84.376 16.317C84.0106 16.7095 83.828 17.1953 83.828 17.7744C83.828 18.3534 84.0126 18.8412 84.3818 19.2376C84.751 19.634 85.2251 19.8322 85.8042 19.8322C86.3755 19.8322 86.8458 19.6379 87.215 19.2493C87.5842 18.8567 87.7688 18.3651 87.7688 17.7744C87.7688 17.1875 87.5842 16.6998 87.215 16.3112C86.8458 15.9186 86.3755 15.7224 85.8042 15.7224ZM93.0626 14.9062C93.4745 14.9062 93.8573 14.982 94.211 15.1336C94.5647 15.2813 94.8639 15.495 95.1088 15.7748L94.5491 16.3636C94.11 15.9361 93.6067 15.7224 93.0393 15.7224C92.4835 15.7224 92.0191 15.9167 91.646 16.3053C91.2768 16.694 91.0922 17.1836 91.0922 17.7744C91.0922 18.369 91.2768 18.8606 91.646 19.2493C92.0191 19.6379 92.4835 19.8322 93.0393 19.8322C93.6144 19.8322 94.1236 19.6165 94.5666 19.1851L95.1088 19.7798C94.86 20.0596 94.5588 20.2753 94.2052 20.4268C93.8515 20.5745 93.4706 20.6484 93.0626 20.6484C92.2231 20.6484 91.5372 20.3763 91.0047 19.8322C90.4723 19.2881 90.2061 18.6022 90.2061 17.7744C90.2061 16.9505 90.4723 16.2665 91.0047 15.7224C91.5372 15.1783 92.2231 14.9062 93.0626 14.9062ZM97.4665 15.017V20.5376H96.592V15.017H97.4665ZM97.0292 12.4403C97.2002 12.4403 97.346 12.5006 97.4665 12.621C97.5869 12.7376 97.6472 12.8834 97.6472 13.0583C97.6472 13.2331 97.5869 13.3789 97.4665 13.4955C97.3499 13.6121 97.2041 13.6704 97.0292 13.6704C96.8544 13.6704 96.7086 13.6121 96.592 13.4955C96.4754 13.3789 96.4171 13.2331 96.4171 13.0583C96.4171 12.8834 96.4754 12.7376 96.592 12.621C96.7086 12.5006 96.8544 12.4403 97.0292 12.4403ZM101.844 14.9062C102.703 14.9062 103.376 15.2171 103.862 15.839V12.143L104.73 12.143V20.5376H103.862V19.7156C103.38 20.3374 102.707 20.6484 101.844 20.6484C101.063 20.6484 100.408 20.3763 99.8799 19.8322C99.3514 19.2842 99.0871 18.5983 99.0871 17.7744C99.0871 16.9505 99.3514 16.2665 99.8799 15.7224C100.408 15.1783 101.063 14.9062 101.844 14.9062ZM101.949 15.7224C101.366 15.7224 100.89 15.9206 100.521 16.317C100.156 16.7095 99.9732 17.1953 99.9732 17.7744C99.9732 18.3534 100.158 18.8412 100.527 19.2376C100.896 19.634 101.37 19.8322 101.949 19.8322C102.521 19.8322 102.991 19.6379 103.36 19.2493C103.729 18.8567 103.914 18.3651 103.914 17.7744C103.914 17.1875 103.729 16.6998 103.36 16.3112C102.991 15.9186 102.521 15.7224 101.949 15.7224Z" fill="#231F20"/>
<g clip-path="url(#clip1_214_14433)">
<path d="M129.209 23.5376L15.5322 23.5376V83.7765H129.209V23.5376Z" fill="white"/>
<path d="M41.085 58.7094L57.3106 52.1997" stroke="#231F20" stroke-width="0.971596"/>
<path d="M57.3105 52.1997L71.1072 62.9844" stroke="#231F20" stroke-width="0.971596"/>
<path d="M71.1074 62.9844L87.3331 56.4747" stroke="#231F20" stroke-width="0.971596"/>
<path d="M85.876 57.0576L91.7056 61.527" stroke="#231F20" stroke-width="0.971596"/>
<path d="M91.7061 61.527L97.4385 66.0935" stroke="#FF6A00" stroke-width="0.971596"/>
<path d="M87.5273 55.0173L93.2598 59.4867" stroke="#231F20" stroke-width="0.971596"/>
<path d="M93.2598 59.4867L98.9922 64.0532" stroke="#FF6A00" stroke-width="0.971596"/>
<path d="M87.334 56.4747L88.3056 49.3821" stroke="#231F20" stroke-width="0.971596"/>
<path d="M88.3047 49.3821L89.3734 42.2894" stroke="#FF6A00" stroke-width="0.971596"/>
<path d="M56.5342 52.4912L57.3115 52.1997L57.9916 52.6855" stroke="#231F20" stroke-width="0.971596"/>
<path d="M70.4277 62.4985L71.1079 62.9843L71.8851 62.6929" stroke="#231F20" stroke-width="0.971596"/>
<path d="M86.5557 56.7662L87.3329 56.4747V56.0861" stroke="#231F20" stroke-width="0.971596"/>
<path d="M98.7979 67.2594C98.7979 66.4822 98.9922 65.8668 99.3808 65.4134C99.7695 65.0248 100.32 64.8304 101.033 64.8304C101.81 64.8304 102.393 65.0248 102.781 65.4134C103.17 65.8668 103.364 66.4822 103.364 67.2594C103.364 68.1015 103.17 68.7492 102.781 69.2026C102.393 69.656 101.81 69.8827 101.033 69.8827C100.32 69.8827 99.7695 69.656 99.3808 69.2026C98.9922 68.7492 98.7979 68.1015 98.7979 67.2594ZM101.033 69.2998C101.551 69.2998 101.939 69.1379 102.198 68.814C102.522 68.4901 102.684 67.9719 102.684 67.2594C102.684 66.6117 102.522 66.1259 102.198 65.802C101.939 65.4782 101.551 65.3162 101.033 65.3162C100.579 65.3162 100.19 65.4782 99.8666 65.802C99.6075 66.1259 99.478 66.6117 99.478 67.2594C99.478 67.9719 99.6075 68.4901 99.8666 68.814C100.19 69.1379 100.579 69.2998 101.033 69.2998Z" fill="#FF6A00"/>
<path d="M87.5273 39.1803C87.5273 38.403 87.7217 37.7877 88.1103 37.3343C88.4989 36.8809 89.0495 36.6542 89.762 36.6542C90.5393 36.6542 91.1222 36.8809 91.5109 37.3343C91.8995 37.7877 92.0938 38.403 92.0938 39.1803C92.0938 39.9576 91.8995 40.6053 91.5109 41.1235C91.1222 41.5122 90.5393 41.7065 89.762 41.7065C89.0495 41.7065 88.4989 41.5122 88.1103 41.1235C87.7217 40.6701 87.5273 40.0224 87.5273 39.1803ZM89.762 41.2207C90.2802 41.2207 90.6688 41.0587 90.9279 40.7349C91.2518 40.3462 91.4137 39.8281 91.4137 39.1803C91.4137 38.5326 91.2518 38.0468 90.9279 37.7229C90.6688 37.3991 90.2802 37.2371 89.762 37.2371C89.3086 37.2371 88.92 37.3991 88.5961 37.7229C88.337 38.0468 88.2075 38.5326 88.2075 39.1803C88.2075 39.8281 88.337 40.3462 88.5961 40.7349C88.92 41.0587 89.3086 41.2207 89.762 41.2207Z" fill="#FF6A00"/>
<path d="M92.8711 36.7512H93.5512V38.7916H96.0774V36.7512H96.7575V41.7064H96.0774V39.3745H93.5512V41.7064H92.8711V36.7512Z" fill="#FF6A00"/>
</g>
<path d="M0.870117 83.7765H26.8169V95.902H12.9956C6.2989 95.902 0.870117 90.4732 0.870117 83.7765V83.7765Z" fill="white"/>
<rect x="26.8174" y="83.7765" width="91.1064" height="12.1255" fill="white"/>
<path d="M117.923 83.7765H143.87V83.7765C143.87 90.4732 138.441 95.902 131.744 95.902H117.923V83.7765Z" fill="white"/>
</g>
<rect x="1.61989" y="1.18165" width="141.5" height="85.5005" rx="3.13661" stroke="white" stroke-width="1.49954"/>
<defs>
<clipPath id="clip0_214_14433">
<rect x="0.870117" y="0.431885" width="143" height="87" rx="3.88638" fill="white"/>
</clipPath>
<clipPath id="clip1_214_14433">
<rect width="113.677" height="60.2389" fill="white" transform="translate(15.5322 23.5376)"/>
</clipPath>
</defs>
</svg>
