<svg width="144" height="87" viewBox="0 0 144 87" fill="none" xmlns="http://www.w3.org/2000/svg">
<g clip-path="url(#clip0_214_15069)">
<rect x="0.870117" y="0.431885" width="143" height="86" rx="3.88638" fill="white"/>
<rect width="102" height="30" transform="translate(21.3701 3.67505)" fill="white"/>
<path d="M26.0344 7.51364H29.1066C30.4396 7.51364 31.4986 7.88285 32.2837 8.62126C33.0687 9.35967 33.4613 10.3507 33.4613 11.5943C33.4613 12.838 33.0687 13.829 32.2837 14.5674C31.4986 15.3058 30.4396 15.675 29.1066 15.675H26.0344V7.51364ZM29.1066 8.39974H26.9729V14.789H29.1066C30.187 14.789 31.0187 14.5014 31.6016 13.9262C32.1846 13.351 32.4761 12.5737 32.4761 11.5943C32.4761 10.6111 32.1846 9.83381 31.6016 9.26252C31.0225 8.68733 30.1909 8.39974 29.1066 8.39974ZM36.0651 10.1544V15.675H35.1906V10.1544H36.0651ZM35.6279 7.57777C35.7989 7.57777 35.9446 7.63801 36.0651 7.75849C36.1855 7.87508 36.2458 8.02082 36.2458 8.1957C36.2458 8.37059 36.1855 8.51633 36.0651 8.63292C35.9485 8.74951 35.8027 8.80781 35.6279 8.80781C35.453 8.80781 35.3072 8.74951 35.1906 8.63292C35.074 8.51633 35.0157 8.37059 35.0157 8.1957C35.0157 8.02082 35.074 7.87508 35.1906 7.75849C35.3072 7.63801 35.453 7.57777 35.6279 7.57777ZM40.4256 10.0437C41.1757 10.0437 41.7936 10.3099 42.2794 10.8423C42.7691 11.3748 43.0159 12.0588 43.0198 12.8943C43.0198 13.0148 43.0139 13.1236 43.0023 13.2208L38.5776 13.2208C38.6359 13.796 38.8458 14.241 39.2072 14.5558C39.5686 14.8667 40.0097 15.0221 40.5305 15.0221C41.1912 15.0221 41.7742 14.7909 42.2794 14.3284L42.7458 14.923C42.1434 15.4982 41.3875 15.7858 40.4781 15.7858C39.658 15.7858 38.9876 15.5215 38.4669 14.993C37.9461 14.4606 37.6857 13.7688 37.6857 12.9177C37.6857 12.0782 37.9441 11.3903 38.461 10.854C38.9779 10.3138 39.6328 10.0437 40.4256 10.0437ZM40.4081 10.819C39.9106 10.819 39.5006 10.9745 39.1781 11.2854C38.8555 11.5963 38.6592 12.0063 38.5893 12.5154L42.1337 12.5154C42.0792 11.9985 41.8946 11.5866 41.5798 11.2795C41.2689 10.9725 40.8784 10.819 40.4081 10.819ZM48.3324 10.1544V10.9414H45.9481V13.728C45.9481 14.1438 46.0472 14.4547 46.2454 14.6607C46.4436 14.8667 46.7098 14.9697 47.0441 14.9697C47.4599 14.9697 47.8466 14.8395 48.2042 14.5791L48.6122 15.2378C48.1303 15.6032 47.5843 15.7858 46.9741 15.7858C46.3678 15.7858 45.8995 15.6168 45.5692 15.2786C45.2427 14.9366 45.0795 14.4256 45.0795 13.7455V10.9414H43.8728V10.1544H45.0795V8.39974H45.9481V10.1544H48.3324ZM50.7415 7.28046V10.9239C50.9552 10.6208 51.2253 10.3993 51.5518 10.2594C51.8782 10.1156 52.2241 10.0437 52.5895 10.0437C53.2735 10.0437 53.8273 10.2458 54.2509 10.65C54.6784 11.0541 54.8921 11.5885 54.8921 12.2531V15.675H54.0235V12.5387C54.0235 12.0141 53.8836 11.606 53.6038 11.3145C53.3279 11.0192 52.9373 10.8715 52.4321 10.8715C51.954 10.8715 51.5518 11.0269 51.2253 11.3378C50.9028 11.6449 50.7415 12.0529 50.7415 12.5621V15.675H49.867V7.28046H50.7415ZM61.7467 10.1544L57.2521 18.0302H56.2902L58.3481 14.48L55.8122 10.1544H56.7857L58.8436 13.6172L60.7907 10.1544H61.7467ZM63.7328 7.28046V15.675H62.8583V7.28046H63.7328ZM68.0933 10.0437C68.8434 10.0437 69.4613 10.3099 69.9471 10.8423C70.4368 11.3748 70.6836 12.0588 70.6875 12.8943C70.6875 13.0148 70.6816 13.1236 70.67 13.2208H66.2453C66.3036 13.796 66.5135 14.241 66.8749 14.5558C67.2364 14.8667 67.6775 15.0221 68.1982 15.0221C68.8589 15.0221 69.4419 14.7909 69.9471 14.3284L70.4135 14.923C69.8111 15.4982 69.0552 15.7858 68.1458 15.7858C67.3257 15.7858 66.6553 15.5215 66.1346 14.993C65.6138 14.4606 65.3534 13.7688 65.3534 12.9177C65.3534 12.0782 65.6118 11.3903 66.1287 10.854C66.6456 10.3138 67.3005 10.0437 68.0933 10.0437ZM68.0758 10.819C67.5784 10.819 67.1683 10.9745 66.8458 11.2854C66.5232 11.5963 66.3269 12.0063 66.257 12.5154H69.8014C69.747 11.9985 69.5624 11.5866 69.2476 11.2795C68.9366 10.9725 68.5461 10.819 68.0758 10.819ZM75.031 10.0437C75.7151 10.0437 76.2689 10.2458 76.6925 10.65C77.12 11.0541 77.3337 11.5885 77.3337 12.2531V15.675H76.4651V12.5387C76.4651 12.0141 76.3252 11.606 76.0454 11.3145C75.7695 11.0192 75.3789 10.8715 74.8736 10.8715C74.3956 10.8715 73.9934 11.0269 73.6669 11.3378C73.3444 11.6449 73.1831 12.0529 73.1831 12.5621V15.675H72.3086V10.1544L73.1714 10.1544V10.9414C73.3813 10.6305 73.6514 10.4032 73.9817 10.2594C74.3121 10.1156 74.6618 10.0437 75.031 10.0437ZM81.6311 10.0437C82.3812 10.0437 82.9991 10.3099 83.4849 10.8423C83.9746 11.3748 84.2214 12.0588 84.2253 12.8943C84.2253 13.0148 84.2195 13.1236 84.2078 13.2208H79.7832C79.8414 13.796 80.0513 14.241 80.4127 14.5558C80.7742 14.8667 81.2153 15.0221 81.7361 15.0221C82.3967 15.0221 82.9797 14.7909 83.4849 14.3284L83.9513 14.923C83.3489 15.4982 82.593 15.7858 81.6836 15.7858C80.8636 15.7858 80.1932 15.5215 79.6724 14.993C79.1516 14.4606 78.8912 13.7688 78.8912 12.9177C78.8912 12.0782 79.1497 11.3903 79.6666 10.854C80.1834 10.3138 80.8383 10.0437 81.6311 10.0437ZM81.6136 10.819C81.1162 10.819 80.7062 10.9745 80.3836 11.2854C80.061 11.5963 79.8648 12.0063 79.7948 12.5154H83.3392C83.2848 11.9985 83.1002 11.5866 82.7854 11.2795C82.4745 10.9725 82.0839 10.819 81.6136 10.819ZM91.2691 10.0437C92.1242 10.0437 92.781 10.3565 93.2395 10.9822V10.1544H94.114V15.2961C94.114 16.1783 93.8458 16.8643 93.3095 17.354C92.7732 17.8475 92.0678 18.0943 91.1934 18.0943C90.7503 18.0943 90.3209 18.0283 89.905 17.8961C89.4931 17.7679 89.1472 17.5871 88.8674 17.354L89.2521 16.6544C89.8234 17.0858 90.4705 17.3015 91.1934 17.3015C91.8074 17.3015 92.301 17.1305 92.6741 16.7885C93.0511 16.4465 93.2395 15.9607 93.2395 15.3311V14.7656C92.7848 15.3913 92.128 15.7042 91.2691 15.7042C90.488 15.7042 89.837 15.4399 89.3162 14.9114C88.7955 14.3789 88.5351 13.6988 88.5351 12.871C88.5351 12.0432 88.7955 11.365 89.3162 10.8365C89.837 10.308 90.488 10.0437 91.2691 10.0437ZM91.3683 10.8598C90.7931 10.8598 90.3248 11.0541 89.9633 11.4428C89.6019 11.8275 89.4212 12.3036 89.4212 12.871C89.4212 13.4423 89.6019 13.9223 89.9633 14.3109C90.3248 14.6957 90.7931 14.8881 91.3683 14.8881C91.9318 14.8881 92.3962 14.6976 92.7615 14.3168C93.1307 13.932 93.3153 13.4501 93.3153 12.871C93.3153 12.2997 93.1307 11.8217 92.7615 11.4369C92.3962 11.0522 91.9318 10.8598 91.3683 10.8598ZM97.0251 7.28046V15.675H96.1507V7.28046H97.0251ZM104.102 10.1544L99.6076 18.0302H98.6457L100.704 14.48L98.1677 10.1544H99.1413L101.199 13.6172L103.146 10.1544H104.102ZM107.548 10.0437C107.96 10.0437 108.343 10.1195 108.697 10.271C109.05 10.4187 109.349 10.6325 109.594 10.9123L109.035 11.5011C108.596 11.0736 108.092 10.8598 107.525 10.8598C106.969 10.8598 106.505 11.0541 106.132 11.4428C105.762 11.8314 105.578 12.3211 105.578 12.9118C105.578 13.5064 105.762 13.9981 106.132 14.3867C106.505 14.7754 106.969 14.9697 107.525 14.9697C108.1 14.9697 108.609 14.754 109.052 14.3226L109.594 14.9172C109.346 15.197 109.044 15.4127 108.691 15.5643C108.337 15.712 107.956 15.7858 107.548 15.7858C106.709 15.7858 106.023 15.5138 105.49 14.9697C104.958 14.4256 104.692 13.7396 104.692 12.9118C104.692 12.0879 104.958 11.4039 105.49 10.8598C106.023 10.3157 106.709 10.0437 107.548 10.0437ZM113.459 10.0437C114.29 10.0437 114.982 10.3177 115.534 10.8656C116.09 11.4136 116.367 12.0957 116.367 12.9118C116.367 13.7319 116.09 14.4159 115.534 14.9638C114.982 15.5118 114.29 15.7858 113.459 15.7858C112.627 15.7858 111.935 15.5118 111.383 14.9638C110.831 14.4159 110.555 13.7319 110.555 12.9118C110.555 12.0957 110.831 11.4136 111.383 10.8656C111.939 10.3177 112.631 10.0437 113.459 10.0437ZM114.898 11.4428C114.514 11.0541 114.034 10.8598 113.459 10.8598C112.883 10.8598 112.403 11.0541 112.019 11.4428C111.634 11.8314 111.441 12.3211 111.441 12.9118C111.441 13.5064 111.634 13.9981 112.019 14.3867C112.403 14.7754 112.883 14.9697 113.459 14.9697C114.034 14.9697 114.514 14.7754 114.898 14.3867C115.283 13.9981 115.476 13.5064 115.476 12.9118C115.476 12.3211 115.283 11.8314 114.898 11.4428ZM118.863 7.28046V15.675H117.989V7.28046H118.863ZM33.7122 25.0437C34.4 25.0437 34.9558 25.2458 35.3794 25.65C35.8069 26.0541 36.0207 26.5885 36.0207 27.2531V30.675H35.1521V27.5387C35.1521 27.0141 35.0121 26.606 34.7323 26.3145C34.4525 26.0192 34.06 25.8715 33.5548 25.8715C33.0767 25.8715 32.6745 26.0269 32.348 26.3378C32.0255 26.6449 31.8642 27.0529 31.8642 27.5621V30.675H30.9956V27.5387C30.9956 27.0141 30.8557 26.606 30.5758 26.3145C30.2999 26.0192 29.9093 25.8715 29.4041 25.8715C28.9261 25.8715 28.5238 26.0269 28.1974 26.3378C27.8748 26.6449 27.7135 27.0529 27.7135 27.5621V30.675H26.8391V25.1544H27.7019V25.9414C27.9117 25.6305 28.1818 25.4032 28.5122 25.2594C28.8425 25.1156 29.1923 25.0437 29.5615 25.0437C30.0395 25.0437 30.4593 25.1467 30.8207 25.3526C31.1821 25.5547 31.4522 25.8384 31.631 26.2038C31.837 25.8035 32.1265 25.51 32.4996 25.3235C32.8766 25.137 33.2808 25.0437 33.7122 25.0437ZM40.4807 25.0437C41.3123 25.0437 42.0041 25.3177 42.556 25.8656C43.1117 26.4136 43.3896 27.0957 43.3896 27.9118C43.3896 28.7319 43.1117 29.4159 42.556 29.9638C42.0041 30.5118 41.3123 30.7858 40.4807 30.7858C39.649 30.7858 38.9572 30.5118 38.4053 29.9638C37.8535 29.4159 37.5775 28.7319 37.5775 27.9118C37.5775 27.0957 37.8535 26.4136 38.4053 25.8656C38.9611 25.3177 39.6529 25.0437 40.4807 25.0437ZM41.9206 26.4428C41.5358 26.0541 41.0558 25.8598 40.4807 25.8598C39.9055 25.8598 39.4255 26.0541 39.0408 26.4428C38.656 26.8314 38.4636 27.3211 38.4636 27.9118C38.4636 28.5064 38.656 28.9981 39.0408 29.3867C39.4255 29.7754 39.9055 29.9697 40.4807 29.9697C41.0558 29.9697 41.5358 29.7754 41.9206 29.3867C42.3053 28.9981 42.4977 28.5064 42.4977 27.9118C42.4977 27.3211 42.3053 26.8314 41.9206 26.4428ZM47.7334 25.0437C48.4174 25.0437 48.9712 25.2458 49.3948 25.65C49.8223 26.0541 50.0361 26.5885 50.0361 27.2531V30.675H49.1675V27.5387C49.1675 27.0141 49.0275 26.606 48.7477 26.3145C48.4718 26.0192 48.0812 25.8715 47.576 25.8715C47.098 25.8715 46.6957 26.0269 46.3693 26.3378C46.0467 26.6449 45.8854 27.0529 45.8854 27.5621V30.675H45.011V25.1544H45.8737V25.9414C46.0836 25.6305 46.3537 25.4032 46.6841 25.2594C47.0144 25.1156 47.3642 25.0437 47.7334 25.0437ZM54.4967 25.0437C55.3284 25.0437 56.0201 25.3177 56.572 25.8656C57.1278 26.4136 57.4056 27.0957 57.4056 27.9118C57.4056 28.7319 57.1278 29.4159 56.572 29.9638C56.0201 30.5118 55.3284 30.7858 54.4967 30.7858C53.665 30.7858 52.9732 30.5118 52.4214 29.9638C51.8695 29.4159 51.5936 28.7319 51.5936 27.9118C51.5936 27.0957 51.8695 26.4136 52.4214 25.8656C52.9771 25.3177 53.6689 25.0437 54.4967 25.0437ZM55.9366 26.4428C55.5518 26.0541 55.0719 25.8598 54.4967 25.8598C53.9215 25.8598 53.4415 26.0541 53.0568 26.4428C52.672 26.8314 52.4797 27.3211 52.4797 27.9118C52.4797 28.5064 52.672 28.9981 53.0568 29.3867C53.4415 29.7754 53.9215 29.9697 54.4967 29.9697C55.0719 29.9697 55.5518 29.7754 55.9366 29.3867C56.3213 28.9981 56.5137 28.5064 56.5137 27.9118C56.5137 27.3211 56.3213 26.8314 55.9366 26.4428ZM61.3472 25.0437C62.0972 25.0437 62.7152 25.3099 63.201 25.8423C63.6907 26.3748 63.9374 27.0588 63.9413 27.8943C63.9413 28.0148 63.9355 28.1236 63.9238 28.2208H59.4992C59.5575 28.796 59.7674 29.241 60.1288 29.5558C60.4902 29.8667 60.9313 30.0221 61.4521 30.0221C62.1128 30.0221 62.6957 29.7909 63.201 29.3284L63.6673 29.923C63.0649 30.4982 62.309 30.7858 61.3996 30.7858C60.5796 30.7858 59.9092 30.5215 59.3884 29.993C58.8677 29.4606 58.6073 28.7688 58.6073 27.9177C58.6073 27.0782 58.8657 26.3903 59.3826 25.854C59.8995 25.3138 60.5543 25.0437 61.3472 25.0437ZM61.3297 25.819C60.8322 25.819 60.4222 25.9745 60.0996 26.2854C59.7771 26.5963 59.5808 27.0063 59.5109 27.5154H63.0552C63.0008 26.9985 62.8162 26.5866 62.5014 26.2795C62.1905 25.9725 61.7999 25.819 61.3297 25.819ZM69.254 25.1544V25.9414L66.8697 25.9414V28.728C66.8697 29.1438 66.9688 29.4547 67.167 29.6607C67.3652 29.8667 67.6314 29.9697 67.9656 29.9697C68.3815 29.9697 68.7682 29.8395 69.1257 29.5791L69.5338 30.2378C69.0519 30.6032 68.5059 30.7858 67.8957 30.7858C67.2894 30.7858 66.8211 30.6168 66.4908 30.2786C66.1643 29.9366 66.0011 29.4256 66.0011 28.7455V25.9414H64.7944V25.1544H66.0011V23.3997H66.8697V25.1544L69.254 25.1544ZM71.6631 22.2805V25.9239C71.8768 25.6208 72.1469 25.3993 72.4734 25.2594C72.7998 25.1156 73.1457 25.0437 73.511 25.0437C74.195 25.0437 74.7488 25.2458 75.1725 25.65C75.6 26.0541 75.8137 26.5885 75.8137 27.2531V30.675H74.9451V27.5387C74.9451 27.0141 74.8052 26.606 74.5254 26.3145C74.2494 26.0192 73.8589 25.8715 73.3536 25.8715C72.8756 25.8715 72.4734 26.0269 72.1469 26.3378C71.8243 26.6449 71.6631 27.0529 71.6631 27.5621V30.675H70.7886V22.2805H71.6631ZM82.6683 25.1544L78.1737 33.0302H77.2118L79.2696 29.48L76.7338 25.1544H77.7073L79.7652 28.6172L81.7122 25.1544H82.6683ZM84.6544 22.2805V30.675H83.7799V22.2805H84.6544ZM92.1232 25.0437C92.8733 25.0437 93.4912 25.3099 93.977 25.8423C94.4667 26.3748 94.7135 27.0588 94.7174 27.8943C94.7174 28.0148 94.7116 28.1236 94.6999 28.2208H90.2753C90.3335 28.796 90.5434 29.241 90.9048 29.5558C91.2663 29.8667 91.7074 30.0221 92.2282 30.0221C92.8888 30.0221 93.4718 29.7909 93.977 29.3284L94.4434 29.923C93.841 30.4982 93.0851 30.7858 92.1757 30.7858C91.3557 30.7858 90.6853 30.5215 90.1645 29.993C89.6437 29.4606 89.3833 28.7688 89.3833 27.9177C89.3833 27.0782 89.6418 26.3903 90.1587 25.854C90.6756 25.3138 91.3304 25.0437 92.1232 25.0437ZM92.1057 25.819C91.6083 25.819 91.1983 25.9745 90.8757 26.2854C90.5531 26.5963 90.3569 27.0063 90.2869 27.5154H93.8313C93.7769 26.9985 93.5923 26.5866 93.2775 26.2795C92.9666 25.9725 92.576 25.819 92.1057 25.819ZM100.03 25.1544V25.9414H97.6457V28.728C97.6457 29.1438 97.7449 29.4547 97.9431 29.6607C98.1413 29.8667 98.4075 29.9697 98.7417 29.9697C99.1576 29.9697 99.5442 29.8395 99.9018 29.5791L100.31 30.2378C99.828 30.6032 99.2819 30.7858 98.6718 30.7858C98.0655 30.7858 97.5972 30.6168 97.2668 30.2786C96.9404 29.9366 96.7771 29.4256 96.7771 28.7455V25.9414H95.5704V25.1544H96.7771V23.3997H97.6457V25.1544H100.03ZM102.439 22.2805V25.9239C102.653 25.6208 102.923 25.3993 103.249 25.2594C103.576 25.1156 103.922 25.0437 104.287 25.0437C104.971 25.0437 105.525 25.2458 105.949 25.65C106.376 26.0541 106.59 26.5885 106.59 27.2531V30.675H105.721V27.5387C105.721 27.0141 105.581 26.606 105.301 26.3145C105.026 26.0192 104.635 25.8715 104.13 25.8715C103.652 25.8715 103.249 26.0269 102.923 26.3378C102.6 26.6449 102.439 27.0529 102.439 27.5621V30.675H101.565V22.2805H102.439ZM110.887 25.0437C111.637 25.0437 112.255 25.3099 112.741 25.8423C113.231 26.3748 113.477 27.0588 113.481 27.8943C113.481 28.0148 113.476 28.1236 113.464 28.2208H109.039C109.097 28.796 109.307 29.241 109.669 29.5558C110.03 29.8667 110.471 30.0221 110.992 30.0221C111.653 30.0221 112.236 29.7909 112.741 29.3284L113.207 29.923C112.605 30.4982 111.849 30.7858 110.94 30.7858C110.12 30.7858 109.449 30.5215 108.928 29.993C108.408 29.4606 108.147 28.7688 108.147 27.9177C108.147 27.0782 108.406 26.3903 108.923 25.854C109.439 25.3138 110.094 25.0437 110.887 25.0437ZM110.87 25.819C110.372 25.819 109.962 25.9745 109.64 26.2854C109.317 26.5963 109.121 27.0063 109.051 27.5154H112.595C112.541 26.9985 112.356 26.5866 112.041 26.2795C111.731 25.9725 111.34 25.819 110.87 25.819ZM117.603 25.0437C118.008 25.0437 118.346 25.1059 118.618 25.2302L118.408 26.0872C118.136 25.9395 117.817 25.8656 117.452 25.8656C117.017 25.8656 116.661 26.023 116.385 26.3378C116.109 26.6526 115.971 27.0685 115.971 27.5854V30.675H115.103V25.1544H115.965V25.9298C116.156 25.6461 116.391 25.4284 116.671 25.2769C116.954 25.1214 117.265 25.0437 117.603 25.0437Z" fill="#231F20"/>
<path d="M0.870117 45.8018C0.870117 39.1044 6.29946 33.675 12.9969 33.675H26.8169V45.8018H0.870117V45.8018Z" fill="white"/>
<rect x="26.8174" y="33.675" width="91.1064" height="12.1268" fill="white"/>
<path d="M117.923 33.675H131.743C138.44 33.675 143.87 39.1044 143.87 45.8018V45.8018H117.923V33.675Z" fill="white"/>
<g clip-path="url(#clip1_214_15069)">
<path d="M189.448 45.8018L-44.707 45.8018V71.0632L189.448 71.0632V45.8018Z" fill="white"/>
<path d="M7.85547 62.6103L23.0124 53.866" stroke="#231F20" stroke-width="0.971596"/>
<path d="M23.0137 53.866L29.2319 57.3637" stroke="#231F20" stroke-width="0.971596"/>
<path d="M29.2314 57.3638L35.3525 60.9587" stroke="#FF6A00" stroke-width="0.971596"/>
<path d="M113.955 53.866L98.7979 62.6103" stroke="#231F20" stroke-width="0.971596"/>
<path d="M113.954 53.866L120.075 57.3637" stroke="#231F20" stroke-width="0.971596"/>
<path d="M120.075 57.3638L126.196 60.9587" stroke="#FF6A00" stroke-width="0.971596"/>
<path d="M98.7973 62.6105L92.5791 59.0156" stroke="#231F20" stroke-width="0.971596"/>
<path d="M92.5791 59.0156L86.458 55.5178" stroke="#FF6A00" stroke-width="0.971596"/>
<path d="M53.3271 53.866L68.484 62.6103" stroke="#231F20" stroke-width="0.971596"/>
<path d="M53.3261 53.866L47.2051 57.3637" stroke="#231F20" stroke-width="0.971596"/>
<path d="M47.2065 57.3638L40.9883 60.9587" stroke="#FF6A00" stroke-width="0.971596"/>
<path d="M68.4834 62.6105L74.6045 59.0156" stroke="#231F20" stroke-width="0.971596"/>
<path d="M74.6045 59.0156L80.7255 55.5178" stroke="#FF6A00" stroke-width="0.971596"/>
<path d="M22.2363 54.2546L23.0136 53.866L23.3051 53.9631" stroke="#231F20" stroke-width="0.971596"/>
<path d="M113.178 54.2546L113.955 53.866L114.246 53.9631" stroke="#231F20" stroke-width="0.971596"/>
<path d="M99.4779 62.1245L98.7978 62.6103L98.4092 62.416" stroke="#231F20" stroke-width="0.971596"/>
<path d="M54.1039 54.2546L53.3266 53.866L53.0352 53.9631" stroke="#231F20" stroke-width="0.971596"/>
<path d="M67.707 62.1245L68.4843 62.6103L68.7758 62.416" stroke="#231F20" stroke-width="0.971596"/>
<path d="M126.779 62.6104C126.779 61.8331 126.974 61.2178 127.362 60.7643C127.751 60.3109 128.301 60.0842 129.014 60.0842C129.791 60.0842 130.374 60.3109 130.763 60.7643C131.151 61.2178 131.346 61.8331 131.346 62.6104C131.346 63.3877 131.151 64.003 130.763 64.4564C130.374 64.9098 129.791 65.1365 129.014 65.1365C128.301 65.1365 127.751 64.9098 127.362 64.4564C126.974 64.003 126.779 63.3877 126.779 62.6104ZM129.014 64.5536C129.532 64.5536 129.921 64.3916 130.18 64.0678C130.504 63.7439 130.666 63.2581 130.666 62.6104C130.666 61.9626 130.504 61.4768 130.18 61.153C129.921 60.8291 129.532 60.6672 129.014 60.6672C128.561 60.6672 128.172 60.8291 127.848 61.153C127.589 61.4768 127.459 61.9626 127.459 62.6104C127.459 63.2581 127.589 63.7439 127.848 64.0678C128.172 64.3916 128.561 64.5536 129.014 64.5536Z" fill="#FF6A00"/>
<path d="M132.123 60.0842H132.803V62.2217H135.329V60.0842H136.009V65.0394H135.329V62.8047H132.803V65.0394H132.123V60.0842Z" fill="#FF6A00"/>
<path d="M35.9355 62.6104C35.9355 61.8331 36.1299 61.2178 36.5185 60.7643C36.9071 60.3109 37.4577 60.0842 38.1702 60.0842C38.8827 60.0842 39.4333 60.3109 39.8219 60.7643C40.2753 61.2178 40.502 61.8331 40.502 62.6104C40.502 63.3877 40.2753 64.003 39.8219 64.4564C39.4333 64.9098 38.8827 65.1365 38.1702 65.1365C37.4577 65.1365 36.9071 64.9098 36.5185 64.4564C36.1299 64.003 35.9355 63.3877 35.9355 62.6104ZM38.1702 64.5536C38.6884 64.5536 39.077 64.3916 39.3361 64.0678C39.5952 63.7439 39.7248 63.2581 39.7248 62.6104C39.7248 61.9626 39.5952 61.4768 39.3361 61.153C39.077 60.8291 38.6884 60.6672 38.1702 60.6672C37.652 60.6672 37.2634 60.8291 37.0043 61.153C36.7452 61.4768 36.6157 61.9626 36.6157 62.6104C36.6157 63.2581 36.7452 63.7439 37.0043 64.0678C37.2634 64.3916 37.652 64.5536 38.1702 64.5536Z" fill="#FF6A00"/>
<path d="M81.3096 53.866C81.3096 53.0887 81.5039 52.4734 81.8925 52.02C82.2812 51.5665 82.8641 51.3398 83.6414 51.3398C84.3539 51.3398 84.9045 51.5665 85.2931 52.02C85.6818 52.4734 85.8761 53.0887 85.8761 53.866C85.8761 54.6433 85.6818 55.2586 85.2931 55.712C84.9045 56.1654 84.3539 56.3921 83.6414 56.3921C82.9289 56.3921 82.3459 56.1654 81.8925 55.712C81.5039 55.2586 81.3096 54.6433 81.3096 53.866ZM83.6414 55.8092C84.1596 55.8092 84.5482 55.6473 84.8073 55.3234C85.0664 54.9995 85.196 54.5137 85.196 53.866C85.196 53.2183 85.0664 52.7325 84.8073 52.4086C84.5482 52.0847 84.1596 51.9228 83.6414 51.9228C83.1232 51.9228 82.7346 52.0847 82.4755 52.4086C82.2164 52.7325 82.0868 53.2183 82.0868 53.866C82.0868 54.5137 82.2164 54.9995 82.4755 55.3234C82.7346 55.6473 83.1232 55.8092 83.6414 55.8092Z" fill="#FF6A00"/>
</g>
<path d="M0.870117 71.0632H26.8169V83.1888H12.9956C6.2989 83.1888 0.870117 77.76 0.870117 71.0632V71.0632Z" fill="white"/>
<rect x="26.8174" y="71.0632" width="91.1064" height="12.1255" fill="white"/>
<path d="M117.923 71.0632H143.87V71.0632C143.87 77.76 138.441 83.1888 131.744 83.1888H117.923V71.0632Z" fill="white"/>
</g>
<rect x="1.61989" y="1.18165" width="141.5" height="84.5005" rx="3.13661" stroke="white" stroke-width="1.49954"/>
<defs>
<clipPath id="clip0_214_15069">
<rect x="0.870117" y="0.431885" width="143" height="86" rx="3.88638" fill="white"/>
</clipPath>
<clipPath id="clip1_214_15069">
<rect width="234.155" height="25.2615" fill="white" transform="translate(-44.707 45.8018)"/>
</clipPath>
</defs>
</svg>
