<svg width="144" height="87" viewBox="0 0 144 87" fill="none" xmlns="http://www.w3.org/2000/svg">
<g clip-path="url(#clip0_214_14517)">
<rect x="0.181641" y="0.431885" width="143" height="86" rx="3.88638" fill="white"/>
<path d="M0.181641 8.24202C0.181641 1.54458 5.61099 -3.88477 12.3084 -3.88477L26.1284 -3.88477V8.24202H0.181641V8.24202Z" fill="white"/>
<rect x="26.1289" y="-3.88477" width="91.1064" height="12.1268" fill="white"/>
<path d="M117.234 -3.88477L131.054 -3.88477C137.752 -3.88477 143.181 1.54458 143.181 8.24202V8.24202L117.234 8.24202V-3.88477Z" fill="white"/>
<rect width="143" height="15" transform="translate(0.181641 8.24207)" fill="white"/>
<path d="M41.0875 14.6107C41.8686 14.6107 42.5235 14.8827 43.052 15.4268C43.5806 15.9709 43.8448 16.6549 43.8448 17.4788C43.8448 18.3028 43.5806 18.9887 43.052 19.5367C42.5235 20.0808 41.8686 20.3528 41.0875 20.3528C40.2286 20.3528 39.5582 20.0439 39.0763 19.4259V20.2421H38.2018V11.8475H39.0763V15.5376C39.5582 14.9197 40.2286 14.6107 41.0875 14.6107ZM40.9825 15.4268C40.4112 15.4268 39.941 15.6231 39.5718 16.0156C39.2026 16.4043 39.018 16.892 39.018 17.4788C39.018 18.0696 39.2026 18.5612 39.5718 18.9537C39.941 19.3424 40.4112 19.5367 40.9825 19.5367C41.5655 19.5367 42.0396 19.3404 42.4049 18.9479C42.7703 18.5515 42.9529 18.0618 42.9529 17.4788C42.9529 16.8998 42.7683 16.414 42.3991 16.0215C42.0299 15.625 41.5577 15.4268 40.9825 15.4268ZM47.7862 14.6107C48.5363 14.6107 49.1542 14.8769 49.64 15.4093C50.1297 15.9418 50.3765 16.6258 50.3803 17.4614C50.3803 17.5818 50.3745 17.6907 50.3629 17.7878H45.9382C45.9965 18.363 46.2064 18.808 46.5678 19.1228C46.9292 19.4337 47.3703 19.5892 47.8911 19.5892C48.5518 19.5892 49.1348 19.3579 49.64 18.8954L50.1064 19.4901C49.504 20.0652 48.7481 20.3528 47.8387 20.3528C47.0186 20.3528 46.3482 20.0886 45.8274 19.56C45.3067 19.0276 45.0463 18.3358 45.0463 17.4847C45.0463 16.6452 45.3047 15.9573 45.8216 15.421C46.3385 14.8808 46.9934 14.6107 47.7862 14.6107ZM47.7687 15.386C47.2712 15.386 46.8612 15.5415 46.5387 15.8524C46.2161 16.1633 46.0198 16.5733 45.9499 17.0824H49.4943C49.4398 16.5655 49.2552 16.1536 48.9404 15.8466C48.6295 15.5395 48.2389 15.386 47.7687 15.386ZM55.693 14.7215V15.5084H53.3087V18.295C53.3087 18.7108 53.4078 19.0217 53.606 19.2277C53.8042 19.4337 54.0704 19.5367 54.4047 19.5367C54.8205 19.5367 55.2072 19.4065 55.5648 19.1461L55.9728 19.8048C55.4909 20.1702 54.9449 20.3528 54.3347 20.3528C53.7284 20.3528 53.2601 20.1838 52.9298 19.8457C52.6033 19.5037 52.4401 18.9926 52.4401 18.3125V15.5084L51.2334 15.5084V14.7215L52.4401 14.7215V12.9668H53.3087V14.7215H55.693ZM62.4282 14.7215V20.2421H61.5596V19.4201C61.0776 20.0419 60.4053 20.3528 59.5425 20.3528C58.7614 20.3528 58.1065 20.0808 57.578 19.5367C57.0494 18.9887 56.7851 18.3028 56.7851 17.4788C56.7851 16.6549 57.0494 15.9709 57.578 15.4268C58.1065 14.8827 58.7614 14.6107 59.5425 14.6107C60.4014 14.6107 61.0738 14.9216 61.5596 15.5434V14.7215H62.4282ZM59.6475 15.4268C59.0645 15.4268 58.5884 15.625 58.2192 16.0215C57.8539 16.414 57.6712 16.8998 57.6712 17.4788C57.6712 18.0579 57.8558 18.5457 58.225 18.9421C58.5942 19.3385 59.0684 19.5367 59.6475 19.5367C60.2188 19.5367 60.689 19.3424 61.0582 18.9537C61.4274 18.5612 61.612 18.0696 61.612 17.4788C61.612 16.892 61.4274 16.4043 61.0582 16.0156C60.689 15.6231 60.2188 15.4268 59.6475 15.4268ZM67.5121 16.7618V17.5546L64.2709 17.5546V16.7618L67.5121 16.7618ZM72.5949 16.96H70.4496V20.2421H69.511V12.0807H72.5949C73.5082 12.0807 74.2174 12.2964 74.7227 12.7277C75.2279 13.1591 75.4805 13.7576 75.4805 14.5233C75.4805 15.2889 75.2279 15.8874 74.7227 16.3188C74.2174 16.7463 73.5082 16.96 72.5949 16.96ZM72.5657 12.9668H70.4496V16.0797H72.5657C73.1992 16.0797 73.6811 15.9496 74.0114 15.6892C74.3418 15.4288 74.507 15.0401 74.507 14.5233C74.507 14.0064 74.3418 13.6177 74.0114 13.3573C73.6811 13.0969 73.1992 12.9668 72.5657 12.9668ZM77.9705 14.7215V20.2421H77.096V14.7215H77.9705ZM77.5332 12.1448C77.7042 12.1448 77.85 12.205 77.9705 12.3255C78.0909 12.4421 78.1512 12.5878 78.1512 12.7627C78.1512 12.9376 78.0909 13.0833 77.9705 13.1999C77.8539 13.3165 77.7081 13.3748 77.5332 13.3748C77.3583 13.3748 77.2126 13.3165 77.096 13.1999C76.9794 13.0833 76.9211 12.9376 76.9211 12.7627C76.9211 12.5878 76.9794 12.4421 77.096 12.3255C77.2126 12.205 77.3583 12.1448 77.5332 12.1448ZM82.7332 14.6107C83.4172 14.6107 83.971 14.8128 84.3946 15.217C84.8221 15.6212 85.0359 16.1555 85.0359 16.8201V20.2421H84.1673V17.1058C84.1673 16.5811 84.0274 16.173 83.7476 15.8815C83.4716 15.5862 83.081 15.4385 82.5758 15.4385C82.0978 15.4385 81.6956 15.594 81.3691 15.9049C81.0465 16.2119 80.8852 16.62 80.8852 17.1291V20.2421H80.0108V14.7215H80.8736V15.5084C81.0834 15.1975 81.3535 14.9702 81.6839 14.8264C82.0142 14.6826 82.364 14.6107 82.7332 14.6107ZM89.3333 14.6107C90.0834 14.6107 90.7013 14.8769 91.1871 15.4093C91.6768 15.9418 91.9236 16.6258 91.9275 17.4614C91.9275 17.5818 91.9216 17.6907 91.91 17.7878H87.4853C87.5436 18.363 87.7535 18.808 88.1149 19.1228C88.4763 19.4337 88.9175 19.5892 89.4382 19.5892C90.0989 19.5892 90.6819 19.3579 91.1871 18.8954L91.6535 19.4901C91.0511 20.0652 90.2952 20.3528 89.3858 20.3528C88.5657 20.3528 87.8953 20.0886 87.3746 19.56C86.8538 19.0276 86.5934 18.3358 86.5934 17.4847C86.5934 16.6452 86.8518 15.9573 87.3687 15.421C87.8856 14.8808 88.5405 14.6107 89.3333 14.6107ZM89.3158 15.386C88.8184 15.386 88.4083 15.5415 88.0858 15.8524C87.7632 16.1633 87.5669 16.5733 87.497 17.0824H91.0414C90.987 16.5655 90.8024 16.1536 90.4876 15.8466C90.1766 15.5395 89.7861 15.386 89.3158 15.386ZM96.271 14.6107C96.955 14.6107 97.5089 14.8128 97.9325 15.217C98.36 15.6212 98.5737 16.1555 98.5737 16.8201V20.2421H97.7051V17.1058C97.7051 16.5811 97.5652 16.173 97.2854 15.8815C97.0095 15.5862 96.6189 15.4385 96.1136 15.4385C95.6356 15.4385 95.2334 15.594 94.9069 15.9049C94.5843 16.2119 94.4231 16.62 94.4231 17.1291V20.2421H93.5486V14.7215H94.4114V15.5084C94.6213 15.1975 94.8914 14.9702 95.2217 14.8264C95.5521 14.6826 95.9018 14.6107 96.271 14.6107ZM102.871 14.6107C103.621 14.6107 104.239 14.8769 104.725 15.4093C105.215 15.9418 105.461 16.6258 105.465 17.4614C105.465 17.5818 105.459 17.6907 105.448 17.7878H101.023C101.081 18.363 101.291 18.808 101.653 19.1228C102.014 19.4337 102.455 19.5892 102.976 19.5892C103.637 19.5892 104.22 19.3579 104.725 18.8954L105.191 19.4901C104.589 20.0652 103.833 20.3528 102.924 20.3528C102.104 20.3528 101.433 20.0886 100.912 19.56C100.392 19.0276 100.131 18.3358 100.131 17.4847C100.131 16.6452 100.39 15.9573 100.907 15.421C101.423 14.8808 102.078 14.6107 102.871 14.6107ZM102.854 15.386C102.356 15.386 101.946 15.5415 101.624 15.8524C101.301 16.1633 101.105 16.5733 101.035 17.0824H104.579C104.525 16.5655 104.34 16.1536 104.025 15.8466C103.714 15.5395 103.324 15.386 102.854 15.386Z" fill="#231F20"/>
<g clip-path="url(#clip1_214_14517)">
<path d="M119.776 23.2421L23.5879 23.2421V78.623H119.776V23.2421Z" fill="white"/>
<path d="M97.8183 52.1955L79.6494 52.0984" stroke="#231F20" stroke-width="0.971596"/>
<path d="M97.9154 49.7666L79.6494 49.6694" stroke="#231F20" stroke-width="0.971596"/>
<path d="M63.7153 63.4662L62.8408 50.8354" stroke="#231F20" stroke-width="0.971596"/>
<path d="M73.4312 58.0253L62.8408 50.8354" stroke="#231F20" stroke-width="0.971596"/>
<path d="M71.5854 65.9923L54.0967 65.8951" stroke="#231F20" stroke-width="0.971596"/>
<path d="M71.585 65.9922L80.3293 50.9325" stroke="#231F20" stroke-width="0.971596"/>
<path d="M54.0959 65.895L45.3516 50.641" stroke="#231F20" stroke-width="0.971596"/>
<path d="M54.1931 35.5813L45.3516 50.641" stroke="#231F20" stroke-width="0.971596"/>
<path d="M54.1934 35.5813L71.6821 35.6785" stroke="#231F20" stroke-width="0.971596"/>
<path d="M80.3288 50.9326L71.6816 35.6786" stroke="#231F20" stroke-width="0.971596"/>
<path d="M45.3516 50.641L62.8403 50.8353" stroke="#231F20" stroke-width="0.971596"/>
<path d="M71.6823 35.6786L62.8408 50.8355" stroke="#231F20" stroke-width="0.971596"/>
<path d="M70.71 65.9922H71.5844L71.973 65.215" stroke="#231F20" stroke-width="0.971596"/>
<path d="M54.9706 65.8951H54.0961L53.6104 65.1178" stroke="#231F20" stroke-width="0.971596"/>
<path d="M53.8037 36.3586L54.1923 35.5813H55.0668" stroke="#231F20" stroke-width="0.971596"/>
<path d="M79.9404 51.6127L80.3291 50.9325L79.9404 50.1553" stroke="#231F20" stroke-width="0.971596"/>
</g>
<path d="M0.181641 78.623H26.1284V90.7486H12.3072C5.61043 90.7486 0.181641 85.3198 0.181641 78.623V78.623Z" fill="white"/>
<rect x="26.1289" y="78.623" width="91.1064" height="12.1255" fill="white"/>
<path d="M117.234 78.623H143.181V78.623C143.181 85.3198 137.752 90.7486 131.056 90.7486H117.234V78.623Z" fill="white"/>
</g>
<rect x="0.93141" y="1.18165" width="141.5" height="84.5005" rx="3.13661" stroke="white" stroke-width="1.49954"/>
<defs>
<clipPath id="clip0_214_14517">
<rect x="0.181641" y="0.431885" width="143" height="86" rx="3.88638" fill="white"/>
</clipPath>
<clipPath id="clip1_214_14517">
<rect width="96.188" height="55.381" fill="white" transform="translate(23.5879 23.2421)"/>
</clipPath>
</defs>
</svg>
