<svg width="143" height="87" viewBox="0 0 143 87" fill="none" xmlns="http://www.w3.org/2000/svg">
<g clip-path="url(#clip0_214_14301)">
<rect x="0.494141" y="0.431885" width="142" height="86" rx="3.88638" fill="white"/>
<rect width="142" height="30" transform="translate(0.494141 3.67493)" fill="white"/>
<path d="M25.1584 7.51352H28.2306C29.5636 7.51352 30.6227 7.88273 31.4077 8.62114C32.1928 9.35955 32.5853 10.3506 32.5853 11.5942C32.5853 12.8379 32.1928 13.8289 31.4077 14.5673C30.6227 15.3057 29.5636 15.6749 28.2306 15.6749H25.1584V7.51352ZM28.2306 8.39962H26.097V14.7888H28.2306C29.311 14.7888 30.1427 14.5012 30.7256 13.9261C31.3086 13.3509 31.6001 12.5736 31.6001 11.5942C31.6001 10.611 31.3086 9.83369 30.7256 9.26239C30.1466 8.68721 29.3149 8.39962 28.2306 8.39962ZM35.1891 10.1543V15.6749H34.3147V10.1543H35.1891ZM34.7519 7.57765C34.9229 7.57765 35.0686 7.63788 35.1891 7.75836C35.3096 7.87495 35.3698 8.02069 35.3698 8.19558C35.3698 8.37047 35.3096 8.51621 35.1891 8.6328C35.0725 8.74939 34.9268 8.80769 34.7519 8.80769C34.577 8.80769 34.4312 8.74939 34.3147 8.6328C34.1981 8.51621 34.1398 8.37047 34.1398 8.19558C34.1398 8.02069 34.1981 7.87495 34.3147 7.75836C34.4312 7.63788 34.577 7.57765 34.7519 7.57765ZM39.5496 10.0436C40.2997 10.0436 40.9176 10.3098 41.4034 10.8422C41.8931 11.3746 42.1399 12.0586 42.1438 12.8942C42.1438 13.0147 42.1379 13.1235 42.1263 13.2207H37.7016C37.7599 13.7959 37.9698 14.2409 38.3312 14.5556C38.6927 14.8666 39.1338 15.022 39.6545 15.022C40.3152 15.022 40.8982 14.7908 41.4034 14.3283L41.8698 14.9229C41.2674 15.4981 40.5115 15.7857 39.6021 15.7857C38.7821 15.7857 38.1117 15.5214 37.5909 14.9929C37.0701 14.4604 36.8097 13.7687 36.8097 12.9175C36.8097 12.0781 37.0682 11.3902 37.585 10.8539C38.1019 10.3137 38.7568 10.0436 39.5496 10.0436ZM39.5321 10.8189C39.0347 10.8189 38.6247 10.9743 38.3021 11.2853C37.9795 11.5962 37.7833 12.0062 37.7133 12.5153H41.2577C41.2033 11.9984 41.0187 11.5865 40.7039 11.2794C40.393 10.9724 40.0024 10.8189 39.5321 10.8189ZM47.4564 10.1543V10.9413H45.0721V13.7278C45.0721 14.1437 45.1712 14.4546 45.3694 14.6606C45.5676 14.8666 45.8339 14.9695 46.1681 14.9695C46.5839 14.9695 46.9706 14.8394 47.3282 14.579L47.7363 15.2377C47.2543 15.603 46.7083 15.7857 46.0981 15.7857C45.4919 15.7857 45.0236 15.6166 44.6932 15.2785C44.3668 14.9365 44.2035 14.4255 44.2035 13.7453V10.9413H42.9968V10.1543H44.2035V8.39962H45.0721V10.1543H47.4564ZM49.8655 7.28034V10.9238C50.0793 10.6207 50.3494 10.3992 50.6758 10.2593C51.0023 10.1155 51.3482 10.0436 51.7135 10.0436C52.3975 10.0436 52.9513 10.2456 53.3749 10.6498C53.8024 11.054 54.0162 11.5884 54.0162 12.253V15.6749H53.1476V12.5386C53.1476 12.014 53.0076 11.6059 52.7278 11.3144C52.4519 11.019 52.0613 10.8714 51.5561 10.8714C51.0781 10.8714 50.6758 11.0268 50.3494 11.3377C50.0268 11.6447 49.8655 12.0528 49.8655 12.5619V15.6749H48.9911V7.28034H49.8655ZM60.8707 10.1543L56.3761 18.0301H55.4143L57.4721 14.4799L54.9362 10.1543H55.9098L57.9676 13.6171L59.9147 10.1543H60.8707ZM62.8568 7.28034V15.6749H61.9824V7.28034H62.8568ZM67.2173 10.0436C67.9674 10.0436 68.5853 10.3098 69.0711 10.8422C69.5608 11.3746 69.8076 12.0586 69.8115 12.8942C69.8115 13.0147 69.8057 13.1235 69.794 13.2207H65.3694C65.4276 13.7959 65.6375 14.2409 65.9989 14.5556C66.3604 14.8666 66.8015 15.022 67.3223 15.022C67.9829 15.022 68.5659 14.7908 69.0711 14.3283L69.5375 14.9229C68.9351 15.4981 68.1792 15.7857 67.2698 15.7857C66.4498 15.7857 65.7794 15.5214 65.2586 14.9929C64.7378 14.4604 64.4774 13.7687 64.4774 12.9175C64.4774 12.0781 64.7359 11.3902 65.2528 10.8539C65.7696 10.3137 66.4245 10.0436 67.2173 10.0436ZM67.1998 10.8189C66.7024 10.8189 66.2924 10.9743 65.9698 11.2853C65.6472 11.5962 65.451 12.0062 65.381 12.5153H68.9254C68.871 11.9984 68.6864 11.5865 68.3716 11.2794C68.0607 10.9724 67.6701 10.8189 67.1998 10.8189ZM74.1551 10.0436C74.8391 10.0436 75.3929 10.2456 75.8165 10.6498C76.244 11.054 76.4578 11.5884 76.4578 12.253V15.6749H75.5891V12.5386C75.5891 12.014 75.4492 11.6059 75.1694 11.3144C74.8935 11.019 74.5029 10.8714 73.9977 10.8714C73.5196 10.8714 73.1174 11.0268 72.791 11.3377C72.4684 11.6447 72.3071 12.0528 72.3071 12.5619V15.6749H71.4327V10.1543H72.2954V10.9413C72.5053 10.6304 72.7754 10.403 73.1057 10.2593C73.4361 10.1155 73.7859 10.0436 74.1551 10.0436ZM80.7551 10.0436C81.5052 10.0436 82.1232 10.3098 82.609 10.8422C83.0986 11.3746 83.3454 12.0586 83.3493 12.8942C83.3493 13.0147 83.3435 13.1235 83.3318 13.2207H78.9072C78.9655 13.7959 79.1753 14.2409 79.5368 14.5556C79.8982 14.8666 80.3393 15.022 80.8601 15.022C81.5208 15.022 82.1037 14.7908 82.609 14.3283L83.0753 14.9229C82.4729 15.4981 81.717 15.7857 80.8076 15.7857C79.9876 15.7857 79.3172 15.5214 78.7964 14.9929C78.2756 14.4604 78.0152 13.7687 78.0152 12.9175C78.0152 12.0781 78.2737 11.3902 78.7906 10.8539C79.3075 10.3137 79.9623 10.0436 80.7551 10.0436ZM80.7377 10.8189C80.2402 10.8189 79.8302 10.9743 79.5076 11.2853C79.1851 11.5962 78.9888 12.0062 78.9188 12.5153H82.4632C82.4088 11.9984 82.2242 11.5865 81.9094 11.2794C81.5985 10.9724 81.2079 10.8189 80.7377 10.8189ZM90.3932 10.0436C91.2482 10.0436 91.905 10.3564 92.3636 10.9821V10.1543H93.238V15.296C93.238 16.1782 92.9698 16.8642 92.4335 17.3538C91.8972 17.8474 91.1918 18.0942 90.3174 18.0942C89.8743 18.0942 89.4449 18.0281 89.0291 17.896C88.6171 17.7677 88.2712 17.587 87.9914 17.3538L88.3761 16.6543C88.9474 17.0857 89.5945 17.3014 90.3174 17.3014C90.9314 17.3014 91.425 17.1304 91.7981 16.7884C92.1751 16.4464 92.3636 15.9606 92.3636 15.331V14.7655C91.9089 15.3912 91.2521 15.7041 90.3932 15.7041C89.612 15.7041 88.961 15.4398 88.4403 14.9113C87.9195 14.3788 87.6591 13.6987 87.6591 12.8709C87.6591 12.0431 87.9195 11.3649 88.4403 10.8364C88.961 10.3078 89.612 10.0436 90.3932 10.0436ZM90.4923 10.8597C89.9171 10.8597 89.4488 11.054 89.0873 11.4427C88.7259 11.8274 88.5452 12.3035 88.5452 12.8709C88.5452 13.4422 88.7259 13.9222 89.0873 14.3108C89.4488 14.6956 89.9171 14.8879 90.4923 14.8879C91.0558 14.8879 91.5202 14.6975 91.8855 14.3166C92.2548 13.9319 92.4394 13.45 92.4394 12.8709C92.4394 12.2996 92.2548 11.8216 91.8855 11.4368C91.5202 11.0521 91.0558 10.8597 90.4923 10.8597ZM96.1491 7.28034V15.6749H95.2747V7.28034H96.1491ZM103.226 10.1543L98.7317 18.0301H97.7698L99.8276 14.4799L97.2917 10.1543H98.2653L100.323 13.6171L102.27 10.1543H103.226ZM106.672 10.0436C107.084 10.0436 107.467 10.1193 107.821 10.2709C108.174 10.4186 108.474 10.6323 108.718 10.9122L108.159 11.501C107.72 11.0734 107.216 10.8597 106.649 10.8597C106.093 10.8597 105.629 11.054 105.256 11.4427C104.886 11.8313 104.702 12.321 104.702 12.9117C104.702 13.5063 104.886 13.998 105.256 14.3866C105.629 14.7752 106.093 14.9695 106.649 14.9695C107.224 14.9695 107.733 14.7539 108.176 14.3225L108.718 14.9171C108.47 15.1969 108.168 15.4126 107.815 15.5642C107.461 15.7118 107.08 15.7857 106.672 15.7857C105.833 15.7857 105.147 15.5136 104.614 14.9695C104.082 14.4255 103.816 13.7395 103.816 12.9117C103.816 12.0878 104.082 11.4038 104.614 10.8597C105.147 10.3156 105.833 10.0436 106.672 10.0436ZM112.583 10.0436C113.414 10.0436 114.106 10.3175 114.658 10.8655C115.214 11.4135 115.491 12.0956 115.491 12.9117C115.491 13.7317 115.214 14.4157 114.658 14.9637C114.106 15.5117 113.414 15.7857 112.583 15.7857C111.751 15.7857 111.059 15.5117 110.507 14.9637C109.955 14.4157 109.679 13.7317 109.679 12.9117C109.679 12.0956 109.955 11.4135 110.507 10.8655C111.063 10.3175 111.755 10.0436 112.583 10.0436ZM114.022 11.4427C113.638 11.054 113.158 10.8597 112.583 10.8597C112.007 10.8597 111.527 11.054 111.143 11.4427C110.758 11.8313 110.566 12.321 110.566 12.9117C110.566 13.5063 110.758 13.998 111.143 14.3866C111.527 14.7752 112.007 14.9695 112.583 14.9695C113.158 14.9695 113.638 14.7752 114.022 14.3866C114.407 13.998 114.6 13.5063 114.6 12.9117C114.6 12.321 114.407 11.8313 114.022 11.4427ZM117.987 7.28034V15.6749H117.113V7.28034H117.987ZM32.8362 25.0436C33.5241 25.0436 34.0798 25.2456 34.5034 25.6498C34.9309 26.054 35.1447 26.5884 35.1447 27.253V30.6749H34.2761V27.5386C34.2761 27.014 34.1362 26.6059 33.8564 26.3144C33.5765 26.019 33.184 25.8714 32.6788 25.8714C32.2008 25.8714 31.7985 26.0268 31.4721 26.3377C31.1495 26.6447 30.9882 27.0528 30.9882 27.5619V30.6749H30.1196V27.5386C30.1196 27.014 29.9797 26.6059 29.6999 26.3144C29.4239 26.019 29.0334 25.8714 28.5281 25.8714C28.0501 25.8714 27.6479 26.0268 27.3214 26.3377C26.9988 26.6447 26.8375 27.0528 26.8375 27.5619V30.6749H25.9631V25.1543H26.8259V25.9413C27.0357 25.6304 27.3059 25.403 27.6362 25.2593C27.9665 25.1155 28.3163 25.0436 28.6855 25.0436C29.1635 25.0436 29.5833 25.1465 29.9447 25.3525C30.3061 25.5546 30.5762 25.8383 30.755 26.2036C30.961 25.8033 31.2505 25.5099 31.6236 25.3234C32.0006 25.1368 32.4048 25.0436 32.8362 25.0436ZM39.6047 25.0436C40.4364 25.0436 41.1281 25.3175 41.68 25.8655C42.2358 26.4135 42.5136 27.0956 42.5136 27.9117C42.5136 28.7317 42.2358 29.4157 41.68 29.9637C41.1281 30.5117 40.4364 30.7857 39.6047 30.7857C38.773 30.7857 38.0812 30.5117 37.5294 29.9637C36.9775 29.4157 36.7016 28.7317 36.7016 27.9117C36.7016 27.0956 36.9775 26.4135 37.5294 25.8655C38.0851 25.3175 38.7769 25.0436 39.6047 25.0436ZM41.0446 26.4427C40.6598 26.054 40.1799 25.8597 39.6047 25.8597C39.0295 25.8597 38.5495 26.054 38.1648 26.4427C37.78 26.8313 37.5876 27.321 37.5876 27.9117C37.5876 28.5063 37.78 28.998 38.1648 29.3866C38.5495 29.7752 39.0295 29.9695 39.6047 29.9695C40.1799 29.9695 40.6598 29.7752 41.0446 29.3866C41.4293 28.998 41.6217 28.5063 41.6217 27.9117C41.6217 27.321 41.4293 26.8313 41.0446 26.4427ZM46.8574 25.0436C47.5414 25.0436 48.0952 25.2456 48.5188 25.6498C48.9463 26.054 49.1601 26.5884 49.1601 27.253V30.6749H48.2915V27.5386C48.2915 27.014 48.1516 26.6059 47.8717 26.3144C47.5958 26.019 47.2052 25.8714 46.7 25.8714C46.222 25.8714 45.8197 26.0268 45.4933 26.3377C45.1707 26.6447 45.0094 27.0528 45.0094 27.5619V30.6749H44.135V25.1543H44.9978V25.9413C45.2076 25.6304 45.4777 25.403 45.8081 25.2593C46.1384 25.1155 46.4882 25.0436 46.8574 25.0436ZM53.6207 25.0436C54.4524 25.0436 55.1442 25.3175 55.696 25.8655C56.2518 26.4135 56.5297 27.0956 56.5297 27.9117C56.5297 28.7317 56.2518 29.4157 55.696 29.9637C55.1442 30.5117 54.4524 30.7857 53.6207 30.7857C52.789 30.7857 52.0972 30.5117 51.5454 29.9637C50.9935 29.4157 50.7176 28.7317 50.7176 27.9117C50.7176 27.0956 50.9935 26.4135 51.5454 25.8655C52.1011 25.3175 52.7929 25.0436 53.6207 25.0436ZM55.0606 26.4427C54.6759 26.054 54.1959 25.8597 53.6207 25.8597C53.0455 25.8597 52.5656 26.054 52.1808 26.4427C51.7961 26.8313 51.6037 27.321 51.6037 27.9117C51.6037 28.5063 51.7961 28.998 52.1808 29.3866C52.5656 29.7752 53.0455 29.9695 53.6207 29.9695C54.1959 29.9695 54.6759 29.7752 55.0606 29.3866C55.4454 28.998 55.6377 28.5063 55.6377 27.9117C55.6377 27.321 55.4454 26.8313 55.0606 26.4427ZM60.4712 25.0436C61.2213 25.0436 61.8392 25.3098 62.325 25.8422C62.8147 26.3746 63.0615 27.0586 63.0654 27.8942C63.0654 28.0147 63.0595 28.1235 63.0479 28.2207H58.6232C58.6815 28.7959 58.8914 29.2409 59.2528 29.5556C59.6142 29.8666 60.0553 30.022 60.5761 30.022C61.2368 30.022 61.8198 29.7908 62.325 29.3283L62.7914 29.9229C62.189 30.4981 61.4331 30.7857 60.5237 30.7857C59.7036 30.7857 59.0332 30.5214 58.5125 29.9929C57.9917 29.4604 57.7313 28.7687 57.7313 27.9175C57.7313 27.0781 57.9897 26.3902 58.5066 25.8539C59.0235 25.3137 59.6784 25.0436 60.4712 25.0436ZM60.4537 25.8189C59.9562 25.8189 59.5462 25.9743 59.2237 26.2853C58.9011 26.5962 58.7048 27.0062 58.6349 27.5153H62.1793C62.1248 26.9984 61.9402 26.5865 61.6254 26.2794C61.3145 25.9724 60.924 25.8189 60.4537 25.8189ZM68.378 25.1543V25.9413H65.9937V28.7278C65.9937 29.1437 66.0928 29.4546 66.291 29.6606C66.4892 29.8666 66.7554 29.9695 67.0897 29.9695C67.5055 29.9695 67.8922 29.8394 68.2498 29.579L68.6578 30.2377C68.1759 30.603 67.6299 30.7857 67.0197 30.7857C66.4134 30.7857 65.9451 30.6166 65.6148 30.2785C65.2883 29.9365 65.1251 29.4255 65.1251 28.7453V25.9413L63.9184 25.9413V25.1543L65.1251 25.1543V23.3996H65.9937V25.1543H68.378ZM70.7871 22.2803V25.9238C71.0008 25.6207 71.2709 25.3992 71.5974 25.2593C71.9238 25.1155 72.2697 25.0436 72.6351 25.0436C73.3191 25.0436 73.8729 25.2456 74.2965 25.6498C74.724 26.054 74.9377 26.5884 74.9377 27.253V30.6749H74.0691V27.5386C74.0691 27.014 73.9292 26.6059 73.6494 26.3144C73.3735 26.019 72.9829 25.8714 72.4777 25.8714C71.9996 25.8714 71.5974 26.0268 71.2709 26.3377C70.9484 26.6447 70.7871 27.0528 70.7871 27.5619V30.6749H69.9126V22.2803H70.7871ZM81.7923 25.1543L77.2977 33.0301H76.3358L78.3937 29.4799L75.8578 25.1543H76.8313L78.8892 28.6171L80.8363 25.1543H81.7923ZM83.7784 22.2803V30.6749H82.9039V22.2803H83.7784ZM91.2473 25.0436C91.9973 25.0436 92.6153 25.3098 93.1011 25.8422C93.5907 26.3746 93.8375 27.0586 93.8414 27.8942C93.8414 28.0147 93.8356 28.1235 93.8239 28.2207H89.3993C89.4576 28.7959 89.6674 29.2409 90.0289 29.5556C90.3903 29.8666 90.8314 30.022 91.3522 30.022C92.0129 30.022 92.5958 29.7908 93.1011 29.3283L93.5674 29.9229C92.965 30.4981 92.2091 30.7857 91.2997 30.7857C90.4797 30.7857 89.8093 30.5214 89.2885 29.9929C88.7677 29.4604 88.5074 28.7687 88.5074 27.9175C88.5074 27.0781 88.7658 26.3902 89.2827 25.8539C89.7996 25.3137 90.4544 25.0436 91.2473 25.0436ZM91.2298 25.8189C90.7323 25.8189 90.3223 25.9743 89.9997 26.2853C89.6772 26.5962 89.4809 27.0062 89.4109 27.5153H92.9553C92.9009 26.9984 92.7163 26.5865 92.4015 26.2794C92.0906 25.9724 91.7 25.8189 91.2298 25.8189ZM99.1541 25.1543V25.9413H96.7698V28.7278C96.7698 29.1437 96.8689 29.4546 97.0671 29.6606C97.2653 29.8666 97.5315 29.9695 97.8657 29.9695C98.2816 29.9695 98.6683 29.8394 99.0258 29.579L99.4339 30.2377C98.952 30.603 98.4059 30.7857 97.7958 30.7857C97.1895 30.7857 96.7212 30.6166 96.3908 30.2785C96.0644 29.9365 95.9012 29.4255 95.9012 28.7453V25.9413H94.6944V25.1543H95.9012V23.3996H96.7698V25.1543H99.1541ZM101.563 22.2803V25.9238C101.777 25.6207 102.047 25.3992 102.373 25.2593C102.7 25.1155 103.046 25.0436 103.411 25.0436C104.095 25.0436 104.649 25.2456 105.073 25.6498C105.5 26.054 105.714 26.5884 105.714 27.253V30.6749H104.845V27.5386C104.845 27.014 104.705 26.6059 104.425 26.3144C104.15 26.019 103.759 25.8714 103.254 25.8714C102.776 25.8714 102.373 26.0268 102.047 26.3377C101.724 26.6447 101.563 27.0528 101.563 27.5619V30.6749H100.689V22.2803H101.563ZM110.011 25.0436C110.761 25.0436 111.379 25.3098 111.865 25.8422C112.355 26.3746 112.601 27.0586 112.605 27.8942C112.605 28.0147 112.6 28.1235 112.588 28.2207H108.163C108.222 28.7959 108.431 29.2409 108.793 29.5556C109.154 29.8666 109.595 30.022 110.116 30.022C110.777 30.022 111.36 29.7908 111.865 29.3283L112.331 29.9229C111.729 30.4981 110.973 30.7857 110.064 30.7857C109.244 30.7857 108.573 30.5214 108.052 29.9929C107.532 29.4604 107.271 28.7687 107.271 27.9175C107.271 27.0781 107.53 26.3902 108.047 25.8539C108.564 25.3137 109.218 25.0436 110.011 25.0436ZM109.994 25.8189C109.496 25.8189 109.086 25.9743 108.764 26.2853C108.441 26.5962 108.245 27.0062 108.175 27.5153H111.719C111.665 26.9984 111.48 26.5865 111.165 26.2794C110.855 25.9724 110.464 25.8189 109.994 25.8189ZM116.727 25.0436C117.132 25.0436 117.47 25.1057 117.742 25.2301L117.532 26.0871C117.26 25.9394 116.941 25.8655 116.576 25.8655C116.141 25.8655 115.785 26.0229 115.509 26.3377C115.233 26.6525 115.095 27.0684 115.095 27.5853V30.6749H114.227V25.1543H115.089V25.9297C115.28 25.6459 115.515 25.4283 115.795 25.2767C116.078 25.1213 116.389 25.0436 116.727 25.0436Z" fill="#231F20"/>
<path d="M0.494141 45.8018C0.494141 39.1044 5.92349 33.675 12.6209 33.675H26.4409V45.8018H0.494141V45.8018Z" fill="white"/>
<rect x="26.4414" y="33.675" width="90.1064" height="12.1268" fill="white"/>
<path d="M116.547 33.675H130.367C137.064 33.675 142.494 39.1044 142.494 45.8018V45.8018H116.547V33.675Z" fill="white"/>
<g clip-path="url(#clip1_214_14301)">
<path d="M188.572 45.8018L-45.583 45.8018V71.0632L188.572 71.0632V45.8018Z" fill="white"/>
<path d="M6.97949 62.6105L22.1364 53.8661" stroke="#231F20" stroke-width="0.971596"/>
<path d="M22.1377 53.8661L28.3559 57.3638" stroke="#231F20" stroke-width="0.971596"/>
<path d="M28.3555 57.3638L34.4765 60.9587" stroke="#FF6A00" stroke-width="0.971596"/>
<path d="M113.079 53.8661L97.9219 62.6105" stroke="#231F20" stroke-width="0.971596"/>
<path d="M113.078 53.8661L119.199 57.3638" stroke="#231F20" stroke-width="0.971596"/>
<path d="M119.199 57.3638L125.32 60.9587" stroke="#FF6A00" stroke-width="0.971596"/>
<path d="M97.9213 62.6103L91.7031 59.0154" stroke="#231F20" stroke-width="0.971596"/>
<path d="M91.7031 59.0154L85.582 55.5177" stroke="#FF6A00" stroke-width="0.971596"/>
<path d="M52.4512 53.8661L67.6081 62.6105" stroke="#231F20" stroke-width="0.971596"/>
<path d="M52.4502 53.8661L46.3291 57.3638" stroke="#231F20" stroke-width="0.971596"/>
<path d="M46.3305 57.3638L40.1123 60.9587" stroke="#FF6A00" stroke-width="0.971596"/>
<path d="M67.6074 62.6103L73.7285 59.0154" stroke="#231F20" stroke-width="0.971596"/>
<path d="M73.7285 59.0154L79.8496 55.5177" stroke="#FF6A00" stroke-width="0.971596"/>
<path d="M21.3604 54.2547L22.1376 53.8661L22.4291 53.9632" stroke="#231F20" stroke-width="0.971596"/>
<path d="M112.302 54.2547L113.079 53.8661L113.371 53.9632" stroke="#231F20" stroke-width="0.971596"/>
<path d="M98.6019 62.1246L97.9218 62.6104L97.5332 62.4161" stroke="#231F20" stroke-width="0.971596"/>
<path d="M53.2279 54.2547L52.4507 53.8661L52.1592 53.9632" stroke="#231F20" stroke-width="0.971596"/>
<path d="M66.8311 62.1246L67.6083 62.6104L67.8998 62.4161" stroke="#231F20" stroke-width="0.971596"/>
<path d="M125.903 62.6104C125.903 61.8331 126.098 61.2178 126.486 60.7643C126.875 60.3109 127.425 60.0842 128.138 60.0842C128.915 60.0842 129.498 60.3109 129.887 60.7643C130.276 61.2178 130.47 61.8331 130.47 62.6104C130.47 63.3877 130.276 64.003 129.887 64.4564C129.498 64.9098 128.915 65.1365 128.138 65.1365C127.425 65.1365 126.875 64.9098 126.486 64.4564C126.098 64.003 125.903 63.3877 125.903 62.6104ZM128.138 64.5536C128.656 64.5536 129.045 64.3916 129.304 64.0678C129.628 63.7439 129.79 63.2581 129.79 62.6104C129.79 61.9626 129.628 61.4768 129.304 61.153C129.045 60.8291 128.656 60.6672 128.138 60.6672C127.685 60.6672 127.296 60.8291 126.972 61.153C126.713 61.4768 126.583 61.9626 126.583 62.6104C126.583 63.2581 126.713 63.7439 126.972 64.0678C127.296 64.3916 127.685 64.5536 128.138 64.5536Z" fill="#FF6A00"/>
<path d="M131.247 60.0842H131.927V62.2217H134.453V60.0842H135.133V65.0394H134.453V62.8047H131.927V65.0394H131.247V60.0842Z" fill="#FF6A00"/>
<path d="M35.0596 62.6104C35.0596 61.8331 35.2539 61.2178 35.6425 60.7643C36.0312 60.3109 36.5817 60.0842 37.2942 60.0842C38.0067 60.0842 38.5573 60.3109 38.946 60.7643C39.3994 61.2178 39.6261 61.8331 39.6261 62.6104C39.6261 63.3877 39.3994 64.003 38.946 64.4564C38.5573 64.9098 38.0067 65.1365 37.2942 65.1365C36.5817 65.1365 36.0312 64.9098 35.6425 64.4564C35.2539 64.003 35.0596 63.3877 35.0596 62.6104ZM37.2942 64.5536C37.8124 64.5536 38.2011 64.3916 38.4602 64.0678C38.7192 63.7439 38.8488 63.2581 38.8488 62.6104C38.8488 61.9626 38.7192 61.4768 38.4602 61.153C38.2011 60.8291 37.8124 60.6672 37.2942 60.6672C36.7761 60.6672 36.3874 60.8291 36.1283 61.153C35.8692 61.4768 35.7397 61.9626 35.7397 62.6104C35.7397 63.2581 35.8692 63.7439 36.1283 64.0678C36.3874 64.3916 36.7761 64.5536 37.2942 64.5536Z" fill="#FF6A00"/>
<path d="M80.4336 53.866C80.4336 53.0887 80.6279 52.4734 81.0166 52.02C81.4052 51.5665 81.9882 51.3398 82.7654 51.3398C83.4779 51.3398 84.0285 51.5665 84.4171 52.02C84.8058 52.4734 85.0001 53.0887 85.0001 53.866C85.0001 54.6433 84.8058 55.2586 84.4171 55.712C84.0285 56.1654 83.4779 56.3921 82.7654 56.3921C82.0529 56.3921 81.47 56.1654 81.0166 55.712C80.6279 55.2586 80.4336 54.6433 80.4336 53.866ZM82.7654 55.8092C83.2836 55.8092 83.6723 55.6473 83.9313 55.3234C84.1904 54.9995 84.32 54.5137 84.32 53.866C84.32 53.2183 84.1904 52.7325 83.9313 52.4086C83.6723 52.0847 83.2836 51.9228 82.7654 51.9228C82.2472 51.9228 81.8586 52.0847 81.5995 52.4086C81.3404 52.7325 81.2109 53.2183 81.2109 53.866C81.2109 54.5137 81.3404 54.9995 81.5995 55.3234C81.8586 55.6473 82.2472 55.8092 82.7654 55.8092Z" fill="#FF6A00"/>
</g>
<path d="M0.494141 71.0632H26.4409V83.1888H12.6197C5.92293 83.1888 0.494141 77.76 0.494141 71.0632V71.0632Z" fill="white"/>
<rect x="26.4414" y="71.0632" width="90.1064" height="12.1255" fill="white"/>
<path d="M116.547 71.0632H142.494V71.0632C142.494 77.76 137.065 83.1888 130.368 83.1888H116.547V71.0632Z" fill="white"/>
</g>
<rect x="1.24391" y="1.18165" width="140.5" height="84.5005" rx="3.13661" stroke="white" stroke-width="1.49954"/>
<defs>
<clipPath id="clip0_214_14301">
<rect x="0.494141" y="0.431885" width="142" height="86" rx="3.88638" fill="white"/>
</clipPath>
<clipPath id="clip1_214_14301">
<rect width="234.155" height="25.2615" fill="white" transform="translate(-45.583 45.8018)"/>
</clipPath>
</defs>
</svg>
