<svg width="144" height="87" viewBox="0 0 144 87" fill="none" xmlns="http://www.w3.org/2000/svg">
<g clip-path="url(#clip0_214_14937)">
<rect x="0.494141" y="0.431885" width="143" height="86" rx="3.88638" fill="white"/>
<path d="M0.494141 7.27034C0.494141 0.572901 5.92349 -4.85645 12.6209 -4.85645L26.4409 -4.85645V7.27034H0.494141V7.27034Z" fill="white"/>
<rect x="26.4414" y="-4.85645" width="91.1064" height="12.1268" fill="white"/>
<path d="M117.547 -4.85645L131.367 -4.85645C138.064 -4.85645 143.494 0.572901 143.494 7.27034V7.27034L117.547 7.27034V-4.85645Z" fill="white"/>
<rect width="143" height="15" transform="translate(0.494141 7.27051)" fill="white"/>
<path d="M30.3264 11.1091V11.9952H27.4932V19.2705H26.5605V11.9952H23.7273V11.1091H30.3264ZM33.3116 13.6391C33.7158 13.6391 34.0539 13.7013 34.3259 13.8257L34.1161 14.6826C33.844 14.5349 33.5254 14.4611 33.16 14.4611C32.7248 14.4611 32.3692 14.6185 32.0932 14.9333C31.8173 15.2481 31.6793 15.6639 31.6793 16.1808V19.2705H30.8107V13.7499H31.6735V14.5252C31.8639 14.2415 32.099 14.0239 32.3789 13.8723C32.6626 13.7169 32.9735 13.6391 33.3116 13.6391ZM36.5242 13.7499V19.2705H35.6497V13.7499H36.5242ZM36.0869 11.1732C36.2579 11.1732 36.4037 11.2335 36.5242 11.3539C36.6446 11.4705 36.7049 11.6163 36.7049 11.7912C36.7049 11.966 36.6446 12.1118 36.5242 12.2284C36.4076 12.345 36.2618 12.4033 36.0869 12.4033C35.912 12.4033 35.7663 12.345 35.6497 12.2284C35.5331 12.1118 35.4748 11.966 35.4748 11.7912C35.4748 11.6163 35.5331 11.4705 35.6497 11.3539C35.7663 11.2335 35.912 11.1732 36.0869 11.1732ZM41.0013 13.6391C41.4132 13.6391 41.796 13.7149 42.1497 13.8665C42.5034 14.0142 42.8026 14.2279 43.0474 14.5077L42.4878 15.0965C42.0486 14.669 41.5454 14.4553 40.9779 14.4553C40.4222 14.4553 39.9578 14.6496 39.5847 15.0382C39.2155 15.4269 39.0309 15.9166 39.0309 16.5073C39.0309 17.1019 39.2155 17.5935 39.5847 17.9822C39.9578 18.3708 40.4222 18.5651 40.9779 18.5651C41.5531 18.5651 42.0622 18.3494 42.5053 17.918L43.0474 18.5127C42.7987 18.7925 42.4975 19.0082 42.1439 19.1597C41.7902 19.3074 41.4093 19.3813 41.0013 19.3813C40.1618 19.3813 39.4759 19.1092 38.9434 18.5651C38.411 18.021 38.1448 17.3351 38.1448 16.5073C38.1448 15.6834 38.411 14.9994 38.9434 14.4553C39.4759 13.9112 40.1618 13.6391 41.0013 13.6391ZM45.4051 10.8759V14.5194C45.6189 14.2163 45.889 13.9947 46.2155 13.8548C46.5419 13.711 46.8878 13.6391 47.2531 13.6391C47.9371 13.6391 48.4909 13.8412 48.9146 14.2454C49.3421 14.6496 49.5558 15.184 49.5558 15.8485V19.2705H48.6872V16.1342C48.6872 15.6095 48.5473 15.2015 48.2675 14.91C47.9915 14.6146 47.601 14.4669 47.0957 14.4669C46.6177 14.4669 46.2155 14.6224 45.889 14.9333C45.5664 15.2403 45.4051 15.6484 45.4051 16.1575V19.2705H44.5307V10.8759H45.4051ZM52.4075 10.8759V19.2705H51.533V10.8759H52.4075ZM56.9312 13.6391C57.7629 13.6391 58.4547 13.9131 59.0065 14.4611C59.5623 15.0091 59.8402 15.6911 59.8402 16.5073C59.8402 17.3273 59.5623 18.0113 59.0065 18.5593C58.4547 19.1073 57.7629 19.3813 56.9312 19.3813C56.0995 19.3813 55.4078 19.1073 54.8559 18.5593C54.304 18.0113 54.0281 17.3273 54.0281 16.5073C54.0281 15.6911 54.304 15.0091 54.8559 14.4611C55.4116 13.9131 56.1034 13.6391 56.9312 13.6391ZM58.3711 15.0382C57.9864 14.6496 57.5064 14.4553 56.9312 14.4553C56.356 14.4553 55.8761 14.6496 55.4913 15.0382C55.1066 15.4269 54.9142 15.9166 54.9142 16.5073C54.9142 17.1019 55.1066 17.5935 55.4913 17.9822C55.8761 18.3708 56.356 18.5651 56.9312 18.5651C57.5064 18.5651 57.9864 18.3708 58.3711 17.9822C58.7559 17.5935 58.9483 17.1019 58.9483 16.5073C58.9483 15.9166 58.7559 15.4269 58.3711 15.0382ZM63.9624 13.6391C64.3666 13.6391 64.7047 13.7013 64.9768 13.8257L64.7669 14.6826C64.4949 14.5349 64.1762 14.4611 63.8108 14.4611C63.3756 14.4611 63.02 14.6185 62.744 14.9333C62.4681 15.2481 62.3301 15.6639 62.3301 16.1808V19.2705H61.4615V13.7499H62.3243V14.5252C62.5147 14.2415 62.7499 14.0239 63.0297 13.8723C63.3134 13.7169 63.6243 13.6391 63.9624 13.6391ZM68.5562 13.6391C69.3879 13.6391 70.0797 13.9131 70.6315 14.4611C71.1873 15.0091 71.4652 15.6911 71.4652 16.5073C71.4652 17.3273 71.1873 18.0113 70.6315 18.5593C70.0797 19.1073 69.3879 19.3813 68.5562 19.3813C67.7245 19.3813 67.0328 19.1073 66.4809 18.5593C65.929 18.0113 65.6531 17.3273 65.6531 16.5073C65.6531 15.6911 65.929 15.0091 66.4809 14.4611C67.0366 13.9131 67.7284 13.6391 68.5562 13.6391ZM69.9961 15.0382C69.6114 14.6496 69.1314 14.4553 68.5562 14.4553C67.981 14.4553 67.5011 14.6496 67.1163 15.0382C66.7316 15.4269 66.5392 15.9166 66.5392 16.5073C66.5392 17.1019 66.7316 17.5935 67.1163 17.9822C67.5011 18.3708 67.981 18.5651 68.5562 18.5651C69.1314 18.5651 69.6114 18.3708 69.9961 17.9822C70.3809 17.5935 70.5732 17.1019 70.5732 16.5073C70.5732 15.9166 70.3809 15.4269 69.9961 15.0382ZM75.4067 13.6391C76.1568 13.6391 76.7747 13.9054 77.2605 14.4378C77.7502 14.9702 77.997 15.6542 78.0009 16.4898C78.0009 16.6103 77.995 16.7191 77.9834 16.8163H73.5587C73.617 17.3914 73.8269 17.8364 74.1883 18.1512C74.5497 18.4621 74.9908 18.6176 75.5116 18.6176C76.1723 18.6176 76.7553 18.3864 77.2605 17.9239L77.7269 18.5185C77.1245 19.0937 76.3686 19.3813 75.4592 19.3813C74.6391 19.3813 73.9687 19.117 73.448 18.5884C72.9272 18.056 72.6668 17.3642 72.6668 16.5131C72.6668 15.6737 72.9252 14.9858 73.4421 14.4494C73.959 13.9092 74.6139 13.6391 75.4067 13.6391ZM75.3892 14.4145C74.8917 14.4145 74.4817 14.5699 74.1592 14.8808C73.8366 15.1917 73.6403 15.6018 73.5704 16.1109H77.1148C77.0603 15.594 76.8757 15.182 76.5609 14.875C76.25 14.568 75.8595 14.4145 75.3892 14.4145ZM83.3135 13.7499V14.5369H80.9292V17.3234C80.9292 17.7393 81.0283 18.0502 81.2265 18.2562C81.4247 18.4621 81.6909 18.5651 82.0252 18.5651C82.441 18.5651 82.8277 18.4349 83.1853 18.1745L83.5933 18.8333C83.1114 19.1986 82.5654 19.3813 81.9552 19.3813C81.3489 19.3813 80.8806 19.2122 80.5503 18.8741C80.2238 18.5321 80.0606 18.021 80.0606 17.3409V14.5369H78.8539V13.7499H80.0606V11.9952H80.9292V13.7499H83.3135ZM85.7226 10.8759V14.5194C85.9363 14.2163 86.2064 13.9947 86.5329 13.8548C86.8594 13.711 87.2052 13.6391 87.5706 13.6391C88.2546 13.6391 88.8084 13.8412 89.232 14.2454C89.6595 14.6496 89.8732 15.184 89.8732 15.8485V19.2705H89.0046V16.1342C89.0046 15.6095 88.8647 15.2015 88.5849 14.91C88.309 14.6146 87.9184 14.4669 87.4132 14.4669C86.9351 14.4669 86.5329 14.6224 86.2064 14.9333C85.8839 15.2403 85.7226 15.6484 85.7226 16.1575V19.2705H84.8481V10.8759H85.7226ZM96.7278 13.7499L92.2332 21.6257H91.2713L93.3292 18.0754L90.7933 13.7499H91.7669L93.8247 17.2127L95.7718 13.7499H96.7278ZM98.7139 10.8759V19.2705H97.8394V10.8759H98.7139ZM103.074 13.6391C103.824 13.6391 104.442 13.9054 104.928 14.4378C105.418 14.9702 105.665 15.6542 105.669 16.4898C105.669 16.6103 105.663 16.7191 105.651 16.8163H101.226C101.285 17.3914 101.495 17.8364 101.856 18.1512C102.217 18.4621 102.659 18.6176 103.179 18.6176C103.84 18.6176 104.423 18.3864 104.928 17.9239L105.395 18.5185C104.792 19.0937 104.036 19.3813 103.127 19.3813C102.307 19.3813 101.636 19.117 101.116 18.5884C100.595 18.056 100.335 17.3642 100.335 16.5131C100.335 15.6737 100.593 14.9858 101.11 14.4494C101.627 13.9092 102.282 13.6391 103.074 13.6391ZM103.057 14.4145C102.559 14.4145 102.149 14.5699 101.827 14.8808C101.504 15.1917 101.308 15.6018 101.238 16.1109H104.782C104.728 15.594 104.543 15.182 104.229 14.875C103.918 14.568 103.527 14.4145 103.057 14.4145ZM110.012 13.6391C110.696 13.6391 111.25 13.8412 111.674 14.2454C112.101 14.6496 112.315 15.184 112.315 15.8485V19.2705H111.446V16.1342C111.446 15.6095 111.306 15.2015 111.026 14.91C110.751 14.6146 110.36 14.4669 109.855 14.4669C109.377 14.4669 108.974 14.6224 108.648 14.9333C108.325 15.2403 108.164 15.6484 108.164 16.1575V19.2705H107.29V13.7499H108.153V14.5369C108.362 14.226 108.632 13.9986 108.963 13.8548C109.293 13.711 109.643 13.6391 110.012 13.6391ZM116.612 13.6391C117.362 13.6391 117.98 13.9054 118.466 14.4378C118.956 14.9702 119.203 15.6542 119.206 16.4898C119.206 16.6103 119.201 16.7191 119.189 16.8163H114.764C114.823 17.3914 115.032 17.8364 115.394 18.1512C115.755 18.4621 116.196 18.6176 116.717 18.6176C117.378 18.6176 117.961 18.3864 118.466 17.9239L118.932 18.5185C118.33 19.0937 117.574 19.3813 116.665 19.3813C115.845 19.3813 115.174 19.117 114.653 18.5884C114.133 18.056 113.872 17.3642 113.872 16.5131C113.872 15.6737 114.131 14.9858 114.648 14.4494C115.165 13.9092 115.819 13.6391 116.612 13.6391ZM116.595 14.4145C116.097 14.4145 115.687 14.5699 115.365 14.8808C115.042 15.1917 114.846 15.6018 114.776 16.1109H118.32C118.266 15.594 118.081 15.182 117.766 14.875C117.456 14.568 117.065 14.4145 116.595 14.4145Z" fill="#231F20"/>
<g clip-path="url(#clip1_214_14937)">
<path d="M120.574 22.2705L23.4141 22.2705V79.5947H120.574V22.2705Z" fill="white"/>
<path d="M65.1924 63.9519L80.3493 55.2075" stroke="#231F20" stroke-width="0.971596"/>
<path d="M65.1924 60.9398L77.726 53.75" stroke="#231F20" stroke-width="0.971596"/>
<path d="M65.1932 63.952L58.1006 59.8713" stroke="#231F20" stroke-width="0.971596"/>
<path d="M58.1005 59.8712L51.0078 55.7905" stroke="#216C21" stroke-width="0.971596"/>
<path d="M80.3496 55.2075L86.665 58.8996" stroke="#231F20" stroke-width="0.971596"/>
<path d="M86.665 58.8997L92.9804 62.4946" stroke="#216C21" stroke-width="0.971596"/>
<path d="M80.3496 55.2076V48.115" stroke="#231F20" stroke-width="0.971596"/>
<path d="M80.3496 48.1151V41.0225" stroke="#216C21" stroke-width="0.971596"/>
<path d="M65.9701 63.5632L65.1928 63.9519L64.9014 63.7576" stroke="#231F20" stroke-width="0.971596"/>
<path d="M45.4697 55.4019C45.4697 54.5598 45.6317 53.9445 45.9555 53.5559C46.3442 53.1024 46.9271 52.8757 47.7044 52.8757C48.3521 52.8757 48.8703 53.1024 49.2589 53.5559L48.7732 53.9445C48.5141 53.6206 48.1578 53.4587 47.7044 53.4587C47.1862 53.4587 46.7976 53.6206 46.5385 53.9445C46.2794 54.2684 46.1498 54.7541 46.1498 55.4019C46.1498 56.0496 46.2794 56.5354 46.5385 56.8593C46.7976 57.1831 47.2186 57.3451 47.8016 57.3451C48.1254 57.3451 48.5141 57.2479 48.9675 57.0536L49.1618 57.5394C48.9675 57.6689 48.7408 57.7661 48.4817 57.8309C48.2226 57.8956 47.9635 57.928 47.7044 57.928C46.9271 57.928 46.3442 57.7013 45.9555 57.2479C45.6317 56.8593 45.4697 56.2439 45.4697 55.4019Z" fill="#216C21"/>
<path d="M49.7441 52.5842H50.4243V57.8308H49.7441V52.5842Z" fill="#216C21"/>
<path d="M93.5635 64.1463C93.5635 63.3042 93.7578 62.6889 94.1464 62.3002C94.5351 61.8468 95.118 61.6201 95.8953 61.6201C96.543 61.6201 97.0612 61.8468 97.4499 62.3002L96.9641 62.6889C96.705 62.365 96.3487 62.2031 95.8953 62.2031C95.3771 62.2031 94.9885 62.365 94.7294 62.6889C94.4703 63.0127 94.3408 63.4985 94.3408 64.1463C94.3408 64.794 94.4703 65.2798 94.7294 65.6037C94.9885 65.9275 95.3771 66.0895 95.8953 66.0895C96.2839 66.0895 96.6726 65.9923 97.0612 65.798L97.3527 66.2838C97.1584 66.4133 96.9317 66.5105 96.6726 66.5753C96.4135 66.64 96.122 66.6724 95.7981 66.6724C95.0856 66.6724 94.5351 66.4457 94.1464 65.9923C93.7578 65.6037 93.5635 64.9883 93.5635 64.1463Z" fill="#216C21"/>
<path d="M97.9355 61.3286H98.5185V66.5752H97.9355V61.3286Z" fill="#216C21"/>
<path d="M78.4062 37.9131C78.4062 37.0711 78.6006 36.4557 78.9892 36.0671C79.3778 35.6137 79.9608 35.387 80.7381 35.387C81.3858 35.387 81.904 35.6137 82.2926 36.0671L81.8068 36.4557C81.5477 36.1319 81.1915 35.9699 80.7381 35.9699C80.2199 35.9699 79.8313 36.1319 79.5722 36.4557C79.3131 36.7796 79.1835 37.2654 79.1835 37.9131C79.1835 38.5608 79.3131 39.0466 79.5722 39.3705C79.8313 39.6944 80.2199 39.8563 80.7381 39.8563C81.1267 39.8563 81.5477 39.7591 82.0012 39.5648L82.1955 40.0506C82.0012 40.1802 81.7744 40.2773 81.5154 40.3421C81.2563 40.4069 80.9648 40.4393 80.6409 40.4393C79.9284 40.4393 79.3778 40.2126 78.9892 39.7591C78.6006 39.3705 78.4062 38.7552 78.4062 37.9131Z" fill="#216C21"/>
<path d="M82.7783 35.0955H83.4584V40.3421H82.7783V35.0955Z" fill="#216C21"/>
</g>
<path d="M0.494141 79.5945H26.4409V91.72H12.6197C5.92293 91.72 0.494141 86.2912 0.494141 79.5945V79.5945Z" fill="white"/>
<rect x="26.4414" y="79.5945" width="91.1064" height="12.1255" fill="white"/>
<path d="M117.547 79.5945H143.494V79.5945C143.494 86.2912 138.065 91.72 131.368 91.72H117.547V79.5945Z" fill="white"/>
</g>
<rect x="1.24391" y="1.18165" width="141.5" height="84.5005" rx="3.13661" stroke="white" stroke-width="1.49954"/>
<defs>
<clipPath id="clip0_214_14937">
<rect x="0.494141" y="0.431885" width="143" height="86" rx="3.88638" fill="white"/>
</clipPath>
<clipPath id="clip1_214_14937">
<rect width="97.1596" height="57.3242" fill="white" transform="translate(23.4141 22.2705)"/>
</clipPath>
</defs>
</svg>
