<svg width="144" height="88" viewBox="0 0 144 88" fill="none" xmlns="http://www.w3.org/2000/svg">
<g clip-path="url(#clip0_214_14157)">
<rect x="0.431641" y="0.431885" width="143" height="87" rx="3.88638" fill="white"/>
<path d="M0.431641 12.5587C0.431641 5.86123 5.86099 0.431885 12.5584 0.431885L26.3784 0.431885V12.5587H0.431641V12.5587Z" fill="white"/>
<rect x="26.3789" y="0.431885" width="91.1064" height="12.1268" fill="white"/>
<path d="M117.484 0.431885L131.304 0.431885C138.002 0.431885 143.431 5.86123 143.431 12.5587V12.5587H117.484V0.431885Z" fill="white"/>
<rect width="143" height="15" transform="translate(0.431641 12.5587)" fill="white"/>
<path d="M43.6536 16.3973L47.0056 24.5587H46.0029L45.076 22.2852H41.0361L40.115 24.5587H39.1415L42.4935 16.3973H43.6536ZM43.059 17.3242L41.3976 21.3991H44.7204L43.059 17.3242ZM50.632 18.9273C51.0439 18.9273 51.4267 19.0031 51.7804 19.1547C52.1341 19.3024 52.4333 19.5161 52.6781 19.796L52.1185 20.3847C51.6793 19.9572 51.1761 19.7435 50.6086 19.7435C50.0529 19.7435 49.5885 19.9378 49.2154 20.3264C48.8462 20.7151 48.6616 21.2048 48.6616 21.7955C48.6616 22.3901 48.8462 22.8817 49.2154 23.2704C49.5885 23.659 50.0529 23.8533 50.6086 23.8533C51.1838 23.8533 51.6929 23.6376 52.136 23.2063L52.6781 23.8009C52.4294 24.0807 52.1282 24.2964 51.7746 24.448C51.4209 24.5956 51.04 24.6695 50.632 24.6695C49.7925 24.6695 49.1066 24.3974 48.5741 23.8533C48.0417 23.3092 47.7755 22.6233 47.7755 21.7955C47.7755 20.9716 48.0417 20.2876 48.5741 19.7435C49.1066 19.1994 49.7925 18.9273 50.632 18.9273ZM56.3791 18.9273C57.1292 18.9273 57.7471 19.1936 58.2329 19.726C58.7226 20.2584 58.9694 20.9424 58.9733 21.778C58.9733 21.8985 58.9674 22.0073 58.9558 22.1045H54.5311C54.5894 22.6796 54.7993 23.1246 55.1607 23.4394C55.5222 23.7503 55.9633 23.9058 56.484 23.9058C57.1447 23.9058 57.7277 23.6746 58.2329 23.2121L58.6993 23.8067C58.0969 24.3819 57.341 24.6695 56.4316 24.6695C55.6115 24.6695 54.9411 24.4052 54.4204 23.8767C53.8996 23.3442 53.6392 22.6524 53.6392 21.8013C53.6392 20.9619 53.8976 20.274 54.4145 19.7377C54.9314 19.1974 55.5863 18.9273 56.3791 18.9273ZM56.3616 19.7027C55.8642 19.7027 55.4541 19.8581 55.1316 20.169C54.809 20.48 54.6127 20.89 54.5428 21.3991H58.0872C58.0328 20.8822 57.8482 20.4702 57.5334 20.1632C57.2225 19.8562 56.8319 19.7027 56.3616 19.7027ZM64.2859 19.0381V19.8251H61.9016V22.6116C61.9016 23.0275 62.0007 23.3384 62.1989 23.5444C62.3971 23.7503 62.6634 23.8533 62.9976 23.8533C63.4134 23.8533 63.8001 23.7231 64.1577 23.4628L64.5657 24.1215C64.0838 24.4868 63.5378 24.6695 62.9276 24.6695C62.3214 24.6695 61.853 24.5004 61.5227 24.1623C61.1962 23.8203 61.033 23.3092 61.033 22.6291V19.8251H59.8263V19.0381H61.033V17.2834H61.9016V19.0381H64.2859ZM68.2812 18.9273C69.1129 18.9273 69.8046 19.2013 70.3565 19.7493C70.9123 20.2973 71.1901 20.9794 71.1901 21.7955C71.1901 22.6155 70.9123 23.2995 70.3565 23.8475C69.8046 24.3955 69.1129 24.6695 68.2812 24.6695C67.4495 24.6695 66.7577 24.3955 66.2059 23.8475C65.654 23.2995 65.3781 22.6155 65.3781 21.7955C65.3781 20.9794 65.654 20.2973 66.2059 19.7493C66.7616 19.2013 67.4534 18.9273 68.2812 18.9273ZM69.7211 20.3264C69.3363 19.9378 68.8564 19.7435 68.2812 19.7435C67.706 19.7435 67.226 19.9378 66.8413 20.3264C66.4565 20.7151 66.2642 21.2048 66.2642 21.7955C66.2642 22.3901 66.4565 22.8817 66.8413 23.2704C67.226 23.659 67.706 23.8533 68.2812 23.8533C68.8564 23.8533 69.3363 23.659 69.7211 23.2704C70.1058 22.8817 70.2982 22.3901 70.2982 21.7955C70.2982 21.2048 70.1058 20.7151 69.7211 20.3264ZM75.5339 18.9273C76.2179 18.9273 76.7717 19.1294 77.1953 19.5336C77.6228 19.9378 77.8366 20.4722 77.8366 21.1368V24.5587H76.968V21.4224C76.968 20.8977 76.8281 20.4897 76.5483 20.1982C76.2723 19.9028 75.8817 19.7551 75.3765 19.7551C74.8985 19.7551 74.4962 19.9106 74.1698 20.2215C73.8472 20.5285 73.6859 20.9366 73.6859 21.4457V24.5587H72.8115V19.0381H73.6743V19.8251C73.8841 19.5142 74.1542 19.2868 74.4846 19.143C74.8149 18.9992 75.1647 18.9273 75.5339 18.9273ZM80.6883 19.0381V24.5587H79.8138V19.0381H80.6883ZM80.251 16.4614C80.422 16.4614 80.5678 16.5217 80.6883 16.6422C80.8087 16.7587 80.869 16.9045 80.869 17.0794C80.869 17.2543 80.8087 17.4 80.6883 17.5166C80.5717 17.6332 80.4259 17.6915 80.251 17.6915C80.0761 17.6915 79.9304 17.6332 79.8138 17.5166C79.6972 17.4 79.6389 17.2543 79.6389 17.0794C79.6389 16.9045 79.6972 16.7587 79.8138 16.6422C79.9304 16.5217 80.0761 16.4614 80.251 16.4614ZM86.477 19.0381V19.8251H84.0927V22.6116C84.0927 23.0275 84.1918 23.3384 84.39 23.5444C84.5882 23.7503 84.8545 23.8533 85.1887 23.8533C85.6045 23.8533 85.9912 23.7231 86.3488 23.4628L86.7568 24.1215C86.2749 24.4868 85.7289 24.6695 85.1187 24.6695C84.5125 24.6695 84.0441 24.5004 83.7138 24.1623C83.3873 23.8203 83.2241 23.3092 83.2241 22.6291V19.8251H82.0174V19.0381H83.2241V17.2834H84.0927V19.0381H86.477ZM90.5125 18.9273C90.9167 18.9273 91.2548 18.9895 91.5269 19.1139L91.317 19.9708C91.045 19.8232 90.7263 19.7493 90.361 19.7493C89.9257 19.7493 89.5701 19.9067 89.2942 20.2215C89.0182 20.5363 88.8803 20.9522 88.8803 21.469V24.5587H88.0117V19.0381H88.8744V19.8134C89.0649 19.5297 89.3 19.3121 89.5798 19.1605C89.8635 19.0051 90.1744 18.9273 90.5125 18.9273ZM93.7251 19.0381V24.5587H92.8507V19.0381H93.7251ZM93.2879 16.4614C93.4589 16.4614 93.6046 16.5217 93.7251 16.6422C93.8456 16.7587 93.9058 16.9045 93.9058 17.0794C93.9058 17.2543 93.8456 17.4 93.7251 17.5166C93.6085 17.6332 93.4628 17.6915 93.2879 17.6915C93.113 17.6915 92.9673 17.6332 92.8507 17.5166C92.7341 17.4 92.6758 17.2543 92.6758 17.0794C92.6758 16.9045 92.7341 16.7587 92.8507 16.6422C92.9673 16.5217 93.113 16.4614 93.2879 16.4614ZM96.6399 16.1641V24.5587H95.7654V16.1641H96.6399ZM101 18.9273C101.75 18.9273 102.368 19.1936 102.854 19.726C103.344 20.2584 103.591 20.9424 103.595 21.778C103.595 21.8985 103.589 22.0073 103.577 22.1045H99.1524C99.2107 22.6796 99.4206 23.1246 99.782 23.4394C100.143 23.7503 100.585 23.9058 101.105 23.9058C101.766 23.9058 102.349 23.6746 102.854 23.2121L103.321 23.8067C102.718 24.3819 101.962 24.6695 101.053 24.6695C100.233 24.6695 99.5624 24.4052 99.0417 23.8767C98.5209 23.3442 98.2605 22.6524 98.2605 21.8013C98.2605 20.9619 98.519 20.274 99.0358 19.7377C99.5527 19.1974 100.208 18.9273 101 18.9273ZM100.983 19.7027C100.485 19.7027 100.075 19.8581 99.7529 20.169C99.4303 20.48 99.234 20.89 99.1641 21.3991H102.708C102.654 20.8822 102.469 20.4702 102.155 20.1632C101.844 19.8562 101.453 19.7027 100.983 19.7027Z" fill="#231F20"/>
<path d="M0.431641 27.5587H26.3784V39.6842H12.5572C5.86043 39.6842 0.431641 34.2555 0.431641 27.5587V27.5587Z" fill="white"/>
<rect x="26.3789" y="27.5587" width="91.1064" height="12.1255" fill="white"/>
<path d="M117.484 27.5587H143.431V27.5587C143.431 34.2555 138.002 39.6842 131.306 39.6842H117.484V27.5587Z" fill="white"/>
<g clip-path="url(#clip1_214_14157)">
<path d="M105.451 39.6842L38.4111 39.6842V48.4286H105.451V39.6842Z" fill="white"/>
<path d="M53.4707 43.9592H70.9594" stroke="#231F20" stroke-width="0.971596"/>
<path d="M70.96 43.9592L78.4412 44.0564" stroke="#231F20" stroke-width="0.971596"/>
<path d="M78.4414 44.0564H86.0199" stroke="#0F4BA3" stroke-width="0.971596"/>
<path d="M70.96 41.3358L78.4412 41.433" stroke="#231F20" stroke-width="0.971596"/>
<path d="M78.4414 41.4331H86.0199" stroke="#0F4BA3" stroke-width="0.971596"/>
<path d="M70.96 46.5825H78.4412" stroke="#231F20" stroke-width="0.971596"/>
<path d="M78.4414 46.5825L86.0199 46.6797" stroke="#0F4BA3" stroke-width="0.971596"/>
<path d="M70.085 43.9592H70.9594H71.348" stroke="#231F20" stroke-width="0.971596"/>
<path d="M87.3788 41.5303L88.9334 44.1536C89.0629 44.3479 89.2249 44.607 89.4192 44.9309C89.5487 45.19 89.6135 45.3519 89.6135 45.4167V41.5303H90.2936V46.4854H89.6135L87.8646 43.5706C87.7351 43.3763 87.6055 43.1496 87.476 42.8905C87.3465 42.6314 87.2493 42.4695 87.1845 42.4047V46.4854H86.6016V41.5303H87.3788Z" fill="#0F4BA3"/>
</g>
</g>
<rect x="1.18141" y="1.18165" width="141.5" height="85.5005" rx="3.13661" stroke="white" stroke-width="1.49954"/>
<defs>
<clipPath id="clip0_214_14157">
<rect x="0.431641" y="0.431885" width="143" height="87" rx="3.88638" fill="white"/>
</clipPath>
<clipPath id="clip1_214_14157">
<rect width="67.0401" height="8.74436" fill="white" transform="translate(38.4111 39.6842)"/>
</clipPath>
</defs>
</svg>
