<svg width="145" height="87" viewBox="0 0 145 87" fill="none" xmlns="http://www.w3.org/2000/svg">
<g clip-path="url(#clip0_214_14985)">
<rect x="0.245117" y="0.431885" width="144" height="86" rx="3.88638" fill="white"/>
<path d="M0.245117 10.1851C0.245117 3.4877 5.67446 -1.94165 12.3719 -1.94165L26.1919 -1.94165V10.1851L0.245117 10.1851V10.1851Z" fill="white"/>
<rect x="26.1924" y="-1.94165" width="92.1064" height="12.1268" fill="white"/>
<path d="M118.298 -1.94165L132.118 -1.94165C138.815 -1.94165 144.245 3.4877 144.245 10.1851V10.1851L118.298 10.1851V-1.94165Z" fill="white"/>
<rect width="144" height="15" transform="translate(0.245117 10.1853)" fill="white"/>
<path d="M61.85 17.6324V18.5185H57.3613V22.1853H56.4227V14.0239H62.0716V14.91H57.3613V17.6324H61.85ZM68.5699 16.6647V19.8826C68.5699 20.279 68.5019 20.6346 68.3659 20.9494C68.2298 21.2603 68.0452 21.513 67.812 21.7073C67.5789 21.9016 67.3126 22.0493 67.0134 22.1503C66.718 22.2475 66.4013 22.2961 66.0632 22.2961C65.7212 22.2961 65.4005 22.2475 65.1013 22.1503C64.8059 22.0493 64.5417 21.9016 64.3085 21.7073C64.0753 21.513 63.8907 21.2603 63.7547 20.9494C63.6225 20.6346 63.5565 20.279 63.5565 19.8826V16.6647H64.4251V19.801C64.4251 20.3529 64.5747 20.7707 64.8739 21.0544C65.1732 21.3381 65.5696 21.4799 66.0632 21.4799C66.5567 21.4799 66.9512 21.3381 67.2466 21.0544C67.5458 20.7707 67.6955 20.3529 67.6955 19.801V16.6647H68.5699ZM73.0441 16.5539C73.4483 16.5539 73.7864 16.6161 74.0584 16.7405L73.8486 17.5974C73.5765 17.4497 73.2578 17.3759 72.8925 17.3759C72.4572 17.3759 72.1016 17.5333 71.8257 17.8481C71.5498 18.1629 71.4118 18.5787 71.4118 19.0956V22.1853H70.5432V16.6647H71.406V17.44C71.5964 17.1563 71.8315 16.9387 72.1114 16.7871C72.3951 16.6317 72.706 16.5539 73.0441 16.5539ZM80.3778 16.6647V22.1853H79.5092V21.3633C79.0273 21.9852 78.3549 22.2961 77.4921 22.2961C76.711 22.2961 76.0561 22.024 75.5276 21.4799C74.999 20.9319 74.7348 20.246 74.7348 19.4221C74.7348 18.5982 74.999 17.9142 75.5276 17.3701C76.0561 16.826 76.711 16.5539 77.4921 16.5539C78.351 16.5539 79.0234 16.8648 79.5092 17.4867V16.6647H80.3778ZM77.5971 17.3701C77.0141 17.3701 76.538 17.5683 76.1688 17.9647C75.8035 18.3572 75.6208 18.843 75.6208 19.4221C75.6208 20.0012 75.8055 20.4889 76.1747 20.8853C76.5439 21.2817 77.018 21.4799 77.5971 21.4799C78.1684 21.4799 78.6386 21.2856 79.0078 20.897C79.377 20.5044 79.5616 20.0128 79.5616 19.4221C79.5616 18.8352 79.377 18.3475 79.0078 17.9589C78.6386 17.5663 78.1684 17.3701 77.5971 17.3701ZM85.1411 16.5539C85.8251 16.5539 86.3789 16.756 86.8025 17.1602C87.23 17.5644 87.4438 18.0988 87.4438 18.7633V22.1853H86.5752V19.049C86.5752 18.5243 86.4353 18.1163 86.1554 17.8248C85.8795 17.5294 85.4889 17.3817 84.9837 17.3817C84.5057 17.3817 84.1034 17.5372 83.777 17.8481C83.4544 18.1551 83.2931 18.5632 83.2931 19.0723V22.1853H82.4187V16.6647H83.2815V17.4517C83.4913 17.1408 83.7614 16.9134 84.0918 16.7696C84.4221 16.6258 84.7719 16.5539 85.1411 16.5539Z" fill="#231F20"/>
<g clip-path="url(#clip1_214_14985)">
<path d="M98.9641 25.1853L45.5264 25.1853V76.6799H98.9641V25.1853Z" fill="white"/>
<path d="M86.6251 50.5439L76.3262 36.4558" stroke="#231F20" stroke-width="0.971596"/>
<path d="M86.6251 50.5439L76.3262 64.7292" stroke="#231F20" stroke-width="0.971596"/>
<path d="M83.3216 50.5439L75.3545 61.6201" stroke="#231F20" stroke-width="0.971596"/>
<path d="M76.3252 36.4558L59.7109 41.7996" stroke="#231F20" stroke-width="0.971596"/>
<path d="M75.3543 39.5649L62.335 43.7428" stroke="#231F20" stroke-width="0.971596"/>
<path d="M76.3251 64.7291L69.4268 62.4944" stroke="#231F20" stroke-width="0.971596"/>
<path d="M69.4276 62.4947L62.5293 60.26" stroke="#FF6A00" stroke-width="0.971596"/>
<path d="M59.7109 41.7998V49.0868" stroke="#231F20" stroke-width="0.971596"/>
<path d="M59.7109 49.0867V56.2765" stroke="#FF6A00" stroke-width="0.971596"/>
<path d="M86.042 49.8638L86.6249 50.5439L86.042 51.3212" stroke="#231F20" stroke-width="0.971596"/>
<path d="M76.8114 37.1359L76.3256 36.4558L75.4512 36.7473" stroke="#231F20" stroke-width="0.971596"/>
<path d="M76.8119 64.0491L76.3261 64.7292L75.9375 64.632" stroke="#231F20" stroke-width="0.971596"/>
<path d="M60.4882 41.6052L59.7109 41.7995V42.1882" stroke="#231F20" stroke-width="0.971596"/>
<path d="M57.3799 59.3855C57.3799 58.5435 57.5742 57.9281 57.9628 57.5395C58.3515 57.0861 58.9344 56.8594 59.7117 56.8594C60.4242 56.8594 60.9748 57.0861 61.3634 57.5395C61.7521 57.9281 61.9464 58.5435 61.9464 59.3855C61.9464 60.1628 61.7521 60.7781 61.3634 61.2316C60.9748 61.685 60.4242 61.9117 59.7117 61.9117C58.9344 61.9117 58.3515 61.685 57.9628 61.2316C57.5742 60.7781 57.3799 60.1628 57.3799 59.3855ZM59.7117 61.3287C60.1651 61.3287 60.5538 61.1668 60.8776 60.8429C61.1367 60.5191 61.2663 60.0333 61.2663 59.3855C61.2663 58.7378 61.1367 58.252 60.8776 57.9281C60.5538 57.5395 60.1651 57.3452 59.7117 57.3452C59.1935 57.3452 58.8049 57.5395 58.5458 57.9281C58.2867 58.252 58.1572 58.7378 58.1572 59.3855C58.1572 60.0333 58.2867 60.5191 58.5458 60.8429C58.8049 61.1668 59.1935 61.3287 59.7117 61.3287Z" fill="#FF6A00"/>
</g>
<path d="M0.245117 76.6797H26.1919V88.8052H12.3706C5.6739 88.8052 0.245117 83.3764 0.245117 76.6797V76.6797Z" fill="white"/>
<rect x="26.1924" y="76.6797" width="92.1064" height="12.1255" fill="white"/>
<path d="M118.298 76.6797H144.245V76.6797C144.245 83.3764 138.816 88.8052 132.119 88.8052H118.298V76.6797Z" fill="white"/>
</g>
<rect x="0.994886" y="1.18165" width="142.5" height="84.5005" rx="3.13661" stroke="white" stroke-width="1.49954"/>
<defs>
<clipPath id="clip0_214_14985">
<rect x="0.245117" y="0.431885" width="144" height="86" rx="3.88638" fill="white"/>
</clipPath>
<clipPath id="clip1_214_14985">
<rect width="53.4378" height="51.4946" fill="white" transform="translate(45.5264 25.1853)"/>
</clipPath>
</defs>
</svg>
