<svg width="145" height="87" viewBox="0 0 145 87" fill="none" xmlns="http://www.w3.org/2000/svg">
<g clip-path="url(#clip0_214_15177)">
<rect x="0.870117" y="0.431885" width="144" height="86" rx="3.88638" fill="white"/>
<path d="M0.870117 8.24202C0.870117 1.54458 6.29946 -3.88477 12.9969 -3.88477L26.8169 -3.88477V8.24202L0.870117 8.24202V8.24202Z" fill="white"/>
<rect x="26.8174" y="-3.88477" width="92.1064" height="12.1268" fill="white"/>
<path d="M118.923 -3.88477L132.743 -3.88477C139.44 -3.88477 144.87 1.54458 144.87 8.24202V8.24202L118.923 8.24202V-3.88477Z" fill="white"/>
<rect width="144" height="15" transform="translate(0.870117 8.24194)" fill="white"/>
<path d="M42.2759 14.6106C43.0571 14.6106 43.712 14.8826 44.2405 15.4267C44.769 15.9708 45.0333 16.6548 45.0333 17.4787C45.0333 18.3026 44.769 18.9886 44.2405 19.5366C43.712 20.0807 43.0571 20.3527 42.2759 20.3527C41.417 20.3527 40.7466 20.0437 40.2647 19.4258V20.2419H39.3903V11.8474H40.2647V15.5375C40.7466 14.9195 41.417 14.6106 42.2759 14.6106ZM42.171 15.4267C41.5997 15.4267 41.1294 15.623 40.7602 16.0155C40.391 16.4041 40.2064 16.8919 40.2064 17.4787C40.2064 18.0695 40.391 18.5611 40.7602 18.9536C41.1294 19.3422 41.5997 19.5366 42.171 19.5366C42.754 19.5366 43.2281 19.3403 43.5934 18.9478C43.9587 18.5514 44.1414 18.0617 44.1414 17.4787C44.1414 16.8997 43.9568 16.4139 43.5876 16.0213C43.2184 15.6249 42.7462 15.4267 42.171 15.4267ZM48.9747 14.6106C49.7247 14.6106 50.3427 14.8768 50.8285 15.4092C51.3182 15.9417 51.5649 16.6257 51.5688 17.4612C51.5688 17.5817 51.563 17.6905 51.5513 17.7877H47.1267C47.185 18.3629 47.3948 18.8079 47.7563 19.1227C48.1177 19.4336 48.5588 19.589 49.0796 19.589C49.7403 19.589 50.3232 19.3578 50.8285 18.8953L51.2948 19.4899C50.6924 20.0651 49.9365 20.3527 49.0271 20.3527C48.2071 20.3527 47.5367 20.0884 47.0159 19.5599C46.4951 19.0274 46.2348 18.3357 46.2348 17.4846C46.2348 16.6451 46.4932 15.9572 47.0101 15.4209C47.527 14.8807 48.1818 14.6106 48.9747 14.6106ZM48.9572 15.3859C48.4597 15.3859 48.0497 15.5414 47.7271 15.8523C47.4046 16.1632 47.2083 16.5732 47.1383 17.0823H50.6827C50.6283 16.5654 50.4437 16.1535 50.1289 15.8464C49.818 15.5394 49.4274 15.3859 48.9572 15.3859ZM56.8815 14.7213V15.5083H54.4972V18.2949C54.4972 18.7107 54.5963 19.0216 54.7945 19.2276C54.9927 19.4336 55.2589 19.5366 55.5931 19.5366C56.009 19.5366 56.3957 19.4064 56.7532 19.146L57.1613 19.8047C56.6794 20.17 56.1334 20.3527 55.5232 20.3527C54.9169 20.3527 54.4486 20.1836 54.1183 19.8455C53.7918 19.5035 53.6286 18.9925 53.6286 18.3124V15.5083L52.4219 15.5083V14.7213L53.6286 14.7213V12.9666H54.4972V14.7213H56.8815ZM63.6166 14.7213V20.2419H62.748V19.42C62.2661 20.0418 61.5938 20.3527 60.731 20.3527C59.9498 20.3527 59.295 20.0807 58.7664 19.5366C58.2379 18.9886 57.9736 18.3026 57.9736 17.4787C57.9736 16.6548 58.2379 15.9708 58.7664 15.4267C59.295 14.8826 59.9498 14.6106 60.731 14.6106C61.5899 14.6106 62.2622 14.9215 62.748 15.5433V14.7213H63.6166ZM60.8359 15.4267C60.253 15.4267 59.7769 15.6249 59.4077 16.0213C59.0424 16.4139 58.8597 16.8997 58.8597 17.4787C58.8597 18.0578 59.0443 18.5455 59.4135 18.9419C59.7827 19.3384 60.2569 19.5366 60.8359 19.5366C61.4072 19.5366 61.8775 19.3422 62.2467 18.9536C62.6159 18.5611 62.8005 18.0695 62.8005 17.4787C62.8005 16.8919 62.6159 16.4041 62.2467 16.0155C61.8775 15.623 61.4072 15.4267 60.8359 15.4267ZM68.7006 16.7617V17.5545L65.4593 17.5545V16.7617L68.7006 16.7617ZM73.7833 16.9599H71.638V20.2419H70.6995V12.0805H73.7833C74.6966 12.0805 75.4059 12.2962 75.9111 12.7276C76.4164 13.159 76.669 13.7575 76.669 14.5231C76.669 15.2887 76.4164 15.8873 75.9111 16.3186C75.4059 16.7461 74.6966 16.9599 73.7833 16.9599ZM73.7542 12.9666H71.638V16.0796H73.7542C74.3877 16.0796 74.8696 15.9494 75.1999 15.689C75.5303 15.4287 75.6954 15.04 75.6954 14.5231C75.6954 14.0062 75.5303 13.6176 75.1999 13.3572C74.8696 13.0968 74.3877 12.9666 73.7542 12.9666ZM79.1589 14.7213V20.2419H78.2845V14.7213H79.1589ZM78.7217 12.1447C78.8927 12.1447 79.0385 12.2049 79.1589 12.3254C79.2794 12.442 79.3396 12.5877 79.3396 12.7626C79.3396 12.9375 79.2794 13.0832 79.1589 13.1998C79.0423 13.3164 78.8966 13.3747 78.7217 13.3747C78.5468 13.3747 78.4011 13.3164 78.2845 13.1998C78.1679 13.0832 78.1096 12.9375 78.1096 12.7626C78.1096 12.5877 78.1679 12.442 78.2845 12.3254C78.4011 12.2049 78.5468 12.1447 78.7217 12.1447ZM83.9217 14.6106C84.6057 14.6106 85.1595 14.8127 85.5831 15.2168C86.0106 15.621 86.2244 16.1554 86.2244 16.82V20.2419H85.3558V17.1056C85.3558 16.581 85.2159 16.1729 84.936 15.8814C84.6601 15.5861 84.2695 15.4384 83.7643 15.4384C83.2863 15.4384 82.884 15.5938 82.5576 15.9047C82.235 16.2118 82.0737 16.6198 82.0737 17.1289V20.2419H81.1993V14.7213H82.0621V15.5083C82.2719 15.1974 82.542 14.9701 82.8724 14.8263C83.2027 14.6825 83.5525 14.6106 83.9217 14.6106ZM90.5218 14.6106C91.2718 14.6106 91.8898 14.8768 92.3756 15.4092C92.8653 15.9417 93.112 16.6257 93.1159 17.4612C93.1159 17.5817 93.1101 17.6905 93.0984 17.7877H88.6738C88.7321 18.3629 88.942 18.8079 89.3034 19.1227C89.6648 19.4336 90.1059 19.589 90.6267 19.589C91.2874 19.589 91.8703 19.3578 92.3756 18.8953L92.8419 19.4899C92.2396 20.0651 91.4837 20.3527 90.5742 20.3527C89.7542 20.3527 89.0838 20.0884 88.563 19.5599C88.0423 19.0274 87.7819 18.3357 87.7819 17.4846C87.7819 16.6451 88.0403 15.9572 88.5572 15.4209C89.0741 14.8807 89.729 14.6106 90.5218 14.6106ZM90.5043 15.3859C90.0068 15.3859 89.5968 15.5414 89.2742 15.8523C88.9517 16.1632 88.7554 16.5732 88.6855 17.0823H92.2298C92.1754 16.5654 91.9908 16.1535 91.676 15.8464C91.3651 15.5394 90.9745 15.3859 90.5043 15.3859ZM97.4595 14.6106C98.1435 14.6106 98.6973 14.8127 99.1209 15.2168C99.5484 15.621 99.7622 16.1554 99.7622 16.82V20.2419H98.8936V17.1056C98.8936 16.581 98.7537 16.1729 98.4739 15.8814C98.1979 15.5861 97.8073 15.4384 97.3021 15.4384C96.8241 15.4384 96.4218 15.5938 96.0954 15.9047C95.7728 16.2118 95.6115 16.6198 95.6115 17.1289V20.2419H94.7371V14.7213H95.5999V15.5083C95.8097 15.1974 96.0798 14.9701 96.4102 14.8263C96.7405 14.6825 97.0903 14.6106 97.4595 14.6106ZM104.06 14.6106C104.81 14.6106 105.428 14.8768 105.913 15.4092C106.403 15.9417 106.65 16.6257 106.654 17.4612C106.654 17.5817 106.648 17.6905 106.636 17.7877H102.212C102.27 18.3629 102.48 18.8079 102.841 19.1227C103.203 19.4336 103.644 19.589 104.165 19.589C104.825 19.589 105.408 19.3578 105.913 18.8953L106.38 19.4899C105.777 20.0651 105.021 20.3527 104.112 20.3527C103.292 20.3527 102.622 20.0884 102.101 19.5599C101.58 19.0274 101.32 18.3357 101.32 17.4846C101.32 16.6451 101.578 15.9572 102.095 15.4209C102.612 14.8807 103.267 14.6106 104.06 14.6106ZM104.042 15.3859C103.545 15.3859 103.135 15.5414 102.812 15.8523C102.489 16.1632 102.293 16.5732 102.223 17.0823H105.768C105.713 16.5654 105.529 16.1535 105.214 15.8464C104.903 15.5394 104.512 15.3859 104.042 15.3859Z" fill="#231F20"/>
<g clip-path="url(#clip1_214_15177)">
<path d="M120.964 23.2419L24.7764 23.2419V78.6229H120.964V23.2419Z" fill="white"/>
<path d="M99.0067 52.1955L80.8379 52.0984" stroke="#231F20" stroke-width="0.971596"/>
<path d="M99.1039 49.7663L80.8379 49.6692" stroke="#231F20" stroke-width="0.971596"/>
<path d="M64.9037 63.466L64.0293 50.8352" stroke="#231F20" stroke-width="0.971596"/>
<path d="M74.6197 58.025L64.0293 50.8352" stroke="#231F20" stroke-width="0.971596"/>
<path d="M72.7739 65.9922L55.2852 65.895" stroke="#231F20" stroke-width="0.971596"/>
<path d="M72.7734 65.9921L81.5178 50.9324" stroke="#231F20" stroke-width="0.971596"/>
<path d="M55.2844 65.8949L46.54 50.6409" stroke="#231F20" stroke-width="0.971596"/>
<path d="M55.3816 35.5811L46.54 50.6408" stroke="#231F20" stroke-width="0.971596"/>
<path d="M55.3818 35.5811L72.8706 35.6782" stroke="#231F20" stroke-width="0.971596"/>
<path d="M81.5173 50.9325L72.8701 35.6785" stroke="#231F20" stroke-width="0.971596"/>
<path d="M46.54 50.6409L64.0288 50.8352" stroke="#231F20" stroke-width="0.971596"/>
<path d="M72.8708 35.6785L64.0293 50.8354" stroke="#231F20" stroke-width="0.971596"/>
<path d="M71.8984 65.9921H72.7729L73.1615 65.2148" stroke="#231F20" stroke-width="0.971596"/>
<path d="M56.1591 65.8952H55.2846L54.7988 65.1179" stroke="#231F20" stroke-width="0.971596"/>
<path d="M54.9922 36.3583L55.3808 35.5811H56.2553" stroke="#231F20" stroke-width="0.971596"/>
<path d="M81.1289 51.6124L81.5175 50.9323L81.1289 50.155" stroke="#231F20" stroke-width="0.971596"/>
</g>
<path d="M0.870117 78.623H26.8169V90.7486H12.9956C6.2989 90.7486 0.870117 85.3198 0.870117 78.623V78.623Z" fill="white"/>
<rect x="26.8174" y="78.623" width="92.1064" height="12.1255" fill="white"/>
<path d="M118.923 78.623H144.87V78.623C144.87 85.3198 139.441 90.7486 132.744 90.7486H118.923V78.623Z" fill="white"/>
</g>
<rect x="1.61989" y="1.18165" width="142.5" height="84.5005" rx="3.13661" stroke="white" stroke-width="1.49954"/>
<defs>
<clipPath id="clip0_214_15177">
<rect x="0.870117" y="0.431885" width="144" height="86" rx="3.88638" fill="white"/>
</clipPath>
<clipPath id="clip1_214_15177">
<rect width="96.188" height="55.381" fill="white" transform="translate(24.7764 23.2419)"/>
</clipPath>
</defs>
</svg>
