<svg width="144" height="88" viewBox="0 0 144 88" fill="none" xmlns="http://www.w3.org/2000/svg">
<g clip-path="url(#clip0_214_14445)">
<rect x="0.557617" y="0.431885" width="143" height="87" rx="3.88638" fill="white"/>
<path d="M0.557617 8.74202C0.557617 2.04458 5.98696 -3.38477 12.6844 -3.38477L26.5044 -3.38477V8.74202L0.557617 8.74202V8.74202Z" fill="white"/>
<rect x="26.5049" y="-3.38477" width="91.1064" height="12.1268" fill="white"/>
<path d="M117.61 -3.38477L131.43 -3.38477C138.128 -3.38477 143.557 2.04458 143.557 8.74202V8.74202L117.61 8.74202V-3.38477Z" fill="white"/>
<rect width="143" height="15" transform="translate(0.557617 8.74207)" fill="white"/>
<path d="M25.3921 15.1107C26.2471 15.1107 26.9039 15.4235 27.3625 16.0493V15.2215H28.237V20.3631C28.237 21.2454 27.9688 21.9313 27.4325 22.421C26.8962 22.9146 26.1908 23.1613 25.3164 23.1613C24.8733 23.1613 24.4439 23.0953 24.028 22.9631C23.6161 22.8349 23.2702 22.6542 22.9903 22.421L23.3751 21.7214C23.9464 22.1528 24.5935 22.3685 25.3164 22.3685C25.9304 22.3685 26.424 22.1975 26.7971 21.8555C27.174 21.5135 27.3625 21.0277 27.3625 20.3981V19.8327C26.9078 20.4584 26.251 20.7712 25.3921 20.7712C24.611 20.7712 23.96 20.5069 23.4392 19.9784C22.9185 19.446 22.6581 18.7658 22.6581 17.938C22.6581 17.1102 22.9185 16.4321 23.4392 15.9035C23.96 15.375 24.611 15.1107 25.3921 15.1107ZM25.4912 15.9268C24.9161 15.9268 24.4477 16.1212 24.0863 16.5098C23.7249 16.8945 23.5442 17.3706 23.5442 17.938C23.5442 18.5093 23.7249 18.9893 24.0863 19.3779C24.4477 19.7627 24.9161 19.9551 25.4912 19.9551C26.0548 19.9551 26.5192 19.7646 26.8845 19.3838C27.2537 18.999 27.4383 18.5171 27.4383 17.938C27.4383 17.3667 27.2537 16.8887 26.8845 16.504C26.5192 16.1192 26.0548 15.9268 25.4912 15.9268ZM35.497 15.2215V20.7421H34.6284V19.9201C34.1465 20.5419 33.4741 20.8528 32.6113 20.8528C31.8302 20.8528 31.1753 20.5808 30.6468 20.0367C30.1182 19.4887 29.8539 18.8028 29.8539 17.9788C29.8539 17.1549 30.1182 16.4709 30.6468 15.9268C31.1753 15.3827 31.8302 15.1107 32.6113 15.1107C33.4702 15.1107 34.1426 15.4216 34.6284 16.0434V15.2215H35.497ZM32.7163 15.9268C32.1333 15.9268 31.6572 16.125 31.288 16.5215C30.9227 16.914 30.74 17.3998 30.74 17.9788C30.74 18.5579 30.9246 19.0457 31.2939 19.4421C31.6631 19.8385 32.1372 20.0367 32.7163 20.0367C33.2876 20.0367 33.7578 19.8424 34.127 19.4537C34.4962 19.0612 34.6808 18.5696 34.6808 17.9788C34.6808 17.392 34.4962 16.9043 34.127 16.5156C33.7578 16.1231 33.2876 15.9268 32.7163 15.9268ZM44.4109 15.1107C45.0988 15.1107 45.6546 15.3128 46.0782 15.717C46.5057 16.1212 46.7195 16.6555 46.7195 17.3201V20.7421H45.8508V17.6058C45.8508 17.0811 45.7109 16.673 45.4311 16.3815C45.1513 16.0862 44.7588 15.9385 44.2535 15.9385C43.7755 15.9385 43.3733 16.094 43.0468 16.4049C42.7243 16.7119 42.563 17.12 42.563 17.6291V20.7421H41.6944V17.6058C41.6944 17.0811 41.5545 16.673 41.2746 16.3815C40.9987 16.0862 40.6081 15.9385 40.1029 15.9385C39.6249 15.9385 39.2226 16.094 38.8962 16.4049C38.5736 16.7119 38.4123 17.12 38.4123 17.6291V20.7421H37.5379V15.2215H38.4007V16.0084C38.6105 15.6975 38.8806 15.4702 39.211 15.3264C39.5413 15.1826 39.8911 15.1107 40.2603 15.1107C40.7383 15.1107 41.158 15.2137 41.5195 15.4197C41.8809 15.6218 42.151 15.9055 42.3298 16.2708C42.5358 15.8705 42.8253 15.5771 43.1984 15.3905C43.5754 15.204 43.9796 15.1107 44.4109 15.1107ZM55.5691 15.1107C56.257 15.1107 56.8128 15.3128 57.2364 15.717C57.6639 16.1212 57.8776 16.6555 57.8776 17.3201V20.7421H57.009V17.6058C57.009 17.0811 56.8691 16.673 56.5893 16.3815C56.3095 16.0862 55.9169 15.9385 55.4117 15.9385C54.9337 15.9385 54.5315 16.094 54.205 16.4049C53.8824 16.7119 53.7211 17.12 53.7211 17.6291V20.7421H52.8525V17.6058C52.8525 17.0811 52.7126 16.673 52.4328 16.3815C52.1569 16.0862 51.7663 15.9385 51.2611 15.9385C50.783 15.9385 50.3808 16.094 50.0543 16.4049C49.7318 16.7119 49.5705 17.12 49.5705 17.6291V20.7421H48.696V15.2215H49.5588V16.0084C49.7687 15.6975 50.0388 15.4702 50.3691 15.3264C50.6995 15.1826 51.0493 15.1107 51.4185 15.1107C51.8965 15.1107 52.3162 15.2137 52.6776 15.4197C53.0391 15.6218 53.3092 15.9055 53.488 16.2708C53.6939 15.8705 53.9835 15.5771 54.3566 15.3905C54.7335 15.204 55.1377 15.1107 55.5691 15.1107ZM65.0775 15.2215V20.7421H64.2089V19.9201C63.727 20.5419 63.0547 20.8528 62.1919 20.8528C61.4107 20.8528 60.7559 20.5808 60.2273 20.0367C59.6988 19.4887 59.4345 18.8028 59.4345 17.9788C59.4345 17.1549 59.6988 16.4709 60.2273 15.9268C60.7559 15.3827 61.4107 15.1107 62.1919 15.1107C63.0508 15.1107 63.7231 15.4216 64.2089 16.0434V15.2215H65.0775ZM62.2968 15.9268C61.7139 15.9268 61.2378 16.125 60.8686 16.5215C60.5032 16.914 60.3206 17.3998 60.3206 17.9788C60.3206 18.5579 60.5052 19.0457 60.8744 19.4421C61.2436 19.8385 61.7177 20.0367 62.2968 20.0367C62.8681 20.0367 63.3384 19.8424 63.7076 19.4537C64.0768 19.0612 64.2614 18.5696 64.2614 17.9788C64.2614 17.392 64.0768 16.9043 63.7076 16.5156C63.3384 16.1231 62.8681 15.9268 62.2968 15.9268ZM70.1615 17.2618V18.0546H66.9202V17.2618H70.1615ZM77.0066 12.5807V13.4668L74.1735 13.4668V20.7421H73.2407V13.4668H70.4076V12.5807L77.0066 12.5807ZM79.6176 15.1107C80.3676 15.1107 80.9856 15.3769 81.4714 15.9093C81.9611 16.4418 82.2078 17.1258 82.2117 17.9614C82.2117 18.0818 82.2059 18.1907 82.1942 18.2878H77.7696C77.8279 18.863 78.0378 19.308 78.3992 19.6228C78.7606 19.9337 79.2017 20.0892 79.7225 20.0892C80.3832 20.0892 80.9661 19.8579 81.4714 19.3954L81.9377 19.9901C81.3354 20.5652 80.5795 20.8528 79.67 20.8528C78.85 20.8528 78.1796 20.5886 77.6588 20.06C77.1381 19.5276 76.8777 18.8358 76.8777 17.9847C76.8777 17.1452 77.1361 16.4573 77.653 15.921C78.1699 15.3808 78.8248 15.1107 79.6176 15.1107ZM79.6001 15.886C79.1026 15.886 78.6926 16.0415 78.37 16.3524C78.0475 16.6633 77.8512 17.0733 77.7813 17.5824H81.3256C81.2712 17.0655 81.0866 16.6536 80.7718 16.3466C80.4609 16.0395 80.0703 15.886 79.6001 15.886ZM86.3338 15.1107C86.738 15.1107 87.0761 15.1729 87.3481 15.2972L87.1383 16.1542C86.8662 16.0065 86.5475 15.9327 86.1822 15.9327C85.7469 15.9327 85.3913 16.0901 85.1154 16.4049C84.8395 16.7197 84.7015 17.1355 84.7015 17.6524V20.7421H83.8329V15.2215H84.6957V15.9968C84.8861 15.7131 85.1212 15.4954 85.4011 15.3439C85.6848 15.1884 85.9957 15.1107 86.3338 15.1107ZM91.5575 15.1107C92.3387 15.1107 92.9936 15.3827 93.5221 15.9268C94.0507 16.4709 94.3149 17.1549 94.3149 17.9788C94.3149 18.8028 94.0507 19.4887 93.5221 20.0367C92.9936 20.5808 92.3387 20.8528 91.5575 20.8528C90.6987 20.8528 90.0282 20.5439 89.5463 19.9259V23.0739H88.6719V15.2215H89.5463V16.0376C90.0282 15.4197 90.6987 15.1107 91.5575 15.1107ZM91.4526 15.9268C90.8813 15.9268 90.4111 16.1231 90.0419 16.5156C89.6726 16.9043 89.488 17.392 89.488 17.9788C89.488 18.5696 89.6726 19.0612 90.0419 19.4537C90.4111 19.8424 90.8813 20.0367 91.4526 20.0367C92.0356 20.0367 92.5097 19.8404 92.875 19.4479C93.2403 19.0515 93.423 18.5618 93.423 17.9788C93.423 17.3998 93.2384 16.914 92.8692 16.5215C92.5 16.125 92.0278 15.9268 91.4526 15.9268ZM96.8105 15.2215V20.7421H95.9361V15.2215H96.8105ZM96.3733 12.6448C96.5443 12.6448 96.6901 12.705 96.8105 12.8255C96.931 12.9421 96.9913 13.0878 96.9913 13.2627C96.9913 13.4376 96.931 13.5833 96.8105 13.6999C96.6939 13.8165 96.5482 13.8748 96.3733 13.8748C96.1984 13.8748 96.0527 13.8165 95.9361 13.6999C95.8195 13.5833 95.7612 13.4376 95.7612 13.2627C95.7612 13.0878 95.8195 12.9421 95.9361 12.8255C96.0527 12.705 96.1984 12.6448 96.3733 12.6448ZM101.573 15.1107C102.257 15.1107 102.811 15.3128 103.235 15.717C103.662 16.1212 103.876 16.6555 103.876 17.3201V20.7421H103.007V17.6058C103.007 17.0811 102.867 16.673 102.588 16.3815C102.312 16.0862 101.921 15.9385 101.416 15.9385C100.938 15.9385 100.536 16.094 100.209 16.4049C99.8866 16.7119 99.7253 17.12 99.7253 17.6291V20.7421H98.8509V15.2215H99.7137V16.0084C99.9235 15.6975 100.194 15.4702 100.524 15.3264C100.854 15.1826 101.204 15.1107 101.573 15.1107ZM106.728 15.2215V20.7421H105.853V15.2215H106.728ZM106.29 12.6448C106.461 12.6448 106.607 12.705 106.728 12.8255C106.848 12.9421 106.908 13.0878 106.908 13.2627C106.908 13.4376 106.848 13.5833 106.728 13.6999C106.611 13.8165 106.465 13.8748 106.29 13.8748C106.116 13.8748 105.97 13.8165 105.853 13.6999C105.737 13.5833 105.678 13.4376 105.678 13.2627C105.678 13.0878 105.737 12.9421 105.853 12.8255C105.97 12.705 106.116 12.6448 106.29 12.6448ZM111.49 15.1107C112.174 15.1107 112.728 15.3128 113.152 15.717C113.579 16.1212 113.793 16.6555 113.793 17.3201V20.7421H112.924V17.6058C112.924 17.0811 112.785 16.673 112.505 16.3815C112.229 16.0862 111.838 15.9385 111.333 15.9385C110.855 15.9385 110.453 16.094 110.126 16.4049C109.804 16.7119 109.642 17.12 109.642 17.6291V20.7421H108.768V15.2215H109.631V16.0084C109.841 15.6975 110.111 15.4702 110.441 15.3264C110.771 15.1826 111.121 15.1107 111.49 15.1107ZM118.09 15.1107C118.841 15.1107 119.458 15.3769 119.944 15.9093C120.434 16.4418 120.681 17.1258 120.685 17.9614C120.685 18.0818 120.679 18.1907 120.667 18.2878H116.243C116.301 18.863 116.511 19.308 116.872 19.6228C117.234 19.9337 117.675 20.0892 118.195 20.0892C118.856 20.0892 119.439 19.8579 119.944 19.3954L120.411 19.9901C119.808 20.5652 119.052 20.8528 118.143 20.8528C117.323 20.8528 116.653 20.5886 116.132 20.06C115.611 19.5276 115.351 18.8358 115.351 17.9847C115.351 17.1452 115.609 16.4573 116.126 15.921C116.643 15.3808 117.298 15.1107 118.09 15.1107ZM118.073 15.886C117.576 15.886 117.166 16.0415 116.843 16.3524C116.52 16.6633 116.324 17.0733 116.254 17.5824H119.799C119.744 17.0655 119.56 16.6536 119.245 16.3466C118.934 16.0395 118.543 15.886 118.073 15.886Z" fill="#231F20"/>
<g clip-path="url(#clip1_214_14445)">
<path d="M143.955 23.7421L0.15918 23.7421V79.123H143.955V23.7421Z" fill="white"/>
<path d="M32.6113 36.1786L41.3557 51.3355" stroke="#231F20" stroke-width="0.971596"/>
<path d="M32.6113 66.3952L41.3557 51.3354" stroke="#231F20" stroke-width="0.971596"/>
<path d="M111.31 51.2383H93.8213" stroke="#231F20" stroke-width="0.971596"/>
<path d="M85.0766 66.3951H67.5879" stroke="#231F20" stroke-width="0.971596"/>
<path d="M85.0771 66.3952L93.8215 51.2383" stroke="#231F20" stroke-width="0.971596"/>
<path d="M83.5215 63.7719L90.8085 51.2383" stroke="#231F20" stroke-width="0.971596"/>
<path d="M85.0766 36.1786H67.5879" stroke="#231F20" stroke-width="0.971596"/>
<path d="M85.0771 36.1786L93.8215 51.2383" stroke="#231F20" stroke-width="0.971596"/>
<path d="M67.5881 66.3952L58.8438 51.3354" stroke="#231F20" stroke-width="0.971596"/>
<path d="M67.5881 36.1786L58.8438 51.3355" stroke="#231F20" stroke-width="0.971596"/>
<path d="M69.1424 38.8018L61.8555 51.3353" stroke="#231F20" stroke-width="0.971596"/>
<path d="M41.3555 51.3354H58.8442" stroke="#231F20" stroke-width="0.971596"/>
<path d="M84.2021 66.3951H85.0766L85.4652 65.715" stroke="#231F20" stroke-width="0.971596"/>
<path d="M84.2021 36.1786H85.0766L85.4652 36.8587" stroke="#231F20" stroke-width="0.971596"/>
<path d="M68.4628 66.3951H67.5883L67.1025 65.715" stroke="#231F20" stroke-width="0.971596"/>
<path d="M68.4628 36.1786H67.5883L67.1025 36.8587" stroke="#231F20" stroke-width="0.971596"/>
</g>
<path d="M0.557617 79.123H26.5044V91.2486H12.6831C5.9864 91.2486 0.557617 85.8198 0.557617 79.123V79.123Z" fill="white"/>
<rect x="26.5049" y="79.123" width="91.1064" height="12.1255" fill="white"/>
<path d="M117.61 79.123H143.557V79.123C143.557 85.8198 138.128 91.2486 131.432 91.2486H117.61V79.123Z" fill="white"/>
</g>
<rect x="1.30739" y="1.18165" width="141.5" height="85.5005" rx="3.13661" stroke="white" stroke-width="1.49954"/>
<defs>
<clipPath id="clip0_214_14445">
<rect x="0.557617" y="0.431885" width="143" height="87" rx="3.88638" fill="white"/>
</clipPath>
<clipPath id="clip1_214_14445">
<rect width="143.796" height="55.381" fill="white" transform="translate(0.15918 23.7421)"/>
</clipPath>
</defs>
</svg>
