<svg width="145" height="87" viewBox="0 0 145 87" fill="none" xmlns="http://www.w3.org/2000/svg">
<g clip-path="url(#clip0_214_15189)">
<rect x="0.557617" y="0.431885" width="144" height="86" rx="3.88638" fill="white"/>
<path d="M0.557617 8.24202C0.557617 1.54458 5.98696 -3.88477 12.6844 -3.88477H26.5044V8.24202H0.557617V8.24202Z" fill="white"/>
<rect x="26.5049" y="-3.88477" width="92.1064" height="12.1268" fill="white"/>
<path d="M118.61 -3.88477H132.43C139.128 -3.88477 144.557 1.54458 144.557 8.24202V8.24202H118.61V-3.88477Z" fill="white"/>
<rect width="144" height="15" transform="translate(0.557617 8.24194)" fill="white"/>
<path d="M46.9634 14.6106C47.7446 14.6106 48.3995 14.8826 48.928 15.4267C49.4565 15.9708 49.7208 16.6548 49.7208 17.4787C49.7208 18.3026 49.4565 18.9886 48.928 19.5366C48.3995 20.0807 47.7446 20.3527 46.9634 20.3527C46.1045 20.3527 45.4341 20.0437 44.9522 19.4258V22.5738H44.0778V14.7213H44.9522V15.5375C45.4341 14.9195 46.1045 14.6106 46.9634 14.6106ZM46.8585 15.4267C46.2872 15.4267 45.8169 15.623 45.4477 16.0155C45.0785 16.4041 44.8939 16.8919 44.8939 17.4787C44.8939 18.0695 45.0785 18.5611 45.4477 18.9536C45.8169 19.3422 46.2872 19.5366 46.8585 19.5366C47.4415 19.5366 47.9156 19.3403 48.2809 18.9478C48.6462 18.5514 48.8289 18.0617 48.8289 17.4787C48.8289 16.8997 48.6443 16.4139 48.2751 16.0213C47.9059 15.6249 47.4337 15.4267 46.8585 15.4267ZM54.385 16.7617V17.5545H51.1438V16.7617H54.385ZM60.1265 11.9639C60.8377 11.9639 61.4906 12.1155 62.0853 12.4187C62.6799 12.7179 63.1365 13.1299 63.4552 13.6545L62.674 14.1792C62.402 13.7711 62.0425 13.4505 61.5956 13.2173C61.1486 12.9841 60.659 12.8675 60.1265 12.8675C59.6718 12.8675 59.2463 12.9491 58.8498 13.1124C58.4534 13.2717 58.1114 13.4932 57.8238 13.7769C57.5362 14.0606 57.3089 14.4085 57.1418 14.8204C56.9786 15.2324 56.8969 15.6793 56.8969 16.1612C56.8969 16.6432 56.9786 17.0901 57.1418 17.502C57.3089 17.914 57.5362 18.2618 57.8238 18.5455C58.1114 18.8292 58.4534 19.0527 58.8498 19.2159C59.2463 19.3753 59.6718 19.455 60.1265 19.455C60.6628 19.455 61.1525 19.3403 61.5956 19.111C62.0386 18.8817 62.3981 18.5611 62.674 18.1491L63.4319 18.7088C63.0899 19.2218 62.6274 19.626 62.0445 19.9213C61.4654 20.2128 60.8261 20.3585 60.1265 20.3585C59.528 20.3585 58.9684 20.2536 58.4476 20.0437C57.9268 19.8339 57.4799 19.5463 57.1068 19.181C56.7376 18.8118 56.4461 18.3668 56.2324 17.846C56.0186 17.3252 55.9117 16.7636 55.9117 16.1612C55.9117 15.5589 56.0186 14.9973 56.2324 14.4765C56.4461 13.9557 56.7376 13.5127 57.1068 13.1473C57.4799 12.7781 57.9268 12.4886 58.4476 12.2787C58.9684 12.0689 59.528 11.9639 60.1265 11.9639ZM70.1215 14.7213L65.6269 22.5971H64.665L66.7229 19.0469L64.187 14.7213H65.1605L67.2184 18.1841L69.1655 14.7213H70.1215ZM78.1062 14.6106C78.7941 14.6106 79.3499 14.8127 79.7735 15.2168C80.201 15.621 80.4147 16.1554 80.4147 16.82V20.2419H79.5461V17.1056C79.5461 16.581 79.4062 16.1729 79.1264 15.8814C78.8466 15.5861 78.454 15.4384 77.9488 15.4384C77.4708 15.4384 77.0685 15.5938 76.7421 15.9047C76.4195 16.2118 76.2582 16.6198 76.2582 17.1289V20.2419H75.3896V17.1056C75.3896 16.581 75.2497 16.1729 74.9699 15.8814C74.694 15.5861 74.3034 15.4384 73.7982 15.4384C73.3201 15.4384 72.9179 15.5938 72.5914 15.9047C72.2689 16.2118 72.1076 16.6198 72.1076 17.1289V20.2419H71.2331V14.7213H72.0959V15.5083C72.3058 15.1974 72.5759 14.9701 72.9062 14.8263C73.2366 14.6825 73.5863 14.6106 73.9556 14.6106C74.4336 14.6106 74.8533 14.7136 75.2147 14.9195C75.5762 15.1216 75.8463 15.4053 76.0251 15.7707C76.231 15.3704 76.5206 15.0769 76.8937 14.8904C77.2706 14.7038 77.6748 14.6106 78.1062 14.6106ZM84.7115 14.6106C85.4616 14.6106 86.0795 14.8768 86.5653 15.4092C87.055 15.9417 87.3018 16.6257 87.3056 17.4612C87.3056 17.5817 87.2998 17.6905 87.2882 17.7877H82.8635C82.9218 18.3629 83.1317 18.8079 83.4931 19.1227C83.8545 19.4336 84.2956 19.589 84.8164 19.589C85.4771 19.589 86.0601 19.3578 86.5653 18.8953L87.0317 19.4899C86.4293 20.0651 85.6734 20.3527 84.7639 20.3527C83.9439 20.3527 83.2735 20.0884 82.7527 19.5599C82.232 19.0274 81.9716 18.3357 81.9716 17.4846C81.9716 16.6451 82.23 15.9572 82.7469 15.4209C83.2638 14.8807 83.9187 14.6106 84.7115 14.6106ZM84.694 15.3859C84.1965 15.3859 83.7865 15.5414 83.464 15.8523C83.1414 16.1632 82.9451 16.5732 82.8752 17.0823H86.4195C86.3651 16.5654 86.1805 16.1535 85.8657 15.8464C85.5548 15.5394 85.1642 15.3859 84.694 15.3859ZM91.6492 14.6106C92.3332 14.6106 92.887 14.8127 93.3107 15.2168C93.7382 15.621 93.9519 16.1554 93.9519 16.82V20.2419H93.0833V17.1056C93.0833 16.581 92.9434 16.1729 92.6636 15.8814C92.3876 15.5861 91.9971 15.4384 91.4918 15.4384C91.0138 15.4384 90.6116 15.5938 90.2851 15.9047C89.9625 16.2118 89.8012 16.6198 89.8012 17.1289V20.2419H88.9268V14.7213H89.7896V15.5083C89.9995 15.1974 90.2696 14.9701 90.5999 14.8263C90.9302 14.6825 91.28 14.6106 91.6492 14.6106ZM98.2493 14.6106C98.9994 14.6106 99.6173 14.8768 100.103 15.4092C100.593 15.9417 100.84 16.6257 100.843 17.4612C100.843 17.5817 100.838 17.6905 100.826 17.7877H96.4013C96.4596 18.3629 96.6695 18.8079 97.0309 19.1227C97.3924 19.4336 97.8335 19.589 98.3542 19.589C99.0149 19.589 99.5979 19.3578 100.103 18.8953L100.569 19.4899C99.9671 20.0651 99.2112 20.3527 98.3018 20.3527C97.4817 20.3527 96.8113 20.0884 96.2906 19.5599C95.7698 19.0274 95.5094 18.3357 95.5094 17.4846C95.5094 16.6451 95.7678 15.9572 96.2847 15.4209C96.8016 14.8807 97.4565 14.6106 98.2493 14.6106ZM98.2318 15.3859C97.7344 15.3859 97.3243 15.5414 97.0018 15.8523C96.6792 16.1632 96.4829 16.5732 96.413 17.0823H99.9574C99.903 16.5654 99.7184 16.1535 99.4036 15.8464C99.0927 15.5394 98.7021 15.3859 98.2318 15.3859Z" fill="#231F20"/>
<g clip-path="url(#clip1_214_15189)">
<path d="M144.455 23.2419L0.65918 23.2419V78.6229H144.455V23.2419Z" fill="white"/>
<path d="M33.1113 35.6785L41.8557 50.8354" stroke="#231F20" stroke-width="0.971596"/>
<path d="M33.1113 65.8949L41.8557 50.8352" stroke="#231F20" stroke-width="0.971596"/>
<path d="M111.81 50.738H94.3213" stroke="#231F20" stroke-width="0.971596"/>
<path d="M85.5766 65.895H68.0879" stroke="#231F20" stroke-width="0.971596"/>
<path d="M84.0222 63.2717H69.6426" stroke="#231F20" stroke-width="0.971596"/>
<path d="M85.5771 65.8949L94.3215 50.738" stroke="#231F20" stroke-width="0.971596"/>
<path d="M85.5766 35.6785H68.0879" stroke="#231F20" stroke-width="0.971596"/>
<path d="M85.5771 35.6785L94.3215 50.7382" stroke="#231F20" stroke-width="0.971596"/>
<path d="M84.0215 38.3018L91.3085 50.7382" stroke="#231F20" stroke-width="0.971596"/>
<path d="M68.0881 65.8949L59.3438 50.8352" stroke="#231F20" stroke-width="0.971596"/>
<path d="M68.0881 35.6785L59.3438 50.8354" stroke="#231F20" stroke-width="0.971596"/>
<path d="M69.6424 38.3018L62.3555 50.8353" stroke="#231F20" stroke-width="0.971596"/>
<path d="M41.8555 50.8352H59.3442" stroke="#231F20" stroke-width="0.971596"/>
<path d="M84.7021 65.895H85.5766L85.9652 65.2148" stroke="#231F20" stroke-width="0.971596"/>
<path d="M84.7021 35.6785H85.5766L85.9652 36.3586" stroke="#231F20" stroke-width="0.971596"/>
<path d="M68.9628 65.895H68.0883L67.6025 65.2148" stroke="#231F20" stroke-width="0.971596"/>
<path d="M68.9628 35.6785H68.0883L67.6025 36.3586" stroke="#231F20" stroke-width="0.971596"/>
</g>
<path d="M0.557617 78.623H26.5044V90.7486H12.6831C5.9864 90.7486 0.557617 85.3198 0.557617 78.623V78.623Z" fill="white"/>
<rect x="26.5049" y="78.623" width="92.1064" height="12.1255" fill="white"/>
<path d="M118.61 78.623H144.557V78.623C144.557 85.3198 139.128 90.7486 132.432 90.7486H118.61V78.623Z" fill="white"/>
</g>
<rect x="1.30739" y="1.18165" width="142.5" height="84.5005" rx="3.13661" stroke="white" stroke-width="1.49954"/>
<defs>
<clipPath id="clip0_214_15189">
<rect x="0.557617" y="0.431885" width="144" height="86" rx="3.88638" fill="white"/>
</clipPath>
<clipPath id="clip1_214_15189">
<rect width="143.796" height="55.381" fill="white" transform="translate(0.65918 23.2419)"/>
</clipPath>
</defs>
</svg>
