<svg width="144" height="88" viewBox="0 0 144 88" fill="none" xmlns="http://www.w3.org/2000/svg">
<g clip-path="url(#clip0_214_14169)">
<rect x="0.119141" y="0.431885" width="143" height="87" rx="3.88638" fill="white"/>
<path d="M0.119141 7.77046C0.119141 1.07302 5.54849 -4.35632 12.2459 -4.35632H26.0659V7.77046H0.119141V7.77046Z" fill="white"/>
<rect x="26.0664" y="-4.35632" width="91.1064" height="12.1268" fill="white"/>
<path d="M117.172 -4.35632L130.992 -4.35632C137.689 -4.35632 143.119 1.07302 143.119 7.77046V7.77046L117.172 7.77046V-4.35632Z" fill="white"/>
<rect width="143" height="15" transform="translate(0.119141 7.77039)" fill="white"/>
<path d="M36.3806 16.4883H34.2353V19.7704H33.2967V11.609H36.3806C37.2939 11.609 38.0031 11.8247 38.5084 12.2561C39.0136 12.6875 39.2662 13.286 39.2662 14.0516C39.2662 14.8172 39.0136 15.4157 38.5084 15.8471C38.0031 16.2746 37.2939 16.4883 36.3806 16.4883ZM36.3514 12.4951H34.2353V15.6081H36.3514C36.9849 15.6081 37.4668 15.4779 37.7971 15.2175C38.1275 14.9571 38.2927 14.5685 38.2927 14.0516C38.2927 13.5347 38.1275 13.146 37.7971 12.8857C37.4668 12.6253 36.9849 12.4951 36.3514 12.4951ZM43.3826 14.139C43.7868 14.139 44.1249 14.2012 44.397 14.3256L44.1871 15.1825C43.915 15.0348 43.5964 14.961 43.231 14.961C42.7958 14.961 42.4402 15.1184 42.1642 15.4332C41.8883 15.748 41.7503 16.1638 41.7503 16.6807V19.7704H40.8817V14.2498H41.7445V15.0251C41.9349 14.7414 42.1701 14.5238 42.4499 14.3722C42.7336 14.2167 43.0445 14.139 43.3826 14.139ZM47.9764 14.139C48.8081 14.139 49.4999 14.413 50.0517 14.961C50.6075 15.509 50.8854 16.191 50.8854 17.0072C50.8854 17.8272 50.6075 18.5112 50.0517 19.0592C49.4999 19.6072 48.8081 19.8811 47.9764 19.8811C47.1447 19.8811 46.4529 19.6072 45.9011 19.0592C45.3492 18.5112 45.0733 17.8272 45.0733 17.0072C45.0733 16.191 45.3492 15.509 45.9011 14.961C46.4568 14.413 47.1486 14.139 47.9764 14.139ZM49.4163 15.5381C49.0316 15.1495 48.5516 14.9552 47.9764 14.9552C47.4012 14.9552 46.9213 15.1495 46.5365 15.5381C46.1517 15.9268 45.9594 16.4164 45.9594 17.0072C45.9594 17.6018 46.1517 18.0934 46.5365 18.482C46.9213 18.8707 47.4012 19.065 47.9764 19.065C48.5516 19.065 49.0316 18.8707 49.4163 18.482C49.8011 18.0934 49.9934 17.6018 49.9934 17.0072C49.9934 16.4164 49.8011 15.9268 49.4163 15.5381ZM55.3924 14.139C56.1735 14.139 56.8284 14.4111 57.3569 14.9552C57.8855 15.4992 58.1497 16.1833 58.1497 17.0072C58.1497 17.8311 57.8855 18.517 57.3569 19.065C56.8284 19.6091 56.1735 19.8811 55.3924 19.8811C54.5335 19.8811 53.8631 19.5722 53.3812 18.9542V22.1022H52.5067V14.2498H53.3812V15.0659C53.8631 14.448 54.5335 14.139 55.3924 14.139ZM55.2874 14.9552C54.7161 14.9552 54.2459 15.1514 53.8767 15.5439C53.5075 15.9326 53.3229 16.4203 53.3229 17.0072C53.3229 17.5979 53.5075 18.0895 53.8767 18.482C54.2459 18.8707 54.7161 19.065 55.2874 19.065C55.8704 19.065 56.3445 18.8687 56.7098 18.4762C57.0752 18.0798 57.2578 17.5901 57.2578 17.0072C57.2578 16.4281 57.0732 15.9423 56.704 15.5498C56.3348 15.1534 55.8626 14.9552 55.2874 14.9552ZM60.6453 14.2498V19.7704H59.7709V14.2498H60.6453ZM60.2081 11.6731C60.3791 11.6731 60.5249 11.7333 60.6453 11.8538C60.7658 11.9704 60.8261 12.1162 60.8261 12.291C60.8261 12.4659 60.7658 12.6117 60.6453 12.7283C60.5288 12.8448 60.383 12.9031 60.2081 12.9031C60.0332 12.9031 59.8875 12.8448 59.7709 12.7283C59.6543 12.6117 59.596 12.4659 59.596 12.291C59.596 12.1162 59.6543 11.9704 59.7709 11.8538C59.8875 11.7333 60.0332 11.6731 60.2081 11.6731ZM65.1691 14.139C66.0008 14.139 66.6926 14.413 67.2444 14.961C67.8002 15.509 68.0781 16.191 68.0781 17.0072C68.0781 17.8272 67.8002 18.5112 67.2444 19.0592C66.6926 19.6072 66.0008 19.8811 65.1691 19.8811C64.3374 19.8811 63.6456 19.6072 63.0938 19.0592C62.5419 18.5112 62.266 17.8272 62.266 17.0072C62.266 16.191 62.5419 15.509 63.0938 14.961C63.6495 14.413 64.3413 14.139 65.1691 14.139ZM66.609 15.5381C66.2243 15.1495 65.7443 14.9552 65.1691 14.9552C64.5939 14.9552 64.1139 15.1495 63.7292 15.5381C63.3444 15.9268 63.1521 16.4164 63.1521 17.0072C63.1521 17.6018 63.3444 18.0934 63.7292 18.482C64.1139 18.8707 64.5939 19.065 65.1691 19.065C65.7443 19.065 66.2243 18.8707 66.609 18.482C66.9938 18.0934 67.1861 17.6018 67.1861 17.0072C67.1861 16.4164 66.9938 15.9268 66.609 15.5381ZM72.4218 14.139C73.1058 14.139 73.6596 14.3411 74.0833 14.7453C74.5108 15.1495 74.7245 15.6839 74.7245 16.3484V19.7704H73.8559V16.6341C73.8559 16.1094 73.716 15.7013 73.4362 15.4099C73.1602 15.1145 72.7697 14.9668 72.2644 14.9668C71.7864 14.9668 71.3842 15.1223 71.0577 15.4332C70.7351 15.7402 70.5738 16.1483 70.5738 16.6574V19.7704H69.6994V14.2498H70.5622V15.0368C70.7721 14.7259 71.0422 14.4985 71.3725 14.3547C71.7028 14.2109 72.0526 14.139 72.4218 14.139ZM77.5762 14.2498V19.7704H76.7017V14.2498H77.5762ZM77.139 11.6731C77.31 11.6731 77.4557 11.7333 77.5762 11.8538C77.6966 11.9704 77.7569 12.1162 77.7569 12.291C77.7569 12.4659 77.6966 12.6117 77.5762 12.7283C77.4596 12.8448 77.3138 12.9031 77.139 12.9031C76.9641 12.9031 76.8183 12.8448 76.7017 12.7283C76.5851 12.6117 76.5268 12.4659 76.5268 12.291C76.5268 12.1162 76.5851 11.9704 76.7017 11.8538C76.8183 11.7333 76.9641 11.6731 77.139 11.6731ZM82.0533 14.139C82.4652 14.139 82.848 14.2148 83.2017 14.3664C83.5554 14.5141 83.8546 14.7278 84.0995 15.0076L83.5398 15.5964C83.1007 15.1689 82.5974 14.9552 82.03 14.9552C81.4742 14.9552 81.0098 15.1495 80.6367 15.5381C80.2675 15.9268 80.0829 16.4164 80.0829 17.0072C80.0829 17.6018 80.2675 18.0934 80.6367 18.482C81.0098 18.8707 81.4742 19.065 82.03 19.065C82.6051 19.065 83.1143 18.8493 83.5573 18.4179L84.0995 19.0125C83.8507 19.2924 83.5495 19.5081 83.1959 19.6596C82.8422 19.8073 82.4614 19.8811 82.0533 19.8811C81.2138 19.8811 80.5279 19.6091 79.9954 19.065C79.463 18.5209 79.1968 17.835 79.1968 17.0072C79.1968 16.1833 79.463 15.4992 79.9954 14.9552C80.5279 14.4111 81.2138 14.139 82.0533 14.139ZM93.9144 14.2498V19.7704H93.0458V18.9484C92.5639 19.5702 91.8915 19.8811 91.0287 19.8811C90.2476 19.8811 89.5927 19.6091 89.0642 19.065C88.5356 18.517 88.2713 17.8311 88.2713 17.0072C88.2713 16.1833 88.5356 15.4992 89.0642 14.9552C89.5927 14.4111 90.2476 14.139 91.0287 14.139C91.8876 14.139 92.56 14.4499 93.0458 15.0717V14.2498H93.9144ZM91.1337 14.9552C90.5507 14.9552 90.0746 15.1534 89.7054 15.5498C89.3401 15.9423 89.1574 16.4281 89.1574 17.0072C89.1574 17.5862 89.342 18.074 89.7113 18.4704C90.0805 18.8668 90.5546 19.065 91.1337 19.065C91.705 19.065 92.1752 18.8707 92.5444 18.482C92.9136 18.0895 93.0982 17.5979 93.0982 17.0072C93.0982 16.4203 92.9136 15.9326 92.5444 15.5439C92.1752 15.1514 91.705 14.9552 91.1337 14.9552ZM98.392 14.139C98.804 14.139 99.1868 14.2148 99.5405 14.3664C99.8941 14.5141 100.193 14.7278 100.438 15.0076L99.8786 15.5964C99.4394 15.1689 98.9361 14.9552 98.3687 14.9552C97.813 14.9552 97.3485 15.1495 96.9754 15.5381C96.6062 15.9268 96.4216 16.4164 96.4216 17.0072C96.4216 17.6018 96.6062 18.0934 96.9754 18.482C97.3485 18.8707 97.813 19.065 98.3687 19.065C98.9439 19.065 99.453 18.8493 99.8961 18.4179L100.438 19.0125C100.189 19.2924 99.8883 19.5081 99.5346 19.6596C99.181 19.8073 98.8001 19.8811 98.392 19.8811C97.5526 19.8811 96.8666 19.6091 96.3342 19.065C95.8018 18.5209 95.5355 17.835 95.5355 17.0072C95.5355 16.1833 95.8018 15.4992 96.3342 14.9552C96.8666 14.4111 97.5526 14.139 98.392 14.139ZM102.796 14.2498V19.7704H101.921V14.2498H102.796ZM102.359 11.6731C102.53 11.6731 102.675 11.7333 102.796 11.8538C102.916 11.9704 102.977 12.1162 102.977 12.291C102.977 12.4659 102.916 12.6117 102.796 12.7283C102.679 12.8448 102.534 12.9031 102.359 12.9031C102.184 12.9031 102.038 12.8448 101.921 12.7283C101.805 12.6117 101.747 12.4659 101.747 12.291C101.747 12.1162 101.805 11.9704 101.921 11.8538C102.038 11.7333 102.184 11.6731 102.359 11.6731ZM107.174 14.139C108.033 14.139 108.705 14.4499 109.191 15.0717V11.3758H110.06V19.7704H109.191V18.9484C108.709 19.5702 108.037 19.8811 107.174 19.8811C106.393 19.8811 105.738 19.6091 105.209 19.065C104.681 18.517 104.417 17.8311 104.417 17.0072C104.417 16.1833 104.681 15.4992 105.209 14.9552C105.738 14.4111 106.393 14.139 107.174 14.139ZM107.279 14.9552C106.696 14.9552 106.22 15.1534 105.851 15.5498C105.485 15.9423 105.303 16.4281 105.303 17.0072C105.303 17.5862 105.487 18.074 105.856 18.4704C106.226 18.8668 106.7 19.065 107.279 19.065C107.85 19.065 108.32 18.8707 108.69 18.482C109.059 18.0895 109.243 17.5979 109.243 17.0072C109.243 16.4203 109.059 15.9326 108.69 15.5439C108.32 15.1514 107.85 14.9552 107.279 14.9552Z" fill="#231F20"/>
<g clip-path="url(#clip1_214_14169)">
<path d="M115.341 22.7704L27.8975 22.7704V80.0945H115.341V22.7704Z" fill="white"/>
<path d="M47.7188 46.9631L62.8756 38.2188" stroke="#231F20" stroke-width="0.971596"/>
<path d="M62.875 38.2188L78.0319 46.9631" stroke="#231F20" stroke-width="0.971596"/>
<path d="M78.0312 48.5176L84.5409 44.7284" stroke="#231F20" stroke-width="0.971596"/>
<path d="M84.541 44.7284L91.0507 41.0364" stroke="#FF6A00" stroke-width="0.971596"/>
<path d="M76.7686 46.1858L83.1811 42.4938" stroke="#231F20" stroke-width="0.971596"/>
<path d="M83.1816 42.4938L89.6913 38.7046" stroke="#FF6A00" stroke-width="0.971596"/>
<path d="M78.0312 46.9631V54.1529" stroke="#231F20" stroke-width="0.971596"/>
<path d="M78.0312 54.153V61.3428" stroke="#FF6A00" stroke-width="0.971596"/>
<path d="M62.1943 38.7045L62.8745 38.2188L63.6517 38.7045" stroke="#231F20" stroke-width="0.971596"/>
<path d="M77.2539 46.5745L78.0312 46.9631V47.3517" stroke="#231F20" stroke-width="0.971596"/>
<path d="M90.9541 38.2188C90.9541 37.4415 91.1484 36.8262 91.5371 36.3727C91.9257 35.9193 92.4763 35.6926 93.1888 35.6926C93.9013 35.6926 94.4518 35.9193 94.8405 36.3727C95.2939 36.8262 95.5206 37.4415 95.5206 38.2188C95.5206 39.0608 95.2939 39.7086 94.8405 40.162C94.4518 40.6154 93.9013 40.8421 93.1888 40.8421C92.4763 40.8421 91.9257 40.6154 91.5371 40.162C91.1484 39.7086 90.9541 39.0608 90.9541 38.2188ZM93.1888 40.2591C93.707 40.2591 94.0956 40.0972 94.3547 39.7733C94.6138 39.3847 94.7433 38.8665 94.7433 38.2188C94.7433 37.571 94.6138 37.0852 94.3547 36.7614C94.0956 36.4375 93.707 36.2756 93.1888 36.2756C92.6706 36.2756 92.2819 36.4375 92.0229 36.7614C91.7638 37.0852 91.6342 37.571 91.6342 38.2188C91.6342 38.9313 91.7638 39.4495 92.0229 39.7733C92.2819 40.0972 92.6706 40.2591 93.1888 40.2591Z" fill="#FF6A00"/>
<path d="M75.7969 64.4519C75.7969 63.6747 75.9912 63.0593 76.3798 62.6059C76.7685 62.1525 77.319 61.9258 78.0315 61.9258C78.8088 61.9258 79.3918 62.1525 79.7804 62.6059C80.1691 63.0593 80.3634 63.6747 80.3634 64.4519C80.3634 65.294 80.1691 65.9417 79.7804 66.3951C79.327 66.8485 78.744 67.0752 78.0315 67.0752C77.319 67.0752 76.7685 66.8485 76.3798 66.3951C75.9912 65.9417 75.7969 65.294 75.7969 64.4519ZM78.0315 66.4923C78.5497 66.4923 78.9384 66.3303 79.1975 66.0065C79.4566 65.6178 79.5861 65.0997 79.5861 64.4519C79.5861 63.8042 79.4566 63.3184 79.1975 62.9945C78.9384 62.6707 78.5497 62.5087 78.0315 62.5087C77.5134 62.5087 77.1247 62.6707 76.8656 62.9945C76.6065 63.3184 76.477 63.8042 76.477 64.4519C76.477 65.1644 76.6065 65.6826 76.8656 66.0065C77.1247 66.3303 77.5134 66.4923 78.0315 66.4923Z" fill="#FF6A00"/>
<path d="M81.1406 62.0228H81.7236V64.1603H84.3469V62.0228H84.9299V66.978H84.3469V64.6461H81.7236V66.978H81.1406V62.0228Z" fill="#FF6A00"/>
</g>
<path d="M0.119141 80.0946H26.0659V92.2201H12.2447C5.54793 92.2201 0.119141 86.7913 0.119141 80.0946V80.0946Z" fill="white"/>
<rect x="26.0664" y="80.0946" width="91.1064" height="12.1255" fill="white"/>
<path d="M117.172 80.0946H143.119V80.0946C143.119 86.7913 137.69 92.2201 130.993 92.2201H117.172V80.0946Z" fill="white"/>
</g>
<rect x="0.86891" y="1.18165" width="141.5" height="85.5005" rx="3.13661" stroke="white" stroke-width="1.49954"/>
<defs>
<clipPath id="clip0_214_14169">
<rect x="0.119141" y="0.431885" width="143" height="87" rx="3.88638" fill="white"/>
</clipPath>
<clipPath id="clip1_214_14169">
<rect width="87.4436" height="57.3242" fill="white" transform="translate(27.8975 22.7704)"/>
</clipPath>
</defs>
</svg>
