<svg width="143" height="87" viewBox="0 0 143 87" fill="none" xmlns="http://www.w3.org/2000/svg">
<g clip-path="url(#clip0_214_14733)">
<rect x="0.181641" y="0.431885" width="142" height="86" rx="3.88638" fill="white"/>
<path d="M0.181641 12.5587C0.181641 5.86123 5.61099 0.431885 12.3084 0.431885L26.1284 0.431885V12.5587L0.181641 12.5587V12.5587Z" fill="white"/>
<rect x="26.1289" y="0.431885" width="90.1064" height="12.1268" fill="white"/>
<path d="M116.234 0.431885L130.054 0.431885C136.752 0.431885 142.181 5.86123 142.181 12.5587V12.5587L116.234 12.5587V0.431885Z" fill="white"/>
<rect width="142" height="15" transform="translate(0.181641 12.5586)" fill="white"/>
<path d="M42.9036 16.3972L46.2556 24.5586H45.2529L44.326 22.2851H40.2861L39.365 24.5586H38.3915L41.7435 16.3972H42.9036ZM42.309 17.3241L40.6476 21.399H43.9704L42.309 17.3241ZM49.882 18.9272C50.2939 18.9272 50.6767 19.003 51.0304 19.1546C51.3841 19.3023 51.6833 19.516 51.9281 19.7958L51.3685 20.3846C50.9293 19.9571 50.4261 19.7434 49.8586 19.7434C49.3029 19.7434 48.8385 19.9377 48.4654 20.3263C48.0962 20.715 47.9116 21.2046 47.9116 21.7954C47.9116 22.39 48.0962 22.8816 48.4654 23.2703C48.8385 23.6589 49.3029 23.8532 49.8586 23.8532C50.4338 23.8532 50.9429 23.6375 51.386 23.2061L51.9281 23.8007C51.6794 24.0806 51.3782 24.2963 51.0246 24.4478C50.6709 24.5955 50.29 24.6694 49.882 24.6694C49.0425 24.6694 48.3566 24.3973 47.8241 23.8532C47.2917 23.3091 47.0255 22.6232 47.0255 21.7954C47.0255 20.9715 47.2917 20.2875 47.8241 19.7434C48.3566 19.1993 49.0425 18.9272 49.882 18.9272ZM55.6291 18.9272C56.3792 18.9272 56.9971 19.1934 57.4829 19.7259C57.9726 20.2583 58.2194 20.9423 58.2233 21.7779C58.2233 21.8984 58.2174 22.0072 58.2058 22.1043H53.7811C53.8394 22.6795 54.0493 23.1245 54.4107 23.4393C54.7722 23.7502 55.2133 23.9057 55.734 23.9057C56.3947 23.9057 56.9777 23.6744 57.4829 23.212L57.9493 23.8066C57.3469 24.3818 56.591 24.6694 55.6816 24.6694C54.8615 24.6694 54.1911 24.4051 53.6704 23.8765C53.1496 23.3441 52.8892 22.6523 52.8892 21.8012C52.8892 20.9617 53.1476 20.2739 53.6645 19.7375C54.1814 19.1973 54.8363 18.9272 55.6291 18.9272ZM55.6116 19.7026C55.1142 19.7026 54.7041 19.858 54.3816 20.1689C54.059 20.4798 53.8627 20.8898 53.7928 21.399H57.3372C57.2828 20.8821 57.0982 20.4701 56.7834 20.1631C56.4725 19.8561 56.0819 19.7026 55.6116 19.7026ZM63.5359 19.038V19.825L61.1516 19.825V22.6115C61.1516 23.0274 61.2507 23.3383 61.4489 23.5442C61.6471 23.7502 61.9134 23.8532 62.2476 23.8532C62.6634 23.8532 63.0501 23.723 63.4077 23.4626L63.8157 24.1214C63.3338 24.4867 62.7878 24.6694 62.1776 24.6694C61.5714 24.6694 61.103 24.5003 60.7727 24.1622C60.4462 23.8202 60.283 23.3091 60.283 22.629V19.825H59.0763V19.038H60.283V17.2833H61.1516V19.038L63.5359 19.038ZM67.5312 18.9272C68.3629 18.9272 69.0546 19.2012 69.6065 19.7492C70.1623 20.2972 70.4401 20.9792 70.4401 21.7954C70.4401 22.6154 70.1623 23.2994 69.6065 23.8474C69.0546 24.3954 68.3629 24.6694 67.5312 24.6694C66.6995 24.6694 66.0077 24.3954 65.4559 23.8474C64.904 23.2994 64.6281 22.6154 64.6281 21.7954C64.6281 20.9792 64.904 20.2972 65.4559 19.7492C66.0116 19.2012 66.7034 18.9272 67.5312 18.9272ZM68.9711 20.3263C68.5863 19.9377 68.1064 19.7434 67.5312 19.7434C66.956 19.7434 66.476 19.9377 66.0913 20.3263C65.7065 20.715 65.5142 21.2046 65.5142 21.7954C65.5142 22.39 65.7065 22.8816 66.0913 23.2703C66.476 23.6589 66.956 23.8532 67.5312 23.8532C68.1064 23.8532 68.5863 23.6589 68.9711 23.2703C69.3558 22.8816 69.5482 22.39 69.5482 21.7954C69.5482 21.2046 69.3558 20.715 68.9711 20.3263ZM74.7839 18.9272C75.4679 18.9272 76.0217 19.1293 76.4453 19.5335C76.8728 19.9377 77.0866 20.4721 77.0866 21.1366V24.5586H76.218V21.4223C76.218 20.8976 76.0781 20.4895 75.7983 20.1981C75.5223 19.9027 75.1317 19.755 74.6265 19.755C74.1485 19.755 73.7462 19.9105 73.4198 20.2214C73.0972 20.5284 72.9359 20.9365 72.9359 21.4456V24.5586H72.0615V19.038H72.9243V19.825C73.1341 19.5141 73.4042 19.2867 73.7346 19.1429C74.0649 18.9991 74.4147 18.9272 74.7839 18.9272ZM79.9383 19.038V24.5586H79.0638V19.038H79.9383ZM79.501 16.4613C79.672 16.4613 79.8178 16.5216 79.9383 16.642C80.0587 16.7586 80.119 16.9044 80.119 17.0792C80.119 17.2541 80.0587 17.3999 79.9383 17.5165C79.8217 17.6331 79.6759 17.6914 79.501 17.6914C79.3261 17.6914 79.1804 17.6331 79.0638 17.5165C78.9472 17.3999 78.8889 17.2541 78.8889 17.0792C78.8889 16.9044 78.9472 16.7586 79.0638 16.642C79.1804 16.5216 79.3261 16.4613 79.501 16.4613ZM85.727 19.038V19.825H83.3427V22.6115C83.3427 23.0274 83.4418 23.3383 83.64 23.5442C83.8382 23.7502 84.1045 23.8532 84.4387 23.8532C84.8545 23.8532 85.2412 23.723 85.5988 23.4626L86.0068 24.1214C85.5249 24.4867 84.9789 24.6694 84.3687 24.6694C83.7625 24.6694 83.2941 24.5003 82.9638 24.1622C82.6373 23.8202 82.4741 23.3091 82.4741 22.629V19.825H81.2674V19.038H82.4741V17.2833H83.3427V19.038H85.727ZM89.7625 18.9272C90.1667 18.9272 90.5048 18.9894 90.7769 19.1138L90.567 19.9707C90.295 19.823 89.9763 19.7492 89.611 19.7492C89.1757 19.7492 88.8201 19.9066 88.5442 20.2214C88.2682 20.5362 88.1303 20.952 88.1303 21.4689V24.5586H87.2617V19.038H88.1244V19.8133C88.3149 19.5296 88.55 19.312 88.8298 19.1604C89.1135 19.005 89.4244 18.9272 89.7625 18.9272ZM92.9751 19.038V24.5586H92.1007V19.038H92.9751ZM92.5379 16.4613C92.7089 16.4613 92.8546 16.5216 92.9751 16.642C93.0956 16.7586 93.1558 16.9044 93.1558 17.0792C93.1558 17.2541 93.0956 17.3999 92.9751 17.5165C92.8585 17.6331 92.7128 17.6914 92.5379 17.6914C92.363 17.6914 92.2173 17.6331 92.1007 17.5165C91.9841 17.3999 91.9258 17.2541 91.9258 17.0792C91.9258 16.9044 91.9841 16.7586 92.1007 16.642C92.2173 16.5216 92.363 16.4613 92.5379 16.4613ZM95.8899 16.164V24.5586H95.0154V16.164H95.8899ZM100.25 18.9272C101 18.9272 101.618 19.1934 102.104 19.7259C102.594 20.2583 102.841 20.9423 102.845 21.7779C102.845 21.8984 102.839 22.0072 102.827 22.1043H98.4024C98.4607 22.6795 98.6706 23.1245 99.032 23.4393C99.3935 23.7502 99.8346 23.9057 100.355 23.9057C101.016 23.9057 101.599 23.6744 102.104 23.212L102.571 23.8066C101.968 24.3818 101.212 24.6694 100.303 24.6694C99.4828 24.6694 98.8124 24.4051 98.2917 23.8765C97.7709 23.3441 97.5105 22.6523 97.5105 21.8012C97.5105 20.9617 97.769 20.2739 98.2858 19.7375C98.8027 19.1973 99.4576 18.9272 100.25 18.9272ZM100.233 19.7026C99.7355 19.7026 99.3254 19.858 99.0029 20.1689C98.6803 20.4798 98.484 20.8898 98.4141 21.399H101.958C101.904 20.8821 101.719 20.4701 101.405 20.1631C101.094 19.8561 100.703 19.7026 100.233 19.7026Z" fill="#231F20"/>
<path d="M0.181641 27.5586L26.1284 27.5586V39.6841H12.3072C5.61043 39.6841 0.181641 34.2553 0.181641 27.5586V27.5586Z" fill="white"/>
<rect x="26.1289" y="27.5586" width="90.1064" height="12.1255" fill="white"/>
<path d="M116.234 27.5586L142.181 27.5586V27.5586C142.181 34.2553 136.752 39.6841 130.056 39.6841H116.234V27.5586Z" fill="white"/>
<g clip-path="url(#clip1_214_14733)">
<path d="M104.701 39.6841L37.6611 39.6841V48.4284H104.701V39.6841Z" fill="white"/>
<path d="M52.7207 43.9592H70.2094" stroke="#231F20" stroke-width="0.971596"/>
<path d="M70.21 43.9592L77.6912 44.0564" stroke="#231F20" stroke-width="0.971596"/>
<path d="M77.6914 44.0562H85.2699" stroke="#0F4BA3" stroke-width="0.971596"/>
<path d="M70.21 41.3357L77.6912 41.4329" stroke="#231F20" stroke-width="0.971596"/>
<path d="M77.6914 41.4331H85.2699" stroke="#0F4BA3" stroke-width="0.971596"/>
<path d="M70.21 46.5823H77.6912" stroke="#231F20" stroke-width="0.971596"/>
<path d="M77.6914 46.5823L85.2699 46.6794" stroke="#0F4BA3" stroke-width="0.971596"/>
<path d="M69.335 43.9592H70.2094H70.598" stroke="#231F20" stroke-width="0.971596"/>
<path d="M86.6288 41.53L88.1834 44.1533C88.3129 44.3477 88.4749 44.6067 88.6692 44.9306C88.7987 45.1897 88.8635 45.3516 88.8635 45.4164V41.53H89.5436V46.4852H88.8635L87.1146 43.5704C86.9851 43.3761 86.8555 43.1494 86.726 42.8903C86.5965 42.6312 86.4993 42.4692 86.4345 42.4045V46.4852H85.8516V41.53H86.6288Z" fill="#0F4BA3"/>
</g>
</g>
<rect x="0.93141" y="1.18165" width="140.5" height="84.5005" rx="3.13661" stroke="white" stroke-width="1.49954"/>
<defs>
<clipPath id="clip0_214_14733">
<rect x="0.181641" y="0.431885" width="142" height="86" rx="3.88638" fill="white"/>
</clipPath>
<clipPath id="clip1_214_14733">
<rect width="67.0401" height="8.74436" fill="white" transform="translate(37.6611 39.6841)"/>
</clipPath>
</defs>
</svg>
