<svg width="145" height="87" viewBox="0 0 145 87" fill="none" xmlns="http://www.w3.org/2000/svg">
<g clip-path="url(#clip0_214_14745)">
<rect x="0.870117" y="0.431885" width="144" height="86" rx="3.88638" fill="white"/>
<path d="M0.870117 8.24202C0.870117 1.54458 6.29946 -3.88477 12.9969 -3.88477L26.8169 -3.88477V8.24202H0.870117V8.24202Z" fill="white"/>
<rect x="26.8174" y="-3.88477" width="92.1064" height="12.1268" fill="white"/>
<path d="M118.923 -3.88477L132.743 -3.88477C139.44 -3.88477 144.87 1.54458 144.87 8.24202V8.24202L118.923 8.24202V-3.88477Z" fill="white"/>
<rect width="144" height="15" transform="translate(0.870117 8.24194)" fill="white"/>
<path d="M50.0477 12.0805H53.2073C54.1167 12.0805 54.8357 12.2554 55.3643 12.6052C55.8928 12.9511 56.1571 13.4932 56.1571 14.2317C56.1571 14.6786 56.0463 15.0595 55.8248 15.3742C55.6033 15.6852 55.304 15.9067 54.927 16.0388C55.3545 16.1787 55.6946 16.4139 55.9472 16.7442C56.2037 17.0745 56.332 17.4846 56.332 17.9742C56.332 18.7437 56.0696 19.315 55.545 19.6881C55.0242 20.0573 54.2955 20.2419 53.3589 20.2419H50.0477V12.0805ZM53.3181 16.5402H50.9863V19.3617H53.3181C53.6368 19.3617 53.9146 19.3384 54.1517 19.2917C54.3927 19.2451 54.6045 19.1693 54.7871 19.0644C54.9737 18.9594 55.1136 18.8137 55.2069 18.6272C55.3001 18.4406 55.3468 18.2133 55.3468 17.9451C55.3468 17.4321 55.1719 17.0707 54.8221 16.8608C54.4762 16.647 53.9749 16.5402 53.3181 16.5402ZM53.1723 12.9608H50.9863V15.6657H53.1782C53.4774 15.6657 53.7398 15.6463 53.9652 15.6074C54.1945 15.5647 54.4024 15.4947 54.5889 15.3976C54.7794 15.3004 54.9232 15.1605 55.0203 14.9778C55.1214 14.7913 55.1719 14.5659 55.1719 14.3016C55.1719 14.0451 55.1214 13.8275 55.0203 13.6487C54.9232 13.466 54.7794 13.3261 54.5889 13.229C54.3985 13.1318 54.1886 13.0638 53.9593 13.0249C53.7339 12.9822 53.4716 12.9608 53.1723 12.9608ZM60.3855 14.6106C61.1356 14.6106 61.7535 14.8768 62.2393 15.4092C62.729 15.9417 62.9758 16.6257 62.9797 17.4612C62.9797 17.5817 62.9739 17.6905 62.9622 17.7877H58.5376C58.5959 18.3629 58.8057 18.8079 59.1672 19.1227C59.5286 19.4336 59.9697 19.589 60.4905 19.589C61.1512 19.589 61.7341 19.3578 62.2393 18.8953L62.7057 19.4899C62.1033 20.0651 61.3474 20.3527 60.438 20.3527C59.618 20.3527 58.9476 20.0884 58.4268 19.5599C57.906 19.0274 57.6456 18.3357 57.6456 17.4846C57.6456 16.6451 57.9041 15.9572 58.421 15.4209C58.9379 14.8807 59.5927 14.6106 60.3855 14.6106ZM60.368 15.3859C59.8706 15.3859 59.4606 15.5414 59.138 15.8523C58.8154 16.1632 58.6192 16.5732 58.5492 17.0823H62.0936C62.0392 16.5654 61.8546 16.1535 61.5398 15.8464C61.2289 15.5394 60.8383 15.3859 60.368 15.3859ZM67.3233 14.6106C68.0073 14.6106 68.5611 14.8127 68.9847 15.2168C69.4122 15.621 69.626 16.1554 69.626 16.82V20.2419H68.7574V17.1056C68.7574 16.581 68.6174 16.1729 68.3376 15.8814C68.0617 15.5861 67.6711 15.4384 67.1659 15.4384C66.6879 15.4384 66.2856 15.5938 65.9592 15.9047C65.6366 16.2118 65.4753 16.6198 65.4753 17.1289V20.2419H64.6009V14.7213H65.4636V15.5083C65.6735 15.1974 65.9436 14.9701 66.274 14.8263C66.6043 14.6825 66.9541 14.6106 67.3233 14.6106ZM75.9695 14.7213V15.3568L72.4485 19.455H76.022V20.2419H71.2942V19.6123L74.8503 15.5083L71.3991 15.5083V14.7213L75.9695 14.7213ZM79.9237 14.6106C80.6738 14.6106 81.2917 14.8768 81.7775 15.4092C82.2672 15.9417 82.514 16.6257 82.5179 17.4612C82.5179 17.5817 82.5121 17.6905 82.5004 17.7877H78.0757C78.134 18.3629 78.3439 18.8079 78.7053 19.1227C79.0668 19.4336 79.5079 19.589 80.0287 19.589C80.6893 19.589 81.2723 19.3578 81.7775 18.8953L82.2439 19.4899C81.6415 20.0651 80.8856 20.3527 79.9762 20.3527C79.1562 20.3527 78.4858 20.0884 77.965 19.5599C77.4442 19.0274 77.1838 18.3357 77.1838 17.4846C77.1838 16.6451 77.4423 15.9572 77.9592 15.4209C78.476 14.8807 79.1309 14.6106 79.9237 14.6106ZM79.9062 15.3859C79.4088 15.3859 78.9988 15.5414 78.6762 15.8523C78.3536 16.1632 78.1574 16.5732 78.0874 17.0823H81.6318C81.5774 16.5654 81.3928 16.1535 81.078 15.8464C80.7671 15.5394 80.3765 15.3859 79.9062 15.3859ZM86.8615 14.6106C87.5455 14.6106 88.0993 14.8127 88.5229 15.2168C88.9504 15.621 89.1641 16.1554 89.1641 16.82V20.2419H88.2955V17.1056C88.2955 16.581 88.1556 16.1729 87.8758 15.8814C87.5999 15.5861 87.2093 15.4384 86.7041 15.4384C86.226 15.4384 85.8238 15.5938 85.4973 15.9047C85.1748 16.2118 85.0135 16.6198 85.0135 17.1289V20.2419H84.139V14.7213H85.0018V15.5083C85.2117 15.1974 85.4818 14.9701 85.8121 14.8263C86.1425 14.6825 86.4923 14.6106 86.8615 14.6106ZM93.4615 14.6106C94.2116 14.6106 94.8296 14.8768 95.3153 15.4092C95.805 15.9417 96.0518 16.6257 96.0557 17.4612C96.0557 17.5817 96.0499 17.6905 96.0382 17.7877H91.6136C91.6719 18.3629 91.8817 18.8079 92.2432 19.1227C92.6046 19.4336 93.0457 19.589 93.5665 19.589C94.2272 19.589 94.8101 19.3578 95.3153 18.8953L95.7817 19.4899C95.1793 20.0651 94.4234 20.3527 93.514 20.3527C92.694 20.3527 92.0236 20.0884 91.5028 19.5599C90.982 19.0274 90.7216 18.3357 90.7216 17.4846C90.7216 16.6451 90.9801 15.9572 91.497 15.4209C92.0139 14.8807 92.6687 14.6106 93.4615 14.6106ZM93.4441 15.3859C92.9466 15.3859 92.5366 15.5414 92.214 15.8523C91.8914 16.1632 91.6952 16.5732 91.6252 17.0823H95.1696C95.1152 16.5654 94.9306 16.1535 94.6158 15.8464C94.3049 15.5394 93.9143 15.3859 93.4441 15.3859Z" fill="#231F20"/>
<g clip-path="url(#clip1_214_14745)">
<path d="M104.933 23.2419L40.8076 23.2419V78.6229H104.933V23.2419Z" fill="white"/>
<path d="M90.1643 50.738L81.4199 65.8949" stroke="#231F20" stroke-width="0.971596"/>
<path d="M87.1532 50.738L79.8662 63.2716" stroke="#231F20" stroke-width="0.971596"/>
<path d="M90.1643 50.7382L81.4199 35.6785" stroke="#231F20" stroke-width="0.971596"/>
<path d="M81.4204 65.895H63.9316" stroke="#231F20" stroke-width="0.971596"/>
<path d="M81.4204 35.6785H63.9316" stroke="#231F20" stroke-width="0.971596"/>
<path d="M79.8659 38.3018H65.4863" stroke="#231F20" stroke-width="0.971596"/>
<path d="M63.9319 65.8949L55.1875 50.738" stroke="#231F20" stroke-width="0.971596"/>
<path d="M65.4862 63.2716L58.1992 50.738" stroke="#231F20" stroke-width="0.971596"/>
<path d="M63.9319 35.6785L55.1875 50.7382" stroke="#231F20" stroke-width="0.971596"/>
<path d="M89.7764 51.5153L90.165 50.738L89.7764 50.0579" stroke="#231F20" stroke-width="0.971596"/>
<path d="M81.809 65.2148L81.4203 65.895H80.5459" stroke="#231F20" stroke-width="0.971596"/>
<path d="M81.809 36.3586L81.4203 35.6785H80.5459" stroke="#231F20" stroke-width="0.971596"/>
<path d="M64.8055 65.895H63.9311L63.4453 65.2148" stroke="#231F20" stroke-width="0.971596"/>
<path d="M64.806 35.6785H63.9316L63.543 36.3586" stroke="#231F20" stroke-width="0.971596"/>
<path d="M55.5761 51.5153L55.1875 50.738L55.5761 50.0579" stroke="#231F20" stroke-width="0.971596"/>
</g>
<path d="M0.870117 78.623H26.8169V90.7486H12.9956C6.2989 90.7486 0.870117 85.3198 0.870117 78.623V78.623Z" fill="white"/>
<rect x="26.8174" y="78.623" width="92.1064" height="12.1255" fill="white"/>
<path d="M118.923 78.623H144.87V78.623C144.87 85.3198 139.441 90.7486 132.744 90.7486H118.923V78.623Z" fill="white"/>
</g>
<rect x="1.61989" y="1.18165" width="142.5" height="84.5005" rx="3.13661" stroke="white" stroke-width="1.49954"/>
<defs>
<clipPath id="clip0_214_14745">
<rect x="0.870117" y="0.431885" width="144" height="86" rx="3.88638" fill="white"/>
</clipPath>
<clipPath id="clip1_214_14745">
<rect width="64.1253" height="55.381" fill="white" transform="translate(40.8076 23.2419)"/>
</clipPath>
</defs>
</svg>
