<svg width="144" height="87" viewBox="0 0 144 87" fill="none" xmlns="http://www.w3.org/2000/svg">
<g clip-path="url(#clip0_214_14685)">
<rect x="0.431641" y="0.431885" width="143" height="86" rx="3.88638" fill="white"/>
<path d="M0.431641 12.5587C0.431641 5.86123 5.86099 0.431885 12.5584 0.431885L26.3784 0.431885V12.5587H0.431641V12.5587Z" fill="white"/>
<rect x="26.3789" y="0.431885" width="91.1064" height="12.1268" fill="white"/>
<path d="M117.484 0.431885L131.304 0.431885C138.002 0.431885 143.431 5.86123 143.431 12.5587V12.5587H117.484V0.431885Z" fill="white"/>
<rect width="143" height="18.1955" transform="translate(0.431641 12.5586)" fill="white"/>
<path d="M28.8347 21.2765H26.6894V24.5586H25.7508V16.3972H28.8347C29.748 16.3972 30.4572 16.6129 30.9625 17.0443C31.4677 17.4757 31.7203 18.0742 31.7203 18.8398C31.7203 19.6054 31.4677 20.2039 30.9625 20.6353C30.4572 21.0628 29.748 21.2765 28.8347 21.2765ZM28.8055 17.2833H26.6894V20.3963H28.8055C29.439 20.3963 29.9209 20.2661 30.2512 20.0057C30.5816 19.7453 30.7468 19.3567 30.7468 18.8398C30.7468 18.3229 30.5816 17.9343 30.2512 17.6739C29.9209 17.4135 29.439 17.2833 28.8055 17.2833ZM35.8367 18.9272C36.2409 18.9272 36.579 18.9894 36.8511 19.1138L36.6412 19.9707C36.3691 19.823 36.0505 19.7492 35.6851 19.7492C35.2499 19.7492 34.8943 19.9066 34.6183 20.2214C34.3424 20.5362 34.2044 20.952 34.2044 21.4689V24.5586H33.3358V19.038H34.1986V19.8133C34.389 19.5296 34.6242 19.312 34.904 19.1604C35.1877 19.005 35.4986 18.9272 35.8367 18.9272ZM40.4305 18.9272C41.2622 18.9272 41.954 19.2012 42.5058 19.7492C43.0616 20.2972 43.3395 20.9792 43.3395 21.7954C43.3395 22.6154 43.0616 23.2994 42.5058 23.8474C41.954 24.3954 41.2622 24.6694 40.4305 24.6694C39.5988 24.6694 38.907 24.3954 38.3552 23.8474C37.8033 23.2994 37.5274 22.6154 37.5274 21.7954C37.5274 20.9792 37.8033 20.2972 38.3552 19.7492C38.9109 19.2012 39.6027 18.9272 40.4305 18.9272ZM41.8704 20.3263C41.4857 19.9377 41.0057 19.7434 40.4305 19.7434C39.8553 19.7434 39.3754 19.9377 38.9906 20.3263C38.6059 20.715 38.4135 21.2046 38.4135 21.7954C38.4135 22.39 38.6059 22.8816 38.9906 23.2703C39.3754 23.6589 39.8553 23.8532 40.4305 23.8532C41.0057 23.8532 41.4857 23.6589 41.8704 23.2703C42.2552 22.8816 42.4475 22.39 42.4475 21.7954C42.4475 21.2046 42.2552 20.715 41.8704 20.3263ZM47.8465 18.9272C48.6276 18.9272 49.2825 19.1993 49.811 19.7434C50.3396 20.2875 50.6038 20.9715 50.6038 21.7954C50.6038 22.6193 50.3396 23.3052 49.811 23.8532C49.2825 24.3973 48.6276 24.6694 47.8465 24.6694C46.9876 24.6694 46.3172 24.3604 45.8353 23.7425V26.8904H44.9608V19.038H45.8353V19.8541C46.3172 19.2362 46.9876 18.9272 47.8465 18.9272ZM47.7415 19.7434C47.1702 19.7434 46.7 19.9396 46.3308 20.3322C45.9616 20.7208 45.777 21.2085 45.777 21.7954C45.777 22.3861 45.9616 22.8777 46.3308 23.2703C46.7 23.6589 47.1702 23.8532 47.7415 23.8532C48.3245 23.8532 48.7986 23.657 49.1639 23.2644C49.5293 22.868 49.7119 22.3783 49.7119 21.7954C49.7119 21.2163 49.5273 20.7305 49.1581 20.338C48.7889 19.9416 48.3167 19.7434 47.7415 19.7434ZM53.0994 19.038V24.5586H52.225V19.038H53.0994ZM52.6622 16.4613C52.8332 16.4613 52.979 16.5216 53.0994 16.642C53.2199 16.7586 53.2802 16.9044 53.2802 17.0792C53.2802 17.2541 53.2199 17.3999 53.0994 17.5165C52.9829 17.6331 52.8371 17.6914 52.6622 17.6914C52.4873 17.6914 52.3416 17.6331 52.225 17.5165C52.1084 17.3999 52.0501 17.2541 52.0501 17.0792C52.0501 16.9044 52.1084 16.7586 52.225 16.642C52.3416 16.5216 52.4873 16.4613 52.6622 16.4613ZM57.6232 18.9272C58.4549 18.9272 59.1467 19.2012 59.6985 19.7492C60.2543 20.2972 60.5322 20.9792 60.5322 21.7954C60.5322 22.6154 60.2543 23.2994 59.6985 23.8474C59.1467 24.3954 58.4549 24.6694 57.6232 24.6694C56.7915 24.6694 56.0997 24.3954 55.5479 23.8474C54.996 23.2994 54.7201 22.6154 54.7201 21.7954C54.7201 20.9792 54.996 20.2972 55.5479 19.7492C56.1036 19.2012 56.7954 18.9272 57.6232 18.9272ZM59.0631 20.3263C58.6784 19.9377 58.1984 19.7434 57.6232 19.7434C57.048 19.7434 56.568 19.9377 56.1833 20.3263C55.7985 20.715 55.6062 21.2046 55.6062 21.7954C55.6062 22.39 55.7985 22.8816 56.1833 23.2703C56.568 23.6589 57.048 23.8532 57.6232 23.8532C58.1984 23.8532 58.6784 23.6589 59.0631 23.2703C59.4479 22.8816 59.6402 22.39 59.6402 21.7954C59.6402 21.2046 59.4479 20.715 59.0631 20.3263ZM64.8759 18.9272C65.5599 18.9272 66.1137 19.1293 66.5374 19.5335C66.9649 19.9377 67.1786 20.4721 67.1786 21.1366V24.5586H66.31V21.4223C66.31 20.8976 66.1701 20.4895 65.8903 20.1981C65.6143 19.9027 65.2238 19.755 64.7185 19.755C64.2405 19.755 63.8383 19.9105 63.5118 20.2214C63.1892 20.5284 63.0279 20.9365 63.0279 21.4456V24.5586H62.1535V19.038H63.0163V19.825C63.2262 19.5141 63.4963 19.2867 63.8266 19.1429C64.1569 18.9991 64.5067 18.9272 64.8759 18.9272ZM74.3791 19.038V24.5586H73.5105V23.7366C73.0286 24.3584 72.3563 24.6694 71.4935 24.6694C70.7123 24.6694 70.0575 24.3973 69.5289 23.8532C69.0004 23.3052 68.7361 22.6193 68.7361 21.7954C68.7361 20.9715 69.0004 20.2875 69.5289 19.7434C70.0575 19.1993 70.7123 18.9272 71.4935 18.9272C72.3524 18.9272 73.0247 19.2381 73.5105 19.86V19.038H74.3791ZM71.5984 19.7434C71.0155 19.7434 70.5394 19.9416 70.1702 20.338C69.8049 20.7305 69.6222 21.2163 69.6222 21.7954C69.6222 22.3744 69.8068 22.8622 70.176 23.2586C70.5452 23.655 71.0194 23.8532 71.5984 23.8532C72.1697 23.8532 72.64 23.6589 73.0092 23.2703C73.3784 22.8777 73.563 22.3861 73.563 21.7954C73.563 21.2085 73.3784 20.7208 73.0092 20.3322C72.64 19.9396 72.1697 19.7434 71.5984 19.7434ZM77.2945 16.164V24.5586H76.42V16.164H77.2945ZM81.6725 18.9272C82.5314 18.9272 83.2037 19.2381 83.6895 19.86V16.164H84.5581V24.5586H83.6895V23.7366C83.2076 24.3584 82.5353 24.6694 81.6725 24.6694C80.8913 24.6694 80.2365 24.3973 79.7079 23.8532C79.1794 23.3052 78.9151 22.6193 78.9151 21.7954C78.9151 20.9715 79.1794 20.2875 79.7079 19.7434C80.2365 19.1993 80.8913 18.9272 81.6725 18.9272ZM81.7774 19.7434C81.1945 19.7434 80.7184 19.9416 80.3492 20.338C79.9838 20.7305 79.8012 21.2163 79.8012 21.7954C79.8012 22.3744 79.9858 22.8622 80.355 23.2586C80.7242 23.655 81.1983 23.8532 81.7774 23.8532C82.3487 23.8532 82.819 23.6589 83.1882 23.2703C83.5574 22.8777 83.742 22.3861 83.742 21.7954C83.742 21.2085 83.5574 20.7208 83.1882 20.3322C82.819 19.9396 82.3487 19.7434 81.7774 19.7434ZM88.9192 18.9272C89.6693 18.9272 90.2872 19.1934 90.773 19.7259C91.2627 20.2583 91.5095 20.9423 91.5133 21.7779C91.5133 21.8984 91.5075 22.0072 91.4959 22.1043H87.0712C87.1295 22.6795 87.3394 23.1245 87.7008 23.4393C88.0622 23.7502 88.5033 23.9057 89.0241 23.9057C89.6848 23.9057 90.2678 23.6744 90.773 23.212L91.2394 23.8066C90.637 24.3818 89.8811 24.6694 88.9717 24.6694C88.1516 24.6694 87.4812 24.4051 86.9604 23.8765C86.4397 23.3441 86.1793 22.6523 86.1793 21.8012C86.1793 20.9617 86.4377 20.2739 86.9546 19.7375C87.4715 19.1973 88.1264 18.9272 88.9192 18.9272ZM88.9017 19.7026C88.4042 19.7026 87.9942 19.858 87.6717 20.1689C87.3491 20.4798 87.1528 20.8898 87.0829 21.399H90.6273C90.5728 20.8821 90.3882 20.4701 90.0734 20.1631C89.7625 19.8561 89.3719 19.7026 88.9017 19.7026ZM94.009 16.164V19.8075C94.2227 19.5044 94.4928 19.2828 94.8193 19.1429C95.1457 18.9991 95.4916 18.9272 95.8569 18.9272C96.5409 18.9272 97.0947 19.1293 97.5184 19.5335C97.9459 19.9377 98.1596 20.4721 98.1596 21.1366V24.5586H97.291V21.4223C97.291 20.8976 97.1511 20.4895 96.8713 20.1981C96.5953 19.9027 96.2048 19.755 95.6995 19.755C95.2215 19.755 94.8193 19.9105 94.4928 20.2214C94.1702 20.5284 94.009 20.9365 94.009 21.4456V24.5586H93.1345V16.164H94.009ZM105.014 19.038L100.52 26.9137H99.5577L101.616 23.3635L99.0797 19.038H100.053L102.111 22.5008L104.058 19.038H105.014ZM108.361 18.9272C109.22 18.9272 109.892 19.2381 110.378 19.86V16.164H111.247V24.5586H110.378V23.7366C109.896 24.3584 109.224 24.6694 108.361 24.6694C107.58 24.6694 106.925 24.3973 106.396 23.8532C105.868 23.3052 105.604 22.6193 105.604 21.7954C105.604 20.9715 105.868 20.2875 106.396 19.7434C106.925 19.1993 107.58 18.9272 108.361 18.9272ZM108.466 19.7434C107.883 19.7434 107.407 19.9416 107.038 20.338C106.672 20.7305 106.49 21.2163 106.49 21.7954C106.49 22.3744 106.674 22.8622 107.044 23.2586C107.413 23.655 107.887 23.8532 108.466 23.8532C109.037 23.8532 109.507 23.6589 109.877 23.2703C110.246 22.8777 110.431 22.3861 110.431 21.7954C110.431 21.2085 110.246 20.7208 109.877 20.3322C109.507 19.9396 109.037 19.7434 108.466 19.7434ZM115.608 18.9272C116.358 18.9272 116.976 19.1934 117.462 19.7259C117.951 20.2583 118.198 20.9423 118.202 21.7779C118.202 21.8984 118.196 22.0072 118.184 22.1043H113.76C113.818 22.6795 114.028 23.1245 114.389 23.4393C114.751 23.7502 115.192 23.9057 115.713 23.9057C116.373 23.9057 116.956 23.6744 117.462 23.212L117.928 23.8066C117.325 24.3818 116.57 24.6694 115.66 24.6694C114.84 24.6694 114.17 24.4051 113.649 23.8765C113.128 23.3441 112.868 22.6523 112.868 21.8012C112.868 20.9617 113.126 20.2739 113.643 19.7375C114.16 19.1973 114.815 18.9272 115.608 18.9272ZM115.59 19.7026C115.093 19.7026 114.683 19.858 114.36 20.1689C114.038 20.4798 113.841 20.8898 113.771 21.399H117.316C117.261 20.8821 117.077 20.4701 116.762 20.1631C116.451 19.8561 116.06 19.7026 115.59 19.7026Z" fill="#231F20"/>
<path d="M0.431641 30.7542H26.3784V42.8797H12.5572C5.86043 42.8797 0.431641 37.4509 0.431641 30.7542V30.7542Z" fill="white"/>
<rect x="26.3789" y="30.7542" width="91.1064" height="12.1255" fill="white"/>
<path d="M117.484 30.7542H143.431V30.7542C143.431 37.4509 138.002 42.8797 131.306 42.8797H117.484V30.7542Z" fill="white"/>
<g clip-path="url(#clip1_214_14685)">
<path d="M115.654 42.8796L28.21 42.8796V61.34L115.654 61.34V42.8796Z" fill="white"/>
<path d="M47.9336 53.6642L64.0621 46.863" stroke="#231F20" stroke-width="0.971596"/>
<path d="M64.0625 46.863L78.0535 57.3563" stroke="#231F20" stroke-width="0.971596"/>
<path d="M78.0527 57.3564L84.6596 54.5388" stroke="#231F20" stroke-width="0.971596"/>
<path d="M84.6592 54.5388L91.266 51.7212" stroke="#FF6A00" stroke-width="0.971596"/>
<path d="M78.4414 54.3445L83.5909 52.1099" stroke="#231F20" stroke-width="0.971596"/>
<path d="M83.5908 52.1099L90.2948 49.2922" stroke="#FF6A00" stroke-width="0.971596"/>
<path d="M63.2842 47.1545L64.0615 46.863L64.7416 47.3488" stroke="#231F20" stroke-width="0.971596"/>
<path d="M77.3721 56.7734L78.0522 57.3564L78.3437 57.1621" stroke="#231F20" stroke-width="0.971596"/>
<path d="M91.3633 49.2923C91.3633 48.515 91.5576 47.8996 91.9462 47.4462C92.3349 46.9928 92.8855 46.7661 93.598 46.7661C94.3752 46.7661 94.9582 46.9928 95.3468 47.4462C95.7355 47.8996 95.9298 48.515 95.9298 49.2923C95.9298 50.0695 95.7031 50.7173 95.2497 51.2355C94.861 51.6889 94.3105 51.9156 93.598 51.9156C92.8855 51.9156 92.3349 51.6889 91.9462 51.2355C91.5576 50.782 91.3633 50.1343 91.3633 49.2923ZM93.598 51.3326C94.1161 51.3326 94.5048 51.1707 94.7639 50.8468C95.023 50.4582 95.1525 49.94 95.1525 49.2923C95.1525 48.6445 95.023 48.1587 94.7639 47.8349C94.5048 47.511 94.1161 47.3491 93.598 47.3491C93.0798 47.3491 92.6911 47.511 92.432 47.8349C92.1729 48.1587 92.0434 48.6445 92.0434 49.2923C92.0434 49.94 92.1729 50.4582 92.432 50.8468C92.6911 51.1707 93.0798 51.3326 93.598 51.3326Z" fill="#FF6A00"/>
</g>
</g>
<rect x="1.18141" y="1.18165" width="141.5" height="84.5005" rx="3.13661" stroke="white" stroke-width="1.49954"/>
<defs>
<clipPath id="clip0_214_14685">
<rect x="0.431641" y="0.431885" width="143" height="86" rx="3.88638" fill="white"/>
</clipPath>
<clipPath id="clip1_214_14685">
<rect width="87.4436" height="18.4603" fill="white" transform="translate(28.21 42.8796)"/>
</clipPath>
</defs>
</svg>
