<svg width="144" height="87" viewBox="0 0 144 87" fill="none" xmlns="http://www.w3.org/2000/svg">
<g clip-path="url(#clip0_214_14253)">
<rect x="0.932617" y="0.431885" width="143" height="86" rx="3.88638" fill="white"/>
<path d="M0.932617 8.24202C0.932617 1.54458 6.36196 -3.88477 13.0594 -3.88477L26.8794 -3.88477V8.24202L0.932617 8.24202V8.24202Z" fill="white"/>
<rect x="26.8799" y="-3.88477" width="91.1064" height="12.1268" fill="white"/>
<path d="M117.985 -3.88477L131.805 -3.88477C138.503 -3.88477 143.932 1.54458 143.932 8.24202V8.24202L117.985 8.24202V-3.88477Z" fill="white"/>
<rect width="143" height="15" transform="translate(0.932617 8.24207)" fill="white"/>
<path d="M49.6102 12.0807H52.7698C53.6792 12.0807 54.3982 12.2555 54.9268 12.6053C55.4553 12.9512 55.7196 13.4934 55.7196 14.2318C55.7196 14.6787 55.6088 15.0596 55.3873 15.3744C55.1658 15.6853 54.8665 15.9068 54.4895 16.0389C54.917 16.1789 55.2571 16.414 55.5097 16.7443C55.7662 17.0747 55.8945 17.4847 55.8945 17.9744C55.8945 18.7439 55.6321 19.3152 55.1075 19.6883C54.5867 20.0575 53.858 20.2421 52.9214 20.2421H49.6102V12.0807ZM52.8806 16.5403H50.5488V19.3618H52.8806C53.1993 19.3618 53.4771 19.3385 53.7142 19.2918C53.9552 19.2452 54.167 19.1694 54.3496 19.0645C54.5362 18.9596 54.6761 18.8138 54.7694 18.6273C54.8626 18.4407 54.9093 18.2134 54.9093 17.9452C54.9093 17.4322 54.7344 17.0708 54.3846 16.8609C54.0387 16.6472 53.5374 16.5403 52.8806 16.5403ZM52.7348 12.9609H50.5488V15.6658H52.7407C53.0399 15.6658 53.3023 15.6464 53.5277 15.6076C53.757 15.5648 53.9649 15.4948 54.1514 15.3977C54.3419 15.3005 54.4857 15.1606 54.5828 14.978C54.6839 14.7914 54.7344 14.566 54.7344 14.3017C54.7344 14.0452 54.6839 13.8276 54.5828 13.6488C54.4857 13.4662 54.3419 13.3262 54.1514 13.2291C53.961 13.1319 53.7511 13.0639 53.5218 13.0251C53.2964 12.9823 53.0341 12.9609 52.7348 12.9609ZM59.948 14.6107C60.6981 14.6107 61.316 14.8769 61.8018 15.4093C62.2915 15.9418 62.5383 16.6258 62.5422 17.4614C62.5422 17.5818 62.5364 17.6907 62.5247 17.7878H58.1001C58.1584 18.363 58.3682 18.808 58.7297 19.1228C59.0911 19.4337 59.5322 19.5892 60.053 19.5892C60.7137 19.5892 61.2966 19.3579 61.8018 18.8954L62.2682 19.4901C61.6658 20.0652 60.9099 20.3528 60.0005 20.3528C59.1805 20.3528 58.5101 20.0886 57.9893 19.56C57.4685 19.0276 57.2081 18.3358 57.2081 17.4847C57.2081 16.6452 57.4666 15.9573 57.9835 15.421C58.5004 14.8808 59.1552 14.6107 59.948 14.6107ZM59.9305 15.386C59.4331 15.386 59.0231 15.5415 58.7005 15.8524C58.3779 16.1633 58.1817 16.5733 58.1117 17.0824H61.6561C61.6017 16.5655 61.4171 16.1536 61.1023 15.8466C60.7914 15.5395 60.4008 15.386 59.9305 15.386ZM66.8858 14.6107C67.5698 14.6107 68.1236 14.8128 68.5472 15.217C68.9747 15.6212 69.1885 16.1555 69.1885 16.8201V20.2421H68.3199V17.1058C68.3199 16.5811 68.1799 16.173 67.9001 15.8815C67.6242 15.5862 67.2336 15.4385 66.7284 15.4385C66.2504 15.4385 65.8481 15.594 65.5217 15.9049C65.1991 16.2119 65.0378 16.62 65.0378 17.1291V20.2421H64.1634V14.7215H65.0261V15.5084C65.236 15.1975 65.5061 14.9702 65.8365 14.8264C66.1668 14.6826 66.5166 14.6107 66.8858 14.6107ZM75.532 14.7215V15.3569L72.011 19.4551H75.5845V20.2421H70.8567V19.6125L74.4128 15.5084H70.9616V14.7215H75.532ZM79.4862 14.6107C80.2363 14.6107 80.8542 14.8769 81.34 15.4093C81.8297 15.9418 82.0765 16.6258 82.0804 17.4614C82.0804 17.5818 82.0746 17.6907 82.0629 17.7878H77.6382C77.6965 18.363 77.9064 18.808 78.2678 19.1228C78.6293 19.4337 79.0704 19.5892 79.5912 19.5892C80.2518 19.5892 80.8348 19.3579 81.34 18.8954L81.8064 19.4901C81.204 20.0652 80.4481 20.3528 79.5387 20.3528C78.7187 20.3528 78.0483 20.0886 77.5275 19.56C77.0067 19.0276 76.7463 18.3358 76.7463 17.4847C76.7463 16.6452 77.0048 15.9573 77.5217 15.421C78.0385 14.8808 78.6934 14.6107 79.4862 14.6107ZM79.4687 15.386C78.9713 15.386 78.5613 15.5415 78.2387 15.8524C77.9161 16.1633 77.7199 16.5733 77.6499 17.0824H81.1943C81.1399 16.5655 80.9553 16.1536 80.6405 15.8466C80.3296 15.5395 79.939 15.386 79.4687 15.386ZM86.424 14.6107C87.108 14.6107 87.6618 14.8128 88.0854 15.217C88.5129 15.6212 88.7266 16.1555 88.7266 16.8201V20.2421H87.858V17.1058C87.858 16.5811 87.7181 16.173 87.4383 15.8815C87.1624 15.5862 86.7718 15.4385 86.2666 15.4385C85.7885 15.4385 85.3863 15.594 85.0598 15.9049C84.7373 16.2119 84.576 16.62 84.576 17.1291V20.2421H83.7015V14.7215H84.5643V15.5084C84.7742 15.1975 85.0443 14.9702 85.3746 14.8264C85.705 14.6826 86.0548 14.6107 86.424 14.6107ZM93.024 14.6107C93.7741 14.6107 94.3921 14.8769 94.8778 15.4093C95.3675 15.9418 95.6143 16.6258 95.6182 17.4614C95.6182 17.5818 95.6124 17.6907 95.6007 17.7878L91.1761 17.7878C91.2344 18.363 91.4442 18.808 91.8057 19.1228C92.1671 19.4337 92.6082 19.5892 93.129 19.5892C93.7897 19.5892 94.3726 19.3579 94.8778 18.8954L95.3442 19.4901C94.7418 20.0652 93.9859 20.3528 93.0765 20.3528C92.2565 20.3528 91.5861 20.0886 91.0653 19.56C90.5445 19.0276 90.2841 18.3358 90.2841 17.4847C90.2841 16.6452 90.5426 15.9573 91.0595 15.421C91.5764 14.8808 92.2312 14.6107 93.024 14.6107ZM93.0066 15.386C92.5091 15.386 92.0991 15.5415 91.7765 15.8524C91.4539 16.1633 91.2577 16.5733 91.1877 17.0824L94.7321 17.0824C94.6777 16.5655 94.4931 16.1536 94.1783 15.8466C93.8674 15.5395 93.4768 15.386 93.0066 15.386Z" fill="#231F20"/>
<g clip-path="url(#clip1_214_14253)">
<path d="M104.495 23.2421L40.3701 23.2421V78.623H104.495V23.2421Z" fill="white"/>
<path d="M89.7268 50.7383L80.9824 65.8952" stroke="#231F20" stroke-width="0.971596"/>
<path d="M86.7157 50.7383L79.4287 63.2719" stroke="#231F20" stroke-width="0.971596"/>
<path d="M89.7268 50.7383L80.9824 35.6786" stroke="#231F20" stroke-width="0.971596"/>
<path d="M80.9829 65.8951H63.4941" stroke="#231F20" stroke-width="0.971596"/>
<path d="M80.9829 35.6786H63.4941" stroke="#231F20" stroke-width="0.971596"/>
<path d="M79.4284 38.3018H65.0488" stroke="#231F20" stroke-width="0.971596"/>
<path d="M63.4944 65.8952L54.75 50.7383" stroke="#231F20" stroke-width="0.971596"/>
<path d="M65.0487 63.2719L57.7617 50.7383" stroke="#231F20" stroke-width="0.971596"/>
<path d="M63.4944 35.6786L54.75 50.7383" stroke="#231F20" stroke-width="0.971596"/>
<path d="M89.3389 51.5155L89.7275 50.7382L89.3389 50.0581" stroke="#231F20" stroke-width="0.971596"/>
<path d="M81.3715 65.215L80.9828 65.8951H80.1084" stroke="#231F20" stroke-width="0.971596"/>
<path d="M81.3715 36.3587L80.9828 35.6786H80.1084" stroke="#231F20" stroke-width="0.971596"/>
<path d="M64.368 65.8951H63.4936L63.0078 65.215" stroke="#231F20" stroke-width="0.971596"/>
<path d="M64.3685 35.6786H63.4941L63.1055 36.3587" stroke="#231F20" stroke-width="0.971596"/>
<path d="M55.1386 51.5155L54.75 50.7382L55.1386 50.0581" stroke="#231F20" stroke-width="0.971596"/>
</g>
<path d="M0.932617 78.623H26.8794V90.7486H13.0581C6.3614 90.7486 0.932617 85.3198 0.932617 78.623V78.623Z" fill="white"/>
<rect x="26.8799" y="78.623" width="91.1064" height="12.1255" fill="white"/>
<path d="M117.985 78.623H143.932V78.623C143.932 85.3198 138.503 90.7486 131.807 90.7486H117.985V78.623Z" fill="white"/>
</g>
<rect x="1.68239" y="1.18165" width="141.5" height="84.5005" rx="3.13661" stroke="white" stroke-width="1.49954"/>
<defs>
<clipPath id="clip0_214_14253">
<rect x="0.932617" y="0.431885" width="143" height="86" rx="3.88638" fill="white"/>
</clipPath>
<clipPath id="clip1_214_14253">
<rect width="64.1253" height="55.381" fill="white" transform="translate(40.3701 23.2421)"/>
</clipPath>
</defs>
</svg>
