<svg width="144" height="87" viewBox="0 0 144 87" fill="none" xmlns="http://www.w3.org/2000/svg">
<g clip-path="url(#clip0_214_15117)">
<rect x="0.431641" y="0.431885" width="143" height="86" rx="3.88638" fill="white"/>
<path d="M0.431641 7.27034C0.431641 0.572901 5.86099 -4.85645 12.5584 -4.85645H26.3784V7.27034H0.431641V7.27034Z" fill="white"/>
<rect x="26.3789" y="-4.85645" width="91.1064" height="12.1268" fill="white"/>
<path d="M117.484 -4.85645H131.304C138.002 -4.85645 143.431 0.572901 143.431 7.27034V7.27034H117.484V-4.85645Z" fill="white"/>
<rect width="143" height="15" transform="translate(0.431641 7.27051)" fill="white"/>
<path d="M18.5801 12.8813L17.9272 12.3566C18.5334 11.455 19.3671 11.0042 20.428 11.0042C21.2364 11.0042 21.8718 11.2412 22.3343 11.7154C22.8007 12.1856 23.0339 12.79 23.0339 13.5284C23.0339 13.9831 22.9328 14.3931 22.7307 14.7584C22.5325 15.1237 22.2682 15.4832 21.9379 15.8369L19.5011 18.4136H23.302V19.2705H18.1662V18.5651L21.25 15.3122C21.8097 14.7254 22.0895 14.1308 22.0895 13.5284C22.0895 13.0426 21.9398 12.6442 21.6406 12.3333C21.3413 12.0185 20.9274 11.8611 20.3989 11.8611C19.9753 11.8611 19.6216 11.9524 19.3379 12.1351C19.0581 12.3178 18.8055 12.5665 18.5801 12.8813ZM27.8482 15.7903V16.5831H24.6069V15.7903H27.8482ZM38.3932 11.1091V19.2705H37.4547V12.1584L34.6099 18.3669H33.6247L30.7856 12.2051V19.2705H29.8471V11.1091H31.2695L34.1202 17.2768L36.965 11.1091H38.3932ZM42.9062 13.6391C43.6562 13.6391 44.2742 13.9054 44.76 14.4378C45.2496 14.9702 45.4964 15.6542 45.5003 16.4898C45.5003 16.6103 45.4945 16.7191 45.4828 16.8163H41.0582C41.1165 17.3914 41.3263 17.8364 41.6878 18.1512C42.0492 18.4621 42.4903 18.6176 43.0111 18.6176C43.6718 18.6176 44.2547 18.3864 44.76 17.9239L45.2263 18.5185C44.6239 19.0937 43.868 19.3813 42.9586 19.3813C42.1386 19.3813 41.4682 19.117 40.9474 18.5884C40.4266 18.056 40.1663 17.3642 40.1663 16.5131C40.1663 15.6737 40.4247 14.9858 40.9416 14.4494C41.4585 13.9092 42.1133 13.6391 42.9062 13.6391ZM42.8887 14.4145C42.3912 14.4145 41.9812 14.5699 41.6586 14.8808C41.3361 15.1917 41.1398 15.6018 41.0698 16.1109H44.6142C44.5598 15.594 44.3752 15.182 44.0604 14.875C43.7495 14.568 43.3589 14.4145 42.8887 14.4145ZM50.813 13.7499V14.5369H48.4287V17.3234C48.4287 17.7393 48.5278 18.0502 48.726 18.2562C48.9242 18.4621 49.1904 18.5651 49.5246 18.5651C49.9405 18.5651 50.3272 18.4349 50.6847 18.1745L51.0928 18.8333C50.6109 19.1986 50.0648 19.3813 49.4547 19.3813C48.8484 19.3813 48.3801 19.2122 48.0498 18.8741C47.7233 18.5321 47.5601 18.021 47.5601 17.3409V14.5369H46.3533V13.7499H47.5601V11.9952H48.4287V13.7499H50.813ZM53.222 10.8759V14.5194C53.4358 14.2163 53.7059 13.9947 54.0324 13.8548C54.3588 13.711 54.7047 13.6391 55.07 13.6391C55.754 13.6391 56.3078 13.8412 56.7315 14.2454C57.159 14.6496 57.3727 15.184 57.3727 15.8485V19.2705H56.5041V16.1342C56.5041 15.6095 56.3642 15.2015 56.0844 14.91C55.8084 14.6146 55.4179 14.4669 54.9126 14.4669C54.4346 14.4669 54.0324 14.6224 53.7059 14.9333C53.3833 15.2403 53.222 15.6484 53.222 16.1575V19.2705H52.3476V10.8759H53.222ZM64.2273 13.7499L59.7327 21.6257H58.7708L60.8286 18.0754L58.2928 13.7499H59.2663L61.3242 17.2127L63.2712 13.7499H64.2273ZM66.2133 10.8759V19.2705H65.3389V10.8759H66.2133ZM71.2967 15.7903V16.5831H68.0555V15.7903H71.2967ZM72.8111 12.8813L72.1581 12.3566C72.7644 11.455 73.5981 11.0042 74.659 11.0042C75.4674 11.0042 76.1028 11.2412 76.5653 11.7154C77.0317 12.1856 77.2649 12.79 77.2649 13.5284C77.2649 13.9831 77.1638 14.3931 76.9617 14.7584C76.7635 15.1237 76.4992 15.4832 76.1689 15.8369L73.7321 18.4136H77.533V19.2705H72.3972V18.5651L75.481 15.3122C76.0406 14.7254 76.3205 14.1308 76.3205 13.5284C76.3205 13.0426 76.1708 12.6442 75.8716 12.3333C75.5723 12.0185 75.1584 11.8611 74.6299 11.8611C74.2063 11.8611 73.8526 11.9524 73.5689 12.1351C73.2891 12.3178 73.0365 12.5665 72.8111 12.8813ZM82.0792 15.7903V16.5831H78.8379V15.7903H82.0792ZM86.8063 13.6391C87.5875 13.6391 88.2423 13.9112 88.7709 14.4553C89.2994 14.9994 89.5637 15.6834 89.5637 16.5073C89.5637 17.3312 89.2994 18.0171 88.7709 18.5651C88.2423 19.1092 87.5875 19.3813 86.8063 19.3813C85.9474 19.3813 85.277 19.0723 84.7951 18.4544V19.2705H83.9207V10.8759H84.7951V14.566C85.277 13.9481 85.9474 13.6391 86.8063 13.6391ZM86.7014 14.4553C86.1301 14.4553 85.6598 14.6515 85.2906 15.0441C84.9214 15.4327 84.7368 15.9204 84.7368 16.5073C84.7368 17.098 84.9214 17.5896 85.2906 17.9822C85.6598 18.3708 86.1301 18.5651 86.7014 18.5651C87.2843 18.5651 87.7585 18.3689 88.1238 17.9763C88.4891 17.5799 88.6718 17.0902 88.6718 16.5073C88.6718 15.9282 88.4872 15.4424 88.118 15.0499C87.7488 14.6535 87.2766 14.4553 86.7014 14.4553ZM96.1342 13.7499V16.9678C96.1342 17.3642 96.0662 17.7198 95.9302 18.0346C95.7941 18.3455 95.6095 18.5982 95.3763 18.7925C95.1432 18.9868 94.8769 19.1345 94.5777 19.2355C94.2823 19.3327 93.9656 19.3813 93.6275 19.3813C93.2855 19.3813 92.9648 19.3327 92.6656 19.2355C92.3702 19.1345 92.106 18.9868 91.8728 18.7925C91.6396 18.5982 91.455 18.3455 91.319 18.0346C91.1868 17.7198 91.1208 17.3642 91.1208 16.9678V13.7499H91.9894V16.8862C91.9894 17.4381 92.139 17.8559 92.4382 18.1396C92.7375 18.4233 93.1339 18.5651 93.6275 18.5651C94.121 18.5651 94.5155 18.4233 94.8109 18.1396C95.1101 17.8559 95.2598 17.4381 95.2598 16.8862V13.7499H96.1342ZM101.856 13.7499V14.5369H99.4716V17.3234C99.4716 17.7393 99.5707 18.0502 99.7689 18.2562C99.9671 18.4621 100.233 18.5651 100.568 18.5651C100.983 18.5651 101.37 18.4349 101.728 18.1745L102.136 18.8333C101.654 19.1986 101.108 19.3813 100.498 19.3813C99.8914 19.3813 99.423 19.2122 99.0927 18.8741C98.7662 18.5321 98.603 18.021 98.603 17.3409V14.5369H97.3963V13.7499H98.603V11.9952H99.4716V13.7499H101.856ZM105.688 13.6391C106.438 13.6391 107.056 13.9054 107.542 14.4378C108.031 14.9702 108.278 15.6542 108.282 16.4898C108.282 16.6103 108.276 16.7191 108.265 16.8163H103.84C103.898 17.3914 104.108 17.8364 104.47 18.1512C104.831 18.4621 105.272 18.6176 105.793 18.6176C106.454 18.6176 107.037 18.3864 107.542 17.9239L108.008 18.5185C107.406 19.0937 106.65 19.3813 105.74 19.3813C104.92 19.3813 104.25 19.117 103.729 18.5884C103.208 18.056 102.948 17.3642 102.948 16.5131C102.948 15.6737 103.206 14.9858 103.723 14.4494C104.24 13.9092 104.895 13.6391 105.688 13.6391ZM105.67 14.4145C105.173 14.4145 104.763 14.5699 104.44 14.8808C104.118 15.1917 103.922 15.6018 103.852 16.1109H107.396C107.342 15.594 107.157 15.182 106.842 14.875C106.531 14.568 106.141 14.4145 105.67 14.4145ZM112.626 13.6391C113.31 13.6391 113.864 13.8412 114.287 14.2454C114.715 14.6496 114.928 15.184 114.928 15.8485V19.2705H114.06V16.1342C114.06 15.6095 113.92 15.2015 113.64 14.91C113.364 14.6146 112.974 14.4669 112.468 14.4669C111.99 14.4669 111.588 14.6224 111.262 14.9333C110.939 15.2403 110.778 15.6484 110.778 16.1575V19.2705H109.903V13.7499H110.766V14.5369C110.976 14.226 111.246 13.9986 111.576 13.8548C111.907 13.711 112.256 13.6391 112.626 13.6391ZM122.129 13.7499V19.2705H121.26V18.4485C120.778 19.0704 120.106 19.3813 119.243 19.3813C118.462 19.3813 117.807 19.1092 117.279 18.5651C116.75 18.0171 116.486 17.3312 116.486 16.5073C116.486 15.6834 116.75 14.9994 117.279 14.4553C117.807 13.9112 118.462 13.6391 119.243 13.6391C120.102 13.6391 120.775 13.95 121.26 14.5719V13.7499H122.129ZM119.348 14.4553C118.765 14.4553 118.289 14.6535 117.92 15.0499C117.555 15.4424 117.372 15.9282 117.372 16.5073C117.372 17.0864 117.557 17.5741 117.926 17.9705C118.295 18.3669 118.769 18.5651 119.348 18.5651C119.919 18.5651 120.39 18.3708 120.759 17.9822C121.128 17.5896 121.313 17.098 121.313 16.5073C121.313 15.9204 121.128 15.4327 120.759 15.0441C120.39 14.6515 119.919 14.4553 119.348 14.4553ZM125.044 10.8759V19.2705H124.17V10.8759H125.044Z" fill="#231F20"/>
<g clip-path="url(#clip1_214_15117)">
<path d="M121.969 22.2705L21.8945 22.2705V79.5947H121.969V22.2705Z" fill="white"/>
<path d="M98.9416 36.3586L90.1973 51.5155" stroke="#231F20" stroke-width="0.971596"/>
<path d="M63.9648 66.6725L72.7092 51.5156" stroke="#231F20" stroke-width="0.971596"/>
<path d="M90.1977 51.5156H72.709" stroke="#231F20" stroke-width="0.971596"/>
<path d="M88.7405 48.8921H74.2637" stroke="#231F20" stroke-width="0.971596"/>
<path d="M63.9648 36.3586L72.7092 51.5155" stroke="#231F20" stroke-width="0.971596"/>
<path d="M63.9647 36.3586H56.6777" stroke="#231F20" stroke-width="0.971596"/>
<path d="M56.6776 36.3586H49.3906" stroke="#FF6A00" stroke-width="0.971596"/>
<path d="M62.5073 38.9819H56.6777" stroke="#231F20" stroke-width="0.971596"/>
<path d="M56.6776 38.9819H49.3906" stroke="#FF6A00" stroke-width="0.971596"/>
<path d="M90.6835 50.7383L90.1977 51.5156H89.3232" stroke="#231F20" stroke-width="0.971596"/>
<path d="M64.4506 37.1359L63.9648 36.3586H63.5762" stroke="#231F20" stroke-width="0.971596"/>
<path d="M44.2412 37.6216C44.2412 36.8443 44.4355 36.229 44.8242 35.7756C45.2128 35.3222 45.7634 35.0955 46.4759 35.0955C47.2532 35.0955 47.8361 35.3222 48.2248 35.7756C48.6134 36.229 48.8077 36.8443 48.8077 37.6216C48.8077 38.4637 48.581 39.1114 48.1276 39.5648C47.739 40.0182 47.1884 40.2449 46.4759 40.2449C45.7634 40.2449 45.2128 40.0182 44.8242 39.5648C44.4355 39.1114 44.2412 38.4637 44.2412 37.6216ZM46.4759 39.662C46.9941 39.662 47.3827 39.5 47.6418 39.1762C47.9009 38.8523 48.0304 38.3341 48.0304 37.6216C48.0304 36.9739 47.9009 36.4881 47.6418 36.1642C47.3827 35.8403 46.9941 35.6784 46.4759 35.6784C45.9577 35.6784 45.5691 35.8403 45.31 36.1642C45.0509 36.4881 44.9213 36.9739 44.9213 37.6216C44.9213 38.3341 45.0509 38.8523 45.31 39.1762C45.5691 39.5 45.9577 39.662 46.4759 39.662Z" fill="#FF6A00"/>
</g>
<path d="M0.431641 79.5945H26.3784V91.72H12.5572C5.86043 91.72 0.431641 86.2912 0.431641 79.5945V79.5945Z" fill="white"/>
<rect x="26.3789" y="79.5945" width="91.1064" height="12.1255" fill="white"/>
<path d="M117.484 79.5945H143.431V79.5945C143.431 86.2912 138.002 91.72 131.306 91.72H117.484V79.5945Z" fill="white"/>
</g>
<rect x="1.18141" y="1.18165" width="141.5" height="84.5005" rx="3.13661" stroke="white" stroke-width="1.49954"/>
<defs>
<clipPath id="clip0_214_15117">
<rect x="0.431641" y="0.431885" width="143" height="86" rx="3.88638" fill="white"/>
</clipPath>
<clipPath id="clip1_214_15117">
<rect width="100.074" height="57.3242" fill="white" transform="translate(21.8945 22.2705)"/>
</clipPath>
</defs>
</svg>
