<svg width="144" height="88" viewBox="0 0 144 88" fill="none" xmlns="http://www.w3.org/2000/svg">
<g clip-path="url(#clip0_214_14457)">
<rect x="0.245117" y="0.431885" width="143" height="87" rx="3.88638" fill="white"/>
<path d="M0.245117 9.22786C0.245117 2.53042 5.67446 -2.89893 12.3719 -2.89893L26.1919 -2.89893V9.22786L0.245117 9.22786V9.22786Z" fill="white"/>
<rect x="26.1924" y="-2.89893" width="91.1064" height="12.1268" fill="white"/>
<path d="M117.298 -2.89893H131.118C137.815 -2.89893 143.245 2.53042 143.245 9.22786V9.22786H117.298V-2.89893Z" fill="white"/>
<rect width="143" height="15" transform="translate(0.245117 9.22778)" fill="white"/>
<path d="M55.35 16.6749V17.561H50.8613V21.2278H49.9227V13.0664H55.5716V13.9525H50.8613V16.6749H55.35ZM62.0699 15.7072V18.9251C62.0699 19.3215 62.0019 19.6771 61.8659 19.9919C61.7298 20.3028 61.5452 20.5554 61.312 20.7498C61.0789 20.9441 60.8126 21.0918 60.5134 21.1928C60.218 21.29 59.9013 21.3385 59.5632 21.3385C59.2212 21.3385 58.9005 21.29 58.6013 21.1928C58.3059 21.0918 58.0417 20.9441 57.8085 20.7498C57.5753 20.5554 57.3907 20.3028 57.2547 19.9919C57.1225 19.6771 57.0565 19.3215 57.0565 18.9251V15.7072H57.9251V18.8435C57.9251 19.3954 58.0747 19.8131 58.3739 20.0968C58.6732 20.3806 59.0696 20.5224 59.5632 20.5224C60.0567 20.5224 60.4512 20.3806 60.7466 20.0968C61.0458 19.8131 61.1955 19.3954 61.1955 18.8435V15.7072H62.0699ZM66.5441 15.5964C66.9483 15.5964 67.2864 15.6586 67.5584 15.783L67.3486 16.6399C67.0765 16.4922 66.7578 16.4184 66.3925 16.4184C65.9572 16.4184 65.6016 16.5758 65.3257 16.8906C65.0498 17.2054 64.9118 17.6212 64.9118 18.1381V21.2278H64.0432V15.7072H64.906V16.4825C65.0964 16.1988 65.3315 15.9812 65.6114 15.8296C65.8951 15.6741 66.206 15.5964 66.5441 15.5964ZM72.6162 15.7072V16.4942H70.4185V21.2278H69.544V16.4942H68.2849V15.7072H69.544V14.7628C69.544 14.1371 69.6937 13.6416 69.9929 13.2762C70.2922 12.907 70.7546 12.7224 71.3804 12.7224C71.9361 12.7224 72.4394 12.8604 72.8902 13.1363L72.5754 13.865C72.2062 13.6474 71.8273 13.5386 71.4387 13.5386C70.7585 13.5386 70.4185 13.9466 70.4185 14.7628V15.7072H72.6162ZM78.8868 15.7072V18.9251C78.8868 19.3215 78.8188 19.6771 78.6828 19.9919C78.5468 20.3028 78.3622 20.5554 78.129 20.7498C77.8958 20.9441 77.6296 21.0918 77.3304 21.1928C77.035 21.29 76.7182 21.3385 76.3801 21.3385C76.0381 21.3385 75.7175 21.29 75.4183 21.1928C75.1229 21.0918 74.8586 20.9441 74.6254 20.7498C74.3922 20.5554 74.2076 20.3028 74.0716 19.9919C73.9395 19.6771 73.8734 19.3215 73.8734 18.9251V15.7072H74.742V18.8435C74.742 19.3954 74.8916 19.8131 75.1909 20.0968C75.4901 20.3806 75.8866 20.5224 76.3801 20.5224C76.8737 20.5224 77.2682 20.3806 77.5635 20.0968C77.8628 19.8131 78.0124 19.3954 78.0124 18.8435V15.7072H78.8868ZM83.361 15.5964C83.7652 15.5964 84.1033 15.6586 84.3754 15.783L84.1655 16.6399C83.8935 16.4922 83.5748 16.4184 83.2095 16.4184C82.7742 16.4184 82.4186 16.5758 82.1427 16.8906C81.8667 17.2054 81.7288 17.6212 81.7288 18.1381V21.2278H80.8602V15.7072H81.7229V16.4825C81.9134 16.1988 82.1485 15.9812 82.4283 15.8296C82.712 15.6741 83.0229 15.5964 83.361 15.5964ZM90.6947 15.7072V21.2278H89.8261V20.4058C89.3442 21.0276 88.6719 21.3385 87.8091 21.3385C87.0279 21.3385 86.3731 21.0665 85.8445 20.5224C85.316 19.9744 85.0517 19.2885 85.0517 18.4646C85.0517 17.6407 85.316 16.9566 85.8445 16.4126C86.3731 15.8685 87.0279 15.5964 87.8091 15.5964C88.668 15.5964 89.3403 15.9073 89.8261 16.5291V15.7072H90.6947ZM87.914 16.4126C87.3311 16.4126 86.855 16.6108 86.4858 17.0072C86.1205 17.3997 85.9378 17.8855 85.9378 18.4646C85.9378 19.0436 86.1224 19.5314 86.4916 19.9278C86.8608 20.3242 87.335 20.5224 87.914 20.5224C88.4853 20.5224 88.9556 20.3281 89.3248 19.9394C89.694 19.5469 89.8786 19.0553 89.8786 18.4646C89.8786 17.8777 89.694 17.39 89.3248 17.0013C88.9556 16.6088 88.4853 16.4126 87.914 16.4126ZM93.6101 12.8332V21.2278H92.7356V12.8332H93.6101Z" fill="#231F20"/>
<g clip-path="url(#clip1_214_14457)">
<path d="M125.183 24.2278L18.3076 24.2278V78.6371H125.183V24.2278Z" fill="white"/>
<path d="M46.5811 64.9376L64.0698 66.2007" stroke="#231F20" stroke-width="0.971596"/>
<path d="M46.5812 64.9376L42.4033 47.9347" stroke="#231F20" stroke-width="0.971596"/>
<path d="M48.7185 62.5086L45.415 49.1978" stroke="#231F20" stroke-width="0.971596"/>
<path d="M64.0693 66.2008L70.6762 50.0723" stroke="#231F20" stroke-width="0.971596"/>
<path d="M62.3203 63.4802L67.4698 50.8495" stroke="#231F20" stroke-width="0.971596"/>
<path d="M42.4033 47.9347L48.4272 44.2427" stroke="#231F20" stroke-width="0.971596"/>
<path d="M48.4268 44.2427L54.4507 40.5507" stroke="#FF6A00" stroke-width="0.971596"/>
<path d="M87.5825 45.8944L70.6768 50.0723" stroke="#231F20" stroke-width="0.971596"/>
<path d="M87.582 45.8944L92.2457 50.6552" stroke="#231F20" stroke-width="0.971596"/>
<path d="M92.2461 50.6552L96.9098 55.5131" stroke="#FF6A00" stroke-width="0.971596"/>
<path d="M86.8047 48.8092L90.3996 52.5013" stroke="#231F20" stroke-width="0.971596"/>
<path d="M90.4004 52.5012L94.9669 57.3592" stroke="#FF6A00" stroke-width="0.971596"/>
<path d="M70.6763 50.0722L65.4297 45.6029" stroke="#231F20" stroke-width="0.971596"/>
<path d="M65.4297 45.6029L60.0859 41.1335" stroke="#FF6A00" stroke-width="0.971596"/>
<path d="M47.4555 65.0348L46.581 64.9377L46.3867 64.0632" stroke="#231F20" stroke-width="0.971596"/>
<path d="M63.1953 66.2007H64.0697L64.3612 65.4235" stroke="#231F20" stroke-width="0.971596"/>
<path d="M42.5976 48.8091L42.4033 47.9347L42.6948 47.7404" stroke="#231F20" stroke-width="0.971596"/>
<path d="M86.8047 46.0887L87.582 45.8944L87.8734 46.0887" stroke="#231F20" stroke-width="0.971596"/>
<path d="M96.5215 59.3996C96.5215 58.6223 96.7158 58.0069 97.1044 57.5535C97.4931 57.1001 98.0437 56.8734 98.7562 56.8734C99.5334 56.8734 100.116 57.1001 100.505 57.5535C100.894 58.0069 101.088 58.6223 101.088 59.3996C101.088 60.1768 100.894 60.7922 100.505 61.2456C100.116 61.699 99.5334 61.9257 98.7562 61.9257C98.0437 61.9257 97.4931 61.699 97.1044 61.2456C96.7158 60.7922 96.5215 60.1768 96.5215 59.3996ZM98.7562 61.4399C99.2743 61.4399 99.663 61.2456 99.9221 60.857C100.246 60.5331 100.408 60.0473 100.408 59.3996C100.408 58.7518 100.246 58.266 99.9221 57.9422C99.663 57.6183 99.2743 57.4564 98.7562 57.4564C98.3027 57.4564 97.9141 57.6183 97.5902 57.9422C97.3311 58.266 97.2016 58.7518 97.2016 59.3996C97.2016 60.0473 97.3311 60.5331 97.5902 60.857C97.9141 61.2456 98.3027 61.4399 98.7562 61.4399Z" fill="#FF6A00"/>
<path d="M55.0342 38.8018C55.0342 37.9597 55.2285 37.3444 55.6171 36.9558C56.0058 36.5023 56.5563 36.2756 57.2688 36.2756C57.9814 36.2756 58.5643 36.5023 59.0177 36.9558C59.4064 37.3444 59.6007 37.9597 59.6007 38.8018C59.6007 39.5791 59.374 40.1944 58.9206 40.6478C58.5319 41.1012 57.9814 41.3279 57.2688 41.3279C56.5563 41.3279 56.0058 41.1012 55.6171 40.6478C55.2285 40.1944 55.0342 39.5791 55.0342 38.8018ZM57.2688 40.745C57.787 40.745 58.1757 40.583 58.4348 40.2592C58.6939 39.9353 58.8234 39.4495 58.8234 38.8018C58.8234 38.1541 58.6939 37.6683 58.4348 37.3444C58.1757 36.9558 57.787 36.7614 57.2688 36.7614C56.7507 36.7614 56.362 36.9558 56.1029 37.3444C55.8438 37.6683 55.7143 38.1541 55.7143 38.8018C55.7143 39.4495 55.8438 39.9353 56.1029 40.2592C56.362 40.583 56.7507 40.745 57.2688 40.745Z" fill="#FF6A00"/>
</g>
<path d="M0.245117 78.6372H26.1919V90.7627H12.3706C5.6739 90.7627 0.245117 85.3339 0.245117 78.6372V78.6372Z" fill="white"/>
<rect x="26.1924" y="78.6372" width="91.1064" height="12.1255" fill="white"/>
<path d="M117.298 78.6372H143.245V78.6372C143.245 85.3339 137.816 90.7627 131.119 90.7627H117.298V78.6372Z" fill="white"/>
</g>
<rect x="0.994886" y="1.18165" width="141.5" height="85.5005" rx="3.13661" stroke="white" stroke-width="1.49954"/>
<defs>
<clipPath id="clip0_214_14457">
<rect x="0.245117" y="0.431885" width="143" height="87" rx="3.88638" fill="white"/>
</clipPath>
<clipPath id="clip1_214_14457">
<rect width="106.876" height="54.4094" fill="white" transform="translate(18.3076 24.2278)"/>
</clipPath>
</defs>
</svg>
