<svg width="143" height="87" viewBox="0 0 143 87" fill="none" xmlns="http://www.w3.org/2000/svg">
<g clip-path="url(#clip0_214_15165)">
<rect x="0.181641" y="0.431885" width="142" height="86" rx="3.88638" fill="white"/>
<path d="M0.181641 1.92659C0.181641 -4.77085 5.61099 -10.2002 12.3084 -10.2002L26.1284 -10.2002V1.92659L0.181641 1.92659V1.92659Z" fill="white"/>
<rect x="26.1289" y="-10.2002" width="90.1064" height="12.1268" fill="white"/>
<path d="M116.234 -10.2002L130.054 -10.2002C136.752 -10.2002 142.181 -4.77085 142.181 1.92659V1.92659L116.234 1.92659V-10.2002Z" fill="white"/>
<rect width="142" height="15" transform="translate(0.181641 1.92676)" fill="white"/>
<path d="M47.6372 5.66042C48.4417 5.66042 49.0927 5.86834 49.5901 6.28418C50.0876 6.69614 50.3363 7.23246 50.3363 7.89315C50.3363 8.35951 50.2236 8.75204 49.9982 9.07072C49.7728 9.3894 49.4599 9.63425 49.0597 9.80525C49.5066 9.96848 49.8602 10.2153 50.1206 10.5456C50.3849 10.8759 50.517 11.2743 50.517 11.7407C50.517 12.0438 50.4646 12.3217 50.3596 12.5743C50.2586 12.8269 50.1187 13.0426 49.9399 13.2214C49.765 13.3963 49.5591 13.5459 49.322 13.6703C49.0849 13.7946 48.8304 13.886 48.5583 13.9442C48.2863 14.0025 48.0045 14.0317 47.713 14.0317C47.1534 14.0317 46.6482 13.9384 46.1973 13.7519C45.7465 13.5653 45.3695 13.3011 45.0664 12.959L45.6435 12.3586C45.9 12.6229 46.2051 12.8289 46.5588 12.9765C46.9163 13.1203 47.2952 13.1922 47.6955 13.1922C48.2357 13.1922 48.6846 13.064 49.0422 12.8075C49.3997 12.551 49.5785 12.1818 49.5785 11.6999C49.5785 11.2413 49.39 10.8798 49.013 10.6156C48.6399 10.3513 48.1716 10.2191 47.6081 10.2191H46.5354V9.39718H47.6023C48.1269 9.39718 48.5564 9.27087 48.8906 9.01825C49.2287 8.76564 49.3978 8.40615 49.3978 7.93978C49.3978 7.50839 49.2268 7.16056 48.8848 6.89629C48.5428 6.63202 48.1094 6.49988 47.5848 6.49988C47.2 6.49988 46.8522 6.58732 46.5413 6.76221C46.2343 6.93321 45.9816 7.15473 45.7834 7.42678L45.1363 6.87297C45.3851 6.50376 45.7232 6.21034 46.1507 5.99271C46.5782 5.77118 47.0737 5.66042 47.6372 5.66042ZM55.2348 10.4465V11.2393L51.9936 11.2393V10.4465L55.2348 10.4465ZM60.9763 5.64876C61.6875 5.64876 62.3404 5.80033 62.935 6.10347C63.5297 6.40272 63.9863 6.81468 64.305 7.33934L63.5238 7.864C63.2518 7.45593 62.8923 7.1353 62.4454 6.90212C61.9984 6.66894 61.5087 6.55234 60.9763 6.55234C60.5216 6.55234 60.096 6.63396 59.6996 6.79719C59.3032 6.95653 58.9612 7.17805 58.6736 7.46176C58.386 7.74546 58.1587 8.0933 57.9916 8.50525C57.8283 8.91721 57.7467 9.36414 57.7467 9.84605C57.7467 10.328 57.8283 10.7749 57.9916 11.1869C58.1587 11.5988 58.386 11.9466 58.6736 12.2304C58.9612 12.5141 59.3032 12.7375 59.6996 12.9008C60.096 13.0601 60.5216 13.1398 60.9763 13.1398C61.5126 13.1398 62.0023 13.0251 62.4454 12.7958C62.8884 12.5665 63.2479 12.2459 63.5238 11.8339L64.2817 12.3936C63.9397 12.9066 63.4772 13.3108 62.8942 13.6061C62.3152 13.8976 61.6759 14.0433 60.9763 14.0433C60.3778 14.0433 59.8182 13.9384 59.2974 13.7286C58.7766 13.5187 58.3297 13.2311 57.9566 12.8658C57.5874 12.4966 57.2959 12.0516 57.0822 11.5308C56.8684 11.01 56.7615 10.4484 56.7615 9.84605C56.7615 9.24367 56.8684 8.68208 57.0822 8.16131C57.2959 7.64053 57.5874 7.19748 57.9566 6.83216C58.3297 6.46296 58.7766 6.17342 59.2974 5.96356C59.8182 5.75369 60.3778 5.64876 60.9763 5.64876ZM71.1123 8.40615V13.9268H70.2437V13.1048C69.7618 13.7266 69.0894 14.0375 68.2267 14.0375C67.4455 14.0375 66.7906 13.7655 66.2621 13.2214C65.7335 12.6734 65.4693 11.9875 65.4693 11.1635C65.4693 10.3396 65.7335 9.65562 66.2621 9.11153C66.7906 8.56743 67.4455 8.29539 68.2267 8.29539C69.0856 8.29539 69.7579 8.6063 70.2437 9.22812V8.40615H71.1123ZM68.3316 9.11153C67.7486 9.11153 67.2726 9.30973 66.9033 9.70614C66.538 10.0987 66.3554 10.5845 66.3554 11.1635C66.3554 11.7426 66.54 12.2304 66.9092 12.6268C67.2784 13.0232 67.7525 13.2214 68.3316 13.2214C68.9029 13.2214 69.3731 13.0271 69.7423 12.6384C70.1116 12.2459 70.2962 11.7543 70.2962 11.1635C70.2962 10.5767 70.1116 10.089 69.7423 9.70032C69.3731 9.30779 68.9029 9.11153 68.3316 9.11153ZM75.6541 8.29539C76.0583 8.29539 76.3964 8.35757 76.6684 8.48193L76.4586 9.33888C76.1865 9.1912 75.8678 9.11736 75.5025 9.11736C75.0672 9.11736 74.7116 9.27476 74.4357 9.58955C74.1598 9.90435 74.0218 10.3202 74.0218 10.8371V13.9268L73.1532 13.9268V8.40615H74.016V9.18148C74.2064 8.89778 74.4415 8.68014 74.7214 8.52857C75.0051 8.37312 75.316 8.29539 75.6541 8.29539ZM80.0847 8.29539C80.8347 8.29539 81.4527 8.5616 81.9385 9.09404C82.4281 9.62647 82.6749 10.3105 82.6788 11.1461C82.6788 11.2665 82.673 11.3753 82.6613 11.4725H78.2367C78.295 12.0477 78.5048 12.4927 78.8663 12.8075C79.2277 13.1184 79.6688 13.2738 80.1896 13.2738C80.8503 13.2738 81.4332 13.0426 81.9385 12.5801L82.4048 13.1747C81.8024 13.7499 81.0465 14.0375 80.1371 14.0375C79.3171 14.0375 78.6467 13.7732 78.1259 13.2447C77.6051 12.7123 77.3448 12.0205 77.3448 11.1694C77.3448 10.3299 77.6032 9.64202 78.1201 9.1057C78.637 8.56549 79.2918 8.29539 80.0847 8.29539ZM80.0672 9.07072C79.5697 9.07072 79.1597 9.22618 78.8371 9.53709C78.5146 9.848 78.3183 10.258 78.2483 10.7671H81.7927C81.7383 10.2502 81.5537 9.83828 81.2389 9.53126C80.928 9.22423 80.5374 9.07072 80.0672 9.07072ZM87.0224 8.29539C87.7064 8.29539 88.2602 8.49748 88.6838 8.90166C89.1113 9.30585 89.3251 9.84023 89.3251 10.5048V13.9268H88.4565V10.7904C88.4565 10.2658 88.3166 9.85771 88.0367 9.56624C87.7608 9.27087 87.3702 9.12319 86.865 9.12319C86.387 9.12319 85.9847 9.27864 85.6583 9.58955C85.3357 9.89658 85.1744 10.3046 85.1744 10.8138V13.9268H84.3V8.40615H85.1628V9.19314C85.3726 8.88223 85.6427 8.65488 85.9731 8.51108C86.3034 8.36729 86.6532 8.29539 87.0224 8.29539ZM93.6225 8.29539C94.3725 8.29539 94.9905 8.5616 95.4763 9.09404C95.966 9.62647 96.2127 10.3105 96.2166 11.1461C96.2166 11.2665 96.2108 11.3753 96.1991 11.4725L91.7745 11.4725C91.8328 12.0477 92.0427 12.4927 92.4041 12.8075C92.7655 13.1184 93.2066 13.2738 93.7274 13.2738C94.3881 13.2738 94.971 13.0426 95.4763 12.5801L95.9426 13.1747C95.3403 13.7499 94.5844 14.0375 93.6749 14.0375C92.8549 14.0375 92.1845 13.7732 91.6637 13.2447C91.143 12.7123 90.8826 12.0205 90.8826 11.1694C90.8826 10.3299 91.141 9.64202 91.6579 9.1057C92.1748 8.56549 92.8297 8.29539 93.6225 8.29539ZM93.605 9.07072C93.1075 9.07072 92.6975 9.22618 92.3749 9.53709C92.0524 9.848 91.8561 10.258 91.7862 10.7671L95.3305 10.7671C95.2761 10.2502 95.0915 9.83828 94.7767 9.53126C94.4658 9.22423 94.0752 9.07072 93.605 9.07072Z" fill="#231F20"/>
<g clip-path="url(#clip1_214_15165)">
<path d="M140.651 16.9268L1.71289 16.9268V84.9385L140.651 84.9385V16.9268Z" fill="white"/>
<path d="M108.783 40.0508L92.46 46.1718" stroke="#231F20" stroke-width="0.971596"/>
<path d="M32.9004 58.7053L46.2113 47.3376" stroke="#231F20" stroke-width="0.971596"/>
<path d="M37.2725 32.2781L46.2111 47.3378" stroke="#231F20" stroke-width="0.971596"/>
<path d="M89.5445 63.3691L73.2217 69.5874" stroke="#231F20" stroke-width="0.971596"/>
<path d="M89.5459 63.3691L92.4607 46.1719" stroke="#231F20" stroke-width="0.971596"/>
<path d="M87.2129 61.5229L89.5447 47.2405" stroke="#231F20" stroke-width="0.971596"/>
<path d="M73.223 69.5872L59.7178 58.4138" stroke="#231F20" stroke-width="0.971596"/>
<path d="M78.9551 35.0955L92.4603 46.1717" stroke="#231F20" stroke-width="0.971596"/>
<path d="M78.9542 35.0955L62.5342 41.2165" stroke="#231F20" stroke-width="0.971596"/>
<path d="M59.7178 58.4138L62.5354 41.2166" stroke="#231F20" stroke-width="0.971596"/>
<path d="M59.7171 58.4138L46.2119 47.3376" stroke="#231F20" stroke-width="0.971596"/>
<path d="M62.5347 41.2166L46.2119 47.3376" stroke="#231F20" stroke-width="0.971596"/>
<path d="M88.7676 63.7577L89.5449 63.3691L89.7392 62.5918" stroke="#231F20" stroke-width="0.971596"/>
<path d="M74.0004 69.2959L73.2231 69.5874L72.543 69.0044" stroke="#231F20" stroke-width="0.971596"/>
<path d="M79.6346 35.5813L78.9545 35.0955L78.0801 35.3869" stroke="#231F20" stroke-width="0.971596"/>
</g>
<path d="M0.181641 84.9385H26.1284V97.064H12.3072C5.61043 97.064 0.181641 91.6352 0.181641 84.9385V84.9385Z" fill="white"/>
<rect x="26.1289" y="84.9385" width="90.1064" height="12.1255" fill="white"/>
<path d="M116.234 84.9385H142.181V84.9385C142.181 91.6352 136.752 97.064 130.056 97.064H116.234V84.9385Z" fill="white"/>
</g>
<rect x="0.93141" y="1.18165" width="140.5" height="84.5005" rx="3.13661" stroke="white" stroke-width="1.49954"/>
<defs>
<clipPath id="clip0_214_15165">
<rect x="0.181641" y="0.431885" width="142" height="86" rx="3.88638" fill="white"/>
</clipPath>
<clipPath id="clip1_214_15165">
<rect width="138.938" height="68.0117" fill="white" transform="translate(1.71289 16.9268)"/>
</clipPath>
</defs>
</svg>
