<svg width="145" height="87" viewBox="0 0 145 87" fill="none" xmlns="http://www.w3.org/2000/svg">
<g clip-path="url(#clip0_214_14901)">
<rect x="0.431641" y="0.431885" width="144" height="86" rx="3.88638" fill="white"/>
<path d="M0.431641 8.72786C0.431641 2.03042 5.86099 -3.39893 12.5584 -3.39893H26.3784V8.72786H0.431641V8.72786Z" fill="white"/>
<rect x="26.3789" y="-3.39893" width="92.1064" height="12.1268" fill="white"/>
<path d="M118.484 -3.39893H132.304C139.002 -3.39893 144.431 2.03042 144.431 8.72786V8.72786H118.484V-3.39893Z" fill="white"/>
<rect width="144" height="15" transform="translate(0.431641 8.72778)" fill="white"/>
<path d="M56.0365 16.1749V17.061H51.5478V20.7278H50.6092V12.5664H56.2581V13.4525H51.5478V16.1749H56.0365ZM62.7564 15.2072V18.4251C62.7564 18.8215 62.6884 19.1771 62.5524 19.4919C62.4164 19.8028 62.2317 20.0554 61.9986 20.2498C61.7654 20.4441 61.4992 20.5918 61.1999 20.6928C60.9045 20.79 60.5878 20.8385 60.2497 20.8385C59.9077 20.8385 59.5871 20.79 59.2878 20.6928C58.9924 20.5918 58.7282 20.4441 58.495 20.2498C58.2618 20.0554 58.0772 19.8028 57.9412 19.4919C57.809 19.1771 57.743 18.8215 57.743 18.4251V15.2072H58.6116V18.3435C58.6116 18.8954 58.7612 19.3131 59.0605 19.5968C59.3597 19.8806 59.7561 20.0224 60.2497 20.0224C60.7433 20.0224 61.1377 19.8806 61.4331 19.5968C61.7323 19.3131 61.882 18.8954 61.882 18.3435V15.2072H62.7564ZM67.2306 15.0964C67.6348 15.0964 67.9729 15.1586 68.245 15.283L68.0351 16.1399C67.763 15.9922 67.4444 15.9184 67.079 15.9184C66.6438 15.9184 66.2882 16.0758 66.0122 16.3906C65.7363 16.7054 65.5983 17.1212 65.5983 17.6381V20.7278H64.7297V15.2072H65.5925V15.9825C65.7829 15.6988 66.0181 15.4812 66.2979 15.3296C66.5816 15.1741 66.8925 15.0964 67.2306 15.0964ZM73.3028 15.2072V15.9942H71.105V20.7278H70.2306V15.9942H68.9714V15.2072H70.2306V14.2628C70.2306 13.6371 70.3802 13.1416 70.6794 12.7762C70.9787 12.407 71.4412 12.2224 72.0669 12.2224C72.6226 12.2224 73.1259 12.3604 73.5767 12.6363L73.2619 13.365C72.8927 13.1474 72.5138 13.0386 72.1252 13.0386C71.4451 13.0386 71.105 13.4466 71.105 14.2628V15.2072H73.3028ZM79.5734 15.2072V18.4251C79.5734 18.8215 79.5054 19.1771 79.3693 19.4919C79.2333 19.8028 79.0487 20.0554 78.8155 20.2498C78.5823 20.4441 78.3161 20.5918 78.0169 20.6928C77.7215 20.79 77.4048 20.8385 77.0667 20.8385C76.7247 20.8385 76.404 20.79 76.1048 20.6928C75.8094 20.5918 75.5451 20.4441 75.312 20.2498C75.0788 20.0554 74.8942 19.8028 74.7581 19.4919C74.626 19.1771 74.5599 18.8215 74.5599 18.4251V15.2072H75.4285V18.3435C75.4285 18.8954 75.5782 19.3131 75.8774 19.5968C76.1767 19.8806 76.5731 20.0224 77.0667 20.0224C77.5602 20.0224 77.9547 19.8806 78.2501 19.5968C78.5493 19.3131 78.6989 18.8954 78.6989 18.3435V15.2072H79.5734ZM84.0476 15.0964C84.4518 15.0964 84.7899 15.1586 85.0619 15.283L84.852 16.1399C84.58 15.9922 84.2613 15.9184 83.896 15.9184C83.4607 15.9184 83.1051 16.0758 82.8292 16.3906C82.5533 16.7054 82.4153 17.1212 82.4153 17.6381V20.7278H81.5467V15.2072H82.4095V15.9825C82.5999 15.6988 82.835 15.4812 83.1148 15.3296C83.3985 15.1741 83.7095 15.0964 84.0476 15.0964ZM91.3813 15.2072V20.7278H90.5127V19.9058C90.0307 20.5276 89.3584 20.8385 88.4956 20.8385C87.7145 20.8385 87.0596 20.5665 86.5311 20.0224C86.0025 19.4744 85.7382 18.7885 85.7382 17.9646C85.7382 17.1407 86.0025 16.4566 86.5311 15.9126C87.0596 15.3685 87.7145 15.0964 88.4956 15.0964C89.3545 15.0964 90.0269 15.4073 90.5127 16.0291V15.2072H91.3813ZM88.6006 15.9126C88.0176 15.9126 87.5415 16.1108 87.1723 16.5072C86.807 16.8997 86.6243 17.3855 86.6243 17.9646C86.6243 18.5436 86.8089 19.0314 87.1781 19.4278C87.5473 19.8242 88.0215 20.0224 88.6006 20.0224C89.1719 20.0224 89.6421 19.8281 90.0113 19.4394C90.3805 19.0469 90.5651 18.5553 90.5651 17.9646C90.5651 17.3777 90.3805 16.89 90.0113 16.5013C89.6421 16.1088 89.1719 15.9126 88.6006 15.9126ZM94.2966 12.3332V20.7278H93.4222V12.3332H94.2966Z" fill="#231F20"/>
<g clip-path="url(#clip1_214_14901)">
<path d="M125.87 23.7278L18.9941 23.7278V78.1371H125.87V23.7278Z" fill="white"/>
<path d="M47.2676 64.4375L64.7563 65.7006" stroke="#231F20" stroke-width="0.971596"/>
<path d="M47.2677 64.4375L43.0898 47.4346" stroke="#231F20" stroke-width="0.971596"/>
<path d="M49.405 62.0086L46.1016 48.6978" stroke="#231F20" stroke-width="0.971596"/>
<path d="M64.7559 65.7008L71.3627 49.5723" stroke="#231F20" stroke-width="0.971596"/>
<path d="M63.0068 62.9801L68.1563 50.3494" stroke="#231F20" stroke-width="0.971596"/>
<path d="M43.0898 47.4347L49.1137 43.7427" stroke="#231F20" stroke-width="0.971596"/>
<path d="M49.1133 43.7426L55.1372 40.0505" stroke="#FF6A00" stroke-width="0.971596"/>
<path d="M88.2691 45.3945L71.3633 49.5724" stroke="#231F20" stroke-width="0.971596"/>
<path d="M88.2686 45.3945L92.9322 50.1554" stroke="#231F20" stroke-width="0.971596"/>
<path d="M92.9326 50.155L97.5963 55.013" stroke="#FF6A00" stroke-width="0.971596"/>
<path d="M87.4912 48.3091L91.0861 52.0011" stroke="#231F20" stroke-width="0.971596"/>
<path d="M91.0869 52.0012L95.6534 56.8592" stroke="#FF6A00" stroke-width="0.971596"/>
<path d="M71.3628 49.5721L66.1162 45.1028" stroke="#231F20" stroke-width="0.971596"/>
<path d="M66.1162 45.1029L60.7725 40.6335" stroke="#FF6A00" stroke-width="0.971596"/>
<path d="M48.142 64.5348L47.2676 64.4377L47.0732 63.5632" stroke="#231F20" stroke-width="0.971596"/>
<path d="M63.8818 65.7006H64.7563L65.0478 64.9233" stroke="#231F20" stroke-width="0.971596"/>
<path d="M43.2842 48.309L43.0898 47.4346L43.3813 47.2402" stroke="#231F20" stroke-width="0.971596"/>
<path d="M87.4912 45.5889L88.2685 45.3945L88.56 45.5889" stroke="#231F20" stroke-width="0.971596"/>
<path d="M97.208 58.8997C97.208 58.1224 97.4023 57.5071 97.791 57.0537C98.1796 56.6002 98.7302 56.3735 99.4427 56.3735C100.22 56.3735 100.803 56.6002 101.192 57.0537C101.58 57.5071 101.775 58.1224 101.775 58.8997C101.775 59.677 101.58 60.2923 101.192 60.7457C100.803 61.1991 100.22 61.4258 99.4427 61.4258C98.7302 61.4258 98.1796 61.1991 97.791 60.7457C97.4023 60.2923 97.208 59.677 97.208 58.8997ZM99.4427 60.94C99.9609 60.94 100.35 60.7457 100.609 60.3571C100.932 60.0332 101.094 59.5474 101.094 58.8997C101.094 58.252 100.932 57.7662 100.609 57.4423C100.35 57.1184 99.9609 56.9565 99.4427 56.9565C98.9893 56.9565 98.6006 57.1184 98.2768 57.4423C98.0177 57.7662 97.8881 58.252 97.8881 58.8997C97.8881 59.5474 98.0177 60.0332 98.2768 60.3571C98.6006 60.7457 98.9893 60.94 99.4427 60.94Z" fill="#FF6A00"/>
<path d="M55.7207 38.3015C55.7207 37.4595 55.915 36.8441 56.3037 36.4555C56.6923 36.0021 57.2429 35.7754 57.9554 35.7754C58.6679 35.7754 59.2508 36.0021 59.7042 36.4555C60.0929 36.8441 60.2872 37.4595 60.2872 38.3015C60.2872 39.0788 60.0605 39.6942 59.6071 40.1476C59.2184 40.601 58.6679 40.8277 57.9554 40.8277C57.2429 40.8277 56.6923 40.601 56.3037 40.1476C55.915 39.6942 55.7207 39.0788 55.7207 38.3015ZM57.9554 40.2447C58.4736 40.2447 58.8622 40.0828 59.1213 39.7589C59.3804 39.4351 59.5099 38.9493 59.5099 38.3015C59.5099 37.6538 59.3804 37.168 59.1213 36.8441C58.8622 36.4555 58.4736 36.2612 57.9554 36.2612C57.4372 36.2612 57.0486 36.4555 56.7895 36.8441C56.5304 37.168 56.4008 37.6538 56.4008 38.3015C56.4008 38.9493 56.5304 39.4351 56.7895 39.7589C57.0486 40.0828 57.4372 40.2447 57.9554 40.2447Z" fill="#FF6A00"/>
</g>
<path d="M0.431641 78.1372H26.3784V90.2627H12.5572C5.86043 90.2627 0.431641 84.8339 0.431641 78.1372V78.1372Z" fill="white"/>
<rect x="26.3789" y="78.1372" width="92.1064" height="12.1255" fill="white"/>
<path d="M118.484 78.1372H144.431V78.1372C144.431 84.8339 139.002 90.2627 132.306 90.2627H118.484V78.1372Z" fill="white"/>
</g>
<rect x="1.18141" y="1.18165" width="142.5" height="84.5005" rx="3.13661" stroke="white" stroke-width="1.49954"/>
<defs>
<clipPath id="clip0_214_14901">
<rect x="0.431641" y="0.431885" width="144" height="86" rx="3.88638" fill="white"/>
</clipPath>
<clipPath id="clip1_214_14901">
<rect width="106.876" height="54.4094" fill="white" transform="translate(18.9941 23.7278)"/>
</clipPath>
</defs>
</svg>
