<svg width="144" height="88" viewBox="0 0 144 88" fill="none" xmlns="http://www.w3.org/2000/svg">
<g clip-path="url(#clip0_214_14361)">
<rect x="0.932617" y="0.431885" width="143" height="87" rx="3.88638" fill="white"/>
<rect width="143" height="15" transform="translate(0.932617 13.1323)" fill="white"/>
<path d="M51.5488 16.9709V20.5794H56.4864V16.9709H57.425V25.1323H56.4864V21.4655H51.5488V25.1323H50.6102V16.9709H51.5488ZM61.9386 19.501C62.6887 19.501 63.3066 19.7672 63.7924 20.2996C64.2821 20.832 64.5289 21.516 64.5328 22.3516C64.5328 22.4721 64.5269 22.5809 64.5153 22.6781H60.0906C60.1489 23.2533 60.3588 23.6982 60.7202 24.013C61.0817 24.324 61.5228 24.4794 62.0435 24.4794C62.7042 24.4794 63.2872 24.2482 63.7924 23.7857L64.2588 24.3803C63.6564 24.9555 62.9005 25.2431 61.9911 25.2431C61.171 25.2431 60.5006 24.9788 59.9799 24.4503C59.4591 23.9178 59.1987 23.2261 59.1987 22.3749C59.1987 21.5355 59.4571 20.8476 59.974 20.3113C60.4909 19.7711 61.1458 19.501 61.9386 19.501ZM61.9211 20.2763C61.4237 20.2763 61.0136 20.4317 60.6911 20.7427C60.3685 21.0536 60.1722 21.4636 60.1023 21.9727H63.6467C63.5923 21.4558 63.4077 21.0438 63.0929 20.7368C62.782 20.4298 62.3914 20.2763 61.9211 20.2763ZM70.6129 19.6117L68.456 22.305L70.677 25.1323H69.6102L67.8672 22.9521L66.1416 25.1323H65.1215L67.3367 22.3108L65.1798 19.6117H66.2466L67.9138 21.7045L69.5869 19.6117H70.6129ZM76.9108 19.6117V25.1323H76.0422V24.3104C75.5603 24.9322 74.8879 25.2431 74.0251 25.2431C73.244 25.2431 72.5891 24.971 72.0606 24.4269C71.532 23.879 71.2677 23.193 71.2677 22.3691C71.2677 21.5452 71.532 20.8612 72.0606 20.3171C72.5891 19.773 73.244 19.501 74.0251 19.501C74.884 19.501 75.5564 19.8119 76.0422 20.4337V19.6117H76.9108ZM74.1301 20.3171C73.5471 20.3171 73.071 20.5153 72.7018 20.9117C72.3365 21.3042 72.1538 21.79 72.1538 22.3691C72.1538 22.9482 72.3384 23.4359 72.7077 23.8323C73.0769 24.2287 73.551 24.4269 74.1301 24.4269C74.7014 24.4269 75.1716 24.2326 75.5408 23.844C75.91 23.4515 76.0946 22.9598 76.0946 22.3691C76.0946 21.7823 75.91 21.2945 75.5408 20.9059C75.1716 20.5134 74.7014 20.3171 74.1301 20.3171ZM81.6741 19.501C82.3581 19.501 82.9119 19.703 83.3355 20.1072C83.763 20.5114 83.9768 21.0458 83.9768 21.7104V25.1323H83.1082V21.996C83.1082 21.4714 82.9683 21.0633 82.6884 20.7718C82.4125 20.4764 82.0219 20.3288 81.5167 20.3288C81.0387 20.3288 80.6364 20.4842 80.31 20.7951C79.9874 21.1021 79.8261 21.5102 79.8261 22.0193V25.1323H78.9517V19.6117H79.8145V20.3987C80.0243 20.0878 80.2944 19.8604 80.6248 19.7166C80.9551 19.5729 81.3049 19.501 81.6741 19.501ZM91.1773 19.6117V25.1323H90.3087V24.3104C89.8268 24.9322 89.1544 25.2431 88.2917 25.2431C87.5105 25.2431 86.8556 24.971 86.3271 24.4269C85.7985 23.879 85.5343 23.193 85.5343 22.3691C85.5343 21.5452 85.7985 20.8612 86.3271 20.3171C86.8556 19.773 87.5105 19.501 88.2917 19.501C89.1505 19.501 89.8229 19.8119 90.3087 20.4337V19.6117H91.1773ZM88.3966 20.3171C87.8136 20.3171 87.3376 20.5153 86.9683 20.9117C86.603 21.3042 86.4204 21.79 86.4204 22.3691C86.4204 22.9482 86.605 23.4359 86.9742 23.8323C87.3434 24.2287 87.8175 24.4269 88.3966 24.4269C88.9679 24.4269 89.4381 24.2326 89.8073 23.844C90.1766 23.4515 90.3612 22.9598 90.3612 22.3691C90.3612 21.7823 90.1766 21.2945 89.8073 20.9059C89.4381 20.5134 88.9679 20.3171 88.3966 20.3171ZM94.0926 16.7377V25.1323H93.2182V16.7377H94.0926Z" fill="#231F20"/>
<path d="M0.932617 40.2591C0.932617 33.5617 6.36196 28.1323 13.0594 28.1323H26.8794V40.2591H0.932617V40.2591Z" fill="white"/>
<rect x="26.8799" y="28.1323" width="91.1064" height="12.1268" fill="white"/>
<path d="M117.985 28.1323H131.805C138.503 28.1323 143.932 33.5617 143.932 40.2591V40.2591H117.985V28.1323Z" fill="white"/>
<g clip-path="url(#clip1_214_14361)">
<path d="M156.961 40.2592L-12.0967 40.2592V62.6059L156.961 62.6059V40.2592Z" fill="white"/>
<path d="M25.8926 53.5699L41.0495 44.8256" stroke="#231F20" stroke-width="0.971596"/>
<path d="M41.0498 44.8256L56.2067 53.5699" stroke="#231F20" stroke-width="0.971596"/>
<path d="M56.2061 53.5699L71.3629 44.8256" stroke="#231F20" stroke-width="0.971596"/>
<path d="M71.3643 44.8256L86.5212 53.5699" stroke="#231F20" stroke-width="0.971596"/>
<path d="M86.5205 53.5699L101.58 44.8256" stroke="#231F20" stroke-width="0.971596"/>
<path d="M101.58 44.8256L107.798 48.4205" stroke="#231F20" stroke-width="0.971596"/>
<path d="M107.799 48.4205L113.92 51.9183" stroke="#FF6A00" stroke-width="0.971596"/>
<path d="M101.58 47.9348L106.438 50.6553" stroke="#231F20" stroke-width="0.971596"/>
<path d="M106.438 50.6552L112.56 54.2501" stroke="#FF6A00" stroke-width="0.971596"/>
<path d="M40.2725 45.3114L41.0497 44.8256L41.827 45.3114" stroke="#231F20" stroke-width="0.971596"/>
<path d="M55.4297 53.1814L56.207 53.57L56.9842 53.1814" stroke="#231F20" stroke-width="0.971596"/>
<path d="M70.5859 45.3114L71.3632 44.8256L72.0433 45.3114" stroke="#231F20" stroke-width="0.971596"/>
<path d="M85.7432 53.1814L86.5204 53.57L87.2006 53.1814" stroke="#231F20" stroke-width="0.971596"/>
<path d="M100.899 45.3114L101.58 44.8256L101.968 45.0199" stroke="#231F20" stroke-width="0.971596"/>
<path d="M113.821 54.736C113.821 53.9587 114.016 53.3434 114.404 52.89C114.793 52.4365 115.376 52.2098 116.153 52.2098C116.866 52.2098 117.416 52.4365 117.805 52.89C118.193 53.3434 118.388 53.9587 118.388 54.736C118.388 55.578 118.193 56.2258 117.805 56.6792C117.416 57.1326 116.866 57.3593 116.153 57.3593C115.376 57.3593 114.793 57.1326 114.404 56.6792C114.016 56.2258 113.821 55.578 113.821 54.736ZM116.153 56.7763C116.607 56.7763 116.995 56.6144 117.319 56.2905C117.578 55.9019 117.708 55.3837 117.708 54.736C117.708 54.0883 117.578 53.6025 117.319 53.2786C116.995 52.9547 116.607 52.7928 116.153 52.7928C115.635 52.7928 115.246 52.9547 114.987 53.2786C114.663 53.6025 114.501 54.0883 114.501 54.736C114.501 55.4485 114.663 55.9667 114.987 56.2905C115.246 56.6144 115.635 56.7763 116.153 56.7763Z" fill="#FF6A00"/>
</g>
<path d="M0.932617 62.6058H26.8794V74.7314H13.0581C6.3614 74.7314 0.932617 69.3026 0.932617 62.6058V62.6058Z" fill="white"/>
<rect x="26.8799" y="62.6058" width="91.1064" height="12.1255" fill="white"/>
<path d="M117.985 62.6058H143.932V62.6058C143.932 69.3026 138.503 74.7314 131.807 74.7314H117.985V62.6058Z" fill="white"/>
</g>
<rect x="1.68239" y="1.18165" width="141.5" height="85.5005" rx="3.13661" stroke="white" stroke-width="1.49954"/>
<defs>
<clipPath id="clip0_214_14361">
<rect x="0.932617" y="0.431885" width="143" height="87" rx="3.88638" fill="white"/>
</clipPath>
<clipPath id="clip1_214_14361">
<rect width="169.058" height="22.3467" fill="white" transform="translate(-12.0967 40.2592)"/>
</clipPath>
</defs>
</svg>
