<svg width="143" height="87" viewBox="0 0 143 87" fill="none" xmlns="http://www.w3.org/2000/svg">
<g clip-path="url(#clip0_214_15081)">
<rect x="0.557617" y="0.431885" width="142" height="86" rx="3.88638" fill="white"/>
<rect width="142" height="15" transform="translate(0.557617 13.1182)" fill="white"/>
<path d="M55.5733 16.9568V25.1182H54.728L49.6738 18.5657V25.1182H48.7352V16.9568H49.5805L54.6347 23.5092V16.9568H55.5733ZM60.2496 19.4868C61.0813 19.4868 61.7731 19.7608 62.3249 20.3088C62.8807 20.8567 63.1586 21.5388 63.1586 22.3549C63.1586 23.175 62.8807 23.859 62.3249 24.407C61.7731 24.9549 61.0813 25.2289 60.2496 25.2289C59.4179 25.2289 58.7261 24.9549 58.1743 24.407C57.6224 23.859 57.3465 23.175 57.3465 22.3549C57.3465 21.5388 57.6224 20.8567 58.1743 20.3088C58.73 19.7608 59.4218 19.4868 60.2496 19.4868ZM61.6895 20.8859C61.3048 20.4973 60.8248 20.3029 60.2496 20.3029C59.6744 20.3029 59.1945 20.4973 58.8097 20.8859C58.4249 21.2745 58.2326 21.7642 58.2326 22.3549C58.2326 22.9496 58.4249 23.4412 58.8097 23.8298C59.1945 24.2185 59.6744 24.4128 60.2496 24.4128C60.8248 24.4128 61.3048 24.2185 61.6895 23.8298C62.0743 23.4412 62.2666 22.9496 62.2666 22.3549C62.2666 21.7642 62.0743 21.2745 61.6895 20.8859ZM67.5023 19.4868C68.1863 19.4868 68.7401 19.6889 69.1638 20.0931C69.5913 20.4973 69.805 21.0316 69.805 21.6962V25.1182H68.9364V21.9819C68.9364 21.4572 68.7965 21.0491 68.5167 20.7576C68.2407 20.4623 67.8502 20.3146 67.3449 20.3146C66.8669 20.3146 66.4647 20.47 66.1382 20.781C65.8156 21.088 65.6544 21.4961 65.6544 22.0052V25.1182H64.7799V19.5976H65.6427V20.3845C65.8526 20.0736 66.1227 19.8463 66.453 19.7025C66.7833 19.5587 67.1331 19.4868 67.5023 19.4868ZM77.0055 19.5976V25.1182L76.1369 25.1182V24.2962C75.655 24.918 74.9827 25.2289 74.1199 25.2289C73.3387 25.2289 72.6839 24.9569 72.1553 24.4128C71.6268 23.8648 71.3625 23.1789 71.3625 22.3549C71.3625 21.531 71.6268 20.847 72.1553 20.3029C72.6839 19.7588 73.3387 19.4868 74.1199 19.4868C74.9788 19.4868 75.6511 19.7977 76.1369 20.4195V19.5976H77.0055ZM74.2248 20.3029C73.6419 20.3029 73.1658 20.5011 72.7966 20.8976C72.4313 21.2901 72.2486 21.7759 72.2486 22.3549C72.2486 22.934 72.4332 23.4218 72.8024 23.8182C73.1716 24.2146 73.6458 24.4128 74.2248 24.4128C74.7961 24.4128 75.2664 24.2185 75.6356 23.8298C76.0048 23.4373 76.1894 22.9457 76.1894 22.3549C76.1894 21.7681 76.0048 21.2804 75.6356 20.8917C75.2664 20.4992 74.7961 20.3029 74.2248 20.3029ZM81.7688 19.4868C82.4528 19.4868 83.0067 19.6889 83.4303 20.0931C83.8578 20.4973 84.0715 21.0316 84.0715 21.6962V25.1182H83.2029V21.9819C83.2029 21.4572 83.063 21.0491 82.7832 20.7576C82.5073 20.4623 82.1167 20.3146 81.6114 20.3146C81.1334 20.3146 80.7312 20.47 80.4047 20.781C80.0822 21.088 79.9209 21.4961 79.9209 22.0052V25.1182H79.0464V19.5976H79.9092V20.3845C80.1191 20.0736 80.3892 19.8463 80.7195 19.7025C81.0499 19.5587 81.3996 19.4868 81.7688 19.4868ZM91.2721 19.5976V25.1182H90.4034V24.2962C89.9215 24.918 89.2492 25.2289 88.3864 25.2289C87.6053 25.2289 86.9504 24.9569 86.4218 24.4128C85.8933 23.8648 85.629 23.1789 85.629 22.3549C85.629 21.531 85.8933 20.847 86.4218 20.3029C86.9504 19.7588 87.6053 19.4868 88.3864 19.4868C89.2453 19.4868 89.9177 19.7977 90.4034 20.4195V19.5976H91.2721ZM88.4913 20.3029C87.9084 20.3029 87.4323 20.5011 87.0631 20.8976C86.6978 21.2901 86.5151 21.7759 86.5151 22.3549C86.5151 22.934 86.6997 23.4218 87.0689 23.8182C87.4381 24.2146 87.9123 24.4128 88.4913 24.4128C89.0626 24.4128 89.5329 24.2185 89.9021 23.8298C90.2713 23.4373 90.4559 22.9457 90.4559 22.3549C90.4559 21.7681 90.2713 21.2804 89.9021 20.8917C89.5329 20.4992 89.0626 20.3029 88.4913 20.3029ZM94.1874 16.7236V25.1182H93.313V16.7236H94.1874Z" fill="#231F20"/>
<path d="M0.557617 40.245C0.557617 33.5475 5.98696 28.1182 12.6844 28.1182L26.5044 28.1182V40.245H0.557617V40.245Z" fill="white"/>
<rect x="26.5049" y="28.1182" width="90.1064" height="12.1268" fill="white"/>
<path d="M116.61 28.1182H130.43C137.128 28.1182 142.557 33.5475 142.557 40.245V40.245H116.61V28.1182Z" fill="white"/>
<g clip-path="url(#clip1_214_15081)">
<path d="M197.865 40.2449L-54.75 40.2449V61.62L197.865 61.62V40.2449Z" fill="white"/>
<path d="M2.47754 54.4302L17.8287 45.9773" stroke="#231F20" stroke-width="0.971596"/>
<path d="M17.8281 45.9773L32.7907 55.0131" stroke="#231F20" stroke-width="0.971596"/>
<path d="M32.79 55.0132L48.1413 46.5603" stroke="#231F20" stroke-width="0.971596"/>
<path d="M48.1426 46.5603L63.1052 55.499" stroke="#231F20" stroke-width="0.971596"/>
<path d="M63.1045 55.499L78.3585 47.0461" stroke="#231F20" stroke-width="0.971596"/>
<path d="M78.3584 47.0461L93.4181 56.082" stroke="#231F20" stroke-width="0.971596"/>
<path d="M93.418 56.082L108.672 47.6292" stroke="#231F20" stroke-width="0.971596"/>
<path d="M108.673 47.6292L123.635 56.5678" stroke="#231F20" stroke-width="0.971596"/>
<path d="M123.635 56.5678L129.853 53.1672" stroke="#231F20" stroke-width="0.971596"/>
<path d="M129.854 53.1669L136.072 49.6692" stroke="#FF6A00" stroke-width="0.971596"/>
<path d="M123.732 53.5557L128.59 50.8352" stroke="#231F20" stroke-width="0.971596"/>
<path d="M128.59 50.8352L134.808 47.4346" stroke="#FF6A00" stroke-width="0.971596"/>
<path d="M17.0518 46.4631L17.829 45.9773L18.6063 46.4631" stroke="#231F20" stroke-width="0.971596"/>
<path d="M32.0137 54.5273L32.7909 55.0131L33.5682 54.6245" stroke="#231F20" stroke-width="0.971596"/>
<path d="M47.3643 46.9489L48.1415 46.5603L48.8217 46.9489" stroke="#231F20" stroke-width="0.971596"/>
<path d="M62.3271 55.1104L63.1044 55.499L63.8817 55.1104" stroke="#231F20" stroke-width="0.971596"/>
<path d="M77.582 47.5319L78.3593 47.0461L79.1366 47.5319" stroke="#231F20" stroke-width="0.971596"/>
<path d="M92.6416 55.5962L93.4189 56.082L94.099 55.6934" stroke="#231F20" stroke-width="0.971596"/>
<path d="M107.896 48.0178L108.673 47.6292L109.45 48.0178" stroke="#231F20" stroke-width="0.971596"/>
<path d="M122.955 56.179L123.635 56.5676L123.927 56.4704" stroke="#231F20" stroke-width="0.971596"/>
<path d="M136.072 47.0459C136.072 46.2039 136.267 45.5561 136.655 45.1027C137.044 44.7141 137.594 44.5198 138.307 44.5198C139.019 44.5198 139.602 44.7141 140.056 45.1027C140.444 45.5561 140.639 46.2039 140.639 47.0459C140.639 47.8232 140.412 48.4385 139.959 48.892C139.57 49.3454 139.019 49.5721 138.307 49.5721C137.594 49.5721 137.044 49.3454 136.655 48.892C136.267 48.4385 136.072 47.8232 136.072 47.0459ZM138.307 48.9891C138.825 48.9891 139.214 48.8272 139.473 48.5033C139.732 48.1795 139.861 47.6937 139.861 47.0459C139.861 46.3982 139.732 45.88 139.473 45.4914C139.214 45.1675 138.825 45.0056 138.307 45.0056C137.789 45.0056 137.4 45.1675 137.141 45.4914C136.882 45.8152 136.752 46.3334 136.752 47.0459C136.752 47.6937 136.882 48.1795 137.141 48.5033C137.4 48.8272 137.789 48.9891 138.307 48.9891Z" fill="#FF6A00"/>
</g>
<path d="M0.557617 61.6201H26.5044V73.7456H12.6831C5.9864 73.7456 0.557617 68.3169 0.557617 61.6201V61.6201Z" fill="white"/>
<rect x="26.5049" y="61.6201" width="90.1064" height="12.1255" fill="white"/>
<path d="M116.61 61.6201H142.557V61.6201C142.557 68.3169 137.128 73.7456 130.432 73.7456H116.61V61.6201Z" fill="white"/>
</g>
<rect x="1.30739" y="1.18165" width="140.5" height="84.5005" rx="3.13661" stroke="white" stroke-width="1.49954"/>
<defs>
<clipPath id="clip0_214_15081">
<rect x="0.557617" y="0.431885" width="142" height="86" rx="3.88638" fill="white"/>
</clipPath>
<clipPath id="clip1_214_15081">
<rect width="252.615" height="21.3751" fill="white" transform="translate(-54.75 40.2449)"/>
</clipPath>
</defs>
</svg>
