<svg width="143" height="87" viewBox="0 0 143 87" fill="none" xmlns="http://www.w3.org/2000/svg">
<g clip-path="url(#clip0_214_14973)">
<rect x="0.557617" y="0.431885" width="142" height="86" rx="3.88638" fill="white"/>
<path d="M0.557617 10.1851C0.557617 3.4877 5.98696 -1.94165 12.6844 -1.94165L26.5044 -1.94165V10.1851L0.557617 10.1851V10.1851Z" fill="white"/>
<rect x="26.5049" y="-1.94165" width="90.1064" height="12.1268" fill="white"/>
<path d="M116.61 -1.94165L130.43 -1.94165C137.128 -1.94165 142.557 3.4877 142.557 10.1851V10.1851L116.61 10.1851V-1.94165Z" fill="white"/>
<rect width="142" height="15" transform="translate(0.557617 10.1853)" fill="white"/>
<path d="M55.819 18.9033H53.6738V22.1853H52.7352V14.0239H55.819C56.7323 14.0239 57.4416 14.2396 57.9468 14.671C58.4521 15.1024 58.7047 15.7009 58.7047 16.4665C58.7047 17.2321 58.4521 17.8306 57.9468 18.262C57.4416 18.6895 56.7323 18.9033 55.819 18.9033ZM55.7899 14.91H53.6738V18.023H55.7899C56.4234 18.023 56.9053 17.8928 57.2356 17.6324C57.566 17.372 57.7311 16.9834 57.7311 16.4665C57.7311 15.9496 57.566 15.561 57.2356 15.3006C56.9053 15.0402 56.4234 14.91 55.7899 14.91ZM65.4936 16.6647L60.999 24.5405H60.0371L62.0949 20.9902L59.5591 16.6647H60.5326L62.5905 20.1275L64.5375 16.6647H65.4936ZM69.1061 16.5539C69.5103 16.5539 69.8484 16.6161 70.1204 16.7405L69.9106 17.5974C69.6385 17.4497 69.3198 17.3759 68.9545 17.3759C68.5193 17.3759 68.1636 17.5333 67.8877 17.8481C67.6118 18.1629 67.4738 18.5787 67.4738 19.0956V22.1853H66.6052V16.6647H67.468V17.44C67.6584 17.1563 67.8935 16.9387 68.1734 16.7871C68.4571 16.6317 68.768 16.5539 69.1061 16.5539ZM73.9451 16.5539C74.3493 16.5539 74.6874 16.6161 74.9594 16.7405L74.7496 17.5974C74.4775 17.4497 74.1589 17.3759 73.7935 17.3759C73.3583 17.3759 73.0027 17.5333 72.7267 17.8481C72.4508 18.1629 72.3128 18.5787 72.3128 19.0956V22.1853H71.4442V16.6647H72.307V17.44C72.4974 17.1563 72.7325 16.9387 73.0124 16.7871C73.2961 16.6317 73.607 16.5539 73.9451 16.5539ZM78.5389 16.5539C79.3706 16.5539 80.0624 16.8279 80.6142 17.3759C81.17 17.9239 81.4479 18.6059 81.4479 19.4221C81.4479 20.2421 81.17 20.9261 80.6142 21.4741C80.0624 22.0221 79.3706 22.2961 78.5389 22.2961C77.7072 22.2961 77.0154 22.0221 76.4636 21.4741C75.9117 20.9261 75.6358 20.2421 75.6358 19.4221C75.6358 18.6059 75.9117 17.9239 76.4636 17.3759C77.0193 16.8279 77.7111 16.5539 78.5389 16.5539ZM79.9788 17.953C79.594 17.5644 79.1141 17.3701 78.5389 17.3701C77.9637 17.3701 77.4837 17.5644 77.099 17.953C76.7142 18.3417 76.5219 18.8314 76.5219 19.4221C76.5219 20.0167 76.7142 20.5083 77.099 20.897C77.4837 21.2856 77.9637 21.4799 78.5389 21.4799C79.1141 21.4799 79.594 21.2856 79.9788 20.897C80.3636 20.5083 80.5559 20.0167 80.5559 19.4221C80.5559 18.8314 80.3636 18.3417 79.9788 17.953ZM83.9436 13.7907V22.1853H83.0692V13.7907H83.9436ZM88.3042 16.5539C89.0542 16.5539 89.6722 16.8201 90.158 17.3526C90.6477 17.885 90.8944 18.569 90.8983 19.4046C90.8983 19.5251 90.8925 19.6339 90.8808 19.7311H86.4562C86.5145 20.3062 86.7243 20.7512 87.0858 21.066C87.4472 21.3769 87.8883 21.5324 88.4091 21.5324C89.0698 21.5324 89.6527 21.3012 90.158 20.8387L90.6243 21.4333C90.0219 22.0085 89.266 22.2961 88.3566 22.2961C87.5366 22.2961 86.8662 22.0318 86.3454 21.5032C85.8247 20.9708 85.5643 20.279 85.5643 19.4279C85.5643 18.5885 85.8227 17.9006 86.3396 17.3642C86.8565 16.824 87.5113 16.5539 88.3042 16.5539ZM88.2867 17.3293C87.7892 17.3293 87.3792 17.4847 87.0566 17.7956C86.7341 18.1065 86.5378 18.5166 86.4678 19.0257H90.0122C89.9578 18.5088 89.7732 18.0968 89.4584 17.7898C89.1475 17.4828 88.7569 17.3293 88.2867 17.3293Z" fill="#231F20"/>
<g clip-path="url(#clip1_214_14973)">
<path d="M102.163 25.1853L40.9521 25.1853V76.6799H102.163V25.1853Z" fill="white"/>
<path d="M88.0753 50.5439L77.7764 36.4558" stroke="#231F20" stroke-width="0.971596"/>
<path d="M88.0753 50.5439L77.7764 64.7292" stroke="#231F20" stroke-width="0.971596"/>
<path d="M84.7718 50.5439L76.8047 61.6201" stroke="#231F20" stroke-width="0.971596"/>
<path d="M77.7754 36.4558L61.1611 41.7996" stroke="#231F20" stroke-width="0.971596"/>
<path d="M76.8036 39.5649L63.7842 43.7428" stroke="#231F20" stroke-width="0.971596"/>
<path d="M77.7753 64.7293L70.6826 62.3975" stroke="#231F20" stroke-width="0.971596"/>
<path d="M70.6825 62.3975L63.5898 60.1628" stroke="#0F4BA3" stroke-width="0.971596"/>
<path d="M61.1611 41.7998V49.0868" stroke="#231F20" stroke-width="0.971596"/>
<path d="M61.1611 49.0867V56.2765" stroke="#0F4BA3" stroke-width="0.971596"/>
<path d="M87.4922 49.8638L88.0751 50.5439L87.4922 51.3212" stroke="#231F20" stroke-width="0.971596"/>
<path d="M78.2616 37.1359L77.7758 36.4558L76.9014 36.7473" stroke="#231F20" stroke-width="0.971596"/>
<path d="M78.2612 64.0491L77.7754 64.7292L77.3867 64.632" stroke="#231F20" stroke-width="0.971596"/>
<path d="M61.9384 41.6052L61.1611 41.7995V42.1882" stroke="#231F20" stroke-width="0.971596"/>
<path d="M54.3604 56.8594H55.0405V58.9969H57.5666V56.8594H58.2467V61.8145H57.5666V59.4827H55.0405V61.8145H54.3604V56.8594Z" fill="#0F4BA3"/>
<path d="M59.9951 56.8594L61.6468 59.4827C61.7763 59.677 61.9059 59.9037 62.0354 60.1628C62.2297 60.4867 62.3269 60.681 62.3269 60.7458V56.8594H63.007V61.8145H62.3269L60.578 58.8997C60.4485 58.7054 60.3189 58.4787 60.1894 58.2196C60.0598 57.9605 59.9627 57.7986 59.8979 57.7338V61.8145H59.2178V56.8594H59.9951Z" fill="#0F4BA3"/>
</g>
<path d="M0.557617 76.6797H26.5044V88.8052H12.6831C5.9864 88.8052 0.557617 83.3764 0.557617 76.6797V76.6797Z" fill="white"/>
<rect x="26.5049" y="76.6797" width="90.1064" height="12.1255" fill="white"/>
<path d="M116.61 76.6797H142.557V76.6797C142.557 83.3764 137.128 88.8052 130.432 88.8052H116.61V76.6797Z" fill="white"/>
</g>
<rect x="1.30739" y="1.18165" width="140.5" height="84.5005" rx="3.13661" stroke="white" stroke-width="1.49954"/>
<defs>
<clipPath id="clip0_214_14973">
<rect x="0.557617" y="0.431885" width="142" height="86" rx="3.88638" fill="white"/>
</clipPath>
<clipPath id="clip1_214_14973">
<rect width="61.2105" height="51.4946" fill="white" transform="translate(40.9521 25.1853)"/>
</clipPath>
</defs>
</svg>
