<svg width="145" height="88" viewBox="0 0 145 88" fill="none" xmlns="http://www.w3.org/2000/svg">
<g clip-path="url(#clip0_214_14409)">
<rect x="0.494141" y="0.431885" width="144" height="87" rx="3.88638" fill="white"/>
<path d="M0.494141 8.74202C0.494141 2.04458 5.92349 -3.38477 12.6209 -3.38477L26.4409 -3.38477V8.74202H0.494141V8.74202Z" fill="white"/>
<rect x="26.4414" y="-3.38477" width="92.1064" height="12.1268" fill="white"/>
<path d="M118.547 -3.38477L132.367 -3.38477C139.064 -3.38477 144.494 2.04458 144.494 8.74202V8.74202L118.547 8.74202V-3.38477Z" fill="white"/>
<rect width="144" height="15" transform="translate(0.494141 8.74207)" fill="white"/>
<path d="M37.1426 14.3529L36.4897 13.8282C37.0959 12.9265 37.9296 12.4757 38.9905 12.4757C39.7989 12.4757 40.4343 12.7128 40.8968 13.1869C41.3632 13.6572 41.5964 14.2615 41.5964 14.9999C41.5964 15.4546 41.4953 15.8647 41.2932 16.23C41.095 16.5953 40.8307 16.9548 40.5004 17.3084L38.0636 19.8851H41.8645V20.7421H36.7287V20.0367L39.8125 16.7838C40.3722 16.1969 40.652 15.6023 40.652 14.9999C40.652 14.5141 40.5023 14.1158 40.2031 13.8049C39.9038 13.4901 39.4899 13.3327 38.9614 13.3327C38.5378 13.3327 38.1841 13.424 37.9004 13.6067C37.6206 13.7893 37.368 14.0381 37.1426 14.3529ZM46.4107 17.2618V18.0546H43.1694V17.2618H46.4107ZM51.4934 17.46H49.3481V20.7421H48.4096V12.5807H51.4934C52.4067 12.5807 53.116 12.7964 53.6212 13.2277C54.1265 13.6591 54.3791 14.2576 54.3791 15.0233C54.3791 15.7889 54.1265 16.3874 53.6212 16.8188C53.116 17.2463 52.4067 17.46 51.4934 17.46ZM51.4643 13.4668H49.3481V16.5797H51.4643C52.0978 16.5797 52.5797 16.4496 52.91 16.1892C53.2404 15.9288 53.4055 15.5401 53.4055 15.0233C53.4055 14.5064 53.2404 14.1177 52.91 13.8573C52.5797 13.5969 52.0978 13.4668 51.4643 13.4668ZM58.1212 15.1107C58.8713 15.1107 59.4892 15.3769 59.975 15.9093C60.4647 16.4418 60.7115 17.1258 60.7154 17.9614C60.7154 18.0818 60.7095 18.1907 60.6979 18.2878H56.2732C56.3315 18.863 56.5414 19.308 56.9028 19.6228C57.2643 19.9337 57.7054 20.0892 58.2261 20.0892C58.8868 20.0892 59.4698 19.8579 59.975 19.3954L60.4414 19.9901C59.839 20.5652 59.0831 20.8528 58.1737 20.8528C57.3536 20.8528 56.6832 20.5886 56.1625 20.06C55.6417 19.5276 55.3813 18.8358 55.3813 17.9847C55.3813 17.1452 55.6397 16.4573 56.1566 15.921C56.6735 15.3808 57.3284 15.1107 58.1212 15.1107ZM58.1037 15.886C57.6063 15.886 57.1962 16.0415 56.8737 16.3524C56.5511 16.6633 56.3548 17.0733 56.2849 17.5824H59.8293C59.7749 17.0655 59.5903 16.6536 59.2755 16.3466C58.9646 16.0395 58.574 15.886 58.1037 15.886ZM65.0589 15.1107C65.7429 15.1107 66.2968 15.3128 66.7204 15.717C67.1479 16.1212 67.3616 16.6555 67.3616 17.3201V20.7421H66.493V17.6058C66.493 17.0811 66.3531 16.673 66.0733 16.3815C65.7974 16.0862 65.4068 15.9385 64.9015 15.9385C64.4235 15.9385 64.0213 16.094 63.6948 16.4049C63.3723 16.7119 63.211 17.12 63.211 17.6291V20.7421H62.3365V15.2215H63.1993V16.0084C63.4092 15.6975 63.6793 15.4702 64.0096 15.3264C64.34 15.1826 64.6897 15.1107 65.0589 15.1107ZM73.0076 15.2215V16.0084L70.6233 16.0084V18.795C70.6233 19.2108 70.7224 19.5217 70.9206 19.7277C71.1188 19.9337 71.385 20.0367 71.7192 20.0367C72.1351 20.0367 72.5218 19.9065 72.8793 19.6461L73.2874 20.3048C72.8055 20.6702 72.2594 20.8528 71.6493 20.8528C71.043 20.8528 70.5747 20.6838 70.2444 20.3457C69.9179 20.0037 69.7547 19.4926 69.7547 18.8125V16.0084H68.5479V15.2215H69.7547V13.4668H70.6233V15.2215L73.0076 15.2215ZM79.7427 15.2215V20.7421L78.8741 20.7421V19.9201C78.3922 20.5419 77.7199 20.8528 76.8571 20.8528C76.0759 20.8528 75.4211 20.5808 74.8925 20.0367C74.364 19.4887 74.0997 18.8028 74.0997 17.9788C74.0997 17.1549 74.364 16.4709 74.8925 15.9268C75.4211 15.3827 76.0759 15.1107 76.8571 15.1107C77.716 15.1107 78.3883 15.4216 78.8741 16.0434V15.2215H79.7427ZM76.962 15.9268C76.3791 15.9268 75.903 16.125 75.5338 16.5215C75.1685 16.914 74.9858 17.3998 74.9858 17.9788C74.9858 18.5579 75.1704 19.0457 75.5396 19.4421C75.9088 19.8385 76.383 20.0367 76.962 20.0367C77.5333 20.0367 78.0036 19.8424 78.3728 19.4537C78.742 19.0612 78.9266 18.5696 78.9266 17.9788C78.9266 17.392 78.742 16.9043 78.3728 16.5156C78.0036 16.1231 77.5333 15.9268 76.962 15.9268ZM84.506 15.1107C85.19 15.1107 85.7439 15.3128 86.1675 15.717C86.595 16.1212 86.8087 16.6555 86.8087 17.3201V20.7421H85.9401V17.6058C85.9401 17.0811 85.8002 16.673 85.5204 16.3815C85.2445 16.0862 84.8539 15.9385 84.3486 15.9385C83.8706 15.9385 83.4684 16.094 83.1419 16.4049C82.8194 16.7119 82.6581 17.12 82.6581 17.6291V20.7421H81.7836V15.2215H82.6464V16.0084C82.8563 15.6975 83.1264 15.4702 83.4567 15.3264C83.7871 15.1826 84.1368 15.1107 84.506 15.1107ZM91.2694 15.1107C92.101 15.1107 92.7928 15.3847 93.3447 15.9327C93.9004 16.4806 94.1783 17.1627 94.1783 17.9788C94.1783 18.7989 93.9004 19.4829 93.3447 20.0309C92.7928 20.5788 92.101 20.8528 91.2694 20.8528C90.4377 20.8528 89.7459 20.5788 89.194 20.0309C88.6422 19.4829 88.3662 18.7989 88.3662 17.9788C88.3662 17.1627 88.6422 16.4806 89.194 15.9327C89.7498 15.3847 90.4416 15.1107 91.2694 15.1107ZM92.7093 16.5098C92.3245 16.1212 91.8445 15.9268 91.2694 15.9268C90.6942 15.9268 90.2142 16.1212 89.8295 16.5098C89.4447 16.8984 89.2523 17.3881 89.2523 17.9788C89.2523 18.5735 89.4447 19.0651 89.8295 19.4537C90.2142 19.8424 90.6942 20.0367 91.2694 20.0367C91.8445 20.0367 92.3245 19.8424 92.7093 19.4537C93.094 19.0651 93.2864 18.5735 93.2864 17.9788C93.2864 17.3881 93.094 16.8984 92.7093 16.5098ZM98.5221 15.1107C99.2061 15.1107 99.7599 15.3128 100.184 15.717C100.611 16.1212 100.825 16.6555 100.825 17.3201V20.7421H99.9562V17.6058C99.9562 17.0811 99.8162 16.673 99.5364 16.3815C99.2605 16.0862 98.8699 15.9385 98.3647 15.9385C97.8867 15.9385 97.4844 16.094 97.158 16.4049C96.8354 16.7119 96.6741 17.12 96.6741 17.6291V20.7421H95.7997V15.2215H96.6624V16.0084C96.8723 15.6975 97.1424 15.4702 97.4728 15.3264C97.8031 15.1826 98.1529 15.1107 98.5221 15.1107ZM105.122 15.1107C105.872 15.1107 106.49 15.3769 106.976 15.9093C107.466 16.4418 107.712 17.1258 107.716 17.9614C107.716 18.0818 107.71 18.1907 107.699 18.2878H103.274C103.332 18.863 103.542 19.308 103.904 19.6228C104.265 19.9337 104.706 20.0892 105.227 20.0892C105.888 20.0892 106.471 19.8579 106.976 19.3954L107.442 19.9901C106.84 20.5652 106.084 20.8528 105.175 20.8528C104.355 20.8528 103.684 20.5886 103.163 20.06C102.643 19.5276 102.382 18.8358 102.382 17.9847C102.382 17.1452 102.641 16.4573 103.158 15.921C103.674 15.3808 104.329 15.1107 105.122 15.1107ZM105.105 15.886C104.607 15.886 104.197 16.0415 103.875 16.3524C103.552 16.6633 103.356 17.0733 103.286 17.5824H106.83C106.776 17.0655 106.591 16.6536 106.276 16.3466C105.966 16.0395 105.575 15.886 105.105 15.886Z" fill="#231F20"/>
<g clip-path="url(#clip1_214_14409)">
<path d="M127.389 23.7421L17.5986 23.7421V79.123H127.389V23.7421Z" fill="white"/>
<path d="M42.1797 58.0394L58.4053 51.5297" stroke="#231F20" stroke-width="0.971596"/>
<path d="M102.128 66.5894L88.4287 55.8047" stroke="#231F20" stroke-width="0.971596"/>
<path d="M58.4053 51.5297L72.1048 62.3144" stroke="#231F20" stroke-width="0.971596"/>
<path d="M72.1045 62.3144L88.4273 55.8047" stroke="#231F20" stroke-width="0.971596"/>
<path d="M89.5938 56.7763L90.6625 49.295" stroke="#231F20" stroke-width="0.971596"/>
<path d="M90.6631 49.295L91.7318 41.8137" stroke="#FF6A00" stroke-width="0.971596"/>
<path d="M86.9707 56.3877L88.0395 48.9064" stroke="#231F20" stroke-width="0.971596"/>
<path d="M88.0391 48.9063L89.1078 41.425" stroke="#FF6A00" stroke-width="0.971596"/>
<path d="M57.6289 51.8211L58.4062 51.5297L59.0863 52.0155" stroke="#231F20" stroke-width="0.971596"/>
<path d="M71.4258 61.7314L72.1059 62.3144L72.9803 62.0229" stroke="#231F20" stroke-width="0.971596"/>
<path d="M89.1083 56.2905L88.4281 55.8047L87.5537 56.0962" stroke="#231F20" stroke-width="0.971596"/>
<path d="M88.6221 38.5103C88.6221 37.733 88.8164 37.1177 89.205 36.6642C89.5937 36.2108 90.1442 35.9841 90.8567 35.9841C91.5692 35.9841 92.1198 36.2108 92.5085 36.6642C92.8971 37.1177 93.0914 37.733 93.0914 38.5103C93.0914 39.2876 92.8971 39.9029 92.5085 40.3563C92.1198 40.8097 91.5692 41.0364 90.8567 41.0364C90.1442 41.0364 89.5937 40.8097 89.205 40.3563C88.8164 39.9029 88.6221 39.2876 88.6221 38.5103ZM90.8567 40.5506C91.3749 40.5506 91.7636 40.3563 92.0227 39.9677C92.2817 39.6438 92.4113 39.158 92.4113 38.5103C92.4113 37.8625 92.2817 37.3768 92.0227 37.0529C91.7636 36.729 91.3749 36.5671 90.8567 36.5671C90.3386 36.5671 89.9499 36.729 89.6908 37.0529C89.4317 37.3768 89.3022 37.8625 89.3022 38.5103C89.3022 39.158 89.4317 39.6438 89.6908 39.9677C89.9499 40.3563 90.3386 40.5506 90.8567 40.5506Z" fill="#FF6A00"/>
</g>
<path d="M0.494141 79.123H26.4409V91.2486H12.6197C5.92293 91.2486 0.494141 85.8198 0.494141 79.123V79.123Z" fill="white"/>
<rect x="26.4414" y="79.123" width="92.1064" height="12.1255" fill="white"/>
<path d="M118.547 79.123H144.494V79.123C144.494 85.8198 139.065 91.2486 132.368 91.2486H118.547V79.123Z" fill="white"/>
</g>
<rect x="1.24391" y="1.18165" width="142.5" height="85.5005" rx="3.13661" stroke="white" stroke-width="1.49954"/>
<defs>
<clipPath id="clip0_214_14409">
<rect x="0.494141" y="0.431885" width="144" height="87" rx="3.88638" fill="white"/>
</clipPath>
<clipPath id="clip1_214_14409">
<rect width="109.79" height="55.381" fill="white" transform="translate(17.5986 23.7421)"/>
</clipPath>
</defs>
</svg>
