<svg width="145" height="87" viewBox="0 0 145 87" fill="none" xmlns="http://www.w3.org/2000/svg">
<g clip-path="url(#clip0_214_14757)">
<rect x="0.557617" y="0.431885" width="144" height="86" rx="3.88638" fill="white"/>
<path d="M0.557617 8.24202C0.557617 1.54458 5.98696 -3.88477 12.6844 -3.88477L26.5044 -3.88477V8.24202H0.557617V8.24202Z" fill="white"/>
<rect x="26.5049" y="-3.88477" width="92.1064" height="12.1268" fill="white"/>
<path d="M118.61 -3.88477L132.43 -3.88477C139.128 -3.88477 144.557 1.54458 144.557 8.24202V8.24202L118.61 8.24202V-3.88477Z" fill="white"/>
<rect width="144" height="15" transform="translate(0.557617 8.24194)" fill="white"/>
<path d="M57.319 16.9599H55.1738V20.2419H54.2352V12.0805H57.319C58.2323 12.0805 58.9416 12.2962 59.4468 12.7276C59.9521 13.159 60.2047 13.7575 60.2047 14.5231C60.2047 15.2887 59.9521 15.8873 59.4468 16.3186C58.9416 16.7461 58.2323 16.9599 57.319 16.9599ZM57.2899 12.9666H55.1738V16.0796H57.2899C57.9234 16.0796 58.4053 15.9494 58.7356 15.689C59.066 15.4287 59.2311 15.04 59.2311 14.5231C59.2311 14.0062 59.066 13.6176 58.7356 13.3572C58.4053 13.0968 57.9234 12.9666 57.2899 12.9666ZM62.6946 11.8474V15.4908C62.9084 15.1877 63.1785 14.9662 63.5049 14.8263C63.8314 14.6825 64.1773 14.6106 64.5426 14.6106C65.2266 14.6106 65.7804 14.8127 66.204 15.2168C66.6315 15.621 66.8453 16.1554 66.8453 16.82V20.2419H65.9767V17.1056C65.9767 16.581 65.8368 16.1729 65.557 15.8814C65.281 15.5861 64.8904 15.4384 64.3852 15.4384C63.9072 15.4384 63.5049 15.5938 63.1785 15.9047C62.8559 16.2118 62.6946 16.6198 62.6946 17.1289V20.2419H61.8202V11.8474H62.6946ZM71.1427 14.6106C71.8928 14.6106 72.5107 14.8768 72.9965 15.4092C73.4862 15.9417 73.733 16.6257 73.7369 17.4612C73.7369 17.5817 73.731 17.6905 73.7194 17.7877H69.2947C69.353 18.3629 69.5629 18.8079 69.9243 19.1227C70.2857 19.4336 70.7268 19.589 71.2476 19.589C71.9083 19.589 72.4913 19.3578 72.9965 18.8953L73.4629 19.4899C72.8605 20.0651 72.1046 20.3527 71.1952 20.3527C70.3751 20.3527 69.7047 20.0884 69.184 19.5599C68.6632 19.0274 68.4028 18.3357 68.4028 17.4846C68.4028 16.6451 68.6612 15.9572 69.1781 15.4209C69.695 14.8807 70.3499 14.6106 71.1427 14.6106ZM71.1252 15.3859C70.6277 15.3859 70.2177 15.5414 69.8952 15.8523C69.5726 16.1632 69.3763 16.5732 69.3064 17.0823H72.8508C72.7963 16.5654 72.6117 16.1535 72.2969 15.8464C71.986 15.5394 71.5955 15.3859 71.1252 15.3859ZM78.0804 14.6106C78.7644 14.6106 79.3182 14.8127 79.7419 15.2168C80.1694 15.621 80.3831 16.1554 80.3831 16.82V20.2419H79.5145V17.1056C79.5145 16.581 79.3746 16.1729 79.0948 15.8814C78.8188 15.5861 78.4283 15.4384 77.923 15.4384C77.445 15.4384 77.0428 15.5938 76.7163 15.9047C76.3937 16.2118 76.2325 16.6198 76.2325 17.1289V20.2419H75.358V14.7213H76.2208V15.5083C76.4307 15.1974 76.7008 14.9701 77.0311 14.8263C77.3615 14.6825 77.7112 14.6106 78.0804 14.6106ZM84.8437 14.6106C85.6754 14.6106 86.3672 14.8846 86.9191 15.4325C87.4748 15.9805 87.7527 16.6626 87.7527 17.4787C87.7527 18.2988 87.4748 18.9828 86.9191 19.5307C86.3672 20.0787 85.6754 20.3527 84.8437 20.3527C84.0121 20.3527 83.3203 20.0787 82.7684 19.5307C82.2165 18.9828 81.9406 18.2988 81.9406 17.4787C81.9406 16.6626 82.2165 15.9805 82.7684 15.4325C83.3242 14.8846 84.0159 14.6106 84.8437 14.6106ZM86.2836 16.0097C85.8989 15.621 85.4189 15.4267 84.8437 15.4267C84.2686 15.4267 83.7886 15.621 83.4038 16.0097C83.0191 16.3983 82.8267 16.888 82.8267 17.4787C82.8267 18.0733 83.0191 18.565 83.4038 18.9536C83.7886 19.3422 84.2686 19.5366 84.8437 19.5366C85.4189 19.5366 85.8989 19.3422 86.2836 18.9536C86.6684 18.565 86.8608 18.0733 86.8608 17.4787C86.8608 16.888 86.6684 16.3983 86.2836 16.0097ZM90.2485 11.8474V20.2419H89.374V11.8474H90.2485Z" fill="#231F20"/>
<g clip-path="url(#clip1_214_14757)">
<path d="M126.967 23.2419L18.1484 23.2419V78.6229H126.967V23.2419Z" fill="white"/>
<path d="M101.997 50.738L93.2529 65.8949" stroke="#231F20" stroke-width="0.971596"/>
<path d="M98.9852 50.738L91.6982 63.2716" stroke="#231F20" stroke-width="0.971596"/>
<path d="M101.997 50.7382L93.2529 35.6785" stroke="#231F20" stroke-width="0.971596"/>
<path d="M93.2524 65.895H75.7637" stroke="#231F20" stroke-width="0.971596"/>
<path d="M93.2524 35.6785H75.7637" stroke="#231F20" stroke-width="0.971596"/>
<path d="M91.6985 38.3018H77.2217" stroke="#231F20" stroke-width="0.971596"/>
<path d="M75.7639 65.8949L67.0195 50.738" stroke="#231F20" stroke-width="0.971596"/>
<path d="M77.222 63.2716L70.0322 50.738" stroke="#231F20" stroke-width="0.971596"/>
<path d="M75.7639 35.6785L67.0195 50.7382" stroke="#231F20" stroke-width="0.971596"/>
<path d="M67.0194 50.738H59.7324" stroke="#231F20" stroke-width="0.971596"/>
<path d="M59.7328 50.738H52.3486" stroke="#FF6A00" stroke-width="0.971596"/>
<path d="M101.511 51.5153L101.997 50.738L101.511 50.0579" stroke="#231F20" stroke-width="0.971596"/>
<path d="M93.642 65.2148L93.2533 65.895H92.3789" stroke="#231F20" stroke-width="0.971596"/>
<path d="M93.642 36.3586L93.2533 35.6785H92.3789" stroke="#231F20" stroke-width="0.971596"/>
<path d="M76.6386 65.895H75.7641L75.2783 65.2148" stroke="#231F20" stroke-width="0.971596"/>
<path d="M76.6386 35.6785H75.7641L75.2783 36.3586" stroke="#231F20" stroke-width="0.971596"/>
<path d="M42.3418 48.3091H43.0219V50.4466H45.5481V48.3091H46.2282V53.2642H45.5481V51.0296H43.0219V53.2642H42.3418V48.3091Z" fill="#FF6A00"/>
<path d="M47.1992 50.8352C47.1992 49.9932 47.4259 49.3778 47.8793 48.9892C48.268 48.5358 48.8185 48.3091 49.531 48.3091C50.2436 48.3091 50.7941 48.5358 51.1828 48.9892C51.5714 49.3778 51.7657 49.9932 51.7657 50.8352C51.7657 51.6125 51.5714 52.2279 51.1828 52.6813C50.7941 53.1347 50.2436 53.3614 49.531 53.3614C48.8185 53.3614 48.268 53.1347 47.8793 52.6813C47.4259 52.2279 47.1992 51.6125 47.1992 50.8352ZM49.531 52.7784C50.0492 52.7784 50.4379 52.6165 50.697 52.2926C50.9561 51.9688 51.0856 51.483 51.0856 50.8352C51.0856 50.1875 50.9561 49.7017 50.697 49.3778C50.4379 48.9892 50.0492 48.7949 49.531 48.7949C49.0129 48.7949 48.6242 48.9892 48.3651 49.3778C48.106 49.7017 47.9765 50.1875 47.9765 50.8352C47.9765 51.483 48.106 51.9688 48.3651 52.2926C48.6242 52.6165 49.0129 52.7784 49.531 52.7784Z" fill="#FF6A00"/>
</g>
<path d="M0.557617 78.623H26.5044V90.7486H12.6831C5.9864 90.7486 0.557617 85.3198 0.557617 78.623V78.623Z" fill="white"/>
<rect x="26.5049" y="78.623" width="92.1064" height="12.1255" fill="white"/>
<path d="M118.61 78.623H144.557V78.623C144.557 85.3198 139.128 90.7486 132.432 90.7486H118.61V78.623Z" fill="white"/>
</g>
<rect x="1.30739" y="1.18165" width="142.5" height="84.5005" rx="3.13661" stroke="white" stroke-width="1.49954"/>
<defs>
<clipPath id="clip0_214_14757">
<rect x="0.557617" y="0.431885" width="144" height="86" rx="3.88638" fill="white"/>
</clipPath>
<clipPath id="clip1_214_14757">
<rect width="108.819" height="55.381" fill="white" transform="translate(18.1484 23.2419)"/>
</clipPath>
</defs>
</svg>
