<svg width="145" height="88" viewBox="0 0 145 88" fill="none" xmlns="http://www.w3.org/2000/svg">
<g clip-path="url(#clip0_214_14181)">
<rect x="0.806641" y="0.431885" width="144" height="87" rx="3.88638" fill="white"/>
<path d="M0.806641 5.82723C0.806641 -0.870215 6.23599 -6.29956 12.9334 -6.29956L26.7534 -6.29956V5.82723L0.806641 5.82723V5.82723Z" fill="white"/>
<rect x="26.7539" y="-6.29956" width="92.1064" height="12.1268" fill="white"/>
<path d="M118.859 -6.29956L132.679 -6.29956C139.377 -6.29956 144.806 -0.870215 144.806 5.82723V5.82723L118.859 5.82723V-6.29956Z" fill="white"/>
<rect width="144" height="15" transform="translate(0.806641 5.82727)" fill="white"/>
<path d="M27.9551 11.4381L27.3022 10.9134C27.9084 10.0118 28.7421 9.56093 29.803 9.56093C30.6114 9.56093 31.2468 9.798 31.7093 10.2721C32.1757 10.7424 32.4089 11.3467 32.4089 12.0851C32.4089 12.5398 32.3078 12.9499 32.1057 13.3152C31.9075 13.6805 31.6432 14.04 31.3129 14.3937L28.8761 16.9703H32.677V17.8273H27.5412V17.1219L30.625 13.869C31.1847 13.2821 31.4645 12.6875 31.4645 12.0851C31.4645 11.5993 31.3148 11.201 31.0156 10.8901C30.7163 10.5753 30.3024 10.4179 29.7739 10.4179C29.3503 10.4179 28.9966 10.5092 28.7129 10.6919C28.4331 10.8745 28.1805 11.1233 27.9551 11.4381ZM37.2232 14.347V15.1398L33.9819 15.1398V14.347L37.2232 14.347ZM42.3059 14.5452H40.1606V17.8273H39.2221V9.66586H42.3059C43.2192 9.66586 43.9285 9.88156 44.4337 10.3129C44.939 10.7443 45.1916 11.3428 45.1916 12.1085C45.1916 12.8741 44.939 13.4726 44.4337 13.904C43.9285 14.3315 43.2192 14.5452 42.3059 14.5452ZM42.2768 10.552L40.1606 10.552V13.665L42.2768 13.665C42.9103 13.665 43.3922 13.5348 43.7225 13.2744C44.0529 13.014 44.218 12.6253 44.218 12.1085C44.218 11.5916 44.0529 11.2029 43.7225 10.9425C43.3922 10.6822 42.9103 10.552 42.2768 10.552ZM47.6815 9.43268V13.0762C47.8953 12.773 48.1654 12.5515 48.4918 12.4116C48.8183 12.2678 49.1642 12.1959 49.5295 12.1959C50.2135 12.1959 50.7673 12.398 51.1909 12.8022C51.6184 13.2064 51.8322 13.7407 51.8322 14.4053V17.8273H50.9636V14.691C50.9636 14.1663 50.8237 13.7582 50.5439 13.4667C50.2679 13.1714 49.8773 13.0237 49.3721 13.0237C48.8941 13.0237 48.4918 13.1792 48.1654 13.4901C47.8428 13.7971 47.6815 14.2052 47.6815 14.7143V17.8273H46.8071V9.43268H47.6815ZM56.1296 12.1959C56.8797 12.1959 57.4976 12.4621 57.9834 12.9946C58.4731 13.527 58.7199 14.211 58.7237 15.0466C58.7237 15.167 58.7179 15.2759 58.7063 15.373L54.2816 15.373C54.3399 15.9482 54.5498 16.3932 54.9112 16.708C55.2726 17.0189 55.7137 17.1744 56.2345 17.1744C56.8952 17.1744 57.4782 16.9431 57.9834 16.4806L58.4498 17.0753C57.8474 17.6504 57.0915 17.938 56.1821 17.938C55.362 17.938 54.6916 17.6738 54.1709 17.1452C53.6501 16.6128 53.3897 15.921 53.3897 15.0699C53.3897 14.2304 53.6481 13.5425 54.165 13.0062C54.6819 12.466 55.3368 12.1959 56.1296 12.1959ZM56.1121 12.9712C55.6146 12.9712 55.2046 13.1267 54.8821 13.4376C54.5595 13.7485 54.3632 14.1585 54.2933 14.6676L57.8377 14.6676C57.7832 14.1508 57.5986 13.7388 57.2838 13.4318C56.9729 13.1247 56.5824 12.9712 56.1121 12.9712ZM63.0673 12.1959C63.7513 12.1959 64.3051 12.398 64.7288 12.8022C65.1563 13.2064 65.37 13.7407 65.37 14.4053V17.8273H64.5014V14.691C64.5014 14.1663 64.3615 13.7582 64.0817 13.4667C63.8057 13.1714 63.4152 13.0237 62.9099 13.0237C62.4319 13.0237 62.0297 13.1792 61.7032 13.4901C61.3806 13.7971 61.2194 14.2052 61.2194 14.7143V17.8273H60.3449V12.3067H61.2077V13.0937C61.4176 12.7827 61.6877 12.5554 62.018 12.4116C62.3483 12.2678 62.6981 12.1959 63.0673 12.1959ZM72.2246 12.3067L67.73 20.1824H66.7681L68.8259 16.6322L66.2901 12.3067H67.2636L69.3215 15.7694L71.2685 12.3067H72.2246ZM74.2107 9.43268V17.8273H73.3362V9.43268H74.2107ZM78.5712 12.1959C79.3212 12.1959 79.9392 12.4621 80.425 12.9946C80.9147 13.527 81.1614 14.211 81.1653 15.0466C81.1653 15.167 81.1595 15.2759 81.1478 15.373H76.7232C76.7815 15.9482 76.9914 16.3932 77.3528 16.708C77.7142 17.0189 78.1553 17.1744 78.6761 17.1744C79.3368 17.1744 79.9197 16.9431 80.425 16.4806L80.8913 17.0753C80.289 17.6504 79.5331 17.938 78.6236 17.938C77.8036 17.938 77.1332 17.6738 76.6124 17.1452C76.0917 16.6128 75.8313 15.921 75.8313 15.0699C75.8313 14.2304 76.0897 13.5425 76.6066 13.0062C77.1235 12.466 77.7784 12.1959 78.5712 12.1959ZM78.5537 12.9712C78.0562 12.9712 77.6462 13.1267 77.3236 13.4376C77.0011 13.7485 76.8048 14.1585 76.7349 14.6676H80.2792C80.2248 14.1508 80.0402 13.7388 79.7254 13.4318C79.4145 13.1247 79.0239 12.9712 78.5537 12.9712ZM86.478 12.3067V13.0937H84.0937V15.8802C84.0937 16.296 84.1928 16.6069 84.391 16.8129C84.5892 17.0189 84.8554 17.1219 85.1897 17.1219C85.6055 17.1219 85.9922 16.9917 86.3497 16.7313L86.7578 17.3901C86.2759 17.7554 85.7299 17.938 85.1197 17.938C84.5134 17.938 84.0451 17.769 83.7148 17.4309C83.3883 17.0889 83.2251 16.5778 83.2251 15.8977V13.0937H82.0184V12.3067H83.2251V10.552H84.0937V12.3067H86.478ZM88.8871 9.43268V13.0762C89.1008 12.773 89.3709 12.5515 89.6974 12.4116C90.0238 12.2678 90.3697 12.1959 90.735 12.1959C91.419 12.1959 91.9729 12.398 92.3965 12.8022C92.824 13.2064 93.0377 13.7407 93.0377 14.4053V17.8273H92.1691V14.691C92.1691 14.1663 92.0292 13.7582 91.7494 13.4667C91.4735 13.1714 91.0829 13.0237 90.5776 13.0237C90.0996 13.0237 89.6974 13.1792 89.3709 13.4901C89.0484 13.7971 88.8871 14.2052 88.8871 14.7143V17.8273H88.0126V9.43268H88.8871ZM100.238 12.3067V17.8273H99.3696V17.0053C98.8877 17.6271 98.2154 17.938 97.3526 17.938C96.5714 17.938 95.9166 17.666 95.388 17.1219C94.8595 16.5739 94.5952 15.888 94.5952 15.0641C94.5952 14.2401 94.8595 13.5561 95.388 13.012C95.9166 12.4679 96.5714 12.1959 97.3526 12.1959C98.2115 12.1959 98.8838 12.5068 99.3696 13.1286V12.3067H100.238ZM97.4575 13.012C96.8746 13.012 96.3985 13.2102 96.0293 13.6067C95.664 13.9992 95.4813 14.485 95.4813 15.0641C95.4813 15.6431 95.6659 16.1309 96.0351 16.5273C96.4043 16.9237 96.8785 17.1219 97.4575 17.1219C98.0288 17.1219 98.4991 16.9276 98.8683 16.5389C99.2375 16.1464 99.4221 15.6548 99.4221 15.0641C99.4221 14.4772 99.2375 13.9895 98.8683 13.6008C98.4991 13.2083 98.0288 13.012 97.4575 13.012ZM105.002 12.1959C105.686 12.1959 106.239 12.398 106.663 12.8022C107.09 13.2064 107.304 13.7407 107.304 14.4053V17.8273H106.436V14.691C106.436 14.1663 106.296 13.7582 106.016 13.4667C105.74 13.1714 105.349 13.0237 104.844 13.0237C104.366 13.0237 103.964 13.1792 103.637 13.4901C103.315 13.7971 103.154 14.2052 103.154 14.7143V17.8273H102.279V12.3067H103.142V13.0937C103.352 12.7827 103.622 12.5554 103.952 12.4116C104.283 12.2678 104.632 12.1959 105.002 12.1959ZM111.765 12.1959C112.597 12.1959 113.288 12.4699 113.84 13.0179C114.396 13.5659 114.674 14.2479 114.674 15.0641C114.674 15.8841 114.396 16.5681 113.84 17.1161C113.288 17.664 112.597 17.938 111.765 17.938C110.933 17.938 110.241 17.664 109.69 17.1161C109.138 16.5681 108.862 15.8841 108.862 15.0641C108.862 14.2479 109.138 13.5659 109.69 13.0179C110.245 12.4699 110.937 12.1959 111.765 12.1959ZM113.205 13.595C112.82 13.2064 112.34 13.012 111.765 13.012C111.19 13.012 110.71 13.2064 110.325 13.595C109.94 13.9836 109.748 14.4733 109.748 15.0641C109.748 15.6587 109.94 16.1503 110.325 16.5389C110.71 16.9276 111.19 17.1219 111.765 17.1219C112.34 17.1219 112.82 16.9276 113.205 16.5389C113.59 16.1503 113.782 15.6587 113.782 15.0641C113.782 14.4733 113.59 13.9836 113.205 13.595ZM117.17 9.43268V17.8273H116.295V9.43268L117.17 9.43268Z" fill="#231F20"/>
<g clip-path="url(#clip1_214_14181)">
<path d="M152.477 20.8273L-6.86426 20.8273V82.0378H152.477V20.8273Z" fill="white"/>
<path d="M28.9883 55.2217L33.9434 38.4131" stroke="#231F20" stroke-width="0.971596"/>
<path d="M32 54.5416L36.0807 40.6478" stroke="#231F20" stroke-width="0.971596"/>
<path d="M28.9883 55.2218L41.1332 67.8525" stroke="#231F20" stroke-width="0.971596"/>
<path d="M33.9424 38.4132L50.9453 34.3325" stroke="#231F20" stroke-width="0.971596"/>
<path d="M41.1328 67.8524L58.1357 63.7717" stroke="#231F20" stroke-width="0.971596"/>
<path d="M41.9102 64.9377L55.9983 61.5371" stroke="#231F20" stroke-width="0.971596"/>
<path d="M50.9453 34.3325L62.9931 46.9633" stroke="#231F20" stroke-width="0.971596"/>
<path d="M50.0713 37.2473L60.0787 47.6434" stroke="#231F20" stroke-width="0.971596"/>
<path d="M58.1357 63.7719L62.9937 46.9633" stroke="#231F20" stroke-width="0.971596"/>
<path d="M79.9971 42.8824L92.0449 55.5132" stroke="#231F20" stroke-width="0.971596"/>
<path d="M79.9971 42.8824L62.9941 46.9631" stroke="#231F20" stroke-width="0.971596"/>
<path d="M92.0439 55.5133L99.1366 53.8616" stroke="#231F20" stroke-width="0.971596"/>
<path d="M99.1367 53.8614L106.229 52.1125" stroke="#FF6A00" stroke-width="0.971596"/>
<path d="M29.2798 54.3473L28.9883 55.2217L29.6684 55.8047" stroke="#231F20" stroke-width="0.971596"/>
<path d="M33.748 39.2876L33.9424 38.4132L34.8168 38.2189" stroke="#231F20" stroke-width="0.971596"/>
<path d="M40.4531 67.2697L41.1332 67.8526L41.9105 67.6583" stroke="#231F20" stroke-width="0.971596"/>
<path d="M50.0713 34.5268L50.9457 34.3325L51.5287 34.9155" stroke="#231F20" stroke-width="0.971596"/>
<path d="M57.2607 63.9662L58.1352 63.7719L58.3295 62.8975" stroke="#231F20" stroke-width="0.971596"/>
<path d="M80.579 43.4654L79.996 42.8824L79.2188 43.0768" stroke="#231F20" stroke-width="0.971596"/>
<path d="M91.4609 54.9303L92.0439 55.5133L92.4325 55.4161" stroke="#231F20" stroke-width="0.971596"/>
<path d="M106.812 51.4325C106.812 50.6552 107.007 50.0399 107.395 49.5865C107.784 49.1331 108.335 48.9064 109.047 48.9064C109.824 48.9064 110.407 49.1331 110.796 49.5865C111.185 50.0399 111.379 50.6552 111.379 51.4325C111.379 52.2098 111.185 52.8251 110.796 53.2786C110.407 53.732 109.824 53.9587 109.047 53.9587C108.335 53.9587 107.784 53.732 107.395 53.2786C107.007 52.8251 106.812 52.2098 106.812 51.4325ZM109.047 53.4729C109.565 53.4729 109.954 53.2786 110.213 52.8899C110.537 52.5661 110.699 52.0803 110.699 51.4325C110.699 50.7848 110.537 50.299 110.213 49.9751C109.954 49.6513 109.565 49.4893 109.047 49.4893C108.594 49.4893 108.205 49.6513 107.881 49.9751C107.622 50.299 107.493 50.7848 107.493 51.4325C107.493 52.0803 107.622 52.5661 107.881 52.8899C108.205 53.2786 108.594 53.4729 109.047 53.4729Z" fill="#FF6A00"/>
<path d="M112.156 49.0035H112.836V51.0439H115.363V49.0035H116.043V53.9587H115.363V51.6268H112.836V53.9587H112.156V49.0035Z" fill="#FF6A00"/>
</g>
<path d="M0.806641 82.0378H26.7534V94.1634H12.9322C6.23543 94.1634 0.806641 88.7346 0.806641 82.0378V82.0378Z" fill="white"/>
<rect x="26.7539" y="82.0378" width="92.1064" height="12.1255" fill="white"/>
<path d="M118.859 82.0378H144.806V82.0378C144.806 88.7346 139.377 94.1634 132.681 94.1634H118.859V82.0378Z" fill="white"/>
</g>
<rect x="1.55641" y="1.18165" width="142.5" height="85.5005" rx="3.13661" stroke="white" stroke-width="1.49954"/>
<defs>
<clipPath id="clip0_214_14181">
<rect x="0.806641" y="0.431885" width="144" height="87" rx="3.88638" fill="white"/>
</clipPath>
<clipPath id="clip1_214_14181">
<rect width="159.342" height="61.2105" fill="white" transform="translate(-6.86426 20.8273)"/>
</clipPath>
</defs>
</svg>
