<svg width="145" height="87" viewBox="0 0 145 87" fill="none" xmlns="http://www.w3.org/2000/svg">
<g clip-path="url(#clip0_214_14553)">
<rect x="0.245117" y="0.431885" width="144" height="86" rx="3.88638" fill="white"/>
<path d="M0.245117 6.29891C0.245117 -0.398535 5.67446 -5.82788 12.3719 -5.82788L26.1919 -5.82788V6.29891H0.245117V6.29891Z" fill="white"/>
<rect x="26.1924" y="-5.82788" width="92.1064" height="12.1268" fill="white"/>
<path d="M118.298 -5.82788L132.118 -5.82788C138.815 -5.82788 144.245 -0.398535 144.245 6.29891V6.29891L118.298 6.29891V-5.82788Z" fill="white"/>
<rect width="144" height="15" transform="translate(0.245117 6.29883)" fill="white"/>
<path d="M27.7007 10.0325C28.5052 10.0325 29.1562 10.2404 29.6536 10.6563C30.1511 11.0682 30.3998 11.6045 30.3998 12.2652C30.3998 12.7316 30.2871 13.1241 30.0617 13.4428C29.8363 13.7615 29.5234 14.0063 29.1231 14.1773C29.5701 14.3405 29.9237 14.5873 30.1841 14.9177C30.4484 15.248 30.5805 15.6464 30.5805 16.1127C30.5805 16.4159 30.5281 16.6938 30.4231 16.9464C30.3221 17.199 30.1822 17.4147 30.0034 17.5934C29.8285 17.7683 29.6225 17.918 29.3855 18.0423C29.1484 18.1667 28.8938 18.258 28.6218 18.3163C28.3497 18.3746 28.068 18.4038 27.7765 18.4038C27.2169 18.4038 26.7116 18.3105 26.2608 18.1239C25.81 17.9374 25.433 17.6731 25.1299 17.3311L25.707 16.7307C25.9635 16.9949 26.2686 17.2009 26.6222 17.3486C26.9798 17.4924 27.3587 17.5643 27.759 17.5643C28.2992 17.5643 28.7481 17.4361 29.1056 17.1795C29.4632 16.923 29.642 16.5538 29.642 16.0719C29.642 15.6133 29.4535 15.2519 29.0765 14.9876C28.7034 14.7234 28.2351 14.5912 27.6716 14.5912H26.5989V13.7692H27.6657C28.1904 13.7692 28.6198 13.6429 28.9541 13.3903C29.2922 13.1377 29.4612 12.7782 29.4612 12.3119C29.4612 11.8805 29.2902 11.5326 28.9482 11.2684C28.6062 11.0041 28.1729 10.8719 27.6482 10.8719C27.2635 10.8719 26.9157 10.9594 26.6048 11.1343C26.2977 11.3053 26.0451 11.5268 25.8469 11.7989L25.1998 11.245C25.4486 10.8758 25.7867 10.5824 26.2142 10.3648C26.6417 10.1433 27.1372 10.0325 27.7007 10.0325ZM35.2983 14.8186V15.6114H32.057V14.8186H35.2983ZM45.8434 10.1374V18.2988H44.9048V11.1867L42.06 17.3952H41.0748L38.2358 11.2334V18.2988H37.2972V10.1374H38.7196L41.5703 16.3051L44.4151 10.1374H45.8434ZM50.3563 12.6675C51.1063 12.6675 51.7243 12.9337 52.2101 13.4661C52.6998 13.9985 52.9465 14.6825 52.9504 15.5181C52.9504 15.6386 52.9446 15.7474 52.9329 15.8446H48.5083C48.5666 16.4198 48.7765 16.8648 49.1379 17.1795C49.4993 17.4905 49.9404 17.6459 50.4612 17.6459C51.1219 17.6459 51.7048 17.4147 52.2101 16.9522L52.6764 17.5468C52.074 18.122 51.3181 18.4096 50.4087 18.4096C49.5887 18.4096 48.9183 18.1453 48.3975 17.6168C47.8768 17.0843 47.6164 16.3926 47.6164 15.5414C47.6164 14.702 47.8748 14.0141 48.3917 13.4778C48.9086 12.9376 49.5634 12.6675 50.3563 12.6675ZM50.3388 13.4428C49.8413 13.4428 49.4313 13.5982 49.1087 13.9092C48.7862 14.2201 48.5899 14.6301 48.5199 15.1392H52.0643C52.0099 14.6223 51.8253 14.2104 51.5105 13.9033C51.1996 13.5963 50.809 13.4428 50.3388 13.4428ZM58.2631 12.7782V13.5652H55.8788V16.3517C55.8788 16.7676 55.9779 17.0785 56.1761 17.2845C56.3743 17.4905 56.6405 17.5934 56.9747 17.5934C57.3906 17.5934 57.7773 17.4633 58.1348 17.2029L58.5429 17.8616C58.061 18.2269 57.515 18.4096 56.9048 18.4096C56.2985 18.4096 55.8302 18.2405 55.4999 17.9024C55.1734 17.5604 55.0102 17.0494 55.0102 16.3692V13.5652H53.8035V12.7782H55.0102V11.0235H55.8788V12.7782H58.2631ZM60.6722 9.90424V13.5477C60.8859 13.2446 61.156 13.0231 61.4825 12.8832C61.8089 12.7394 62.1548 12.6675 62.5201 12.6675C63.2041 12.6675 63.7579 12.8695 64.1816 13.2737C64.6091 13.6779 64.8228 14.2123 64.8228 14.8769V18.2988H63.9542V15.1625C63.9542 14.6379 63.8143 14.2298 63.5345 13.9383C63.2585 13.6429 62.868 13.4953 62.3627 13.4953C61.8847 13.4953 61.4825 13.6507 61.156 13.9616C60.8334 14.2686 60.6722 14.6767 60.6722 15.1858V18.2988H59.7977V9.90424H60.6722ZM71.6774 12.7782L67.1828 20.654H66.2209L68.2787 17.1038L65.7429 12.7782H66.7164L68.7743 16.241L70.7213 12.7782H71.6774ZM73.6635 9.90424V18.2988H72.789V9.90424H73.6635ZM78.5894 12.6675C79.3706 12.6675 80.0255 12.9395 80.554 13.4836C81.0826 14.0277 81.3468 14.7117 81.3468 15.5356C81.3468 16.3595 81.0826 17.0455 80.554 17.5934C80.0255 18.1375 79.3706 18.4096 78.5894 18.4096C77.7306 18.4096 77.0602 18.1006 76.5782 17.4827V20.6307H75.7038V12.7782H76.5782V13.5944C77.0602 12.9764 77.7306 12.6675 78.5894 12.6675ZM78.4845 13.4836C77.9132 13.4836 77.443 13.6799 77.0738 14.0724C76.7046 14.461 76.5199 14.9488 76.5199 15.5356C76.5199 16.1263 76.7046 16.618 77.0738 17.0105C77.443 17.3991 77.9132 17.5934 78.4845 17.5934C79.0675 17.5934 79.5416 17.3972 79.9069 17.0047C80.2723 16.6083 80.4549 16.1186 80.4549 15.5356C80.4549 14.9565 80.2703 14.4707 79.9011 14.0782C79.5319 13.6818 79.0597 13.4836 78.4845 13.4836ZM87.834 12.7782L83.3394 20.654H82.3775L84.4353 17.1038L81.8995 12.7782H82.873L84.9308 16.241L86.8779 12.7782H87.834ZM91.4465 12.6675C91.8507 12.6675 92.1888 12.7296 92.4608 12.854L92.251 13.711C91.9789 13.5633 91.6602 13.4894 91.2949 13.4894C90.8596 13.4894 90.504 13.6468 90.2281 13.9616C89.9522 14.2764 89.8142 14.6923 89.8142 15.2092V18.2988H88.9456V12.7782H89.8084V13.5536C89.9988 13.2698 90.2339 13.0522 90.5138 12.9006C90.7975 12.7452 91.1084 12.6675 91.4465 12.6675ZM94.659 12.7782V18.2988H93.7846V12.7782H94.659ZM94.2218 10.2015C94.3928 10.2015 94.5386 10.2618 94.659 10.3823C94.7795 10.4989 94.8397 10.6446 94.8397 10.8195C94.8397 10.9944 94.7795 11.1401 94.659 11.2567C94.5424 11.3733 94.3967 11.4316 94.2218 11.4316C94.0469 11.4316 93.9012 11.3733 93.7846 11.2567C93.668 11.1401 93.6097 10.9944 93.6097 10.8195C93.6097 10.6446 93.668 10.4989 93.7846 10.3823C93.9012 10.2618 94.0469 10.2015 94.2218 10.2015ZM99.037 12.6675C99.8959 12.6675 100.568 12.9784 101.054 13.6002V9.90424L101.923 9.90424V18.2988H101.054V17.4769C100.572 18.0987 99.8998 18.4096 99.037 18.4096C98.2559 18.4096 97.601 18.1375 97.0725 17.5934C96.5439 17.0455 96.2797 16.3595 96.2797 15.5356C96.2797 14.7117 96.5439 14.0277 97.0725 13.4836C97.601 12.9395 98.2559 12.6675 99.037 12.6675ZM99.142 13.4836C98.559 13.4836 98.0829 13.6818 97.7137 14.0782C97.3484 14.4707 97.1657 14.9565 97.1657 15.5356C97.1657 16.1147 97.3504 16.6024 97.7196 16.9988C98.0888 17.3952 98.5629 17.5934 99.142 17.5934C99.7133 17.5934 100.184 17.3991 100.553 17.0105C100.922 16.618 101.107 16.1263 101.107 15.5356C101.107 14.9488 100.922 14.461 100.553 14.0724C100.184 13.6799 99.7133 13.4836 99.142 13.4836ZM104.838 12.7782V18.2988H103.964V12.7782L104.838 12.7782ZM104.401 10.2015C104.572 10.2015 104.718 10.2618 104.838 10.3823C104.958 10.4989 105.019 10.6446 105.019 10.8195C105.019 10.9944 104.958 11.1401 104.838 11.2567C104.721 11.3733 104.576 11.4316 104.401 11.4316C104.226 11.4316 104.08 11.3733 103.964 11.2567C103.847 11.1401 103.789 10.9944 103.789 10.8195C103.789 10.6446 103.847 10.4989 103.964 10.3823C104.08 10.2618 104.226 10.2015 104.401 10.2015ZM109.601 12.6675C110.285 12.6675 110.839 12.8695 111.262 13.2737C111.69 13.6779 111.903 14.2123 111.903 14.8769V18.2988H111.035V15.1625C111.035 14.6379 110.895 14.2298 110.615 13.9383C110.339 13.6429 109.949 13.4953 109.443 13.4953C108.965 13.4953 108.563 13.6507 108.237 13.9616C107.914 14.2686 107.753 14.6767 107.753 15.1858V18.2988H106.878V12.7782H107.741V13.5652C107.951 13.2543 108.221 13.0269 108.551 12.8832C108.882 12.7394 109.232 12.6675 109.601 12.6675ZM116.201 12.6675C116.951 12.6675 117.569 12.9337 118.055 13.4661C118.544 13.9985 118.791 14.6825 118.795 15.5181C118.795 15.6386 118.789 15.7474 118.778 15.8446H114.353C114.411 16.4198 114.621 16.8648 114.982 17.1795C115.344 17.4905 115.785 17.6459 116.306 17.6459C116.966 17.6459 117.549 17.4147 118.055 16.9522L118.521 17.5468C117.919 18.122 117.163 18.4096 116.253 18.4096C115.433 18.4096 114.763 18.1453 114.242 17.6168C113.721 17.0843 113.461 16.3926 113.461 15.5414C113.461 14.702 113.719 14.0141 114.236 13.4778C114.753 12.9376 115.408 12.6675 116.201 12.6675ZM116.183 13.4428C115.686 13.4428 115.276 13.5982 114.953 13.9092C114.631 14.2201 114.435 14.6301 114.365 15.1392H117.909C117.855 14.6223 117.67 14.2104 117.355 13.9033C117.044 13.5963 116.654 13.4428 116.183 13.4428Z" fill="#231F20"/>
<g clip-path="url(#clip1_214_14553)">
<path d="M120.339 21.2988L24.1514 21.2988V80.5662H120.339V21.2988Z" fill="white"/>
<path d="M45.915 51.7098H63.4038" stroke="#231F20" stroke-width="0.971596"/>
<path d="M89.7343 66.8667H72.1484" stroke="#231F20" stroke-width="0.971596"/>
<path d="M88.1799 64.2433H73.7031" stroke="#231F20" stroke-width="0.971596"/>
<path d="M89.7344 66.8667L98.4787 51.7098" stroke="#231F20" stroke-width="0.971596"/>
<path d="M72.1487 66.8667L63.4043 51.7098" stroke="#231F20" stroke-width="0.971596"/>
<path d="M98.4792 51.7098L94.9814 45.6859" stroke="#231F20" stroke-width="0.971596"/>
<path d="M94.9802 45.6859L91.4824 39.662" stroke="#0F4BA3" stroke-width="0.971596"/>
<path d="M95.3689 51.7099L92.2598 46.3661" stroke="#231F20" stroke-width="0.971596"/>
<path d="M92.2605 46.366L89.1514 40.925" stroke="#0F4BA3" stroke-width="0.971596"/>
<path d="M72.1487 36.5529L63.4043 51.7098" stroke="#231F20" stroke-width="0.971596"/>
<path d="M73.7025 39.1763L66.5127 51.7099" stroke="#231F20" stroke-width="0.971596"/>
<path d="M72.1484 36.5529H79.7269" stroke="#231F20" stroke-width="0.971596"/>
<path d="M79.7266 36.5529H87.2079" stroke="#0F4BA3" stroke-width="0.971596"/>
<path d="M88.7627 66.8666H89.7343L90.1229 66.0894" stroke="#231F20" stroke-width="0.971596"/>
<path d="M73.0228 66.8666H72.1484L71.7598 66.0894" stroke="#231F20" stroke-width="0.971596"/>
<path d="M97.9922 52.4871L98.478 51.7098L98.2837 51.4183" stroke="#231F20" stroke-width="0.971596"/>
<path d="M71.7598 37.3301L72.1484 36.5529H72.537" stroke="#231F20" stroke-width="0.971596"/>
<path d="M88.5683 34.1239L90.22 36.7472C90.3496 36.9415 90.4791 37.1682 90.6086 37.4273C90.803 37.7512 90.9001 37.9131 90.9001 37.9131V34.1239H91.5802V39.079H90.9001L89.1513 36.1643C89.0217 35.9699 88.8922 35.7432 88.7626 35.4841C88.5683 35.225 88.4711 35.0631 88.4711 34.9983V39.079H87.791V34.1239H88.5683Z" fill="#0F4BA3"/>
</g>
<path d="M0.245117 80.5662H26.1919V92.6917H12.3706C5.6739 92.6917 0.245117 87.2629 0.245117 80.5662V80.5662Z" fill="white"/>
<rect x="26.1924" y="80.5662" width="92.1064" height="12.1255" fill="white"/>
<path d="M118.298 80.5662H144.245V80.5662C144.245 87.2629 138.816 92.6917 132.119 92.6917H118.298V80.5662Z" fill="white"/>
</g>
<rect x="0.994886" y="1.18165" width="142.5" height="84.5005" rx="3.13661" stroke="white" stroke-width="1.49954"/>
<defs>
<clipPath id="clip0_214_14553">
<rect x="0.245117" y="0.431885" width="144" height="86" rx="3.88638" fill="white"/>
</clipPath>
<clipPath id="clip1_214_14553">
<rect width="96.188" height="59.2673" fill="white" transform="translate(24.1514 21.2988)"/>
</clipPath>
</defs>
</svg>
