<svg width="144" height="88" viewBox="0 0 144 88" fill="none" xmlns="http://www.w3.org/2000/svg">
<g clip-path="url(#clip0_214_14086)">
<rect x="0.494141" y="0.431885" width="143" height="87" rx="3.88638" fill="white"/>
<path d="M0.494141 12.5587C0.494141 5.86123 5.92349 0.431885 12.6209 0.431885L26.4409 0.431885V12.5587L0.494141 12.5587V12.5587Z" fill="white"/>
<rect x="26.4414" y="0.431885" width="91.1064" height="12.1268" fill="white"/>
<path d="M117.547 0.431885L131.367 0.431885C138.064 0.431885 143.494 5.86123 143.494 12.5587V12.5587L117.547 12.5587V0.431885Z" fill="white"/>
<rect width="143" height="15" transform="translate(0.494141 12.5587)" fill="white"/>
<path d="M22.1717 16.3973H25.2439C26.5769 16.3973 27.636 16.7665 28.421 17.5049C29.2061 18.2433 29.5986 19.2344 29.5986 20.478C29.5986 21.7217 29.2061 22.7127 28.421 23.4511C27.636 24.1895 26.5769 24.5587 25.2439 24.5587H22.1717V16.3973ZM25.2439 17.2834H23.1103V23.6726H25.2439C26.3243 23.6726 27.156 23.385 27.739 22.8098C28.3219 22.2347 28.6134 21.4574 28.6134 20.478C28.6134 19.4948 28.3219 18.7175 27.739 18.1462C27.1599 17.571 26.3282 17.2834 25.2439 17.2834ZM32.2024 19.0381V24.5587H31.328V19.0381H32.2024ZM31.7652 16.4614C31.9362 16.4614 32.0819 16.5217 32.2024 16.6422C32.3229 16.7587 32.3831 16.9045 32.3831 17.0794C32.3831 17.2543 32.3229 17.4 32.2024 17.5166C32.0858 17.6332 31.9401 17.6915 31.7652 17.6915C31.5903 17.6915 31.4446 17.6332 31.328 17.5166C31.2114 17.4 31.1531 17.2543 31.1531 17.0794C31.1531 16.9045 31.2114 16.7587 31.328 16.6422C31.4446 16.5217 31.5903 16.4614 31.7652 16.4614ZM41.1158 18.9273C41.8037 18.9273 42.3595 19.1294 42.7831 19.5336C43.2106 19.9378 43.4243 20.4722 43.4243 21.1368V24.5587H42.5557V21.4224C42.5557 20.8977 42.4158 20.4897 42.136 20.1982C41.8562 19.9028 41.4637 19.7551 40.9584 19.7551C40.4804 19.7551 40.0782 19.9106 39.7517 20.2215C39.4291 20.5285 39.2679 20.9366 39.2679 21.4457V24.5587H38.3992V21.4224C38.3992 20.8977 38.2593 20.4897 37.9795 20.1982C37.7036 19.9028 37.313 19.7551 36.8078 19.7551C36.3297 19.7551 35.9275 19.9106 35.6011 20.2215C35.2785 20.5285 35.1172 20.9366 35.1172 21.4457V24.5587H34.2428V19.0381H35.1055V19.8251C35.3154 19.5142 35.5855 19.2868 35.9158 19.143C36.2462 18.9992 36.596 18.9273 36.9652 18.9273C37.4432 18.9273 37.8629 19.0303 38.2244 19.2363C38.5858 19.4384 38.8559 19.7221 39.0347 20.0874C39.2407 19.6871 39.5302 19.3937 39.9033 19.2072C40.2803 19.0206 40.6844 18.9273 41.1158 18.9273ZM47.7211 18.9273C48.4712 18.9273 49.0891 19.1936 49.5749 19.726C50.0646 20.2584 50.3114 20.9424 50.3153 21.778C50.3153 21.8985 50.3094 22.0073 50.2978 22.1045L45.8731 22.1045C45.9314 22.6796 46.1413 23.1246 46.5027 23.4394C46.8642 23.7503 47.3053 23.9058 47.826 23.9058C48.4867 23.9058 49.0697 23.6746 49.5749 23.2121L50.0413 23.8067C49.4389 24.3819 48.683 24.6695 47.7736 24.6695C46.9535 24.6695 46.2831 24.4052 45.7624 23.8767C45.2416 23.3442 44.9812 22.6524 44.9812 21.8013C44.9812 20.9619 45.2396 20.274 45.7565 19.7377C46.2734 19.1974 46.9283 18.9273 47.7211 18.9273ZM47.7036 19.7027C47.2062 19.7027 46.7961 19.8581 46.4736 20.169C46.151 20.48 45.9547 20.89 45.8848 21.3991H49.4292C49.3748 20.8822 49.1902 20.4702 48.8754 20.1632C48.5645 19.8562 48.1739 19.7027 47.7036 19.7027ZM55.6279 19.0381V19.8251H53.2436V22.6116C53.2436 23.0275 53.3427 23.3384 53.5409 23.5444C53.7391 23.7503 54.0054 23.8533 54.3396 23.8533C54.7554 23.8533 55.1421 23.7231 55.4997 23.4628L55.9077 24.1215C55.4258 24.4868 54.8798 24.6695 54.2696 24.6695C53.6634 24.6695 53.195 24.5004 52.8647 24.1623C52.5382 23.8203 52.375 23.3092 52.375 22.6291V19.8251H51.1683V19.0381H52.375V17.2834H53.2436V19.0381H55.6279ZM58.037 16.1641V19.8076C58.2507 19.5045 58.5209 19.2829 58.8473 19.143C59.1738 18.9992 59.5197 18.9273 59.885 18.9273C60.569 18.9273 61.1228 19.1294 61.5464 19.5336C61.9739 19.9378 62.1877 20.4722 62.1877 21.1368V24.5587H61.319V21.4224C61.319 20.8977 61.1791 20.4897 60.8993 20.1982C60.6234 19.9028 60.2328 19.7551 59.7276 19.7551C59.2495 19.7551 58.8473 19.9106 58.5209 20.2215C58.1983 20.5285 58.037 20.9366 58.037 21.4457V24.5587H57.1626V16.1641H58.037ZM69.0422 19.0381L64.5476 26.9139H63.5857L65.6436 23.3637L63.1077 19.0381H64.0813L66.1391 22.5009L68.0862 19.0381H69.0422ZM71.0283 16.1641V24.5587H70.1539V16.1641H71.0283ZM78.5147 18.9273C79.3735 18.9273 80.0459 19.2383 80.5317 19.8601V16.1641H81.4003V24.5587H80.5317V23.7367C80.0498 24.3586 79.3774 24.6695 78.5147 24.6695C77.7335 24.6695 77.0786 24.3974 76.5501 23.8533C76.0215 23.3054 75.7573 22.6194 75.7573 21.7955C75.7573 20.9716 76.0215 20.2876 76.5501 19.7435C77.0786 19.1994 77.7335 18.9273 78.5147 18.9273ZM78.6196 19.7435C78.0366 19.7435 77.5605 19.9417 77.1913 20.3381C76.826 20.7306 76.6434 21.2164 76.6434 21.7955C76.6434 22.3746 76.828 22.8623 77.1972 23.2587C77.5664 23.6551 78.0405 23.8533 78.6196 23.8533C79.1909 23.8533 79.6611 23.659 80.0303 23.2704C80.3996 22.8779 80.5842 22.3862 80.5842 21.7955C80.5842 21.2087 80.3996 20.7209 80.0303 20.3323C79.6611 19.9397 79.1909 19.7435 78.6196 19.7435ZM84.3156 19.0381V24.5587H83.4412V19.0381H84.3156ZM83.8784 16.4614C84.0494 16.4614 84.1952 16.5217 84.3156 16.6422C84.4361 16.7587 84.4963 16.9045 84.4963 17.0794C84.4963 17.2543 84.4361 17.4 84.3156 17.5166C84.199 17.6332 84.0533 17.6915 83.8784 17.6915C83.7035 17.6915 83.5578 17.6332 83.4412 17.5166C83.3246 17.4 83.2663 17.2543 83.2663 17.0794C83.2663 16.9045 83.3246 16.7587 83.4412 16.6422C83.5578 16.5217 83.7035 16.4614 83.8784 16.4614ZM90.4425 19.5336L90.0636 20.2099C89.8615 20.0699 89.5953 19.9495 89.2649 19.8484C88.9385 19.7435 88.6023 19.691 88.2564 19.691C87.86 19.691 87.5433 19.7687 87.3062 19.9242C87.0691 20.0797 86.9506 20.2915 86.9506 20.5596C86.9506 20.9871 87.3256 21.2456 88.0757 21.335L88.7286 21.4166C89.9645 21.5759 90.5824 22.0889 90.5824 22.9556C90.5824 23.4802 90.3628 23.8961 89.9237 24.2031C89.4845 24.5101 88.8938 24.6636 88.1515 24.6636C87.2382 24.6636 86.4706 24.4285 85.8488 23.9583L86.251 23.3054C86.764 23.7057 87.4014 23.9058 88.1631 23.9058C88.6373 23.9058 89.0084 23.83 89.2766 23.6784C89.5486 23.523 89.6847 23.3015 89.6847 23.0139C89.6847 22.5708 89.2999 22.3027 88.5304 22.2094L87.8717 22.1336C87.2615 22.0598 86.8049 21.8927 86.5017 21.6323C86.1986 21.368 86.047 21.026 86.047 20.6063C86.047 20.0894 86.2472 19.6813 86.6475 19.3821C87.0478 19.0828 87.5821 18.9332 88.2506 18.9332C88.6742 18.9332 89.0764 18.9876 89.4573 19.0964C89.8382 19.2052 90.1666 19.351 90.4425 19.5336ZM97.0552 19.0381V22.256C97.0552 22.6524 96.9872 23.008 96.8511 23.3228C96.7151 23.6338 96.5305 23.8864 96.2973 24.0807C96.0641 24.275 95.7979 24.4227 95.4987 24.5237C95.2033 24.6209 94.8866 24.6695 94.5484 24.6695C94.2064 24.6695 93.8858 24.6209 93.5866 24.5237C93.2912 24.4227 93.0269 24.275 92.7937 24.0807C92.5606 23.8864 92.376 23.6338 92.2399 23.3228C92.1078 23.008 92.0417 22.6524 92.0417 22.256V19.0381H92.9103V22.1744C92.9103 22.7263 93.06 23.1441 93.3592 23.4278C93.6585 23.7115 94.0549 23.8533 94.5484 23.8533C95.042 23.8533 95.4365 23.7115 95.7319 23.4278C96.0311 23.1441 96.1807 22.7263 96.1807 22.1744V19.0381H97.0552ZM99.9029 16.1641V24.5587H99.0285V16.1641H99.9029ZM105.563 19.0381V19.8251H103.366V24.5587H102.491V19.8251H101.232V19.0381H102.491V18.0937C102.491 17.468 102.641 16.9725 102.94 16.6072C103.239 16.238 103.702 16.0534 104.328 16.0534C104.883 16.0534 105.387 16.1913 105.837 16.4673L105.523 17.196C105.153 16.9783 104.774 16.8695 104.386 16.8695C103.706 16.8695 103.366 17.2776 103.366 18.0937V19.0381H105.563ZM107.85 19.0381V24.5587H106.976V19.0381H107.85ZM107.413 16.4614C107.584 16.4614 107.73 16.5217 107.85 16.6422C107.971 16.7587 108.031 16.9045 108.031 17.0794C108.031 17.2543 107.971 17.4 107.85 17.5166C107.734 17.6332 107.588 17.6915 107.413 17.6915C107.238 17.6915 107.092 17.6332 106.976 17.5166C106.859 17.4 106.801 17.2543 106.801 17.0794C106.801 16.9045 106.859 16.7587 106.976 16.6422C107.092 16.5217 107.238 16.4614 107.413 16.4614ZM112.228 18.9273C113.087 18.9273 113.76 19.2383 114.245 19.8601V16.1641H115.114V24.5587H114.245V23.7367C113.763 24.3586 113.091 24.6695 112.228 24.6695C111.447 24.6695 110.792 24.3974 110.264 23.8533C109.735 23.3054 109.471 22.6194 109.471 21.7955C109.471 20.9716 109.735 20.2876 110.264 19.7435C110.792 19.1994 111.447 18.9273 112.228 18.9273ZM112.333 19.7435C111.75 19.7435 111.274 19.9417 110.905 20.3381C110.54 20.7306 110.357 21.2164 110.357 21.7955C110.357 22.3746 110.542 22.8623 110.911 23.2587C111.28 23.6551 111.754 23.8533 112.333 23.8533C112.905 23.8533 113.375 23.659 113.744 23.2704C114.113 22.8779 114.298 22.3862 114.298 21.7955C114.298 21.2087 114.113 20.7209 113.744 20.3323C113.375 19.9397 112.905 19.7435 112.333 19.7435ZM119.475 18.9273C120.225 18.9273 120.843 19.1936 121.329 19.726C121.818 20.2584 122.065 20.9424 122.069 21.778C122.069 21.8985 122.063 22.0073 122.052 22.1045H117.627C117.685 22.6796 117.895 23.1246 118.257 23.4394C118.618 23.7503 119.059 23.9058 119.58 23.9058C120.241 23.9058 120.824 23.6746 121.329 23.2121L121.795 23.8067C121.193 24.3819 120.437 24.6695 119.527 24.6695C118.707 24.6695 118.037 24.4052 117.516 23.8767C116.995 23.3442 116.735 22.6524 116.735 21.8013C116.735 20.9619 116.994 20.274 117.51 19.7377C118.027 19.1974 118.682 18.9273 119.475 18.9273ZM119.457 19.7027C118.96 19.7027 118.55 19.8581 118.227 20.169C117.905 20.48 117.709 20.89 117.639 21.3991H121.183C121.129 20.8822 120.944 20.4702 120.629 20.1632C120.318 19.8562 119.928 19.7027 119.457 19.7027Z" fill="#231F20"/>
<path d="M0.494141 27.5587L26.4409 27.5587V39.6842H12.6197C5.92293 39.6842 0.494141 34.2555 0.494141 27.5587V27.5587Z" fill="white"/>
<rect x="26.4414" y="27.5587" width="91.1064" height="12.1255" fill="white"/>
<path d="M117.547 27.5587L143.494 27.5587V27.5587C143.494 34.2555 138.065 39.6842 131.368 39.6842H117.547V27.5587Z" fill="white"/>
<g clip-path="url(#clip1_214_14086)">
<path d="M114.258 39.6842L29.7295 39.6842V67.8605H114.258V39.6842Z" fill="white"/>
<path d="M48.7725 55.2297L55.7679 52.3149" stroke="#231F20" stroke-width="0.971596"/>
<path d="M55.7686 52.3149L62.6669 49.303" stroke="#CFCF37" stroke-width="0.971596"/>
<path d="M94.9242 52.0234L87.9287 55.0354" stroke="#231F20" stroke-width="0.971596"/>
<path d="M87.9276 55.0355L81.0293 57.9503" stroke="#CFCF37" stroke-width="0.971596"/>
<path d="M67.0391 49.9832L76.6579 57.2701" stroke="#CFCF37" stroke-width="0.971596"/>
<path d="M63.4443 50.0803C63.5091 50.0803 63.6063 50.1127 63.7358 50.1775C63.9301 50.2423 64.092 50.307 64.2216 50.3718C64.4159 50.4366 64.5778 50.469 64.7074 50.469C65.0313 50.469 65.2904 50.3718 65.4847 50.1775C65.679 50.0479 65.7761 49.8536 65.7761 49.5945C65.7761 49.4002 65.7114 49.2383 65.5818 49.1087C65.5171 49.044 65.4199 48.9792 65.2903 48.9144C65.1608 48.8496 64.9665 48.7849 64.7074 48.7201C64.4483 48.5905 64.2216 48.4934 64.0273 48.4286C63.833 48.3638 63.671 48.2343 63.5415 48.04C63.4119 47.8457 63.3472 47.619 63.3472 47.3599C63.3472 46.9064 63.5091 46.5502 63.833 46.2911C64.092 46.032 64.5131 45.9025 65.096 45.9025C65.4847 45.9025 65.8733 45.9996 66.2619 46.1939L66.1648 46.7769C65.7114 46.5826 65.3551 46.4854 65.096 46.4854C64.7722 46.4854 64.5131 46.5502 64.3188 46.6797C64.1244 46.8093 64.0597 47.0036 64.1244 47.2627C64.1244 47.457 64.1568 47.5866 64.2216 47.6513C64.2864 47.7809 64.3835 47.878 64.5131 47.9428C64.6426 48.0076 64.8369 48.0724 65.096 48.1371C65.3551 48.2019 65.5818 48.2991 65.7761 48.4286C65.9705 48.4934 66.1324 48.6229 66.2619 48.8173C66.3915 49.0116 66.4563 49.2707 66.4563 49.5945C66.4563 50.0479 66.2943 50.4042 65.9705 50.6633C65.6466 50.9224 65.258 51.0519 64.8046 51.0519C64.4807 51.0519 64.2216 50.9872 64.0273 50.8576C63.7682 50.8576 63.5091 50.7928 63.25 50.6633L63.4443 50.0803Z" fill="#CFCF37"/>
<path d="M77.4355 60.5735C77.5003 60.6383 77.5975 60.703 77.727 60.7678C77.8566 60.8326 78.0185 60.865 78.2128 60.865C78.4071 60.9297 78.5691 60.9621 78.6986 60.9621C79.0225 60.9621 79.2816 60.8974 79.4759 60.7678C79.6702 60.5735 79.7674 60.3468 79.7674 60.0877C79.7674 59.8934 79.7026 59.7638 79.573 59.6991C79.5083 59.5695 79.4111 59.4723 79.2816 59.4076C79.152 59.3428 78.9577 59.278 78.6986 59.2133C78.3747 59.0837 78.148 58.9866 78.0185 58.9218C77.8242 58.857 77.6622 58.7275 77.5327 58.5331C77.4031 58.3388 77.3384 58.1121 77.3384 57.853C77.3384 57.3996 77.4679 57.0434 77.727 56.7843C78.0509 56.5252 78.5043 56.3956 79.0872 56.3956C79.4111 56.3956 79.7997 56.4928 80.2532 56.6871L80.0588 57.2701C79.6702 57.0757 79.3463 56.9786 79.0872 56.9786C78.7634 56.9786 78.5043 57.0434 78.31 57.1729C78.1156 57.3025 78.0185 57.4968 78.0185 57.7559C78.0185 57.9502 78.0833 58.0797 78.2128 58.1445C78.2776 58.274 78.3747 58.3712 78.5043 58.436C78.6338 58.5008 78.8281 58.5655 79.0872 58.6303C79.3463 58.6951 79.573 58.7922 79.7674 58.9218C79.9617 58.9866 80.1236 59.1161 80.2532 59.3104C80.3827 59.5047 80.4475 59.7638 80.4475 60.0877C80.4475 60.5411 80.2855 60.8974 79.9617 61.1564C79.6378 61.4155 79.2168 61.5451 78.6986 61.5451C78.4395 61.5451 78.1804 61.5127 77.9213 61.4479C77.727 61.3832 77.5003 61.286 77.2412 61.1564L77.4355 60.5735Z" fill="#CFCF37"/>
</g>
</g>
<rect x="1.24391" y="1.18165" width="141.5" height="85.5005" rx="3.13661" stroke="white" stroke-width="1.49954"/>
<defs>
<clipPath id="clip0_214_14086">
<rect x="0.494141" y="0.431885" width="143" height="87" rx="3.88638" fill="white"/>
</clipPath>
<clipPath id="clip1_214_14086">
<rect width="84.5288" height="28.1763" fill="white" transform="translate(29.7295 39.6842)"/>
</clipPath>
</defs>
</svg>
