<svg width="144" height="87" viewBox="0 0 144 87" fill="none" xmlns="http://www.w3.org/2000/svg">
<g clip-path="url(#clip0_214_15021)">
<rect x="0.119141" y="0.431885" width="143" height="86" rx="3.88638" fill="white"/>
<rect width="143" height="15" transform="translate(0.119141 12.6323)" fill="white"/>
<path d="M49.2967 16.4709H52.3689C53.7019 16.4709 54.761 16.8401 55.546 17.5785C56.3311 18.317 56.7236 19.308 56.7236 20.5516C56.7236 21.7953 56.3311 22.7863 55.546 23.5247C54.761 24.2631 53.7019 24.6323 52.3689 24.6323H49.2967V16.4709ZM52.3689 17.357H50.2353V23.7462H52.3689C53.4493 23.7462 54.281 23.4586 54.864 22.8835C55.4469 22.3083 55.7384 21.531 55.7384 20.5516C55.7384 19.5684 55.4469 18.7911 54.864 18.2198C54.2849 17.6446 53.4532 17.357 52.3689 17.357ZM60.7959 19.001C61.546 19.001 62.1639 19.2672 62.6497 19.7996C63.1394 20.332 63.3862 21.016 63.3901 21.8516C63.3901 21.9721 63.3842 22.0809 63.3726 22.1781H58.9479C59.0062 22.7533 59.2161 23.1982 59.5775 23.513C59.939 23.824 60.3801 23.9794 60.9008 23.9794C61.5615 23.9794 62.1445 23.7482 62.6497 23.2857L63.1161 23.8803C62.5137 24.4555 61.7578 24.7431 60.8484 24.7431C60.0284 24.7431 59.358 24.4788 58.8372 23.9503C58.3164 23.4178 58.056 22.7261 58.056 21.8749C58.056 21.0355 58.3145 20.3476 58.8314 19.8113C59.3482 19.2711 60.0031 19.001 60.7959 19.001ZM60.7784 19.7763C60.281 19.7763 59.871 19.9317 59.5484 20.2427C59.2258 20.5536 59.0296 20.9636 58.9596 21.4727H62.504C62.4496 20.9558 62.265 20.5438 61.9502 20.2368C61.6393 19.9298 61.2487 19.7763 60.7784 19.7763ZM67.448 19.001C67.86 19.001 68.2428 19.0767 68.5964 19.2283C68.9501 19.376 69.2493 19.5897 69.4942 19.8696L68.9346 20.4583C68.4954 20.0308 67.9921 19.8171 67.4247 19.8171C66.8689 19.8171 66.4045 20.0114 66.0314 20.4001C65.6622 20.7887 65.4776 21.2784 65.4776 21.8691C65.4776 22.4637 65.6622 22.9553 66.0314 23.344C66.4045 23.7326 66.8689 23.9269 67.4247 23.9269C67.9999 23.9269 68.509 23.7113 68.952 23.2799L69.4942 23.8745C69.2455 24.1543 68.9443 24.37 68.5906 24.5216C68.2369 24.6692 67.8561 24.7431 67.448 24.7431C66.6086 24.7431 65.9226 24.471 65.3902 23.9269C64.8577 23.3829 64.5915 22.6969 64.5915 21.8691C64.5915 21.0452 64.8577 20.3612 65.3902 19.8171C65.9226 19.273 66.6086 19.001 67.448 19.001ZM76.0983 19.1117V24.6323H75.2297V23.8104C74.7478 24.4322 74.0754 24.7431 73.2126 24.7431C72.4315 24.7431 71.7766 24.471 71.2481 23.9269C70.7195 23.379 70.4553 22.693 70.4553 21.8691C70.4553 21.0452 70.7195 20.3612 71.2481 19.8171C71.7766 19.273 72.4315 19.001 73.2126 19.001C74.0715 19.001 74.7439 19.3119 75.2297 19.9337V19.1117H76.0983ZM73.3176 19.8171C72.7346 19.8171 72.2585 20.0153 71.8893 20.4117C71.524 20.8042 71.3413 21.29 71.3413 21.8691C71.3413 22.4482 71.526 22.9359 71.8952 23.3323C72.2644 23.7287 72.7385 23.9269 73.3176 23.9269C73.8889 23.9269 74.3591 23.7326 74.7283 23.344C75.0975 22.9515 75.2821 22.4598 75.2821 21.8691C75.2821 21.2823 75.0975 20.7945 74.7283 20.4059C74.3591 20.0134 73.8889 19.8171 73.3176 19.8171ZM80.8616 19.001C81.5456 19.001 82.0994 19.203 82.523 19.6072C82.9505 20.0114 83.1643 20.5458 83.1643 21.2104V24.6323H82.2957V21.496C82.2957 20.9714 82.1558 20.5633 81.8759 20.2718C81.6 19.9764 81.2094 19.8288 80.7042 19.8288C80.2262 19.8288 79.8239 19.9842 79.4975 20.2951C79.1749 20.6021 79.0136 21.0102 79.0136 21.5193V24.6323H78.1392V19.1117H79.002V19.8987C79.2118 19.5878 79.4819 19.3604 79.8123 19.2166C80.1426 19.0729 80.4924 19.001 80.8616 19.001ZM90.3648 19.1117V24.6323H89.4962V23.8104C89.0143 24.4322 88.3419 24.7431 87.4792 24.7431C86.698 24.7431 86.0431 24.471 85.5146 23.9269C84.986 23.379 84.7218 22.693 84.7218 21.8691C84.7218 21.0452 84.986 20.3612 85.5146 19.8171C86.0431 19.273 86.698 19.001 87.4792 19.001C88.338 19.001 89.0104 19.3119 89.4962 19.9337V19.1117H90.3648ZM87.5841 19.8171C87.0011 19.8171 86.5251 20.0153 86.1558 20.4117C85.7905 20.8042 85.6079 21.29 85.6079 21.8691C85.6079 22.4482 85.7925 22.9359 86.1617 23.3323C86.5309 23.7287 87.005 23.9269 87.5841 23.9269C88.1554 23.9269 88.6256 23.7326 88.9948 23.344C89.3641 22.9515 89.5487 22.4598 89.5487 21.8691C89.5487 21.2823 89.3641 20.7945 88.9948 20.4059C88.6256 20.0134 88.1554 19.8171 87.5841 19.8171ZM93.2801 16.2377V24.6323H92.4057V16.2377H93.2801Z" fill="#231F20"/>
<path d="M0.119141 39.7591C0.119141 33.0617 5.54849 27.6323 12.2459 27.6323H26.0659V39.7591H0.119141V39.7591Z" fill="white"/>
<rect x="26.0664" y="27.6323" width="91.1064" height="12.1268" fill="white"/>
<path d="M117.172 27.6323H130.992C137.689 27.6323 143.119 33.0617 143.119 39.7591V39.7591H117.172V27.6323Z" fill="white"/>
<g clip-path="url(#clip1_214_15021)">
<path d="M211.529 39.7593L-68.291 39.7593V62.106L211.529 62.106V39.7593Z" fill="white"/>
<path d="M-5.04004 53.07L10.1169 44.3257" stroke="#231F20" stroke-width="0.971596"/>
<path d="M10.1172 44.3257L25.2741 53.07" stroke="#231F20" stroke-width="0.971596"/>
<path d="M25.2734 53.07L40.4303 44.3257" stroke="#231F20" stroke-width="0.971596"/>
<path d="M40.4307 44.3257L55.5876 53.07" stroke="#231F20" stroke-width="0.971596"/>
<path d="M55.5879 53.07L70.7448 44.3257" stroke="#231F20" stroke-width="0.971596"/>
<path d="M70.7441 44.3257L85.901 53.07" stroke="#231F20" stroke-width="0.971596"/>
<path d="M85.9014 53.07L100.961 44.3257" stroke="#231F20" stroke-width="0.971596"/>
<path d="M100.961 44.3257L116.118 53.07" stroke="#231F20" stroke-width="0.971596"/>
<path d="M116.117 53.07L131.274 44.3257" stroke="#231F20" stroke-width="0.971596"/>
<path d="M131.275 44.3257L137.396 47.9206" stroke="#231F20" stroke-width="0.971596"/>
<path d="M137.396 47.9207L143.615 51.4184" stroke="#FF6A00" stroke-width="0.971596"/>
<path d="M131.275 47.4348L136.133 50.1553" stroke="#231F20" stroke-width="0.971596"/>
<path d="M136.133 50.1553L142.254 53.7502" stroke="#FF6A00" stroke-width="0.971596"/>
<path d="M9.33984 44.8115L10.1171 44.3257L10.8944 44.8115" stroke="#231F20" stroke-width="0.971596"/>
<path d="M24.4961 52.6816L25.2734 53.0703L26.0506 52.6816" stroke="#231F20" stroke-width="0.971596"/>
<path d="M39.6533 44.8115L40.4306 44.3257L41.2079 44.8115" stroke="#231F20" stroke-width="0.971596"/>
<path d="M54.8105 52.6816L55.5878 53.0703L56.3651 52.6816" stroke="#231F20" stroke-width="0.971596"/>
<path d="M69.9668 44.8115L70.7441 44.3257L71.4242 44.8115" stroke="#231F20" stroke-width="0.971596"/>
<path d="M85.124 52.6816L85.9013 53.0703L86.5814 52.6816" stroke="#231F20" stroke-width="0.971596"/>
<path d="M100.281 44.8115L100.961 44.3257L101.739 44.8115" stroke="#231F20" stroke-width="0.971596"/>
<path d="M115.438 52.6816L116.118 53.0703L116.895 52.6816" stroke="#231F20" stroke-width="0.971596"/>
<path d="M130.497 44.8115L131.274 44.3257L131.566 44.52" stroke="#231F20" stroke-width="0.971596"/>
</g>
<path d="M0.119141 62.106H26.0659V74.2315H12.2447C5.54793 74.2315 0.119141 68.8027 0.119141 62.106V62.106Z" fill="white"/>
<rect x="26.0664" y="62.106" width="91.1064" height="12.1255" fill="white"/>
<path d="M117.172 62.106H143.119V62.106C143.119 68.8027 137.69 74.2315 130.993 74.2315H117.172V62.106Z" fill="white"/>
</g>
<rect x="0.86891" y="1.18165" width="141.5" height="84.5005" rx="3.13661" stroke="white" stroke-width="1.49954"/>
<defs>
<clipPath id="clip0_214_15021">
<rect x="0.119141" y="0.431885" width="143" height="86" rx="3.88638" fill="white"/>
</clipPath>
<clipPath id="clip1_214_15021">
<rect width="279.82" height="22.3467" fill="white" transform="translate(-68.291 39.7593)"/>
</clipPath>
</defs>
</svg>
