<svg width="145" height="87" viewBox="0 0 145 87" fill="none" xmlns="http://www.w3.org/2000/svg">
<g clip-path="url(#clip0_214_14817)">
<rect x="0.806641" y="0.431885" width="144" height="86" rx="3.88638" fill="white"/>
<path d="M0.806641 9.69954C0.806641 3.0021 6.23599 -2.42725 12.9334 -2.42725L26.7534 -2.42725V9.69954L0.806641 9.69954V9.69954Z" fill="white"/>
<rect x="26.7539" y="-2.42725" width="92.1064" height="12.1268" fill="white"/>
<path d="M118.859 -2.42725L132.679 -2.42725C139.377 -2.42725 144.806 3.0021 144.806 9.69954V9.69954L118.859 9.69954V-2.42725Z" fill="white"/>
<rect width="144" height="15" transform="translate(0.806641 9.69946)" fill="white"/>
<path d="M54.0286 13.5381L57.3806 21.6995H56.3779L55.451 19.4259H51.4111L50.49 21.6995H49.5165L52.8685 13.5381H54.0286ZM53.434 14.465L51.7726 18.5398H55.0954L53.434 14.465ZM61.007 16.0681C61.4189 16.0681 61.8017 16.1439 62.1554 16.2954C62.5091 16.4431 62.8083 16.6569 63.0531 16.9367L62.4935 17.5255C62.0543 17.098 61.5511 16.8842 60.9836 16.8842C60.4279 16.8842 59.9635 17.0786 59.5904 17.4672C59.2212 17.8558 59.0366 18.3455 59.0366 18.9362C59.0366 19.5309 59.2212 20.0225 59.5904 20.4111C59.9635 20.7998 60.4279 20.9941 60.9836 20.9941C61.5588 20.9941 62.0679 20.7784 62.511 20.347L63.0531 20.9416C62.8044 21.2214 62.5032 21.4371 62.1496 21.5887C61.7959 21.7364 61.415 21.8102 61.007 21.8102C60.1675 21.8102 59.4816 21.5382 58.9491 20.9941C58.4167 20.45 58.1505 19.764 58.1505 18.9362C58.1505 18.1123 58.4167 17.4283 58.9491 16.8842C59.4816 16.3401 60.1675 16.0681 61.007 16.0681ZM66.7541 16.0681C67.5042 16.0681 68.1221 16.3343 68.6079 16.8667C69.0976 17.3992 69.3444 18.0832 69.3483 18.9188C69.3483 19.0392 69.3424 19.1481 69.3308 19.2452H64.9061C64.9644 19.8204 65.1743 20.2654 65.5357 20.5802C65.8972 20.8911 66.3383 21.0466 66.859 21.0466C67.5197 21.0466 68.1027 20.8153 68.6079 20.3528L69.0743 20.9474C68.4719 21.5226 67.716 21.8102 66.8066 21.8102C65.9865 21.8102 65.3161 21.546 64.7954 21.0174C64.2746 20.485 64.0142 19.7932 64.0142 18.9421C64.0142 18.1026 64.2726 17.4147 64.7895 16.8784C65.3064 16.3382 65.9613 16.0681 66.7541 16.0681ZM66.7366 16.8434C66.2392 16.8434 65.8291 16.9989 65.5066 17.3098C65.184 17.6207 64.9877 18.0307 64.9178 18.5398H68.4622C68.4078 18.0229 68.2232 17.611 67.9084 17.304C67.5975 16.9969 67.2069 16.8434 66.7366 16.8434ZM74.6609 16.1789V16.9658H72.2766V19.7524C72.2766 20.1682 72.3757 20.4791 72.5739 20.6851C72.7721 20.8911 73.0384 20.9941 73.3726 20.9941C73.7884 20.9941 74.1751 20.8639 74.5327 20.6035L74.9407 21.2622C74.4588 21.6276 73.9128 21.8102 73.3026 21.8102C72.6964 21.8102 72.228 21.6412 71.8977 21.3031C71.5712 20.961 71.408 20.45 71.408 19.7699V16.9658H70.2013V16.1789H71.408V14.4242H72.2766V16.1789H74.6609ZM78.6562 16.0681C79.4879 16.0681 80.1796 16.3421 80.7315 16.8901C81.2873 17.438 81.5651 18.1201 81.5651 18.9362C81.5651 19.7563 81.2873 20.4403 80.7315 20.9883C80.1796 21.5362 79.4879 21.8102 78.6562 21.8102C77.8245 21.8102 77.1327 21.5362 76.5809 20.9883C76.029 20.4403 75.7531 19.7563 75.7531 18.9362C75.7531 18.1201 76.029 17.438 76.5809 16.8901C77.1366 16.3421 77.8284 16.0681 78.6562 16.0681ZM80.0961 17.4672C79.7113 17.0786 79.2314 16.8842 78.6562 16.8842C78.081 16.8842 77.601 17.0786 77.2163 17.4672C76.8315 17.8558 76.6392 18.3455 76.6392 18.9362C76.6392 19.5309 76.8315 20.0225 77.2163 20.4111C77.601 20.7998 78.081 20.9941 78.6562 20.9941C79.2314 20.9941 79.7113 20.7998 80.0961 20.4111C80.4808 20.0225 80.6732 19.5309 80.6732 18.9362C80.6732 18.3455 80.4808 17.8558 80.0961 17.4672ZM85.9089 16.0681C86.5929 16.0681 87.1467 16.2702 87.5703 16.6744C87.9978 17.0786 88.2116 17.6129 88.2116 18.2775V21.6995H87.343V18.5632C87.343 18.0385 87.2031 17.6304 86.9233 17.3389C86.6473 17.0436 86.2567 16.8959 85.7515 16.8959C85.2735 16.8959 84.8712 17.0513 84.5448 17.3623C84.2222 17.6693 84.0609 18.0774 84.0609 18.5865V21.6995H83.1865V16.1789H84.0493V16.9658C84.2591 16.6549 84.5292 16.4276 84.8596 16.2838C85.1899 16.14 85.5397 16.0681 85.9089 16.0681ZM92.509 16.0681C93.2591 16.0681 93.877 16.3343 94.3628 16.8667C94.8525 17.3992 95.0993 18.0832 95.1031 18.9188C95.1031 19.0392 95.0973 19.1481 95.0857 19.2452H90.661C90.7193 19.8204 90.9292 20.2654 91.2906 20.5802C91.652 20.8911 92.0931 21.0466 92.6139 21.0466C93.2746 21.0466 93.8576 20.8153 94.3628 20.3528L94.8292 20.9474C94.2268 21.5226 93.4709 21.8102 92.5615 21.8102C91.7414 21.8102 91.071 21.546 90.5502 21.0174C90.0295 20.485 89.7691 19.7932 89.7691 18.9421C89.7691 18.1026 90.0275 17.4147 90.5444 16.8784C91.0613 16.3382 91.7162 16.0681 92.509 16.0681ZM92.4915 16.8434C91.994 16.8434 91.584 16.9989 91.2615 17.3098C90.9389 17.6207 90.7426 18.0307 90.6727 18.5398H94.2171C94.1626 18.0229 93.978 17.611 93.6632 17.304C93.3523 16.9969 92.9618 16.8434 92.4915 16.8434Z" fill="#231F20"/>
<g clip-path="url(#clip1_214_14817)">
<path d="M100.497 24.6995L45.1162 24.6995V77.1656H100.497V24.6995Z" fill="white"/>
<path d="M57.5527 65.0207L72.7096 56.2764" stroke="#231F20" stroke-width="0.971596"/>
<path d="M87.7697 65.0207L72.71 56.2764" stroke="#231F20" stroke-width="0.971596"/>
<path d="M73.9727 57.0535V49.4751" stroke="#231F20" stroke-width="0.971596"/>
<path d="M73.9727 49.4752V41.8967" stroke="#FF6A00" stroke-width="0.971596"/>
<path d="M71.3496 57.0535V49.4751" stroke="#231F20" stroke-width="0.971596"/>
<path d="M71.3496 49.4752V41.8967" stroke="#FF6A00" stroke-width="0.971596"/>
<path d="M71.9316 56.665L72.7089 56.2764L73.389 56.665" stroke="#231F20" stroke-width="0.971596"/>
<path d="M70.3779 38.7876C70.3779 38.0103 70.5722 37.395 70.9609 36.9416C71.3495 36.4882 71.9325 36.2615 72.7098 36.2615C73.4223 36.2615 73.9728 36.4882 74.3615 36.9416C74.7501 37.395 74.9444 38.0103 74.9444 38.7876C74.9444 39.5649 74.7501 40.1802 74.3615 40.6337C73.9728 41.0871 73.4223 41.3138 72.7098 41.3138C71.9325 41.3138 71.3495 41.0871 70.9609 40.6337C70.5722 40.1802 70.3779 39.5649 70.3779 38.7876ZM72.7098 40.828C73.1632 40.828 73.5194 40.666 73.7785 40.3422C74.1024 39.9535 74.2643 39.4354 74.2643 38.7876C74.2643 38.1399 74.1024 37.6541 73.7785 37.3302C73.5194 37.0064 73.1632 36.8444 72.7098 36.8444C72.1916 36.8444 71.7706 37.0064 71.4467 37.3302C71.1876 37.6541 71.058 38.1399 71.058 38.7876C71.058 39.4354 71.1876 39.9535 71.4467 40.3422C71.7706 40.666 72.1916 40.828 72.7098 40.828Z" fill="#FF6A00"/>
</g>
<path d="M0.806641 77.1655H26.7534V89.291H12.9322C6.23543 89.291 0.806641 83.8623 0.806641 77.1655V77.1655Z" fill="white"/>
<rect x="26.7539" y="77.1655" width="92.1064" height="12.1255" fill="white"/>
<path d="M118.859 77.1655H144.806V77.1655C144.806 83.8623 139.377 89.291 132.681 89.291H118.859V77.1655Z" fill="white"/>
</g>
<rect x="1.55641" y="1.18165" width="142.5" height="84.5005" rx="3.13661" stroke="white" stroke-width="1.49954"/>
<defs>
<clipPath id="clip0_214_14817">
<rect x="0.806641" y="0.431885" width="144" height="86" rx="3.88638" fill="white"/>
</clipPath>
<clipPath id="clip1_214_14817">
<rect width="55.381" height="52.4662" fill="white" transform="translate(45.1162 24.6995)"/>
</clipPath>
</defs>
</svg>
