<svg width="144" height="88" viewBox="0 0 144 88" fill="none" xmlns="http://www.w3.org/2000/svg">
<g clip-path="url(#clip0_214_14134)">
<rect x="0.245117" y="0.431885" width="143" height="87" rx="3.88638" fill="white"/>
<path d="M0.245117 12.5587C0.245117 5.86123 5.67446 0.431885 12.3719 0.431885L26.1919 0.431885V12.5587H0.245117V12.5587Z" fill="white"/>
<rect x="26.1924" y="0.431885" width="91.1064" height="12.1268" fill="white"/>
<path d="M117.298 0.431885L131.118 0.431885C137.815 0.431885 143.245 5.86123 143.245 12.5587V12.5587L117.298 12.5587V0.431885Z" fill="white"/>
<rect width="143" height="15" transform="translate(0.245117 12.5587)" fill="white"/>
<path d="M30.1653 16.2807C30.8765 16.2807 31.5294 16.4323 32.124 16.7354C32.7186 17.0347 33.1753 17.4466 33.494 17.9713L32.7128 18.496C32.4408 18.0879 32.0813 17.7673 31.6343 17.5341C31.1874 17.3009 30.6977 17.1843 30.1653 17.1843C29.7106 17.1843 29.285 17.2659 28.8886 17.4291C28.4922 17.5885 28.1502 17.81 27.8626 18.0937C27.575 18.3774 27.3477 18.7253 27.1805 19.1372C27.0173 19.5492 26.9357 19.9961 26.9357 20.478C26.9357 20.9599 27.0173 21.4069 27.1805 21.8188C27.3477 22.2308 27.575 22.5786 27.8626 22.8623C28.1502 23.146 28.4922 23.3695 28.8886 23.5327C29.285 23.6921 29.7106 23.7717 30.1653 23.7717C30.7016 23.7717 31.1913 23.6571 31.6343 23.4278C32.0774 23.1985 32.4369 22.8779 32.7128 22.4659L33.4706 23.0255C33.1286 23.5385 32.6662 23.9427 32.0832 24.2381C31.5041 24.5296 30.8648 24.6753 30.1653 24.6753C29.5668 24.6753 29.0071 24.5704 28.4864 24.3605C27.9656 24.1506 27.5187 23.8631 27.1456 23.4977C26.7764 23.1285 26.4849 22.6835 26.2711 22.1628C26.0574 21.642 25.9505 21.0804 25.9505 20.478C25.9505 19.8756 26.0574 19.314 26.2711 18.7933C26.4849 18.2725 26.7764 17.8294 27.1456 17.4641C27.5187 17.0949 27.9656 16.8054 28.4864 16.5955C29.0071 16.3857 29.5668 16.2807 30.1653 16.2807ZM40.3013 19.0381V24.5587H39.4327V23.7367C38.9508 24.3586 38.2784 24.6695 37.4156 24.6695C36.6345 24.6695 35.9796 24.3974 35.4511 23.8533C34.9225 23.3054 34.6582 22.6194 34.6582 21.7955C34.6582 20.9716 34.9225 20.2876 35.4511 19.7435C35.9796 19.1994 36.6345 18.9273 37.4156 18.9273C38.2745 18.9273 38.9469 19.2383 39.4327 19.8601V19.0381H40.3013ZM37.5206 19.7435C36.9376 19.7435 36.4615 19.9417 36.0923 20.3381C35.727 20.7306 35.5443 21.2164 35.5443 21.7955C35.5443 22.3746 35.7289 22.8623 36.0981 23.2587C36.4674 23.6551 36.9415 23.8533 37.5206 23.8533C38.0919 23.8533 38.5621 23.659 38.9313 23.2704C39.3005 22.8779 39.4851 22.3862 39.4851 21.7955C39.4851 21.2087 39.3005 20.7209 38.9313 20.3323C38.5621 19.9397 38.0919 19.7435 37.5206 19.7435ZM44.8431 18.9273C45.2472 18.9273 45.5854 18.9895 45.8574 19.1139L45.6475 19.9708C45.3755 19.8232 45.0568 19.7493 44.6915 19.7493C44.2562 19.7493 43.9006 19.9067 43.6247 20.2215C43.3487 20.5363 43.2108 20.9522 43.2108 21.469V24.5587H42.3422V19.0381H43.2049V19.8134C43.3954 19.5297 43.6305 19.3121 43.9103 19.1605C44.194 19.0051 44.5049 18.9273 44.8431 18.9273ZM50.0668 18.9273C50.848 18.9273 51.5028 19.1994 52.0314 19.7435C52.5599 20.2876 52.8242 20.9716 52.8242 21.7955C52.8242 22.6194 52.5599 23.3054 52.0314 23.8533C51.5028 24.3974 50.848 24.6695 50.0668 24.6695C49.2079 24.6695 48.5375 24.3605 48.0556 23.7426V24.5587H47.1812V16.1641H48.0556V19.8542C48.5375 19.2363 49.2079 18.9273 50.0668 18.9273ZM49.9619 19.7435C49.3906 19.7435 48.9203 19.9397 48.5511 20.3323C48.1819 20.7209 47.9973 21.2087 47.9973 21.7955C47.9973 22.3862 48.1819 22.8779 48.5511 23.2704C48.9203 23.659 49.3906 23.8533 49.9619 23.8533C50.5448 23.8533 51.019 23.6571 51.3843 23.2645C51.7496 22.8681 51.9323 22.3785 51.9323 21.7955C51.9323 21.2164 51.7477 20.7306 51.3785 20.3381C51.0093 19.9417 50.5371 19.7435 49.9619 19.7435ZM56.9288 18.9273C57.7605 18.9273 58.4522 19.2013 59.0041 19.7493C59.5599 20.2973 59.8377 20.9794 59.8377 21.7955C59.8377 22.6155 59.5599 23.2995 59.0041 23.8475C58.4522 24.3955 57.7605 24.6695 56.9288 24.6695C56.0971 24.6695 55.4053 24.3955 54.8534 23.8475C54.3016 23.2995 54.0256 22.6155 54.0256 21.7955C54.0256 20.9794 54.3016 20.2973 54.8534 19.7493C55.4092 19.2013 56.101 18.9273 56.9288 18.9273ZM58.3687 20.3264C57.9839 19.9378 57.504 19.7435 56.9288 19.7435C56.3536 19.7435 55.8736 19.9378 55.4889 20.3264C55.1041 20.7151 54.9117 21.2048 54.9117 21.7955C54.9117 22.3901 55.1041 22.8817 55.4889 23.2704C55.8736 23.659 56.3536 23.8533 56.9288 23.8533C57.504 23.8533 57.9839 23.659 58.3687 23.2704C58.7534 22.8817 58.9458 22.3901 58.9458 21.7955C58.9458 21.2048 58.7534 20.7151 58.3687 20.3264ZM64.1815 18.9273C64.8655 18.9273 65.4193 19.1294 65.8429 19.5336C66.2704 19.9378 66.4842 20.4722 66.4842 21.1368V24.5587H65.6156V21.4224C65.6156 20.8977 65.4757 20.4897 65.1958 20.1982C64.9199 19.9028 64.5293 19.7551 64.0241 19.7551C63.5461 19.7551 63.1438 19.9106 62.8174 20.2215C62.4948 20.5285 62.3335 20.9366 62.3335 21.4457V24.5587H61.4591V19.0381H62.3219V19.8251C62.5317 19.5142 62.8018 19.2868 63.1322 19.143C63.4625 18.9992 63.8123 18.9273 64.1815 18.9273ZM73.9074 18.9273C74.7663 18.9273 75.4386 19.2383 75.9244 19.8601V16.1641H76.793V24.5587H75.9244V23.7367C75.4425 24.3586 74.7702 24.6695 73.9074 24.6695C73.1262 24.6695 72.4714 24.3974 71.9428 23.8533C71.4143 23.3054 71.15 22.6194 71.15 21.7955C71.15 20.9716 71.4143 20.2876 71.9428 19.7435C72.4714 19.1994 73.1262 18.9273 73.9074 18.9273ZM74.0123 19.7435C73.4294 19.7435 72.9533 19.9417 72.5841 20.3381C72.2188 20.7306 72.0361 21.2164 72.0361 21.7955C72.0361 22.3746 72.2207 22.8623 72.5899 23.2587C72.9591 23.6551 73.4333 23.8533 74.0123 23.8533C74.5836 23.8533 75.0539 23.659 75.4231 23.2704C75.7923 22.8779 75.9769 22.3862 75.9769 21.7955C75.9769 21.2087 75.7923 20.7209 75.4231 20.3323C75.0539 19.9397 74.5836 19.7435 74.0123 19.7435ZM79.7084 19.0381V24.5587H78.8339V19.0381H79.7084ZM79.2712 16.4614C79.4422 16.4614 79.5879 16.5217 79.7084 16.6422C79.8289 16.7587 79.8891 16.9045 79.8891 17.0794C79.8891 17.2543 79.8289 17.4 79.7084 17.5166C79.5918 17.6332 79.4461 17.6915 79.2712 17.6915C79.0963 17.6915 78.9505 17.6332 78.8339 17.5166C78.7174 17.4 78.6591 17.2543 78.6591 17.0794C78.6591 16.9045 78.7174 16.7587 78.8339 16.6422C78.9505 16.5217 79.0963 16.4614 79.2712 16.4614ZM85.8353 19.5336L85.4563 20.2099C85.2543 20.0699 84.988 19.9495 84.6577 19.8484C84.3312 19.7435 83.9951 19.691 83.6492 19.691C83.2528 19.691 82.936 19.7687 82.699 19.9242C82.4619 20.0797 82.3434 20.2915 82.3434 20.5596C82.3434 20.9871 82.7184 21.2456 83.4685 21.335L84.1214 21.4166C85.3572 21.5759 85.9752 22.0889 85.9752 22.9556C85.9752 23.4802 85.7556 23.8961 85.3164 24.2031C84.8773 24.5101 84.2865 24.6636 83.5442 24.6636C82.6309 24.6636 81.8634 24.4285 81.2416 23.9583L81.6438 23.3054C82.1568 23.7057 82.7942 23.9058 83.5559 23.9058C84.03 23.9058 84.4012 23.83 84.6694 23.6784C84.9414 23.523 85.0774 23.3015 85.0774 23.0139C85.0774 22.5708 84.6927 22.3027 83.9232 22.2094L83.2644 22.1336C82.6543 22.0598 82.1976 21.8927 81.8945 21.6323C81.5913 21.368 81.4398 21.026 81.4398 20.6063C81.4398 20.0894 81.6399 19.6813 82.0402 19.3821C82.4405 19.0828 82.9749 18.9332 83.6433 18.9332C84.067 18.9332 84.4692 18.9876 84.8501 19.0964C85.2309 19.2052 85.5593 19.351 85.8353 19.5336ZM92.4479 19.0381V22.256C92.4479 22.6524 92.3799 23.008 92.2439 23.3228C92.1079 23.6338 91.9233 23.8864 91.6901 24.0807C91.4569 24.275 91.1907 24.4227 90.8914 24.5237C90.5961 24.6209 90.2793 24.6695 89.9412 24.6695C89.5992 24.6695 89.2786 24.6209 88.9793 24.5237C88.684 24.4227 88.4197 24.275 88.1865 24.0807C87.9533 23.8864 87.7687 23.6338 87.6327 23.3228C87.5006 23.008 87.4345 22.6524 87.4345 22.256V19.0381H88.3031V22.1744C88.3031 22.7263 88.4527 23.1441 88.752 23.4278C89.0512 23.7115 89.4476 23.8533 89.9412 23.8533C90.4348 23.8533 90.8292 23.7115 91.1246 23.4278C91.4239 23.1441 91.5735 22.7263 91.5735 22.1744V19.0381H92.4479ZM95.2957 16.1641V24.5587H94.4212V16.1641H95.2957ZM100.956 19.0381V19.8251H98.7584V24.5587H97.884V19.8251H96.6248V19.0381H97.884V18.0937C97.884 17.468 98.0336 16.9725 98.3329 16.6072C98.6321 16.238 99.0946 16.0534 99.7203 16.0534C100.276 16.0534 100.779 16.1913 101.23 16.4673L100.915 17.196C100.546 16.9783 100.167 16.8695 99.7786 16.8695C99.0985 16.8695 98.7584 17.2776 98.7584 18.0937V19.0381H100.956ZM103.243 19.0381V24.5587H102.369V19.0381H103.243ZM102.806 16.4614C102.977 16.4614 103.123 16.5217 103.243 16.6422C103.363 16.7587 103.424 16.9045 103.424 17.0794C103.424 17.2543 103.363 17.4 103.243 17.5166C103.126 17.6332 102.981 17.6915 102.806 17.6915C102.631 17.6915 102.485 17.6332 102.369 17.5166C102.252 17.4 102.194 17.2543 102.194 17.0794C102.194 16.9045 102.252 16.7587 102.369 16.6422C102.485 16.5217 102.631 16.4614 102.806 16.4614ZM107.621 18.9273C108.48 18.9273 109.152 19.2383 109.638 19.8601V16.1641H110.507V24.5587H109.638V23.7367C109.156 24.3586 108.484 24.6695 107.621 24.6695C106.84 24.6695 106.185 24.3974 105.656 23.8533C105.128 23.3054 104.864 22.6194 104.864 21.7955C104.864 20.9716 105.128 20.2876 105.656 19.7435C106.185 19.1994 106.84 18.9273 107.621 18.9273ZM107.726 19.7435C107.143 19.7435 106.667 19.9417 106.298 20.3381C105.932 20.7306 105.75 21.2164 105.75 21.7955C105.75 22.3746 105.934 22.8623 106.304 23.2587C106.673 23.6551 107.147 23.8533 107.726 23.8533C108.297 23.8533 108.768 23.659 109.137 23.2704C109.506 22.8779 109.691 22.3862 109.691 21.7955C109.691 21.2087 109.506 20.7209 109.137 20.3323C108.768 19.9397 108.297 19.7435 107.726 19.7435ZM114.868 18.9273C115.618 18.9273 116.236 19.1936 116.722 19.726C117.211 20.2584 117.458 20.9424 117.462 21.778C117.462 21.8985 117.456 22.0073 117.444 22.1045H113.02C113.078 22.6796 113.288 23.1246 113.649 23.4394C114.011 23.7503 114.452 23.9058 114.973 23.9058C115.633 23.9058 116.216 23.6746 116.722 23.2121L117.188 23.8067C116.586 24.3819 115.83 24.6695 114.92 24.6695C114.1 24.6695 113.43 24.4052 112.909 23.8767C112.388 23.3442 112.128 22.6524 112.128 21.8013C112.128 20.9619 112.386 20.274 112.903 19.7377C113.42 19.1974 114.075 18.9273 114.868 18.9273ZM114.85 19.7027C114.353 19.7027 113.943 19.8581 113.62 20.169C113.298 20.48 113.101 20.89 113.031 21.3991H116.576C116.521 20.8822 116.337 20.4702 116.022 20.1632C115.711 19.8562 115.321 19.7027 114.85 19.7027Z" fill="#231F20"/>
<path d="M0.245117 27.5587H26.1919V39.6842H12.3706C5.6739 39.6842 0.245117 34.2555 0.245117 27.5587V27.5587Z" fill="white"/>
<rect x="26.1924" y="27.5587" width="91.1064" height="12.1255" fill="white"/>
<path d="M117.298 27.5587L143.245 27.5587V27.5587C143.245 34.2555 137.816 39.6842 131.119 39.6842H117.298V27.5587Z" fill="white"/>
<g clip-path="url(#clip1_214_14134)">
<path d="M106.237 39.6842L37.2539 39.6842V48.4286H106.237V39.6842Z" fill="white"/>
<path d="M73.7852 42.599H80.1977" stroke="#231F20" stroke-width="0.971596"/>
<path d="M80.1982 42.599H86.6108" stroke="#231F20" stroke-width="0.971596"/>
<path d="M73.7852 45.2223H80.1977" stroke="#231F20" stroke-width="0.971596"/>
<path d="M80.1982 45.2223H86.6108" stroke="#231F20" stroke-width="0.971596"/>
<path d="M68.8315 45.2223H62.4189" stroke="#FF6A00" stroke-width="0.971596"/>
<path d="M62.4184 45.2223H56.0059" stroke="#231F20" stroke-width="0.971596"/>
<path d="M68.8315 42.599H62.4189" stroke="#FF6A00" stroke-width="0.971596"/>
<path d="M62.4184 42.599H56.0059" stroke="#231F20" stroke-width="0.971596"/>
<mask id="path-19-inside-1_214_14134" fill="white">
<path d="M69.4131 43.9593C69.4131 43.182 69.6074 42.5666 69.996 42.1132C70.3847 41.6598 70.9353 41.4331 71.6478 41.4331C72.3603 41.4331 72.8784 41.6922 73.2023 42.2104L72.7165 42.599C72.4574 42.2104 72.1012 42.0161 71.6478 42.0161C71.1296 42.0161 70.7409 42.178 70.4818 42.5019C70.2228 42.8257 70.0932 43.3115 70.0932 43.9593C70.0932 44.607 70.2228 45.0928 70.4818 45.4166C70.8057 45.8053 71.2267 45.9996 71.7449 45.9996C72.0688 45.9996 72.4574 45.8701 72.9108 45.611L73.1052 46.1939C72.9108 46.2587 72.6841 46.3235 72.425 46.3882C72.1659 46.453 71.9069 46.4854 71.6478 46.4854C70.9353 46.4854 70.3847 46.2911 69.996 45.9024C69.6074 45.449 69.4131 44.8013 69.4131 43.9593Z"/>
</mask>
<path d="M69.4131 43.9593C69.4131 43.182 69.6074 42.5666 69.996 42.1132C70.3847 41.6598 70.9353 41.4331 71.6478 41.4331C72.3603 41.4331 72.8784 41.6922 73.2023 42.2104L72.7165 42.599C72.4574 42.2104 72.1012 42.0161 71.6478 42.0161C71.1296 42.0161 70.7409 42.178 70.4818 42.5019C70.2228 42.8257 70.0932 43.3115 70.0932 43.9593C70.0932 44.607 70.2228 45.0928 70.4818 45.4166C70.8057 45.8053 71.2267 45.9996 71.7449 45.9996C72.0688 45.9996 72.4574 45.8701 72.9108 45.611L73.1052 46.1939C72.9108 46.2587 72.6841 46.3235 72.425 46.3882C72.1659 46.453 71.9069 46.4854 71.6478 46.4854C70.9353 46.4854 70.3847 46.2911 69.996 45.9024C69.6074 45.449 69.4131 44.8013 69.4131 43.9593Z" fill="black"/>
<path d="M73.2023 42.2104L73.8093 42.9691L74.4846 42.4288L74.0262 41.6954L73.2023 42.2104ZM72.7165 42.599L71.9081 43.138L72.4959 44.0197L73.3235 43.3577L72.7165 42.599ZM70.4818 45.4166L69.7232 46.0236L69.7292 46.0312L69.7354 46.0386L70.4818 45.4166ZM72.9108 45.611L73.8326 45.3037L73.4578 44.1794L72.4288 44.7674L72.9108 45.611ZM73.1052 46.1939L73.4124 47.1157L74.3341 46.8084L74.0269 45.8867L73.1052 46.1939ZM69.996 45.9024L69.2584 46.5348L69.2826 46.5631L69.309 46.5895L69.996 45.9024ZM69.4131 43.9593H70.3847C70.3847 43.3427 70.5367 42.9754 70.7337 42.7455L69.996 42.1132L69.2584 41.4809C68.6781 42.1579 68.4415 43.0213 68.4415 43.9593H69.4131ZM69.996 42.1132L70.7337 42.7455C70.9019 42.5494 71.1586 42.4047 71.6478 42.4047V41.4331V40.4615C70.7119 40.4615 69.8675 40.7703 69.2584 41.4809L69.996 42.1132ZM71.6478 41.4331V42.4047C72.0905 42.4047 72.2641 42.5425 72.3784 42.7253L73.2023 42.2104L74.0262 41.6954C73.4928 40.8419 72.63 40.4615 71.6478 40.4615V41.4331ZM73.2023 42.2104L72.5954 41.4517L72.1096 41.8403L72.7165 42.599L73.3235 43.3577L73.8093 42.9691L73.2023 42.2104ZM72.7165 42.599L73.5249 42.0601C73.0922 41.4109 72.4376 41.0445 71.6478 41.0445V42.0161V42.9877C71.7647 42.9877 71.8227 43.0098 71.9081 43.138L72.7165 42.599ZM71.6478 42.0161V41.0445C70.9151 41.0445 70.2118 41.2842 69.7232 41.8949L70.4818 42.5019L71.2405 43.1088C71.2701 43.0718 71.344 42.9877 71.6478 42.9877V42.0161ZM70.4818 42.5019L69.7232 41.8949C69.2677 42.4643 69.1216 43.2077 69.1216 43.9593H70.0932H71.0648C71.0648 43.4153 71.1778 43.1872 71.2405 43.1088L70.4818 42.5019ZM70.0932 43.9593H69.1216C69.1216 44.7108 69.2677 45.4542 69.7232 46.0236L70.4818 45.4166L71.2405 44.8097C71.1778 44.7313 71.0648 44.5032 71.0648 43.9593H70.0932ZM70.4818 45.4166L69.7354 46.0386C70.249 46.6549 70.9465 46.9712 71.7449 46.9712V45.9996V45.028C71.507 45.028 71.3624 44.9556 71.2282 44.7946L70.4818 45.4166ZM71.7449 45.9996V46.9712C72.3114 46.9712 72.8734 46.7514 73.3929 46.4545L72.9108 45.611L72.4288 44.7674C72.0414 44.9887 71.8262 45.028 71.7449 45.028V45.9996ZM72.9108 45.611L71.9891 45.9182L72.1834 46.5012L73.1052 46.1939L74.0269 45.8867L73.8326 45.3037L72.9108 45.611ZM73.1052 46.1939L72.7979 45.2722C72.633 45.3272 72.4311 45.3852 72.1894 45.4457L72.425 46.3882L72.6607 47.3308C72.9371 47.2617 73.1887 47.1902 73.4124 47.1157L73.1052 46.1939ZM72.425 46.3882L72.1894 45.4457C72.005 45.4918 71.825 45.5138 71.6478 45.5138V46.4854V47.457C71.9887 47.457 72.3269 47.4143 72.6607 47.3308L72.425 46.3882ZM71.6478 46.4854V45.5138C71.1133 45.5138 70.84 45.3723 70.6831 45.2154L69.996 45.9024L69.309 46.5895C69.9294 47.2098 70.7573 47.457 71.6478 47.457V46.4854ZM69.996 45.9024L70.7337 45.2701C70.5477 45.0531 70.3847 44.6635 70.3847 43.9593H69.4131H68.4415C68.4415 44.9391 68.6671 45.845 69.2584 46.5348L69.996 45.9024Z" fill="#231F20" mask="url(#path-19-inside-1_214_14134)"/>
<path d="M87.3887 45.611C87.4534 45.6757 87.5506 45.7405 87.6801 45.8053C87.8097 45.8701 87.9716 45.9025 88.1659 45.9025C88.3603 45.9672 88.5222 45.9996 88.6517 45.9996C88.9756 45.9996 89.2347 45.9348 89.429 45.8053C89.6233 45.611 89.7205 45.3843 89.7205 45.1252C89.7205 44.9309 89.6557 44.8013 89.5262 44.7365C89.4614 44.607 89.3642 44.5098 89.2347 44.4451C89.1051 44.3803 88.9108 44.3155 88.6517 44.2507C88.3279 44.186 88.1012 44.0888 87.9716 43.9593C87.7773 43.8945 87.6154 43.7649 87.4858 43.5706C87.3563 43.4411 87.2915 43.2144 87.2915 42.8905C87.2915 42.4371 87.4534 42.1132 87.7773 41.9189C88.0364 41.6598 88.4574 41.5303 89.0404 41.5303C89.3642 41.5303 89.7529 41.595 90.2063 41.7246L90.1091 42.3076C89.6557 42.1132 89.2995 42.0161 89.0404 42.0161C88.7165 42.0161 88.4574 42.0808 88.2631 42.2104C88.0688 42.4047 87.9716 42.599 87.9716 42.7933C87.9716 42.9877 88.0364 43.1172 88.1659 43.182C88.2307 43.3115 88.3279 43.4087 88.4574 43.4735C88.587 43.5382 88.7813 43.603 89.0404 43.6678C89.2995 43.7326 89.5262 43.8297 89.7205 43.9593C89.9148 44.024 90.0767 44.1536 90.2063 44.3479C90.3358 44.5422 90.4006 44.8013 90.4006 45.1252C90.4006 45.5786 90.2387 45.9348 89.9148 46.1939C89.5909 46.453 89.2023 46.5826 88.7489 46.5826C88.425 46.5826 88.1659 46.5502 87.9716 46.4854C87.7125 46.4206 87.4534 46.3235 87.1943 46.1939L87.3887 45.611Z" fill="#FF6A00"/>
<path d="M52.4111 45.611C52.4759 45.6757 52.573 45.7405 52.7026 45.8053C52.8321 45.8701 52.9941 45.9025 53.1884 45.9025C53.3827 45.9672 53.5446 45.9996 53.6742 45.9996C53.9981 45.9996 54.2571 45.9348 54.4515 45.8053C54.6458 45.611 54.7429 45.3843 54.7429 45.1252C54.7429 44.9309 54.6782 44.8013 54.5486 44.7365C54.4839 44.607 54.3867 44.5098 54.2571 44.4451C54.1276 44.3803 53.9333 44.3155 53.6742 44.2507C53.3503 44.186 53.1236 44.0888 52.9941 43.9593C52.7998 43.8945 52.6378 43.7649 52.5083 43.5706C52.3787 43.4411 52.314 43.2144 52.314 42.8905C52.314 42.4371 52.4759 42.1132 52.7998 41.9189C53.0588 41.6598 53.4799 41.5303 54.0628 41.5303C54.3867 41.5303 54.7753 41.595 55.2287 41.7246L55.1316 42.3076C54.6782 42.1132 54.3219 42.0161 54.0628 42.0161C53.739 42.0161 53.4799 42.0808 53.2856 42.2104C53.0912 42.4047 52.9941 42.599 52.9941 42.7933C52.9941 42.9877 53.0588 43.1172 53.1884 43.182C53.2532 43.3115 53.3503 43.4087 53.4799 43.4735C53.6094 43.5382 53.8037 43.603 54.0628 43.6678C54.3219 43.7326 54.5486 43.8297 54.7429 43.9593C54.9373 44.024 55.0992 44.1536 55.2287 44.3479C55.3583 44.5422 55.4231 44.8013 55.4231 45.1252C55.4231 45.5786 55.2611 45.9348 54.9373 46.1939C54.6134 46.453 54.2248 46.5826 53.7714 46.5826C53.4475 46.5826 53.1884 46.5502 52.9941 46.4854C52.735 46.4206 52.4759 46.3235 52.2168 46.1939L52.4111 45.611Z" fill="#CCCC00"/>
</g>
</g>
<rect x="0.994886" y="1.18165" width="141.5" height="85.5005" rx="3.13661" stroke="white" stroke-width="1.49954"/>
<defs>
<clipPath id="clip0_214_14134">
<rect x="0.245117" y="0.431885" width="143" height="87" rx="3.88638" fill="white"/>
</clipPath>
<clipPath id="clip1_214_14134">
<rect width="68.9833" height="8.74436" fill="white" transform="translate(37.2539 39.6842)"/>
</clipPath>
</defs>
</svg>
