<svg width="144" height="87" viewBox="0 0 144 87" fill="none" xmlns="http://www.w3.org/2000/svg">
<g clip-path="url(#clip0_214_14865)">
<rect x="0.557617" y="0.431885" width="143" height="86" rx="3.88638" fill="white"/>
<path d="M0.557617 7.27034C0.557617 0.572901 5.98696 -4.85645 12.6844 -4.85645L26.5044 -4.85645V7.27034L0.557617 7.27034V7.27034Z" fill="white"/>
<rect x="26.5049" y="-4.85645" width="91.1064" height="12.1268" fill="white"/>
<path d="M117.61 -4.85645L131.43 -4.85645C138.128 -4.85645 143.557 0.572901 143.557 7.27034V7.27034L117.61 7.27034V-4.85645Z" fill="white"/>
<rect width="143" height="15" transform="translate(0.557617 7.27051)" fill="white"/>
<path d="M45.7796 11.1091L49.1316 19.2705H48.1289L47.202 16.997H43.1621L42.241 19.2705H41.2675L44.6195 11.1091H45.7796ZM45.185 12.036L43.5235 16.1109H46.8464L45.185 12.036ZM52.7579 13.6391C53.1699 13.6391 53.5527 13.7149 53.9064 13.8665C54.26 14.0142 54.5593 14.2279 54.8041 14.5077L54.2445 15.0965C53.8053 14.669 53.302 14.4553 52.7346 14.4553C52.1789 14.4553 51.7144 14.6496 51.3414 15.0382C50.9721 15.4269 50.7875 15.9166 50.7875 16.5073C50.7875 17.1019 50.9721 17.5935 51.3414 17.9822C51.7144 18.3708 52.1789 18.5651 52.7346 18.5651C53.3098 18.5651 53.8189 18.3494 54.262 17.918L54.8041 18.5127C54.5554 18.7925 54.2542 19.0082 53.9005 19.1597C53.5469 19.3074 53.166 19.3813 52.7579 19.3813C51.9185 19.3813 51.2325 19.1092 50.7001 18.5651C50.1677 18.021 49.9014 17.3351 49.9014 16.5073C49.9014 15.6834 50.1677 14.9994 50.7001 14.4553C51.2325 13.9112 51.9185 13.6391 52.7579 13.6391ZM58.5051 13.6391C59.2552 13.6391 59.8731 13.9054 60.3589 14.4378C60.8486 14.9702 61.0954 15.6542 61.0992 16.4898C61.0992 16.6103 61.0934 16.7191 61.0818 16.8163H56.6571C56.7154 17.3914 56.9253 17.8364 57.2867 18.1512C57.6481 18.4621 58.0892 18.6176 58.61 18.6176C59.2707 18.6176 59.8537 18.3864 60.3589 17.9239L60.8253 18.5185C60.2229 19.0937 59.467 19.3813 58.5575 19.3813C57.7375 19.3813 57.0671 19.117 56.5463 18.5884C56.0256 18.056 55.7652 17.3642 55.7652 16.5131C55.7652 15.6737 56.0236 14.9858 56.5405 14.4494C57.0574 13.9092 57.7123 13.6391 58.5051 13.6391ZM58.4876 14.4145C57.9901 14.4145 57.5801 14.5699 57.2576 14.8808C56.935 15.1917 56.7387 15.6018 56.6688 16.1109H60.2131C60.1587 15.594 59.9741 15.182 59.6593 14.875C59.3484 14.568 58.9578 14.4145 58.4876 14.4145ZM66.4119 13.7499V14.5369H64.0276V17.3234C64.0276 17.7393 64.1267 18.0502 64.3249 18.2562C64.5231 18.4621 64.7893 18.5651 65.1236 18.5651C65.5394 18.5651 65.9261 18.4349 66.2836 18.1745L66.6917 18.8333C66.2098 19.1986 65.6638 19.3813 65.0536 19.3813C64.4473 19.3813 63.979 19.2122 63.6487 18.8741C63.3222 18.5321 63.159 18.021 63.159 17.3409V14.5369L61.9523 14.5369V13.7499L63.159 13.7499V11.9952H64.0276V13.7499H66.4119ZM68.821 13.7499V19.2705H67.9465V13.7499H68.821ZM68.3838 11.1732C68.5548 11.1732 68.7005 11.2335 68.821 11.3539C68.9414 11.4705 69.0017 11.6163 69.0017 11.7912C69.0017 11.966 68.9414 12.1118 68.821 12.2284C68.7044 12.345 68.5586 12.4033 68.3838 12.4033C68.2089 12.4033 68.0631 12.345 67.9465 12.2284C67.8299 12.1118 67.7716 11.966 67.7716 11.7912C67.7716 11.6163 67.8299 11.4705 67.9465 11.3539C68.0631 11.2335 68.2089 11.1732 68.3838 11.1732ZM73.2981 13.6391C73.71 13.6391 74.0929 13.7149 74.4465 13.8665C74.8002 14.0142 75.0994 14.2279 75.3443 14.5077L74.7846 15.0965C74.3455 14.669 73.8422 14.4553 73.2748 14.4553C72.719 14.4553 72.2546 14.6496 71.8815 15.0382C71.5123 15.4269 71.3277 15.9166 71.3277 16.5073C71.3277 17.1019 71.5123 17.5935 71.8815 17.9822C72.2546 18.3708 72.719 18.5651 73.2748 18.5651C73.85 18.5651 74.3591 18.3494 74.8021 17.918L75.3443 18.5127C75.0955 18.7925 74.7943 19.0082 74.4407 19.1597C74.087 19.3074 73.7062 19.3813 73.2981 19.3813C72.4586 19.3813 71.7727 19.1092 71.2402 18.5651C70.7078 18.021 70.4416 17.3351 70.4416 16.5073C70.4416 15.6834 70.7078 14.9994 71.2402 14.4553C71.7727 13.9112 72.4586 13.6391 73.2981 13.6391ZM85.1592 13.7499V19.2705L84.2906 19.2705V18.4485C83.8087 19.0704 83.1363 19.3813 82.2735 19.3813C81.4924 19.3813 80.8375 19.1092 80.309 18.5651C79.7804 18.0171 79.5161 17.3312 79.5161 16.5073C79.5161 15.6834 79.7804 14.9994 80.309 14.4553C80.8375 13.9112 81.4924 13.6391 82.2735 13.6391C83.1324 13.6391 83.8048 13.95 84.2906 14.5719V13.7499H85.1592ZM82.3785 14.4553C81.7955 14.4553 81.3194 14.6535 80.9502 15.0499C80.5849 15.4424 80.4022 15.9282 80.4022 16.5073C80.4022 17.0864 80.5868 17.5741 80.9561 17.9705C81.3253 18.3669 81.7994 18.5651 82.3785 18.5651C82.9498 18.5651 83.42 18.3708 83.7892 17.9822C84.1584 17.5896 84.343 17.098 84.343 16.5073C84.343 15.9204 84.1584 15.4327 83.7892 15.0441C83.42 14.6515 82.9498 14.4553 82.3785 14.4553ZM89.6368 13.6391C90.0488 13.6391 90.4316 13.7149 90.7853 13.8665C91.1389 14.0142 91.4382 14.2279 91.683 14.5077L91.1234 15.0965C90.6842 14.669 90.1809 14.4553 89.6135 14.4553C89.0578 14.4553 88.5933 14.6496 88.2202 15.0382C87.851 15.4269 87.6664 15.9166 87.6664 16.5073C87.6664 17.1019 87.851 17.5935 88.2202 17.9822C88.5933 18.3708 89.0578 18.5651 89.6135 18.5651C90.1887 18.5651 90.6978 18.3494 91.1409 17.918L91.683 18.5127C91.4343 18.7925 91.1331 19.0082 90.7794 19.1597C90.4258 19.3074 90.0449 19.3813 89.6368 19.3813C88.7974 19.3813 88.1114 19.1092 87.579 18.5651C87.0466 18.021 86.7803 17.3351 86.7803 16.5073C86.7803 15.6834 87.0466 14.9994 87.579 14.4553C88.1114 13.9112 88.7974 13.6391 89.6368 13.6391ZM94.0407 13.7499V19.2705H93.1663V13.7499H94.0407ZM93.6035 11.1732C93.7745 11.1732 93.9202 11.2335 94.0407 11.3539C94.1612 11.4705 94.2214 11.6163 94.2214 11.7912C94.2214 11.966 94.1612 12.1118 94.0407 12.2284C93.9241 12.345 93.7784 12.4033 93.6035 12.4033C93.4286 12.4033 93.2829 12.345 93.1663 12.2284C93.0497 12.1118 92.9914 11.966 92.9914 11.7912C92.9914 11.6163 93.0497 11.4705 93.1663 11.3539C93.2829 11.2335 93.4286 11.1732 93.6035 11.1732ZM98.4187 13.6391C99.2776 13.6391 99.95 13.95 100.436 14.5719V10.8759H101.304V19.2705H100.436V18.4485C99.9539 19.0704 99.2815 19.3813 98.4187 19.3813C97.6376 19.3813 96.9827 19.1092 96.4542 18.5651C95.9256 18.0171 95.6613 17.3312 95.6613 16.5073C95.6613 15.6834 95.9256 14.9994 96.4542 14.4553C96.9827 13.9112 97.6376 13.6391 98.4187 13.6391ZM98.5237 14.4553C97.9407 14.4553 97.4646 14.6535 97.0954 15.0499C96.7301 15.4424 96.5474 15.9282 96.5474 16.5073C96.5474 17.0864 96.732 17.5741 97.1012 17.9705C97.4705 18.3669 97.9446 18.5651 98.5237 18.5651C99.095 18.5651 99.5652 18.3708 99.9344 17.9822C100.304 17.5896 100.488 17.098 100.488 16.5073C100.488 15.9204 100.304 15.4327 99.9344 15.0441C99.5652 14.6515 99.095 14.4553 98.5237 14.4553Z" fill="#231F20"/>
<g clip-path="url(#clip1_214_14865)">
<path d="M101.691 22.2705L42.4238 22.2705V79.5947H101.691V22.2705Z" fill="white"/>
<path d="M55.3457 63.9519L70.5026 55.2075" stroke="#231F20" stroke-width="0.971596"/>
<path d="M69.1426 55.9849L75.6523 59.6769" stroke="#231F20" stroke-width="0.971596"/>
<path d="M75.6523 59.677L82.162 63.4662" stroke="#FF6A00" stroke-width="0.971596"/>
<path d="M70.5029 53.7502L76.9155 57.4423" stroke="#231F20" stroke-width="0.971596"/>
<path d="M76.915 57.4421L83.4247 61.1342" stroke="#FF6A00" stroke-width="0.971596"/>
<path d="M70.5029 55.2076V48.0178" stroke="#231F20" stroke-width="0.971596"/>
<path d="M70.5029 48.0177V40.925" stroke="#FF6A00" stroke-width="0.971596"/>
<path d="M69.7256 55.6933L70.5029 55.2075V54.8188" stroke="#231F20" stroke-width="0.971596"/>
<path d="M83.3271 63.9519C83.3271 63.1747 83.5215 62.5593 83.9101 62.1059C84.2987 61.6525 84.8817 61.4258 85.659 61.4258C86.3715 61.4258 86.9221 61.6525 87.3107 62.1059C87.6993 62.5593 87.8936 63.1747 87.8936 63.9519C87.8936 64.794 87.6993 65.4417 87.3107 65.8951C86.9221 66.3485 86.3715 66.5752 85.659 66.5752C84.8817 66.5752 84.2987 66.3485 83.9101 65.8951C83.5215 65.4417 83.3271 64.794 83.3271 63.9519ZM85.659 65.9923C86.1124 65.9923 86.501 65.8303 86.8249 65.5065C87.084 65.1178 87.2135 64.5997 87.2135 63.9519C87.2135 63.3042 87.084 62.8184 86.8249 62.4945C86.501 62.1707 86.1124 62.0087 85.659 62.0087C85.1408 62.0087 84.7522 62.1707 84.4931 62.4945C84.1692 62.8184 84.0073 63.3042 84.0073 63.9519C84.0073 64.6644 84.1692 65.1826 84.4931 65.5065C84.7522 65.8303 85.1408 65.9923 85.659 65.9923Z" fill="#FF6A00"/>
<path d="M68.1709 37.719C68.1709 36.9417 68.3652 36.3264 68.7539 35.873C69.1425 35.4196 69.7255 35.1929 70.5027 35.1929C71.2152 35.1929 71.7658 35.4196 72.1544 35.873C72.5431 36.3264 72.7374 36.9417 72.7374 37.719C72.7374 38.5611 72.5431 39.2088 72.1544 39.6622C71.7658 40.1156 71.2152 40.3423 70.5027 40.3423C69.7902 40.3423 69.2073 40.1156 68.7539 39.6622C68.3652 39.2088 68.1709 38.5611 68.1709 37.719ZM70.5027 39.7594C71.0209 39.7594 71.4096 39.5974 71.6686 39.2736C71.9277 38.8849 72.0573 38.3668 72.0573 37.719C72.0573 37.0713 71.9277 36.5855 71.6686 36.2616C71.4096 35.9378 71.0209 35.7758 70.5027 35.7758C69.9845 35.7758 69.5959 35.9378 69.3368 36.2616C69.0777 36.5855 68.9482 37.0713 68.9482 37.719C68.9482 38.4315 69.0777 38.9497 69.3368 39.2736C69.5959 39.5974 69.9845 39.7594 70.5027 39.7594Z" fill="#FF6A00"/>
<path d="M73.5146 35.2898H74.1948V37.4273H76.7209V35.2898H77.401V40.2449H76.7209V37.9131H74.1948V40.2449H73.5146V35.2898Z" fill="#FF6A00"/>
</g>
<path d="M0.557617 79.5945H26.5044V91.72H12.6831C5.9864 91.72 0.557617 86.2912 0.557617 79.5945V79.5945Z" fill="white"/>
<rect x="26.5049" y="79.5945" width="91.1064" height="12.1255" fill="white"/>
<path d="M117.61 79.5945H143.557V79.5945C143.557 86.2912 138.128 91.72 131.432 91.72H117.61V79.5945Z" fill="white"/>
</g>
<rect x="1.30739" y="1.18165" width="141.5" height="84.5005" rx="3.13661" stroke="white" stroke-width="1.49954"/>
<defs>
<clipPath id="clip0_214_14865">
<rect x="0.557617" y="0.431885" width="143" height="86" rx="3.88638" fill="white"/>
</clipPath>
<clipPath id="clip1_214_14865">
<rect width="59.2673" height="57.3242" fill="white" transform="translate(42.4238 22.2705)"/>
</clipPath>
</defs>
</svg>
