<svg width="144" height="87" viewBox="0 0 144 87" fill="none" xmlns="http://www.w3.org/2000/svg">
<g clip-path="url(#clip0_214_14565)">
<rect x="0.932617" y="0.431885" width="143" height="86" rx="3.88638" fill="white"/>
<path d="M0.932617 7.27046C0.932617 0.573023 6.36196 -4.85632 13.0594 -4.85632H26.8794V7.27046H0.932617V7.27046Z" fill="white"/>
<rect x="26.8799" y="-4.85632" width="91.1064" height="12.1268" fill="white"/>
<path d="M117.985 -4.85632H131.805C138.503 -4.85632 143.932 0.573023 143.932 7.27046V7.27046H117.985V-4.85632Z" fill="white"/>
<rect width="143" height="15" transform="translate(0.932617 7.27039)" fill="white"/>
<path d="M19.081 12.8812L18.4281 12.3565C19.0344 11.4549 19.868 11.004 20.929 11.004C21.7374 11.004 22.3728 11.2411 22.8353 11.7153C23.3017 12.1855 23.5348 12.7898 23.5348 13.5283C23.5348 13.983 23.4338 14.393 23.2317 14.7583C23.0335 15.1236 22.7692 15.4831 22.4389 15.8368L20.0021 18.4134H23.803V19.2704H18.6671V18.565L21.751 15.3121C22.3106 14.7253 22.5904 14.1306 22.5904 13.5283C22.5904 13.0425 22.4408 12.6441 22.1416 12.3332C21.8423 12.0184 21.4284 11.861 20.8999 11.861C20.4763 11.861 20.1226 11.9523 19.8389 12.135C19.5591 12.3176 19.3065 12.5664 19.081 12.8812ZM28.3492 15.7901V16.583H25.1079V15.7901H28.3492ZM38.8942 11.109V19.2704H37.9557V12.1583L35.1108 18.3668H34.1256L31.2866 12.2049V19.2704H30.3481V11.109H31.7705L34.6211 17.2767L37.466 11.109H38.8942ZM43.4071 13.639C44.1572 13.639 44.7751 13.9052 45.2609 14.4377C45.7506 14.9701 45.9974 15.6541 46.0013 16.4897C46.0013 16.6102 45.9955 16.719 45.9838 16.8161H41.5592C41.6175 17.3913 41.8273 17.8363 42.1888 18.1511C42.5502 18.462 42.9913 18.6175 43.5121 18.6175C44.1728 18.6175 44.7557 18.3862 45.2609 17.9238L45.7273 18.5184C45.1249 19.0936 44.369 19.3811 43.4596 19.3811C42.6396 19.3811 41.9692 19.1169 41.4484 18.5883C40.9276 18.0559 40.6672 17.3641 40.6672 16.513C40.6672 15.6735 40.9257 14.9856 41.4426 14.4493C41.9595 13.9091 42.6143 13.639 43.4071 13.639ZM43.3896 14.4143C42.8922 14.4143 42.4822 14.5698 42.1596 14.8807C41.837 15.1916 41.6408 15.6016 41.5708 16.1108H45.1152C45.0608 15.5939 44.8762 15.1819 44.5614 14.8749C44.2505 14.5679 43.8599 14.4143 43.3896 14.4143ZM51.314 13.7498V14.5368H48.9297V17.3233C48.9297 17.7392 49.0288 18.0501 49.227 18.256C49.4252 18.462 49.6914 18.565 50.0256 18.565C50.4415 18.565 50.8282 18.4348 51.1857 18.1744L51.5938 18.8332C51.1119 19.1985 50.5658 19.3811 49.9557 19.3811C49.3494 19.3811 48.8811 19.2121 48.5507 18.874C48.2243 18.532 48.061 18.0209 48.061 17.3408V14.5368H46.8543V13.7498H48.061V11.9951H48.9297V13.7498H51.314ZM53.723 10.8758V14.5193C53.9368 14.2161 54.2069 13.9946 54.5333 13.8547C54.8598 13.7109 55.2057 13.639 55.571 13.639C56.255 13.639 56.8088 13.8411 57.2324 14.2453C57.6599 14.6495 57.8737 15.1839 57.8737 15.8484V19.2704H57.0051V16.1341C57.0051 15.6094 56.8652 15.2013 56.5853 14.9099C56.3094 14.6145 55.9188 14.4668 55.4136 14.4668C54.9356 14.4668 54.5333 14.6223 54.2069 14.9332C53.8843 15.2402 53.723 15.6483 53.723 16.1574V19.2704H52.8486V10.8758H53.723ZM64.7283 13.7498L60.2337 21.6255H59.2718L61.3296 18.0753L58.7938 13.7498H59.7673L61.8251 17.2125L63.7722 13.7498H64.7283ZM66.7143 10.8758V19.2704H65.8399V10.8758H66.7143ZM71.7977 15.7901V16.583H68.5565V15.7901H71.7977ZM73.312 12.8812L72.6591 12.3565C73.2654 11.4549 74.099 11.004 75.16 11.004C75.9684 11.004 76.6038 11.2411 77.0663 11.7153C77.5326 12.1855 77.7658 12.7898 77.7658 13.5283C77.7658 13.983 77.6648 14.393 77.4627 14.7583C77.2645 15.1236 77.0002 15.4831 76.6699 15.8368L74.2331 18.4134H78.034V19.2704H72.8981V18.565L75.982 15.3121C76.5416 14.7253 76.8214 14.1306 76.8214 13.5283C76.8214 13.0425 76.6718 12.6441 76.3726 12.3332C76.0733 12.0184 75.6594 11.861 75.1309 11.861C74.7072 11.861 74.3536 11.9523 74.0699 12.135C73.7901 12.3176 73.5374 12.5664 73.312 12.8812ZM82.5802 15.7901V16.583H79.3389V15.7901H82.5802ZM87.3073 13.639C88.0885 13.639 88.7433 13.9111 89.2719 14.4552C89.8004 14.9992 90.0647 15.6833 90.0647 16.5072C90.0647 17.3311 89.8004 18.017 89.2719 18.565C88.7433 19.1091 88.0885 19.3811 87.3073 19.3811C86.4484 19.3811 85.778 19.0722 85.2961 18.4542V19.2704H84.4217V10.8758H85.2961V14.5659C85.778 13.948 86.4484 13.639 87.3073 13.639ZM87.2024 14.4552C86.6311 14.4552 86.1608 14.6514 85.7916 15.0439C85.4224 15.4326 85.2378 15.9203 85.2378 16.5072C85.2378 17.0979 85.4224 17.5895 85.7916 17.982C86.1608 18.3707 86.6311 18.565 87.2024 18.565C87.7853 18.565 88.2595 18.3687 88.6248 17.9762C88.9901 17.5798 89.1728 17.0901 89.1728 16.5072C89.1728 15.9281 88.9882 15.4423 88.619 15.0498C88.2497 14.6534 87.7775 14.4552 87.2024 14.4552ZM96.6352 13.7498V16.9677C96.6352 17.3641 96.5672 17.7197 96.4311 18.0345C96.2951 18.3454 96.1105 18.598 95.8773 18.7924C95.6441 18.9867 95.3779 19.1344 95.0787 19.2354C94.7833 19.3326 94.4666 19.3811 94.1284 19.3811C93.7864 19.3811 93.4658 19.3326 93.1666 19.2354C92.8712 19.1344 92.6069 18.9867 92.3737 18.7924C92.1406 18.598 91.956 18.3454 91.8199 18.0345C91.6878 17.7197 91.6217 17.3641 91.6217 16.9677V13.7498H92.4903V16.8861C92.4903 17.438 92.64 17.8557 92.9392 18.1394C93.2385 18.4232 93.6349 18.565 94.1284 18.565C94.622 18.565 95.0165 18.4232 95.3119 18.1394C95.6111 17.8557 95.7607 17.438 95.7607 16.8861V13.7498H96.6352ZM102.357 13.7498V14.5368H99.9726V17.3233C99.9726 17.7392 100.072 18.0501 100.27 18.256C100.468 18.462 100.734 18.565 101.069 18.565C101.484 18.565 101.871 18.4348 102.229 18.1744L102.637 18.8332C102.155 19.1985 101.609 19.3811 100.999 19.3811C100.392 19.3811 99.924 19.2121 99.5937 18.874C99.2672 18.532 99.104 18.0209 99.104 17.3408V14.5368H97.8973V13.7498H99.104V11.9951H99.9726V13.7498H102.357ZM106.189 13.639C106.939 13.639 107.557 13.9052 108.043 14.4377C108.532 14.9701 108.779 15.6541 108.783 16.4897C108.783 16.6102 108.777 16.719 108.766 16.8161H104.341C104.399 17.3913 104.609 17.8363 104.971 18.1511C105.332 18.462 105.773 18.6175 106.294 18.6175C106.955 18.6175 107.538 18.3862 108.043 17.9238L108.509 18.5184C107.907 19.0936 107.151 19.3811 106.241 19.3811C105.421 19.3811 104.751 19.1169 104.23 18.5883C103.709 18.0559 103.449 17.3641 103.449 16.513C103.449 15.6735 103.707 14.9856 104.224 14.4493C104.741 13.9091 105.396 13.639 106.189 13.639ZM106.171 14.4143C105.674 14.4143 105.264 14.5698 104.941 14.8807C104.619 15.1916 104.423 15.6016 104.353 16.1108H107.897C107.843 15.5939 107.658 15.1819 107.343 14.8749C107.032 14.5679 106.642 14.4143 106.171 14.4143ZM113.127 13.639C113.811 13.639 114.364 13.8411 114.788 14.2453C115.216 14.6495 115.429 15.1839 115.429 15.8484V19.2704H114.561V16.1341C114.561 15.6094 114.421 15.2013 114.141 14.9099C113.865 14.6145 113.475 14.4668 112.969 14.4668C112.491 14.4668 112.089 14.6223 111.763 14.9332C111.44 15.2402 111.279 15.6483 111.279 16.1574V19.2704H110.404V13.7498H111.267V14.5368C111.477 14.2259 111.747 13.9985 112.077 13.8547C112.408 13.7109 112.757 13.639 113.127 13.639ZM122.63 13.7498V19.2704H121.761V18.4484C121.279 19.0702 120.607 19.3811 119.744 19.3811C118.963 19.3811 118.308 19.1091 117.78 18.565C117.251 18.017 116.987 17.3311 116.987 16.5072C116.987 15.6833 117.251 14.9992 117.78 14.4552C118.308 13.9111 118.963 13.639 119.744 13.639C120.603 13.639 121.275 13.9499 121.761 14.5717V13.7498H122.63ZM119.849 14.4552C119.266 14.4552 118.79 14.6534 118.421 15.0498C118.056 15.4423 117.873 15.9281 117.873 16.5072C117.873 17.0862 118.058 17.574 118.427 17.9704C118.796 18.3668 119.27 18.565 119.849 18.565C120.42 18.565 120.891 18.3707 121.26 17.982C121.629 17.5895 121.814 17.0979 121.814 16.5072C121.814 15.9203 121.629 15.4326 121.26 15.0439C120.891 14.6514 120.42 14.4552 119.849 14.4552ZM125.545 10.8758V19.2704H124.671V10.8758H125.545Z" fill="#231F20"/>
<g clip-path="url(#clip1_214_14565)">
<path d="M122.47 22.2704L22.3955 22.2704V79.5945H122.47V22.2704Z" fill="white"/>
<path d="M99.4426 36.3585L90.6982 51.5154" stroke="#231F20" stroke-width="0.971596"/>
<path d="M64.4658 66.6723L73.2102 51.5154" stroke="#231F20" stroke-width="0.971596"/>
<path d="M90.6987 51.5154H73.21" stroke="#231F20" stroke-width="0.971596"/>
<path d="M89.2414 48.8921H74.7646" stroke="#231F20" stroke-width="0.971596"/>
<path d="M64.4658 36.3585L73.2102 51.5154" stroke="#231F20" stroke-width="0.971596"/>
<path d="M64.4657 36.3585H57.1787" stroke="#231F20" stroke-width="0.971596"/>
<path d="M57.1786 36.3585H49.8916" stroke="#FF6A00" stroke-width="0.971596"/>
<path d="M63.0083 38.9818H57.1787" stroke="#231F20" stroke-width="0.971596"/>
<path d="M57.1786 38.9818H49.8916" stroke="#FF6A00" stroke-width="0.971596"/>
<path d="M91.1845 50.7382L90.6987 51.5154H89.8242" stroke="#231F20" stroke-width="0.971596"/>
<path d="M64.9516 37.1358L64.4658 36.3585H64.0771" stroke="#231F20" stroke-width="0.971596"/>
<path d="M44.7422 37.6216C44.7422 36.8443 44.9365 36.229 45.3251 35.7756C45.7138 35.3222 46.2644 35.0955 46.9769 35.0955C47.7541 35.0955 48.3371 35.3222 48.7257 35.7756C49.1144 36.229 49.3087 36.8443 49.3087 37.6216C49.3087 38.4637 49.082 39.1114 48.6286 39.5648C48.2399 40.0182 47.6894 40.2449 46.9769 40.2449C46.2644 40.2449 45.7138 40.0182 45.3251 39.5648C44.9365 39.1114 44.7422 38.4637 44.7422 37.6216ZM46.9769 39.662C47.495 39.662 47.8837 39.5 48.1428 39.1762C48.4019 38.8523 48.5314 38.3341 48.5314 37.6216C48.5314 36.9739 48.4019 36.4881 48.1428 36.1642C47.8837 35.8403 47.495 35.6784 46.9769 35.6784C46.4587 35.6784 46.07 35.8403 45.8109 36.1642C45.5519 36.4881 45.4223 36.9739 45.4223 37.6216C45.4223 38.3341 45.5519 38.8523 45.8109 39.1762C46.07 39.5 46.4587 39.662 46.9769 39.662Z" fill="#FF6A00"/>
</g>
<path d="M0.932617 79.5946H26.8794V91.7201H13.0581C6.3614 91.7201 0.932617 86.2913 0.932617 79.5946V79.5946Z" fill="white"/>
<rect x="26.8799" y="79.5946" width="91.1064" height="12.1255" fill="white"/>
<path d="M117.985 79.5946H143.932V79.5946C143.932 86.2913 138.503 91.7201 131.807 91.7201H117.985V79.5946Z" fill="white"/>
</g>
<rect x="1.68239" y="1.18165" width="141.5" height="84.5005" rx="3.13661" stroke="white" stroke-width="1.49954"/>
<defs>
<clipPath id="clip0_214_14565">
<rect x="0.932617" y="0.431885" width="143" height="86" rx="3.88638" fill="white"/>
</clipPath>
<clipPath id="clip1_214_14565">
<rect width="100.074" height="57.3242" fill="white" transform="translate(22.3955 22.2704)"/>
</clipPath>
</defs>
</svg>
