<svg width="144" height="87" viewBox="0 0 144 87" fill="none" xmlns="http://www.w3.org/2000/svg">
<g clip-path="url(#clip0_214_15105)">
<rect x="0.932617" y="0.431885" width="143" height="86" rx="3.88638" fill="white"/>
<path d="M0.932617 6.29891C0.932617 -0.398535 6.36196 -5.82788 13.0594 -5.82788L26.8794 -5.82788V6.29891H0.932617V6.29891Z" fill="white"/>
<rect x="26.8799" y="-5.82788" width="91.1064" height="12.1268" fill="white"/>
<path d="M117.985 -5.82788L131.805 -5.82788C138.503 -5.82788 143.932 -0.398535 143.932 6.29891V6.29891L117.985 6.29891V-5.82788Z" fill="white"/>
<rect width="143" height="15" transform="translate(0.932617 6.29883)" fill="white"/>
<path d="M27.8882 10.0325C28.6927 10.0325 29.3437 10.2404 29.8411 10.6563C30.3386 11.0682 30.5873 11.6045 30.5873 12.2652C30.5873 12.7316 30.4746 13.1241 30.2492 13.4428C30.0238 13.7615 29.7109 14.0063 29.3106 14.1773C29.7576 14.3405 30.1112 14.5873 30.3716 14.9177C30.6359 15.248 30.768 15.6464 30.768 16.1127C30.768 16.4159 30.7156 16.6938 30.6106 16.9464C30.5096 17.199 30.3697 17.4147 30.1909 17.5934C30.016 17.7683 29.81 17.918 29.573 18.0423C29.3359 18.1667 29.0813 18.258 28.8093 18.3163C28.5372 18.3746 28.2555 18.4038 27.964 18.4038C27.4044 18.4038 26.8991 18.3105 26.4483 18.1239C25.9975 17.9374 25.6205 17.6731 25.3174 17.3311L25.8945 16.7307C26.151 16.9949 26.4561 17.2009 26.8097 17.3486C27.1673 17.4924 27.5462 17.5643 27.9465 17.5643C28.4867 17.5643 28.9356 17.4361 29.2931 17.1795C29.6507 16.923 29.8295 16.5538 29.8295 16.0719C29.8295 15.6133 29.641 15.2519 29.264 14.9876C28.8909 14.7234 28.4226 14.5912 27.8591 14.5912H26.7864V13.7692H27.8532C28.3779 13.7692 28.8073 13.6429 29.1416 13.3903C29.4797 13.1377 29.6487 12.7782 29.6487 12.3119C29.6487 11.8805 29.4777 11.5326 29.1357 11.2684C28.7937 11.0041 28.3604 10.8719 27.8357 10.8719C27.451 10.8719 27.1032 10.9594 26.7923 11.1343C26.4852 11.3053 26.2326 11.5268 26.0344 11.7989L25.3873 11.245C25.6361 10.8758 25.9742 10.5824 26.4017 10.3648C26.8292 10.1433 27.3247 10.0325 27.8882 10.0325ZM35.4858 14.8186V15.6114H32.2445V14.8186H35.4858ZM46.0309 10.1374V18.2988H45.0923V11.1867L42.2475 17.3952H41.2623L38.4233 11.2334V18.2988H37.4847V10.1374H38.9071L41.7578 16.3051L44.6026 10.1374H46.0309ZM50.5438 12.6675C51.2938 12.6675 51.9118 12.9337 52.3976 13.4661C52.8873 13.9985 53.134 14.6825 53.1379 15.5181C53.1379 15.6386 53.1321 15.7474 53.1204 15.8446H48.6958C48.7541 16.4198 48.964 16.8648 49.3254 17.1795C49.6868 17.4905 50.1279 17.6459 50.6487 17.6459C51.3094 17.6459 51.8923 17.4147 52.3976 16.9522L52.8639 17.5468C52.2615 18.122 51.5056 18.4096 50.5962 18.4096C49.7762 18.4096 49.1058 18.1453 48.585 17.6168C48.0643 17.0843 47.8039 16.3926 47.8039 15.5414C47.8039 14.702 48.0623 14.0141 48.5792 13.4778C49.0961 12.9376 49.7509 12.6675 50.5438 12.6675ZM50.5263 13.4428C50.0288 13.4428 49.6188 13.5982 49.2962 13.9092C48.9737 14.2201 48.7774 14.6301 48.7074 15.1392H52.2518C52.1974 14.6223 52.0128 14.2104 51.698 13.9033C51.3871 13.5963 50.9965 13.4428 50.5263 13.4428ZM58.4506 12.7782V13.5652H56.0663V16.3517C56.0663 16.7676 56.1654 17.0785 56.3636 17.2845C56.5618 17.4905 56.828 17.5934 57.1622 17.5934C57.5781 17.5934 57.9648 17.4633 58.3223 17.2029L58.7304 17.8616C58.2485 18.2269 57.7025 18.4096 57.0923 18.4096C56.486 18.4096 56.0177 18.2405 55.6874 17.9024C55.3609 17.5604 55.1977 17.0494 55.1977 16.3692V13.5652H53.991V12.7782H55.1977V11.0235H56.0663V12.7782H58.4506ZM60.8597 9.90424V13.5477C61.0734 13.2446 61.3435 13.0231 61.67 12.8832C61.9964 12.7394 62.3423 12.6675 62.7076 12.6675C63.3916 12.6675 63.9454 12.8695 64.3691 13.2737C64.7966 13.6779 65.0103 14.2123 65.0103 14.8769V18.2988H64.1417V15.1625C64.1417 14.6379 64.0018 14.2298 63.722 13.9383C63.446 13.6429 63.0555 13.4953 62.5502 13.4953C62.0722 13.4953 61.67 13.6507 61.3435 13.9616C61.0209 14.2686 60.8597 14.6767 60.8597 15.1858V18.2988H59.9852V9.90424H60.8597ZM71.8649 12.7782L67.3703 20.654H66.4084L68.4662 17.1038L65.9304 12.7782H66.9039L68.9618 16.241L70.9088 12.7782H71.8649ZM73.851 9.90424V18.2988H72.9765V9.90424H73.851ZM78.7769 12.6675C79.5581 12.6675 80.213 12.9395 80.7415 13.4836C81.2701 14.0277 81.5343 14.7117 81.5343 15.5356C81.5343 16.3595 81.2701 17.0455 80.7415 17.5934C80.213 18.1375 79.5581 18.4096 78.7769 18.4096C77.9181 18.4096 77.2477 18.1006 76.7657 17.4827V20.6307H75.8913V12.7782H76.7657V13.5944C77.2477 12.9764 77.9181 12.6675 78.7769 12.6675ZM78.672 13.4836C78.1007 13.4836 77.6305 13.6799 77.2613 14.0724C76.8921 14.461 76.7074 14.9488 76.7074 15.5356C76.7074 16.1263 76.8921 16.618 77.2613 17.0105C77.6305 17.3991 78.1007 17.5934 78.672 17.5934C79.255 17.5934 79.7291 17.3972 80.0944 17.0047C80.4598 16.6083 80.6424 16.1186 80.6424 15.5356C80.6424 14.9565 80.4578 14.4707 80.0886 14.0782C79.7194 13.6818 79.2472 13.4836 78.672 13.4836ZM88.0215 12.7782L83.5269 20.654H82.565L84.6228 17.1038L82.087 12.7782H83.0605L85.1183 16.241L87.0654 12.7782H88.0215ZM91.634 12.6675C92.0382 12.6675 92.3763 12.7296 92.6483 12.854L92.4385 13.711C92.1664 13.5633 91.8477 13.4894 91.4824 13.4894C91.0471 13.4894 90.6915 13.6468 90.4156 13.9616C90.1397 14.2764 90.0017 14.6923 90.0017 15.2092V18.2988H89.1331V12.7782H89.9959V13.5536C90.1863 13.2698 90.4214 13.0522 90.7013 12.9006C90.985 12.7452 91.2959 12.6675 91.634 12.6675ZM94.8465 12.7782V18.2988H93.9721V12.7782H94.8465ZM94.4093 10.2015C94.5803 10.2015 94.7261 10.2618 94.8465 10.3823C94.967 10.4989 95.0272 10.6446 95.0272 10.8195C95.0272 10.9944 94.967 11.1401 94.8465 11.2567C94.7299 11.3733 94.5842 11.4316 94.4093 11.4316C94.2344 11.4316 94.0887 11.3733 93.9721 11.2567C93.8555 11.1401 93.7972 10.9944 93.7972 10.8195C93.7972 10.6446 93.8555 10.4989 93.9721 10.3823C94.0887 10.2618 94.2344 10.2015 94.4093 10.2015ZM99.2245 12.6675C100.083 12.6675 100.756 12.9784 101.242 13.6002V9.90424L102.11 9.90424V18.2988H101.242V17.4769C100.76 18.0987 100.087 18.4096 99.2245 18.4096C98.4434 18.4096 97.7885 18.1375 97.26 17.5934C96.7314 17.0455 96.4672 16.3595 96.4672 15.5356C96.4672 14.7117 96.7314 14.0277 97.26 13.4836C97.7885 12.9395 98.4434 12.6675 99.2245 12.6675ZM99.3295 13.4836C98.7465 13.4836 98.2704 13.6818 97.9012 14.0782C97.5359 14.4707 97.3532 14.9565 97.3532 15.5356C97.3532 16.1147 97.5379 16.6024 97.9071 16.9988C98.2763 17.3952 98.7504 17.5934 99.3295 17.5934C99.9008 17.5934 100.371 17.3991 100.74 17.0105C101.109 16.618 101.294 16.1263 101.294 15.5356C101.294 14.9488 101.109 14.461 100.74 14.0724C100.371 13.6799 99.9008 13.4836 99.3295 13.4836ZM105.026 12.7782V18.2988H104.151V12.7782L105.026 12.7782ZM104.588 10.2015C104.759 10.2015 104.905 10.2618 105.026 10.3823C105.146 10.4989 105.206 10.6446 105.206 10.8195C105.206 10.9944 105.146 11.1401 105.026 11.2567C104.909 11.3733 104.763 11.4316 104.588 11.4316C104.413 11.4316 104.268 11.3733 104.151 11.2567C104.034 11.1401 103.976 10.9944 103.976 10.8195C103.976 10.6446 104.034 10.4989 104.151 10.3823C104.268 10.2618 104.413 10.2015 104.588 10.2015ZM109.788 12.6675C110.472 12.6675 111.026 12.8695 111.45 13.2737C111.877 13.6779 112.091 14.2123 112.091 14.8769V18.2988H111.222V15.1625C111.222 14.6379 111.082 14.2298 110.803 13.9383C110.527 13.6429 110.136 13.4953 109.631 13.4953C109.153 13.4953 108.751 13.6507 108.424 13.9616C108.102 14.2686 107.94 14.6767 107.94 15.1858V18.2988H107.066V12.7782H107.929V13.5652C108.139 13.2543 108.409 13.0269 108.739 12.8832C109.069 12.7394 109.419 12.6675 109.788 12.6675ZM116.388 12.6675C117.138 12.6675 117.756 12.9337 118.242 13.4661C118.732 13.9985 118.979 14.6825 118.983 15.5181C118.983 15.6386 118.977 15.7474 118.965 15.8446H114.54C114.599 16.4198 114.809 16.8648 115.17 17.1795C115.531 17.4905 115.973 17.6459 116.493 17.6459C117.154 17.6459 117.737 17.4147 118.242 16.9522L118.709 17.5468C118.106 18.122 117.35 18.4096 116.441 18.4096C115.621 18.4096 114.95 18.1453 114.43 17.6168C113.909 17.0843 113.648 16.3926 113.648 15.5414C113.648 14.702 113.907 14.0141 114.424 13.4778C114.941 12.9376 115.596 12.6675 116.388 12.6675ZM116.371 13.4428C115.873 13.4428 115.463 13.5982 115.141 13.9092C114.818 14.2201 114.622 14.6301 114.552 15.1392H118.096C118.042 14.6223 117.857 14.2104 117.543 13.9033C117.232 13.5963 116.841 13.4428 116.371 13.4428Z" fill="#231F20"/>
<g clip-path="url(#clip1_214_15105)">
<path d="M120.527 21.2988L24.3389 21.2988V80.5662H120.527V21.2988Z" fill="white"/>
<path d="M46.1025 51.7097H63.5913" stroke="#231F20" stroke-width="0.971596"/>
<path d="M89.9218 66.8667H72.3359" stroke="#231F20" stroke-width="0.971596"/>
<path d="M88.3674 64.2434H73.8906" stroke="#231F20" stroke-width="0.971596"/>
<path d="M89.9219 66.8666L98.6662 51.7097" stroke="#231F20" stroke-width="0.971596"/>
<path d="M72.3362 66.8666L63.5918 51.7097" stroke="#231F20" stroke-width="0.971596"/>
<path d="M98.6667 51.7099L95.1689 45.686" stroke="#231F20" stroke-width="0.971596"/>
<path d="M95.1677 45.6858L91.6699 39.6619" stroke="#0F4BA3" stroke-width="0.971596"/>
<path d="M95.5564 51.7097L92.4473 46.366" stroke="#231F20" stroke-width="0.971596"/>
<path d="M92.448 46.366L89.3389 40.925" stroke="#0F4BA3" stroke-width="0.971596"/>
<path d="M72.3362 36.5527L63.5918 51.7096" stroke="#231F20" stroke-width="0.971596"/>
<path d="M73.89 39.176L66.7002 51.7096" stroke="#231F20" stroke-width="0.971596"/>
<path d="M72.3359 36.5527H79.9144" stroke="#231F20" stroke-width="0.971596"/>
<path d="M79.9141 36.5527H87.3954" stroke="#0F4BA3" stroke-width="0.971596"/>
<path d="M88.9502 66.8669H89.9218L90.3104 66.0896" stroke="#231F20" stroke-width="0.971596"/>
<path d="M73.2103 66.8669H72.3359L71.9473 66.0896" stroke="#231F20" stroke-width="0.971596"/>
<path d="M98.1797 52.487L98.6655 51.7097L98.4712 51.4182" stroke="#231F20" stroke-width="0.971596"/>
<path d="M71.9473 37.33L72.3359 36.5527H72.7245" stroke="#231F20" stroke-width="0.971596"/>
<path d="M88.7558 34.1238L90.4075 36.7471C90.5371 36.9414 90.6666 37.1681 90.7961 37.4272C90.9905 37.7511 91.0876 37.913 91.0876 37.913V34.1238H91.7677V39.0789H91.0876L89.3388 36.1641C89.2092 35.9698 89.0797 35.7431 88.9501 35.484C88.7558 35.2249 88.6586 35.063 88.6586 34.9982V39.0789H87.9785V34.1238H88.7558Z" fill="#0F4BA3"/>
</g>
<path d="M0.932617 80.5662H26.8794V92.6917H13.0581C6.3614 92.6917 0.932617 87.2629 0.932617 80.5662V80.5662Z" fill="white"/>
<rect x="26.8799" y="80.5662" width="91.1064" height="12.1255" fill="white"/>
<path d="M117.985 80.5662H143.932V80.5662C143.932 87.2629 138.503 92.6917 131.807 92.6917H117.985V80.5662Z" fill="white"/>
</g>
<rect x="1.68239" y="1.18165" width="141.5" height="84.5005" rx="3.13661" stroke="white" stroke-width="1.49954"/>
<defs>
<clipPath id="clip0_214_15105">
<rect x="0.932617" y="0.431885" width="143" height="86" rx="3.88638" fill="white"/>
</clipPath>
<clipPath id="clip1_214_15105">
<rect width="96.188" height="59.2673" fill="white" transform="translate(24.3389 21.2988)"/>
</clipPath>
</defs>
</svg>
